<?xml version="1.0" encoding="UTF-8"?>
<svg viewBox="0 0 315 570" version="1.1" xmlns="http://www.w3.org/2000/svg" xmlns:xlink="http://www.w3.org/1999/xlink">
    <title>cardChap2-mars</title>
    <defs>
        <linearGradient x1="50%" y1="100%" x2="50%" y2="0%" id="linearGradient-1">
            <stop stop-color="#FFFFFF" offset="0%"></stop>
            <stop stop-color="#E0E9FF" offset="100%"></stop>
        </linearGradient>
        <linearGradient x1="16.4979253%" y1="-40.420248%" x2="65.032336%" y2="85.7636464%" id="linearGradient-2">
            <stop stop-color="#D1FFFC" offset="0%"></stop>
            <stop stop-color="#5749E6" offset="100%"></stop>
        </linearGradient>
        <path d="M298,254 C306.836556,254 314,261.163444 314,270 L314.003355,509.224866 C272.398858,546.40908 217.57647,569 157.5,569 C97.6395652,569 42.9954927,546.571262 1.44598703,509.625443 L1.02799033,270.027941 C1.01255867,261.191399 8.16348192,254.015456 17.0000244,254.000024 L298,254 Z" id="path-3"></path>
        <filter x="-107.8%" y="-107.1%" width="315.7%" height="314.3%" filterUnits="objectBoundingBox" id="filter-4">
            <feOffset dx="0" dy="0" in="SourceAlpha" result="shadowOffsetOuter1"></feOffset>
            <feGaussianBlur stdDeviation="112.5" in="shadowOffsetOuter1" result="shadowBlurOuter1"></feGaussianBlur>
            <feColorMatrix values="0 0 0 0 1   0 0 0 0 1   0 0 0 0 1  0 0 0 0.5 0" type="matrix" in="shadowBlurOuter1"></feColorMatrix>
        </filter>
        <path d="M296.972035,0 C305.808591,-5.17596268e-15 312.972035,7.163444 312.972035,16 L312.97539,255.224866 C271.370893,292.40908 216.548505,315 156.472035,315 C96.6115998,315 41.9675273,292.571262 0.418021631,255.625443 L2.49291547e-05,16.0279415 C-0.0154067317,7.19139897 7.13551651,0.0154560586 15.972059,2.43977396e-05 L296.972035,0 Z" id="path-5"></path>
        <linearGradient x1="50%" y1="100%" x2="50%" y2="0%" id="linearGradient-7">
            <stop stop-color="#FFFFFF" offset="0%"></stop>
            <stop stop-color="#FFFFFF" stop-opacity="0.145951705" offset="36.1888112%"></stop>
            <stop stop-color="#FFFFFF" stop-opacity="0.168434874" offset="52.8682255%"></stop>
            <stop stop-color="#ECF1FF" stop-opacity="0.44618553" offset="68.6106862%"></stop>
            <stop stop-color="#C5D5FF" offset="100%"></stop>
        </linearGradient>
        <linearGradient x1="50%" y1="100%" x2="50%" y2="0%" id="linearGradient-8">
            <stop stop-color="#FFFFFF" offset="0%"></stop>
            <stop stop-color="#FFFFFF" stop-opacity="0.145951705" offset="36.1888112%"></stop>
            <stop stop-color="#FFFFFF" stop-opacity="0.168434874" offset="52.8682255%"></stop>
            <stop stop-color="#ECF1FF" stop-opacity="0.44618553" offset="68.6106862%"></stop>
            <stop stop-color="#C5D5FF" offset="100%"></stop>
        </linearGradient>
    </defs>
    <g id="cardChap2-mars" stroke="none" stroke-width="1" fill="none" fill-rule="evenodd">
        <rect id="bg-bottom" fill="url(#linearGradient-1)" x="0" y="0" width="315" height="570" rx="16"></rect>
        <g id="bg-top" transform="translate(157.515660, 411.500000) scale(1, -1) translate(-157.515660, -411.500000) ">
            <use fill="black" fill-opacity="1" filter="url(#filter-4)" xlink:href="#path-3"></use>
            <use fill="url(#linearGradient-2)" fill-rule="evenodd" xlink:href="#path-3"></use>
        </g>
        <g id="cercles" transform="translate(0.991860, 144.077004)">
            <path d="M313.025859,394.666244 C265.11701,374.231935 212.383247,362.922996 157.00814,362.922996 C101.251177,362.922996 48.1721121,374.388441 0,395.090278" id="Path" stroke="#443CE0" opacity="0.2"></path>
            <g id="Oval" opacity="0.5" transform="translate(0.036105, 109.922996)">
                <mask id="mask-6" fill="white">
                    <use xlink:href="#path-5"></use>
                </mask>
                <g id="Mask" transform="translate(156.487695, 157.500000) scale(1, -1) translate(-156.487695, -157.500000) "></g>
                <circle stroke="#443CE0" opacity="0.4" mask="url(#mask-6)" cx="156.78276" cy="104.621451" r="147.5"></circle>
            </g>
            <path d="M0.314391232,5.68434189e-14 C40.0934505,40.7426673 95.6253337,66.0365603 157.064922,66.0365603 C218.096381,66.0365603 273.298361,41.0775948 313.02064,0.809885984" id="Path" stroke="#DEE7FF"></path>
        </g>
        <path d="M259.503023,15.5 C259.634463,26.3644827 264.043861,36.1994379 271.124855,43.3985334 C278.326552,50.7203448 288.291722,55.3155998 299.334476,55.4946247 L299.334476,55.4946247 L299.5,514.503023 C288.635517,514.634463 278.800562,519.043861 271.601467,526.124855 C264.279655,533.326552 259.6844,543.291722 259.505375,554.334476 L259.505375,554.334476 L55.4969769,554.5 C55.3655367,543.635517 50.956139,533.800562 43.875145,526.601467 C36.6734484,519.279655 26.7082777,514.6844 15.6655237,514.505375 L15.6655237,514.505375 L15.5,55.4969769 C26.3644827,55.3655367 36.1994379,50.956139 43.3985334,43.875145 C50.7203448,36.6734484 55.3155998,26.7082777 55.4946247,15.6655237 L55.4946247,15.6655237 Z" id="cadre-ext" stroke="url(#linearGradient-7)"></path>
        <path d="M129.550273,25.5 C130.414683,33.0797128 134.191391,39.6178995 139.640382,44.1078456 C145.205641,48.6935962 152.515464,51.1429078 160.249811,50.3830421 C166.875015,49.7321449 172.812762,46.8046019 177.275819,42.3904003 C181.644321,38.0697192 184.599928,32.3246948 185.404457,25.8961771 L185.404457,25.8961771 L284,25.5 C285.518783,25.5 286.893783,26.1156085 287.889087,27.1109127 C288.884392,28.1062169 289.5,29.4812169 289.5,31 L289.5,31 L289.5,539 C289.5,540.518783 288.884392,541.893783 287.889087,542.889087 C286.893783,543.884392 285.518783,544.5 284,544.5 L284,544.5 L173.41751,544.5 C172.58436,540.206082 170.175948,536.638288 166.913812,534.291408 C163.530775,531.857549 159.229082,530.736381 154.810448,531.480572 C151.441297,532.048008 148.435168,533.641229 146.119239,535.929672 C143.894115,538.128389 142.306153,540.968891 141.645483,544.157977 L141.645483,544.157977 L31,544.5 C29.4812169,544.5 28.1062169,543.884392 27.1109127,542.889087 C26.1156085,541.893783 25.5,540.518783 25.5,539 L25.5,539 L25.5,31 C25.5,29.4812169 26.1156085,28.1062169 27.1109127,27.1109127 C28.1062169,26.1156085 29.4812169,25.5 31,25.5 L31,25.5 Z" id="cadre-int" stroke="url(#linearGradient-8)"></path>
        <g id="fioritures" transform="translate(14.171573, 14.171573)">
            <rect id="Rectangle" fill="#C3D5FF" transform="translate(284.000000, 2.828427) rotate(45.000000) translate(-284.000000, -2.828427) " x="282" y="0.828427125" width="4" height="4"></rect>
            <rect id="Rectangle" fill-opacity="0.7" fill="#FFFFFF" transform="translate(2.828427, 538.828427) rotate(45.000000) translate(-2.828427, -538.828427) " x="0.828427125" y="536.828427" width="4" height="4"></rect>
            <path d="M143.328427,532.695829 C141.66176,532.695829 139.995094,533.430384 138.328427,534.899495 C139.797538,533.232828 140.532093,531.566162 140.532093,529.899495 C140.532093,528.232828 139.797538,526.566162 138.328427,524.899495 C139.995094,526.368606 141.66176,527.103161 143.328427,527.103161 C144.995094,527.103161 146.66176,526.368606 148.328427,524.899495 C146.859316,526.566162 146.124761,528.232828 146.124761,529.899495 C146.124761,531.566162 146.859316,533.232828 148.328427,534.899495 C146.66176,533.430384 144.995094,532.695829 143.328427,532.695829 Z" id="Star" fill-opacity="0.7" fill="#FFFFFF" transform="translate(143.328427, 529.899495) rotate(45.000000) translate(-143.328427, -529.899495) "></path>
            <path d="M9.45282302,1.22842712 L9.50845601,1.28334442 C10.5942424,2.36913086 11.2658153,3.86913086 11.2658153,5.52598511 C11.2658153,8.83969361 8.57952382,11.5259851 5.26581532,11.5259851 C3.71116961,11.5259851 2.29462291,10.934713 1.22878402,9.96477757 C3.19001324,6.40414219 6.02812078,3.39538474 9.45282302,1.22842712 L9.45282302,1.22842712 Z" id="Combined-Shape" fill="#C3D5FF" transform="translate(6.247121, 6.377206) scale(-1, -1) translate(-6.247121, -6.377206) "></path>
            <path d="M284.352823,530.828427 L284.408456,530.883344 C285.494242,531.969131 286.165815,533.469131 286.165815,535.125985 C286.165815,538.439694 283.479524,541.125985 280.165815,541.125985 C278.61117,541.125985 277.194623,540.534713 276.128784,539.564778 C278.090013,536.004142 280.928121,532.995385 284.352823,530.828427 L284.352823,530.828427 Z" id="Combined-Shape" fill-opacity="0.7" fill="#FFFFFF"></path>
        </g>
        <path d="M23.7797699,295.791473 C47.4143779,245.477218 98.5434627,210.621451 157.810726,210.621451 C217.348574,210.621451 268.675282,245.777523 292.164232,296.463049 L290.519943,295.322052 L23.7797699,295.791473 Z M290.523114,295.32396 C266.315643,244.645265 215.058823,211.621451 157.810726,211.621451 C100.810195,211.621451 49.7347269,244.35936 25.3952119,294.706384 L23.7791973,295.792467" id="Oval" fill="#DEE7FF" fill-rule="nonzero"></path>
    </g>
</svg>