<?xml version="1.0" encoding="UTF-8"?>
<svg viewBox="0 0 315 570" version="1.1" xmlns="http://www.w3.org/2000/svg" xmlns:xlink="http://www.w3.org/1999/xlink">
    <title>cardChap2-mars</title>
    <defs>
        <linearGradient x1="50%" y1="100%" x2="50%" y2="0%" id="linearGradient-1">
            <stop stop-color="#FFFFFF" offset="0%"></stop>
            <stop stop-color="#E0E9FF" offset="100%"></stop>
        </linearGradient>
        <linearGradient x1="16.4979253%" y1="-40.420248%" x2="65.032336%" y2="85.7636464%" id="linearGradient-2">
            <stop stop-color="#D1FFFC" offset="0%"></stop>
            <stop stop-color="#5749E6" offset="100%"></stop>
        </linearGradient>
        <path d="M298,254 C306.836556,254 314,261.163444 314,270 L314.003355,509.224866 C272.398858,546.40908 217.57647,569 157.5,569 C97.6395652,569 42.9954927,546.571262 1.44598703,509.625443 L1.02799033,270.027941 C1.01255867,261.191399 8.16348192,254.015456 17.0000244,254.000024 L298,254 Z" id="path-3"></path>
        <filter x="-107.8%" y="-107.1%" width="315.7%" height="314.3%" filterUnits="objectBoundingBox" id="filter-4">
            <feOffset dx="0" dy="0" in="SourceAlpha" result="shadowOffsetOuter1"></feOffset>
            <feGaussianBlur stdDeviation="112.5" in="shadowOffsetOuter1" result="shadowBlurOuter1"></feGaussianBlur>
            <feColorMatrix values="0 0 0 0 1   0 0 0 0 1   0 0 0 0 1  0 0 0 0.5 0" type="matrix" in="shadowBlurOuter1"></feColorMatrix>
        </filter>
        <path d="M299,0 C307.836556,-1.623249e-15 315,7.163444 315,16 L315,554 C315,562.836556 307.836556,570 299,570 L16,570 C7.163444,570 1.082166e-15,562.836556 0,554 L0,16 C-1.082166e-15,7.163444 7.163444,1.623249e-15 16,0 L299,0 Z M157.5,254 C97.6395652,254 42.9954927,276.428738 1.44598703,313.374557 L1.02799033,552.972059 C1.01255867,561.808601 8.16348192,568.984544 17.0000244,568.999976 L298,569 C306.836556,569 314,561.836556 314,553 L314.003355,313.775134 C272.398858,276.59092 217.57647,254 157.5,254 Z" id="path-5"></path>
        <path d="M296.972035,0 C305.808591,-5.17596268e-15 312.972035,7.163444 312.972035,16 L312.97539,255.224866 C271.370893,292.40908 216.548505,315 156.472035,315 C96.6115998,315 41.9675273,292.571262 0.418021631,255.625443 L2.49291547e-05,16.0279415 C-0.0154067317,7.19139897 7.13551651,0.0154560586 15.972059,2.43977396e-05 L296.972035,0 Z" id="path-7"></path>
        <linearGradient x1="50%" y1="100%" x2="50%" y2="0%" id="linearGradient-9">
            <stop stop-color="#FFFFFF" offset="0%"></stop>
            <stop stop-color="#FFFFFF" stop-opacity="0.145951705" offset="36.1888112%"></stop>
            <stop stop-color="#FFFFFF" stop-opacity="0.168434874" offset="52.8682255%"></stop>
            <stop stop-color="#ECF1FF" stop-opacity="0.44618553" offset="68.6106862%"></stop>
            <stop stop-color="#C5D5FF" offset="100%"></stop>
        </linearGradient>
        <linearGradient x1="50%" y1="100%" x2="50%" y2="0%" id="linearGradient-10">
            <stop stop-color="#FFFFFF" offset="0%"></stop>
            <stop stop-color="#FFFFFF" stop-opacity="0.145951705" offset="36.1888112%"></stop>
            <stop stop-color="#FFFFFF" stop-opacity="0.168434874" offset="52.8682255%"></stop>
            <stop stop-color="#ECF1FF" stop-opacity="0.44618553" offset="68.6106862%"></stop>
            <stop stop-color="#C5D5FF" offset="100%"></stop>
        </linearGradient>
    </defs>
    <g id="cardChap2-mars" stroke="none" stroke-width="1" fill="none" fill-rule="evenodd">
        <rect id="bg-bottom" fill="url(#linearGradient-1)" x="0" y="0" width="315" height="570" rx="16"></rect>
        <g id="bg-top" transform="translate(157.515660, 411.500000) scale(1, -1) translate(-157.515660, -411.500000) ">
            <use fill="black" fill-opacity="1" filter="url(#filter-4)" xlink:href="#path-3"></use>
            <use fill="url(#linearGradient-2)" fill-rule="evenodd" xlink:href="#path-3"></use>
        </g>
        <g id="cercles">
            <path d="M314.017719,538.743248 C266.10887,518.308939 213.375107,507 158,507 C102.243037,507 49.1639723,518.465445 0.991860153,539.167282" id="Path" stroke="#443CE0" opacity="0.2"></path>
            <g id="Oval">
                <mask id="mask-6" fill="white">
                    <use xlink:href="#path-5"></use>
                </mask>
                <path stroke="#FFFFFF" d="M299,0.5 C303.280207,0.5 307.155207,2.23489659 309.960155,5.03984489 C312.674621,7.75431099 314.386958,11.4709067 314.494606,15.5870737 L314.5,16 L314.5,313.548 L313.24798,312.435398 C272.109214,276.118267 218.281676,253.950921 159.306949,253.506802 L157.5,253.5 C97.4317274,253.5 42.6049161,276.036726 0.946378258,313.14987 L0.946378258,313.14987 L0.527991093,552.971186 L0.532636388,553.397067 C0.636124658,557.784431 2.45279975,561.749219 5.34034679,564.646869 C8.32104051,567.637992 12.442809,569.492018 16.9991513,569.499975 L16.9991513,569.499975 L298,569.5 L16,569.5 C11.7197932,569.5 7.84479319,567.765103 5.03984489,564.960155 C2.3253788,562.245689 0.61304229,558.529093 0.505393593,554.412926 L0.5,554 L0.5,16 C0.5,11.7197932 2.23489659,7.84479319 5.03984489,5.03984489 C7.75431099,2.3253788 11.4709067,0.61304229 15.5870737,0.505393593 L16,0.5 L299,0.5 Z M314.5,493.138 L314.5,554 C314.5,558.280207 312.765103,562.155207 309.960155,564.960155 C307.245689,567.674621 303.529093,569.386958 299.412926,569.494606 L299,569.5 L298,569.5 L298.425872,569.494611 C302.813049,569.383461 306.774659,567.559865 309.667262,564.667262 C312.653175,561.681349 314.5,557.556349 314.5,553 L314.5,553 L314.5,493.138 Z"></path>
                <path d="M157.810726,211.121451 C187.003921,211.121451 214.216338,219.602312 237.118392,234.23497 C260.766024,249.343996 279.818269,271.011516 291.710579,296.673283 C300.439445,315.508828 305.310726,336.496272 305.310726,358.621451 C305.310726,399.352451 288.801226,436.227451 262.108976,462.919701 C235.416726,489.611951 198.541726,506.121451 157.810726,506.121451 C117.079725,506.121451 80.2047253,489.611951 53.5124753,462.919701 C26.8202254,436.227451 10.3107256,399.352451 10.3107256,358.621451 C10.3107256,336.226605 15.3014777,314.997398 24.2317577,295.985529 C36.1986154,270.509023 55.2392416,249.014116 78.8230979,234.031069 C101.65845,219.523553 128.753396,211.121451 157.810726,211.121451 Z" stroke="#DEE7FF" mask="url(#mask-6)"></path>
            </g>
            <g id="Oval" opacity="0.5" transform="translate(1.027965, 254.000000)">
                <mask id="mask-8" fill="white">
                    <use xlink:href="#path-7"></use>
                </mask>
                <g id="Mask" transform="translate(156.487695, 157.500000) scale(1, -1) translate(-156.487695, -157.500000) "></g>
                <circle stroke="#443CE0" opacity="0.4" mask="url(#mask-8)" cx="156.78276" cy="104.621451" r="147.5"></circle>
            </g>
            <path d="M1.30625139,144.077004 C41.0853106,184.819672 96.6171939,210.113565 158.056782,210.113565 C219.088241,210.113565 274.290221,185.154599 314.0125,144.88689" id="Path" stroke="#DEE7FF"></path>
        </g>
        <path d="M259.503023,15.5 C259.634463,26.3644827 264.043861,36.1994379 271.124855,43.3985334 C278.326552,50.7203448 288.291722,55.3155998 299.334476,55.4946247 L299.334476,55.4946247 L299.5,514.503023 C288.635517,514.634463 278.800562,519.043861 271.601467,526.124855 C264.279655,533.326552 259.6844,543.291722 259.505375,554.334476 L259.505375,554.334476 L55.4969769,554.5 C55.3655367,543.635517 50.956139,533.800562 43.875145,526.601467 C36.6734484,519.279655 26.7082777,514.6844 15.6655237,514.505375 L15.6655237,514.505375 L15.5,55.4969769 C26.3644827,55.3655367 36.1994379,50.956139 43.3985334,43.875145 C50.7203448,36.6734484 55.3155998,26.7082777 55.4946247,15.6655237 L55.4946247,15.6655237 Z" id="cadre-ext" stroke="url(#linearGradient-9)"></path>
        <path d="M129.550273,25.5 C130.414683,33.0797128 134.191391,39.6178995 139.640382,44.1078456 C145.205641,48.6935962 152.515464,51.1429078 160.249811,50.3830421 C166.875015,49.7321449 172.812762,46.8046019 177.275819,42.3904003 C181.644321,38.0697192 184.599928,32.3246948 185.404457,25.8961771 L185.404457,25.8961771 L284,25.5 C285.518783,25.5 286.893783,26.1156085 287.889087,27.1109127 C288.884392,28.1062169 289.5,29.4812169 289.5,31 L289.5,31 L289.5,539 C289.5,540.518783 288.884392,541.893783 287.889087,542.889087 C286.893783,543.884392 285.518783,544.5 284,544.5 L284,544.5 L173.41751,544.5 C172.58436,540.206082 170.175948,536.638288 166.913812,534.291408 C163.530775,531.857549 159.229082,530.736381 154.810448,531.480572 C151.441297,532.048008 148.435168,533.641229 146.119239,535.929672 C143.894115,538.128389 142.306153,540.968891 141.645483,544.157977 L141.645483,544.157977 L31,544.5 C29.4812169,544.5 28.1062169,543.884392 27.1109127,542.889087 C26.1156085,541.893783 25.5,540.518783 25.5,539 L25.5,539 L25.5,31 C25.5,29.4812169 26.1156085,28.1062169 27.1109127,27.1109127 C28.1062169,26.1156085 29.4812169,25.5 31,25.5 L31,25.5 Z" id="cadre-int" stroke="url(#linearGradient-10)"></path>
        <g id="fioritures" transform="translate(14.171573, 14.171573)">
            <rect id="Rectangle" fill="#C3D5FF" transform="translate(284.000000, 2.828427) rotate(45.000000) translate(-284.000000, -2.828427) " x="282" y="0.828427125" width="4" height="4"></rect>
            <rect id="Rectangle" fill-opacity="0.7" fill="#FFFFFF" transform="translate(2.828427, 538.828427) rotate(45.000000) translate(-2.828427, -538.828427) " x="0.828427125" y="536.828427" width="4" height="4"></rect>
            <path d="M143.328427,532.695829 C141.66176,532.695829 139.995094,533.430384 138.328427,534.899495 C139.797538,533.232828 140.532093,531.566162 140.532093,529.899495 C140.532093,528.232828 139.797538,526.566162 138.328427,524.899495 C139.995094,526.368606 141.66176,527.103161 143.328427,527.103161 C144.995094,527.103161 146.66176,526.368606 148.328427,524.899495 C146.859316,526.566162 146.124761,528.232828 146.124761,529.899495 C146.124761,531.566162 146.859316,533.232828 148.328427,534.899495 C146.66176,533.430384 144.995094,532.695829 143.328427,532.695829 Z" id="Star" fill-opacity="0.7" fill="#FFFFFF" transform="translate(143.328427, 529.899495) rotate(45.000000) translate(-143.328427, -529.899495) "></path>
            <path d="M9.45282302,1.22842712 L9.50845601,1.28334442 C10.5942424,2.36913086 11.2658153,3.86913086 11.2658153,5.52598511 C11.2658153,8.83969361 8.57952382,11.5259851 5.26581532,11.5259851 C3.71116961,11.5259851 2.29462291,10.934713 1.22878402,9.96477757 C3.19001324,6.40414219 6.02812078,3.39538474 9.45282302,1.22842712 L9.45282302,1.22842712 Z" id="Combined-Shape" fill="#C3D5FF" transform="translate(6.247121, 6.377206) scale(-1, -1) translate(-6.247121, -6.377206) "></path>
            <path d="M284.352823,530.828427 L284.408456,530.883344 C285.494242,531.969131 286.165815,533.469131 286.165815,535.125985 C286.165815,538.439694 283.479524,541.125985 280.165815,541.125985 C278.61117,541.125985 277.194623,540.534713 276.128784,539.564778 C278.090013,536.004142 280.928121,532.995385 284.352823,530.828427 L284.352823,530.828427 Z" id="Combined-Shape" fill-opacity="0.7" fill="#FFFFFF"></path>
        </g>
        <text id="II" font-family="NewYork" font-size="26" font-weight="normal" fill="#C3D5FF">
            <tspan x="152.196" y="41">II</tspan>
        </text>
    </g>
</svg>