<?xml version="1.0" encoding="UTF-8"?>
<svg viewBox="0 0 315 570" version="1.1" xmlns="http://www.w3.org/2000/svg" xmlns:xlink="http://www.w3.org/1999/xlink">
    <title>cardChap4</title>
    <defs>
        <linearGradient x1="50%" y1="0%" x2="50%" y2="100%" id="linearGradient-1">
            <stop stop-color="#FFFFFF" offset="0%"></stop>
            <stop stop-color="#FFF0EF" offset="48.208042%"></stop>
            <stop stop-color="#FFE5E3" offset="100%"></stop>
        </linearGradient>
        <linearGradient x1="50%" y1="0%" x2="50%" y2="100%" id="linearGradient-2">
            <stop stop-color="#FFDAD8" offset="0%"></stop>
            <stop stop-color="#FF877E" offset="100%"></stop>
        </linearGradient>
        <path d="M298,1 C306.836556,1 314,8.163444 314,17 L314.003355,256.224866 C272.398858,293.40908 217.57647,316 157.5,316 C97.6395652,316 42.9954927,293.571262 1.44598703,256.625443 L1.02799033,17.0279415 C1.01255867,8.19139897 8.16348192,1.01545606 17.0000244,1.0000244 L298,1 Z" id="path-3"></path>
        <filter x="-107.8%" y="-107.1%" width="315.7%" height="314.3%" filterUnits="objectBoundingBox" id="filter-4">
            <feOffset dx="0" dy="0" in="SourceAlpha" result="shadowOffsetOuter1"></feOffset>
            <feGaussianBlur stdDeviation="112.5" in="shadowOffsetOuter1" result="shadowBlurOuter1"></feGaussianBlur>
            <feColorMatrix values="0 0 0 0 1   0 0 0 0 1   0 0 0 0 1  0 0 0 0.5 0" type="matrix" in="shadowBlurOuter1"></feColorMatrix>
        </filter>
        <linearGradient x1="50%" y1="0.412478147%" x2="50%" y2="100%" id="linearGradient-5">
            <stop stop-color="#FFFFFF" offset="0%"></stop>
            <stop stop-color="#FFFFFF" stop-opacity="0.145951705" offset="36.1888112%"></stop>
            <stop stop-color="#FFFFFF" stop-opacity="0.168434874" offset="52.8682255%"></stop>
            <stop stop-color="#FFCBC7" stop-opacity="0.45" offset="68.6106862%"></stop>
            <stop stop-color="#FFCBC7" offset="100%"></stop>
        </linearGradient>
        <linearGradient x1="50%" y1="0.412478147%" x2="50%" y2="100%" id="linearGradient-6">
            <stop stop-color="#FFFFFF" offset="0%"></stop>
            <stop stop-color="#FFFFFF" stop-opacity="0.145951705" offset="36.1888112%"></stop>
            <stop stop-color="#FFFFFF" stop-opacity="0.168434874" offset="52.8682255%"></stop>
            <stop stop-color="#FFCBC7" stop-opacity="0.45" offset="68.6106862%"></stop>
            <stop stop-color="#FFCBC7" offset="100%"></stop>
        </linearGradient>
    </defs>
    <g id="cardChap4" stroke="none" stroke-width="1" fill="none" fill-rule="evenodd">
        <rect id="bg-bottom" stroke="#FFFFFF" fill="url(#linearGradient-1)" x="0.5" y="0.5" width="314" height="569" rx="16"></rect>
        <g id="bg-top">
            <use fill="black" fill-opacity="1" filter="url(#filter-4)" xlink:href="#path-3"></use>
            <use fill="url(#linearGradient-2)" fill-rule="evenodd" xlink:href="#path-3"></use>
        </g>
        <g id="cercles" transform="translate(0.991860, 144.077004)">
            <path d="M313.025859,394.666244 C265.11701,374.231935 212.383247,362.922996 157.00814,362.922996 C101.251177,362.922996 48.1721121,374.388441 0,395.090278" id="Path" stroke="#FFDFDD"></path>
            <path d="M30.8404915,135.493064 L30.6985031,135.713797 C16.3218908,158.611398 8.00813985,185.701663 8.00813985,214.733721 C8.00813985,296.919616 74.6329711,363.544447 156.818865,363.544447 C239.00476,363.544447 305.629591,296.919616 305.629591,214.733721 C305.629591,185.58661 297.249811,158.396701 282.76801,135.441752 L282.616223,135.201663" id="Path" stroke="#FFDFDD"></path>
            <path d="M282.616232,135.201663 C256.237043,93.5645101 209.755965,65.9229957 156.818865,65.9229957 C103.776787,65.9229957 57.1990786,93.6932858 30.8475258,135.468574" id="Path" stroke="#FF8980"></path>
            <path d="M0.314391232,0 C40.0934505,40.7426673 95.6253337,66.0365603 157.064922,66.0365603 C218.096381,66.0365603 273.298361,41.0775948 313.02064,0.809885984" id="Path" stroke="#FF8980"></path>
        </g>
        <path d="M259.503023,15.5 C259.634463,26.3644827 264.043861,36.1994379 271.124855,43.3985334 C278.326552,50.7203448 288.291722,55.3155998 299.334476,55.4946247 L299.334476,55.4946247 L299.5,514.503023 C288.635517,514.634463 278.800562,519.043861 271.601467,526.124855 C264.279655,533.326552 259.6844,543.291722 259.505375,554.334476 L259.505375,554.334476 L55.4969769,554.5 C55.3655367,543.635517 50.956139,533.800562 43.875145,526.601467 C36.6734484,519.279655 26.7082777,514.6844 15.6655237,514.505375 L15.6655237,514.505375 L15.5,55.4969769 C26.3644827,55.3655367 36.1994379,50.956139 43.3985334,43.875145 C50.7203448,36.6734484 55.3155998,26.7082777 55.4946247,15.6655237 L55.4946247,15.6655237 Z" id="cadre-ext" stroke="url(#linearGradient-5)"></path>
        <path d="M129.550273,25.5 C130.414683,33.0797128 134.191391,39.6178995 139.640382,44.1078456 C145.205641,48.6935962 152.515464,51.1429078 160.249811,50.3830421 C166.875015,49.7321449 172.812762,46.8046019 177.275819,42.3904003 C181.644321,38.0697192 184.599928,32.3246948 185.404457,25.8961771 L185.404457,25.8961771 L284,25.5 C285.518783,25.5 286.893783,26.1156085 287.889087,27.1109127 C288.884392,28.1062169 289.5,29.4812169 289.5,31 L289.5,31 L289.5,539 C289.5,540.518783 288.884392,541.893783 287.889087,542.889087 C286.893783,543.884392 285.518783,544.5 284,544.5 L284,544.5 L173.41751,544.5 C172.58436,540.206082 170.175948,536.638288 166.913812,534.291408 C163.530775,531.857549 159.229082,530.736381 154.810448,531.480572 C151.441297,532.048008 148.435168,533.641229 146.119239,535.929672 C143.894115,538.128389 142.306153,540.968891 141.645483,544.157977 L141.645483,544.157977 L31,544.5 C29.4812169,544.5 28.1062169,543.884392 27.1109127,542.889087 C26.1156085,541.893783 25.5,540.518783 25.5,539 L25.5,539 L25.5,31 C25.5,29.4812169 26.1156085,28.1062169 27.1109127,27.1109127 C28.1062169,26.1156085 29.4812169,25.5 31,25.5 L31,25.5 Z" id="cadre-int" stroke="url(#linearGradient-6)"></path>
        <g id="fioritures" transform="translate(14.171573, 14.171573)">
            <rect id="Rectangle" fill-opacity="0.7" fill="#FFFFFF" transform="translate(284.000000, 2.828427) rotate(45.000000) translate(-284.000000, -2.828427) " x="282" y="0.828427125" width="4" height="4"></rect>
            <rect id="Rectangle" fill="#FFCBC7" transform="translate(2.828427, 538.828427) rotate(45.000000) translate(-2.828427, -538.828427) " x="0.828427125" y="536.828427" width="4" height="4"></rect>
            <path d="M143,530.796334 C141.333333,530.796334 139.666667,531.530889 138,533 C139.469111,531.333333 140.203666,529.666667 140.203666,528 C140.203666,526.333333 139.469111,524.666667 138,523 C139.666667,524.469111 141.333333,525.203666 143,525.203666 C144.666667,525.203666 146.333333,524.469111 148,523 C146.530889,524.666667 145.796334,526.333333 145.796334,528 C145.796334,529.666667 146.530889,531.333333 148,533 C146.333333,531.530889 144.666667,530.796334 143,530.796334 Z" id="Star" fill="#FFCBC7" transform="translate(143.000000, 528.000000) rotate(45.000000) translate(-143.000000, -528.000000) "></path>
            <circle id="Oval" fill-opacity="0.7" fill="#FFFFFF" cx="6.82842712" cy="6.82842712" r="6"></circle>
            <circle id="Oval" fill="#FFCBC7" cx="279.828427" cy="534.828427" r="6"></circle>
        </g>
    </g>
</svg>