<?xml version="1.0" encoding="UTF-8"?>
<svg viewBox="0 0 315 570" version="1.1" xmlns="http://www.w3.org/2000/svg" xmlns:xlink="http://www.w3.org/1999/xlink">
    <title>cardChap3</title>
    <defs>
        <linearGradient x1="50%" y1="0%" x2="50%" y2="100%" id="linearGradient-1">
            <stop stop-color="#FFFFFF" offset="0%"></stop>
            <stop stop-color="#E1D7FF" offset="100%"></stop>
        </linearGradient>
        <linearGradient x1="0.640667959%" y1="0%" x2="60.9088396%" y2="92.9335191%" id="linearGradient-2">
            <stop stop-color="#C9C5FF" offset="0%"></stop>
            <stop stop-color="#7A40D3" offset="100%"></stop>
        </linearGradient>
        <path d="M298,1 C306.836556,1 314,8.163444 314,17 L314.003355,256.224866 C272.398858,293.40908 217.57647,316 157.5,316 C97.6395652,316 42.9954927,293.571262 1.44598703,256.625443 L1.02799033,17.0279415 C1.01255867,8.19139897 8.16348192,1.01545606 17.0000244,1.0000244 L298,1 Z" id="path-3"></path>
        <filter x="-107.8%" y="-107.1%" width="315.7%" height="314.3%" filterUnits="objectBoundingBox" id="filter-4">
            <feOffset dx="0" dy="0" in="SourceAlpha" result="shadowOffsetOuter1"></feOffset>
            <feGaussianBlur stdDeviation="112.5" in="shadowOffsetOuter1" result="shadowBlurOuter1"></feGaussianBlur>
            <feColorMatrix values="0 0 0 0 1   0 0 0 0 1   0 0 0 0 1  0 0 0 0.5 0" type="matrix" in="shadowBlurOuter1"></feColorMatrix>
        </filter>
        <linearGradient x1="50%" y1="0%" x2="50%" y2="98.3478216%" id="linearGradient-5">
            <stop stop-color="#F1ECFF" offset="0%"></stop>
            <stop stop-color="#DED3FF" offset="100%"></stop>
        </linearGradient>
        <linearGradient x1="50%" y1="0.412478147%" x2="50%" y2="100%" id="linearGradient-6">
            <stop stop-color="#FFFFFF" offset="0%"></stop>
            <stop stop-color="#E8E3FA" offset="25.9280526%"></stop>
            <stop stop-color="#D2C5F5" offset="28.7440362%"></stop>
            <stop stop-color="#A57BE6" stop-opacity="0.5" offset="36.5313631%"></stop>
            <stop stop-color="#FFFFFF" stop-opacity="0" offset="41.0411748%"></stop>
            <stop stop-color="#FFFFFF" stop-opacity="0" offset="48.6039046%"></stop>
            <stop stop-color="#EAE3FF" offset="52.2549907%"></stop>
            <stop stop-color="#C7B3FF" offset="100%"></stop>
        </linearGradient>
        <linearGradient x1="50%" y1="0.412478147%" x2="50%" y2="100%" id="linearGradient-7">
            <stop stop-color="#FFFFFF" offset="0%"></stop>
            <stop stop-color="#E8E3FA" offset="25.9280526%"></stop>
            <stop stop-color="#D2C5F5" offset="28.7440362%"></stop>
            <stop stop-color="#A57BE6" stop-opacity="0.5" offset="36.5313631%"></stop>
            <stop stop-color="#FFFFFF" stop-opacity="0" offset="41.0411748%"></stop>
            <stop stop-color="#FFFFFF" stop-opacity="0" offset="48.6039046%"></stop>
            <stop stop-color="#EAE3FF" offset="52.2549907%"></stop>
            <stop stop-color="#C7B3FF" offset="100%"></stop>
        </linearGradient>
    </defs>
    <g id="cardChap3" stroke="none" stroke-width="1" fill="none" fill-rule="evenodd">
        <rect id="bg-bottom" stroke="#FFFFFF" fill="url(#linearGradient-1)" x="0.5" y="0.5" width="314" height="569" rx="16"></rect>
        <g id="bg-top">
            <use fill="black" fill-opacity="1" filter="url(#filter-4)" xlink:href="#path-3"></use>
            <use fill="url(#linearGradient-2)" fill-rule="evenodd" xlink:href="#path-3"></use>
        </g>
        <g id="cercles" transform="translate(0.991860, 144.077004)">
            <path d="M313.025859,394.666244 C265.11701,374.231935 212.383247,362.922996 157.00814,362.922996 C101.251177,362.922996 48.1721121,374.388441 0,395.090278" id="Path" stroke="#DED3FF"></path>
            <path d="M30.8522391,135.469469 L30.6985031,135.713797 C16.3218908,158.611398 8.00813985,185.701669 8.00813985,214.733721 C8.00813985,296.919616 74.6329711,363.544447 156.818865,363.544447 C239.00476,363.544447 305.629591,296.919616 305.629591,214.733721 C305.629591,185.58661 297.249811,158.396701 282.76801,135.441752 L282.626823,135.198356" id="Path" stroke="url(#linearGradient-5)"></path>
            <path d="M282.6037,135.181901 C256.222335,93.5557643 209.747589,65.9229957 156.818865,65.9229957 C103.768352,65.9229957 57.2015536,93.6830766 30.8522391,135.469469" id="Path" stroke="#6F47D4"></path>
            <path d="M0.314391232,0 C40.0934505,40.7426673 95.6253337,66.0365603 157.064922,66.0365603 C218.096381,66.0365603 273.298361,41.0775948 313.02064,0.809885984" id="Path" stroke="#744CD8"></path>
        </g>
        <path d="M259.503023,15.5 C259.634463,26.3644827 264.043861,36.1994379 271.124855,43.3985334 C278.326552,50.7203448 288.291722,55.3155998 299.334476,55.4946247 L299.334476,55.4946247 L299.5,514.503023 C288.635517,514.634463 278.800562,519.043861 271.601467,526.124855 C264.279655,533.326552 259.6844,543.291722 259.505375,554.334476 L259.505375,554.334476 L55.4969769,554.5 C55.3655367,543.635517 50.956139,533.800562 43.875145,526.601467 C36.6734484,519.279655 26.7082777,514.6844 15.6655237,514.505375 L15.6655237,514.505375 L15.5,55.4969769 C26.3644827,55.3655367 36.1994379,50.956139 43.3985334,43.875145 C50.7203448,36.6734484 55.3155998,26.7082777 55.4946247,15.6655237 L55.4946247,15.6655237 Z" id="cadre-ext" stroke="url(#linearGradient-6)"></path>
        <path d="M129.550273,25.5 C130.414683,33.0797128 134.191391,39.6178995 139.640382,44.1078456 C145.205641,48.6935962 152.515464,51.1429078 160.249811,50.3830421 C166.875015,49.7321449 172.812762,46.8046019 177.275819,42.3904003 C181.644321,38.0697192 184.599928,32.3246948 185.404457,25.8961771 L185.404457,25.8961771 L284,25.5 C285.518783,25.5 286.893783,26.1156085 287.889087,27.1109127 C288.884392,28.1062169 289.5,29.4812169 289.5,31 L289.5,31 L289.5,539 C289.5,540.518783 288.884392,541.893783 287.889087,542.889087 C286.893783,543.884392 285.518783,544.5 284,544.5 L284,544.5 L173.41751,544.5 C172.58436,540.206082 170.175948,536.638288 166.913812,534.291408 C163.530775,531.857549 159.229082,530.736381 154.810448,531.480572 C151.441297,532.048008 148.435168,533.641229 146.119239,535.929672 C143.894115,538.128389 142.306153,540.968891 141.645483,544.157977 L141.645483,544.157977 L31,544.5 C29.4812169,544.5 28.1062169,543.884392 27.1109127,542.889087 C26.1156085,541.893783 25.5,540.518783 25.5,539 L25.5,539 L25.5,31 C25.5,29.4812169 26.1156085,28.1062169 27.1109127,27.1109127 C28.1062169,26.1156085 29.4812169,25.5 31,25.5 L31,25.5 Z" id="cadre-int" stroke="url(#linearGradient-7)"></path>
        <g id="fioritures" transform="translate(13.000000, 14.000000)">
            <path d="M5.89938916,1.41627229 C9.21309766,1.41627229 11.8993892,4.10095682 11.8993892,7.41268302 C11.8993892,10.7244092 9.21309766,13.4090938 5.89938916,13.4090938 C5.8105688,13.4090938 5.72219921,13.4071649 5.63432004,13.4033469 C3.97325246,11.937144 2.92597689,9.79263037 2.92597689,7.40351244 C2.92597689,5.02499567 3.96397899,2.88891729 5.61170284,1.42355764 L5.67445089,1.42040829 L5.67445089,1.42040829 Z" id="lune" fill="#FFFFFF" opacity="0.7" transform="translate(7.412683, 7.412683) rotate(-135.000000) translate(-7.412683, -7.412683) "></path>
            <path d="M278.899389,528.416272 C282.213098,528.416272 284.899389,531.100957 284.899389,534.412683 C284.899389,537.724409 282.213098,540.409094 278.899389,540.409094 C278.810569,540.409094 278.722199,540.407165 278.63432,540.403347 C276.973252,538.937144 275.925977,536.79263 275.925977,534.403512 C275.925977,532.024996 276.963979,529.888917 278.611703,528.423558 L278.674451,528.420408 L278.674451,528.420408 Z" id="lune" fill="#C7B3FF" transform="translate(280.412683, 534.412683) scale(-1, -1) rotate(-135.000000) translate(-280.412683, -534.412683) "></path>
            <circle id="Oval" fill="#FFFFFF" opacity="0.7" cx="283" cy="3" r="2"></circle>
            <circle id="Oval" fill="#C7B3FF" cx="5" cy="539" r="2"></circle>
            <path d="M144,531.796334 C142.333333,531.796334 140.666667,532.530889 139,534 C140.469111,532.333333 141.203666,530.666667 141.203666,529 C141.203666,527.333333 140.469111,525.666667 139,524 C140.666667,525.469111 142.333333,526.203666 144,526.203666 C145.666667,526.203666 147.333333,525.469111 149,524 C147.530889,525.666667 146.796334,527.333333 146.796334,529 C146.796334,530.666667 147.530889,532.333333 149,534 C147.333333,532.530889 145.666667,531.796334 144,531.796334 Z" id="Star" fill="#C7B3FF" transform="translate(144.000000, 529.000000) rotate(45.000000) translate(-144.000000, -529.000000) "></path>
        </g>
    </g>
</svg>