<?xml version="1.0" encoding="UTF-8"?>
<svg viewBox="0 0 315 570" version="1.1" xmlns="http://www.w3.org/2000/svg" xmlns:xlink="http://www.w3.org/1999/xlink">
    <title>cardChap1</title>
    <defs>
        <linearGradient x1="50%" y1="0%" x2="50%" y2="100%" id="linearGradient-1">
            <stop stop-color="#FFFFFF" offset="0%"></stop>
            <stop stop-color="#FFDAC5" offset="100%"></stop>
        </linearGradient>
        <linearGradient x1="-25.5672826%" y1="-30.1178805%" x2="76.1106666%" y2="89.4757473%" id="linearGradient-2">
            <stop stop-color="#FBECDF" offset="0%"></stop>
            <stop stop-color="#FF6A50" offset="100%"></stop>
        </linearGradient>
        <path d="M298,1 C306.836556,1 314,8.163444 314,17 L314.003355,256.224866 C272.398858,293.40908 217.57647,316 157.5,316 C97.6395652,316 42.9954927,293.571262 1.44598703,256.625443 L1.02799033,17.0279415 C1.01255867,8.19139897 8.16348192,1.01545606 17.0000244,1.0000244 L298,1 Z" id="path-3"></path>
        <filter x="-107.8%" y="-107.1%" width="315.7%" height="314.3%" filterUnits="objectBoundingBox" id="filter-4">
            <feOffset dx="0" dy="0" in="SourceAlpha" result="shadowOffsetOuter1"></feOffset>
            <feGaussianBlur stdDeviation="112.5" in="shadowOffsetOuter1" result="shadowBlurOuter1"></feGaussianBlur>
            <feColorMatrix values="0 0 0 0 1   0 0 0 0 1   0 0 0 0 1  0 0 0 0.5 0" type="matrix" in="shadowBlurOuter1"></feColorMatrix>
        </filter>
        <linearGradient x1="50%" y1="0%" x2="50%" y2="98.3478216%" id="linearGradient-5">
            <stop stop-color="#FFEDE4" offset="0%"></stop>
            <stop stop-color="#FFD9C3" offset="100%"></stop>
        </linearGradient>
        <linearGradient x1="10.0294154%" y1="47.7702007%" x2="62.2058172%" y2="50.5714134%" id="linearGradient-6">
            <stop stop-color="#FD927C" offset="0%"></stop>
            <stop stop-color="#FD927C" offset="7.52307422%"></stop>
            <stop stop-color="#FD705B" offset="100%"></stop>
        </linearGradient>
        <linearGradient x1="50%" y1="12.3026134%" x2="50%" y2="83.7849349%" id="linearGradient-7">
            <stop stop-color="#FFFFFF" offset="0%"></stop>
            <stop stop-color="#FFDAC5" stop-opacity="0.19102382" offset="52.3874919%"></stop>
            <stop stop-color="#FFB78F" offset="100%"></stop>
        </linearGradient>
        <linearGradient x1="50%" y1="12.3026134%" x2="50%" y2="83.7849349%" id="linearGradient-8">
            <stop stop-color="#FFFFFF" offset="0%"></stop>
            <stop stop-color="#FFDAC5" stop-opacity="0.19102382" offset="52.3874919%"></stop>
            <stop stop-color="#FFB78F" offset="100%"></stop>
        </linearGradient>
    </defs>
    <g id="cardChap1" stroke="none" stroke-width="1" fill="none" fill-rule="evenodd">
        <rect id="bg-bottom" stroke="#FFFFFF" fill="url(#linearGradient-1)" x="0.5" y="0.5" width="314" height="569" rx="16"></rect>
        <g id="bg-top">
            <use fill="black" fill-opacity="1" filter="url(#filter-4)" xlink:href="#path-3"></use>
            <use fill="url(#linearGradient-2)" fill-rule="evenodd" xlink:href="#path-3"></use>
        </g>
        <g id="cercles" transform="translate(0.991860, -94.873172)">
            <path d="M313.025859,633.61642 C265.11701,613.182111 212.383247,601.873172 157.00814,601.873172 C101.251177,601.873172 48.1721121,613.338617 0,634.040454" id="Path" stroke="#FFD6BF"></path>
            <path d="M30.8404915,374.44324 L30.6985031,374.663973 C16.3218908,397.561574 8.00813985,424.651839 8.00813985,453.683897 C8.00813985,535.869791 74.6329711,602.494623 156.818865,602.494623 C239.00476,602.494623 305.629591,535.869791 305.629591,453.683897 C305.629591,424.536786 297.249811,397.346876 282.76801,374.391928 L282.616223,374.151839" id="Path" stroke="url(#linearGradient-5)"></path>
            <path d="M282.616232,374.151839 C256.237043,332.514686 209.755965,304.873172 156.818865,304.873172 C103.776787,304.873172 57.1990786,332.643462 30.8475258,374.41875" id="Path" stroke="#FD705B"></path>
            <path d="M0.314391232,238.950176 C40.0934505,279.692843 95.6253337,304.986736 157.064922,304.986736 C218.096381,304.986736 273.298361,280.027771 313.02064,239.760062" id="Path" stroke="url(#linearGradient-6)"></path>
        </g>
        <path d="M259.503023,15.5 C259.634463,26.3644827 264.043861,36.1994379 271.124855,43.3985334 C278.326552,50.7203448 288.291722,55.3155998 299.334476,55.4946247 L299.334476,55.4946247 L299.5,514.503023 C288.635517,514.634463 278.800562,519.043861 271.601467,526.124855 C264.279655,533.326552 259.6844,543.291722 259.505375,554.334476 L259.505375,554.334476 L55.4969769,554.5 C55.3655367,543.635517 50.956139,533.800562 43.875145,526.601467 C36.6734484,519.279655 26.7082777,514.6844 15.6655237,514.505375 L15.6655237,514.505375 L15.5,55.4969769 C26.3644827,55.3655367 36.1994379,50.956139 43.3985334,43.875145 C50.7203448,36.6734484 55.3155998,26.7082777 55.4946247,15.6655237 L55.4946247,15.6655237 Z" id="cadre-ext" stroke="url(#linearGradient-7)"></path>
        <path d="M129.550273,25.5 C130.414683,33.0797128 134.191391,39.6178995 139.640382,44.1078456 C145.205641,48.6935962 152.515464,51.1429078 160.249811,50.3830421 C166.875015,49.7321449 172.812762,46.8046019 177.275819,42.3904003 C181.644321,38.0697192 184.599928,32.3246948 185.404457,25.8961771 L185.404457,25.8961771 L284,25.5 C285.518783,25.5 286.893783,26.1156085 287.889087,27.1109127 C288.884392,28.1062169 289.5,29.4812169 289.5,31 L289.5,31 L289.5,539 C289.5,540.518783 288.884392,541.893783 287.889087,542.889087 C286.893783,543.884392 285.518783,544.5 284,544.5 L284,544.5 L173.41751,544.5 C172.58436,540.206082 170.175948,536.638288 166.913812,534.291408 C163.530775,531.857549 159.229082,530.736381 154.810448,531.480572 C151.441297,532.048008 148.435168,533.641229 146.119239,535.929672 C143.894115,538.128389 142.306153,540.968891 141.645483,544.157977 L141.645483,544.157977 L31,544.5 C29.4812169,544.5 28.1062169,543.884392 27.1109127,542.889087 C26.1156085,541.893783 25.5,540.518783 25.5,539 L25.5,539 L25.5,31 C25.5,29.4812169 26.1156085,28.1062169 27.1109127,27.1109127 C28.1062169,26.1156085 29.4812169,25.5 31,25.5 L31,25.5 Z" id="cadre-int" stroke="url(#linearGradient-8)"></path>
        <g id="fioritures" transform="translate(13.000000, 13.000000)">
            <path d="M145,532.796334 C143.333333,532.796334 141.666667,533.530889 140,535 C141.469111,533.333333 142.203666,531.666667 142.203666,530 C142.203666,528.333333 141.469111,526.666667 140,525 C141.666667,526.469111 143.333333,527.203666 145,527.203666 C146.666667,527.203666 148.333333,526.469111 150,525 C148.530889,526.666667 147.796334,528.333333 147.796334,530 C147.796334,531.666667 148.530889,533.333333 150,535 C148.333333,533.530889 146.666667,532.796334 145,532.796334 Z" id="Star" fill="#FFB98F" transform="translate(145.000000, 530.000000) rotate(45.000000) translate(-145.000000, -530.000000) "></path>
            <path d="M6.42588199,6.26357436 C6.42588199,8.64931919 7.47020244,10.7911499 9.12664661,12.2568698 C5.93924825,12.1147091 3.39929426,9.48576074 3.39929426,6.26357436 C3.39929426,3.04138798 5.93924825,0.412439636 9.12620711,0.269678473 C7.47020244,1.7359988 6.42588199,3.87782953 6.42588199,6.26357436 Z" id="lune" fill="#FEE3DD" style="mix-blend-mode: overlay;" transform="translate(6.263252, 6.263252) scale(-1, 1) rotate(-225.000000) translate(-6.263252, -6.263252) "></path>
            <circle id="Oval" fill="#D0BEBE" style="mix-blend-mode: overlay;" cx="285" cy="4" r="2"></circle>
            <circle id="Oval" fill="#FFB98F" cx="4" cy="540" r="2"></circle>
        </g>
        <path d="M298.519695,545.203898 C299.395963,546.246866 299.923748,547.592408 299.923748,549.06122 C299.923748,552.374928 297.237457,555.06122 293.923748,555.06122 C292.461567,555.06122 291.121546,554.53819 290.080571,553.669014 C290.230429,553.676972 290.381592,553.68122 290.533748,553.68122 C294.952026,553.68122 298.533748,550.099498 298.533748,545.68122 L298.529941,545.432041 L298.529941,545.432041 Z" id="Combined-Shape" fill="#FFB98F"></path>
    </g>
</svg>