{
	"nodes":[{
		"name":"Scène_tombes",
		"translation":[-0.00006476690759882331,
		0.0,
		1.0703039169311524],
		"rotation":[0.0,
		-1.0,
		0.0,
		-0.00003025631667696871],
		"scale":[1.0,
		1.0,
		1.0],
		"children":[1,
		2,
		3,
		4]
	},
	{
		"name":"Tombe_04",
		"translation":[0.2759093642234802,
		0.010506708174943924,
		-0.253465861082077],
		"rotation":[0.0016080730129033328,
		-0.08590373396873474,
		0.01864698901772499,
		-0.9961276054382324],
		"scale":[1.0,
		1.0,
		1.0],
		"mesh":0
	},
	{
		"name":"Tombe_03",
		"translation":[-0.30502521991729739,
		-0.008517330512404442,
		-0.3083048164844513],
		"rotation":[0.0,
		-0.13052618503570558,
		0.0,
		0.9914448857307434],
		"scale":[1.0,
		1.0,
		1.0],
		"mesh":1
	},
	{
		"name":"Tombe_02",
		"translation":[-0.24281583726406098,
		-0.020259175449609758,
		0.0985196977853775],
		"rotation":[0.0,
		0.0,
		0.0,
		-1.0],
		"scale":[1.0,
		1.0,
		1.0],
		"mesh":2
	},
	{
		"name":"Tombe_01",
		"translation":[0.3416934311389923,
		-0.008435043506324292,
		0.09358280152082443],
		"rotation":[0.0,
		0.0,
		0.0,
		-1.0],
		"scale":[1.0,
		1.0,
		1.0],
		"mesh":3
	}],
	"asset":{
		"version":"2.0",
		"generator":"Created using the official Cinema 4D glTF Exporter 1.000x284978"
	},
	"images":[{
		"uri":"data:image/jpeg;base64,"
	},
	{
		"uri":"data:image/jpeg;base64,"
	},
	{
		"uri":"data:image/jpeg;base64,"
	},
	{
		"uri":"data:image/jpeg;base64,"
	}],
	"scenes":[{
		"nodes":[0]
	}],
	"materials":[{
		"pbrMetallicRoughness":{
			"baseColorTexture":{
				"index":0
			},
			"baseColorFactor":[1.0,
			1.0,
			1.0,
			1.0],
			"metallicFactor":1.0,
			"roughnessFactor":1.0
		},
		"emissiveFactor":[0.0,
		0.0,
		0.0],
		"alphaMode":"OPAQUE",
		"doubleSided":false,
		"name":"Tombe_04"
	},
	{
		"pbrMetallicRoughness":{
			"baseColorTexture":{
				"index":1
			},
			"baseColorFactor":[1.0,
			1.0,
			1.0,
			1.0],
			"metallicFactor":1.0,
			"roughnessFactor":1.0
		},
		"emissiveFactor":[0.0,
		0.0,
		0.0],
		"alphaMode":"OPAQUE",
		"doubleSided":false,
		"name":"Tombe_03"
	},
	{
		"pbrMetallicRoughness":{
			"baseColorTexture":{
				"index":2
			},
			"baseColorFactor":[1.0,
			1.0,
			1.0,
			1.0],
			"metallicFactor":1.0,
			"roughnessFactor":1.0
		},
		"emissiveFactor":[0.0,
		0.0,
		0.0],
		"alphaMode":"OPAQUE",
		"doubleSided":false,
		"name":"Tombe_02"
	},
	{
		"pbrMetallicRoughness":{
			"baseColorTexture":{
				"index":3
			},
			"baseColorFactor":[1.0,
			1.0,
			1.0,
			1.0],
			"metallicFactor":1.0,
			"roughnessFactor":1.0
		},
		"emissiveFactor":[0.0,
		0.0,
		0.0],
		"alphaMode":"OPAQUE",
		"doubleSided":false,
		"name":"Tombe_01"
	}],
	"meshes":[{
		"name":"Tombe_04",
		"primitives":[{
			"attributes":{
				"POSITION":1,
				"TEXCOORD_0":2
			},
			"indices":0,
			"material":0
		}]
	},
	{
		"name":"Tombe_03",
		"primitives":[{
			"attributes":{
				"POSITION":8,
				"TEXCOORD_0":9
			},
			"indices":7,
			"material":1
		}]
	},
	{
		"name":"Tombe_02",
		"primitives":[{
			"attributes":{
				"POSITION":15,
				"TEXCOORD_0":16
			},
			"indices":14,
			"material":2
		}]
	},
	{
		"name":"Tombe_01",
		"primitives":[{
			"attributes":{
				"POSITION":22,
				"TEXCOORD_0":23
			},
			"indices":21,
			"material":3
		}]
	}],
	"accessors":[{
		"bufferView":0,
		"type":"SCALAR",
		"componentType":5123,
		"byteOffset":0,
		"count":360,
		"min":[0],
		"max":[139]
	},
	{
		"bufferView":1,
		"type":"VEC3",
		"componentType":5126,
		"byteOffset":0,
		"count":140,
		"min":[-0.1988404095172882,
		-0.009681629948318005,
		-0.06579060852527619],
		"max":[0.22895611822605134,
		0.734699010848999,
		0.14788097143173219]
	},
	{
		"bufferView":1,
		"type":"VEC2",
		"componentType":5126,
		"byteOffset":12,
		"count":140,
		"min":[0.02760370820760727,
		0.10716381669044495],
		"max":[1.0,
		0.9566570520401001]
	},
	{
		"bufferView":2,
		"type":"SCALAR",
		"componentType":5126,
		"byteOffset":0,
		"count":71,
		"min":[0.0],
		"max":[2.799999952316284]
	},
	{
		"bufferView":2,
		"type":"VEC4",
		"componentType":5126,
		"byteOffset":284,
		"count":71,
		"min":[-0.5696267485618591,
		-0.0879041999578476,
		0.01864698901772499,
		-0.9961276054382324],
		"max":[0.5,
		0.5,
		0.5,
		-0.5]
	},
	{
		"bufferView":3,
		"type":"SCALAR",
		"componentType":5126,
		"byteOffset":0,
		"count":71,
		"min":[0.0],
		"max":[2.799999952316284]
	},
	{
		"bufferView":3,
		"type":"VEC3",
		"componentType":5126,
		"byteOffset":284,
		"count":71,
		"min":[0.0,
		0.0,
		0.0],
		"max":[1.0,
		1.0,
		1.0]
	},
	{
		"bufferView":4,
		"type":"SCALAR",
		"componentType":5123,
		"byteOffset":0,
		"count":684,
		"min":[0],
		"max":[253]
	},
	{
		"bufferView":5,
		"type":"VEC3",
		"componentType":5126,
		"byteOffset":0,
		"count":254,
		"min":[-0.2216004878282547,
		-0.02214319258928299,
		-0.08632221817970276],
		"max":[0.2526891529560089,
		0.7334107756614685,
		0.17184637486934663]
	},
	{
		"bufferView":5,
		"type":"VEC2",
		"componentType":5126,
		"byteOffset":12,
		"count":254,
		"min":[4.695826251613713e-16,
		0.16526228189468385],
		"max":[1.0,
		0.934117317199707]
	},
	{
		"bufferView":6,
		"type":"SCALAR",
		"componentType":5126,
		"byteOffset":0,
		"count":71,
		"min":[0.0],
		"max":[2.799999952316284]
	},
	{
		"bufferView":6,
		"type":"VEC4",
		"componentType":5126,
		"byteOffset":284,
		"count":71,
		"min":[0.0,
		-0.13052618503570558,
		0.0,
		-0.5],
		"max":[0.524998664855957,
		0.5,
		0.5,
		0.9914448857307434]
	},
	{
		"bufferView":7,
		"type":"SCALAR",
		"componentType":5126,
		"byteOffset":0,
		"count":71,
		"min":[0.0],
		"max":[2.799999952316284]
	},
	{
		"bufferView":7,
		"type":"VEC3",
		"componentType":5126,
		"byteOffset":284,
		"count":71,
		"min":[0.0,
		0.0,
		0.0],
		"max":[1.0,
		1.0,
		1.0]
	},
	{
		"bufferView":8,
		"type":"SCALAR",
		"componentType":5123,
		"byteOffset":0,
		"count":732,
		"min":[0],
		"max":[270]
	},
	{
		"bufferView":9,
		"type":"VEC3",
		"componentType":5126,
		"byteOffset":0,
		"count":271,
		"min":[-0.2468384951353073,
		-0.00968074519187212,
		-0.0400853306055069],
		"max":[0.25843825936317446,
		0.6570008397102356,
		0.31378090381622317]
	},
	{
		"bufferView":9,
		"type":"VEC2",
		"componentType":5126,
		"byteOffset":12,
		"count":271,
		"min":[-4.5728178770821777e-17,
		0.21609047055244447],
		"max":[1.0,
		0.8999375104904175]
	},
	{
		"bufferView":10,
		"type":"SCALAR",
		"componentType":5126,
		"byteOffset":0,
		"count":71,
		"min":[0.0],
		"max":[2.799999952316284]
	},
	{
		"bufferView":10,
		"type":"VEC4",
		"componentType":5126,
		"byteOffset":284,
		"count":71,
		"min":[-0.3335407078266144,
		-9.177992255082756e-10,
		0.0,
		-1.0],
		"max":[0.5,
		0.5,
		0.5,
		-0.5]
	},
	{
		"bufferView":11,
		"type":"SCALAR",
		"componentType":5126,
		"byteOffset":0,
		"count":71,
		"min":[0.0],
		"max":[2.799999952316284]
	},
	{
		"bufferView":11,
		"type":"VEC3",
		"componentType":5126,
		"byteOffset":284,
		"count":71,
		"min":[0.0,
		0.0,
		0.0],
		"max":[1.0,
		1.0,
		1.0]
	},
	{
		"bufferView":12,
		"type":"SCALAR",
		"componentType":5123,
		"byteOffset":0,
		"count":240,
		"min":[0],
		"max":[88]
	},
	{
		"bufferView":13,
		"type":"VEC3",
		"componentType":5126,
		"byteOffset":0,
		"count":89,
		"min":[-0.2066664844751358,
		-0.022897327318787576,
		-0.047385018318891528],
		"max":[0.20871566236019135,
		0.7096882462501526,
		0.37227195501327517]
	},
	{
		"bufferView":13,
		"type":"VEC2",
		"componentType":5126,
		"byteOffset":12,
		"count":89,
		"min":[1.394883269626541e-17,
		0.2806732654571533],
		"max":[1.0,
		0.9706065654754639]
	},
	{
		"bufferView":14,
		"type":"SCALAR",
		"componentType":5126,
		"byteOffset":0,
		"count":71,
		"min":[0.0],
		"max":[2.799999952316284]
	},
	{
		"bufferView":14,
		"type":"VEC4",
		"componentType":5126,
		"byteOffset":284,
		"count":71,
		"min":[-0.2501729726791382,
		-1.851201969493843e-9,
		0.0,
		-1.0],
		"max":[0.5,
		0.5,
		0.5,
		-0.5]
	},
	{
		"bufferView":15,
		"type":"SCALAR",
		"componentType":5126,
		"byteOffset":0,
		"count":71,
		"min":[0.0],
		"max":[2.799999952316284]
	},
	{
		"bufferView":15,
		"type":"VEC3",
		"componentType":5126,
		"byteOffset":284,
		"count":71,
		"min":[0.0,
		0.0,
		0.0],
		"max":[1.0,
		1.0,
		1.0]
	}],
	"bufferViews":[{
		"buffer":0,
		"byteOffset":0,
		"byteLength":720,
		"target":34963
	},
	{
		"buffer":0,
		"byteOffset":720,
		"byteLength":2800,
		"target":34962,
		"byteStride":20
	},
	{
		"buffer":1,
		"byteOffset":0,
		"byteLength":1420
	},
	{
		"buffer":1,
		"byteOffset":1420,
		"byteLength":1136
	},
	{
		"buffer":2,
		"byteOffset":0,
		"byteLength":1368,
		"target":34963
	},
	{
		"buffer":2,
		"byteOffset":1368,
		"byteLength":5080,
		"target":34962,
		"byteStride":20
	},
	{
		"buffer":3,
		"byteOffset":0,
		"byteLength":1420
	},
	{
		"buffer":3,
		"byteOffset":1420,
		"byteLength":1136
	},
	{
		"buffer":4,
		"byteOffset":0,
		"byteLength":1464,
		"target":34963
	},
	{
		"buffer":4,
		"byteOffset":1464,
		"byteLength":5420,
		"target":34962,
		"byteStride":20
	},
	{
		"buffer":5,
		"byteOffset":0,
		"byteLength":1420
	},
	{
		"buffer":5,
		"byteOffset":1420,
		"byteLength":1136
	},
	{
		"buffer":6,
		"byteOffset":0,
		"byteLength":480,
		"target":34963
	},
	{
		"buffer":6,
		"byteOffset":480,
		"byteLength":1780,
		"target":34962,
		"byteStride":20
	},
	{
		"buffer":7,
		"byteOffset":0,
		"byteLength":1420
	},
	{
		"buffer":7,
		"byteOffset":1420,
		"byteLength":1136
	}],
	"animations":[{
		"samplers":[{
			"input":3,
			"interpolation":"LINEAR",
			"output":4
		},
		{
			"input":5,
			"interpolation":"LINEAR",
			"output":6
		},
		{
			"input":10,
			"interpolation":"LINEAR",
			"output":11
		},
		{
			"input":12,
			"interpolation":"LINEAR",
			"output":13
		},
		{
			"input":17,
			"interpolation":"LINEAR",
			"output":18
		},
		{
			"input":19,
			"interpolation":"LINEAR",
			"output":20
		},
		{
			"input":24,
			"interpolation":"LINEAR",
			"output":25
		},
		{
			"input":26,
			"interpolation":"LINEAR",
			"output":27
		}],
		"channels":[{
			"sampler":0,
			"target":{
				"node":1,
				"path":"rotation"
			}
		},
		{
			"sampler":1,
			"target":{
				"node":1,
				"path":"scale"
			}
		},
		{
			"sampler":2,
			"target":{
				"node":2,
				"path":"rotation"
			}
		},
		{
			"sampler":3,
			"target":{
				"node":2,
				"path":"scale"
			}
		},
		{
			"sampler":4,
			"target":{
				"node":3,
				"path":"rotation"
			}
		},
		{
			"sampler":5,
			"target":{
				"node":3,
				"path":"scale"
			}
		},
		{
			"sampler":6,
			"target":{
				"node":4,
				"path":"rotation"
			}
		},
		{
			"sampler":7,
			"target":{
				"node":4,
				"path":"scale"
			}
		}]
	}],
	"buffers":[{
		"uri":"data:application/octet-stream;base64,",
		"byteLength":3520
	},
	{
		"uri":"data:application/octet-stream;base64,",
		"byteLength":2556
	},
	{
		"uri":"data:application/octet-stream;base64,",
		"byteLength":6448
	},
	{
		"uri":"data:application/octet-stream;base64,",
		"byteLength":2556
	},
	{
		"uri":"data:application/octet-stream;base64,",
		"byteLength":6884
	},
	{
		"uri":"data:application/octet-stream;base64,",
		"byteLength":2556
	},
	{
		"uri":"data:application/octet-stream;base64,",
		"byteLength":2260
	},
	{
		"uri":"data:application/octet-stream;base64,",
		"byteLength":2556
	}],
	"samplers":[{
		"magFilter":9729,
		"minFilter":9729,
		"wrapS":10497,
		"wrapT":10497
	},
	{
		"magFilter":9729,
		"minFilter":9729,
		"wrapS":10497,
		"wrapT":10497
	},
	{
		"magFilter":9729,
		"minFilter":9729,
		"wrapS":10497,
		"wrapT":10497
	},
	{
		"magFilter":9729,
		"minFilter":9729,
		"wrapS":10497,
		"wrapT":10497
	}],
	"textures":[{
		"sampler":0,
		"source":0
	},
	{
		"sampler":1,
		"source":1
	},
	{
		"sampler":2,
		"source":2
	},
	{
		"sampler":3,
		"source":3
	}]
}