<svg xmlns="http://www.w3.org/2000/svg" viewBox="0 0 385.51 385.51"><defs><style>.cls-1{fill:#2c2c2c;}.cls-2{fill:#fff;}</style></defs><g id="alcool"><polyline class="cls-1" points="203.21 129.66 197.93 106.97 183.43 91.63 176.44 40.58 177.75 38.63 177.19 31.88 174.78 29.42 164.8 30.25 162.86 30.41 152.87 31.24 150.9 34.06 151.46 40.81 153.07 42.52 154.59 94.02 142.81 111.54 141.33 134.79 145.56 185.74"/><path class="cls-1" d="M207.67,127.54a21,21,0,0,0-.59-3.87A17.63,17.63,0,0,0,207.67,127.54Z"/><path class="cls-1" d="M207.08,123.64v0Z"/><path class="cls-1" d="M151.11,184.19c0-.36-.07-.78-.11-1.2C151,183.39,151.06,183.8,151.11,184.19Z"/><path class="cls-1" d="M184.93,59.64l-.42-.16c-.48-3.44.31-1.07-.22-4.24-.73-1.16-.67-5.29-1.11-6.35,0,0-.15-1.54,0-1.46-.37-.44-.29-1.6-.5-2.57-.14-.34-.06.28-.12.55l-.41-2.23c0-.89.13-1.14.29-.18l-.07-.62a2.91,2.91,0,0,1,0-.31v0l0-.09,1.24-1.8c-.24-3.12-.52-6.8-.83-10.85L177,23.37c-14.63,1.14-15.59,1.17-27.43,2.18q-2.79,4-4.34,6.28c.48-.53,1.12-1.39,1.78-2.29l1.33-1.82c.51-.69,1-1.33,1.41-1.86a8.14,8.14,0,0,1,1,.07l-.87.12c-.58.87-1.09,1.61-1.55,2.27l-1,1.44a12.26,12.26,0,0,0-1.14,1.77,5.67,5.67,0,0,0-1,1c0,1.06.13,2.71.22,4.21a7,7,0,0,1-.14,2.13l.17.23a.62.62,0,0,1,.09.12l.09.23,0,1.68.24,2.21,1.6,1.53s0,0,0,.06l0,0c0,.53,0,1.32,0,2.52.15,3.82.63,5.62.54,7.74,0-.31.16-1.16.26-.17-.26.17.27,2.62,0,3.11.06,1,.12,4.1.45,3-.16.54-.16,3.34-.37,1.68a23.83,23.83,0,0,0,.09,2.53l.07-1.21c.15,3.18-.09,4.93.31,7L148.9,70a12.48,12.48,0,0,1-.19,4.26l-.17-2c.1,3.16.18,5.07.46,7.69l0-.94c.14,1,.31,3.27.49,6,.09,1.39.19,2.9.29,4.44l.15,2.32a2.33,2.33,0,0,0,.05.56l0,.28-.16.33,0,.09-.17.27-.37.6L148,96.19c-.81,1.34-1.41,2.38-1.68,3l1-1L146,100.46c.18-.26,0-1.58.18-1.75l-7.58,11.4c-.25,4.29-.54,9-.8,13.53-.27,4.21-.52,8.17-.72,11.19.1,1.21.18,2.27.24,3.16s.09,1.45.12,1.91c0,2.13-.42.42-.46.4.31,2.56.39,1.08.54,3.28,0,.6-.23-.11-.3-.44a8.65,8.65,0,0,0,.23,1.91c0-1.2.4-.73.58-1.25l.2,2.82-.23-.11a15.86,15.86,0,0,1,.85,4.32c.29,4.68.79,9.74,1.13,14.44a7.07,7.07,0,0,1-.46-2,18.09,18.09,0,0,1,.11,2.18c.14-1.16.32,2,.34,1.06.83,3.39.7,7.88,1.32,10.89.51.22,8.89,5.8,9.47,5.75.06.95.13,1.89.11,2.18a13.07,13.07,0,0,0-.14-3.09l-.32-.15c-.3-2.25.14-.54-.06-2.75.24-.14.46,1.89.64,3.68-.11-1.62-.06-3.24-.39-3.87,0-1.53.33.14.28-1.69a29.36,29.36,0,0,1-.54-4.49l0,0c0-3.65-.84-5.53-.86-8.87l.12.36c0-1.19-.34-3.48-.36-5.61,0,.61-.14,1.15-.28-.12,0-2.45-.34-4.1-.29-5.89l-.39-1.69c-.13-1.53-.32-3.88-.57-6.77s-.54-6.07-.86-9.64L148,113.32l5-7.5-.16.3c1.92-2.89,4.3-6.48,7-10.56-.25-7.34-.54-15.89-.82-24-.27-7.54-.56-14.66-.84-19.83.18-2.1,0-4.91,0-7.16,0,.68-.09.83-.15.78a.73.73,0,0,1-.08-.29c0-.08,0-.17,0-.27s0-.3,0-.48c-.05-1.75-.09-3-.11-3.79-1.67-1.74-.67-.53-1.91-1.72,0,0,0-.11-.05-.21l0-.17a1,1,0,0,0,0-.17c0-.15,0-.32-.05-.5-.05-.5-.11-1.1-.19-1.78,0-.2-.05-.42-.08-.66l.23-.34.06-.09,0,.06-.09.12-.35.49c1.08-.11,15.7-1.27,17.65-1.36-.14-.15-.29-.29-.44-.44l-.18-.17.07.07c.08.1.17.19.25.28s0,.3,0,.44c0,.54.07,1.06.11,1.56,0,.28,0,.56.05.83v.61l-1.44,2.05c.2,1.59.33,2.6.43,3.43l.12.62.07.35.15.71c.08.48.17,1,.26,1.46.16,1,.31,2,.45,3,.29,2,.55,4.06.91,5.83l-.14-.35c.66,3.81,3.3,25.52,4,29.95l0-.61c.76,3.85.29,3.38.59,6.45.05-.07.11,0,.17,0a2.51,2.51,0,0,1,.24.69c.18.67.39,1.63.58,2.63l1.5,1.46,1.07,1.06-.1,0c1.38,1.36,4.63,4.29,6.86,6.57l-.25.06c1,.89,2.34,2.25,3.6,3.57,1,1,1.88,2,2.38,2.52h0c0,.21.07.44.11.67l.38,1.89.83,4.16c.6,2.89,1.29,5.94,2.09,8.75l.24,3.81.19.53s8.81,4.19,8.64-3.69l.25.06-.38-1.47c-.3-1.81-.75-2.58-.5-2.51l.54,2.45c-.35-1.8,0-.58.33.08-.15-.76-.29-1.49-.37-2.1-.16-.33,0,.28,0,.57a23,23,0,0,1-1-3.43c-.4-1.84.33-.2-.15-2.35l-2.62-12-8.13-8.81-6-6.42c0-.24-.07-.49-.11-.74s.09,0,.18.36c-.57-3.48-1-6.59-1.5-9.76a4.5,4.5,0,0,1,.14-1.43c-.06.28-.71-4.11-1.34-8.6-.32-2.25-.63-4.52-.87-6.25S184.93,59.72,184.93,59.64Z"/><path class="cls-2" d="M145.06,150.41l7.15,3,45.22-4h0L184.49,179.9s-8.64,34.8-12.44,36.22c-7.48.38-5.15.93-12.64,0l-3.13-10.57,2.45-15.67-6.59-5.34Z"/><path class="cls-1" d="M143.87,155.15a10.78,10.78,0,0,0,2.45,1.37A9,9,0,0,0,143.87,155.15Z"/><path class="cls-1" d="M146.34,156.54h0l0,0Z"/><path class="cls-1" d="M139.68,152.32c0,.25.12.55.19.84A7.86,7.86,0,0,0,139.68,152.32Z"/><path class="cls-1" d="M188.25,156.15l.59-.37c-.08.22-.67.42-.57.44.36-.12.3,0,.22.05s-.18.1-.05.16c0,0-.09,0-.25,0,.15.44-.39,1.1-.59,1.78,0,.27.15-.14.32-.28l-.54,1.54c-.34.55-.57.62-.33,0l-3.31,7.41L178.85,178c-.57,2.16-1.09,4.17-1.53,5.85s-.73,2.79-.91,3.57c.37-.5.59-1.89,1.08-2.31-.12,1.21-.53,1.69-.46,2.25-.64.3-.82,2.5-1.6,3.22l.21.42-.35.52c-1.14,5.12-.17,1.2-1.55,5.62-.73,2.58-.72,3.9-1.32,5.26.07-.21.43-.71.29,0-.29,0-.39,1.8-.76,2-.18.65-.94,2.64-.35,2.09-.29.28-1,2-.78.9a12.12,12.12,0,0,0-.6,1.57l.39-.7a18.54,18.54,0,0,1-1,2.26c-.1.18-.07.13-.09.2a.63.63,0,0,0,.05.23.58.58,0,0,0,.18,0c-.08.22-.24.43-.49.06a.3.3,0,0,0,0-.18c-.06.11-.17.08-.25.13l-.06,0s0,0-.06,0l-.34,0c-.45.07-.92.15-1.4.25l.71-.06c-.6.13-2,.42-2.93.5a7.93,7.93,0,0,1-.9,0,.58.58,0,0,0-.21,0l-.14,0-.66.06H163l0-.06-.08-.13-.15-.28-.16-.28,0-.09-.1-.28-.21-.56a29.63,29.63,0,0,0-1.23-3.05l0,1.06-.77-1.76c.06.21,1.14.62,1.11.82-.13-.4-.33-1.07-.61-2,.1-.68.21-1.47.33-2.34.19-1.22.38-2.55.59-3.93.53-3.53,1.11-7.33,1.64-10.85l-5.6-4.54-1.31-1.07-.36-.33a2.86,2.86,0,0,1-.06-.5.57.57,0,0,1,0-.14.79.79,0,0,1,0-.25c0-.1.08-.1.14-.05a1.26,1.26,0,0,1,.19.24l.08,0,0,0,0-.14-.07-.24-.12-.34a1.73,1.73,0,0,0-.17-.34,2.73,2.73,0,0,1-.31-1c0-.43.24,0,.33.27-.17-.67-.21-1.31-.35-1.34.08.87-.34.58-.49,1l-.38-2,.23,0a8.71,8.71,0,0,1-1.11-3c-.59-3.3-1.4-6.85-2-10.17.14,0,.36.71.58,1.39a8.65,8.65,0,0,1-.25-1.54c-.07.84-.44-1.36-.41-.71-1-2.31-1.2-5.54-2-7.6-.51-.09-9.15-2.88-9.71-2.76a11.42,11.42,0,0,1-.25-1.54,6.48,6.48,0,0,0,.33,2.19l.32.06c.44,1.57-.1.41.24,2-.23.14-.58-1.28-.86-2.54a8,8,0,0,0,.62,2.72c.12,1.08-.32-.06-.16,1.25a15.24,15.24,0,0,1,.82,3.13h-.05c.28,2.61,1.19,3.83,1.42,6.22l-.13-.23c0,.85.55,2.44.71,4,0-.44.06-.84.28,0,.2,1.75.6,2.88.66,4.18l.49,1.15c.49,2.3,1.44,6.8,2.56,12.08l4.8,3.83.7.55.08.05.17.11v.3l0,.27c-.06.4-.11.79-.17,1.18-.22,1.56-.43,3-.63,4.39-.47,3.22-.86,5.88-1.11,7.62l.78,2.61a2.36,2.36,0,0,1-.12-.26l3.22,10.55c.11.36.22.72.34,1.09l.17.54.08.28.05.14a.14.14,0,0,0,0,.06h.07l2.34.27c1.57.17,3.16.37,4.79.49l.59.05.43,0,.83,0c.58,0,1.22,0,1.79-.05,1.14-.09,1.93-.2,2.77-.28l.63-.06,1.13-.08a8.24,8.24,0,0,0,2.38-.34l1.1-.33c.31-.2.68-.39,1-.61a6.38,6.38,0,0,0,1.68-1.6l.68-1c.22-.33.39-.7.59-1.05a16.63,16.63,0,0,0,.93-1.87c.4-.9.74-1.75,1.05-2.58,1.24-3.3,2.12-6.23,2.78-8.61a41.72,41.72,0,0,0,1.76-4.89c-.34.81-.42.48-.22-.18,1.36-4.6-.06-.36,1.16-5,.27-1.12.73-2.89,1.29-5s1.17-4.44,1.82-6.94l4.38-10c1.39-3.13,2.56-5.71,3.18-7,.17-.64.4-1.3.65-2,.13-.33.27-.67.4-1l.46-1.1c1-2.39,2.05-4.8,2.79-6.85l-.07.4c.56-1.45,2.11-5.06,4.07-9.61l-16.09,1.32-4.61.39c-1.13.1-2,.18-2.57.25l.44,0c-2.77.47-2.43,0-4.64.11.33.38-2,.82-3,.93l0-.09c-1.37.19-4.46.81-6.72,1.07l.07-.23c-1.88.41-5.45.62-6.81.76l-4.13.19-2.37.12-1.39.1-.23-.09-.29-.1c-.5-.2-1-.38-1.48-.55l-2.24-1.64-.39-.09s-7,5.31-2.55,9l-.16.17,1,.4c1.16.62,1.82.62,1.65.79l-1.64-.73c1.19.57.3.32-.21.24a15.2,15.2,0,0,1,1.35.7c.27,0-.14-.16-.31-.28l1.19.33.32.1.57.23c.38.15.75.31,1.1.49a7.42,7.42,0,0,1,.83.4c.87,0-.28.34,2.13.15l12.59-.84c4.09-.28,8.18-.59,12.36-1,.2.08,0,.09-.27.15,2.51-.31,4.75-.48,7-.78a2.8,2.8,0,0,1,1,.24,4.74,4.74,0,0,1,1.23-.2l.33,0,.14,0h0v0l.06,0a.63.63,0,0,1,.23-.05S188.26,156.15,188.25,156.15Z"/><path class="cls-1" d="M152.14,184.58l-28.37-9.66.45-4.18-3.78-2.83-6-24.49L105.35,124l1.39-4.84-4.24-5.25-5.72-18-18,2.31-16,8.51,5.72,18-.42,6.73,3.93,3.15,3.8,21.15,9.3,23.44-1.45,4.49,2.78,3.15L68.93,211.08l3.92,12.31c1.21.35,3.59,4.36,3.59,4.36l35,109.89,1.16,5.8,3.5,8.84,5.59,6.79L159,349.94l35.7-14.11.63-8.77-2.25-9.23-2.41-5.41-35-109.9.41-5.62C156.85,195.91,152.14,184.58,152.14,184.58Z"/><path class="cls-1" d="M151.43,179.24c-1.86-.89-5.19-2.05-8.34-3.17A89,89,0,0,0,151.43,179.24Z"/><path class="cls-1" d="M143,176.05l-.05,0,.11,0Z"/><path class="cls-1" d="M147.8,189c.29.75.63,1.6,1,2.47C148.47,190.59,148.14,189.75,147.8,189Z"/><path class="cls-1" d="M62.62,126.14l.36.53c-.14,2.07-.25,3.54-.32,4.59-.1,1.32-.19,2.14-.25,2.69.8.72.9.9,1.68,1.59.36.32,1,.87,2,1.71l.68.55.11.08s0,0,0,0l-.09-.08-.09-.08h0a.22.22,0,0,1,.16,0l0,0s0-.07,0,.14.13.61.19.93c.26,1.29.51,2.78.75,4.26.49,3,.93,5.89,1.3,7.11,0-.05.57,3.48.35,3.29a6,6,0,0,1,.4,1.34c0,.28.11.58.17.9.09.49.17,1,.27,1.54s.45,1.17.67,1.76l.51,1.23c.38.73-.14-.59-.28-1.2l2,4.78c.66,1.92.68,2.45-.17.41L79,179.35v0h0l0-.15.15-.48,0-.12s0,0,0,0l0,.07-.08.27c-.09.25-.17.51-.25.76-.55,1.68-1.11,3.42-1.7,5.25l4.94,5.63-.35-7.24L62.39,210l4.8,15.16,2,2,.32.31.16.16-.11.5,0,.12h0l0,.06.32.38c.24.33.52.72.79,1.13.39.59.26.4.28.44.14.42.27.84.4,1.25.68,2.14,1.32,4.15,1.91,6l2.78,8.59c-.35-1.86-1.87-6.1-2-7.84,1.37,3.61,1.66,5.43,2.38,7-.07,1.57,2.45,8.11,2.81,11.06l.63,1,.4,1.89c5.45,16.06,1.33,3.64,5.82,18,2.69,8.28,4.35,12.09,5.67,16.75-.22-.68-.62-2.57.14-.44-.14.44,2,5.66,2.08,6.79.7,2.09,2.84,8.92,2.46,6.5.19,1.21,2,7.32.75,3.74.64,2.06,1.22,4.06,1.77,5.52l-.74-2.67c2.26,6.91,3.19,10.78,5,15.19l-.68-2.61c1.34,4.14,2.47,7.59,2.64,9.33L103.66,331l2.58,8c.44,2,.85,3.92,1.3,5.95l.74,1.78.61,1.4-.78-2,1.38,3.17c.28.68.6,1.42.94,2.22l1.36,3.31,8.12,9.62,13.84-3.56,10.71-2.81c6.73-1.77,12.25-3.26,14.42-3.94l-3.22.49,4.41-1.25,1.81-.79a3.29,3.29,0,0,0-.63.39l-.4.31-.3.2-.38.23-.42.19-.21.1-.12.07-.46.25a2.24,2.24,0,0,1-.69.27l2-.5,38.41-15.28c.29-4,.58-8.07.86-12.11-.84-3.46-1.69-6.91-2.51-10.24l-2.47-5.54c-2-6.14-3.75-11.8-5.21-16.41s-2.59-8.3-3.21-10.3c-1.32-4.67.16-1,.22-.93-1.89-5.59-1.06-2.34-2.56-7.12-.36-1.32.3.2.57.93a40.19,40.19,0,0,0-1.4-4.18c.74,2.65.05,1.65.19,2.83l-1.93-6.16.3.21a80.44,80.44,0,0,1-3.49-9.36c-3.15-10.22-6.75-21.25-10-31.51a35.12,35.12,0,0,1,1.7,4.38c-.43-1.37-1.13-3.46-1.44-4.75.56,2.54-1.52-4.25-1-2.29-2.9-7.33-5.52-17.18-8-23.69-.05,0-.14,0-.39-.44a2,2,0,0,1-.52-.32c-.1-.11-.22-.15-.33-.38s-.24-.45-.36-.69c-.51-1-1.1-2.32-1.72-3.84h0c0-.25-.21-.41-.37-.6s-.35-.35-.54-.52c-.37-.35-.77-.68-1.18-1-.8-.66-1.62-1.3-2.35-1.85a12.41,12.41,0,0,0-2.74-1.82c-.71-1.94-1.5-3.9-1.69-4.47.08.5,1.56,4.39,2.33,6.35l.41.25a10.14,10.14,0,0,1,.82,2.67,2.72,2.72,0,0,0,0,.44c0,.09,0,.21.06.38v0h.25l.27-.05c.36,0,.73-.1,1.12-.13l.59,0h.3l.23,0a6.54,6.54,0,0,1,1,0,2.22,2.22,0,0,1,1.28.27l-5.13-.25c0,.14,0,.4,0,.69-.07.07-.1-.19-.11-.7l5.29.26a5.72,5.72,0,0,0-3-.22,14,14,0,0,0-1.42.16c-.13,0-.22,0-.39.05l-.4.05h0l0-.12c-.07-.26-.22-.77-.41-1.33-.38-1.14-.9-2.56-1.41-3.92.49,1.35.93,2.7,1.25,3.82.17.56.3,1.07.37,1.39l0,.17v0h0l.24,0,.48-.06c.26-.05.52-.08.77-.11.51-.07,1-.1,1.52-.12a6.22,6.22,0,0,1,1.14,0c.22,0,.34,0,.46,0a2.32,2.32,0,0,1,.38.06,1.54,1.54,0,0,0,.28.07.36.36,0,0,1,.18.12l-5.51-.28c0,.45,0,.8,0,1.09-.18,1.73-.25,1.62-.33,1.61s-.08,0-.13.29-.06.34-.1.64c0,.15,0,.32-.06.52s-.06.67-.1,1.08-.06,1-.09,1.53l.7,2.08c.14.37.27.75.41,1.14.26.74.53,1.5.81,2.27.53,1.55,1.06,3.14,1.47,4.65l-.06,0c2.27,8,4.22,12,6.28,19.32l-.33-.75c.67,2.6,2.47,7.58,3.79,12.24-.37-1.33-.56-2.53.35.24,1.54,5.36,2.84,8.93,3.89,12.87l1.42,3.65c3,9.38,10.52,32.77,17.17,53.46l2.35,5.23c.74,3,1.37,5.5,2,7.91-.09,1.48-.18,2.76-.26,3.94l0,.31v.11a1.34,1.34,0,0,0,0,.2l-29.75,11.87.7-.32-3.13,1.25-33.72,8.35-3-3.62-3-7.63-1.14-5.62-9.32-28.89c-2.91-8.93-5.56-17-7.73-23.67-1.21-4.6-3.25-10.82-4.68-15.55.73,2.65.28,1.81-.36-.25-4.55-14.38-.47-.91-5.2-15.42-1-2.94-2.39-7.35-4.13-12.7-.85-2.68-1.79-5.59-2.77-8.67q-.81-2.55-1.67-5.21a7.06,7.06,0,0,0-.54-1l-.48-.75c-.26-.4-.54-.81-.84-1.22s-.61-.84-1-1.3c-.19-.23-.39-.46-.64-.72l-.19-.2h0l-.07-.05s-.12,0-.13-.11l-.06-.18c-.88-2.81-1.8-5.71-2.72-8.62,5.66-7.77,11.4-15.62,16.32-22.37l2.15-2.95L90,183.71l-1-1.17c0-.11.22-.63,0,.05L90.15,179,84,163.11c-.63-1.41-1.26-2.89-1.9-4.41s-1.16-2.82-1.75-4.26c-.5-2.75-1-5.54-1.5-8.25s-1-5.63-1.57-8.17l.23.8c-.27-1.46-.7-3.77-1.25-6.76l-3.42-2.73c.1-1.58.22-3.34.34-5.22-.94-3-2-6.2-3-9.52l-1.42-4.54L68.41,109l1-.49,3.93-2.08,7-3.67,8.13-1,3.41-.44.78-.11.25,0-.31,0a10.87,10.87,0,0,1,1.07-.2A3.59,3.59,0,0,1,93.8,102s.11.47.19.79.2.74.31,1.17c.24.86.52,1.88.92,3.21,0-.45.58.75,1.24,2.46.33.85.69,1.84,1,2.8l.5,1.42c.24.73.47,1.42.69,2,.44.55.83,1,1.16,1.42l-.19-.1,1.71,2,.13.15.08.08.16.17.36.38c0,.2-.1.51-.09.55v0l-.07.28-.33,1.19c-.19.72-.39,1.45-.59,2.18l5.43,11.09-.32-.16c.66,1.28,1.44,2.85,2.26,4.54s1.57,3.28,2.37,5c1,4.08,2,8,2.48,10.16,1,4.36,2.23,9.68,3.56,15.43l2.83,2.15-.18-.12.1.08.28.22c-.08.6-.15,1.21-.23,1.82l-.41,3.3,3.23,1.12c4.87,1.69,9.84,3.37,14.58,4.86l7.95,3.38,1.21.34s15.58-2.75-.55-10l.34-.12-3.31-1.1c-3.91-1.44-5.82-1.82-5.48-1.94l5.4,1.87c-3.95-1.42-1.14-.58.42-.19-1.65-.58-3.25-1.15-4.55-1.67-.81-.18.55.29,1.15.54-2.16-.65-5.2-1.47-7.77-2.45-4.06-1.4-.14-.43-4.88-2.07l-1.44-.5,3.57,5.6c.27-2.41.54-4.82.8-7.19l-4-3c-1.71-1.28-.16-.13-.61-.48l-5.47-23.2-8.36-18.08s0-.1,0,0l-.06.22.25-.88,1.43-5-5.41-6.73-2.66-8.32c-.1-.61.12.08.39.8-.55-1.69-1.09-3.35-1.62-5-1-3.08-2-6.1-2.91-9L89.76,91l-6.19.86a22.75,22.75,0,0,1-3.21.08c.1,0-.07,0-.47.1l-.77.12L77,92.48l-7.71,4.16-13.47,7.21c2.81,8.81,5.62,17.65,6.87,21.55v0s0-.06,0,.18S62.62,126.1,62.62,126.14Z"/><path class="cls-2" d="M101.7,267.27a8,8,0,0,0,2.4-.23A6.75,6.75,0,0,0,101.7,267.27Z"/><path class="cls-2" d="M104.12,267h0Z"/><path class="cls-2" d="M94.82,265.05c.07.21.16.45.24.7A5.24,5.24,0,0,0,94.82,265.05Z"/><path class="cls-2" d="M146.81,255.1l0-.42c2-.83.75.18,2.53-.67a3.6,3.6,0,0,1,1.76-1l1.08-.38a4.28,4.28,0,0,0,.42-.19.62.62,0,0,0,.16-.1s0,0,0-.05.09,0,.12.21c0-.31,0-.09.06-.18s0-.1,0-.19L153,252a.63.63,0,0,1-.05.37l.1,0a1.43,1.43,0,0,1,0,.3v0s0,0,0,0l.06.2.12.39.48,1.58c.32,1.06.65,2.13,1,3.17,1.28,4.19,2.49,8,3.05,9.59.07-.55-.44-1.66-.24-2.2.51.92.4,1.47.74,1.84-.2.27-.06.82.1,1.42l.06.23,0,.11h0l0,0a1.11,1.11,0,0,1-.26.06l.32,0-.19,0c.3.14.26.15.19.14h-.12s0,.14,0,.24a.25.25,0,0,1,0,.13,5.42,5.42,0,0,1-.9.35c.18-.07.73-.1.2.21-.2-.21-1.41.8-1.79.66-.53.26-2.32,1-1.57,1.06-.38-.05-2,.54-1.11,0a8.82,8.82,0,0,0-1.42.62l.72-.19c-1.78.8-2.87.95-3.91,1.74l.72-.14c-.42.19-.81.36-1.17.49s-.78.28-.74.17,0-.1-.19-.14c.16-.06.08-.05.12-.07s.31-.18.52-.3l-.55.23,0,0-.25.08-.48.16-.89.33c-.57.22-1.13.45-1.75.73l.55-.16c-1.85,1-12,4.52-13.67,5.52h.92l-1.48.72c.18-.05.47-1.11.65-1.07l-5.73,1.88-9.52,2.21-2.89.65c-.39.08-.71.13-.92.16a2.43,2.43,0,0,1,0-.28c0-.49.31-.49.34-.55-.18-.21-.27.12-.35-.21,0-.11.19-.13.23-.12s0-.26-.13-.19-.36.36-.53.59l-.14-.55.21-.06s0-.05-.11-.07a.34.34,0,0,1-.12,0l-.18-.24a4.76,4.76,0,0,1-.75-1.68c-.77-2.76-1.79-5.71-2.62-8.47.14,0,.4.55.66,1.11a6.83,6.83,0,0,1-.34-1.29c0,.73-.52-1.11-.45-.56-1.15-1.85-1.51-4.6-2.43-6.27-.51,0-9.19-1.26-9.74-1.08a9.72,9.72,0,0,1-.34-1.29,4.7,4.7,0,0,0,.46,1.84h.32c.53,1.3-.07.37.36,1.66-.22.14-.65-1-1-2.07.27.95.4,1.95.78,2.25.19.92-.32,0-.09,1.1a10.84,10.84,0,0,1,1,2.58h-.05c.43,2.2,1.4,3.13,1.77,5.16l-.14-.19c.08.73.69,2,.94,3.31-.06-.37,0-.73.28,0,.3,1.47.76,2.39.9,3.49l.56.93c.73,2.28,2.08,6.47,4.11,12.76l8.37-1.94,5.66-1.34,8.45-2,4.93-1.61-.19.1,18.55-6.09,6.87-3,6.21-2.79c2.28-.68,5.26-2,7.59-2.9-1.38.47-1.13.18-.17-.21l.09,0c-2.13-6.78-.35-.53-2.65-7.41-.76-2.24-1.14-3.34-1.81-5.4s-1.34-4.26-2.08-6.61c-2-6.59-4.11-13.51-5.37-17.62l-3.26,1.29c-1.93,1-4,1.88-6,2.74l-2.37,1c-.55.24-1.08.49-1.57.76l.17-.17c-.51.25-1.64.73-3.08,1.32l-4.8,2-5.44,1.66c-1.67.52-3,.95-3.69,1.2l.37-.06c-2.21.94-2,.46-3.86.92.36.31-1.53,1.15-2.26,1.42v-.09c-1.11.42-3.55,1.57-5.39,2.21v-.23c-.29.14-.64.28-1,.43l-1,.38-.33.09-.49.11-.94.21-1.45.32a90.14,90.14,0,0,0-10.17,2.09l-2.39-.11-.32.13s-2,8.27,3,8.82l0,.23.91-.23c1.11-.14,1.56-.5,1.54-.27l-1.51.31c1.12-.19.37.1,0,.32a9.9,9.9,0,0,1,1.3-.17c.19-.14-.18-.06-.36-.07a8.27,8.27,0,0,1,2.09-.65c1.13-.24.15.33,1.47.06l10.17-2,5.48-1.64c1.75-.54,3.51-1.09,5.28-1.67.18,0,0,.1-.19.2,2-.75,3.87-1.3,5.71-2a2.16,2.16,0,0,1,.92,0,10.07,10.07,0,0,1,1.83-.7l4.43-1.47,3.19-1.34C146.25,255.31,146.77,255.1,146.81,255.1Z"/><path class="cls-1" d="M187.66,303.4c12.88,2.9,26.87,5.11,26.87,5.11s27.81,7.8,41.61,9.09,9.95-14.88,9.95-14.88c10.63-20.45,27.52-86,27.52-86l1.1-37.33L289.64,155l-16.13-39.74L286.23,57,272.7,47.57,254.22,50l-12.71,58.24-31.24,29.4L196.46,156l-16.53,40s-7.07,34.53-8.66,51"/><path class="cls-1" d="M188.77,308.59a74,74,0,0,0,8,2C194.47,309.86,192,309.27,188.77,308.59Z"/><path class="cls-1" d="M196.81,310.57h.05l-.11,0Z"/><path class="cls-1" d="M177.14,245.34c.07-.72.17-1.55.28-2.4C177.31,243.75,177.2,244.57,177.14,245.34Z"/><path class="cls-1" d="M292.8,242l-.26-.55c1.95-7,1-1.91,2.71-8.39.15-2.68,3-10.72,3.25-13.05a2.29,2.29,0,0,0,.15-.46l.41-1.39c0-.17.09-.34.14-.51a3.29,3.29,0,0,0,.05-.54c0-.33.05-.64.06-.9s.08-.44.12-.38c-.28-1,0-3.36,0-5.42-.06-.75-.11.54-.22,1.1l0-4.72c.16-1.84.35-2.29.32-.29.16-4.5.53-15.08,1-27.57l-5.21-25.65c-2.78-6.86-5.42-13.41-7.64-18.9l-5-12.12c.43,1.67,2.12,5.41,2.37,7-1.51-3.18-1.88-4.82-2.66-6.17a21.07,21.07,0,0,0-1.46-4.48c-.38-1-.77-2-1.1-2.92-.08-.24-.16-.47-.23-.69l-.06-.17s0,0,0,0h0a.25.25,0,0,1,.16,0h-.07a.65.65,0,0,1-.24,0l.1,0s0,0,0,0l.07-.21.14-.41c3-15.16.6-3.48,3.59-16.84,1.65-7.75,2-11.52,3.13-15.8-.15.64-.7,2.31-.34.29.34-.29,1-5.38,1.45-6.3.4-2,1.82-8.33,1-6.25.42-1,1.73-6.7,1.15-3.29l.63-2.77.32-1.49.42-2.11-.55,2.31-.35,1.34c.7-3.19,1.31-6,1.86-8.42l-6.91-4.86c-1.25-.86-2.45-1.65-3.77-2.42l1.93,1.52c-1.63-1.12-3.13-2.15-4.36-3l-.86-.65-.86-.67c-.87-.66-1.6-1.25-2.17-1.76L278,44.74l1.7,1.11L274.06,42l-4.93.67-2.7.39c-1.79.27-3.57.55-5.55.88l1.93-.24c-.82.15-2.07.36-3.64.61l-1.24.19-2.32.34-5.45.78c-.55,2.69-1.16,5.61-1.79,8.66-.37,1.87-.76,3.82-1.16,5.8-.8,4-1.62,8.07-2.4,11.92-1.53,7.69-2.83,14.34-3.18,16.76l.91-2.83-.95,5.44c.14-.63-.33-2.8-.12-3.31-.65,3-2.08,9.67-3.88,18l-30.47,28.78-8.28,11-5,6.6-1.17,1.44a12.68,12.68,0,0,1-.59,1.19c-.08.11-.11.11-.12,0a2,2,0,0,1,.12-.52c.09-.28.19-.59.28-.89.28-.43.53-.8.53-.83l-.58.8q-.28.7-.51,1.29l-.22.59-.3.84c-.15.45-.21.68-.27.9a24.18,24.18,0,0,1-1.11,2.89c-.52,1.13-.11-.33.12-1a34.59,34.59,0,0,0-1.46,3.73c1.05-2.27,1-1.16,1.58-2.05l-2.27,5.41-.11-.32a66,66,0,0,1-3,8.58c-1.87,4.49-3.83,9.17-5.79,13.86l-1.45,3.51-.73,1.76-.5,1.22-.26,1.29q-.75,3.72-1.48,7.34a29.27,29.27,0,0,1,.55-4.26c-.27,1.29-.62,3.27-1,4.44.69-2.28-.62,4.08-.17,2.27-.83,7.16-3,16.23-3.65,22.57.19.31,1.71,4,3.29,7.6s3.29,7,3.58,7c-.26,1.9-.44,3.75-.56,4.32.18-.47.65-4.15.85-6.15l-.26-.39c.55-4.61.32-1,1-5.54.28-.2-.32,4-.74,7.56.43-3.24,1.12-6.49,1.05-7.86.59-3.07.25.39.95-3.31.36-2.65.7-6.17,1.39-9.19l0,.06c1.58-7.35,1.68-11.4,3.25-18.11l-.06.75c.3-1.18.64-3,1-5,.16-.84.34-1.72.52-2.63.37-.83.74-1.67,1.1-2.5-.53,1.14-1.11,2.08-.13-.38,2.09-4.63,3.26-7.88,4.86-11.23l1.13-3.39,8.81-21.38,13-17.48,32-30.33c2.12-9.85,3-13.87,3.6-16.68l-.11.69c2.2-10.2,5.36-24.9,8.69-40.32l12.86-1.74,5.26,3.63L280,58.89l.51.33c-2.14,10.17-4.06,19.33-5.55,26.44-1.16,4.16-2.37,10-3.4,14.38.63-2.42.62-1.55.19.36-1.45,6.56-1.48,6.93-1.49,7.2a5.41,5.41,0,0,1-.14,1.11l-.37,1.93-1,5c.07.19.27.65.47,1.14.79,1.92,1.85,4.48,3.11,7.51,1.11,2.71,2.39,5.85,3.8,9.28,2.73,6.76,5.94,14.69,9.19,22.72,1.64,8.07,3.29,16.25,4.77,23.52-.4,10.65-.73,19.37-.89,23.67.07,3.82,0,8.1-.15,12.37a1.51,1.51,0,0,1-.09.54c-.13.51-.27,1-.4,1.53-.26,1-.53,2-.79,3-.51,2-1,3.91-1.44,5.72l.12-.74c-1,3.87-4.53,16.71-8.44,29.59s-8.25,25.71-9.77,30l.46-1.15c-2.55,7.58-2.55,6.42-5,12.08.19-.15.14.19-.06.81-.1.31-.24.69-.41,1.12q-.12.33-.27.69l-.58,1.34c-.09.58-.17,1.19-.26,1.79s-.06,1.21-.09,1.8l.13.72c0,.15.05.29.07.43s.06.44.09.64c.05.4.07.77.08,1.06l-.09-.08a14.61,14.61,0,0,1-.08,2.91,5.88,5.88,0,0,1-1,2.65,3.12,3.12,0,0,1-.87.78,5.5,5.5,0,0,1-1.41.5,9.07,9.07,0,0,1-1.92.11h-.5l-.61-.06-1.2-.13.27-.19a90.66,90.66,0,0,1-10.08-1.5c-3.64-.73-7.1-1.52-9-2-2.73-.65-5.91-1.48-9.35-2.41L221.2,306l-5.77-1.62-14-2.36c-2.51-.69-5-1.39-7.49-2.13l-1.12-.17s-3.44,1.22-5,3-1.3,4.3,6.49,6.73l-.3.17,3.15.6c3.74.84,5.53.89,5.24,1.06l-5.16-1c3.77.79,1.11.4-.36.24,1.58.33,3.11.65,4.35.95.77.06-.53-.19-1.11-.35,2.05.31,4.93.62,7.4,1.16,3.88.68.18.4,4.72,1.19l1.18.2,3.58,1,3.87,1,7.72,2c5.15,1.3,10.32,2.52,15.59,3.59q3.94.81,8.06,1.41c.67.11,1.4.18,2.1.27l1.05.13c.32,0,.85.06,1.26.09a17.11,17.11,0,0,0,5.79-.61,13,13,0,0,0,5.89-3.61,14.36,14.36,0,0,0,3.16-5.69,21,21,0,0,0,.8-5.41q0-1.29-.06-2.52c0-.42-.07-.83-.12-1.24l-.07-.6v0a.14.14,0,0,1,0-.06h0s0,.05,0,0l.13-.29.55-1.16c.38-.78.74-1.56,1-2.33.31-.49,0,.14-.2.83.71-1.77,1.41-3.48,2.09-5.17l1.84-4.94c.62-1.62,1.13-3.22,1.7-4.82s1.1-3.19,1.6-4.8a18.85,18.85,0,0,1,1.23-2.69c-.24.5,2.62-8.35,5.33-17.44,1.33-4.55,2.67-9.15,3.7-12.64S292.76,242.11,292.8,242Z"/><polygon class="cls-2" points="197.26 186.05 215.71 192.09 262.83 202.33 281.29 204.4 270.42 254.17 262.8 253.68 193.52 238.54 186.39 235.82 197.26 186.05"/><path class="cls-1" d="M196.7,191a19,19,0,0,0,3.42,1.44A15.22,15.22,0,0,0,196.7,191Z"/><path class="cls-1" d="M200.14,192.4h0Z"/><path class="cls-1" d="M191.51,185.84l-.23,1.12C191.37,186.59,191.45,186.21,191.51,185.84Z"/><path class="cls-1" d="M266.27,208.58l.26-.37c3.26.36.9.56,3.92.8a8.29,8.29,0,0,1,3.11.13l.46.07c.07,0,0,0,.06,0a.05.05,0,0,0,0,0s.06,0,.12-.07.07.07-.07.23c.26-.28.14,0,.26-.12s.09-.08.17-.16l.12,0a.22.22,0,0,1,0,.08c-.13.16-.33.24-.36.21l-.09.18-.05.1c-.17.71-.34,1.48-.53,2.29-.76,3.32-1.67,7.3-2.59,11.29-1.81,8-3.61,16-4.18,19,.39-.71.64-2.56,1.15-3.18-.14,1.61-.57,2.29-.52,3-.66.48-.87,3.4-1.67,4.47l.21.51-.36.74c.18.34.15.29.08.29a.4.4,0,0,0-.13-.07l-.05,0,0,0,0,0h-2c-.09,0,0,0-.08,0l0,0h0l-.15,0-.57-.1c-.37-.08-.74-.17-1.11-.28.29.07,1,.42.1.3-.1-.3-2.47-.34-2.86-.71-.9-.16-3.79-.83-2.89-.25-.45-.29-3-.93-1.45-.75a19,19,0,0,0-2.34-.49l1.09.34c-2.95-.59-4.5-1.22-6.49-1.31l1.06.38a11.36,11.36,0,0,1-3.86-1.16l1.84.28c-2.93-.63-4.69-1-7.17-1.33l.87.2c-3.18-.32-19.46-3.57-22.41-3.75l1.25.57-2.5-.31c.29.07,1.38-.64,1.6-.49l-22.8-4.86-3.45-1.31c.38-1.58.68-2.81.81-3.39.59-1.93.52-.26.56-.22.42-2.41-.07-1.1.4-3.12.17-.55.19.16.16.48.16-.9.44-1.7.32-1.8-.34,1.09-.58.55-.9,1l.6-2.6.19.16a14.51,14.51,0,0,1,.4-4.15c1-4.3,2-9,3-13.36a6.29,6.29,0,0,1-.13,2,14.84,14.84,0,0,1,.51-2c-.46,1,.24-1.86,0-1.06.16-3.3,1.55-7.32,1.8-10.21-.42-.35-6.87-7.81-7.43-7.93.2-.88.4-1.74.5-2a11.43,11.43,0,0,0-.74,2.83l.27.22c-.35,2.13-.29.46-.72,2.51-.27.05.09-1.84.43-3.51-.36,1.49-.86,2.94-.72,3.61-.41,1.38-.27-.22-.75,1.44a25.91,25.91,0,0,1-.74,4.21l0,0c-1,3.31-.75,5.23-1.67,8.25v-.35c-.38,1.06-.66,3.24-1.24,5.17.17-.55.46-1,.23.19-.65,2.22-.83,3.8-1.38,5.4l-.1,1.64c-.87,4-2.8,13-4.89,22.79l12,4.51,21.6,4.53-.32,0,24,5.09,13.31,2.8,11.57,2.34,1.06.05c.49.09,1,.17,1.58.24l.63.06.8.07,1.62.12,6.29.47c-2.18-.24-1.55-.37.06-.26h.12c1.19-5.41,1.19-5.61,1.18-5.84a5,5,0,0,1,.13-1c.12-.59.33-1.69.74-3.79.66-3.58,2.54-12.16,4.46-20.63,2.26-9.78,4.49-19.45,5.33-23.09.23-1.46.51-3,.82-4.56-2.57-.25-5.18-.54-7.74-.83l-3.77-.4-1.13-.1-1-.05.35-.05c-.72,0-2.12-.2-3.93-.41l-6.16-.73-10.31-2.32c-3.26-.73-5.95-1.32-7.21-1.55l.55.17c-3.66-.57-3.09-.85-5.91-1.59.29.48-2.86,0-4.05-.2l.06-.07c-1.79-.32-5.9-.86-8.86-1.44l.16-.2c-2.5-.3-7.1-1.4-8.87-1.76l-1.22-.3-.66-.16-.34-.09-.15-.05-2.74-1-3.17-1.13c-2.17-.75-4.42-1.48-6.57-2.06l-3.19-1.7-.52-.11s-7.83,5.47-1.4,9.28l-.18.18,1.38.42c1.61.64,2.45.64,2.27.82l-2.25-.77c1.63.61.45.34-.22.25.68.25,1.34.49,1.87.74.35,0-.21-.17-.46-.3a20.3,20.3,0,0,1,3.27.88c1.68.57,0,.37,2,1l7.47,2.58,12.39,2.89c4,.93,8.12,1.84,12.27,2.72.23.15-.07.08-.39.05,3.28.62,6.17,1.28,9.16,1.83a4,4,0,0,1,1.22.6,40.47,40.47,0,0,1,4.33.8l8.62,1.83,3.18.37Z"/><path class="cls-1" d="M255.71,52l-5.79,27.6L277.77,86l6.33-27.87s-1.3-5-13.08-8.2S255.71,52,255.71,52Z"/><path class="cls-1" d="M250.9,51.4a3.66,3.66,0,0,0-.62,1.49A3,3,0,0,0,250.9,51.4Z"/><path class="cls-1" d="M250.27,52.9h0v0Z"/><path class="cls-1" d="M259.43,54.84l.34.33.17.18.12.11c.1.1,0,0,.06,0h0s0,0-.05,0l-.11-.11-.17-.17Z"/><path class="cls-1" d="M247.91,85.1l.48-.3c2.61.6.46.58,3,1.06a6.33,6.33,0,0,1,2.6.38l.37.11.2.06.34.11a.93.93,0,0,0,.54,0s.59.21.51.37c.26-.26.66.08,1.07.09.16-.05-.09-.11-.17-.23l.92.11c.33.17.37.37,0,.31,1.16.33,4.54,1.22,7.94,2.07l4.86,1.2c2.86.67,5.22,1.21,6.45,1.46-.7-.4-2.2-.59-2.81-1.11,1.24.08,1.89.52,2.4.41.67.71,2.82.79,4.14,1.66l.18-.27.78.37.49.08a36.6,36.6,0,0,1,1.3-6c.32-1.5.46-2.65.58-3.6.06-.47.12-.9.19-1.3a4.72,4.72,0,0,1,.25-1c0,.09-.31.52-.28,0,.28,0,0-1.08.36-1.21.05-.39.37-1.62-.09-1.28.23-.17.55-1.26.56-.57a3.89,3.89,0,0,0,.21-1l-.21.45c.24-1.27.67-1.89.53-2.78l-.25.43c.15-.76.27-1.4.69-1.61l-.07.8a16.13,16.13,0,0,0,.47-3.09l-.09.36c-.06-1.4,1.22-8.4,1.05-9.73l-.4.5v-.82l0-.42a.94.94,0,0,0,.33.55c.19.18.36.34.3.39.1-.43.24-1.08.41-1.89.05-.23.11-.48.16-.73s0-.5,0-.77,0-.54,0-.82a2,2,0,0,0-.05-.87,9.8,9.8,0,0,0-2-3.45A17.68,17.68,0,0,0,284.71,52l-.78-.66-.67-.5a38.86,38.86,0,0,0-8.44-4.23c-.86-.46,0-.48,0-.52-1.14-.26-.57.14-1.5-.17-.24-.13.12-.2.28-.2-.42-.09-.78-.3-.85-.18.49.25.17.53.32.81-.4-.13-.78-.27-1.19-.38l.11-.2a3.67,3.67,0,0,1-2,0,26.06,26.06,0,0,0-6.76-.73c0-.14.52-.25,1-.3a7.91,7.91,0,0,1-1.08-.06c.58.2-1,.22-.53.29-.42.15-.87.26-1.35.38s-1,.16-1.45.29a6.78,6.78,0,0,0-2.66,1c0,.12,0,.76.1,1.62a16.09,16.09,0,0,0,.59,3,10.6,10.6,0,0,0,2.15,4s0,0-.06,0a10.23,10.23,0,0,0-.77-.73l-.18-.15-.34-.3-.62-.51-.28-.21-.13-.09h0L260,55.17h0l0,0a1.46,1.46,0,0,0,.09-.16.52.52,0,0,1-.09.21v0h0l-2.47-1.89h0l0,0,.09.06.18.14.42.33c.74.64,1,.81,1.35,1.19l.28.28c.09.1.07.06.07.07h0l0-.06-.18-.25c.16-.25.15.12.39-.07.14.2-.09.43-.13.49s.34,0,.29-.27c.25,0,.13.28.41.26.09-.07.16-.2.27-.3a.63.63,0,0,1,.43-.15v.05c.78.07,1.2-.63,2.12-.42l-.09.09a1.93,1.93,0,0,0,.68.05,2.48,2.48,0,0,1,.92.1c-.18-.07-.33-.27.06-.26a4.38,4.38,0,0,0,1,.18,3,3,0,0,1,.84.26l.59-.15a37.38,37.38,0,0,1,8.14,2.69,14,14,0,0,1,1.95,1.16,3.36,3.36,0,0,1,.34.25l.06,0,.12.1c.21.13.14.32.13.42l0,0v.06l-.09.46q-.11.54-.24,1.14c-.17.79-.35,1.65-.54,2.55-.39,1.8-.81,3.77-1.24,5.75L275,75.31c-.18.91-.35,1.78-.5,2.6l-.21,1.16c0,.07,0,.14,0,.21-.26,0-.24.23-.33.31.1,0,.24.17.22.24-.12.4.05.27.08.64a.39.39,0,0,1-.17,0,2.91,2.91,0,0,1-.85-.1l-4.14-1c-3.61-.9-7.16-1.85-8.49-2.26a10.76,10.76,0,0,1-2.39-.34L257,76.5l-.29,0a.24.24,0,0,0-.11,0l-.16,0,.07-.07a5.06,5.06,0,0,1-1.18-.29c.1-.33.2-.67.28-1s.06-.24.09-.38c.1-.47.17-.85.2-1.1l-.1.23c.11-1.6.45-1.31.83-2.51-.44.08-.38-1.3-.31-1.81l.09,0c.09-.78.11-2.58.32-3.86l.21.1A25.7,25.7,0,0,1,257.6,62a38.38,38.38,0,0,0,1.6-6.68l.93-1.36,0-.23s-7-4-9.19-1.25l-.21-.1-.1.61c-.26.7-.08,1.09-.28,1l.23-1c-.21.72-.22.18-.29-.12a4.13,4.13,0,0,1-.29.82c.06.16.12-.09.19-.19a3.86,3.86,0,0,1-.12,1.45c-.18.74-.36,0-.57.84-1.13,4.56-2.31,9-3.24,13.6-.11.09-.08,0-.09-.18-.1.71-.23,1.37-.35,2l-.42,2.43a3.57,3.57,0,0,1-.56,1.07c.16-.24-.89,5-1.75,9.18l3.37.79C247.32,84.94,247.88,85.08,247.91,85.1Z"/></g></svg>