<svg xmlns="http://www.w3.org/2000/svg" viewBox="0 0 385.51 385.51"><defs><style>.cls-1{fill:#2c2c2c;}</style></defs><g id="os"><path class="cls-1" d="M212.78,112.37s-7,14.2,7.57,26.94c4.09,3.58,12.09,11.37,21.47,20.71,10.78,10.73,23.4,23.53,34,34.37,13,13.29,23.08,23.64,23.08,23.64l28.29,2.58,17.22,6.26,6.09,19.81-4.59,9.43-17.85,8.18s.74,8.24-3.24,15.32c-2.39,4.26-13.16-4.09-13.16-4.09l-19.53-3.39s-9.78,2.42-9.65-5.75c.33-7.32-.1-12.13-1-15.51-1.45-5.24-4.11-7.05-7.06-9.48-2-1.61-16.21-16.13-32.7-33-24.56-25.08-55.18-55.75-55.18-55.75l-20.32-.76L146,139.63l3.17-22.18,19.59-8.66L174,91l15.4-20.27,18.85,22.14Z"/><path class="cls-1" d="M143.78,235.72c3.62,20.82,4.34,20.07,4.34,20.07l16.13,15.47,10.86,15.95-3.24,26.12-12.6,6.4-15.87-4.66-10.26,9.13-17.57,15.54s-10.44-5.67-13.29-9.82c-2.37-3.47-3.22-11.74-3.22-11.74l2.4-20.9s3.22-19.86,4.84-24.61c1.93-5.68,3.39-11.83,2.69-14.3-.34-1.19-1.35-6.65-2.78-14.64-1.34-7.57.41,2.28-1.43-8.39"/><path class="cls-1" d="M91.67,161.06C87.73,138.33,87,135.44,87,135.44L70.75,123.28,61.91,98.82l14.4-13.58,21,4,14.44-11.71L130.4,81l8,11.49-6.88,24.7-4.48,12.24,1.1,17s1.07,3.2,3.67,17.32"/><path class="cls-1" d="M243.57,239.76,226.81,229l-15.18-8.51a77.48,77.48,0,0,0-12.49-1.39c-19.36.39-109.34-3.62-109.34-3.62l-4.32,9.76-10.13,8.21L67,240.27l-14.31-.83-8.93-9-5.39-14.49s.79-16.24,6.43-18.87l-6.69-21.16,4.68-15.1,12.49-9.28,8.33,5,9.74,7.33L81,171.93s10.38,5.11,15.09,4.89c6.28-.3,89.69,6.52,91.55,5.81"/><path class="cls-1" d="M208.09,115.18a28.26,28.26,0,0,0,2.24,9.61A52.38,52.38,0,0,1,208.09,115.18Z"/><path class="cls-1" d="M210.35,124.86l0,0,0-.12Z"/><path class="cls-1" d="M217.76,108.81c-.18-.78-.39-1.66-.6-2.55C217.35,107.11,217.55,108,217.76,108.81Z"/><path class="cls-1" d="M326.15,226.42l.59-.21c7.09,2.58,1.9,1.18,8.49,3.47a20.8,20.8,0,0,1,3.14.89l1,.35.38.14,0,0a.41.41,0,0,1,.13.08v.21q.1.38.21.72a23.89,23.89,0,0,0,.84,2.44c-.06,0,.93,3.23.7,3.07.6.91,1.1,3.34,1.8,5.38.31.72-.08-.58-.16-1.16l.78,2.34.39,1.17.19.58c.05.14,0,.07,0,.1v0a.16.16,0,0,1-.3.09.45.45,0,0,1,0,.08l-.07.1c-.28.56-.58,1.18-.92,1.85l-1.25,2.54c-.11.22-.23.45-.34.69l-.14.28v0l-.05.06-16,7.22L324,261.9c-.56,1-1.11,2-1.7,3l0,1.6c0,.27,0,.54,0,.79l0,.44c0,.44-.07.88-.13,1.32-.1.88-.28,1.75-.46,2.61a23.42,23.42,0,0,1-.73,2.46,10.81,10.81,0,0,1-.47,1.16l-.18.41h0l0,0-.26,0a22.09,22.09,0,0,1-3.9.21c-1.44,0-2.93-.13-4.4-.27-.74-.07-1.47-.16-2.19-.25l-2-.27-12-8-2.56-.36-1.31-.18-.68-.17-.31-.07h-.07a1.15,1.15,0,0,1-.36,0,3.34,3.34,0,0,1-.43-.11.75.75,0,0,0,.41.26,1.08,1.08,0,0,0,.41,0,1.9,1.9,0,0,1,.47.11c.22.05.44.12.64.15l1.19.18c.4.05.83.13,1.27.21l1.21.22,1.26.92.48.38.22.21-.36-.22-.59-.37-1.1-.7-1.31-.2-.61-.1-.52-.06-1.16-.14c-.19,0-.39-.09-.58-.13l-.28-.07-.2-.05h-.28l-.14,0a2.19,2.19,0,0,0-.51,0c-.09-.32-.49-.53-1.16-1.4l-.11-.2c0-.06-.1-.16-.08-.14l0,0a.1.1,0,0,1,0-.09l0,0s0,0,0,0,0-.21,0-.3c.06-.48.13-.9.2-1.27l-.3-1.13c.07-.64.13-1.3.18-2a50.06,50.06,0,0,0-.93-8.53c-.33-1.55-.52-2.11-.59-2.45a6.45,6.45,0,0,1-.09-.73,5.31,5.31,0,0,1,.06-1.09c0-.14.07-.35.1-.54s.14-.69.22-1.06a11.92,11.92,0,0,0,.26-4.54,7.84,7.84,0,0,0-1.18-3.11,12.07,12.07,0,0,0-.93-1.26c-.38-.37-.74-.73-1.12-1.06l-5.7-5.26c-1.53-1.44-2.85-2.71-4.18-4.15.47.49,1.62,1.91.06.45-.07-.45-4.15-3.92-4.68-4.86-1.5-1.47-6.25-6.34-4.89-4.44-.68-1-4.88-5.34-2.24-2.87-1.42-1.47-2.77-2.93-3.87-3.92l1.77,2c-4.88-4.9-7.3-7.81-10.72-10.78l1.7,1.92c-2.93-2.92-5.39-5.37-6.27-6.78l3.07,3c-4.84-4.88-7.77-7.81-11.93-11.74l1.43,1.46c-5.39-4.93-32.44-31.83-37.49-36.28l2,2.4-4.23-3.94c.48.49,2.61,1.33,2.95,1.8l-3.94-4L195,147.76l-.28-.28-.14-.14a1.21,1.21,0,0,0-.19,0h-.81l-1.67,0-4.92,0-19.58.23-16.8-10.17,2.46-17.1,5.38-2.31c4.28-1.72.94.08.91.14,5.09-2.37,2.09-1.25,6.46-3.16,1.22-.48-.15.31-.81.64.95-.43,1.88-.83,2.58-1.13l1.08-.49a3.28,3.28,0,0,0,.67-.36l-.74.3-.32.13-.23.08a3.59,3.59,0,0,1-.52.16,1.26,1.26,0,0,1-.54,0,1.18,1.18,0,0,0-.84-.06l6-2.62.7-2.36.07.56c.16-.56.32-1.22.5-2,0-.2.09-.41.14-.63s0-.27.07-.42.11-.62.18-1a54.84,54.84,0,0,1,1.63-6.29c.63-2.11,1.28-4.25,2-6.49L192,80.4a5.86,5.86,0,0,1-1,1.27,7.86,7.86,0,0,1,1.1-.87c-.29.1,0-.17.26-.46.24.25.49.53.3.23a7.62,7.62,0,0,1,.68.57l.37.36.09.1.14.14.48.54c1.29,1.46,2.59,3,3.87,4.48L202,91.19l1.79,2.06.78.88.36.35c.05.16.11.31.16.45l.19.06a5.72,5.72,0,0,1,.43.43l1.38,1.41,3.93,4.06c2.83,2.9,5.66,5.73,5.94,5.67.46,2,.9,4,1,4.61a60.35,60.35,0,0,0-1.39-6.56l-.39-.29c-1.21-4.79-.08-1.17-1.18-5.86.19-.31,1.24,4,2.14,7.8-.76-3.43-1.37-6.89-2-8.22-.64-3.24.38.29-.41-3.61-.12-.45-.24-.93-.37-1.42-.24-.94-.49-1.92-.74-2.92l-3.21-3.61c-.75-.86-1.49-1.73-2.16-2.6l.07,0c-2.21-2.78-4.08-4.87-5.87-6.84l-1.33-1.47-2.48-2.82c-1.71-2-3.45-4-5.34-6.23l-3.16,2.68,1.14-1.11c-1,.78-2.14,1.79-3.49,3l-4,3.5c-1.61,1.42-3.42,3-5.21,4.47,1-.83,2-1.44-.07.4-1.73,1.42-3.19,2.69-4.54,3.85l-5.11,4.39c-.35,1.11-.69,2.22-1,3.34l-.81,3.64c-.67,2.31-1.67,5.72-2.93,10l-20,8.9c-1.31,9.38-2.71,19.42-4,28.82,9.78,5.89,17.89,10.79,24.63,14.86l20.22-.24,5.42-.06c.11,0,.22,0,.27.06l.38.38-.24-.21,0,0,40.18,40.39c15.32,15.32,30.53,30.93,41,41.17.65.73,1.36,1.5,2.14,2.3l1.19,1.22.63.63.34.32.06.06a.58.58,0,0,1,.23.63,22.2,22.2,0,0,0-.57,4.13c.12-2,.36-2.43.36-2.24s-.1,1.2-.08,2.73a15.05,15.05,0,0,0,.49,3.5l.2.8q.09.34.15.66c.16.84.25,1.45.32,1.88a5,5,0,0,0,.19,1.08,4.52,4.52,0,0,1,.19,1.14,52.4,52.4,0,0,1,.2,6.1c0,.47,0,1,0,1.51s0,.82,0,1.25c0,.22,0,.44,0,.66v.33l.16.3c.43.79.84,1.65,1.34,2.5l.74,1.1c.22.33.52.66.79,1a13,13,0,0,0,4.8,3.56,11.9,11.9,0,0,0,3.34.87c.29,0,.61.06.87.06h.71a1.33,1.33,0,0,0,.28,0,.14.14,0,0,1,.16,0l.15.1,6,4,3.6,2.4,2.67,1.75c.64.13,1.28.23,1.93.34l1.35.2a73.22,73.22,0,0,0,9.83.77,28.8,28.8,0,0,0,5.57-.46,12.47,12.47,0,0,0,3.81-1.39,7.42,7.42,0,0,0,2.81-2.83l.68-1.3c.23-.45.32-.71.46-1,.28-.6.51-1.22.74-1.83a34.25,34.25,0,0,0,1.08-3.69,36.58,36.58,0,0,0,.63-3.67c.09-.6.13-1.21.18-1.81l0-.64a3.68,3.68,0,0,0,0-.47c.08-.11.28-.14.41-.21l16.35-7.37,5.25-10.56.95-2.07c-.69-2.12-1.41-4.33-2.15-6.58l-1.58-5-3.77-12.14L345,222.22l-2.51-.87.8.2-5.56-2-9.33-3.41L314,213.79l-6.4-1.06c-.15,0-.24-.13-.33-.22l-.85-.88L303.84,209c-6.64-6.84-12.38-12.75-14.84-15.2l.88,1c-6.1-5.93-5-5.37-9.64-10.22.33.91-5-4.11-6.95-6.07h.14c-3-2.93-9.93-9.43-14.84-14.32l.35,0c-2.12-2-5.07-4.9-7.86-7.7l-7-6.9c-3.37-3.37-7.57-7.69-12.32-12.19a91.51,91.51,0,0,1-6.71-6.54,42.86,42.86,0,0,1-5.06-7.14,29,29,0,0,1-1.94-6.85c-.09-.32-.21-.64-.28-1l-.4-.37-1-.93a18.63,18.63,0,0,0-2.94-2.23,2.83,2.83,0,0,0-1.57-.52,1.77,1.77,0,0,0-1.54.93c-.91,1.33-1.61,4.16-.56,8.87l-.3-.22c.18.61.41,1.19.63,1.78s.44,1.19.71,1.75c1.73,4.19,3.21,5.71,2.83,5.59-.53-.88-1.06-1.75-1.51-2.68l-.7-1.37-.62-1.42c.87,2.11,1.06,2.38.79,2s-.8-1.47-1.21-2.24c.71,1.77,1.54,3.42,2.23,4.77.54.71-.28-.6-.53-1.27a64.84,64.84,0,0,0,5,7.13c1.41,1.78,1.46,1.83,1.49,2s.14.45,2,2.36c1.24,1.18,2.59,2.47,3.62,3.38s2.22,2.07,3.33,3.13c2.22,2.13,4.43,4.3,6.62,6.48,4.39,4.36,8.77,8.72,13.09,13.17,8.66,8.86,17.37,17.74,26.32,26.74.34.47-.14,0-.69-.51,5.47,5.35,10.17,10.27,15.11,15.18a19.5,19.5,0,0,1,1.89,2.4c-.15-.21,1.18,1.1,3.32,3.27l3.75,3.79,2.18,2.22,1.77,1.8,1.14,1.16.28.29c.09.11.26.07.38.11l.81.13,22.29,3.6h0l.13,0Z"/><path class="cls-1" d="M139.85,235.25a19,19,0,0,0,.34,3.73A16.4,16.4,0,0,0,139.85,235.25Z"/><path class="cls-1" d="M140.19,239v0Z"/><path class="cls-1" d="M97.65,231c.06.35.14.75.22,1.16C97.8,231.8,97.74,231.41,97.65,231Z"/><path class="cls-1" d="M168.29,294.88l.37.26c-.41,3.3-.58.9-.86,4,.42,1.27-.68,5.07-.52,6.16,0,0-.24,1.47-.41,1.35.25.5-.12,1.55-.16,2.5,0,.35.13-.24.25-.48l0,.54,0,.27c0,.09,0,0,0,.07l0,.13c-.1.06-.27,0-.3-.1a.34.34,0,0,0,0,.08l-.15,0h0s0,0,0,0l-.17.09-.74.36-1.58.78-3.49,1.72-1.67.83h-.06l-.05,0-1.87-.57-4.14-1.24-10.72-3.18-5.43,4.84-2,1.86c.74-.35,2.05-1.72,2.83-1.93-1.07,1.23-1.83,1.53-2.22,2.17-.82,0-2.74,2.27-4,2.67l-.15.54-.72.39c-5.12,5-1.12,1.2-5.9,5.33-2.71,2.46-3.72,3.93-5.35,5.16.23-.2,1-.59.3.09-.3-.09-1.76,1.82-2.29,1.92-.32.31-1.11,1-1.57,1.46a.24.24,0,0,0,.11.32c-.19-.07-.46.07-.37-.23a1,1,0,0,0-.2.14.14.14,0,0,0,.12.09c-.06.13-.15,0-.22,0l-.17-.15a.41.41,0,0,0-.19-.11,13,13,0,0,0-1.24-.61l.82.69c-1.48-.89-2.67-1.68-3-2.35.49.3,1,.59,1.49.88-2.33-1.54-3.67-2.55-5.18-3.7l.49.47a9.65,9.65,0,0,1-1-.79,1.81,1.81,0,0,1-.24-.23l-.21-.21a1.63,1.63,0,0,0-.17-.22c-.06-.08-.14-.24-.21-.36a23.15,23.15,0,0,1-1.83-5.51c-.12-.56-.24-1.12-.35-1.67l-.15-.83,0-.22,0-.12v-.11a1.05,1.05,0,0,1,0-.21c0-.29,0-.57.07-.85,0-.56.07-1.1.11-1.61.13-2,.21-3.65.18-4.4l-.43,1.32,0-2.56c0,.3.77,1.33.65,1.57.15-1.36.45-4.14.83-7.63l.62-5.68,0-.19.06-.35.12-.76.24-1.52c.17-1,.35-2.06.52-3.09.7-4.12,1.44-8.22,2.12-11.55a48.83,48.83,0,0,1,1.68-6.7c.82-2,.55-.22.58-.18.7-2.52.07-1.16.74-3.28.22-.57.18.18.12.52a8.1,8.1,0,0,0,.47-1.91c-.42,1.17-.63.56-1,1,.28-.91.53-1.83.78-2.77l.18.18a28.53,28.53,0,0,1,.43-4.62,20.76,20.76,0,0,0,.24-2.39c0-.21,0-.46,0-.69s0-.47,0-.76a10.61,10.61,0,0,0-.29-1.67l-.22-1-.24-1.17-.46-2.4c-.3-1.61-.6-3.22-.86-4.79a6.38,6.38,0,0,1,.63,1.87,15.14,15.14,0,0,1-.3-2c0,1.11-.49-1.83-.44-1-.19-.53-.35-1.1-.5-1.69l-.21-.89-.21-1-.08-.33-.09-.33c-.63-2.09-1-4.32-1.62-6-.26-.06-2.62-1.13-5-2.24a38.35,38.35,0,0,0-5-2.19c-.15-.91-.3-1.82-.3-2.1a12.13,12.13,0,0,0,.41,3l.34.11c.52,2.17-.09.55.34,2.69-.22.16-.67-1.8-1-3.53.25,1.56.37,3.16.77,3.74.2,1.5-.34-.1-.08,1.7A37,37,0,0,1,99.72,242h0c.1.59.22,1.14.35,1.66l.22.77.12.38.06.19,0,.1h0l0,.13.08.3.15.59c.09.39.19.79.29,1.19a20.12,20.12,0,0,1,.45,2.66l-.15-.33c.06,1.15.65,3.31.88,5.37-.06-.59,0-1.13.29.09.11.87.24,1.64.38,2.36s.26,1.33.48,2.27c0,0,0,0-.09.09a1.45,1.45,0,0,1,.12.37,3.42,3.42,0,0,1,.09.53,46,46,0,0,1-1.94,8.42c-.15.48-.31,1-.47,1.46s-.43,1.39-.57,2c-.33,1.28-.61,2.5-.86,3.74-.52,2.47-1,5-1.43,7.5s-.85,5-1.26,7.44c-.19,1.21-.38,2.4-.57,3.55-.1.65-.19,1.29-.29,1.93s-.12,1.12-.18,1.66c-.45,4.28-.83,7.8-1.05,9.84v-.33c-.16,1.56-.35,3.31-.55,5.22q-.17,1.42-.33,3c0,.26,0,.51-.08.77a12,12,0,0,0-.13,1.47l.09.74.08.66c0,.29.09.58.13.88a48,48,0,0,0,1.69,7.47,16.19,16.19,0,0,0,5.36,8.15,53.56,53.56,0,0,0,6.39,4.65l1.66,1c.91.55,1.84,1.09,2.75,1.61l2.72,1.49,1.33.73.17.08.15-.12.28-.24.58-.49c.76-.65,1.51-1.3,2.26-1.93l2.18-2,2.5-2.27,4-3.65c1.66-1.14,3.68-3,5.28-4.33-.93.69-.75.3-.06-.29,4.76-4.19.21-.41,4.93-4.75.8-.75,1.95-1.81,3.35-3.07l3-2.66,15.19,4.56,5.6-2.78,3.55-1.74,7.47-3.66.12-.9c.06-.8.13-1.63.2-2.46s.16-1.63.24-2.46.2-1.94.32-2.91c.24-2,.49-3.9.59-5.63l0,.36c.08-1,.34-3,.68-5.67.41-3.14.9-7,1.4-10.75l-5.76-8.57c-1.42-2.09-2.56-3.76-3.17-4.61l.28.51a19.47,19.47,0,0,1-1.84-2.7c-.15-.3-.29-.59-.46-.92-.09-.17-.19-.35-.29-.56l-.1-.16-.18-.3-.41-.65-.62-.64c0,.1,0,.12-.12.09l-.19-.09-.18-.09a6.94,6.94,0,0,1-.95-.63c-.73-.55-1.58-1.27-2-1.68l.09,0c-1.38-1.23-4.65-3.88-6.89-5.95l.24-.08c-.82-.65-1.86-1.59-2.9-2.56l-2.37-2.27c-.11-.12-.26-.2-.27-.31v0c0-.12,0-.24,0-.37v-.14c0-.06,0,0,0-.22s-.07-.55-.1-.84c-.07-.57-.15-1.17-.22-1.78-.16-1.21-.33-2.49-.51-3.81-.38-2.62-.83-5.35-1.4-7.87V235.1l-.16-.51s-8.51-4.43-8.85,3.12l-.24-.08.28,1.44c.19,1.74.58,2.5.34,2.42l-.38-2.37c.23,1.74-.09.55-.33-.09.11.73.2,1.44.23,2,.15.33.05-.26.05-.54a20.72,20.72,0,0,1,.76,3.33c.28,1.78-.34.18,0,2.25l.69,4.62c.24,1.73.49,3.45.73,5.17l.84,2c.27.63.59,1.31.89,2q4.11,4.05,8.24,8.1l3.82,3.72,3.46,3.31h0l-.07.06,0,0h0l.33.46.68,1,1.31,1.87c.86,1.24,1.7,2.44,2.57,3.64a4.39,4.39,0,0,1,.49,1.29,19.92,19.92,0,0,1,1.57,2.11c.83,1.19,2.79,4,2.3,3.29v.05c0,.28-.07.56-.1.82-.12,1-.23,1.88-.33,2.66C168.45,293.76,168.31,294.81,168.29,294.88Z"/><path class="cls-1" d="M96.26,159.33a15.68,15.68,0,0,0-.31-3.41A13.54,13.54,0,0,0,96.26,159.33Z"/><path class="cls-1" d="M96,155.9v0Z"/><path class="cls-1" d="M138.93,166.18c-.07-.32-.14-.68-.22-1.05C138.77,165.49,138.84,165.84,138.93,166.18Z"/><path class="cls-1" d="M69.75,103.37l-.44-.05c-.51-1.41-.48-1.65-.44-1.86a1,1,0,0,0,0-.44,3.86,3.86,0,0,0-.13-.46s0,0,0,0c-.31,0-.32-.1-.28-.16s.19,0,.09-.14.12,0,.24.11c-.2,0,.14-.37.42-.62a9.63,9.63,0,0,0,.94-.88c.17-.27-.22.09-.46.19L71,97.6c.63-.45.89-.45.31.15l3.53-3.23,2.57-2.36.66-.6h0l0,0,.08,0,2.89.58L87,93.31l12.63,2.4c.8-.94,1.48-1.74,2-2.36a25.55,25.55,0,0,0-2.1,2.14,15.91,15.91,0,0,1-2.91-.82c1.15.13,2,.3,2.78.45A14,14,0,0,0,101,93.21a12.4,12.4,0,0,0,2.66-2.55c.34-.38.4-.44.58-.62s.31-.31.46-.45a3.33,3.33,0,0,1,.89-.63l0-.51.62-.43c4-5,.85-1.2,4.63-5.44,1.07-1.25,1.77-2.25,2.38-3.08.3-.42.58-.8.87-1.16l.21-.26,0,0a.08.08,0,0,1,.06,0s-.2-.06-.19-.2c.1.1.11,0,.13-.09s.07-.22.13-.09l.11-.18c.09,0,.19,0,.11-.32.1.27.33.51.15.58.08.06.12.15.21.11a1.66,1.66,0,0,0-.06-.16l.11.06.44.29,1.28.83a12.09,12.09,0,0,0,2.35,1.25l-.79-.65a9.32,9.32,0,0,1,3,2.18l-1.5-.79c2.33,1.41,3.75,2.25,5.79,3.27l-.69-.43c.28.12.68.32,1.17.58l.39.2.21.11.06,0,.19,0,.11.08.06,0v0l.06.07.13.17,1,1.37,2.24,2.95c.76,1,1.53,2,2.25,3l.27.35.09.1.16.16.33.33a5.75,5.75,0,0,0,0,.58,2.25,2.25,0,0,0,0,.26c0,.23-.07.42-.08.57l.3-.54.19-.19v.23c0,.11-.05.35-.08.53l-.19,1.13c.07-.26-.59-1.31-.44-1.5-.78,2.86-3.56,13-5.87,21.54-1,2.63-1.87,5.1-2.61,7.11-.38,1-.72,1.93-1,2.69L123,128c-.14.35-.27.62-.36.82,0,1.2-.24.48-.37-.05,0-.19.07-.36.06-.37l-.12.36c.08.87.15,1.39.2,1.74a4.31,4.31,0,0,0,.13.61,4.05,4.05,0,0,1,.17,1.28c0,.52-.23-.09-.29-.38.09.82,0,1.6.18,1.65,0-1,.41-.62.61-1.08l.13,2.44-.23-.1a12.31,12.31,0,0,1,.73,3.73c.07,1.3.14,2.64.21,4l.3,4.57.51,1.49c.11.34.21.68.32,1,.21.68.41,1.36.59,2a5.19,5.19,0,0,1-.76-1.55,11.55,11.55,0,0,1,.45,1.75c0-1,.6,1.54.49.8,1.31,2.64,1.72,6.43,2.63,8.86.26.06,2.6,1,4.94,1.89a40.38,40.38,0,0,0,5,1.83c.14.82.29,1.64.29,1.9a10,10,0,0,0-.39-2.7l-.34-.09c-.5-1.95.09-.5-.32-2.41.23-.16.65,1.6,1,3.15-.24-1.41-.35-2.84-.74-3.36-.18-1.34.34.09.1-1.53a26.49,26.49,0,0,1-1-3.87h0c-.5-3.22-1.56-4.72-2.14-7.67l.17.28a14.19,14.19,0,0,0-.53-2c-.13-.39-.26-.81-.4-1.24s-.19-.6-.16-.59h0l-.08,0a.35.35,0,0,1-.14,0s0,0,0,0a2.44,2.44,0,0,0,0-.5c0-.24,0-.48,0-.7,0-.46,0-.88-.07-1.29a18.21,18.21,0,0,1,0-2.33l-.34-1.46c-.07-1-.16-2.38-.27-4.07-.06-.84-.12-1.76-.19-2.73,0-.49-.07-1-.11-1.5l0-.33v-.08c1.22-3.46,2.65-7.47,4-11.37,2.33-8.65,4.51-16.79,5.43-20.2l0,.29,2-7.45L134,77.12,112.52,64.2l-4.45,5.2-1.76,2.08-.94,1.13c-1.36,1.19-2.94,3.1-4.22,4.46.76-.72.66-.33.12.27-3.77,4.28-.13.4-3.83,4.82l-1.79,2.17-2.21-.41-5.35-1L74.85,80.26l-4.34,4-2.3,2.11-3.3,3a40.57,40.57,0,0,1-3,3.09l-2.61,2.47-2.74,2.63c.33.89.67,1.74,1,2.55l-.28-.52c.24.64.6,1.62,1.07,2.87.32.9.72,2,1.17,3.23.68,1.93,1.51,4.29,2.37,6.71s1.73,4.91,2.5,7.11c1,2.74,1.84,5.12,2.41,6.69l1.83,1.34-.7-.59,1.56,1.1.66.48a9.48,9.48,0,0,1,.86.74A19.6,19.6,0,0,0,72.88,131c0-.53,2.42,1,3.32,1.65l-.08.05c.68.47,1.84,1.19,3.09,2L81.14,136l.94.63.81.57-.17.15a3.63,3.63,0,0,1,.63.31c.15,0,.11.22.16.34l.11.54c.26,1.46.51,2.85.65,3.61.57,3.7,1.21,9.43,2.39,14.28l0,3.28.14.45A14,14,0,0,0,91,161.17c2.16.11,4.38-.63,4.58-4.08l.24.07-.27-1.31c-.17-1.59-.55-2.26-.32-2.2l.36,2.16c-.22-1.59.1-.51.33.07-.1-.67-.19-1.31-.22-1.85-.14-.29,0,.25,0,.5a16.22,16.22,0,0,1-.73-3c-.27-1.62.33-.17,0-2.06-.4-2.5-.8-5-1.2-7.44l-.6-3.71-.87-5.17c-.06-.28-.09-.59-.17-.87l-.71-.54L90,130.64,87.81,129l-3-2.26-6-4.5c-.13-.21.09,0,.34.1l-2.58-1.85L76,120l-.3-.22c-.07,0-.07,0-.07,0h0l-.07,0,0,0,0,0-.2-.49a3.39,3.39,0,0,1-.1-1.24c0,.24-1.36-3.33-2.7-7l-1.86-5.11C70.11,104.4,69.76,103.43,69.75,103.37Z"/><path class="cls-1" d="M243.05,228a54.17,54.17,0,0,0-6.05-1.77A44.5,44.5,0,0,0,243.05,228Z"/><path class="cls-1" d="M237,226.18h0l.08,0Z"/><path class="cls-1" d="M199.51,187.56l-1.84-.05C198.31,187.55,198.92,187.56,199.51,187.56Z"/><path class="cls-1" d="M124.28,211.13l-.38.38c-5.59-.22-1.61-.52-6.78-.63-2,.48-8.58-.41-10.38-.19,0,0-2.49-.17-2.32-.34-.79.28-2.61,0-4.21,0-.58.06.42.11.85.22l-3.66,0c-1.42-.16-1.77-.36-.21-.33l-11-.54-5.4,12c-4.85,3.87-10.5,8.4-15.72,12.58l-9.74-.6-5.35-5.35c.77,1.11,3.12,3.26,3.71,4.38-2.06-1.8-2.77-2.9-3.77-3.61a4,4,0,0,0-.73-1.1l-.31-.35-.21-.24a.64.64,0,0,0,0-.07v-.08l-.4-1.22a11.25,11.25,0,0,1-.49-2.08l-.56-.62L46.87,222c-2.24-5.56-2.52-6.19-2.69-6.68-.06-.16,0-.14,0-.15v0s0,0,0,0v0h0a1.23,1.23,0,0,0,0-.2c.08-.71.18-1.64.35-2.83.36-2.78.7-4.75,1.06-6.3a15,15,0,0,1,.6-2,5,5,0,0,1,.73-1.36c-.13.17-.69.82-.3,0,0,0,.08,0,.13-.07s.06-.06.06-.09l-.06-.08c.47-1,1.09-2.51,1.53-3.41.11-.24.22-.43.33-.68s.22-.58.32-.84a8.87,8.87,0,0,1,.51-1.15l.29-.76c-.28-.84-.63-1.93-1-3-.11-.35-.23-.71-.34-1.05s-.2-.56-.29-.81c-.36-1-.63-1.57-.56-.78-.08-.87-1.37-5.19-.41-2.68-.45-1.45-.84-2.88-1.25-3.9l.5,1.9c-.79-2.39-1.33-4.27-1.82-5.93-.25-.83-.5-1.61-.75-2.36l-.18-.5,0-.07a.92.92,0,0,0-.14-.14v0l0,0a1.86,1.86,0,0,0,0,.27l-.1-.27a1.07,1.07,0,0,1,.09-.27c.14-.43.28-.82.41-1.18a9.67,9.67,0,0,1,.87-1.9l-.82,3c.74-2.43,1.33-4.39,1.89-6.24l.78-2.77c.13-.46.26-.93.39-1.42.06-.24.13-.49.2-.73l0-.19v-.1l-.31,1,.13-.54c0-.1.05-.2.08-.31a.54.54,0,0,0,0-.11c0-.08,0-.17,0-.28-.48.28,2.16-1.76,4.12-3.29L54.52,158l.36-.29.09-.08.18-.16.38-.34.5.23.26.12.09.05.27.15.53.3,3.92,2.2,5.13,3.62c1.49,1,2.66,1.84,3.35,2.26l-1.67-1.61,1.64,1.1.82.55.41.27.17.1.12.09a.21.21,0,0,0-.15-.05,1.82,1.82,0,0,1-.35,0l-.66-.16A2.24,2.24,0,0,1,69,166L70.42,167l7.28,7.62L79,176.48l1.63,2.15c1.12,1.44,2.32,2.93,3.63,4.42a48.83,48.83,0,0,0,4.42,4.48c.42.37.87.74,1.36,1.11.24.18.48.36.76.54a12.13,12.13,0,0,0,3.2,1.58,8.76,8.76,0,0,0,2.44.29c3.22,0,6.46.25,9.57.42l8.73.54c5.33.35,9.51.65,11.51.83,3.4.38.58.49.54.53,4.16.17,1.81-.18,5.34.08,1,.12-.21.21-.76.21a21,21,0,0,0,3.11.14c-1.93-.23-1.09-.52-1.89-.81l4.54.34-.22.21a40.79,40.79,0,0,1,7.07,0c7.53.61,15.72,1.09,23.29,1.65a18.08,18.08,0,0,1-3.32.07c1,.07,2.57.14,3.5.3-1.82-.36,3.19.06,1.76-.14,5.59-.17,12.75.79,17.68.72.48-.44,11-7.75,10.93-8.37l2,.08.61,0h-.19l-.23,0h0a.49.49,0,0,0,0,.14v.33c0,.22,0,.43,0,.64a12.26,12.26,0,0,0,1,4,12.13,12.13,0,0,1-1.06-4.77,2.51,2.51,0,0,1,0-.39l.07,0,.16,0,.16,0c.05,0,.14,0,.09,0l-.18,0-1.09-.07c-.9,0-2-.1-2.82-.09l-.29.3c-3.61-.08-.83-.23-4.37-.4-.18-.27,3.11-.13,5.92,0-2.53-.14-5.11-.47-6.18-.25-2.43-.25.29-.3-2.63-.58-2.1-.05-4.86,0-7.26-.27l0,0c-5.83-.63-9-.19-14.31-.81l.58-.05c-1.88-.27-5.62-.32-9-.71,1,.12,1.81.36-.25.25-3.91-.43-6.6-.45-9.46-.84l-2.77.06-21.51-1.41L110.65,182c-4.8-.25-9.49-.56-13.93-.61a.55.55,0,0,1-.18,0,.2.2,0,0,1-.08,0l0,0-.18-.12a15.12,15.12,0,0,1-1.92-1.58,49.34,49.34,0,0,1-3.67-3.93c-1.1-1.3-2.08-2.54-3-3.68l-1.23-1.63-.55-.76-.73-1L78,161l.4.36-1.52-1.59-10.36-7.73c-3.62-2.15-7.53-4.46-11.59-6.85l-16.61,12.4c-1.88,6.12-3.77,12.3-5.6,18.27,1.3,4,2.56,7.94,3.76,11.67Q37.25,190,38,192.3c.25.77.49,1.52.74,2.26l.16.5.07.18c0,.08.06.15.08.22s0,.07,0,.09l-.07,0a.87.87,0,0,0-.26.29A12.45,12.45,0,0,0,38,197c-.22.35-.38.67-.56,1-.32.62-.57,1.2-.79,1.73a27.84,27.84,0,0,0-1,2.85,35.08,35.08,0,0,0-1.58,6.14c-.19,1.07-.35,2.15-.48,3.2q-.09.78-.18,1.53c0,.29,0,.57-.08.84,0,.42-.06.83-.1,1.24.18-2,.28-1.91.32-1.87a2.32,2.32,0,0,1,0,.57c0,.44-.06,1-.09,1.72a3,3,0,0,0,.32,1.63l.48,1.32c.18.48.34.9.47,1.26l.6,1.55a3.39,3.39,0,0,0,.39.85c.12.16.27.33,2.2,5.36.5,1.32,1.13,3,1.89,5l10.86,10.94,17.78,1,20.83-16.71c1-2.28,2-4.4,2.85-6.34q.19-.39.36-.78l.12-.23.21-.42.61.06.23,0,1,.06c5.93-.11,13.3.48,19.11.49l-.59.06c6.23.15,41.46,1.84,48.72,1.91l-1-.08c6.32,0,5.45.35,10.42.62-.64-.42,4.78-.49,6.85-.47l-.08.09c3.12,0,10.19-.16,15.38-.18l-.21.22,3.85-.12,2.19,0c.61,0,1.26,0,1.93,0,2.68.15,5.36.56,6.82.78l1,.17.92.18a1.15,1.15,0,0,1,.36.11,5.53,5.53,0,0,0,.57.35l4.32,2.54,4.67,2.71,5.36,3,4,.92,3.35.73,5.76,2,.88.15s11.31-5.13-.4-9.62l.24-.17-2.39-.54c-2.85-.8-4.23-.87-4-1l3.93,1c-2.87-.76-.83-.39.3-.25-1.2-.31-2.36-.61-3.3-.91-.59,0,.39.19.83.34a56.24,56.24,0,0,1-5.64-1.16.69.69,0,0,1-.18-.06c-.11-.11,0-.17,0-.26s-.33-.36-1.68-1.12l-12.37-7.1-.72-.4a2.58,2.58,0,0,0-.37-.19l-.4-.08-1.57-.29-1.79-.32c-1.19-.2-2.39-.38-3.61-.54s-2.46-.3-3.74-.4c-.64-.05-1.29-.08-2-.1l-1.94,0h-3.35l-3.42-.06-6.89-.16-14-.38c-.43-.11.08-.09.63-.11-5.68-.07-10.72-.28-15.89-.36a10.85,10.85,0,0,1-2.24-.41c.42.11-6.72-.09-14-.35l-10.15-.38C126.32,211.23,124.39,211.14,124.28,211.13Z"/></g></svg>