<svg xmlns="http://www.w3.org/2000/svg" viewBox="0 0 385.51 385.51"><defs><style>.cls-1{fill:#2c2c2c;}.cls-2{fill:#fff;}</style></defs><g id="boulangerie"><path class="cls-1" d="M326.38,233l-59.19-44.41s-41.68-15.78-65.69-19.44-68.51-1-68.51-1L63.26,192.87,30.53,240.71l7.79,31.4L69.23,290.6,131,304l48.8,7.23,48.74,7.65,63,5.64,35-8.43,16.79-27.65Z"/><path class="cls-1" d="M327.06,227.46c-1.74-1.61-5-4.07-8-6.41C321.26,223,323.72,225,327.06,227.46Z"/><path class="cls-1" d="M319,221l-.05,0,.11.08Z"/><path class="cls-1" d="M321.8,237.37c.29.92.61,2,.95,3C322.44,239.38,322.13,238.35,321.8,237.37Z"/><path class="cls-1" d="M144.37,161.76l-.58.42a37,37,0,0,1-5.87,0,7.77,7.77,0,0,0-1.29-.08l-1.51.05-1.12.06-.89,0a8.3,8.3,0,0,0-1.45.15l-2.11.91c-.57.25-1.22.5-1.93.77-1.42.53-3.07,1.1-4.71,1.65-3.27,1.12-6.51,2.18-7.84,2.81.05-.06-3.85,1.3-3.67,1-1.09.71-4,1.49-6.41,2.44-.86.39.68-.15,1.38-.3l-5.59,2.1c-2.24.69-2.84.71-.46-.17L59.51,188c-12.85,18.71-27.23,39.67-35.39,51.56q1.68,6.69,2.62,10.42c-.12-.89-.44-2.29-.77-3.75-.22-.94-.44-1.91-.65-2.82-.32-1.38-.62-2.68-.84-3.79.58-.79,1.08-1.43,1.49-1.93-.46.7-.89,1.37-1.29,2,.43,1.67.8,3.14,1.14,4.45.19.79.35,1.48.5,2.11a25.81,25.81,0,0,0,.79,2.83c-.12,1.78,2.23,9.51,2.51,12.91l.6,1.17.35,2.19c.56,2.09,1,3.78,1.36,5.12.61,2.35,1.07,4.1,1.4,5.37l4.4,2.58,1,.6c.76.48,2.31,1.46,8.09,4.95,8.63,5.11,12.94,7.19,17.65,10.19-.71-.43-2.51-1.73-.24-.46a3.11,3.11,0,0,0,.74.54l2.32,1.36,4,.8a13.52,13.52,0,0,1,2.17.56c2.5.5,10.57,2.29,7.91,1.33,1.34.48,8.54,2.12,4.21,1.34,2.43.54,4.78,1.1,6.54,1.4l-3.1-.77c8.23,1.72,12.65,3,18.07,3.8l-3-.8c4.92,1,9,1.9,10.89,2.68l-5.07-1c8.15,1.75,13.07,2.79,19.9,4.07l-2.42-.53c2.15.49,6.69,1,12.36,1.75L159,312.81l19.14,2.55c5.57.76,10,1.35,12,1.55l-3.67-.86,7,.85c-.82-.13-3.48.38-4.15.18L208.17,320l14.05,2.17,3.79.58,1.93.3,1.95.18,7.94.7,30.93,2.74,23.11,2.12,5-1.17c5.47-1.15,1.08.2,1,.26,6.58-1.69,2.78-1,8.4-2.31,1.55-.32-.26.3-1.12.54,2.46-.62,4.77-1.08,4.92-1.25-3.1.64-1.88,0-3.24.08l7.24-1.71-.27.29a110.33,110.33,0,0,1,11.07-3.17l4.11-1,18.55-30.46c-.49-1.6-.95-3.11-1.4-4.61A38.56,38.56,0,0,1,347.8,289l-1.95,3.34c.59-1,1.3-2.12,2-3.33l-.9-3c-.13-.48-.27-.94-.4-1.37-.06-.27-.13-.52-.19-.74.66,2.92-1.67-4.93-1.08-2.66-3.17-8.52-6.14-19.89-8.84-27.44-.67-.53-13-13.94-13.58-13.77-.72-2.38-1.44-4.75-1.61-5.49.05.65,1.42,5.34,2.26,7.8l.43.34c1.85,5.68.23,1.39,2,7-.15.37-1.78-4.75-3.18-9.26,1.21,4.08,2.28,8.18,3.05,9.76,1.07,3.86-.42-.33.88,4.31,1.08,3.26,2.64,7.49,3.65,11.31l-.06-.06c1.28,4.63,2.44,8.1,3.58,11.48l1.69,5.13c.28.88.56,1.8.85,2.75l.43,1.46.21.76.06.2s0,0,0,0v0H337l0-.11-.09-.22a2.81,2.81,0,0,1,.08.31c0,.06,0,0,0,0v0s0,0,0,0l0,0c-.47.79-1,1.61-1.47,2.45-1,1.72-2.15,3.53-3.27,5.25.88-1.33,1.75-2.42,0,.47-3.47,5.4-5.6,9.23-8.21,13.14l-1.06,2a.78.78,0,0,1,0,.19h0l-31.85,7.7-52-4.48-6.8-.59c-1.12-.1-2.23-.17-3.32-.3l-3.23-.5-12-1.85-17.64-2.71.87.09c-15.43-2.45-38.37-5.72-61.89-9.17-2.95-.35-5.85-1.06-8.77-1.67l-8.7-1.87-17-3.63-29.48-6.23-8.53-5c-4.57-3-11.08-6.84-15.94-9.82,2.67,1.71,1.65,1.3-.47,0-1.28-.77-2.35-1.4-3.2-1.92l-.39-.22c0-.15-.08-.26-.1-.33l0-.1s0,0,0-.05l0-.14c-.11-.34-.13-.34-.22-.58-.18-.49-.6-1.95-2.38-9-1-3.76-2.48-9.8-4.37-17.23L66.21,196.7l34.42-12c9-3.57,20.43-7.35,29.27-10.73l-.87.4,4.87-1.76,3.56-.19,4.91-.2c6.95-.26,15.4-.45,23.88-.42s17,.29,24,.83c3.51.27,6.65.59,9.23,1,1.3.14,2.45.37,3.47.54l2.58.44c-.5-.13-1-.22-1.49-.32a68.59,68.59,0,0,1,8.86,1.92c1.84.52,3.4,1.06,7.24,2.14-.91-.69,7.54,1.45,10.74,2.41l-.15,0c4.84,1.36,15.81,4.53,23.69,7.27l-.38.1c1.66.51,3.66,1.19,5.82,1.93l3.3,1.18,1.68.61.39.14a1.51,1.51,0,0,1,.26.18l9.42,7.07c9.13,7,23.07,17.91,35.53,26.89l7.56,6.46,1.2.83s17.36,3.48,2.11-10h.39l-3.22-2.38c-3.79-3-5.72-4.11-5.33-4.09l5.26,4c-3.83-2.95-1.06-1,.49,0-1.6-1.23-3.15-2.43-4.39-3.45-.82-.5.5.5,1.07,1C313.48,217,310.45,215,308,213c-3.94-3,0-.48-4.64-4l-18.08-13.74-9-6.83-4.49-3.41-1.64-1.24-.27-.2-.32-.12-.63-.24-1-.36-2.67-1c-14.24-5.24-28.62-10.12-43.76-14.18-.67-.27.15-.05,1,.14-2.3-.57-4.51-1.17-6.73-1.67l-3.28-.78-3.27-.68c-2.14-.48-4.36-.81-6.53-1.19s-4.39-.59-6.56-.78a30.17,30.17,0,0,1-3.77-.68c.35.07-2.46-.11-6.88-.33s-10.4-.36-16.44-.39-12.13.07-16.76.17Z"/><polyline class="cls-1" points="118.01 162.93 139.87 176.59 152.88 194.24 153.57 219.21"/><path class="cls-2" d="M115.68,167.16c.06.32.37.55.66.78A1.27,1.27,0,0,0,115.68,167.16Z"/><polygon class="cls-2" points="116.35 167.95 116.35 167.95 116.34 167.94 116.35 167.95"/><path class="cls-2" d="M159.22,218.78c0-.09,0-.2,0-.3A1.51,1.51,0,0,0,159.22,218.78Z"/><path class="cls-2" d="M131,178l.26-.31c.74.46,0,.52.71.87.56-.32,1.1.76,1.49.65,0,0,.3.26.19.39.26-.19.38.16.63.22s0-.11,0-.22l.54.2c.14.21.09.39-.13.29l.81.58.29.2c.09.06,0,0,.05.05v.1l.58.86,1.29,1.84c.83,1.18,1.57,2.19,1.95,2.61.06-.3-.35-.61-.17-1,.41.22.31.54.59.56-.34.46.45.83.2,1.41l.32-.08,0,.28c1.37,1.31.38.25,1.3,1.62.61.74,1.22.86,1.41,1.38,0-.07,0-.35.19-.2-.19.2.55.42.4.68.17.17.61.83.75.39-.07.22.29.83-.09.59.13.19.22.41.39.5l-.1-.31c.52.61.55,1.13,1.13,1.35l-.06-.32c.3.37.56.68.38,1l-.38-.33a6.05,6.05,0,0,0,1.32,1.42l-.13-.19a2.36,2.36,0,0,1,.35.26l.23.21.11.09h0a2.06,2.06,0,0,1,.42.16l.15.21.08.11c0,.07.05,0,.08.21a5,5,0,0,0,.37,1.26l.28-.36.25.66c0-.08-.92-.3-.83-.37.06,1.43.49,8.85.33,10.17-.14.54-.44.11-.49.1.13.65.31.27.3.82,0,.16-.22,0-.26-.1,0,.24-.06.46.08.48.09-.31.45-.19.67-.32v.71l-.22,0c0,.16.61.38.52,1.08-.07,1.18.05,2.45,0,3.63-.14,0-.22-.26-.31-.51a1.14,1.14,0,0,1,0,.55c.23-.29.17.49.26.27.57.84.1,2,.49,2.73.49.05,8.42,1.4,9,1.38a1.8,1.8,0,0,1-.05.55c.13-.07.18-.53.1-.78l-.31,0c-.13-.57.18-.14.14-.7.26,0,.32.48.36.93,0-.41.19-.82-.09-1,.1-.38.31,0,.41-.42-.09-.33-.35-.75-.21-1.13h.05c.23-.92-.43-1.38-.19-2.22l.09.08c.14-.29-.08-.87.06-1.41,0,.16-.22.29-.26,0,.14-.62,0-1,.15-1.49l-.26-.42c0-2.13-.59-10.53-.69-12.66l0,.08c0-.5-.06-1.08-.1-1.72,0-1.14-.09-2.4-.14-3.72-.81-1.07-1.66-2.19-2.51-3.33l-1.58-2c-1-1.32-2-2.53-2.82-3.4a6.23,6.23,0,0,0-.85-1.59c.09.3-.11.32-.24.13-1-1.35-.2,0-1.28-1.28a35.68,35.68,0,0,1-2.35-3.06c-.48-.67-1-1.39-1.47-2.09l-1.87-2.69-1-.7-.8-.54c-.3-.22-.55-.41-.72-.55-1-.18-1.8-1-2.69-1.3l.13,0c-.9-.4-5.36-3.58-6.38-4.07l.1.12c-.95-.33-.63-.59-1.22-1.11-.13.4-1,.15-1.25,0l.05-.07c-.44-.2-1.56-.48-2.26-.86l.14-.17a9.73,9.73,0,0,1-2.12-1.13,14.78,14.78,0,0,0-3.5-2.41l-.46-1-.15,0s-5.34,5.67-4.56,8.07l-.15.17.34.18c.33.34.65.23.51.4l-.52-.35c.35.29,0,.22-.2.24a1.57,1.57,0,0,1,.39.38c.13,0,0-.12,0-.2.25.07.65.08.86.32.39.27-.17.32.29.63,2.37,1.69,4.61,3.4,7.13,4.91,0,.11-.06.07-.15.06.8.38,1.44.83,2.18,1.17a.75.75,0,0,1,.12.47,8.13,8.13,0,0,1,1.94,1l1.34.83C130.78,177.77,131,177.93,131,178Z"/><polyline class="cls-1" points="191.89 160.78 213.74 174.44 226.75 192.09 227.45 217.06"/><path class="cls-2" d="M189.55,165c.06.32.38.55.67.78A1.32,1.32,0,0,0,189.55,165Z"/><polygon class="cls-2" points="190.22 165.8 190.23 165.8 190.22 165.79 190.22 165.8"/><path class="cls-2" d="M233.1,216.63c0-.09,0-.2,0-.3A.76.76,0,0,0,233.1,216.63Z"/><path class="cls-2" d="M204.92,175.8l.26-.31c.74.46,0,.52.7.87.57-.32,1.11.75,1.5.65,0,0,.3.26.18.39.27-.19.38.16.64.22s0-.11,0-.22l.54.2c.14.21.09.39-.14.29l.82.58.28.2c.1.06,0,0,0,.05v.1l.58.86,1.29,1.84c.83,1.18,1.57,2.19,2,2.61.06-.3-.36-.61-.18-1,.42.22.32.54.6.56-.34.46.45.83.2,1.41l.32-.08,0,.28c1.36,1.31.38.25,1.3,1.62.6.74,1.22.86,1.41,1.38,0-.07,0-.35.19-.2-.19.2.54.42.4.68.17.17.61.83.75.39-.07.22.28.83-.09.59.13.19.22.41.39.5l-.1-.31c.52.61.54,1.13,1.12,1.35l-.06-.32c.31.37.57.68.38,1l-.38-.33a6.08,6.08,0,0,0,1.33,1.42L221,193a2.36,2.36,0,0,1,.35.26l.22.21.11.09h0a2.25,2.25,0,0,1,.41.16l.15.21.08.11c0,.07,0,0,.09.21a4.62,4.62,0,0,0,.37,1.26l.27-.36.26.66c0-.08-.93-.3-.84-.37.07,1.43.5,8.85.34,10.17-.14.53-.45.11-.49.1.12.65.31.27.3.82,0,.16-.22,0-.27-.1,0,.24-.05.46.08.48.1-.31.45-.19.68-.32v.7l-.23,0c0,.16.62.38.52,1.08-.06,1.18.05,2.45,0,3.63-.13,0-.22-.26-.3-.51a1.14,1.14,0,0,1,0,.55c.22-.29.17.49.26.27.56.84.1,2,.49,2.73.49.05,8.42,1.4,9,1.38a1.72,1.72,0,0,1-.06.55c.14-.07.19-.53.11-.78l-.32,0c-.12-.57.18-.14.15-.7.25,0,.32.48.36.93,0-.41.19-.82-.09-1,.09-.38.31,0,.4-.42-.08-.33-.34-.75-.2-1.13h0c.24-.92-.42-1.38-.18-2.22l.08.08c.14-.29-.07-.87.07-1.41,0,.16-.23.29-.27,0,.15-.62,0-1,.16-1.49l-.26-.42c0-2.13-.6-10.53-.7-12.66l0,.08c0-.5-.06-1.08-.09-1.72-.05-1.14-.09-2.4-.15-3.72L229.42,187l-1.58-2c-1-1.32-2-2.53-2.82-3.4a5.94,5.94,0,0,0-.85-1.59c.1.3-.1.32-.23.13-1-1.35-.21,0-1.28-1.28a37.45,37.45,0,0,1-2.36-3.06c-.47-.67-1-1.39-1.46-2.09-.67-1-1.31-1.88-1.87-2.69l-1-.7-.79-.54c-.31-.22-.55-.41-.72-.55-1-.18-1.8-1-2.69-1.31l.12,0c-.89-.4-5.36-3.58-6.38-4.07l.1.12c-.95-.33-.63-.59-1.22-1.11-.12.4-1,.15-1.25,0l.06-.07c-.44-.2-1.56-.48-2.27-.86l.15-.17a9.73,9.73,0,0,1-2.12-1.13,15,15,0,0,0-3.5-2.41l-.47-1-.15,0s-5.33,5.67-4.56,8.07l-.14.17.34.18c.33.34.65.23.5.4l-.52-.35c.36.29,0,.22-.19.24a1.77,1.77,0,0,1,.39.38c.12,0,0-.12,0-.2.25.07.65.08.85.32.39.27-.16.32.29.63,2.37,1.69,4.62,3.4,7.13,4.91,0,.11,0,.07-.15.06.8.38,1.45.83,2.18,1.17a.78.78,0,0,1,.13.47,8,8,0,0,1,1.93,1l1.35.83C204.66,175.62,204.91,175.78,204.92,175.8Z"/><polyline class="cls-1" points="256.24 177.48 278.09 191.14 291.1 208.79 291.8 233.76"/><path class="cls-2" d="M253.9,181.71c.06.33.38.55.67.78A1.32,1.32,0,0,0,253.9,181.71Z"/><polygon class="cls-2" points="254.57 182.5 254.58 182.5 254.57 182.49 254.57 182.5"/><path class="cls-2" d="M297.45,233.33a2.83,2.83,0,0,1,0-.3A.76.76,0,0,0,297.45,233.33Z"/><path class="cls-2" d="M269.27,192.5l.26-.31c.74.46,0,.53.7.87.57-.31,1.11.76,1.5.65,0,0,.3.26.18.39.27-.19.38.16.64.22s0-.11,0-.22l.54.21c.14.2.09.38-.14.28l.82.58.28.2c.1.06,0,0,.05,0v.1l.58.86,1.28,1.85c.84,1.18,1.58,2.18,2,2.6.06-.3-.36-.6-.18-1,.42.22.32.54.6.56-.34.46.45.83.2,1.41l.31-.08,0,.28c1.36,1.31.38.25,1.3,1.62.6.74,1.22.86,1.41,1.38,0-.07,0-.35.19-.2-.19.2.54.42.4.68.17.17.61.83.75.39-.07.22.28.83-.09.59.13.19.22.41.39.5l-.1-.31c.52.62.54,1.14,1.12,1.36l-.06-.33c.31.37.57.68.38,1l-.38-.32a6.23,6.23,0,0,0,1.33,1.41l-.13-.19a2,2,0,0,1,.35.27l.22.2s.1.1.11.09h.05a2.25,2.25,0,0,1,.41.16l.15.21.08.11c0,.07.05,0,.09.21a4.62,4.62,0,0,0,.37,1.26l.27-.36.26.66c0-.08-.93-.3-.84-.37.07,1.43.49,8.85.34,10.17-.14.54-.45.11-.49.1.12.65.31.27.3.83-.05.15-.23,0-.27-.11,0,.24-.05.46.08.48.1-.31.45-.19.68-.32V224l-.23,0c0,.16.62.38.52,1.08-.06,1.18.05,2.45,0,3.63-.13,0-.22-.26-.3-.51a1.14,1.14,0,0,1-.05.55c.22-.29.17.49.26.27.56.85.1,2,.49,2.73.49,0,8.42,1.4,9,1.38a1.68,1.68,0,0,1-.06.55c.14-.07.19-.53.11-.78l-.32,0c-.12-.57.18-.14.15-.7.25,0,.32.48.36.93,0-.41.19-.82-.09-1,.09-.38.31,0,.4-.42-.08-.33-.34-.75-.2-1.13h0c.24-.92-.42-1.39-.18-2.23l.08.09c.14-.3-.07-.88.07-1.41-.05.15-.23.29-.27,0,.15-.62,0-1,.16-1.48l-.26-.43c0-2.13-.6-10.52-.7-12.66l0,.08c0-.5-.06-1.08-.09-1.72-.05-1.14-.1-2.39-.15-3.72-.8-1.07-1.65-2.19-2.51-3.32l-1.58-2c-1-1.33-2-2.54-2.82-3.41a5.94,5.94,0,0,0-.85-1.59c.1.3-.1.32-.23.13-1-1.35-.21,0-1.29-1.28-.49-.53-1.38-1.71-2.35-3.05l-1.46-2.09-1.87-2.7-1-.7-.79-.54c-.31-.22-.55-.41-.72-.55-1-.18-1.8-1-2.69-1.3l.12,0c-.89-.4-5.36-3.58-6.38-4.07l.1.12c-.95-.33-.63-.59-1.22-1.1-.12.39-1,.14-1.25,0l.06-.07c-.45-.2-1.56-.48-2.27-.86l.15-.17a9.73,9.73,0,0,1-2.12-1.13,15,15,0,0,0-3.5-2.41l-.47-1-.15,0s-5.33,5.66-4.56,8.06l-.14.17.34.18c.33.34.65.23.5.4l-.52-.35c.36.3,0,.22-.19.24a1.77,1.77,0,0,1,.39.38c.12,0,0-.12,0-.19.25.06.65.07.85.31.39.27-.16.32.29.64,2.37,1.68,4.62,3.39,7.13,4.9,0,.11-.05.07-.15.06.8.39,1.45.83,2.18,1.17a.78.78,0,0,1,.13.47,7.81,7.81,0,0,1,1.93,1l1.35.82C269,192.32,269.26,192.48,269.27,192.5Z"/><polyline class="cls-2" points="153.95 65.55 145.43 69.48 137.3 76.44 133.55 87.32 135.37 94.65 143.86 105.45 150.09 113.97 151.68 125.26 148.68 133.81 140.84 140.09 135.91 149.45"/><path class="cls-1" d="M151.59,61.33a2.9,2.9,0,0,0-1.41.31A2.49,2.49,0,0,0,151.59,61.33Z"/><polygon class="cls-1" points="150.17 61.64 150.16 61.65 150.18 61.64 150.17 61.64"/><path class="cls-1" d="M141.1,151.74c.06-.11.13-.25.19-.39A3.49,3.49,0,0,0,141.1,151.74Z"/><path class="cls-1" d="M129.42,81.4l.35.21c-.4,1.18-.55.19-.83,1.32a.75.75,0,0,1,.06.54,2,2,0,0,1-.1.32c-.08.19-.15.39-.23.6a7.29,7.29,0,0,0-.7,2.08s-.15.32-.29.59c0,.21,0,.39-.07.36.4.33.35,1.1.59,1.77.15.23.05-.19.1-.38l.48,1.49c0,.37-.17.47-.28.14l.45,2.2c.11.5.23,1,.35,1.61.23,1,.46,2,.7,3l4,5.2c1,1.28,1.82,2.33,2.27,2.83,0-.37-.56-.83-.43-1.26.53.35.49.74.82.82-.28.51.72,1.12.57,1.81l.35,0,0,.35c1.9,1.9.51.38,1.89,2.29.84,1.07,1.56,1.34,1.88,2-.06-.09-.09-.44.18-.21-.18.21.71.65.6,1,.23.26.86,1.18.93.66,0,.26.5,1.11,0,.73a3.13,3.13,0,0,0,.54.72l-.17-.41c.72.89.85,1.56,1.56,2l-.13-.43.29.39c.07.09,0,.06.05.1s-.06.12-.22.22a.28.28,0,0,0-.13,0,.24.24,0,0,0,.09.08c0,.06.09,0,.23.18,0-.11,0-.06,0-.09a.13.13,0,0,1,.08,0c0,.11.07.23.12.37l.27,1c.19.77.41,1.68.63,2.6a26.64,26.64,0,0,0,1.19,4.16l.21-.55.19.46a.47.47,0,0,0,.08.15l.07.09c0-.06-.93,0-.86-.22,0,.08,0,.18,0,.31s0,.17.05.27l-.07.25,0,.13-.15.47-.74,2.2c-.39,1.14-.8,2.35-1.15,3.41,0,0-1.77,1.39-2.17,1.63-.69.36-.38-.26-.41-.3-.66.66-.12.48-.75,1-.2.09-.11-.2,0-.31-.25.24-.56.37-.5.49.4-.19.48.2.77.26l-.82.61-.1-.2c-.18.14-.07.83-.93,1.37l-.42.31-.51.38-1.4,1.12c-.37.68-.73,1.38-1.09,2.07L136,141c-.1-.09,0-.44.09-.79a2.09,2.09,0,0,1-.43.66c.4-.25-.19.71.05.47-.1,1.35-1.29,2.54-1.48,3.68.39.32,6.32,6,6.83,6.26a3.23,3.23,0,0,1-.43.66c.17,0,.54-.58.63-.93l-.24-.2c.28-.77.25-.08.6-.8.25.08-.05.76-.33,1.34.3-.5.74-.93.6-1.27.35-.43.25.2.65-.33a3.81,3.81,0,0,1,.61-1.52l0,0c.85-1,.6-2,1.39-2.9v.15a2.79,2.79,0,0,0,.46-.76c.08-.16.16-.33.25-.49l.16-.25c0-.06,0-.07,0,0h0c-.05,0-.22-.1-.23-.14s.08,0,.09,0,0,0,.11.06,0-.14.08-.23l.17-.29c.56-.44,1.48-1.19,2.6-2.12l5-4.14c.45-1.35.91-2.71,1.35-4,.27-.84.54-1.66.78-2.42l.68-2.09c.37-1.1.69-2,.94-2.77-.16-1.07-.2-1.39-.24-1.67l.07.22c-.47-3-1.21-7.79-1.92-12.38l-2.22-3-1.4-1.82c-.9-1.15-1.74-2.2-2.44-3a11,11,0,0,0-1.34-2.23c.19.4,0,.39-.24.11-1.46-1.9-.24,0-1.82-1.86-.6-.65-1.65-1.94-2.84-3.48l-1.86-2.42c-.32-.42-.63-.84-.95-1.25s-.15-.22-.21-.3l-.09-.15,0-.2v-.1c0-.13-.05-.26-.08-.39-.11-.52-.21-1-.31-1.46-.18-.9-.32-1.62-.39-2.07-.08-.14-.18-.36-.23-.46a.31.31,0,0,1-.09-.11.82.82,0,0,1-.1-.26,1.55,1.55,0,0,0,.06-.23.37.37,0,0,0,0-.11v-.07l0-.21,0,.15c.14-.57.72-2.2,1.39-4l1.43-3.87a.82.82,0,0,0,.19-.2h-.08c-.05-.1.41-.45.63-.52a4.07,4.07,0,0,0,1-.47c-.38-.22.39-1.18.72-1.5l.05.08c.48-.5,1.45-1.8,2.28-2.58l.11.19a11.35,11.35,0,0,1,1.36-1.37l.18-.08.21-.1a30.79,30.79,0,0,0,5.62-2.39h1.5l.16-.14S154,62.26,150.82,62l-.06-.22-.48.25c-.65.18-.82.54-.87.32l.83-.35c-.62.22-.25-.08-.08-.3a4,4,0,0,1-.74.21c-.08.13.13,0,.24,0a3,3,0,0,1-1.09.71c-.63.27-.19-.31-.92,0l-2.27.93c-.82.34-1.23.48-3,1.24l-1.32,1.08-.74.58-1.46,1.18c-1,.79-1.94,1.6-2.9,2.45-.13,0,0-.08,0-.19-.42.42-.81.77-1.25,1.17-.8.7-1.58,1.38-2.33,2.08l-.15.49a2.14,2.14,0,0,1-.61.77,9.22,9.22,0,0,1-.48,1.73c-.17.56-.42,1.33-.67,2.11s-.53,1.56-.73,2.15S129.44,81.38,129.42,81.4Z"/><polyline class="cls-2" points="204.06 40.37 193.12 45.49 182.68 54.54 177.84 68.67 180.16 78.17 191.03 92.18 198.99 103.23 201.01 117.87 197.13 128.98 187.07 137.15 180.72 149.31"/><path class="cls-1" d="M201.57,36.2a4.74,4.74,0,0,0-1.77.5A3.85,3.85,0,0,0,201.57,36.2Z"/><polygon class="cls-1" points="199.78 36.7 199.77 36.71 199.8 36.7 199.78 36.7"/><path class="cls-1" d="M186,151.48l.24-.51A3.91,3.91,0,0,0,186,151.48Z"/><path class="cls-1" d="M174.09,61.6l.35.23c-.52,1.54-.59.3-1,1.75a2.13,2.13,0,0,1-.29,1.51l0,.11-.08.2c-.06.14-.11.28-.16.41l-.29.76a4,4,0,0,0-.29,1.12,6.7,6.7,0,0,0-.33.72c0,.29.05.56,0,.52.42.42.42,1.42.72,2.29.16.3,0-.25.06-.5l.29,1,.18.5c0,.42-.15.57-.29.14l.61,2.83.45,2.08c.26,1.13.54,2.32.82,3.54,1.63,2.17,3.38,4.48,4.88,6.46,1.27,1.66,2.34,3,2.91,3.69,0-.44-.73-1.07-.66-1.56.65.49.65,1,1,1.09-.25.57,1,1.44.87,2.24h.39l.09.42c2.35,2.54.62.52,2.4,3,1.07,1.4,1.9,1.83,2.35,2.72-.08-.12-.16-.55.17-.22-.17.22.87.87.78,1.21.29.34,1.11,1.54,1.12.93,0,.3.69,1.4.11.87a5.1,5.1,0,0,0,.7.94l-.24-.51c.9,1.16,1.14,2,2,2.57l-.2-.53c.14.17.26.34.38.5l.17.24.07.11s0,0,0,0-.05.14-.2.24h-.15a.55.55,0,0,0,.11.1.28.28,0,0,0,.07.09s0,0,.08.11.1.34.15.53l-.05-.44c.57,1.5,2,9.56,2.64,10.93l.19-.7c.13.38.28.85.4,1.15,0,0-1-.44-.91-.55,0,.17.06.4.1.68,0,.09,0,.21.07.34l-.1.32-.36,1.08c-.3.89-.62,1.86-1,2.85-.54,1.61-1.12,3.3-1.62,4.78L192,127.67c-.69.54-1.23,1-1.55,1.17-.87.51-.42-.23-.44-.27-.87.84-.22.56-1,1.18-.25.14-.09-.21,0-.34-.32.31-.71.5-.65.62.5-.27.54.15.86.18l-1,.81-.09-.21c-.23.18-.2.94-1.28,1.66l-1.08.83L184,134.67l-1.29,2.48-.94,1.75c-.1-.09,0-.54.19-1a3.82,3.82,0,0,1-.53.87c.45-.37-.29.88,0,.56-.26,1.68-1.67,3.29-2,4.72.38.34,6,6.57,6.54,6.84a5.6,5.6,0,0,1-.54.87,2.78,2.78,0,0,0,.78-1.22l-.24-.22c.4-1,.28-.13.74-1.06.25.07-.14.94-.51,1.69.38-.65.89-1.23.79-1.63.42-.58.23.21.73-.49a6.2,6.2,0,0,1,.82-1.95l0,0c1-1.38.86-2.48,1.81-3.74v.19c.38-.42.71-1.47,1.31-2.27-.18.23-.46.36-.21-.18.12-.09.1,0,.12-.06h.07s0,0,.05,0l.16-.08.46-.7c.72-.57,1.91-1.55,3.36-2.75l6.1-5.08c1.82-5.49,3.74-11.25,4.6-13.86-.18-1.32-.24-1.72-.29-2.06l.08.29c-.56-3.76-1.44-9.69-2.29-15.39l-2.59-3.52-1.77-2.35c-1.14-1.49-2.18-2.84-3.06-3.94a17.22,17.22,0,0,0-1.77-2.84c.27.51,0,.46-.25.1-1.88-2.46-.27-.06-2.27-2.47-.75-.86-2.09-2.54-3.62-4.53l-2.4-3.14c-.74-1-1.92-2.54-1.79-2.43a2.34,2.34,0,0,1,0-.26c-.07-.31-.13-.62-.2-.91-.14-.67-.28-1.31-.4-1.88-.24-1.16-.43-2.09-.53-2.67-.1-.21-.19-.43-.28-.66s-.19-.56-.19-.53a1.31,1.31,0,0,1-.12-.33,11.31,11.31,0,0,0,.29-1.17l0,.18c.19-.73.95-2.87,1.8-5.23.69-1.93,1.46-4.06,2-5.41a1.57,1.57,0,0,0,.23-.24h-.08l0-.07a.78.78,0,0,1,.16-.17,4.09,4.09,0,0,1,.33-.3,2.84,2.84,0,0,1,.52-.34,6.25,6.25,0,0,0,1.21-.68c-.41-.18.62-1.38,1-1.8l0,.09c.64-.64,2-2.24,3-3.26l.1.21a12.11,12.11,0,0,1,1.08-1.13l.64-.58.22-.19.6-.28a52.82,52.82,0,0,0,7.23-3.17l1.86-.18.21-.16s-.67-8.12-4.62-8.06l0-.23-.63.33c-.82.26-1.07.66-1.11.43l1.07-.47c-.8.31-.31,0-.07-.3a6.42,6.42,0,0,1-.94.31c-.12.15.15,0,.29,0a4.72,4.72,0,0,1-1.43.87c-.8.35-.2-.3-1.14.11l-2.89,1.24-1.44.61-.77.33-1.37.61-4.35,3.6Q183.86,46,182,47.62c-.15,0,0-.09.05-.22-.53.52-1.06,1-1.57,1.46l-2.66,2.39-.24.77a3.86,3.86,0,0,1-.71,1.07c0-.05,0,.16-.13.56s-.19.64-.33,1.12c-.24.73-.56,1.72-.88,2.73l-.94,2.78C174.3,61.05,174.11,61.58,174.09,61.6Z"/><polyline class="cls-2" points="250.16 93.12 243.79 96.18 237.7 101.56 234.86 109.96 236.19 115.59 242.49 123.89 247.1 130.42 248.25 139.11 245.97 145.7 240.1 150.57 236.39 157.79"/><path class="cls-1" d="M247.82,88.89a1.78,1.78,0,0,0-1.1.19A1.51,1.51,0,0,0,247.82,88.89Z"/><path class="cls-1" d="M246.71,89.08h0Z"/><path class="cls-1" d="M241.56,160.12c.05-.09.09-.2.14-.3A1,1,0,0,0,241.56,160.12Z"/><path class="cls-1" d="M230.36,105.06l.36.18c-.3.91-.52.12-.71,1a.54.54,0,0,1,.1.2.53.53,0,0,1,0,.13,1.6,1.6,0,0,1-.05.21,6.73,6.73,0,0,1-.33,1,4.48,4.48,0,0,0-.52,1.59,2.56,2.56,0,0,0-.2.37c0,.2,0,.39-.09.36.38.26.27.84.48,1.36.13.18.06-.15.12-.29l.38,1.14c0,.46-.14.62-.29.13,0,.16.07.35.11.57a3.25,3.25,0,0,1,.07.38c.06.29.12.63.19,1s.16.79.24,1.23c.18.82.37,1.69.56,2.58l3.11,4.26c.73,1,1.35,1.8,1.7,2.18.05-.32-.4-.65-.23-1,.44.24.35.58.64.61-.32.47.51.89.28,1.49l.33-.08,0,.29c1.48,1.43.42.27,1.42,1.76.64.82,1.27,1,1.47,1.53-.05-.07,0-.37.19-.19-.19.19.57.47.43.73.18.2.64.91.77.46-.06.23.31.89-.08.62.14.21.24.45.41.55l-.1-.33a8.38,8.38,0,0,1,.57.9,1.48,1.48,0,0,0,.25.35c.06,0,.08,0,.17,0a1.25,1.25,0,0,0,.09-.12c.06.05.14.11-.18.28h-.14a.18.18,0,0,0,.07.05s.08.06.22.11v0l.07,0s.05,0,.09.12.15.47.23.76l.53,2c.18.69.36,1.39.54,2,.08.28.17.53.25.74l.06.15a.09.09,0,0,0,0,0l.09.06c.08-.07.18-.07.26-.21a2.17,2.17,0,0,0,.28.31c0-.05-.94-.09-.85-.1s0,.17.07.32l-.12.45c-.18.53-.36,1.1-.55,1.7-.27.8-.55,1.66-.79,2.4l-.23.19-.29.23c-.41.32-.73.56-.93.69-.55.25-.37-.28-.39-.32-.48.53-.05.42-.53.79-.16.07-.11-.19-.07-.28-.18.19-.43.27-.36.39.32-.13.44.23.69.31l-.62.48-.11-.2c-.14.11.05.75-.62,1.15l-.33.24-.5.4c-.34.27-.69.55-1,.84l-.9,1.75c-.2.38-.37.71-.57,1.06-.11-.08-.05-.36,0-.64-.08.15-.17.41-.33.5.35-.17-.11.56.09.39,0,1.09-1,1.95-1,2.87.4.28,6.63,5.42,7.14,5.68a1.61,1.61,0,0,1-.33.5c.15,0,.44-.42.5-.69l-.26-.19c.19-.6.23,0,.49-.6.24.09,0,.62-.17,1.07.23-.39.6-.7.43-1,.29-.33.26.18.59-.22.09-.35.09-.88.41-1.18l0,0c.69-.77.36-1.54,1-2.23l0,.13a1.7,1.7,0,0,0,.36-.58,2.69,2.69,0,0,1,.19-.38c.05-.09,0,0,.08,0a1.54,1.54,0,0,1-.23-.14c.07,0,.08,0,.09,0s0,0,.1.06l-.08-.09c0-.05-.08,0,0-.15.42-.33,1.12-.92,2-1.65l4-3.46c.38-1.15.75-2.31,1.12-3.44l.58-1.88c.2-.64.39-1.23.55-1.75l.73-2.24c-.1-.72-.13-.94-.15-1.13l.06.17c-.37-2.48-1-6.43-1.52-10.2L250.23,126l-1-1.37c-.67-.87-1.29-1.65-1.82-2.27a6.61,6.61,0,0,0-.94-1.76c.12.32-.09.33-.24.12-1.09-1.48-.21,0-1.42-1.41-.46-.5-1.25-1.5-2.15-2.69l-1.39-1.89-.65-.91-.13-.23c0-.11,0-.22,0-.31-.08-.4-.15-.78-.21-1.12-.12-.68-.21-1.24-.25-1.58a.54.54,0,0,1-.31-.4.43.43,0,0,0,0-.35l.08,0v-.09s0-.09,0-.14l.24-.73.7-1.93,1-2.74a.53.53,0,0,0,.11-.13h-.07c0-.17.07-.16.2-.16a2.57,2.57,0,0,0,.79-.32c-.36-.23.18-1,.43-1.27l0,.07c.36-.4,1-1.46,1.64-2.08l.12.19a4.75,4.75,0,0,1,.61-.74l.23-.21.13-.12.2-.1.11,0,.23-.08.51-.17,1.11-.39a9.57,9.57,0,0,0,2.21-1.12l1.21.12.11-.12s-1.79-7.61-4.41-8.16l-.06-.21-.37.21c-.5.12-.6.45-.66.23l.63-.27c-.48.16-.22-.1-.1-.29a2.15,2.15,0,0,1-.57.14c-.06.12.1.06.19.06-.21.19-.46.54-.8.59-.48.21-.19-.3-.74-.06l-1.69.69-.85.34-1.53.68-1.07.89L239,93l-1.13.92c-.75.62-1.49,1.25-2.23,1.92-.11,0,0-.07,0-.17l-.44.45-.31.3-.43.39-1.66,1.55-.17.61a1.34,1.34,0,0,1-.54.55,4.68,4.68,0,0,1-.35,1.37c-.14.48-.34,1.13-.55,1.79s-.39,1.2-.54,1.65S230.38,105,230.36,105.06Z"/></g></svg>