<svg xmlns="http://www.w3.org/2000/svg" viewBox="0 0 385.51 385.51"><defs><style>.cls-1{fill:#2c2c2c;}</style></defs><g id="balais"><path class="cls-1" d="M166.92,228h0a2.89,2.89,0,0,0,3.8-1.51l83.22-193-1.51-3.8s-3.48.78-3.79,1.51l-83.23,193A2.9,2.9,0,0,0,166.92,228Z"/><path class="cls-1" d="M169.17,232.93a7.24,7.24,0,0,0,3-.94,7.74,7.74,0,0,0,2.79-2.76c.09-.15.17-.31.25-.46l.18-.38.17-.36.34-.75.69-1.51c-.44.74-.87,1.51-1.3,2.37l-.24.49a6.3,6.3,0,0,1-.5.87,7.45,7.45,0,0,1-1.37,1.56A7.75,7.75,0,0,1,169.17,232.93Z"/><path class="cls-1" d="M176.62,225.73v0l0,.07Z"/><path class="cls-1" d="M168.07,225.3s0,0,0,0S168.1,225.28,168.07,225.3Z"/><path class="cls-1" d="M219.61,127.79l-.23-.46c2.07-4.81,1-1.22,2.85-5.71.23-2,3.24-7.36,3.63-9,0,.05,1-2.12,1.08-1.91,0-.79.9-2.27,1.42-3.67.14-.53-.24.33-.48.66l1.25-3.19c.63-1.19.92-1.42.38-.07,3.64-8.18,20.94-47.54,24.62-56.46-.71,1-1.74,3.85-2.52,4.74.82-2.42,1.55-3.42,1.8-4.53.88-.69,2.34-5.1,3.6-6.66v-.79l.68-1.09c.18-.46.35-.89.51-1.28l.74-1.82c.52-1.25.92-2.23,1.22-3-1.24-3-1.59-3.88-1.84-4.47l-.56-1.54L256.11,23l-4.93,1.11-.84.19c-.44.11-1.06.28-1.69.48a13.69,13.69,0,0,0-2.11.85,6.61,6.61,0,0,0-2.19,1.71l-1,1.63c-.24.58-.48,1.14-.7,1.68-.14.34-.28.67-.41,1l-.57,1.48-1,2.56c-.58,1.55-1.08,2.85-1.74,4.2.19-.43.86-1.52.35-.12-.35.12-1.4,3.72-1.93,4.27-.55,1.36-2.46,5.69-1.48,4.36-.49.67-2.23,4.51-1.38,2.14-.58,1.31-1.17,2.55-1.5,3.53l.81-1.64c-1.85,4.43-3.15,6.73-4.09,9.74l.84-1.58c-1.11,2.65-2,4.87-2.82,5.76l1.06-2.75c-1.88,4.38-3,7-4.39,10.75L225,73c-1.67,4.8-11.88,29.23-13.31,33.7l1.11-1.86-1.37,3.78c.19-.44-.07-2.15.17-2.47-3.38,7.9-20.89,49-24.21,56.26-1.41,2.88-.64.35-.66.3-1.45,3.62-.39,1.66-1.73,4.69-.4.81-.13-.26,0-.74a18,18,0,0,0-1.09,2.7c.81-1.63.83-.78,1.34-1.4l-1.72,3.9-.12-.26a36.67,36.67,0,0,1-2.17,6.25c-2.89,6.45-5.85,13.53-8.71,20a15.58,15.58,0,0,1,1-2.95c-.39.87-.93,2.21-1.37,3,.9-1.48-1,2.8-.41,1.61-1.56,5-4.68,11-6.17,15.34.15.28,1.1,3.37,2.08,6.41.49,1.53,1,3,1.39,4.19l.08.21,0,0v0l-1-.43h0l0,0h0s0,0,0,0,0,0,0-.07-.06.09,0,0,0,0,0,0,0,0,0,0l2.42.9-.18-.36c1.25-3.19.48-.66,1.79-3.74.15,0-.07.66-.45,1.68l-.68,1.71-.19.47-.1.24,0,.12,0,.06-2.47-1.06-.07,0s0,0,0,0l2.54,1,.1-.21.19-.4.7-1.52a10.14,10.14,0,0,0,.81-2.25c1-2.06.18.36,1.38-2.14a64.66,64.66,0,0,1,2.54-6.32l0,.05c2.42-4.94,3-7.88,5.21-12.39l-.14.53c.84-1.57,2-4.86,3.45-7.73-.41.81-.89,1.47-.15-.31,1.6-3.32,2.45-5.69,3.7-8.08l.79-2.47c5.13-11.76,24.86-58.41,29.92-70.25l-.16.48c7.66-18.07,23.63-55.06,31.35-73.82.4-.76.81-1.61,1.23-2.5l.63-1.37.16-.35,0-.06.06-.11.09-.17a.7.7,0,0,1,.17-.09l.18,0,.09,0,.3-.06-.25,0H253l-.07,0s-.06,0-.06-.08a.09.09,0,0,1,.06-.08s0,0,.11-.05l.38-.1.09,0-5.57-2.94.66,1.66c0,.12.09.2.12.26-.07.22,0,.17,0,.25v.09l0,.08v0a.38.38,0,0,1,0,.13l-1.5,3.64c-4.39,10.75-22.23,51.46-26.5,60.84-1.86,5.23-4.85,11.47-6.79,16.54l.14-.53c-2.18,5.4-15.55,35.55-18.12,41.82l.41-.81c-2.13,5.51-2.17,4.61-4.13,8.84.61-.4-1.18,4.33-1.91,6.12l-.06-.11c-1.09,2.7-3.37,8.9-5.23,13.33l-.13-.26c-1.36,3.77-4.44,10.65-5.56,13.31-2.69,6-7.07,15.19-10.29,23.39l-1.42,2.49-.7,1.24-.36.62,0,.08,0,0,1.58.68,0,0,0,0h0s0,0,0,0,0,0,0,.05a2,2,0,0,1-.09.68,2.49,2.49,0,0,1-.31.69,3.88,3.88,0,0,1-.23.33l-.13.16-.06.08,0,0v0h0c-.11.27.26-.59-.26.6-.15.84-.3,1.66-.45,2.45a4.06,4.06,0,0,0,3.79,1.13,6.06,6.06,0,0,0,3.18-1.58,7.08,7.08,0,0,0,1.35-1.79c.18-.27.37-.56.56-.88l.13.26.89-2.12c1.19-2.49,1.46-3.77,1.59-3.51l-1.52,3.47c1.15-2.53.49-.7.19.32.48-1,1-2.08,1.38-2.9.13-.53-.25.34-.46.71a50.74,50.74,0,0,1,2-5c1.14-2.6.4,0,1.74-3.06,7.07-16,14-31.42,21-47.66.24-.33,0,.11-.11.59,2.05-4.91,3.88-9.27,5.75-13.74a9.43,9.43,0,0,1,1.14-1.81c-.25.33,2.36-5.83,5-12.12l3.75-8.74C218.84,129.54,219.56,127.89,219.61,127.79Z"/><polygon class="cls-1" points="189.97 235.18 184.88 235.08 149.65 219.89 147.73 217.05 146.4 213.41 144.9 184.43 146.18 181.46 149.64 181.62 212.7 208.82 216.57 211.88 216.12 215.21 193.85 234.15 189.97 235.18"/><path class="cls-1" d="M189.35,230.34a9.87,9.87,0,0,0-2.64-.35A8.12,8.12,0,0,0,189.35,230.34Z"/><path class="cls-1" d="M186.69,230h0Z"/><path class="cls-1" d="M192.14,240.46l.78-.22A6.94,6.94,0,0,0,192.14,240.46Z"/><path class="cls-1" d="M152.17,212.21l-.4,0c-.12-2.25.43-.68.22-2.83-.61-.82-.13-3.61-.47-4.35,0,0,0-1.05.19-1-.33-.31-.13-1.09-.24-1.76-.1-.24-.09.19-.17.37l-.19-1.53c.07-.61.24-.76.31-.11-.08-2.19-.33-9.29-.55-15.52h0s0,0,0,0l.08-.19.64-1.45-5.73,3.57,2.38.13,1.2.5,1.56.64c-.42-.43-1.71-.82-2-1.36,1.13.27,1.52.74,2.07.74.19.67,2.26,1.12,2.84,2l.42-.16.45.4c4.76,1.71,1.12.32,5.19,2.15,2.4,1,3.7,1.08,5,1.79-.2-.09-.65-.48,0-.29,0,.29,1.71.53,1.9.91.62.23,2.56,1.1,2,.48.26.31,2,1.13.87.83a11.77,11.77,0,0,0,1.59.67l-.71-.42c2,.8,3,1.53,4.4,1.78l-.68-.45a5.74,5.74,0,0,1,2.52,1.43l-1.26-.42a46.05,46.05,0,0,0,4.88,1.86l-.58-.27c2.24.57,13.29,5,15.39,5.42l-.77-.64,1.75.49c-.2-.08-1.17.5-1.29.35l15.52,6.56,3.44,2.71-1.56-3.87c-.06.45-.13.87-.18,1.27l-.08.44c-.19.14-.34.25-.44.31l-.13,0c-.05,0-.16.06-.19.06s-.13,0-.12-.1.1-.21.07-.23a.13.13,0,0,0,0-.08,1.83,1.83,0,0,1-.24.26c-.1.1-.17.19-.23.26a2.22,2.22,0,0,0-.2.29c-.08.15-.14.26-.72.73-.34.23-.08-.22.07-.4-.48.45-1,.77-.95.9.68-.45.65,0,1.06,0l-1.48,1.22-.08-.23a7.56,7.56,0,0,1-1.94,2.3c-2.48,2-5.06,4.27-7.53,6.3-.05-.13.41-.62.88-1.12a9,9,0,0,1-1.17.91c.74-.33-.92,1-.4.67-1.43,1.93-4.05,3.51-5.39,5.13.05.09.13.56.3,1.21a6.9,6.9,0,0,1,.47,2.53,7,7,0,0,1-.17,1.95,8.73,8.73,0,0,1-.28,1,7.72,7.72,0,0,0-.2.92,12,12,0,0,0-.31,2.19,12.24,12.24,0,0,1-1.45.31,5.83,5.83,0,0,0,2.06-.42l0-.33.44-.14.48-.12a1.33,1.33,0,0,1,.42-.05,4.54,4.54,0,0,0,1.61-.31l.08-.07s0,.07,0,.16a8.5,8.5,0,0,1-1.66.63l-1.84.55.71-.15L194,240l.6-.14a12.72,12.72,0,0,0,2-.59c.09-.11.16-.2.22-.29,1.59-1.21,0,.42,1.93-1.09a14,14,0,0,1,2.26-2.15l0,.05c2.05-1.4,2.63-2.75,4.51-4l-.13.22c.71-.4,1.78-1.57,3-2.39-.34.23-.73.32-.09-.26,1.36-1,2.12-1.81,3.17-2.44l.72-.94,9.23-7.92c.2-1.54.45-3.48.7-5.44l.41-3.18-2.46-1.9-4.47-3.47-15.43-6.44.22.05c-8.15-3.38-24.77-10.57-33.27-13.87a42.67,42.67,0,0,0-4.34-2.14c.72.42.39.46-.19.2-4.11-1.8-.35,0-4.55-1.66-.68-.26-1.61-.63-2.72-1.1l-4.58-2-4.28-.21-3.09-.15L142,179.67l-1.72,3.93c.08,2,.17,4.06.25,6,.06,1.62.12,3.19.17,4.62.09,2.87.16,5.21.16,6.46.49,2.46.38,5.58.74,8l-.1-.24c0,.41.09,1.1.13,2,.06,1.08.12,2.41.19,3.89.54,1.49,1.12,3.15,1.73,4.83l3,4.45,5.7,2.5c1.29.56,2.31,1,2.89,1.22l-.36-.21c2.53.84,2,1.06,3.91,2-.09-.49,2.09.2,2.9.52l-.07.07c1.23.45,4.09,1.3,6.1,2.11l-.17.17c1.75.49,4.82,1.93,6,2.42l4.5,2.18c.84.4,1.71.81,2.6,1.2l1.33.56,2.08.84,1.28,0a9.68,9.68,0,0,1,1.56.35l1.28.34.37-.06s4.27-7.55-.93-9.27l.09-.22h-1l-.47,0H186c-.05,0-.1,0-.12,0s0,0,0-.1h0l.16,0h.09l.4,0-.38,0c-.08,0-.05,0-.07,0a.09.09,0,0,1,0-.07c-.08-.06.32-.11.55-.17-.71,0-.54-.06-.63-.13,0,.09,0,.1,0,.15l-.11.08c-.14,0-.07.16-.78-.23-1.16-.52.07-.36-1.29-1-7.14-3.27-14-6.52-21.34-9.62-.13-.15.07-.07.3,0-2.24-.86-4.18-1.74-6.21-2.51a2.46,2.46,0,0,1-.75-.67,4.17,4.17,0,0,1-1.1-.38l-1.21-.49h-.06l0,0-.46-.67-.06-.09s0,0,0,0h0a0,0,0,0,1,0,0c-.19-.51-.37-1-.52-1.43-.1-.25-.18-.49-.26-.7v0S152.17,212.22,152.17,212.21Z"/><path class="cls-1" d="M185,242.76a7.83,7.83,0,0,0-.29,1.6A5.79,5.79,0,0,0,185,242.76Z"/><path class="cls-1" d="M184.69,244.37h0v0Z"/><path class="cls-1" d="M180,362.25l0-.5A4.07,4.07,0,0,0,180,362.25Z"/><path class="cls-1" d="M181.82,273.65l.19.11c-.12,1.44-.26.4-.33,1.73.24.55-.21,2.2-.1,2.68,0,0-.09.63-.17.58.13.22,0,.68,0,1.09,0,.15.05-.11.11-.21l0,.94c-.08.36-.18.45-.16.05-.27,2.44-1.43,14.21-1.58,16.86.15-.33.14-1.15.35-1.44,0,.7-.13,1-.05,1.34-.29.24-.19,1.53-.51,2l.13.21-.12.34a21,21,0,0,1-.25,3.43c-.12,1.58,0,2.35-.12,3.22,0-.13.14-.47.14-.06-.14.06,0,1.09-.15,1.28,0,.4-.15,1.7.07,1.28-.11.21-.24,1.36-.26.67a8.93,8.93,0,0,0-.09,1l.1-.5a18.64,18.64,0,0,0-.2,2.9l.11-.48a4.16,4.16,0,0,1-.3,1.74v-.81c-.11,1.3-.16,2.09-.16,3.19l0-.39c.06,1.4-.41,8.67-.3,10l.2-.58,0,1.11c0-.13-.41-.57-.36-.67-.19,2.36-1.13,14.62-1.41,16.79-.16.87-.24.13-.26.12,0,1.08.11.48,0,1.38,0,.25-.11-.06-.12-.2,0,.4-.1.77,0,.8.09-.49.25-.27.38-.47l-.12,1.17-.1-.06a5.84,5.84,0,0,1,.08,1.83c-.21,1.93-.35,4-.55,6a2.77,2.77,0,0,1-.07-.86,5.27,5.27,0,0,1-.11.9c.16-.46,0,.82.09.46.15,1.45-.26,3.27-.18,4.54.23.14,3.94,3.06,4.23,3.08a7.33,7.33,0,0,1-.12.9,4.3,4.3,0,0,0,.18-1.27l-.15-.09c0-.94.11-.21.18-1.13.13,0,.08.81,0,1.56a5.51,5.51,0,0,0,.11-1.61c.1-.63.15.08.27-.67a9.26,9.26,0,0,1,.07-1.88h0c.26-1.49,0-2.32.26-3.68l0,.15c.12-.48.1-1.45.26-2.32,0,.25-.16.46-.13-.07.17-1,.15-1.7.31-2.43l-.06-.72c.32-3.51,1.34-17.4,1.62-20.93v.14c.4-5.39,1.36-16.43,1.67-22,.2-.85.27-2,.38-2.93-.09.49-.16.31-.13-.08.25-2.73-.06-.19.12-3,.16-3.19,1.34-15.36,1.69-18.17-.05-1.54.25-3.42.26-4.91l0,.15c.07-1.6,1-10.63,1.11-12.49l0,.25a12.62,12.62,0,0,1,.38-2.66c-.22.15-.21-1.25-.18-1.78l0,0c0-.81,0-2.63.1-3.95l.11.07c0-1.11.2-3.17.26-4,.2-1.81.63-4.57.69-7l.45-1.53v-.23s-3.59-2.84-4.67.28l-.11-.06,0,.63c-.12.75,0,1.11-.12,1.05l.1-1c-.1.76-.11.23-.15-.07,0,.32-.08.62-.13.87s.05-.1.09-.22a7.48,7.48,0,0,1,0,1.48c-.08.78-.18,0-.27,1-.5,4.78-1,9.41-1.42,14.25,0,.1,0,0,0-.17-.08,1.46-.2,2.76-.27,4.09a1.71,1.71,0,0,1-.21.56C182.5,266,181.86,273.53,181.82,273.65Z"/><path class="cls-1" d="M180.78,241.09a6.66,6.66,0,0,0-.37,1.55A6,6,0,0,0,180.78,241.09Z"/><path class="cls-1" d="M180.4,242.65h0v0Z"/><path class="cls-1" d="M170,357.46q0-.22.06-.48A3.93,3.93,0,0,0,170,357.46Z"/><path class="cls-1" d="M176.12,271.08l.19.11c-.19,1.4-.28.38-.41,1.68.21.54-.33,2.13-.24,2.6,0,0-.12.62-.2.57.12.21-.06.65-.07,1,0,.15.06-.1.12-.2l-.07.92c-.1.35-.2.43-.17,0-.38,2.37-2.11,13.8-2.39,16.38.16-.31.19-1.12.42-1.39,0,.69-.18,1-.11,1.3-.31.23-.27,1.49-.62,2l.13.22-.14.32a20.32,20.32,0,0,1-.42,3.34c-.19,1.54-.08,2.29-.27,3.13,0-.12.16-.45.14,0-.14,0,0,1.07-.21,1.24,0,.39-.23,1.65,0,1.25-.12.2-.31,1.32-.3.64a7.48,7.48,0,0,0-.13,1l.12-.48a17.92,17.92,0,0,0-.34,2.82l.14-.47a4.09,4.09,0,0,1-.4,1.69l.06-.8c-.17,1.27-.27,2-.32,3.11l.06-.37c0,1.37-.83,8.44-.78,9.71l.22-.55,0,1.09c0-.13-.38-.58-.32-.68-.31,2.29-1.84,14.21-2.23,16.31-.2.84-.24.12-.26.11-.1,1,.08.47-.05,1.35-.06.24-.1-.07-.11-.21,0,.39-.13.75-.07.78.12-.47.26-.24.41-.43l-.18,1.13-.1-.07a5.6,5.6,0,0,1,0,1.8c-.31,1.87-.55,3.92-.84,5.81a2.34,2.34,0,0,1,0-.85,5.84,5.84,0,0,1-.15.87c.18-.44,0,.81.06.46.08,1.42-.41,3.18-.4,4.42.23.14,3.79,3.2,4.07,3.24-.06.38-.11.75-.15.87a4.47,4.47,0,0,0,.23-1.24l-.14-.09c.07-.92.12-.2.23-1.09.13,0,0,.79,0,1.52a5.17,5.17,0,0,0,.18-1.57c.14-.6.15.09.3-.64a10,10,0,0,1,.17-1.83l0,0c.33-1.45.12-2.27.43-3.59l0,.15c.14-.46.17-1.4.37-2.25-.06.24-.18.44-.13-.07.22-1,.23-1.65.43-2.36l0-.7c.5-3.41,2.19-16.92,2.64-20.35v.13c.66-5.23,2.16-16,2.73-21.38.24-.82.37-2,.53-2.84-.12.48-.19.3-.13-.08.38-2.65-.06-.19.26-2.88.32-3.11,2.08-14.93,2.56-17.66,0-1.5.42-3.32.51-4.78l0,.15c.15-1.56,1.53-10.32,1.71-12.13l-.06.24a11.62,11.62,0,0,1,.51-2.58c-.23.14-.15-1.22-.1-1.74l0,0c.08-.78.14-2.56.29-3.85l.11.07c0-1.08.35-3.08.45-3.85.29-1.75.85-4.43,1-6.79l.52-1.48v-.22s-3.44-3-4.67,0l-.11-.06-.07.61c-.15.73-.07,1.09-.17,1l.15-1c-.14.73-.12.21-.15-.08a7.76,7.76,0,0,1-.17.84c0,.15.06-.1.1-.21a7.37,7.37,0,0,1-.11,1.44c-.11.76-.18,0-.32.91-.72,4.64-1.47,9.13-2.1,13.84-.06.1,0,0,0-.17-.15,1.42-.34,2.68-.47,4a1.63,1.63,0,0,1-.24.54C177.17,263.63,176.16,271,176.12,271.08Z"/><path class="cls-1" d="M176.57,239.41a7,7,0,0,0-.44,1.5A5.35,5.35,0,0,0,176.57,239.41Z"/><path class="cls-1" d="M176.13,240.92h0v0Z"/><path class="cls-1" d="M160,352.68c0-.14.06-.3.09-.47A4.3,4.3,0,0,0,160,352.68Z"/><path class="cls-1" d="M170.43,268.5l.18.12c-.26,1.36-.3.35-.49,1.61.18.55-.44,2.08-.37,2.54,0,0-.15.6-.23.54.12.22-.09.64-.12,1,0,.15.06-.09.13-.19l-.12.9c-.12.33-.22.4-.16,0-.51,2.31-2.8,13.39-3.21,15.9.18-.3.25-1.08.48-1.34,0,.68-.22,1-.17,1.27-.32.21-.34,1.44-.71,1.89l.11.22-.15.3a18.54,18.54,0,0,1-.59,3.24c-.26,1.5-.19,2.24-.43,3.06,0-.13.18-.44.15,0-.15,0-.11,1-.28,1.2,0,.38-.31,1.6,0,1.22-.14.19-.38,1.28-.34.61a8.16,8.16,0,0,0-.18,1l.14-.46a18.71,18.71,0,0,0-.48,2.74l.16-.44a3.87,3.87,0,0,1-.47,1.62l.09-.77c-.23,1.23-.36,2-.47,3l.08-.36c-.08,1.34-1.25,8.21-1.26,9.46l.24-.53-.08,1.06c0-.12-.35-.58-.29-.68-.42,2.23-2.55,13.8-3,15.84-.24.81-.25.1-.27.09-.14,1,.07.46-.11,1.32-.07.23-.1-.07-.1-.21-.05.38-.17.72-.11.76.14-.46.28-.23.43-.4l-.23,1.1-.1-.07a5.08,5.08,0,0,1-.09,1.75c-.4,1.82-.75,3.81-1.13,5.64a2.43,2.43,0,0,1,0-.83,5.7,5.7,0,0,1-.19.84c.2-.42-.08.79,0,.45,0,1.4-.57,3.09-.62,4.31.22.15,3.61,3.34,3.9,3.39a8,8,0,0,1-.2.85,4,4,0,0,0,.3-1.2l-.14-.09c.11-.9.13-.19.28-1.06.14,0,0,.78-.11,1.48a4.88,4.88,0,0,0,.26-1.52c.17-.58.14.1.33-.61a9,9,0,0,1,.26-1.78l0,0c.4-1.4.23-2.21.61-3.49V345c.16-.44.24-1.37.48-2.18-.07.23-.2.42-.12-.08.26-.94.31-1.6.54-2.28v-.69c.66-3.31,3-16.44,3.65-19.77v.14c.93-5.09,2.95-15.5,3.8-20.78.28-.78.46-1.91.66-2.75-.14.46-.19.29-.12-.08.51-2.57,0-.19.41-2.81.47-3,2.82-14.48,3.44-17.13.1-1.46.58-3.22.73-4.65l0,.15c.22-1.52,2-10,2.31-11.77l-.07.23a11.42,11.42,0,0,1,.64-2.5c-.23.12-.09-1.21,0-1.71l0,0c.11-.76.27-2.5.48-3.74l.1.07c.08-1.06.51-3,.64-3.75.38-1.69,1.08-4.28,1.37-6.59l.6-1.41v-.22s-3.29-3.09-4.67-.24l-.1-.07-.1.6c-.19.7-.13,1.06-.23,1l.2-1c-.17.71-.13.2-.13-.08-.07.29-.14.58-.22.81s.06-.09.11-.2a7.46,7.46,0,0,1-.18,1.41c-.15.73-.19,0-.36.87-1,4.5-1.94,8.85-2.8,13.42-.06.09,0,0,0-.17-.22,1.39-.47,2.61-.67,3.87a1.44,1.44,0,0,1-.26.51C171.85,261.26,170.48,268.39,170.43,268.5Z"/><path class="cls-1" d="M172.38,237.73a6.51,6.51,0,0,0-.52,1.44A5.32,5.32,0,0,0,172.38,237.73Z"/><path class="cls-1" d="M171.86,239.18h0v0Z"/><path class="cls-1" d="M150,347.91l.11-.46A2.56,2.56,0,0,0,150,347.91Z"/><path class="cls-1" d="M164.75,265.91l.17.14c-.33,1.31-.32.32-.57,1.55.15.54-.54,2-.5,2.46,0,0-.18.58-.26.52.11.22-.12.62-.17,1,0,.14.07-.09.14-.18l-.17.87c-.13.32-.24.38-.16,0-.62,2.23-3.49,13-4,15.41.19-.29.3-1,.55-1.29-.06.66-.27.93-.24,1.24-.32.18-.42,1.39-.81,1.8l.11.23-.17.29a19.27,19.27,0,0,1-.75,3.15c-.35,1.44-.31,2.18-.59,3,0-.12.2-.42.15,0-.15,0-.16,1-.34,1.17-.08.37-.39,1.55-.11,1.2-.14.18-.45,1.22-.36.58a6.7,6.7,0,0,0-.24,1l.17-.45a15.85,15.85,0,0,0-.62,2.66l.18-.43a3.76,3.76,0,0,1-.56,1.57l.14-.75a29.7,29.7,0,0,0-.63,2.94l.1-.36c-.15,1.32-1.68,8-1.75,9.22l.27-.51-.14,1c0-.12-.32-.6-.25-.69-.53,2.16-3.25,13.4-3.85,15.36-.28.79-.25.09-.27.08-.2,1,0,.46-.18,1.28-.09.23-.1-.07-.09-.2-.07.37-.21.69-.15.74.17-.45.29-.21.45-.38l-.29,1.07-.09-.08a5.15,5.15,0,0,1-.19,1.72c-.49,1.76-.94,3.69-1.41,5.47a2.29,2.29,0,0,1,.05-.82,4.32,4.32,0,0,1-.24.82c.23-.4-.11.76,0,.44-.06,1.37-.73,3-.84,4.19.21.16,3.44,3.5,3.72,3.57-.1.35-.19.71-.24.81a4,4,0,0,0,.35-1.15l-.13-.11c.16-.87.14-.17.34-1,.13,0,0,.77-.19,1.45a4.91,4.91,0,0,0,.34-1.48c.19-.56.13.11.36-.57a8.57,8.57,0,0,1,.35-1.73h0c.48-1.34.35-2.15.79-3.38v.14c.18-.42.31-1.32.59-2.11-.08.23-.22.4-.12-.08.31-.91.4-1.56.66-2.21l0-.68c.84-3.2,3.87-15.95,4.67-19.18v.13c1.18-4.93,3.74-15,4.85-20.16a27.43,27.43,0,0,0,.81-2.66c-.17.45-.21.27-.12-.09.65-2.49,0-.19.55-2.73.63-2.94,3.56-14.05,4.32-16.6.17-1.44.74-3.14,1-4.52v.14c.3-1.47,2.55-9.7,2.92-11.41l-.08.22a10.4,10.4,0,0,1,.76-2.41c-.24.1,0-1.19.08-1.68l0,0c.15-.74.39-2.44.67-3.65l.1.08c.14-1,.66-2.91.83-3.64.46-1.64,1.29-4.14,1.71-6.38l.66-1.35,0-.22s-3.12-3.23-4.65-.51l-.09-.08-.13.58c-.23.68-.19,1-.28,1l.25-.94c-.21.68-.14.18-.14-.1a7.45,7.45,0,0,1-.25.79c0,.15.07-.09.12-.19a6.7,6.7,0,0,1-.26,1.37c-.19.71-.18,0-.4.83-1.19,4.36-2.39,8.57-3.48,13-.07.09,0,0,0-.17-.29,1.35-.6,2.53-.86,3.76a1.51,1.51,0,0,1-.29.49C166.54,258.9,164.8,265.81,164.75,265.91Z"/><path class="cls-1" d="M168.2,236.05a6.19,6.19,0,0,0-.6,1.39A5.17,5.17,0,0,0,168.2,236.05Z"/><path class="cls-1" d="M167.59,237.45h0v0Z"/><path class="cls-1" d="M140,343.14c0-.14.09-.29.13-.45C140,342.84,140,343,140,343.14Z"/><path class="cls-1" d="M159.08,263.32l.16.15c-.39,1.27-.33.3-.65,1.49.12.54-.65,1.94-.63,2.4,0,0-.21.55-.28.49.09.22-.16.6-.23,1,0,.14.07-.08.15-.17l-.21.85c-.15.31-.27.36-.17,0-.74,2.16-4.17,12.56-4.83,14.93.2-.27.36-1,.62-1.24-.1.65-.32.91-.31,1.21-.33.16-.49,1.34-.9,1.73l.09.22-.18.28a18.07,18.07,0,0,1-.92,3.05c-.42,1.41-.43,2.14-.75,2.89,0-.11.23-.39.15,0-.15,0-.21,1-.39,1.13-.1.36-.48,1.5-.18,1.17-.15.17-.51,1.18-.39.54a6.43,6.43,0,0,0-.29.94l.19-.43a16.13,16.13,0,0,0-.76,2.58l.21-.41a3.75,3.75,0,0,1-.64,1.51l.17-.74a29.24,29.24,0,0,0-.78,2.86l.11-.34c-.21,1.28-2.09,7.76-2.23,9l.3-.48-.2,1c0-.11-.29-.61-.21-.69-.65,2.09-4,13-4.66,14.89-.32.75-.26.07-.28.05-.25,1,0,.46-.25,1.26-.09.21-.09-.08-.07-.21-.1.36-.25.67-.19.72.19-.43.29-.19.46-.34l-.34,1-.09-.08a5.18,5.18,0,0,1-.27,1.68c-.59,1.7-1.14,3.57-1.71,5.29a2.17,2.17,0,0,1,.1-.79,4.8,4.8,0,0,1-.28.78c.24-.38-.15.75,0,.44-.13,1.34-.89,2.91-1.06,4.08.2.17,3.24,3.64,3.52,3.73a7.51,7.51,0,0,1-.29.79,3.65,3.65,0,0,0,.42-1.12l-.13-.11c.21-.84.15-.16.39-1,.14,0-.07.75-.27,1.41a4.37,4.37,0,0,0,.42-1.43c.23-.54.13.11.39-.55a9.5,9.5,0,0,1,.44-1.68l0,0c.55-1.3.46-2.1,1-3.28v.14c.2-.41.38-1.29.7-2-.1.21-.24.38-.11-.09.36-.88.47-1.51.77-2.13l.08-.67c1-3.11,4.71-15.46,5.68-18.6l0,.13c1.44-4.78,4.53-14.57,5.92-19.55.36-.72.66-1.78,1-2.57-.19.43-.23.25-.11-.09.77-2.42,0-.19.69-2.65.78-2.86,4.3-13.62,5.19-16.09.25-1.4.91-3,1.22-4.39v.15c.38-1.44,3.06-9.4,3.52-11.06l-.1.21a11.06,11.06,0,0,1,.89-2.32c-.24.08,0-1.18.17-1.65l0,0c.19-.72.52-2.37.87-3.55l.09.08c.19-1,.81-2.83,1-3.53.55-1.58,1.51-4,2.05-6.18l.73-1.29,0-.21s-2.94-3.37-4.61-.79l-.09-.08-.16.57c-.26.65-.24,1-.33.92l.3-.91c-.24.66-.15.17-.13-.1a8,8,0,0,1-.3.76c0,.14.08-.09.13-.18a6,6,0,0,1-.32,1.33c-.23.69-.19,0-.45.79-1.42,4.22-2.84,8.29-4.16,12.59-.08.09,0,0,0-.16-.36,1.31-.74,2.45-1.06,3.64a2,2,0,0,1-.32.47C161.24,256.53,159.14,263.22,159.08,263.32Z"/><path class="cls-1" d="M164,234.37a6.28,6.28,0,0,0-.67,1.33A5,5,0,0,0,164,234.37Z"/><path class="cls-1" d="M163.34,235.71h0v0Z"/><path class="cls-1" d="M129.94,338.37c0-.13.1-.28.15-.43A3.66,3.66,0,0,0,129.94,338.37Z"/><path class="cls-1" d="M153.42,260.73l.16.15c-.47,1.24-.35.28-.74,1.44.09.54-.75,1.88-.76,2.33,0,0-.24.53-.31.47.08.22-.19.58-.28.95,0,.14.08-.08.16-.16l-.26.83c-.17.3-.28.34-.17,0-.85,2.09-4.85,12.14-5.64,14.44.22-.25.41-1,.68-1.18-.13.64-.37.87-.37,1.17-.34.14-.56,1.3-1,1.65l.08.23-.2.26a17.07,17.07,0,0,1-1.09,3c-.49,1.36-.54,2.08-.9,2.8,0-.11.25-.37.15,0-.15,0-.27,1-.46,1.09-.11.35-.55,1.46-.24,1.15-.16.15-.57,1.13-.42.51a8.33,8.33,0,0,0-.34.91l.22-.42a14.8,14.8,0,0,0-.9,2.51l.22-.4a3.55,3.55,0,0,1-.72,1.45l.21-.71a27.33,27.33,0,0,0-.93,2.77l.13-.33c-.28,1.26-2.52,7.54-2.73,8.71l.33-.45-.25,1c.05-.12-.25-.62-.18-.7-.76,2-4.67,12.58-5.47,14.41-.36.72-.26,0-.28,0-.3.93,0,.45-.32,1.22-.1.21-.08-.08-.06-.21-.11.35-.28.65-.23.7.22-.41.31-.17.49-.31l-.4,1-.09-.08a4.74,4.74,0,0,1-.36,1.63c-.68,1.65-1.33,3.47-2,5.13-.06-.05,0-.42.14-.78a5.8,5.8,0,0,1-.33.76c.27-.37-.19.72,0,.43-.21,1.32-1,2.81-1.29,4,.2.18,3,3.8,3.3,3.91-.13.33-.26.66-.32.76a3.77,3.77,0,0,0,.47-1.08l-.12-.11c.26-.83.16-.16.45-.95.14,0-.12.74-.35,1.38a4.28,4.28,0,0,0,.5-1.39c.25-.52.12.11.42-.52a8.58,8.58,0,0,1,.53-1.63l0,0c.61-1.25.57-2.05,1.15-3.18v.14c.22-.39.45-1.25.81-2-.11.21-.27.36-.11-.09.41-.84.56-1.46.89-2.06l.12-.65c1.17-3,5.55-15,6.69-18l0,.12c1.71-4.63,5.33-14.1,7-18.93a25.08,25.08,0,0,0,1.08-2.48c-.21.41-.23.23-.1-.1.91-2.34,0-.19.84-2.58.93-2.77,5-13.17,6.07-15.56.32-1.37,1.07-2.94,1.45-4.26v.14c.46-1.39,3.58-9.09,4.13-10.7l-.11.2a11.36,11.36,0,0,1,1-2.24c-.24.08.11-1.16.26-1.61l0,0c.23-.7.66-2.31,1.06-3.45l.09.08c.25-1,1-2.74,1.22-3.42.63-1.53,1.72-3.85,2.38-6l.8-1.23,0-.2s-2.74-3.52-4.55-1.07l-.08-.09-.2.55c-.3.63-.29,1-.38.89l.35-.88c-.27.64-.15.16-.12-.11a7.29,7.29,0,0,1-.34.73c0,.15.08-.08.14-.17a6.61,6.61,0,0,1-.4,1.3c-.26.66-.18,0-.49.75-1.65,4.08-3.29,8-4.85,12.18-.08.07,0,0,0-.16-.43,1.26-.87,2.37-1.26,3.53a1.39,1.39,0,0,1-.34.43C156,254.16,153.48,260.64,153.42,260.73Z"/><path class="cls-1" d="M159.85,232.69a6.18,6.18,0,0,0-.74,1.27A4.67,4.67,0,0,0,159.85,232.69Z"/><path class="cls-1" d="M159.1,234h0v0Z"/><path class="cls-1" d="M119.9,333.6c0-.13.12-.27.18-.42A3.79,3.79,0,0,0,119.9,333.6Z"/><path class="cls-1" d="M147.77,258.15l.15.15c-.54,1.2-.37.26-.82,1.38.06.55-.86,1.81-.89,2.26,0,0-.27.52-.34.44.07.23-.21.57-.33.93,0,.14.08-.07.16-.14l-.3.8c-.18.28-.3.32-.16,0-1,2-5.54,11.73-6.46,13.95.23-.23.47-.94.75-1.12-.17.62-.42.83-.44,1.13-.34.11-.63,1.25-1.08,1.58l.06.23-.21.25a17.89,17.89,0,0,1-1.25,2.86c-.57,1.31-.66,2-1.06,2.72,0-.11.26-.36.15,0-.15,0-.32.94-.52,1.05-.14.34-.64,1.41-.31,1.12-.16.14-.63,1.09-.45.48a5.56,5.56,0,0,0-.38.88l.23-.4a15.31,15.31,0,0,0-1,2.42l.25-.37a3.62,3.62,0,0,1-.8,1.39l.25-.69a26.59,26.59,0,0,0-1.09,2.68l.15-.32c-.36,1.23-3,7.31-3.22,8.47l.35-.43-.31,1c.05-.11-.21-.63-.13-.7-.87,2-5.38,12.17-6.28,13.93-.41.7-.27,0-.28,0-.36.91,0,.45-.39,1.2-.12.19-.09-.09,0-.22-.14.34-.32.63-.27.68.23-.39.31-.15.5-.27l-.46,1-.08-.09a4.74,4.74,0,0,1-.45,1.6c-.78,1.59-1.53,3.35-2.29,5a2.25,2.25,0,0,1,.19-.76,4.54,4.54,0,0,1-.37.73c.29-.34-.23.71,0,.43-.29,1.29-1.21,2.72-1.51,3.84.18.19,2.8,4,3.06,4.08a6.52,6.52,0,0,1-.37.73,3.62,3.62,0,0,0,.54-1l-.12-.12c.31-.8.17-.15.51-.91.13,0-.16.72-.43,1.34a4.27,4.27,0,0,0,.57-1.34c.29-.5.12.12.45-.49a8.52,8.52,0,0,1,.63-1.58h0c.69-1.19.69-2,1.33-3.08l0,.15c.25-.38.52-1.21.92-1.91-.11.2-.28.34-.09-.1.45-.81.63-1.41,1-2l.15-.64c1.35-2.91,6.4-14.49,7.71-17.43l0,.12c2-4.48,6.12-13.64,8-18.32.43-.66.85-1.66,1.22-2.39-.23.39-.25.22-.1-.1,1-2.27,0-.19,1-2.51,1.09-2.68,5.78-12.73,6.94-15,.41-1.34,1.24-2.85,1.7-4.13l0,.14c.54-1.35,4.09-8.78,4.73-10.35l-.12.2a9.73,9.73,0,0,1,1.14-2.16c-.25.06.17-1.14.35-1.59l0,0c.27-.68.79-2.25,1.26-3.35l.08.09c.31-1,1.13-2.66,1.41-3.32.72-1.47,1.95-3.7,2.72-5.77l.87-1.16.06-.2s-2.53-3.66-4.47-1.35l-.08-.09-.23.53c-.33.6-.34.95-.43.86l.41-.85c-.32.61-.17.15-.12-.12-.13.26-.26.51-.38.71s.08-.08.15-.16a6.77,6.77,0,0,1-.47,1.26c-.31.64-.19,0-.54.71-1.88,3.94-3.74,7.74-5.53,11.76-.09.07,0,0,0-.16-.5,1.23-1,2.3-1.46,3.42a1.4,1.4,0,0,1-.37.41C150.67,251.79,147.84,258.06,147.77,258.15Z"/><path class="cls-1" d="M155.7,231a5.59,5.59,0,0,0-.82,1.22A5.06,5.06,0,0,0,155.7,231Z"/><path class="cls-1" d="M154.87,232.24h0v0Z"/><path class="cls-1" d="M109.85,328.83c.06-.13.13-.27.21-.41A4,4,0,0,0,109.85,328.83Z"/><path class="cls-1" d="M142.13,255.56l.14.17c-.61,1.15-.38.22-.9,1.31,0,.55-1,1.75-1,2.19,0,0-.3.5-.36.42,0,.24-.25.56-.39.9,0,.14.09-.06.17-.13l-.35.78c-.2.27-.31.3-.16,0-1.09,1.94-6.21,11.31-7.27,13.46.25-.21.53-.9.82-1.07-.21.61-.47.81-.51,1.11-.35.09-.7,1.2-1.17,1.49l.05.24-.23.23a16.46,16.46,0,0,1-1.42,2.77c-.65,1.27-.78,2-1.22,2.64.06-.11.29-.34.15,0-.15,0-.37.92-.58,1-.15.32-.72,1.35-.37,1.09-.17.13-.7,1-.48.45a5.66,5.66,0,0,0-.43.85l.25-.38a16.47,16.47,0,0,0-1.18,2.34l.27-.35a3.53,3.53,0,0,1-.88,1.33l.29-.68a28.68,28.68,0,0,0-1.25,2.61l.17-.31c-.42,1.2-3.37,7.08-3.71,8.21l.38-.4-.37.93c.06-.1-.18-.64-.09-.7-1,1.89-6.09,11.76-7.09,13.46-.44.66-.27,0-.28,0-.41.88-.07.44-.46,1.16-.13.19-.08-.09,0-.21-.15.32-.35.6-.31.65.26-.37.33-.12.52-.24l-.51.93-.08-.09a4.55,4.55,0,0,1-.55,1.56c-.86,1.53-1.72,3.23-2.57,4.78,0-.06.09-.4.23-.75a4.11,4.11,0,0,1-.41.71c.3-.33-.28.69-.08.42-.36,1.26-1.36,2.63-1.73,3.72.16.2,2.55,4.12,2.81,4.26a6.94,6.94,0,0,1-.41.7,3.53,3.53,0,0,0,.59-1L110,328c.35-.78.17-.14.55-.88.13,0-.2.71-.5,1.31.29-.53.66-1,.65-1.3.31-.48.11.13.48-.45a7.81,7.81,0,0,1,.71-1.54l0,0c.75-1.15.81-1.94,1.5-3l0,.14c.27-.36.59-1.17,1-1.84-.13.19-.3.32-.09-.11.5-.77.72-1.36,1.12-1.9l.19-.63c1.51-2.8,7.24-14,8.72-16.84l0,.12c2.22-4.34,6.91-13.18,9.12-17.71.47-.63,1-1.6,1.36-2.3-.26.38-.26.2-.09-.11,1.17-2.18,0-.19,1.13-2.43,1.25-2.6,6.53-12.3,7.82-14.51.48-1.3,1.41-2.75,1.94-4l0,.14c.62-1.31,4.6-8.47,5.33-10l-.13.19a10.4,10.4,0,0,1,1.26-2.07c-.25,0,.24-1.13.45-1.56l0,0c.31-.66.92-2.19,1.45-3.25l.08.09c.36-.94,1.28-2.57,1.6-3.21.81-1.42,2.16-3.56,3-5.56l1-1.1.06-.2s-2.3-3.8-4.37-1.63l-.08-.09-.25.51c-.37.58-.41.92-.48.83l.45-.82c-.35.59-.18.14-.11-.12a7.17,7.17,0,0,1-.43.67c0,.14.09-.06.16-.15a6.79,6.79,0,0,1-.54,1.23c-.34.62-.18-.05-.58.68-2.1,3.79-4.18,7.45-6.21,11.34-.09.06,0,0,0-.16-.58,1.19-1.14,2.22-1.66,3.31a1.35,1.35,0,0,1-.39.38C145.4,249.42,142.21,255.47,142.13,255.56Z"/><path class="cls-1" d="M151.55,229.33a5.81,5.81,0,0,0-.89,1.17A5.32,5.32,0,0,0,151.55,229.33Z"/><path class="cls-1" d="M150.65,230.51h0l0,0Z"/><path class="cls-1" d="M99.79,324.05l.23-.39C99.94,323.79,99.86,323.92,99.79,324.05Z"/><path class="cls-1" d="M136.51,253l.12.17c-.67,1.11-.39.21-1,1.26,0,.55-1.07,1.69-1.16,2.12,0,0-.33.48-.38.4,0,.23-.29.53-.45.87,0,.14.09-.06.18-.12l-.39.75c-.22.26-.34.28-.17,0-1.2,1.86-6.89,10.89-8.08,13,.26-.2.58-.87.88-1-.24.59-.51.77-.57,1.07-.35.06-.78,1.15-1.26,1.41l0,.24-.25.22a16.23,16.23,0,0,1-1.58,2.67c-.73,1.23-.9,1.92-1.38,2.56.06-.1.31-.32.15,0-.15,0-.43.89-.64,1-.18.31-.81,1.31-.44,1.06-.18.13-.76,1-.5.43a5.45,5.45,0,0,0-.49.81l.28-.36a15.9,15.9,0,0,0-1.33,2.26l.3-.33a3.61,3.61,0,0,1-1,1.27l.34-.65a24.76,24.76,0,0,0-1.41,2.52l.19-.3c-.5,1.17-3.8,6.85-4.21,8l.4-.38-.42.91c.06-.1-.14-.65,0-.71-1.1,1.83-6.8,11.35-7.9,13-.49.64-.27,0-.29,0-.45.85-.08.43-.52,1.13-.14.18-.07-.1,0-.22-.17.32-.39.58-.34.64.27-.36.33-.11.52-.21l-.56.9-.07-.1a4.8,4.8,0,0,1-.65,1.52c-1,1.47-1.91,3.12-2.86,4.61a2.07,2.07,0,0,1,.28-.73,5.59,5.59,0,0,1-.45.67c.32-.3-.32.68-.11.42-.44,1.24-1.52,2.54-2,3.61.16.21,2.3,4.26,2.55,4.41a6.65,6.65,0,0,1-.46.68,3.5,3.5,0,0,0,.66-.95l-.1-.14c.4-.75.18-.12.61-.83.13,0-.25.69-.59,1.27.33-.51.73-1,.74-1.26.34-.46.1.14.5-.42a7.81,7.81,0,0,1,.81-1.49v0c.83-1.09.93-1.88,1.69-2.88l0,.14c.3-.34.66-1.13,1.15-1.77-.14.18-.33.3-.09-.11.55-.74.8-1.31,1.24-1.83l.22-.61c1.68-2.71,8.09-13.52,9.74-16.26l0,.11c2.49-4.18,7.71-12.71,10.19-17.09.51-.6,1.05-1.54,1.5-2.21-.28.36-.27.18-.08-.12,1.3-2.1,0-.18,1.27-2.35,1.41-2.52,7.27-11.86,8.7-14,.56-1.26,1.57-2.66,2.17-3.87l0,.14c.7-1.27,5.11-8.16,5.93-9.63l-.14.18a9.87,9.87,0,0,1,1.39-2c-.25,0,.3-1.11.54-1.53l0,0c.35-.63,1.05-2.12,1.65-3.15l.07.1c.41-.91,1.43-2.48,1.8-3.1.89-1.37,2.37-3.42,3.38-5.36l1-1,.08-.2s-2.07-3.93-4.27-1.89l-.07-.09-.29.49c-.4.56-.45.89-.52.8l.5-.8c-.39.57-.19.13-.11-.12a5.06,5.06,0,0,1-.46.64c0,.14.09-.06.17-.14a6.18,6.18,0,0,1-.62,1.19c-.38.6-.18-.05-.62.64-2.33,3.66-4.63,7.18-6.9,10.93-.09.06,0,0,0-.16-.64,1.15-1.27,2.15-1.86,3.2a1.28,1.28,0,0,1-.41.36C140.14,247.06,136.58,252.9,136.51,253Z"/><path class="cls-1" d="M147.41,227.66a5.69,5.69,0,0,0-1,1.12A5.28,5.28,0,0,0,147.41,227.66Z"/><path class="cls-1" d="M146.43,228.78h0Z"/><path class="cls-1" d="M89.73,319.27l.25-.38A3.11,3.11,0,0,0,89.73,319.27Z"/><path class="cls-1" d="M130.89,250.4l.11.18c-.74,1.07-.4.18-1.05,1.2,0,.55-1.17,1.62-1.29,2.05,0,0-.36.46-.41.38,0,.23-.32.52-.5.84,0,.14.1-.05.19-.11l-.44.73c-.24.25-.36.26-.16,0-1.33,1.79-7.58,10.48-8.89,12.49.27-.19.63-.84.94-1-.28.58-.56.75-.64,1-.36,0-.85,1.11-1.35,1.34l0,.24-.26.2a16.89,16.89,0,0,1-1.75,2.58c-.8,1.19-1,1.87-1.54,2.47.07-.09.33-.3.15,0-.15,0-.49.86-.7.93-.19.31-.88,1.27-.5,1-.19.11-.83,1-.53.39a5.56,5.56,0,0,0-.54.78l.3-.34a15.42,15.42,0,0,0-1.47,2.18l.32-.32a3.43,3.43,0,0,1-1.05,1.22l.38-.63a24.28,24.28,0,0,0-1.56,2.43l.2-.29c-.57,1.14-4.23,6.63-4.7,7.71l.42-.36-.48.89c.07-.1-.1-.66,0-.71-1.22,1.76-7.51,10.94-8.72,12.51-.52.6-.27,0-.28,0-.51.83-.12.43-.6,1.1-.15.17-.06-.1,0-.22-.19.31-.42.56-.38.62.3-.34.33-.09.53-.18l-.62.86-.06-.1a4.85,4.85,0,0,1-.74,1.49c-1,1.41-2.11,3-3.15,4.43,0-.06.14-.38.33-.71a5.58,5.58,0,0,1-.5.65c.34-.28-.36.65-.13.41-.52,1.21-1.68,2.44-2.19,3.49.14.22,2,4.4,2.27,4.57-.21.29-.42.57-.5.65a3.59,3.59,0,0,0,.72-.92l-.09-.14c.44-.73.19-.11.66-.8.13,0-.29.68-.67,1.24.36-.49.78-.93.81-1.21.37-.44.09.14.53-.39a8,8,0,0,1,.9-1.44l0,0c.89-1.05,1-1.83,1.86-2.78l0,.13c.31-.32.73-1.08,1.25-1.69-.15.17-.34.28-.08-.12.6-.71.89-1.27,1.35-1.76l.27-.6c1.85-2.6,8.93-13,10.75-15.67l0,.11c2.75-4,8.5-12.25,11.26-16.48.54-.57,1.14-1.47,1.63-2.12-.3.34-.28.17-.07-.12,1.43-2,0-.19,1.42-2.27,1.56-2.44,8-11.43,9.57-13.47.64-1.24,1.74-2.57,2.42-3.74l-.05.14c.78-1.23,5.62-7.86,6.54-9.28l-.16.17a9.75,9.75,0,0,1,1.52-1.9c-.26,0,.37-1.09.63-1.5l0,0c.39-.61,1.18-2.05,1.85-3.05l.06.1c.47-.88,1.59-2.39,2-3a63.5,63.5,0,0,0,3.72-5.16l1.07-1,.1-.18s-1.82-4.06-4.15-2.15l-.06-.1-.32.47c-.44.53-.51.87-.58.77l.55-.77c-.42.55-.19.12-.09-.13a7.06,7.06,0,0,1-.51.62c0,.14.1-.06.18-.13a6.14,6.14,0,0,1-.69,1.15c-.42.57-.17-.06-.66.6-2.56,3.52-5.08,6.9-7.58,10.52-.1,0,0,0,0-.16-.72,1.11-1.41,2.07-2.06,3.08a1.3,1.3,0,0,1-.43.34C134.89,244.7,131,250.32,130.89,250.4Z"/><path class="cls-1" d="M143.27,226a6.17,6.17,0,0,0-1,1.06A5,5,0,0,0,143.27,226Z"/><path class="cls-1" d="M142.23,227.06h0Z"/><path class="cls-1" d="M79.65,314.48l.28-.36A3.44,3.44,0,0,0,79.65,314.48Z"/><path class="cls-1" d="M125.28,247.83l.1.19c-.81,1-.42.16-1.13,1.14-.08.55-1.28,1.56-1.42,2,0,0-.39.44-.44.36,0,.23-.35.5-.55.81,0,.14.1,0,.2-.1l-.5.71c-.24.23-.37.24-.15-.06-1.44,1.73-8.26,10.07-9.7,12,.28-.17.68-.8,1-.91-.31.56-.61.71-.7,1-.37,0-.93,1.06-1.44,1.27v.24l-.27.19a17.48,17.48,0,0,1-1.91,2.48c-.88,1.14-1.14,1.81-1.7,2.39.07-.1.34-.29.14,0-.14,0-.54.84-.76.9-.21.29-1,1.21-.57,1-.2.1-.89.91-.56.36a7.6,7.6,0,0,0-.59.76l.33-.33a15.62,15.62,0,0,0-1.61,2.11l.34-.31c-.44.58-.81,1.06-1.13,1.16l.42-.61A27.57,27.57,0,0,0,101,279l.22-.28c-.64,1.11-4.66,6.4-5.2,7.46l.44-.34-.53.87c.08-.1-.06-.67,0-.72-1.33,1.7-8.22,10.54-9.53,12-.56.58-.26,0-.28,0-.56.79-.14.42-.67,1.06-.16.16,0-.1,0-.22-.21.3-.46.53-.43.6.33-.33.34-.07.55-.15l-.67.83-.06-.11A4.71,4.71,0,0,1,84,301.4c-1.14,1.35-2.3,2.88-3.43,4.26,0-.06.16-.38.37-.7a5.57,5.57,0,0,1-.54.63c.36-.27-.4.63-.16.4-.6,1.19-1.84,2.35-2.41,3.37.13.23,1.74,4.53,2,4.71a7.18,7.18,0,0,1-.54.63,3.6,3.6,0,0,0,.78-.88l-.08-.15c.49-.7.19-.1.71-.76.12,0-.34.67-.75,1.21.39-.47.85-.89.89-1.18.4-.41.08.15.56-.36a8.11,8.11,0,0,1,1-1.39v0c1-1,1.16-1.77,2.05-2.67l-.05.13c.33-.3.8-1.05,1.36-1.63-.16.17-.36.26-.07-.12.64-.68,1-1.22,1.46-1.69l.31-.58c2-2.5,9.78-12.55,11.77-15.09l-.07.12c3-3.89,9.3-11.79,12.33-15.88a26.74,26.74,0,0,0,1.78-2c-.33.32-.3.14-.07-.13,1.56-1.95,0-.19,1.57-2.2,1.72-2.35,8.75-11,10.44-12.94.72-1.2,1.91-2.47,2.66-3.61l0,.14c.86-1.19,6.13-7.56,7.13-8.92l-.16.16a9.77,9.77,0,0,1,1.64-1.82c-.26,0,.44-1.07.73-1.46l0,0c.43-.59,1.32-2,2.05-2.95l.06.1c.53-.86,1.74-2.31,2.18-2.88,1.07-1.26,2.8-3.14,4.06-5l1.13-.92.11-.18s-1.56-4.17-4-2.39l-.06-.11-.34.46c-.48.51-.58.84-.63.73l.6-.73c-.46.52-.2.11-.09-.14-.19.22-.37.43-.54.59s.09,0,.18-.12a6.08,6.08,0,0,1-.77,1.12c-.45.55-.17-.08-.69.56-2.79,3.38-5.53,6.62-8.27,10.1-.09.05,0,0,0-.15-.79,1.07-1.54,2-2.26,3a1.33,1.33,0,0,1-.45.31C129.65,242.35,125.36,247.76,125.28,247.83Z"/><path class="cls-1" d="M139.14,224.34a5.72,5.72,0,0,0-1.11,1A5.05,5.05,0,0,0,139.14,224.34Z"/><path class="cls-1" d="M138,225.35h0Z"/><path class="cls-1" d="M69.57,309.68l.31-.35A3.38,3.38,0,0,0,69.57,309.68Z"/><path class="cls-1" d="M119.67,245.27l.1.2c-.89,1-.43.13-1.21,1.08-.12.54-1.39,1.5-1.56,1.91,0,0-.42.42-.46.33,0,.24-.38.49-.61.79-.06.13.1,0,.21-.09l-.54.69c-.27.22-.39.22-.15-.07-1.56,1.65-8.94,9.65-10.52,11.52.3-.15.75-.77,1.07-.86-.35.55-.66.68-.77,1-.37,0-1,1-1.53,1.19v.24l-.28.18a18.1,18.1,0,0,1-2.08,2.38c-1,1.1-1.26,1.76-1.86,2.31.08-.09.36-.27.14,0-.14,0-.6.81-.82.86-.24.29-1.05,1.17-.64,1-.21.09-1,.86-.58.33a7.65,7.65,0,0,0-.65.73l.35-.31a16.43,16.43,0,0,0-1.75,2l.36-.29c-.48.55-.88,1-1.2,1.11l.46-.6a27.7,27.7,0,0,0-1.88,2.27l.24-.27c-.72,1.08-5.09,6.17-5.71,7.2l.47-.31-.59.84c.08-.09,0-.68.09-.72-1.45,1.63-8.93,10.13-10.34,11.56-.6.55-.27,0-.28-.07-.62.77-.17.42-.74,1-.17.15-.05-.11,0-.22-.23.28-.5.5-.47.57.35-.31.35-.05.56-.11l-.73.79,0-.11a4.58,4.58,0,0,1-.93,1.4c-1.23,1.3-2.5,2.78-3.72,4.1,0-.07.19-.38.41-.68a4.62,4.62,0,0,1-.58.59c.38-.24-.44.62-.18.4-.68,1.16-2,2.26-2.64,3.25.11.24,1.45,4.65,1.67,4.84-.25.27-.49.53-.58.6A3.82,3.82,0,0,0,70,309l-.07-.15c.54-.68.2-.09.76-.73.13,0-.37.65-.82,1.17.42-.45.9-.85,1-1.13.43-.39.08.16.58-.33a9.29,9.29,0,0,1,1.09-1.34v0c1-.95,1.28-1.71,2.23-2.57l-.06.13c.35-.29.87-1,1.47-1.56-.17.15-.37.24-.06-.13.68-.64,1.05-1.17,1.58-1.61l.34-.57c2.19-2.4,10.62-12.06,12.79-14.5l-.07.11c3.27-3.74,10.09-11.32,13.4-15.26a27,27,0,0,0,1.91-1.94c-.35.31-.31.14-.06-.13,1.69-1.87.05-.18,1.71-2.12,1.88-2.26,9.5-10.55,11.32-12.42.8-1.16,2.07-2.37,2.9-3.47l-.06.13c.94-1.14,6.64-7.25,7.74-8.57l-.18.16a10.53,10.53,0,0,1,1.76-1.74c-.25,0,.52-1.05.83-1.43l0,.05c.46-.57,1.45-1.93,2.24-2.86l.05.11c.59-.83,1.9-2.22,2.38-2.77,1.15-1.21,3-3,4.39-4.75l1.2-.86.12-.18s-1.29-4.28-3.87-2.63l-.05-.11-.38.45c-.5.48-.62.81-.67.7l.65-.71c-.5.51-.21.1-.08-.14a7.73,7.73,0,0,1-.59.57c-.06.13.11-.05.2-.12a6.68,6.68,0,0,1-.85,1.08c-.48.53-.16-.08-.73.53-3,3.24-6,6.34-9,9.68-.1.05,0,0,.06-.15-.87,1-1.68,1.91-2.46,2.86a1.66,1.66,0,0,1-.48.29C124.42,240,119.77,245.21,119.67,245.27Z"/><path class="cls-1" d="M173.93,361.55a7.47,7.47,0,0,0,.33-1.58A5.75,5.75,0,0,0,173.93,361.55Z"/><path class="cls-1" d="M174.26,360h0v0Z"/><path class="cls-1" d="M182,243.3c0,.15,0,.32,0,.49A4,4,0,0,0,182,243.3Z"/><path class="cls-1" d="M177.88,331l-.19-.11c.16-1.42.28-.39.38-1.71-.23-.54.27-2.17.17-2.64,0,0,.11-.63.19-.58-.13-.21,0-.67,0-1.07,0-.16-.06.1-.12.2l0-.93c.09-.36.19-.44.16,0,.33-2.42,1.79-14.05,2-16.67-.15.32-.16,1.14-.38,1.42,0-.7.15-1,.08-1.33.3-.23.23-1.51.57-2l-.13-.22.13-.33a19.75,19.75,0,0,1,.34-3.39c.15-1.56,0-2.33.2-3.18,0,.12-.15.46-.14.05.14-.05,0-1.09.18-1.27,0-.4.19-1.67,0-1.26.12-.21.28-1.35.28-.66a7.24,7.24,0,0,0,.11-1l-.1.49a18.38,18.38,0,0,0,.27-2.86l-.13.47a4.44,4.44,0,0,1,.35-1.72l0,.81c.14-1.29.22-2.07.24-3.16l0,.38c0-1.39.64-8.58.56-9.87l-.21.57v-1.1c0,.13.4.57.34.68.25-2.33,1.51-14.46,1.85-16.6.18-.86.24-.13.26-.12.07-1.06-.1-.47,0-1.36,0-.25.1.06.11.2,0-.4.12-.76.05-.79-.1.48-.25.25-.39.45l.14-1.15.11.06a5.38,5.38,0,0,1,0-1.81c.26-1.91.46-4,.7-5.92a2.45,2.45,0,0,1,0,.86,6.36,6.36,0,0,1,.13-.89c-.16.45,0-.81-.07-.46-.11-1.44.34-3.23.3-4.5-.23-.13-3.86-3.13-4.15-3.16,0-.39.1-.77.13-.89a4.82,4.82,0,0,0-.2,1.26l.15.09c0,.93-.12.2-.21,1.11-.13,0-.07-.8,0-1.54a5.05,5.05,0,0,0-.15,1.59c-.13.62-.15-.08-.29.66a10.06,10.06,0,0,1-.12,1.86l0,0c-.3,1.48-.07,2.3-.35,3.65l0-.15c-.12.47-.13,1.43-.31,2.29.05-.25.17-.45.13.07-.2,1-.19,1.68-.37,2.4l0,.71c-.42,3.47-1.79,17.21-2.16,20.7v-.14c-.54,5.33-1.78,16.24-2.23,21.75-.22.84-.32,2-.46,2.89.11-.48.18-.3.13.08-.32,2.7.06.19-.2,2.93-.24,3.16-1.73,15.18-2.15,18,0,1.52-.33,3.38-.39,4.86l0-.15c-.11,1.59-1.29,10.5-1.43,12.34l0-.24a12.45,12.45,0,0,1-.44,2.62c.22-.14.18,1.24.13,1.77l0,0c-.05.8-.08,2.6-.2,3.91L171,348c0,1.1-.28,3.14-.36,3.92-.24,1.78-.75,4.51-.87,6.91l-.49,1.51v.23s3.51,2.91,4.67-.15l.11.06.05-.63c.14-.74,0-1.1.16-1l-.13,1c.11-.75.11-.22.14.08.05-.32.1-.62.16-.87s-.06.11-.1.22a7.57,7.57,0,0,1,.08-1.47c.09-.76.18,0,.29-.92.62-4.72,1.27-9.3,1.78-14.08.06-.11.05,0,.05.16.12-1.44.28-2.72.38-4a1.48,1.48,0,0,1,.23-.55C177,338.6,177.84,331.14,177.88,331Z"/><path class="cls-1" d="M164,356.72a6.91,6.91,0,0,0,.41-1.53A5.63,5.63,0,0,0,164,356.72Z"/><path class="cls-1" d="M164.39,355.18h0v0Z"/><path class="cls-1" d="M177.81,241.64c0,.14-.05.31-.07.48C177.77,242,177.79,241.8,177.81,241.64Z"/><path class="cls-1" d="M169.41,327.12l-.18-.13c.23-1.37.29-.36.46-1.64-.2-.55.38-2.11.3-2.58,0,0,.14-.61.22-.55-.12-.22.07-.65.1-1.05,0-.15-.07.1-.13.2l.1-.91c.1-.35.21-.42.16,0,.45-2.35,2.47-13.63,2.82-16.18-.17.31-.22,1.11-.45,1.37,0-.68.2-1,.14-1.29.31-.21.31-1.46.66-1.93l-.12-.22.15-.31a20,20,0,0,1,.51-3.3c.23-1.52.14-2.27.35-3.1,0,.13-.17.44-.14,0,.14,0,.08-1.06.24-1.23.05-.39.27-1.63,0-1.24.13-.19.35-1.3.32-.62a8.24,8.24,0,0,0,.16-1l-.13.47a17.74,17.74,0,0,0,.41-2.78l-.15.45a4,4,0,0,1,.44-1.66l-.08.79c.21-1.26.32-2,.4-3.08l-.07.38c0-1.37,1.05-8.35,1-9.62l-.23.54.06-1.07c0,.12.36.58.3.68.36-2.26,2.21-14,2.65-16.11.22-.83.25-.11.27-.1.12-1-.07-.47.08-1.34.07-.23.1.07.1.21,0-.39.16-.73.1-.77-.13.47-.27.24-.42.42l.2-1.12.1.07a5.59,5.59,0,0,1,.05-1.78c.36-1.85.65-3.87,1-5.73a2.2,2.2,0,0,1,0,.83,4.57,4.57,0,0,1,.18-.85c-.2.43.05-.8-.06-.46,0-1.41.5-3.14.52-4.38-.22-.14-3.7-3.27-4-3.32.07-.37.14-.74.18-.85a4,4,0,0,0-.26,1.21l.14.09c-.1.91-.13.2-.26,1.08-.14,0,0-.79.08-1.5a5.1,5.1,0,0,0-.23,1.55c-.15.59-.14-.1-.32.62a8.32,8.32,0,0,1-.21,1.81l0,0c-.37,1.43-.18,2.25-.52,3.55l0-.15c-.15.45-.21,1.39-.43,2.22.07-.24.2-.43.13.08-.24.95-.27,1.63-.49,2.32v.7c-.59,3.37-2.63,16.71-3.17,20.1v-.13c-.79,5.17-2.57,15.76-3.29,21.12-.25.81-.41,1.95-.59,2.8.13-.47.19-.29.12.08-.45,2.62,0,.19-.33,2.86-.4,3.07-2.47,14.73-3,17.43-.06,1.48-.5,3.28-.62,4.72l0-.15c-.19,1.54-1.8,10.19-2,12l.07-.23a11.55,11.55,0,0,1-.58,2.54c.23-.13.12,1.22.05,1.73l0,0c-.09.77-.2,2.53-.39,3.8l-.1-.06c-.06,1.07-.44,3-.55,3.8-.33,1.73-1,4.37-1.21,6.71l-.56,1.44v.22s3.37,3,4.68.11l.1.07.09-.61c.17-.71.1-1.07.2-1l-.18,1c.15-.72.13-.2.14.08.06-.3.13-.59.2-.83s-.06.1-.1.21a6.71,6.71,0,0,1,.14-1.43c.13-.75.18,0,.34-.89.85-4.58,1.72-9,2.47-13.66.06-.1,0,0,0,.17.19-1.41.41-2.65.58-3.93a1.48,1.48,0,0,1,.25-.53C168.17,334.47,169.37,327.23,169.41,327.12Z"/><path class="cls-1" d="M154,351.9a6.66,6.66,0,0,0,.48-1.47A5.17,5.17,0,0,0,154,351.9Z"/><path class="cls-1" d="M154.52,350.42h0v0Z"/><path class="cls-1" d="M173.61,240c0,.14-.06.3-.09.46A3.73,3.73,0,0,0,173.61,240Z"/><path class="cls-1" d="M160.94,323.21l-.18-.13c.3-1.33.31-.33.54-1.58-.17-.55.49-2.05.43-2.51,0,0,.17-.58.24-.53-.1-.22.11-.63.16-1,0-.14-.07.09-.14.19l.14-.89c.13-.33.23-.39.17,0,.56-2.27,3.15-13.2,3.62-15.68-.18.29-.27,1.07-.52,1.32,0-.67.25-.95.21-1.26.32-.19.38-1.42.76-1.85l-.11-.22.17-.3a18.36,18.36,0,0,1,.67-3.2c.3-1.47.25-2.22.51-3,0,.12-.19.43-.15,0,.15,0,.13-1,.31-1.19.06-.38.35-1.58.08-1.21.13-.19.41-1.25.35-.6a8.25,8.25,0,0,0,.21-1l-.16.45a16.09,16.09,0,0,0,.55-2.7l-.17.43a3.93,3.93,0,0,1,.52-1.6l-.12.77a29.25,29.25,0,0,0,.55-3l-.08.36c.11-1.33,1.47-8.11,1.51-9.35l-.26.51.11-1c0,.12.34.6.27.69.48-2.2,2.92-13.62,3.46-15.63.26-.8.25-.09.27-.08.17-1-.05-.46.15-1.3.08-.23.1.07.09.2.07-.37.19-.7.13-.75-.15.45-.28.22-.43.39l.25-1.08.1.07a5.14,5.14,0,0,1,.14-1.74c.45-1.79.85-3.75,1.27-5.56a2.09,2.09,0,0,1,0,.82,5.62,5.62,0,0,1,.22-.83c-.21.41.09-.77,0-.44,0-1.39.65-3,.74-4.26-.22-.16-3.53-3.42-3.81-3.49a6.69,6.69,0,0,1,.22-.83,4,4,0,0,0-.33,1.18l.14.1c-.14.88-.14.18-.32,1-.13,0,0-.77.16-1.47a4.5,4.5,0,0,0-.3,1.5c-.19.58-.14-.09-.35.6a8.93,8.93,0,0,1-.31,1.76v0c-.45,1.37-.3,2.19-.71,3.44v-.15c-.17.44-.27,1.35-.53,2.15.07-.22.21-.41.11.09-.28.92-.35,1.58-.6,2.24l0,.69c-.76,3.26-3.46,16.22-4.18,19.51v-.13c-1.05,5-3.35,15.29-4.34,20.5-.3.77-.52,1.88-.74,2.71.16-.46.21-.28.12.08-.58,2.54.05.19-.48,2.78-.55,3-3.2,14.29-3.89,16.9-.14,1.45-.66,3.18-.86,4.59v-.15c-.27,1.5-2.31,9.88-2.63,11.62l.08-.23a11.3,11.3,0,0,1-.7,2.46c.23-.12.06,1.2,0,1.69l0,0c-.13.75-.33,2.46-.58,3.7l-.1-.08c-.11,1.05-.58,3-.74,3.7-.42,1.67-1.18,4.22-1.54,6.5l-.63,1.38,0,.22s3.2,3.17,4.66.38l.1.07.11-.59c.21-.69.16-1.05.26-1l-.23,1c.19-.7.14-.2.14.09a6.08,6.08,0,0,1,.24-.81c0-.15-.07.09-.12.2a6.66,6.66,0,0,1,.22-1.39c.17-.73.18,0,.38-.85,1.08-4.44,2.17-8.73,3.15-13.24.06-.09,0,0,0,.16.25-1.36.54-2.57.77-3.81a1.36,1.36,0,0,1,.28-.5C159.33,330.35,160.89,323.32,160.94,323.21Z"/><path class="cls-1" d="M144.07,347.08a6.38,6.38,0,0,0,.55-1.42A5.13,5.13,0,0,0,144.07,347.08Z"/><path class="cls-1" d="M144.63,345.65h0v0Z"/><path class="cls-1" d="M169.43,238.31q-.06.21-.12.45C169.35,238.61,169.4,238.46,169.43,238.31Z"/><path class="cls-1" d="M152.45,319.32l-.17-.14c.37-1.3.33-.32.62-1.53-.14-.54.59-2,.57-2.43,0,0,.19-.57.26-.51-.09-.22.14-.61.21-1,0-.15-.08.08-.15.17L154,313c.14-.32.25-.37.16,0,.68-2.2,3.84-12.78,4.44-15.19-.2.28-.33,1-.59,1.27.08-.66.3-.92.27-1.23.33-.17.46-1.37.86-1.77l-.1-.22.18-.29a18,18,0,0,1,.84-3.1c.38-1.43.36-2.16.66-2.93,0,.12-.21.4-.15,0,.15,0,.19-1,.37-1.15.09-.36.44-1.52.15-1.18.14-.17.47-1.21.37-.56a6,6,0,0,0,.26-.95l-.17.44a16.74,16.74,0,0,0,.69-2.63l-.2.42a3.86,3.86,0,0,1,.6-1.54l-.15.75a28.58,28.58,0,0,0,.7-2.9l-.1.34c.18-1.3,1.89-7.88,2-9.1l-.28.5.16-1c0,.12.31.61.24.69.59-2.13,3.61-13.2,4.26-15.14.3-.77.26-.08.27-.07.23-1,0-.45.22-1.27.09-.22.09.08.08.21.08-.36.23-.68.17-.73-.18.44-.29.2-.46.36l.32-1,.09.07a5,5,0,0,1,.23-1.69c.54-1.74,1-3.64,1.56-5.39.06,0,0,.42-.08.8a5.37,5.37,0,0,1,.27-.8c-.24.39.13-.76,0-.44.1-1.36.81-2.95,1-4.14-.21-.16-3.34-3.57-3.62-3.65a7.54,7.54,0,0,1,.26-.8,4,4,0,0,0-.39,1.13l.13.11c-.18.86-.14.17-.36,1-.14,0,0-.76.23-1.43a4.32,4.32,0,0,0-.38,1.46c-.21.55-.13-.11-.38.56a8.72,8.72,0,0,1-.39,1.71l0,0c-.51,1.33-.41,2.13-.88,3.34v-.14c-.2.41-.35,1.31-.65,2.08.09-.22.23-.39.11.09-.33.88-.43,1.53-.71,2.16l-.07.68c-.92,3.16-4.29,15.72-5.17,18.91v-.13c-1.31,4.87-4.14,14.82-5.4,19.88-.33.74-.61,1.82-.87,2.62.17-.44.21-.26.11.09-.71,2.46,0,.19-.62,2.69-.7,2.91-3.94,13.85-4.76,16.37-.22,1.42-.83,3.09-1.1,4.46v-.15c-.35,1.46-2.82,9.57-3.23,11.26l.09-.22a11.33,11.33,0,0,1-.82,2.37c.23-.1,0,1.19-.13,1.67l0,0c-.17.73-.46,2.4-.77,3.6l-.1-.08c-.16,1-.74,2.87-.93,3.59-.5,1.61-1.4,4.07-1.87,6.29l-.71,1.32,0,.21s3,3.31,4.63.65l.09.08.15-.57c.25-.67.21-1,.31-.94l-.28.93c.22-.68.14-.19.13.09a7.47,7.47,0,0,1,.28-.77c0-.15-.07.08-.13.18a7.29,7.29,0,0,1,.29-1.35c.21-.7.19,0,.43-.81,1.31-4.3,2.62-8.45,3.83-12.82.07-.08,0,0,0,.17.33-1.33.67-2.5,1-3.71a1.34,1.34,0,0,1,.3-.47C150.48,326.23,152.4,319.42,152.45,319.32Z"/><path class="cls-1" d="M134.09,342.26a6,6,0,0,0,.64-1.36A5.23,5.23,0,0,0,134.09,342.26Z"/><path class="cls-1" d="M134.73,340.89h0v0Z"/><path class="cls-1" d="M165.25,236.64l-.14.44A4.43,4.43,0,0,0,165.25,236.64Z"/><path class="cls-1" d="M144,315.42l-.16-.15c.44-1.25.35-.29.7-1.46-.11-.55.7-1.91.7-2.36,0,0,.22-.55.29-.49-.08-.22.17-.59.26-1,0-.15-.08.08-.16.16l.24-.84c.15-.3.27-.35.16,0,.8-2.12,4.51-12.36,5.24-14.69-.21.26-.38,1-.65,1.21.11-.65.34-.89.34-1.19.33-.15.52-1.32.94-1.69l-.08-.23.19-.27a18.24,18.24,0,0,1,1-3c.46-1.38.49-2.1.83-2.84,0,.11-.24.38-.15,0,.15,0,.24-1,.43-1.11.1-.35.51-1.48.2-1.16.16-.16.54-1.16.41-.53a7.67,7.67,0,0,0,.31-.92l-.2.42a15.58,15.58,0,0,0,.83-2.54l-.22.4a3.78,3.78,0,0,1,.68-1.48l-.19.73c.39-1.15.62-1.84.86-2.82l-.12.34c.25-1.27,2.31-7.66,2.48-8.85l-.31.47.22-1c0,.11.27.62.19.7.71-2.07,4.32-12.8,5.07-14.66.34-.74.26-.07.28-.05.27-.95,0-.45.28-1.24.1-.21.09.08.07.21.1-.35.26-.66.21-.71-.2.42-.3.18-.47.32l.36-1,.09.08a5.17,5.17,0,0,1,.32-1.66c.63-1.67,1.24-3.52,1.85-5.21a2.14,2.14,0,0,1-.12.79,4.88,4.88,0,0,1,.31-.78c-.26.38.17-.74,0-.43.18-1.33,1-2.86,1.18-4-.2-.18-3.14-3.73-3.41-3.82a7.35,7.35,0,0,1,.3-.78,3.78,3.78,0,0,0-.44,1.1l.12.11c-.23.84-.15.16-.42,1-.13,0,.1-.74.31-1.39a4.36,4.36,0,0,0-.46,1.41c-.24.53-.12-.11-.4.53a8.61,8.61,0,0,1-.49,1.66l0,0c-.58,1.28-.51,2.08-1.06,3.24v-.15c-.22.41-.41,1.27-.75,2,.1-.21.25-.37.1.1-.38.85-.51,1.48-.83,2.09l-.1.66c-1.09,3.06-5.13,15.23-6.18,18.32l0-.13c-1.57,4.72-4.93,14.35-6.46,19.26-.37.71-.7,1.75-1,2.53.2-.42.23-.25.11.09-.84,2.38,0,.19-.77,2.62-.85,2.82-4.67,13.4-5.63,15.84-.29,1.38-1,3-1.33,4.32v-.14c-.42,1.41-3.32,9.25-3.82,10.89l.1-.21a11,11,0,0,1-.95,2.28c.24-.08-.07,1.17-.22,1.64l0,0c-.21.7-.59,2.34-1,3.5l-.09-.08c-.22,1-.89,2.78-1.12,3.47-.59,1.56-1.62,3.93-2.21,6.08l-.77,1.26,0,.21s2.84,3.45,4.57.93l.09.08.18-.55c.28-.65.27-1,.36-.91l-.33.9c.26-.66.15-.17.13.1a6.76,6.76,0,0,1,.32-.75c0-.14-.08.08-.14.18a6.72,6.72,0,0,1,.36-1.32c.25-.67.19,0,.47-.77,1.54-4.15,3.07-8.16,4.51-12.39.08-.08,0,0,0,.16.4-1.29.81-2.41,1.17-3.59a1.2,1.2,0,0,1,.33-.45C141.61,322.11,143.89,315.52,144,315.42Z"/><path class="cls-1" d="M124.11,337.44a5.69,5.69,0,0,0,.71-1.3A5.05,5.05,0,0,0,124.11,337.44Z"/><path class="cls-1" d="M124.83,336.13h0v0Z"/><path class="cls-1" d="M161.09,235l-.17.42C161,235.25,161,235.11,161.09,235Z"/><path class="cls-1" d="M135.45,311.53l-.16-.16c.51-1.21.36-.26.78-1.4-.08-.55.8-1.85.83-2.3,0,0,.25-.52.32-.46-.08-.22.2-.57.31-.94,0-.14-.08.08-.17.16l.28-.82c.18-.29.29-.33.17,0,.91-2.05,5.19-11.93,6-14.19-.22.24-.44,1-.71,1.15.15-.63.39-.86.4-1.16.34-.12.6-1.27,1-1.61l-.07-.23.21-.25a16.59,16.59,0,0,1,1.16-2.91c.53-1.34.6-2.06,1-2.77-.05.11-.26.37-.15,0,.15,0,.29-1,.49-1.07.13-.34.6-1.43.27-1.13.16-.15.61-1.11.44-.5a6.92,6.92,0,0,0,.36-.89l-.22.4a15.29,15.29,0,0,0,1-2.46l-.23.38a3.46,3.46,0,0,1,.76-1.42l-.23.71c.45-1.11.72-1.78,1-2.73l-.14.32c.32-1.24,2.73-7.42,3-8.59l-.34.44.27-1c0,.11.24.63.16.7.82-2,5-12.38,5.87-14.18.38-.71.27,0,.28,0,.33-.92,0-.44.36-1.2.11-.2.08.08.05.21.12-.34.3-.64.25-.69-.22.4-.31.16-.49.29l.42-1,.09.09a4.52,4.52,0,0,1,.41-1.62c.72-1.62,1.43-3.41,2.13-5a2,2,0,0,1-.16.77,4.2,4.2,0,0,1,.35-.74c-.28.35.21-.72,0-.43.25-1.31,1.12-2.77,1.4-3.91-.19-.18-2.92-3.88-3.19-4a6.44,6.44,0,0,1,.35-.75,3.72,3.72,0,0,0-.51,1.06l.12.12c-.28.81-.16.15-.48.93-.13,0,.14-.73.39-1.37a4.13,4.13,0,0,0-.53,1.37c-.27.51-.12-.12-.44.5a7.83,7.83,0,0,1-.58,1.61v0c-.65,1.22-.63,2-1.24,3.13l0-.14c-.24.39-.49,1.23-.87,1.94.11-.2.27-.35.1.1-.43.83-.59,1.44-1,2l-.13.65c-1.26,2.95-6,14.73-7.19,17.72l0-.12c-1.83,4.56-5.72,13.87-7.51,18.63-.42.68-.81,1.69-1.16,2.43.23-.4.25-.22.11.11-1,2.3,0,.18-.91,2.54-1,2.73-5.41,12.95-6.5,15.3-.37,1.35-1.16,2.89-1.58,4.19v-.14c-.49,1.37-3.82,8.94-4.42,10.53l.12-.2a10.48,10.48,0,0,1-1.08,2.2c.25-.07-.13,1.15-.31,1.6l0,0c-.25.68-.72,2.27-1.16,3.4l-.08-.09c-.28,1-1,2.7-1.32,3.37-.67,1.5-1.83,3.78-2.54,5.87l-.84,1.2-.05.2s2.64,3.59,4.51,1.21l.08.08.21-.53c.32-.62.32-1,.41-.88l-.38.87c.3-.63.16-.16.12.11a8,8,0,0,1,.36-.72c0-.14-.08.08-.14.17a6,6,0,0,1,.43-1.28c.28-.66.18,0,.51-.74,1.76-4,3.51-7.87,5.19-12,.08-.07,0,0,0,.16.47-1.24.94-2.33,1.36-3.47a1.65,1.65,0,0,1,.36-.43C132.74,318,135.38,311.62,135.45,311.53Z"/><path class="cls-1" d="M114.12,332.62a5.65,5.65,0,0,0,.79-1.25A5,5,0,0,0,114.12,332.62Z"/><path class="cls-1" d="M114.91,331.37h0Z"/><path class="cls-1" d="M156.94,233.3l-.2.41C156.81,233.58,156.88,233.44,156.94,233.3Z"/><path class="cls-1" d="M126.93,307.63l-.15-.16c.57-1.17.38-.24.86-1.35,0-.54.91-1.78,1-2.22,0,0,.28-.51.34-.44-.06-.23.24-.56.37-.91,0-.14-.09.07-.18.14l.33-.79c.19-.28.31-.31.16,0,1-2,5.87-11.51,6.86-13.7-.24.23-.5.93-.79,1.1.19-.61.45-.82.47-1.12.35-.1.67-1.22,1.13-1.53l-.06-.24.23-.24a16.88,16.88,0,0,1,1.33-2.81c.61-1.29.71-2,1.13-2.68,0,.11-.27.35-.14,0,.14,0,.34-.93.54-1,.15-.34.68-1.39.34-1.11.17-.14.67-1.06.46-.47a6.68,6.68,0,0,0,.42-.86l-.25.39a15.58,15.58,0,0,0,1.11-2.38l-.26.36a3.49,3.49,0,0,1,.84-1.36l-.27.68a27,27,0,0,0,1.17-2.64l-.16.31c.39-1.21,3.15-7.19,3.46-8.33l-.37.42.34-.95c-.06.1.2.63.11.7.93-1.92,5.72-12,6.68-13.69.42-.68.26,0,.28,0,.38-.89.05-.44.42-1.18.12-.19.08.09,0,.22.15-.34.34-.61.29-.67-.24.38-.32.14-.5.26l.48-1,.07.09a4.88,4.88,0,0,1,.51-1.58c.81-1.55,1.62-3.29,2.42-4.86.05.05-.08.4-.21.75a4.81,4.81,0,0,1,.39-.71c-.29.33.26-.7.06-.43.33-1.28,1.29-2.67,1.63-3.78-.18-.2-2.69-4-2.95-4.17a6.52,6.52,0,0,1,.39-.71,3.39,3.39,0,0,0-.56,1l.11.13c-.33.79-.17.14-.53.89-.13,0,.18-.72.46-1.33a4.2,4.2,0,0,0-.61,1.32c-.3.49-.11-.12-.46.47a8.33,8.33,0,0,1-.67,1.56l0,0c-.72,1.17-.74,2-1.41,3l0-.14c-.26.37-.55,1.19-1,1.87.12-.19.29-.33.09.11-.47.79-.68,1.38-1.06,1.94l-.17.63c-1.42,2.86-6.81,14.25-8.2,17.13l0-.12c-2.09,4.41-6.51,13.4-8.57,18a26.38,26.38,0,0,0-1.29,2.34c.24-.38.25-.2.09.11-1.1,2.22,0,.19-1.05,2.46-1.17,2.65-6.15,12.52-7.37,14.77-.44,1.32-1.32,2.8-1.81,4.06l0-.14c-.58,1.34-4.34,8.63-5,10.17l.12-.19a9.82,9.82,0,0,1-1.2,2.11c.25-.05-.2,1.13-.4,1.57l0,0c-.28.66-.85,2.21-1.35,3.3l-.08-.1c-.33.95-1.2,2.61-1.5,3.26-.77,1.45-2,3.64-2.88,5.67l-.91,1.13-.06.2s2.42,3.73,4.43,1.49l.07.09.24-.52c.35-.6.38-.94.46-.85l-.43.84c.33-.6.17-.15.12.12a6,6,0,0,1,.4-.69c0-.14-.09.07-.16.15a6.64,6.64,0,0,1,.51-1.24c.32-.63.18,0,.55-.7,2-3.86,4-7.59,5.87-11.54.08-.07,0,0,0,.16.54-1.21,1.08-2.26,1.56-3.36a1.3,1.3,0,0,1,.38-.4C123.85,313.87,126.86,307.72,126.93,307.63Z"/><path class="cls-1" d="M104.13,327.8a6,6,0,0,0,.85-1.19A4.86,4.86,0,0,0,104.13,327.8Z"/><path class="cls-1" d="M105,326.6h0v0Z"/><path class="cls-1" d="M152.79,231.64c-.06.12-.14.25-.21.39C152.65,231.9,152.73,231.77,152.79,231.64Z"/><path class="cls-1" d="M118.4,303.73l-.14-.17c.64-1.13.39-.22.94-1.28,0-.55,1-1.72,1.09-2.16,0,0,.31-.48.37-.41,0-.23.26-.54.41-.88,0-.14-.08.06-.17.12l.37-.76c.21-.27.32-.29.16,0,1.15-1.9,6.54-11.09,7.66-13.21-.26.21-.55.89-.85,1.05.22-.6.49-.79.54-1.09.35-.08.74-1.17,1.21-1.45l0-.24.24-.22a16,16,0,0,1,1.49-2.72c.69-1.25.84-1.94,1.3-2.6-.06.11-.3.33-.15,0,.15,0,.4-.9.61-1,.16-.32.76-1.33.4-1.08.18-.13.73-1,.49-.44a5.49,5.49,0,0,0,.46-.83l-.27.37a14.08,14.08,0,0,0,1.25-2.3l-.28.35a3.6,3.6,0,0,1,.92-1.3l-.31.66c.58-1,.92-1.65,1.33-2.56l-.18.3c.46-1.18,3.57-7,3.95-8.07l-.39.39.39-.92c-.06.1.16.64.07.7,1-1.85,6.43-11.54,7.48-13.2.46-.65.27,0,.28,0,.44-.86.08-.43.5-1.14.13-.18.07.09,0,.21.16-.32.37-.58.32-.64-.26.36-.32.11-.52.22l.54-.91.07.1a4.57,4.57,0,0,1,.6-1.55c.91-1.49,1.81-3.17,2.71-4.68a2.21,2.21,0,0,1-.26.73,6.71,6.71,0,0,1,.43-.69c-.31.32.3-.68.09-.41.41-1.26,1.45-2.58,1.85-3.66-.16-.21-2.44-4.19-2.69-4.34.18-.3.36-.61.43-.69a3.87,3.87,0,0,0-.62,1l.1.13c-.37.76-.18.13-.58.85-.13,0,.23-.7.55-1.29a4.09,4.09,0,0,0-.69,1.28c-.33.47-.11-.13-.49.44a8.55,8.55,0,0,1-.76,1.51l0,0c-.79,1.12-.86,1.91-1.59,2.92l0-.13c-.28.34-.62,1.14-1.09,1.8.14-.19.32-.31.09.11-.52.75-.76,1.33-1.17,1.86l-.21.62c-1.59,2.75-7.65,13.75-9.21,16.54l.05-.12c-2.35,4.26-7.3,12.93-9.63,17.38-.49.62-1,1.57-1.43,2.25.27-.36.27-.19.09.12-1.24,2.14,0,.18-1.2,2.38-1.33,2.56-6.88,12.07-8.24,14.24-.52,1.28-1.49,2.7-2,3.93l0-.14c-.66,1.29-4.84,8.31-5.62,9.8l.14-.18a10.19,10.19,0,0,1-1.33,2c.26,0-.26,1.11-.49,1.54l0,0c-.32.64-1,2.15-1.54,3.2l-.08-.1c-.38.92-1.35,2.52-1.69,3.15-.85,1.4-2.26,3.49-3.22,5.46l-1,1.07-.07.19s2.19,3.86,4.32,1.76l.08.09.27-.5c.38-.57.43-.9.5-.81l-.48.81c.37-.58.19-.14.11.12.15-.24.3-.48.44-.66s-.09.06-.16.15a6.31,6.31,0,0,1,.58-1.21c.36-.61.18.05.6-.66,2.21-3.72,4.4-7.3,6.54-11.12.09-.06,0,0,0,.16.61-1.17,1.21-2.18,1.76-3.25a1.24,1.24,0,0,1,.4-.37C115,309.75,118.32,303.81,118.4,303.73Z"/><path class="cls-1" d="M94.12,323a6.26,6.26,0,0,0,.93-1.14A4.87,4.87,0,0,0,94.12,323Z"/><path class="cls-1" d="M95.05,321.83h0v0Z"/><path class="cls-1" d="M148.66,230l-.24.39C148.5,230.23,148.59,230.1,148.66,230Z"/><path class="cls-1" d="M109.86,299.83l-.13-.18c.71-1.09.4-.19,1-1.23,0-.54,1.11-1.65,1.22-2.08,0,0,.34-.47.39-.39,0-.23.3-.52.47-.85,0-.14-.09,0-.18.11l.42-.74c.22-.25.34-.27.16,0,1.26-1.83,7.21-10.67,8.46-12.71-.27.19-.61.86-.91,1,.26-.58.54-.76.6-1.05.36-.06.81-1.13,1.31-1.38l0-.23.25-.22a16,16,0,0,1,1.66-2.61c.76-1.21,1-1.9,1.45-2.52-.06.1-.31.31-.15,0,.15,0,.46-.87.67-.95.19-.31.84-1.28.47-1.05.19-.12.79-1,.52-.41a5.2,5.2,0,0,0,.51-.8l-.29.35a14.73,14.73,0,0,0,1.39-2.22l-.3.33c.38-.6.69-1.11,1-1.24l-.35.64a28.19,28.19,0,0,0,1.48-2.47l-.2.29c.53-1.15,4-6.73,4.44-7.82l-.41.37.45-.9c-.07.1.12.65,0,.71,1.15-1.79,7.13-11.13,8.28-12.72.5-.62.27,0,.28,0,.49-.84.11-.43.57-1.11.14-.18.06.1,0,.21.18-.31.41-.56.37-.62-.29.35-.33.1-.53.19l.59-.87.06.1a4.9,4.9,0,0,1,.7-1.51c1-1.44,2-3.05,3-4.51,0,.06-.13.39-.3.72a5.24,5.24,0,0,1,.47-.66c-.33.29.34-.66.12-.41.48-1.23,1.6-2.49,2.07-3.54-.15-.22-2.17-4.34-2.42-4.49a7,7,0,0,1,.48-.67,3.59,3.59,0,0,0-.69.94l.1.14c-.42.74-.19.11-.63.81-.13,0,.26-.69.62-1.25-.34.49-.75.95-.77,1.23-.36.45-.1-.14-.52.41a7.88,7.88,0,0,1-.85,1.46v0c-.86,1.07-1,1.85-1.77,2.82l0-.14c-.31.33-.7,1.11-1.2,1.73.15-.17.33-.29.08.12-.56.72-.84,1.29-1.28,1.79l-.25.61c-1.76,2.64-8.48,13.25-10.22,15.93l.06-.11c-2.61,4.1-8.09,12.46-10.7,16.76-.52.59-1.09,1.5-1.56,2.16.29-.35.28-.17.08.12-1.36,2.06,0,.18-1.34,2.31-1.48,2.47-7.62,11.62-9.11,13.7-.6,1.25-1.65,2.61-2.29,3.8l0-.14c-.74,1.25-5.35,8-6.21,9.44l.14-.18a9.86,9.86,0,0,1-1.45,1.95c.26,0-.33,1.09-.58,1.5l0,0c-.37.63-1.11,2.09-1.74,3.1l-.07-.1c-.44.9-1.51,2.44-1.89,3-.93,1.34-2.47,3.34-3.54,5.25l-1,1-.09.19s2,4,4.21,2l.07.1.3-.49c.42-.54.49-.87.55-.77l-.52.77c.4-.55.19-.12.1.13a7.35,7.35,0,0,1,.48-.63c0-.14-.09.06-.17.13a6.22,6.22,0,0,1,.65-1.16c.4-.59.18.06.64-.62,2.44-3.58,4.84-7,7.22-10.7.09-.06,0,0,0,.15.68-1.13,1.34-2.1,2-3.13a1.46,1.46,0,0,1,.42-.35C106,305.63,109.78,299.9,109.86,299.83Z"/><path class="cls-1" d="M84.11,318.15a6.1,6.1,0,0,0,1-1.09A4.88,4.88,0,0,0,84.11,318.15Z"/><path class="cls-1" d="M85.11,317.06h0Z"/><path class="cls-1" d="M144.53,228.32l-.26.37A4.17,4.17,0,0,0,144.53,228.32Z"/><path class="cls-1" d="M101.31,295.92l-.11-.19c.77-1.05.41-.17,1.09-1.16,0-.55,1.22-1.59,1.35-2,0,0,.37-.44.42-.36,0-.24.33-.51.52-.83,0-.13-.09.05-.19.1l.47-.71c.24-.24.36-.25.15.05,1.38-1.76,7.89-10.25,9.27-12.22-.28.18-.66.82-1,.94.29-.57.58-.73.66-1,.37,0,.89-1.08,1.4-1.3l0-.24.27-.19a16.82,16.82,0,0,1,1.83-2.53c.83-1.16,1.07-1.83,1.61-2.42-.07.09-.34.29-.15,0,.15,0,.52-.85.73-.92.21-.3.92-1.23.54-1,.19-.11.85-.93.54-.38a5.85,5.85,0,0,0,.56-.77L121,269a16.08,16.08,0,0,0,1.53-2.14l-.32.31c.42-.58.76-1.07,1.08-1.19l-.4.63a27.22,27.22,0,0,0,1.64-2.39l-.22.28c.61-1.12,4.43-6.49,4.94-7.56l-.43.34.5-.87c-.07.09.08.66,0,.71,1.27-1.72,7.84-10.71,9.1-12.24.54-.59.26,0,.27,0,.54-.81.13-.42.64-1.08.15-.16.06.11,0,.22.2-.3.44-.54.4-.6-.31.33-.33.07-.54.16l.65-.84.06.1a4.38,4.38,0,0,1,.79-1.46c1.08-1.38,2.2-2.94,3.27-4.34,0,.06-.15.38-.34.7a6.37,6.37,0,0,1,.51-.63c-.35.27.38-.64.15-.4.55-1.2,1.75-2.4,2.29-3.43-.14-.22-1.89-4.46-2.13-4.64a6.33,6.33,0,0,1,.52-.63,3.52,3.52,0,0,0-.74.89l.08.15c-.46.71-.19.1-.68.78-.13,0,.31-.67.7-1.22-.37.48-.81.91-.85,1.19-.38.42-.08-.15-.54.37a8,8,0,0,1-.94,1.41l0,0c-.92,1-1.09,1.8-1.94,2.72l0-.13c-.32.31-.76,1.07-1.3,1.66.16-.17.35-.27.07.12-.61.69-.92,1.24-1.4,1.72l-.28.59c-1.93,2.54-9.33,12.75-11.23,15.34l.06-.12c-2.87,4-8.87,12-11.75,16.14a26.36,26.36,0,0,0-1.7,2.07c.31-.33.29-.16.07.13-1.49,2,0,.18-1.49,2.22-1.64,2.39-8.35,11.18-10,13.18-.68,1.21-1.82,2.51-2.53,3.66l0-.13c-.81,1.2-5.85,7.68-6.81,9.07l.16-.17a10.13,10.13,0,0,1-1.57,1.86c.25,0-.41,1.08-.68,1.48l0-.05c-.4.61-1.24,2-1.93,3l-.07-.1c-.5.87-1.66,2.34-2.08,2.93-1,1.28-2.68,3.19-3.87,5l-1.1.95-.1.18s1.69,4.11,4.08,2.28l.06.1.33-.47c.45-.52.54-.85.6-.74l-.57.74c.44-.53.19-.11.09.14.18-.23.36-.44.52-.61s-.1.06-.18.13a6.33,6.33,0,0,1,.73-1.13c.43-.56.17.07.67-.59,2.67-3.43,5.29-6.73,7.9-10.27.1-.06,0,0,0,.15.76-1.09,1.47-2,2.16-3a1.37,1.37,0,0,1,.44-.32C97.13,301.49,101.22,296,101.31,295.92Z"/><path class="cls-1" d="M74.09,313.31a6.23,6.23,0,0,0,1.07-1A4.64,4.64,0,0,0,74.09,313.31Z"/><path class="cls-1" d="M75.17,312.27Z"/><path class="cls-1" d="M140.42,226.67l-.29.36Z"/><path class="cls-1" d="M92.75,292l-.1-.2c.85-1,.42-.14,1.17-1.1.09-.55,1.33-1.52,1.48-1.94,0,0,.4-.43.45-.34,0-.24.36-.49.58-.81,0-.13-.1.05-.2.1l.51-.69c.25-.23.38-.23.15.06,1.5-1.68,8.57-9.83,10.07-11.73-.29.17-.71.79-1,.89.33-.56.63-.7.73-1,.37,0,1-1,1.48-1.22v-.24l.28-.18a18.83,18.83,0,0,1,2-2.43c.92-1.11,1.2-1.78,1.78-2.34-.08.09-.36.27-.15,0,.15,0,.57-.82.79-.87.23-.29,1-1.19.61-1,.2-.09.91-.88.56-.35a6.05,6.05,0,0,0,.62-.73l-.34.31a16.08,16.08,0,0,0,1.67-2.05l-.34.29c.45-.56.83-1,1.16-1.13l-.44.6a24.25,24.25,0,0,0,1.79-2.3l-.23.27c.68-1.08,4.86-6.26,5.44-7.3l-.46.32.56-.84c-.08.09,0,.66-.06.71,1.38-1.66,8.54-10.3,9.89-11.76.58-.56.27,0,.28.06.59-.78.16-.42.7-1.05.17-.15.06.11,0,.22.22-.29.48-.51.45-.58-.34.32-.35.06-.56.13l.7-.81.06.11a4.58,4.58,0,0,1,.88-1.42c1.18-1.33,2.39-2.82,3.56-4.17,0,.07-.17.38-.39.69a5.48,5.48,0,0,1,.56-.61c-.37.26.42-.62.17-.39.63-1.17,1.91-2.31,2.52-3.3-.12-.24-1.61-4.59-1.83-4.78a6.78,6.78,0,0,1,.56-.61,3.81,3.81,0,0,0-.81.86l.08.15c-.51.69-.2.09-.73.74-.13-.05.35-.66.78-1.18-.41.45-.87.86-.93,1.14-.41.41-.07-.15-.56.35a9,9,0,0,1-1,1.36v0c-1,1-1.22,1.73-2.13,2.61l.06-.13c-.35.29-.84,1-1.42,1.59.17-.16.37-.25.07.13-.66.65-1,1.19-1.52,1.64l-.32.57c-2.09,2.45-10.16,12.27-12.23,14.75l.07-.11c-3.13,3.8-9.67,11.52-12.82,15.51-.6.53-1.28,1.37-1.84,2,.34-.32.3-.14.07.13-1.63,1.9,0,.18-1.64,2.15-1.79,2.3-9.09,10.73-10.84,12.64-.75,1.18-2,2.42-2.77,3.53l.06-.13c-.9,1.16-6.36,7.37-7.41,8.71l.17-.16c-.87,1.21-.9.92-1.7,1.78.26,0-.47,1.05-.77,1.43l0,0c-.44.58-1.37,2-2.13,2.9l-.06-.11c-.55.84-1.81,2.26-2.27,2.82-1.1,1.23-2.89,3.05-4.21,4.83l-1.16.89-.11.18s1.43,4.22,3.93,2.51l.06.11.36-.45c.49-.49.6-.82.65-.71l-.62.71c.47-.51.2-.1.08.15a8,8,0,0,1,.56-.58c.06-.13-.1.05-.19.11a6.81,6.81,0,0,1,.81-1.09c.46-.54.16.08.71-.54,2.89-3.3,5.73-6.46,8.57-9.86.1-.05,0,0,0,.15.82-1,1.6-1.94,2.35-2.9a1.27,1.27,0,0,1,.46-.3C88.21,297.35,92.66,292.07,92.75,292Z"/></g><g id="vetements"><circle class="cls-1" cx="203.29" cy="330.82" r="0.57"/><path class="cls-1" d="M203.3,330.82Z"/><path class="cls-1" d="M194.61,339l.23.2A.5.5,0,0,0,194.61,339Z"/><path class="cls-1" d="M203.3,330.83h0l0,0-.5.58-1.05,1.17a81.65,81.65,0,0,1-6.57,6.2c-.14-.18-.28-.36-.26-.48-.17.23.06.66.34.72l.47-.42c.53.21-.17.36.26.68-.31.41-.78.15-1.13-.14.24.33.31.89.81.58.16.41-.44.44-.2.93.38.11,1,0,1.19.43l0,.07a1.07,1.07,0,0,0,1.12.5c.41,0,.79,0,1.09.36l-.15.13c.19.39.9.23,1.35.68-.13-.14-.15-.53.18-.5.54.47,1,.24,1.43.69l.5-.44a8.81,8.81,0,0,0,2.61-.08,11.37,11.37,0,0,0,3.57-1.27,11.76,11.76,0,0,0,4.34-4.35l0,.11a11.63,11.63,0,0,0,1.57-6.05,8.55,8.55,0,0,0-2.25-5.68c.16-.67-.34-1.14-.56-1.6,0,.35-.31.49-.42.33-1-1.08-.3.12-1.49-.67a20,20,0,0,0-4.24-1.95,14.8,14.8,0,0,0-4.62-.42c-.56.89-1.66.76-2.12,1.56l0-.19c-.29.31-1.49.93-2.48,1.9a6.34,6.34,0,0,0-1.83,2.72l.15-.08c.1.93-.59.53-1,1.13a1.43,1.43,0,0,1,1.1,1.17l-.18,0c.05.42.67,1.31.8,1.86l-.45,0c.47.48.4,1.38.53,1.72a9,9,0,0,0,0,1.56,2,2,0,0,0,.91,1.47,12.52,12.52,0,0,0-.56,1.36l.17,0s.79-.54,2-1.44,2.73-2.18,4.31-3.58l2.38-2.12,1.16-1,.28-.25.14-.12-2.56,2.28h0Z"/><circle class="cls-1" cx="289.17" cy="344.19" r="9.15"/><path class="cls-1" d="M289.28,344.05l-.09.11Z"/><polygon class="cls-1" points="289.19 344.16 289.19 344.16 289.19 344.16 289.19 344.16"/><path class="cls-1" d="M276.82,360.5l.45.29A2.16,2.16,0,0,0,276.82,360.5Z"/><path class="cls-1" d="M289.24,344.24h0l-.07-.07,0,0h0v0h0s0,.14,0,.08,0-.16,0-.1,0,0,0,0,0,0,0,0h0l0,.05h0l-.08.12s-.05.06,0-.05l.08-.08,0,0h0a0,0,0,0,1,0,0s0,0,0,0h0l0,0h0l-.06,0h0l.15,0,.27.08c.18.07.37.16.58.26l.54.16a3.21,3.21,0,0,1,.41.26s-.41-.19-.81-.35l-.71-.29a.35.35,0,0,1,0,.33c0,.13-.16.23-.26,0s-.13-.36-.19-.54h0v0c0,.06.05.18,0,.14-.06-.21,0-.14,0-.15h0l.27,1.1-.07,0-.08-.44s.17,1.21,0,1-.33,0-.46-.17A4.47,4.47,0,0,1,289,345s0,0,0-.15c-.08.46-.11.3-.14.5-.18.53-.27.49-.33.47s-.09-.13-.31.16a61.67,61.67,0,0,1-4.83,7.47c-2.53,3.4-5.55,6.43-5.89,6.9-.32-.25-.63-.51-.67-.66-.09.28.48.86.92,1l.42-.47c.9.35,0,.45.8.91-.22.46-1.05.1-1.71-.34.53.47,1,1.17,1.49.83.48.53-.39.5.23,1.1.6.18,1.51,0,2,.59l-.05.08a2.71,2.71,0,0,0,2,.61,3.35,3.35,0,0,1,1.92.37l-.19.13c.46.42,1.56.21,2.48.61-.27-.13-.46-.52.11-.52,1.06.41,1.82.1,2.62.47l.74-.54a16.67,16.67,0,0,0,4.44-.86,19.87,19.87,0,0,0,5.78-3.09,19.58,19.58,0,0,0,4.41-4.72,20.42,20.42,0,0,0,2-3.91l0,.16a21.72,21.72,0,0,0,1.28-4.92,19.1,19.1,0,0,0-.17-6.11,17.76,17.76,0,0,0-2.11-5.73,15.2,15.2,0,0,0-3.19-3.9c-.21-1-1.19-1.7-1.79-2.38.25.48-.11.63-.38.37-1.06-.83-1.16-.76-1.26-.7s-.21.13-1.42-.44a25,25,0,0,0-8.45-2.32,22.64,22.64,0,0,0-8.54,1.16c-1,1.23-2.84,1.79-3.68,3.06V330a29.59,29.59,0,0,0-3.95,4.34,13.82,13.82,0,0,0-2.44,5.61l.16-.21c.08,1.61-.63,1.23-1,2.47.41,0,.69.29.88.68a3.28,3.28,0,0,1,.35,1.07l-.18,0c.1.76.92,2.35,1.25,3.45l-.44,0a6.66,6.66,0,0,1,.75,1.74c.22.63.42,1.24.56,1.56a18.78,18.78,0,0,0,.95,2.83,5.94,5.94,0,0,0,2.18,2.62,13.85,13.85,0,0,0,.18,1.92l.24.05s.75-.61,1.82-1.65,2.45-2.49,3.81-4.1c2.74-3.21,5.38-7.06,6.52-8.22l0,0,0,0,0,0,0,0h0l0,0s0,0,0,0l0,0h0l.1,0h-.1l.06,0s.16.11.14.11Z"/><circle class="cls-1" cx="230.85" cy="350.66" r="6.47"/><path class="cls-1" d="M230.8,350.77a.28.28,0,0,1,0-.09A.26.26,0,0,0,230.8,350.77Z"/><path class="cls-1" d="M238.36,334.53l-.43-.16A1.23,1.23,0,0,0,238.36,334.53Z"/><path class="cls-1" d="M230.79,350.63h0l.06,0,0,0h0l0-.05s0,.12,0,.07h0s0,0,0,0v0h0a.23.23,0,0,1,0-.09s0-.05,0,0l0,.06,0,0h0s0,0,0,0h0l0,0h0l0,0h-.07l.06,0a.48.48,0,0,1,.11.05l-.1-.06c-.1-.08,0,0,0,0h0v0h0s0,0,0-.06h0v0h0l.1-.34c.15-.51.35-1.18.6-1.95.51-1.56,1.23-3.53,2.08-5.47,1.67-3.88,3.9-7.52,4.14-8.05.32.16.63.32.68.45,0-.28-.54-.69-.95-.69l-.29.55c-.84-.1,0-.43-.83-.66.13-.5.9-.35,1.55-.11-.54-.3-1-.87-1.43-.42-.5-.38.26-.57-.37-1-.55,0-1.31.31-1.83-.1l0-.08a2.14,2.14,0,0,0-1.8-.14,2.41,2.41,0,0,1-1.7.05l.14-.17c-.48-.31-1.37.13-2.23-.09.25.08.49.42,0,.54-1-.2-1.56.24-2.32,0l-.51.66a14.23,14.23,0,0,0-3.61,1.55,17.35,17.35,0,0,0-4.32,3.7,17.83,17.83,0,0,0-3.84,8.51l0-.14a18.52,18.52,0,0,0-.16,4.39,16.61,16.61,0,0,0,1.26,5.13,15.34,15.34,0,0,0,2.85,4.42,12.37,12.37,0,0,0,3.43,2.66c.31.84,1.27,1.27,1.9,1.74-.29-.38,0-.62.28-.45,1,.51,1.11.43,1.19.34s.17-.19,1.29.06a22.88,22.88,0,0,0,7.47.4,20.32,20.32,0,0,0,7-2.43c.58-1.31,2-2,2.46-3.29l.06.2a28.75,28.75,0,0,0,2.52-4.33,11.41,11.41,0,0,0,1-5.13l-.1.21c-.43-1.33.35-1.15.5-2.26-.78.2-1.38-.83-1.53-1.21l.17,0c-.23-.62-1.29-1.76-1.78-2.59l.42-.13a4.86,4.86,0,0,1-1-1.28c-.29-.49-.55-.95-.73-1.19a15.4,15.4,0,0,0-1.24-2.22,4.52,4.52,0,0,0-2.28-1.76,13.45,13.45,0,0,0-.39-1.73l-.22,0s-.58.77-1.39,2-1.82,3-2.79,4.85-1.94,3.87-2.75,5.57l-.6,1.21-.15.28s0,0,0,0h0l0-.05h0l0,0v0h0v0h0l0,0h0s-.14.07,0,0h0l-.11,0Z"/><circle class="cls-1" cx="228.12" cy="317.81" r="2.74"/><path class="cls-1" d="M228.1,317.85l0,0Z"/><path class="cls-1" d="M234.05,305.06l-.34-.12A.73.73,0,0,0,234.05,305.06Z"/><path class="cls-1" d="M228.1,317.8h0v0h0c0-.05,0-.06,0,0l0,0h0l0,0,0,0s0,0,0,0h0v0h0c.14-.44.29-.89.45-1.36.32-.94.68-1.92,1.08-2.9a82.7,82.7,0,0,1,3.9-8.15c.24.13.48.26.51.38.07-.27-.38-.62-.71-.59l-.29.56c-.67,0,0-.41-.61-.58.13-.5.75-.41,1.26-.23-.41-.25-.76-.77-1.14-.3-.37-.35.26-.58-.23-1-.45,0-1.08.38-1.48,0l0-.09a1.44,1.44,0,0,0-1.44-.08,1.55,1.55,0,0,1-1.35.07l.11-.17c-.38-.31-1.09.11-1.78-.12.21.08.4.43,0,.53-.79-.22-1.23.2-1.86-.06l-.37.62a10.7,10.7,0,0,0-2.84,1.24,13.57,13.57,0,0,0-3.38,2.95,14.1,14.1,0,0,0-2.93,6.7l0-.11a13.66,13.66,0,0,0,.92,7.42,10.6,10.6,0,0,0,5,5.4c.18.74.94,1,1.41,1.44-.21-.33.06-.59.27-.45.79.4.86.31.93.22s.16-.2,1,0a20.47,20.47,0,0,0,5.69.28,16.58,16.58,0,0,0,5.37-1.74c.33-1.13,1.54-1.58,1.78-2.62l.07.18a27.24,27.24,0,0,0,1.94-3.29,8.12,8.12,0,0,0,.81-3.91l-.1.15c-.44-1,.34-.87.52-1.74a1.46,1.46,0,0,1-1.48-.87l.17,0c-.21-.47-1.17-1.26-1.56-1.85l.42-.15c-.65-.39-1-1.45-1.34-1.79a10.57,10.57,0,0,0-.83-1.73,2.8,2.8,0,0,0-1.72-1.3,11.72,11.72,0,0,0-.13-1.56l-.19,0s-.55.78-1.32,2.05-1.76,3-2.71,4.9L228.49,317l-.69,1.4-.16.34-.08.17.53-1.09h0v0h0s-.06,0,0,0h0l-.05,0Z"/><path class="cls-1" d="M230.44,316.92a.17.17,0,0,1,.08.22.17.17,0,0,1-.23.08.18.18,0,0,1-.08-.23.24.24,0,0,1,.09-.08"/><path class="cls-1" d="M234.47,325.63c.2.44.22.48.26.55Z"/><polygon class="cls-1" points="234.73 326.19 234.73 326.19 234.72 326.18 234.73 326.19"/><path class="cls-1" d="M225.68,306.57l-.22.13A.36.36,0,0,0,225.68,306.57Z"/><path class="cls-1" d="M235.31,327.45l-.33-.71.3.64c-.27-.57-.06-.13-.2-.43,0,.08,0,.11.19.42l-.12-.26-.15-.33-.09-.19.26.56c.08.19.33.71.2.44s-.06-.13-.37-.77l-.12-.25c.46.95.11.22.57,1.19l-.26-.54.16.33c-.27-.56-.13-.28-.07-.15l-.27-.55s-.17-.34-.23-.48c.23.48-.17-.34.06.14l-.31-.64c.15.32.22.45.36.73,0,0,.05.12,0,0l-.09-.18c0-.09.2.41-.09-.18l-.12-.26s0-.09.27.56l.09.19-.19-.4v0l-1-2-.25-.5-.2-.42.72,1.46c0-.05-.22-.47,0-.13s.39.8.43.88l-.24-.49c0,.09.19.4.23.47l-.06-.13-.6-1.22,0,.06.19.39s-.32-.67-.42-.87c.09.16,0,0,.07.11l.25.52.06.12-.22-.46c-.46-1,0-.09-.35-.75-.41-.89-7.23-15.11-7.64-16.2.18-.06.37-.12.46-.06a.4.4,0,0,0-.35-.15.36.36,0,0,0-.2.06c-.06,0,0,0,0,.07l.27.56c.08.21-.16-.33-.16-.28-.21-.47-.27-.56-.24-.63s-.21-.37,0,.14c-.09-.19-.27-.56-.37-.75.06.14.26.59.12.32l0-.08c-.25-.46.3.71.06.25l-.07-.15c-.14-.26,0,.1-.13-.18,0,.09.21.42.23.48-.15-.28,0,0-.2-.34l.21.45c-.09-.06.13.63.18.7l0-.07a8.81,8.81,0,0,0,.53.78,2.92,2.92,0,0,1-.2-.49l.24.49c0-.06.15.32.28.5s.1.14.12.14,0,0,0,0v0l0,.06.07.1a2.81,2.81,0,0,0-.14-.58c.32.65.1.13.31.54l-.08-.16c.14.23-.1-.45,0-.23l0,.09c.19.4-.14-.32-.25-.55.34.72.53,1.14.56,1.19l-.08-.16.39.84-.19-.41c.2.43.1.24.12.28-.09-.18-.43-.9-.21-.37l-.54-1.15.05.11,7.74,16.76.19.4,0-.05c.09.2-.12-.27.07.13l0-.05.26.56.09.21-.11-.26c-.07-.14-.24-.51-.15-.33s.29.65.31.69c.15.31.28.59.32.69s.07.16.11.23l-.13-.28.26.58Z"/><circle class="cls-1" cx="261.4" cy="359.86" r="2.74"/><path class="cls-1" d="M261.45,359.88l0,0Z"/><path class="cls-1" d="M248,355.61c0,.11-.05.23-.07.36A.75.75,0,0,0,248,355.61Z"/><path class="cls-1" d="M261.39,359.89h0v0h0l0,0h0s0,0,0,0h0v-.07s0,.05,0,.05,0,0,0,0h0s0,0,0,0h0l-1.4-.27c-1-.2-2-.44-3-.7a84.74,84.74,0,0,1-8.58-2.83c.1-.26.2-.51.32-.56-.28,0-.58.46-.5.79l.59.2c.05.67-.41.05-.5.69-.51-.06-.49-.69-.38-1.22-.2.44-.67.85-.16,1.16-.29.42-.6-.17-.92.36.08.44.52,1,.19,1.46H247a1.43,1.43,0,0,0,.1,1.44,1.54,1.54,0,0,1,.24,1.33l-.18-.09c-.25.41.25,1.06.11,1.77.06-.21.38-.44.53-.08-.12.81.35,1.2.18,1.85l.66.29a10.86,10.86,0,0,0,1.59,2.66,13.22,13.22,0,0,0,3.36,3,13.94,13.94,0,0,0,7,2.05l-.11.07a13.85,13.85,0,0,0,7.24-1.86,10.59,10.59,0,0,0,4.72-5.62c.71-.27.93-1.06,1.26-1.58-.31.25-.6,0-.49-.21.29-.83.2-.89.1-.95s-.22-.13-.16-1a20.4,20.4,0,0,0-.45-5.68,16.83,16.83,0,0,0-2.41-5.1c-1.17-.18-1.77-1.33-2.83-1.43l.17-.1a29.44,29.44,0,0,0-3.51-1.49,8.12,8.12,0,0,0-4-.31l.16.09c-.95.56-.9-.24-1.79-.3a1.48,1.48,0,0,1-.67,1.58l-.05-.17c-.43.27-1.1,1.33-1.64,1.78l-.2-.4c-.3.71-1.3,1.22-1.59,1.57a11,11,0,0,0-1.61,1,2.73,2.73,0,0,0-1.07,1.87,10.31,10.31,0,0,0-1.54.33l.06.18s.85.45,2.21,1.05,3.22,1.36,5.21,2.06l3,1.05,1.47.5.36.12.17.06-1.14-.4h-.07s0,.06,0,0h0v0h0v0l0,.05Z"/><circle class="cls-1" cx="258.67" cy="323.74" r="7.08"/><path class="cls-1" d="M258.79,323.68l-.1.05Z"/><polygon class="cls-1" points="258.69 323.73 258.69 323.73 258.69 323.73 258.69 323.73"/><path class="cls-1" d="M242.33,332.21l.25.4A1.28,1.28,0,0,0,242.33,332.21Z"/><path class="cls-1" d="M258.7,323.81h0l0-.07v0h0s0,.11,0,.06.08-.1,0-.07h0s0,0,0,0h0l0,0h0l-.1.05s-.06,0,0,0l.08,0h-.05l.09,0h0s0,0,0,0h0l0,0a1,1,0,0,1-.07-.12.73.73,0,0,1,0,.12c0,.13,0,0,0,0h0v0h0a.15.15,0,0,1,0,.06h0v0l0,0a60.42,60.42,0,0,1-7.45,4.77c-3.7,2-7.7,3.54-8.22,3.81a2.09,2.09,0,0,1-.27-.8c-.2.2,0,.91.35,1.16l.57-.25c.62.62-.23.37.27,1.06-.4.32-.94-.29-1.32-.9.25.59.29,1.34.91,1.25.17.62-.56.29-.31,1,.43.37,1.26.58,1.43,1.24l-.08.05a2.28,2.28,0,0,0,1.39,1.25,2.65,2.65,0,0,1,1.42,1l-.21,0c.19.55,1.19.77,1.76,1.48-.16-.22-.14-.64.33-.43.68.78,1.43.79,1.92,1.44l.83-.2a14.94,14.94,0,0,0,3.93,1,17.74,17.74,0,0,0,5.89-.28,18.5,18.5,0,0,0,8.53-4.54l-.05.14a19,19,0,0,0,2.92-3.49,17.35,17.35,0,0,0,2.21-5,15.83,15.83,0,0,0,.47-5.43,13,13,0,0,0-1.12-4.35c.26-.89-.26-1.85-.47-2.63,0,.49-.38.5-.51.18-.52-1.07-.64-1.06-.75-1s-.25,0-1-.87a23.15,23.15,0,0,0-5.89-5.07,20.82,20.82,0,0,0-7.27-2.4c-1.3.68-3,.37-4.11,1.12l.08-.2a28.6,28.6,0,0,0-4.83,2,12.11,12.11,0,0,0-4.1,3.55l.21-.1c-.5,1.36-1,.73-1.83,1.55.75.31.57,1.54.45,2l-.15-.1c-.2.66-.08,2.26-.21,3.26l-.42-.16a5,5,0,0,1,0,1.68c-.07.59-.14,1.14-.14,1.45a15.18,15.18,0,0,0-.38,2.61,4.87,4.87,0,0,0,.75,2.91,15.28,15.28,0,0,0-.73,1.65l.2.14s.93-.26,2.33-.75,3.27-1.23,5.19-2.12,3.89-1.87,5.58-2.73l1.21-.6.85-.4-.06,0h0l0,0h-.07s.17,0,.06,0h0l0,0h0l0,.05a.45.45,0,0,1,.06.12Z"/></g></svg>