<svg xmlns="http://www.w3.org/2000/svg" viewBox="0 0 385.51 385.51"><defs><style>.cls-1{fill:#2c2c2c;}.cls-2{fill:#fff;}</style></defs><g id="chat"><polygon class="cls-1" points="292.69 135.66 245.79 107.39 185.86 101.48 128.29 119.11 66.83 84.1 87.89 156.09 76.06 203.39 84.23 229.87 121.08 266.66 153.54 281.56 178.67 291.49 205.27 296.08 230.44 286.33 253.12 271.63 282 250.61 310.85 207.27 313.63 179.69 292.69 135.66"/><path class="cls-1" d="M292.83,130.11c-1.88-1.41-5.32-3.52-8.58-5.53C286.66,126.3,289.28,128,292.83,130.11Z"/><path class="cls-1" d="M284.19,124.54l-.05,0,.11.07Z"/><path class="cls-1" d="M288.8,140.65l1.36,2.84C289.72,142.53,289.26,141.57,288.8,140.65Z"/><path class="cls-1" d="M111.22,102.68l-.71.06c-7.88-4.49-2.06-1.71-9.4-5.77C98,95.84,89,90,86.37,88.85c.08,0-3.48-2-3.16-2.08a3.74,3.74,0,0,1-.52-.19l-.15-.07-.29-.14L81.64,86c-.85-.45-1.8-1-2.83-1.59-2-1.18-4.41-2.57-6.58-3.76-1.54-.78,1.2.79,2.38,1.57l-9.72-5.41c-3.91-2.34-5.18-3.28-1-.91l-6.5-3.72c4.41,15.26,15.89,54.93,24.29,84l-3.66,14.64c-1.14,4.61-2,8.32-2.65,10.76.74-2,1.84-7.06,2.67-8.88-.87,4.34-1.65,6.29-1.91,8.23-.94,1.51-2.48,9.38-3.82,12.49v1.3l-.71,2.09q-1,4.22-1.59,6.71c.64,2,1.12,3.49,1.5,4.66.25.78.43,1.33.57,1.74.27.83.34,1.08.45,1.46.22.77.56,2,2.77,9.33.72,2.27,1.36,4.25,2,6l.85,2.51,1.17,3.57L83.63,237c1,1,2,2,3,3-.59-.58-2-2.27-.13-.5.13.5,5,4.72,5.7,5.8,1.81,1.76,7.58,7.57,5.88,5.35.85,1.11,6,6.33,2.78,3.37,1.74,1.75,3.39,3.47,4.7,4.67l-2.17-2.31c5.93,5.84,8.94,9.25,13,12.84L114.35,267l3.84,3.82,2.69,1.26,1.63.8a20.69,20.69,0,0,1,2.34,1.35l-4.71-2c7.53,3.45,12.09,5.52,18.44,8.22l-2.24-1c1.33.55,3.56,1.5,6.38,2.74l4.66,2,2.6,1.15c.89.39,1.8.81,2.76,1.15l24.72,9.39,12.09,1.88c3.27.5,5.79.86,7.19,1l-3.62-.92,6.89.95c-.81-.14-3.46.34-4.12.13l9.83,1.68,26.68-10.4,15-9.75,7.38-4.8c2.41-1.63,4.69-3.38,7-5l23.39-17c2.09-3.1,3.63-5.37,4.62-6.85,3.2-4.53.93-.58.93-.5,3.65-5.68,1.36-2.59,4.56-7.35.91-1.28,0,.39-.45,1.14,1.37-2.11,2.74-4,2.74-4.23-1.83,2.56-1.38,1.26-2.31,2.24l4.11-6.12v.39a105.06,105.06,0,0,1,5.92-9.78l9.34-13.93c.77-7.65,1.56-15.41,2.31-22.83a44.29,44.29,0,0,1-.24,5.37c.17-1.64.39-4.15.63-5.65-.53,2.93.36-5.15,0-2.85l0-.62.06-.88c.05-.7.1-1.4.15-2.13-.63-1.27-1.29-2.56-1.95-3.88l-1.49-3c-1-2.06-2-4.15-2.95-6.2-1.94-4.1-3.81-8.06-5.51-11.24-.74-.42-14.88-11.78-15.4-11.54-1.05-2.23-2.1-4.45-2.38-5.15.15.63,2.18,5,3.36,7.34l.47.26c2.64,5.32.43,1.34,2.93,6.56-.09.39-2.43-4.4-4.47-8.63,1.79,3.83,3.43,7.71,4.42,9.14,1.61,3.64-.47-.26,1.49,4.11,1.53,3,3.67,7,5.22,10.58l-.07,0c1.37,3.12,2.61,5.67,3.79,8l1.74,3.43.86,1.7.11.21s0,0,0,0l0,0,0,0a.19.19,0,0,1,0,.08c-.05.49-.1,1-.15,1.52-.12,1.1-.25,2.26-.42,3.48v-.94c-.45,3.05-.86,9.09-1.57,14.59.21-1.57.53-2.92.22.4-.15,1.28-.29,2.48-.42,3.62-.07.57-.13,1.12-.18,1.66l0,.09h0v.05l-1.63,2.42c-.78,1.15-1.56,2.27-2.37,3.39L299,214.94l-21.06,31.75L252.4,265.4c-2.19,1.69-4.51,3.13-6.74,4.6l-6.53,4.26L228,281.54l-23.27,9.09-1.84-.31.87.11-23.66-4L167,281.25l-7.19-2.83L156.12,277c-1.23-.49-2.42-1.08-3.63-1.62l-28.44-13-19.38-19.21L88.6,227.35l0-.08,0-.2a.44.44,0,0,0,0-.14l-.14-.52c-.2-.69-.4-1.41-.61-2.14-.43-1.45-.87-3-1.32-4.47l-2.62-8.69c.83,3,.35,2.06-.37-.29l-2.27-7.3c-.08-.21-.12-.23-.16-.26s0-.07,0-.34c.14-.59.33-1.42.6-2.62s.68-2.8,1.18-4.87c.88-3.58,2.21-9,3.83-15.63,1.73-7,3.78-15.13,5.94-23.8L80,112.56l-4.59-16c-.28-1.09-.48-1.89-.58-2.36l.08,0a5.6,5.6,0,0,1,1.21.49l.77.41,1.58.89c4.67,2.65,9.3,5.3,13.44,7.53l-.87-.4c2.27,1.26,7.23,4.07,13.51,7.66l23.2,13.29L152,116.75l14.58-4.49-1.52.41c9.71-3.2,8.49-2.42,16.23-4.66-.37,0,.27-.34,1.41-.79.58-.22,1.27-.48,2-.75l1.18-.42c.13,0,.09,0,.13,0l.09,0,.16-.07h.48l1.28.09,2.13.18-.14.07c5,.43,16.41,1.2,24.69,2l-.34.19c6.93.45,19.9,1.82,24.86,2.29l2.94.32,1.56.17.74.09,14.87,9.2c5.59,3.42,11.39,6.91,16.9,10.09l8.11,5.63,1.27.69s17.52,1.65,1.12-10.14l.38,0-3.42-2c-4-2.56-6.06-3.48-5.67-3.5l5.59,3.4c-4.07-2.53-1.14-.9.49-.07-1.7-1.05-3.36-2.08-4.69-3-.85-.41.55.44,1.16.87-2.25-1.27-5.43-3-8.07-4.66-4.2-2.55-.09-.47-5-3.45l-20-12.22-31-3.23L185.29,95.7l-8.45,2.59c-.69.12.11-.12.94-.42l-24.61,7.7a27.29,27.29,0,0,1-3.59.76c.36-.06-2.45.84-6.82,2.21L129,112.81Z"/><polygon class="cls-1" points="299.66 60.88 246.33 107.33 293.24 135.61 299.66 60.88"/><path class="cls-1" d="M295.94,57.72a10.11,10.11,0,0,0-2.23,1.54A8.3,8.3,0,0,0,295.94,57.72Z"/><polygon class="cls-1" points="293.69 59.27 293.68 59.28 293.71 59.26 293.69 59.27"/><path class="cls-1" d="M294,61.14c0,.25,0,.54-.06.83A7.72,7.72,0,0,0,294,61.14Z"/><path class="cls-1" d="M256.28,90.94l.15.4c-1.81,1.58-.83.11-2.44,1.65-.28,1-2.82,2.37-3.2,3.1,0,0-.84.66-.91.48,0,.23-.22.42-.47.63l-.4.31-.23.2-.37.34c-.33.4.37-.2.61-.29l-2.12,2c-1,.7-1.36.81-.41-.06l-9.94,8.49,17.34,10.62c3.47,2.13,6.49,4,7.87,4.72-.36-.49-1.61-1.06-1.87-1.64,1.11.43,1.44,1,2,1,.1.7,2.13,1.44,2.61,2.37l.44-.09.4.46c4.57,2.38,1.09.47,4.95,2.88,2.29,1.33,3.58,1.61,4.75,2.5-.18-.12-.58-.58,0-.29,0,.29,1.66.77,1.81,1.18.59.31,2.42,1.46,2,.77.22.34,1.83,1.41.77,1a10.66,10.66,0,0,0,1.51.89l-.67-.52c.48.27.89.53,1.27.77l.54.36.93.59a26.43,26.43,0,0,0,3.45,1.89l-1.25-.93a23.29,23.29,0,0,1,4.65,3.18l-2.18-1.19c3.55,2.13,5.72,3.41,8.49,4.86l-1-.64c.47.22,1.24.63,2.21,1.16.21-3.7.56-9.81.87-15.44l.12-2c0-.4,0-.8,0-1.19,0-.7,0-1.37,0-2a25.53,25.53,0,0,0-.05-2.59l-.37,1-.08-1.86c0,.22.84,1,.73,1.14.31-3.93,1.85-24.36,2.35-28,.28-1.45.47-.23.51-.21.05-1.79-.23-.79-.08-2.3.09-.41.22.1.24.34,0-.67.17-1.28,0-1.34-.17.82-.49.44-.75.77l.2-1.94.22.11a8,8,0,0,1-.23-3.06c.37-3.22.6-6.73.92-10,.13.06.15.75.17,1.43a8.92,8.92,0,0,1,.2-1.49c-.3.77,0-1.37-.19-.77-.34-2.42.42-5.45.23-7.58-.47-.22-8-5.21-8.53-5.26a12.57,12.57,0,0,1,.19-1.49,6.15,6.15,0,0,0-.3,2.12l.3.14c0,1.58-.22.35-.33,1.88-.26.06-.19-1.35-.11-2.59a7.63,7.63,0,0,0-.17,2.69c-.19,1-.3-.15-.51,1.11a14.4,14.4,0,0,1-.1,3.12l0,0c-.48,2.49.05,3.87-.4,6.14l-.07-.25c-.21.8-.15,2.41-.43,3.86.08-.41.3-.76.25.12-.3,1.67-.24,2.83-.54,4L292,84c-.55,5.85-2.18,29-2.65,34.89l0-.24c-.14,1.94-.33,4.33-.53,7,0,.39,0,.81,0,1.24l-.65-.33-.34-.17-.19-.1-1.14-.66c-3-1.76-5.78-3.35-8-4.57a47,47,0,0,0-4.08-2.76c.66.52.32.52-.23.17-3.9-2.38-.35,0-4.36-2.31-1.78-1-5.37-3.11-9.35-5.54l-3-1.86-1.54-1-.29-.19-.18-.11c-.46-.32-.87-.6-1.18-.84a11.36,11.36,0,0,1,1.11-.76.85.85,0,0,1,.17-.38l.1-.1L256,105l.8-.7c1.06-.94,2.14-1.86,3-2.76l-.13.23c1.92-1.86,13.53-11.53,15.79-13.67l-.35.24C277,86.43,277,87,278.68,85.66c-.47-.12,1.12-1.81,1.77-2.42l0,.09c1-.93,3-3.18,4.63-4.66l.08.22c1.23-1.39,3.9-3.58,4.88-4.46A114.63,114.63,0,0,0,299,66.88l2.38-1.24.25-.3s-1.85-8.51-6.93-6.24l-.09-.22-.77.72c-1,.74-1.3,1.32-1.38,1.1l1.33-1.12c-1,.79-.41.12-.13-.3a12.37,12.37,0,0,1-1.18.88c-.14.23.2,0,.38-.15a11.08,11.08,0,0,1-1.74,1.76c-1,.84-.3-.21-1.46.77-6.15,5.13-12.17,10-18.24,15.38-.2,0,0-.09.12-.27-1.77,1.67-3.43,3.07-5,4.6a2.46,2.46,0,0,1-.94.39c.19,0-2.08,2-4.43,4.07l-3.28,2.88C257,90.38,256.33,90.91,256.28,90.94Z"/><path class="cls-2" d="M174.47,204.5c0,.27.24.38.43.5A.59.59,0,0,0,174.47,204.5Z"/><polygon class="cls-2" points="174.91 205 174.91 205 174.9 205 174.91 205"/><path class="cls-2" d="M211.69,191.61l-.15.11A.42.42,0,0,0,211.69,191.61Z"/><path class="cls-2" d="M184.62,209.59l.18-.36c.49.19,0,.48.46.57.38-.46.73.35,1,.13,0,0,.19.15.11.31.18-.26.25,0,.42,0s0-.1,0-.2l.35,0c.09.14.06.32-.09.29.4.22,1.57.79,2.76,1.34.6.27,1.2.54,1.71.75l1.28.5c.4.15.72.26.95.33-.18-.32-.77-.38-.87-.81.5,0,.65.33.9.2.07.61,1,.52,1.27,1.23l.15-.27.22.29c1.88.43.72.09,1.91.64l.35-.2c1-.68,1.28-1.4,1.84-1.57-.08,0-.33,0-.12-.24.12.23.56-.6.76-.41.22-.18,1-.63.57-.8.2.09.9-.28.58.12a1.86,1.86,0,0,0,.6-.41l-.34.1a3,3,0,0,1,.51-.32c.13-.07.19-.08.27-.12a.48.48,0,0,0,.31-.39l-.23,0c.23-.17.42-.33.71-.08l-.19.25a2.34,2.34,0,0,0,.86-.82l-.13.07c.23-.58,2.29-2.28,2.44-2.92l-.34-.12.21-.42s.34.88.25.82a57.94,57.94,0,0,1,5.12-3.38c.36-.05.3.34.32.38.27-.3,0-.34.27-.5.1,0,.1.2.08.26.11-.11.27-.1.21-.22-.21,0-.33-.32-.52-.47l.37-.21.11.2c.08,0-.13-.64.29-.77.64-.31,1.25-.79,1.87-1.13.06.11,0,.26-.1.41.08,0,.19-.16.31-.12-.27-.11.17-.3,0-.31.14-.74,1-.69,1.17-1.25-.24-.43-3.73-7.56-4.05-8.05a.72.72,0,0,1,.31-.12c-.1-.09-.37,0-.46.15l.15.28c-.23.28-.17-.11-.44.09-.15-.21.08-.42.29-.59-.22.11-.52.09-.45.37-.26,0-.15-.27-.44-.21-.13.17-.21.52-.48.52l0,0c-.61.08-.5.78-1.07.83v-.1c-.23,0-.41.33-.77.38.11,0,.28.1.13.23-.4.07-.52.34-.86.32l-.08.35c-1.1.66-5.17,3.72-6.23,4.45l0-.06c-.79.59-2,1.43-3.27,2.3l-.92.65a4.92,4.92,0,0,0-.62.47,2,2,0,0,0-.2.36c-.09-.18-.12-.15-.17-.16s0,0,0,0,0,.32,0,.29c-.19-.1,0,.19-.22.21a.44.44,0,0,1-.33,0l-.59-.24-.94-.42a29.17,29.17,0,0,1-2.94-1.46c-.65.13-1.2-.38-1.79-.37l.09-.06c-.6-.09-3.55-1.61-4.23-1.74l.07.08c-.63,0-.41-.35-.8-.63-.09.4-.65.42-.84.38l0-.08a10.68,10.68,0,0,1-1.51-.08l.1-.2a3.73,3.73,0,0,1-1.41-.38,5.49,5.49,0,0,0-2.31-1.12l-.3-.8-.1,0s-3.66,6.76-3.17,8.7l-.1.2.22.06c.22.2.43,0,.34.21l-.35-.17c.24.17,0,.2-.13.28a.82.82,0,0,1,.26.23c.08-.06,0-.1,0-.16.17,0,.44-.14.57,0s-.12.34.18.49a42.65,42.65,0,0,0,4.72,2.27c0,.1,0,.08-.1.1.53.1,1,.31,1.44.4a.64.64,0,0,1,.08.38A10.5,10.5,0,0,1,184.62,209.59Z"/><path class="cls-1" d="M299.59,209.31a1.22,1.22,0,0,0,.9-.15A1.07,1.07,0,0,0,299.59,209.31Z"/><polygon class="cls-1" points="300.5 209.16 300.5 209.16 300.49 209.16 300.5 209.16"/><path class="cls-1" d="M349.69,169.35l-.22.14A.64.64,0,0,0,349.69,169.35Z"/><path class="cls-1" d="M314.43,202.19l-.15-.38c.66-.37.42.29,1-.14,0-.62,1.06-.52,1.12-.9,0,0,.33-.11.4.06-.06-.32.27-.24.42-.41s-.09,0-.19-.11l.38-.33c.22,0,.35.12.18.25,1.2-.53,6.8-3.33,7.95-4.14-.27-.12-.57.23-.89,0,.22-.36.51-.2.55-.47.39.4.78-.28,1.29.06l-.06-.32.25.07c1.27-1.07.25-.32,1.55-1,.71-.45.85-1,1.33-1.1-.06,0-.31-.05-.16-.22.16.22.41-.45.64-.26.16-.14.78-.44.4-.65.19.1.76-.13.52.19.19-.09.39-.15.48-.29l-.28,0c.58-.39,1.06-.32,1.29-.84h-.3c.36-.22.65-.42,1-.18l-.32.31a5,5,0,0,0,1.37-1l-.19.09c.47-.68,3.69-2.82,4.06-3.55l-.41-.09.39-.5c-.06,0,.2.94.11.89,1.08-.63,6.65-4,7.75-4.39.49-.09.3.35.31.39.45-.37.07-.38.5-.59.14,0,.09.2,0,.28.17-.14.39-.15.34-.27-.28,0-.35-.32-.56-.47L347,182l.09.2c.12-.06,0-.7.6-.89.94-.42,1.88-1,2.81-1.49,0,.13-.1.3-.25.48a.81.81,0,0,1,.45-.18c-.34-.08.3-.35.08-.34.4-.84,1.49-.88,1.9-1.53-.19-.46-2.83-8-3.11-8.52a1.28,1.28,0,0,1,.45-.17c-.12-.09-.5,0-.66.22l.12.29c-.38.34-.19-.1-.6.15-.15-.21.21-.47.55-.69-.33.15-.73.16-.72.48-.34.07-.12-.29-.52-.19-.21.2-.42.6-.78.63l0,0c-.83.16-.88.93-1.65,1.06l0-.11c-.3,0-.64.42-1.13.51.14,0,.33.08.1.24-.54.13-.78.44-1.22.46l-.21.4c-1.65.87-7.92,4.77-9.53,5.72l0-.07c-2.43,1.5-7.56,4.34-10,6.08a4.57,4.57,0,0,0-1.49.53c.28,0,.28.16.1.25-1.28.68,0,.2-1.24,1a69.52,69.52,0,0,1-8.55,4.5c-.53.71-1.54,1-2.12,1.54l0-.11c-.67.53-5,2.58-5.82,3.17l.14,0c-.64.62-.74.22-1.39.44.28.31-.25.87-.48,1l0-.08a19.06,19.06,0,0,1-1.58,1.43l-.09-.21a7.62,7.62,0,0,1-1.75,1.17,11.48,11.48,0,0,0-3.34,1.65l-1-.15-.08.11s2.56,7.32,4.83,7.91l.08.21.28-.19c.4-.1.44-.42.53-.21l-.5.25c.39-.15.2.09.12.28A1.75,1.75,0,0,1,301,209c0-.11-.1-.05-.18-.06.15-.17.32-.5.6-.54.37-.19.19.3.63.08,2.3-1.09,4.58-2.06,6.8-3.36.09,0,0,.08,0,.16.63-.46,1.25-.77,1.81-1.2a.66.66,0,0,1,.43.14A20.79,20.79,0,0,1,314.43,202.19Z"/><path class="cls-1" d="M298.9,219.72a1.08,1.08,0,0,0,.85.19A1,1,0,0,0,298.9,219.72Z"/><polygon class="cls-1" points="299.76 219.92 299.76 219.91 299.75 219.91 299.76 219.92"/><path class="cls-1" d="M356.92,201l-.25.05A1,1,0,0,0,356.92,201Z"/><path class="cls-1" d="M314.5,218.56v-.4c.71-.11.27.42.92.23.18-.6,1.11-.1,1.3-.43,0,0,.32,0,.33.2,0-.32.32-.12.52-.22s-.07-.09-.14-.17l.45-.17c.2.07.27.24.08.3,1.24-.06,7.16-.59,8.46-.93-.2-.2-.58,0-.79-.33.32-.25.52,0,.65-.24.21.52.78,0,1.12.53l.06-.32.2.17c1.49-.53.33-.21,1.7-.33.78-.15,1.1-.63,1.56-.53-.07,0-.27-.16-.07-.26.07.26.51-.27.65,0,.2-.06.85-.11.58-.45.13.17.72.16.4.37.2,0,.39,0,.52-.09l-.26-.07c.65-.14,1,.09,1.43-.3l-.26-.11c.39-.08.71-.15.92.19l-.39.16a4.66,4.66,0,0,0,1.56-.44h-.2c.64-.45,4.23-1.26,4.8-1.8l-.33-.24.52-.31c-.07,0-.14.95-.21.86,1.18-.19,7.27-1.26,8.38-1.22.46.09.14.43.14.48.52-.18.19-.33.65-.37.13,0,0,.22-.06.27.19-.06.39,0,.39-.12-.26-.07-.21-.43-.34-.64l.58-.06V212c.13,0,.24-.65.83-.61,1,0,2-.26,3-.35,0,.13-.19.24-.38.35.13,0,.33-.08.46,0-.27-.2.39-.21.19-.28.64-.64,1.63-.28,2.2-.73,0-.49.19-8.48.11-9.06a1.29,1.29,0,0,1,.46,0c-.07-.13-.46-.14-.65,0v.31c-.45.17-.13-.17-.59-.08-.06-.25.36-.37.72-.44-.33,0-.69-.12-.79.17-.33-.06,0-.31-.4-.36-.26.11-.58.4-.91.3v-.05c-.79-.15-1.1.55-1.82.38l.06-.09c-.26-.11-.72.15-1.18.06.14,0,.27.2,0,.26-.53-.08-.85.12-1.24,0l-.32.29c-1.77.2-8.65,1.52-10.41,1.81l.06-.05c-2.67.49-8.18,1.25-10.91,2a4.27,4.27,0,0,0-1.51,0c.26.06.2.25,0,.26-1.37.17-.07.18-1.44.48a63.36,63.36,0,0,1-9.12,1c-.71.47-1.69.33-2.4.66l.06-.1c-.78.25-5.34.55-6.25.8l.13,0c-.77.33-.72-.07-1.37-.11.14.39-.52.72-.78.79v-.09a19.31,19.31,0,0,1-1.89.74V210a6.51,6.51,0,0,1-2,.43,10.53,10.53,0,0,0-3.52.31l-.87-.52-.1.08s-.2,7.73,1.62,9.12v.22l.31-.07c.39.06.53-.22.54,0l-.52.05c.39,0,.14.16,0,.3a1.29,1.29,0,0,1,.45.06c.07-.1-.06-.09-.13-.13.19-.1.45-.35.71-.28s.08.35.53.31c2.42-.16,4.77-.23,7.18-.62.07.08,0,.09-.06.14.72-.2,1.37-.25,2-.44a.64.64,0,0,1,.33.28A19.59,19.59,0,0,1,314.5,218.56Z"/><path class="cls-1" d="M285.75,228.42c.14.3.5.43.83.58A1.29,1.29,0,0,0,285.75,228.42Z"/><path class="cls-1" d="M286.59,229h0Z"/><path class="cls-1" d="M356.44,239.2l-.29-.07A1.53,1.53,0,0,0,356.44,239.2Z"/><path class="cls-1" d="M303,234.79l.17-.37c.81.25.1.51.88.65.46-.45,1.24.44,1.59.24,0,0,.34.17.27.33.2-.26.4.05.65,0s0-.1-.07-.21l.57.06c.18.16.18.35-.06.31,1.36.53,8,2.87,9.51,3.19-.12-.28-.63-.27-.7-.68.45-.07.56.25.8.1,0,.56.83.39,1,1l.21-.26.14.24c1.84.23.44,0,2,.52.91.23,1.46-.05,1.91.26-.07,0-.21-.27,0-.27,0,.27.68,0,.71.3.24,0,1,.3.82-.13.07.21.71.48.27.52a1.35,1.35,0,0,0,.6.16l-.26-.18c.77.18,1.09.58,1.68.41l-.24-.23c.46.12.84.21.91.61l-.49,0a5.93,5.93,0,0,0,1.87.34l-.22-.07c.9-.11,5.11.87,6,.66l-.25-.38.69,0c-.07,0-.57.78-.6.68,1.34.38,8.37,2.32,9.55,2.88.45.3-.05.46-.07.5.64.08.35-.21.86,0,.13.09-.09.2-.18.22.23,0,.41.19.47.07-.25-.18,0-.48-.08-.74l.65.24-.09.2c.14.05.55-.46,1.17-.15,1.07.43,2.29.72,3.38,1.11-.06.13-.31.13-.57.13a1.09,1.09,0,0,1,.49.22c-.2-.3.51,0,.33-.16,1-.27,1.87.53,2.7.39.2-.44,4-7.53,4.16-8.08a1.33,1.33,0,0,1,.49.22c0-.15-.43-.35-.69-.34l-.13.28c-.57-.06-.07-.21-.6-.35.05-.25.54-.16,1-.05-.37-.15-.69-.44-.93-.22-.32-.21.13-.29-.27-.52-.32,0-.8.09-1.11-.16l0,0c-.78-.52-1.42,0-2.13-.53l.11,0c-.23-.23-.83-.21-1.28-.51.12.09.19.31-.12.24-.52-.33-1-.29-1.32-.61l-.48.11c-2-.66-10-2.75-12-3.32l.09,0c-3.09-.82-9.36-2.77-12.61-3.41a5.73,5.73,0,0,0-1.6-.76c.25.18.11.32-.11.24-1.55-.5-.16.13-1.76-.25a88.11,88.11,0,0,1-10.26-3.41c-1,.08-2-.51-2.87-.55l.11-.06c-.95-.15-6-2-7.07-2.25l.12.1c-1-.07-.74-.41-1.43-.75,0,.42-.88.39-1.19.33l0-.08c-.47-.08-1.6-.05-2.37-.23l.1-.21a9.09,9.09,0,0,1-2.29-.53,14.55,14.55,0,0,0-3.93-1.4l-.7-.88-.14,0s-3.68,6.86-2.34,9l-.1.2.37.08c.4.24.67.06.58.26l-.58-.21c.41.2.07.21-.13.28a1.93,1.93,0,0,1,.47.27c.11-.06,0-.11-.09-.18.25,0,.64-.1.89.09.44.15-.08.35.43.53,2.67,1,5.23,2.06,8,2.85,0,.11,0,.08-.13.1.86.16,1.59.42,2.37.56a.72.72,0,0,1,.23.41A27.76,27.76,0,0,1,303,234.79Z"/><path class="cls-1" d="M95.88,220.73c-.11-.29-.43-.41-.72-.55A1,1,0,0,0,95.88,220.73Z"/><polygon class="cls-1" points="95.15 220.18 95.15 220.18 95.16 220.18 95.15 220.18"/><path class="cls-1" d="M32.48,211.43l.25.07A1,1,0,0,0,32.48,211.43Z"/><path class="cls-1" d="M80.54,214.76l-.17.37c-.73-.23-.07-.5-.77-.62-.44.45-1.1-.42-1.42-.21,0,0-.31-.16-.23-.32-.2.26-.36,0-.59,0s0,.1,0,.21l-.51,0c-.15-.15-.14-.34.07-.31-1.21-.5-7.08-2.69-8.46-3,.1.27.56.26.61.65-.42.09-.5-.23-.72-.08,0-.56-.74-.37-.84-1l-.19.26-.12-.23c-1.66-.2-.41,0-1.76-.48-.81-.21-1.32.08-1.72-.22.07,0,.18.26-.05.27.05-.27-.6,0-.62-.28-.22,0-.86-.28-.75.15-.06-.22-.62-.47-.22-.52a1.2,1.2,0,0,0-.54-.15l.23.18c-.69-.16-1-.55-1.5-.37l.2.22c-.4-.11-.74-.19-.79-.59l.44,0a4.7,4.7,0,0,0-1.68-.3l.2.07c-.82.12-4.58-.77-5.36-.54l.21.37-.63,0c.06,0,.55-.79.57-.68-1.19-.36-7.46-2.13-8.5-2.67-.4-.29.06-.45.08-.49-.58-.07-.33.21-.78,0-.11-.09.09-.2.18-.22-.22,0-.37-.19-.43-.07.22.18,0,.48,0,.74l-.59-.22.1-.21c-.13,0-.52.47-1.07.17-1-.4-2-.67-3-1,0-.12.28-.13.52-.14-.13-.05-.35-.08-.44-.21.17.3-.46,0-.3.17-.89.29-1.67-.49-2.42-.34-.21.45-3.92,7.54-4.1,8.09a1.12,1.12,0,0,1-.43-.21c0,.15.38.33.61.33l.13-.29c.51,0,0,.21.52.34,0,.25-.49.17-.88.07.33.14.61.42.84.2.28.2-.13.28.22.51.29,0,.73-.11,1,.14l0,0c.69.49,1.29,0,1.9.48l-.1,0c.21.22.75.19,1.15.48-.11-.09-.17-.3.11-.24.46.31.86.27,1.17.58l.43-.12c1.76.61,8.89,2.53,10.69,3.06l-.08,0c2.76.75,8.33,2.56,11.25,3.13a4.83,4.83,0,0,0,1.41.72c-.22-.18-.08-.32.11-.24,1.38.47.15-.13,1.58.21a69.9,69.9,0,0,1,9.12,3.18c.88-.1,1.75.47,2.58.49l-.11.06c.85.13,5.32,1.91,6.3,2.09l-.11-.09c.89.05.65.39,1.26.71,0-.41.81-.4,1.09-.35l0,.08c.43.07,1.45,0,2.13.19l-.09.2a7.1,7.1,0,0,1,2,.49A11.88,11.88,0,0,0,92,228.88l.6.85.13,0s3.6-6.86,2.48-8.93l.1-.2-.33-.07c-.35-.23-.61,0-.51-.24l.51.19c-.36-.19-.06-.21.13-.28a1.31,1.31,0,0,1-.41-.26c-.1.06,0,.11.07.17-.23,0-.58.12-.8-.06-.39-.15.08-.35-.37-.52-2.37-.94-4.64-1.93-7.1-2.67,0-.11,0-.08.12-.1-.76-.14-1.41-.39-2.11-.51a.62.62,0,0,1-.19-.4A21.64,21.64,0,0,1,80.54,214.76Z"/><path class="cls-1" d="M95.09,230.36a1.12,1.12,0,0,0-.83-.26A1,1,0,0,0,95.09,230.36Z"/><path class="cls-1" d="M94.26,230.1h0Z"/><path class="cls-1" d="M35.78,244.43l.25,0A1.07,1.07,0,0,0,35.78,244.43Z"/><path class="cls-1" d="M79.45,230.29l0,.4c-.72.05-.24-.44-.9-.3-.23.58-1.11,0-1.33.32,0,0-.32,0-.31-.22-.08.31-.33.09-.53.18s.06.09.12.18L76,231c-.19-.09-.25-.27-.05-.31-1.24,0-7.19,0-8.51.26.18.22.58,0,.76.39-.34.23-.52,0-.66.19-.17-.54-.78-.09-1.08-.62l-.09.31L66.2,231c-1.53.41-.35.17-1.72.18-.79.1-1.15.55-1.6.42.07,0,.26.17,0,.26,0-.26-.53.23-.65,0-.2,0-.85,0-.61.41-.12-.18-.71-.22-.37-.4a1,1,0,0,0-.53,0L61,232c-.66.09-1-.17-1.45.19l.25.13c-.39,0-.72.09-.9-.26l.4-.14a4.64,4.64,0,0,0-1.59.32h.2c-.68.41-4.32.93-4.93,1.42l.31.27-.54.27c.07,0,.21-.93.27-.85-1.18.1-7.34.69-8.44.57-.46-.13-.11-.45-.11-.49-.53.14-.21.31-.67.32-.13,0,0-.23.08-.27-.2,0-.39,0-.4.09.26.09.17.44.29.67h-.59l0-.22c-.14,0-.3.62-.88.54-1,0-2,.1-3,.11,0-.13.21-.22.41-.31a.81.81,0,0,1-.46-.05c.25.22-.4.19-.21.27-.69.59-1.65.15-2.26.55,0,.49-.85,8.45-.82,9a.93.93,0,0,1-.45,0c.06.14.45.18.65.09v-.31c.47-.14.13.17.59.12,0,.26-.39.34-.76.38.34,0,.69.18.81-.11.32.09,0,.31.37.4.27-.09.61-.36.93-.23v0c.77.22,1.13-.45,1.84-.23l-.07.09c.26.13.73-.1,1.18,0-.13,0-.25-.22,0-.26.52.13.86-.06,1.24.12l.34-.27c1.77-.06,8.74-.83,10.52-1l-.07.05c2.7-.29,8.26-.61,11-1.12a4.25,4.25,0,0,0,1.5.17c-.26-.09-.18-.27,0-.27,1.38-.05.09-.17,1.47-.36a64.68,64.68,0,0,1,9.17-.31c.75-.41,1.72-.19,2.45-.47l-.07.09c.8-.18,5.37-.12,6.3-.3l-.13,0c.8-.27.71.13,1.36.21-.11-.4.58-.67.84-.71V240a17.09,17.09,0,0,1,1.94-.6v.23a6.45,6.45,0,0,1,2-.29,10.52,10.52,0,0,0,3.54,0l.82.58.11-.07s.81-7.69-.9-9.22l0-.22-.32.05c-.39-.09-.55.18-.53-.05h.52c-.39,0-.13-.17,0-.31a1.29,1.29,0,0,1-.45-.09c-.07.09.06.09.13.14-.21.09-.48.31-.74.22s0-.35-.5-.35c-2.42,0-4.77-.14-7.21.06-.06-.09,0-.09.07-.14-.72.14-1.38.15-2,.28a.69.69,0,0,1-.31-.3A19.94,19.94,0,0,1,79.45,230.29Z"/><path class="cls-1" d="M105.67,237.44a1.59,1.59,0,0,0-1,.19A1.25,1.25,0,0,0,105.67,237.44Z"/><path class="cls-1" d="M104.68,237.63h0Z"/><path class="cls-1" d="M48.52,280.41l.25-.16A.82.82,0,0,0,48.52,280.41Z"/><path class="cls-1" d="M89,245.33l.14.38c-.75.41-.43-.28-1.08.18,0,.64-1.18.57-1.28,1,0-.05-.36.12-.42,0,0,.32-.32.25-.49.43s.1.05.2.1l-.44.36c-.24,0-.37-.11-.18-.25-1.33.59-7.63,3.68-8.93,4.56.28.11.64-.26,1,0-.27.38-.57.23-.63.51-.4-.4-.86.32-1.4,0l0,.33-.27-.07c-1.45,1.16-.29.34-1.75,1-.8.49-1,1.07-1.52,1.19.07,0,.34,0,.16.21-.16-.21-.47.48-.71.3-.19.14-.88.48-.48.68-.2-.1-.84.16-.56-.18a1.54,1.54,0,0,0-.54.32l.31-.05c-.66.42-1.17.37-1.46.9h.33c-.41.24-.74.45-1.07.22l.37-.33a6.19,6.19,0,0,0-1.56,1.1l.21-.1c-.55.71-4.2,3-4.65,3.8l.45.08-.46.52c.07,0-.16-1-.06-.91-1.22.7-7.52,4.36-8.74,4.81-.54.11-.3-.35-.32-.39-.5.39-.09.39-.58.63-.15,0-.08-.21,0-.29-.2.15-.44.17-.39.29.31,0,.37.32.59.46l-.63.3-.08-.21c-.14.07,0,.72-.71.94-1.06.47-2.12,1.13-3.16,1.64-.05-.13.13-.31.31-.5-.14.07-.33.22-.5.2.35.07-.36.37-.12.35-.48.88-1.68,1-2.16,1.65.17.46,2.58,8.13,2.86,8.63a1.46,1.46,0,0,1-.5.2c.12.09.55-.07.72-.25l-.11-.3c.44-.36.21.1.67-.18.15.21-.26.5-.64.73.36-.16.8-.19.81-.51.38-.08.11.29.56.17.24-.21.5-.63.89-.68l0,0c.91-.2,1-1,1.86-1.16l0,.12c.33,0,.73-.46,1.27-.57-.16,0-.36-.07-.1-.25.6-.14.89-.48,1.37-.51l.25-.42c1.86-1,8.94-5.2,10.76-6.24l0,.08c2.75-1.64,8.52-4.75,11.26-6.63a5.82,5.82,0,0,0,1.66-.61c-.31.05-.31-.15-.1-.25,1.44-.75,0-.2,1.41-1.08a89.32,89.32,0,0,1,9.61-4.94c.62-.75,1.74-1,2.41-1.67l0,.12c.77-.57,5.65-2.84,6.56-3.48l-.16,0c.74-.66.82-.25,1.54-.5-.28-.31.33-.91.6-1.08l0,.08a23.17,23.17,0,0,1,1.82-1.53l.08.21a9,9,0,0,1,2-1.26,14.17,14.17,0,0,0,3.75-1.83l1.11.12.09-.12s-2.33-7.42-4.77-7.95l-.07-.2-.32.2c-.45.12-.51.44-.59.23l.56-.27c-.43.16-.21-.09-.12-.28a1.7,1.7,0,0,1-.51.14c0,.12.1.05.19.06-.18.19-.38.53-.69.58-.41.2-.19-.3-.68-.06-2.58,1.2-5.13,2.29-7.63,3.71-.1,0,0-.08,0-.16-.71.5-1.41.83-2.05,1.3a.72.72,0,0,1-.46-.13A27.67,27.67,0,0,1,89,245.33Z"/></g></svg>