<svg xmlns="http://www.w3.org/2000/svg" viewBox="0 0 385.51 385.51"><defs><style>.cls-1{fill:#2c2c2c;}.cls-2{fill:#fff;}</style></defs><g id="vetements"><polygon class="cls-1" points="323.62 138.04 304.52 124 270.51 97.06 261.92 89.11 255.38 84.07 246.58 81.18 208.19 72.37 198.7 72.12 183.77 105.81 177.29 112.98 167.51 108.07 135.95 84.34 128.02 87.26 97.33 108.08 88.89 115.86 82.48 125.05 78.59 133.03 56.65 170.46 43.92 190.46 92.35 220.31 120.66 174.44 122.66 216 125.39 272.62 127.97 325.96 294.34 294.78 277.43 244.13 259.47 190.36 246.29 150.89 289.29 183.41 323.62 138.04"/><path class="cls-1" d="M323.33,131.84c-2.54-2.17-7.15-5.58-11.5-8.83C315.06,125.67,318.58,128.38,323.33,131.84Z"/><path class="cls-1" d="M311.75,122.94l-.07,0,.15.11Z"/><path class="cls-1" d="M316.67,137.85l-2.7,3.58C314.88,140.24,315.81,139,316.67,137.85Z"/><path class="cls-1" d="M98.18,100.46l-.47.8-3.78,2.54-1.12,1-.66.57-.91.76c-.46.37-.7.53-1,.76s-.7.54-1.47,1.22l-1.49,1.35c-.74.69-1.65,1.52-2.76,2.56,0,0-.07.1-.12.17l-1.33,2.17c-.42.67-.91,1.41-1.46,2.22s-1.14,1.65-1.75,2.55-1.44,2-2.17,3.08c-1.44,2.88-2.9,5.82-4.06,8.15l-1.05,1.82c-.33.59-.6,1.1-.8,1.5a8.26,8.26,0,0,0-.46.72c-.27.45-.65,1.05-1,1.65a11.19,11.19,0,0,1-1.46,2.15c-.64,1.7-3,5.22-4.77,8.44-.6,1.19.58-.8,1.16-1.62l-4.18,7.34c-1.75,2.8-2.32,3.41-.53.29-1.76,3-4.58,7.75-8.15,13.78-1.81,3-3.95,6.21-6.18,9.73-3.23,5.05-6.69,10.46-10.31,16.14l58.4,36.15,20.14-32.57,1.14-1.85v0l0-.06a1.08,1.08,0,0,0,.07-.18h0v-.08c.07-.3,0-.25,0-.24s-.11,0-.23-.15a2.21,2.21,0,0,1,.37-.72,1.67,1.67,0,0,0,.31-.65l-.05.29a7.64,7.64,0,0,0-.17,1.24c0,.24-.06.54-.3.62a.4.4,0,0,1,.15,0h.11l0,.23,0,3.13c1.65,27.65.46,6.32,1.57,30.84.73,14.19,1.48,20.92,1.7,28.82-.05-1.17,0-4.31.24-.64-.24.64.67,9.78.48,11.59.21,3.6.74,15.27.92,11.3-.09,2,.33,12.4-.12,6.21.15,3.51.26,6.92.47,9.44l-.12-4.51c.63,11.86.66,18.33,1.36,26l-.06-4.39c.15,3.2.3,6.19.42,8.8.2,4.38.34,8.16.38,11.18,1.2-.19,2.21-.32,3-.42l-3.22.63-.59-10.45c.19,3.85.36,7.43.51,10.55L140.54,329l11.11-2.25-3.45.64c12.22-2.66,76.45-15,87.68-17.58l-5.26.7,9.69-2.06c-1.15.22-4.53,1.79-5.51,1.88l65.13-12.3c-6.41-19.14-13.2-39.43-18.87-56.39-5.2-15.57-9.36-28.1-11.1-33.47-2.36-7.56,0-1.5,0-1.43-3.15-9.09-1.6-3.84-4.17-11.61-.66-2.13.36.37.8,1.55-1.17-3.39-2.13-6.58-2.34-6.8,1.32,4.29.39,2.6.77,4.47l-3.3-10,.35.37c-.73-2.23-2.46-5.45-5.62-15.3l-2.63-8,16.49,12.5c-.29-.06-3.28-2.22-6.27-4.38,1.87,1.42,4.75,3.56,6.42,4.94-3.24-2.74,6,4.31,3.39,2.24,2.07,1.43,4.23,3,6.45,4.61l4.22,3.13,5.44,4.1,10.05-13.26c2.51-3.33,4.86-6.49,6.85-9.3.21-1.09,8-24.42,7.52-24.77,2.13-2.81,4.26-5.59,4.94-6.42-.65.64-4.88,6.12-7,9.1l-.14.7c-5,6.81-1.34,1.47-6.31,8.07-.47.19,4.08-5.9,8.1-11.26-3.66,4.79-7.43,9.47-8.69,11.6-3.51,4.45.13-.69-4.08,4.68-2.87,3.92-6.53,9.17-10,13.53l0-.11-3,3.91s0,0,0,.08a.14.14,0,0,1-.11,0h0l-.06,0-.54-.39-1.06-.77-2.13-1.56c-2.86-2.09-5.8-4.3-9.19-7l1.12.74c-1.7-1.38-4.31-3.33-7.26-5.55l-5.64-4.26-9.48-7.24c3.62,2.8,6.63,5.3-.74-.23-6.87-5.3-12.74-9.73-18.08-13.78,2.26,6.8,4.29,12.89,6.29,19.21l4.27,12c7,20.89,28.87,85.88,41.79,124.35l-46.62,8.83,1.21-.27L132.82,319.82c-1.49-28.76-2.9-55.89-3.9-75.14-.13-7.75-.7-18.42-1-26.49.12,4.49-.13,3-.29-.54-.58-12.3-.64-12.71-.72-13.16a17.54,17.54,0,0,1-.2-2.19c-.06-.86-.13-2.1-.24-3.9-.12-2.27-.28-5.23-.48-9.14-.37-7.17-.88-17.25-1.5-29.6-8.89,14.41-21,34.05-33.59,54.43L50.39,189l.74-1.12q1.51-2.39,3-4.62c1.95-3,3.78-5.89,5.45-8.49.41-.65.82-1.28,1.22-1.9L61.85,171l2-3.38c1.26-2.11,2.34-3.92,3.22-5.41,2.3-4.15,4.86-8.63,7.51-13.18l8.07-13.82c1.3-2.69,2.57-5.32,3.78-7.84l2.22-3.28-.7,1.15,4.4-6.36,7.83-7.21,30-20.26,5-1.83L165,112.07l8.38,4.19-3-1.56,7.92,3.91,3.78-4.18,2.38-2.6,3.26-3.43,1.89-4c.61-1.3,1.33-2.86,2.27-4.89-1,1.22,3.87-10.3,5.78-14.66v.2l2.09-4.89L201,77.39c.12-.33.26-.68.4-1l.69,0h1.16l4.47,0,6.43,1.39,6.47,1.43-.5.11c3.35.68,7.7,1.64,12.24,2.66l13.2,3,8,2.62,0,0,5.8,4.54,8.51,8,16.86,13.52c5.76,4.59,11.6,9.18,17.21,13.51l11,8.85,1.7,1.17s5.71,1.83,8.63,1.36,3-3.26-8-12.38l.5.09L311.16,123q-2-1.53-3.54-2.63l-2.41-1.86c-1.25-1-1.78-1.37-1.54-1.31l3.65,2.9,3.73,2.77c-5.45-4.09-1.54-1.36.63.08-2.29-1.7-4.5-3.35-6.22-4.85-1.11-.76.72.69,1.52,1.39-2.92-2.22-7.06-5.23-10.51-8.09-5.47-4.37-.13-.56-6.51-5.65L274,93l-8.59-8L258,79.16l-9.92-3.3-39.15-9.13-13.86-.38L181.42,97.07c-.48.87,0-.21.47-1.37l-3,6.93-2.67,3-.12.14,0,0,0,0-.07.08-.11,0-.06,0-.87-.43-4.39-2.19c-1.93-1.42-3.84-2.84-5.76-4.27-2.6-2.07-3.24-2.73-4-3.39.32.29-2.08-1.47-6-4.41-4.6-3.44-11-8.24-17.86-13.35l-11.56,4.27Z"/><path class="cls-1" d="M325.62,319.16l6.6,6.34a9.15,9.15,0,1,1,2.49-7.38Z"/><path class="cls-1" d="M319.11,326.3a1,1,0,0,0,.24,1.07C319.48,326.85,319.41,326.51,319.11,326.3Z"/><path class="cls-1" d="M319.34,327.38h0Z"/><path class="cls-1" d="M327.16,330.39l.28-.06A.4.4,0,0,0,327.16,330.39Z"/><path class="cls-1" d="M325.63,319.28h0v-.06l0-.05,0-.06v0l0,0s0,0,0,0v0h0s0,0-.15.12-.1,0,0,0h-.05a.66.66,0,0,1,.15,0,.28.28,0,0,1,.1.06s0,0,0,0h0s0,0,0,0h0l0,0v0l-.08-.1h0l0-.06,0,0,0-.09h0v0s0,.19,0,.06V319a2.09,2.09,0,0,1,0-.28,6,6,0,0,1,.19-.61,5,5,0,0,0,.09-.56c.07-.14.14-.29.23-.44,0,0-.15.44-.27.86s-.18.65-.2.74a.42.42,0,0,1,.39,0c.18.09.25.24.07.32l-.26.08-.15,0h0c-.08,0,0,0,0,0h-.07l1-.2s0,.05,0,.08l-.45,0h.16l7.39-9.31c-.11.34-.28,1.05-.8.92-1.11-.06-2.27.23-3.37.25,0-.27.2-.45.41-.63-.15,0-.37.1-.52-.08.32.44-.42.37-.2.54-.67,1.17-1.82.3-2.44,1.11.05,1,.39,16.82.53,18-.23,0-.45,0-.52-.08a.5.5,0,0,0,.74.17l0-.63c.5-.27.16.36.67.26.09.5-.37.66-.78.76.38,0,.79.34.88-.23.38.17,0,.62.49.79.28-.19.62-.73,1-.47v.09c.9.43,1.2-.91,2-.49l-.06.18c.31.26.8-.19,1.33.06-.16-.08-.32-.43,0-.53.6.26,1-.11,1.41.24l.34-.54,1.15-.12,11.46-1.39-1.56-11.08a19.57,19.57,0,0,0-1.41-5.13A20.19,20.19,0,0,0,340.7,306a19.74,19.74,0,0,0-5.2-4,20.59,20.59,0,0,0-4.19-1.68l.19,0a21.26,21.26,0,0,0-6-.75,19.5,19.5,0,0,0-7.08,1.51,18.36,18.36,0,0,0-5.95,4,15.81,15.81,0,0,0-3.32,4.83,7.07,7.07,0,0,0-1.89,2.94c.4-.5.65-.18.48.24-.54,1.5-.39,1.6-.31,1.68s.18.17,0,1.74a31.11,31.11,0,0,0,0,4.28A20.42,20.42,0,0,0,309,326.7a19.69,19.69,0,0,0,3.19,5.15,24.92,24.92,0,0,0,2.91,2.88,12.56,12.56,0,0,1,2.64,1,7,7,0,0,0,2.63.8l-.21.11c.45.06,1.39.34,2.63.55a18.71,18.71,0,0,0,4.29.28,15,15,0,0,0,6.92-1.88l-.3,0c1.4-1.25,1.55-.44,2.94-1.07-.6-.55.34-1.84.71-2.28l.1.15a9,9,0,0,0,.76-1.19l5.68-10.13L338,319.49a5.23,5.23,0,0,1-1.51-.59l.33-.3c-.78-.09-1.48-1-1.84-1.31-.61-.84-1.2-2.48-2.59-3l.24-1.52h-.18s-11.6,10-12.55,13.62l-.33.3.3.21c.15.45.65.22.32.51l-.38-.44c.22.39-.16.35-.45.42a1,1,0,0,1,.2.51c.18-.06.08-.18.1-.29.27,0,.79,0,.85.31.29.33-.47.54-.14.93,1.33,1.64,2.56,3.33,4,4.85l1.27-14.53h0C325.64,319.33,325.62,319.28,325.63,319.28Z"/><circle class="cls-1" cx="307.56" cy="251.58" r="0.57"/><path class="cls-1" d="M307.57,251.57h0Z"/><path class="cls-1" d="M298.87,259.7l.24.2A.53.53,0,0,0,298.87,259.7Z"/><path class="cls-1" d="M307.57,251.58h0s0,0,0,0h0l-.5.58L306,253.34a80.45,80.45,0,0,1-6.56,6.2c-.14-.18-.28-.36-.26-.48-.17.23.06.66.34.72l.47-.42c.53.21-.17.36.26.69-.31.4-.78.14-1.13-.15.24.33.31.89.81.58.16.42-.45.45-.2.93.38.11,1,0,1.19.43l-.05.07a1.09,1.09,0,0,0,1.12.51c.41,0,.78-.05,1.09.36l-.15.12c.19.4.9.24,1.35.68-.13-.14-.15-.53.18-.5.54.48,1,.24,1.43.7l.5-.44a9.25,9.25,0,0,0,2.61-.09,11,11,0,0,0,3.57-1.27,11.84,11.84,0,0,0,4.34-4.35l0,.12a11.69,11.69,0,0,0,1.57-6.06,8.59,8.59,0,0,0-2.25-5.68c.16-.67-.34-1.14-.56-1.6,0,.35-.31.5-.43.33-1-1.08-.29.13-1.48-.67a19.54,19.54,0,0,0-4.24-1.94,14.2,14.2,0,0,0-4.62-.42c-.56.88-1.66.76-2.12,1.55l0-.19c-.29.32-1.49.94-2.48,1.9a6.25,6.25,0,0,0-1.83,2.72l.15-.08c.09.93-.59.53-1,1.13a1.44,1.44,0,0,1,1.1,1.17l-.18,0c.05.42.66,1.31.79,1.86l-.44,0c.47.49.39,1.38.53,1.72a9,9,0,0,0,0,1.56,2,2,0,0,0,.91,1.47c-.21.44-.4.89-.57,1.36l.18,0s.79-.54,2-1.44,2.73-2.18,4.31-3.58l2.38-2.12,1.16-1,.28-.26.14-.12-2.56,2.28h0S307.58,251.6,307.57,251.58Z"/><circle class="cls-2" cx="192.53" cy="254.98" r="9.15"/><path class="cls-2" d="M189.77,258.3a.41.41,0,0,0-.06-.46C189.62,258.07,189.65,258.22,189.77,258.3Z"/><polygon class="cls-2" points="189.71 257.83 189.71 257.83 189.71 257.84 189.71 257.83"/><path class="cls-2" d="M183.6,266.79l.32.21A1.6,1.6,0,0,0,183.6,266.79Z"/><path class="cls-2" d="M190.1,252.74l-.28-.29c.19-.21.39.27.48,0-.31-.51.35-.19.23-.49,0,0,.14,0,.22.15-.13-.28.07-.12.09-.23s-.06-.07-.12-.14a.67.67,0,0,1,.11-.18c.11.06.2.22.15.28a4.19,4.19,0,0,1,1.48-.15,11.48,11.48,0,0,1,1.4.31c0-.23-.15-.16-.08-.51.21-.16.15.15.29,0-.17.51.22.24,0,.77l.18-.24,0,.19c.61,0,.22-.08.53.29.23.15.65,0,.63.21,0,0,.1-.2.21-.18-.21.18.28.07.09.26.08,0,.17.29.45,0-.13.14-.08.37-.29.33,0,.07,0,.17.11.18l.05-.14c.17.23-.05.46.32.52l.1-.15c.1.15.15.29-.19.45l-.14-.13a1,1,0,0,0,.13.31.77.77,0,0,0,.23.27v-.08c.23.11.42.58.55,1.1a8.89,8.89,0,0,0,.29,1.34l.32-.06a3.18,3.18,0,0,1,.11.38s-.79-.47-.7-.46a5,5,0,0,1-1.09,1.84,3.1,3.1,0,0,1-1.82,1.05c-.25-.06-.17-.41-.19-.45-.2.18,0,.32-.23.35s0-.22,0-.26-.18,0-.16.11.17.42.28.63a1.65,1.65,0,0,1-.31,0l0-.22c-.06,0-.07.64-.41.55a6.55,6.55,0,0,1-1.66-.17c0-.13.16-.18.28-.23-.06,0-.17,0-.21-.13.07.26-.25.11-.18.23-.26.23-.48.13-.7.07a.79.79,0,0,0-.63-.14,30,30,0,0,1-2.7,3.57c-1.4,1.62-3,3-3.21,3.27a2.53,2.53,0,0,1-.51-.45c0,.15.41.55.71.67l.22-.23c.64.31,0,.26.63.6-.1.24-.69,0-1.16-.37.39.33.74.77,1.07.63.37.33-.21.24.26.63.41.16,1,.16,1.4.49l0,0a2.58,2.58,0,0,0,1.41.46,3.8,3.8,0,0,1,1.38.29l-.14.06c.35.25,1.12.17,1.79.4-.19-.08-.33-.28.07-.26.78.22,1.32.07,1.9.25l.54-.28a13.12,13.12,0,0,0,3.21-.61,14.53,14.53,0,0,0,9-8.44v.11a14.73,14.73,0,0,0,.88-8.08,13,13,0,0,0-3.79-7.16,5.82,5.82,0,0,0-1.41-1.68c.22.32,0,.37-.2.18-.79-.61-.85-.58-.91-.56s-.12,0-1-.4a16.58,16.58,0,0,0-6.33-1.76,15.66,15.66,0,0,0-6.35,1c-.85.76-2.13,1.29-2.83,2.15l0-.13a18.61,18.61,0,0,0-3,3.26,11.2,11.2,0,0,0-1.81,4.2l.09-.16c0,1.18-.38.94-.63,1.87.4-.07.55.92.59,1.29l-.08,0a20.51,20.51,0,0,0,.7,2.66h-.23a7.82,7.82,0,0,1,.5,1.36c.16.48.33.95.43,1.19a8.11,8.11,0,0,0,2.48,4.13,9.38,9.38,0,0,0,.36,1.22l.16.06s.4-.28,1-.77a21.33,21.33,0,0,0,2-2,17.56,17.56,0,0,0,3-4.35l.16-.16-.13-.07c0-.21-.27-.09-.1-.23l.13.19c-.06-.17.1-.16.23-.21a.36.36,0,0,1,0-.21c-.08,0,0,.07-.07.13s-.37,0-.35-.12.28-.23.18-.39a5.41,5.41,0,0,1-.33-2.67c.1,0,.09,0,.13,0a.94.94,0,0,1,0-.37c0-.12,0-.24,0-.36a.65.65,0,0,1,.34,0s-.07-.09,0-.2a1.19,1.19,0,0,1,.15-.42A1.64,1.64,0,0,1,190.1,252.74Z"/><circle class="cls-2" cx="229.72" cy="272.75" r="6.47"/><path class="cls-2" d="M230.48,271.3c-.08.23,0,.27,0,.32C230.54,271.41,230.54,271.31,230.48,271.3Z"/><polygon class="cls-2" points="230.44 271.63 230.45 271.63 230.45 271.62 230.44 271.63"/><path class="cls-2" d="M234.84,261.75l-.29-.11A1,1,0,0,0,234.84,261.75Z"/><path class="cls-2" d="M230.27,273.07l.34.21c0,.08-.4-.23-.34-.13.44.37-.11,0,.12.24a.71.71,0,0,1-.19-.16c.2.23,0,.07.07.15l.13.13a.45.45,0,0,1,0,.11,1.12,1.12,0,0,1-.2-.24,2.31,2.31,0,0,1-.37-.06c-.14-.05-.2-.09-.25,0,0,.23,0,.09,0,.45-.07.21,0-.09-.09.12.1-.52-.06-.14.09-.67l-.1.29,0-.18c-.22.24-.1.14-.15,0s-.35.34-.29.18a.67.67,0,0,1-.17.21c.17-.21-.18.1,0-.1,0,0-.06-.08-.32.19.12-.14.13-.24.28-.31,0,0,0-.08,0,0l-.06.09c-.1,0,.12-.23-.2-.1l-.1.1c-.06,0-.1-.07.21-.26h.12c0-.07-.08-.09-.29-.09v0a.78.78,0,0,1-.6-.28c-.21-.18-.36-.43-.58-.55l-.29,0a2,2,0,0,1-.21-.2s.88.23.8.22a2,2,0,0,1,.25-.93c.2-.38.55-.65.72-.62s.24.38.26.42c0-.14-.11-.28,0-.3a.72.72,0,0,1,.1.24c0-.05.09,0,0-.1a5,5,0,0,1-.34-.59l.15,0,.08.21s-.15-.6,0-.54a5.9,5.9,0,0,1,.83-.06.52.52,0,0,1-.11.29s.08,0,.11.07c-.06-.23.1-.15.06-.25.1-.29.23-.26.34-.25a.27.27,0,0,0,.35-.07,30.69,30.69,0,0,1,1.7-4.11c.94-1.91,2.16-3.68,2.28-3.95a1.87,1.87,0,0,1,.48.29c0-.15-.41-.4-.68-.43l-.15.27c-.57-.11,0-.23-.6-.4.06-.25.58-.13,1,0-.37-.2-.71-.52-1-.31-.35-.22.14-.28-.3-.53-.36,0-.86.1-1.22-.12l0,0c-.94-.44-1.52.16-2.37-.11l.09-.08c-.32-.16-.93.07-1.5,0,.16,0,.32.21,0,.27-.66-.07-1.07.17-1.57.09l-.37.36a10.34,10.34,0,0,0-2.47,1.05,12.2,12.2,0,0,0-3,2.5,12.06,12.06,0,0,0-2.7,5.82l0-.09a12,12,0,0,0,.72,6.57,10.31,10.31,0,0,0,4.27,5c.27.51.93.82,1.37,1.13-.21-.24,0-.34.16-.22,1.46.65.15-.06,1.7.38a14.18,14.18,0,0,0,5.28.3,13,13,0,0,0,4.85-1.82c.51-.8,1.46-1.39,1.83-2.22v.12a15.78,15.78,0,0,0,1.77-3.07,8.57,8.57,0,0,0,.72-3.61l0,.14c-.21-.94.17-.81.23-1.58-.38.13-.71-.62-.81-.9h.09a19.89,19.89,0,0,0-1.09-1.93l.22-.06c-.43-.47-.91-1.48-1.18-1.82a5.87,5.87,0,0,0-2.6-2.82,6.64,6.64,0,0,0-.42-1h-.14s-.32.37-.75,1a24.15,24.15,0,0,0-1.47,2.39,43.61,43.61,0,0,0-2.19,4.77l-.12.19h.07c0,.13.16-.06,0,.12a.35.35,0,0,1,0-.08c0,.1-.09.16-.17.26a.37.37,0,0,1,0,.13.33.33,0,0,0,.06-.12c.07-.05.24-.2.21-.09s-.23.28-.2.34c.1.33-.07.62,0,.79h-.13c.1,0,.07.09.16.15l-.33,0C230.39,272.81,230.34,273.1,230.27,273.07Z"/><circle class="cls-2" cx="226.99" cy="239.9" r="2.74"/><path class="cls-2" d="M227,239.94l0,0Z"/><path class="cls-2" d="M230.54,232.29l-.21-.08A.49.49,0,0,0,230.54,232.29Z"/><path class="cls-2" d="M227,239.89h0s0,0,0,0v0h0v0l0,0h0l0,0,0,0s0,0,0,0h0a.1.1,0,0,1,0,0h0l0-.12.17-.54a27.74,27.74,0,0,1,1-2.74,45,45,0,0,1,2-4c.15.08.3.16.32.22,0-.14-.25-.34-.44-.33l-.15.27c-.4,0,0-.21-.38-.32.06-.25.43-.18.73-.07-.25-.14-.47-.42-.67-.19-.24-.19.13-.29-.17-.49-.26,0-.63.16-.87,0l0,0c-.65-.38-1.07.23-1.66,0l.07-.09c-.23-.15-.65.06-1.06-.05.12,0,.23.22,0,.27-.47-.1-.74.12-1.1,0l-.24.33a6.79,6.79,0,0,0-1.7.73,8,8,0,0,0-2,1.75,8.33,8.33,0,0,0-1.79,4l0-.07a8.25,8.25,0,0,0,.53,4.48,6.67,6.67,0,0,0,3,3.32c.14.41.59.6.88.83-.13-.19,0-.31.14-.23,1,.46.13-.09,1.17.18a11,11,0,0,0,3.5.18,9.64,9.64,0,0,0,3.26-1.12c.26-.63,1-1,1.15-1.56l0,.1a13.9,13.9,0,0,0,1.18-2,5.36,5.36,0,0,0,.49-2.4l0,.1c-.22-.63.17-.54.25-1.06-.39.09-.69-.39-.76-.56h.09c-.12-.29-.63-.81-.86-1.2l.21-.07a5.52,5.52,0,0,1-.81-1.14c-.26-.55-.71-1.61-1.63-1.86a6.21,6.21,0,0,0-.16-.84h-.11s-.28.38-.68,1-.9,1.5-1.39,2.43-1,1.94-1.37,2.79l-.15.3h0v0h0l-.05,0Z"/><path class="cls-1" d="M229.31,239a.17.17,0,0,1,.08.22.17.17,0,0,1-.23.08.18.18,0,0,1-.08-.23.24.24,0,0,1,.09-.08"/><path class="cls-1" d="M230.23,241.19l.06.13Z"/><polygon class="cls-1" points="230.29 241.33 230.29 241.32 230.29 241.32 230.29 241.33"/><path class="cls-1" d="M228,236.42l0,0A.05.05,0,0,0,228,236.42Z"/><path class="cls-1" d="M230.42,241.64l-.07-.16.06.15c-.1-.24,0,0,0-.1l0,.1c0-.13,0,0,0-.06l0-.08,0,0,.06.12c0,.05.07.17,0,.11l-.08-.18,0-.05c.11.21,0,.05.13.27l-.06-.13,0,.08c-.07-.13,0-.06,0,0l-.07-.13-.05-.11c.05.11,0-.08,0,0s0,0-.08-.14l.09.16h0l0,0s.05.1,0,0l0-.06.07.13,0,0,0-.09h0l-.26-.47-.07-.12-.05-.1s.16.3.19.34-.07-.13,0-.06l.11.22-.06-.12.06.11s0,0,0,0-.11-.2-.16-.3h0l.05.1-.11-.22s0,0,0,0l.06.13,0,0-.06-.11c-.12-.25,0,0-.08-.2s-1.81-3.78-1.91-4.05a.2.2,0,0,1,.12,0c0-.06-.17,0-.14,0l.06.14c0,.06,0-.08-.05-.06s-.06-.15,0-.17-.07-.08,0,0a1.62,1.62,0,0,0-.1-.18s.06.15,0,.09v0c-.08-.11.05.19,0,.08l0,0c0-.06,0,0-.05,0a.61.61,0,0,1,.05.12c0-.07,0,0-.07-.07l0,.11c-.06,0-.07.23,0,.25v0c0,.07.08,0,.24.17-.05-.13,0-.11,0-.14a.46.46,0,0,0,.07.13s0,.08.1.11,0,0,.07,0l0,0h0l.05.06.08.14a.35.35,0,0,0,.05-.2c.08.15,0,0,.1.1v0s0-.19,0-.14v0c.05.09,0-.09-.05-.16.07.18.11.29.12.3l0,0,.08.19,0-.1c0,.1,0,0,0,.05s-.12-.24-.09-.12l-.14-.29v0s1.46,3.48,1.78,4.22l0,.1h0c0,.05,0-.07,0,0h0l.06.13,0,.06,0-.07,0-.08.07.17.08.18,0,0,0-.06.06.14Z"/><circle class="cls-2" cx="188.9" cy="286.69" r="2.74"/><path class="cls-2" d="M188.89,286.64v0Z"/><path class="cls-2" d="M191.78,294.58l.2-.09A.52.52,0,0,0,191.78,294.58Z"/><path class="cls-2" d="M188.93,286.68h0l0,0h0s0,.06,0,0v0h0l0,0h0l-.05,0,.05,0h0l0,0h0s0,0,0,0h0s0,0,0,0l.06.11c.08.16.17.32.27.5.37.73.82,1.68,1.21,2.66.8,2,1.32,4,1.42,4.3a.79.79,0,0,1-.38.07c.08.11.42.06.55-.08L192,294c.31-.25.15.14.49,0,.14.22-.17.43-.46.57.28-.08.63,0,.61-.35.29,0,.11.3.47.24.18-.18.32-.56.63-.59l0,0c.73-.19.6-.92,1.2-1.15v.11c.27-.05.41-.5.78-.71-.11.05-.31,0-.19-.19.4-.26.44-.6.78-.78l-.06-.4a6.78,6.78,0,0,0,.68-1.72,8,8,0,0,0,.2-2.67,8.28,8.28,0,0,0-1.57-4.11l.07,0a8.25,8.25,0,0,0-3.54-2.8,6.66,6.66,0,0,0-4.44-.25c-.39-.19-.85,0-1.21,0,.22,0,.21.23.06.26-1,.37,0,.16-.95.7a11.32,11.32,0,0,0-2.6,2.35,9.56,9.56,0,0,0-1.52,3.1c.27.63,0,1.35.3,1.91l-.09-.05a13,13,0,0,0,.59,2.27,5.4,5.4,0,0,0,1.35,2l0-.1c.6.28.26.5.57.93.21-.35.76-.22.94-.14l-.06.07c.29.12,1,.12,1.45.23l-.1.2a6.08,6.08,0,0,1,1.38.23,3,3,0,0,0,2.47.17,5.53,5.53,0,0,0,.71.48l.07-.08s-.07-.48-.23-1.2-.42-1.7-.74-2.7-.69-2-1-2.95l-.11-.31h0v0h0v0h0s0-.06,0,0h0l.05,0Z"/><circle class="cls-2" cx="266.46" cy="285.47" r="2.74"/><path class="cls-2" d="M266.5,285.49l0,0Z"/><polygon class="cls-2" points="266.46 285.47 266.46 285.47 266.46 285.47 266.46 285.47"/><path class="cls-2" d="M258.45,282.93c0,.07,0,.14,0,.21A.71.71,0,0,0,258.45,282.93Z"/><path class="cls-2" d="M266.45,285.5h0v0s0,0,0,0h0l0,0h0l.05,0h0s0,.05,0,0h0v-.07l0,0c0,.05,0,0,0,0h0l-.13,0-.55-.09c-.81-.15-1.83-.38-2.85-.67a44.42,44.42,0,0,1-4.27-1.5c.06-.16.12-.31.18-.34-.14,0-.3.29-.27.48l.29.11c0,.4-.21,0-.27.42-.26,0-.24-.4-.16-.72-.12.27-.36.52-.11.7-.15.25-.3-.1-.47.23,0,.25.25.59.08.86h-.05c-.29.69.37,1,.18,1.65l-.09-.06c-.12.25.14.64.09,1.06,0-.13.18-.26.26,0,0,.47.21.71.14,1.09l.36.19a6.13,6.13,0,0,0,.94,1.59,8,8,0,0,0,2,1.8,8.43,8.43,0,0,0,4.2,1.27l-.06,0a8.25,8.25,0,0,0,4.38-1.09,6.69,6.69,0,0,0,2.91-3.37c.38-.19.52-.66.71-1-.17.16-.31,0-.25-.11.33-1-.1-.12,0-1.18a11.13,11.13,0,0,0-.27-3.49,9.54,9.54,0,0,0-1.53-3.1c-.66-.17-1.07-.82-1.69-.93l.1,0a14.57,14.57,0,0,0-2.17-.92,5.32,5.32,0,0,0-2.44-.17l.1,0c-.59.29-.55-.11-1.08-.12.14.37-.3.73-.46.82l0-.08c-.27.15-.73.73-1.08,1l-.09-.2c-.22.38-.84.73-1,.94-.52.33-1.51.92-1.64,1.86a6,6,0,0,0-.82.26l0,.11s.42.23,1.09.55,1.6.7,2.59,1.06,2,.71,2.94,1l.32.11h-.07s0,.05,0,0h0v0h0s0,0,0,0v0Z"/><circle class="cls-2" cx="233.05" cy="139.95" r="2.74"/><path class="cls-2" d="M233,140v0Z"/><path class="cls-2" d="M235.59,132l-.21,0A.54.54,0,0,0,235.59,132Z"/><path class="cls-2" d="M233,139.94h0s0,0,0,0h0v0h0v0h0c0-.05,0-.06,0,0l0,0h0l.05,0-.05,0s0,0,0,0h0a0,0,0,0,0,0,0h0l0-.12c0-.17.06-.36.1-.56.14-.8.37-1.83.66-2.85.56-2,1.42-4,1.5-4.26.16.05.31.11.34.17,0-.14-.29-.3-.48-.27l-.11.29c-.39,0,0-.21-.42-.27,0-.25.4-.23.72-.16-.27-.11-.52-.36-.69-.11-.26-.15.09-.3-.23-.46-.26,0-.6.24-.86.07v0c-.69-.3-1,.36-1.65.18l.06-.09c-.24-.13-.63.14-1,.08.12,0,.26.18,0,.27-.48-.05-.72.21-1.09.14l-.2.35a6.74,6.74,0,0,0-1.59,1,8.12,8.12,0,0,0-1.8,2,8.32,8.32,0,0,0-1.26,4.21l0-.06a8.26,8.26,0,0,0,1.1,4.37,6.59,6.59,0,0,0,3.36,2.91c.19.39.66.53,1,.71-.15-.17,0-.3.11-.24,1,.32.12-.11,1.18,0a10.76,10.76,0,0,0,3.49-.26,9.5,9.5,0,0,0,3.1-1.54c.17-.65.82-1.06.93-1.68l0,.09a15.11,15.11,0,0,0,.91-2.16,5.26,5.26,0,0,0,.18-2.45l0,.11c-.3-.59.1-.56.11-1.09-.37.15-.72-.29-.82-.46l.09,0c-.16-.27-.74-.72-1-1.07l.2-.1c-.39-.22-.74-.84-.95-1-.32-.51-.91-1.5-1.85-1.64a6.41,6.41,0,0,0-.27-.81l-.1,0s-.24.42-.55,1.1-.71,1.6-1.07,2.59-.71,2-1,2.94L233,140h0v0h0s-.05,0,0,0h0l-.05,0Z"/><circle class="cls-2" cx="208.92" cy="178.01" r="7.08"/><path class="cls-2" d="M206.88,179c.21-.14.2-.21.21-.28C206.89,178.79,206.83,178.89,206.88,179Z"/><polygon class="cls-2" points="207.09 178.67 207.09 178.67 207.09 178.67 207.09 178.67"/><path class="cls-2" d="M197.62,183.87l.17.29A1.38,1.38,0,0,0,197.62,183.87Z"/><path class="cls-2" d="M208.47,176.86l-.15-.38c.12-.06.19.42.25.3-.11-.58.16,0,.13-.29a.67.67,0,0,1,.08.24c0-.3,0-.07.06-.16a.57.57,0,0,0,0-.18.44.44,0,0,1,.08-.11.66.66,0,0,1,0,.31,3.13,3.13,0,0,1,.52.33c.18.17.29.32.39.33.16-.16,0-.11.26-.37.2-.11,0,.11.18,0-.4.36,0,.18-.45.53l.26-.16-.14.12c.37,0,.18,0,.18.17s.51,0,.38.13a.48.48,0,0,1,.26-.07c-.27.06.21.07-.05.13,0,0,0,.16.37.08-.17,0-.24.16-.4.1,0,0-.07.07,0,.1l.1-.05c.06.13-.23.17.09.29l.15,0c0,.09,0,.18-.33.14l-.1-.09c0,.11,0,.18.15.34l0,0c.18.12.23.4.25.73a3.9,3.9,0,0,0,0,.92l.26.13a1.63,1.63,0,0,1,0,.31s-.56-.73-.49-.67a2.69,2.69,0,0,1-1,.72,1.51,1.51,0,0,1-1.2.08c-.11-.17,0-.45,0-.5-.15.1-.1.29-.22.25a.56.56,0,0,1,.07-.26s-.07-.08-.11,0a4.09,4.09,0,0,1-.07.68.67.67,0,0,1-.18-.07l.07-.21s-.27.56-.42.38a4.72,4.72,0,0,1-.86-.56.47.47,0,0,1,.28-.14s-.09-.05-.06-.15c-.09.23-.2.05-.22.16a.34.34,0,0,1-.48-.06.34.34,0,0,0-.36-.22,29.64,29.64,0,0,1-3.89,2.18c-1.92.92-4,1.56-4.23,1.7a1.75,1.75,0,0,1-.21-.54c-.1.11.08.59.28.78l.3-.11c.39.46-.11.22.24.71-.2.17-.55-.27-.8-.69.18.4.26.88.6.87.15.41-.28.14-.08.62.27.27.77.48.93.89l0,0c.51,1,1.35.85,1.91,1.61H201c.17.33.82.54,1.24,1-.12-.14-.14-.37.17-.21.51.48,1,.54,1.37.92l.53,0a10.83,10.83,0,0,0,2.73.71,12.42,12.42,0,0,0,4.09-.16,12.79,12.79,0,0,0,6-3.1l0,.09a12.47,12.47,0,0,0,3.63-5.93,10.86,10.86,0,0,0-.33-6.91,4.42,4.42,0,0,0-.43-1.82c0,.33-.17.3-.26.08-.38-.76-.45-.76-.51-.76s-.12,0-.65-.67a14.6,14.6,0,0,0-4.21-3.65,13.86,13.86,0,0,0-5.24-1.6c-.93.32-2.11.23-3,.66l.07-.1a16.53,16.53,0,0,0-3.46,1.42,9.35,9.35,0,0,0-2.93,2.56l.14-.09c-.44.91-.67.57-1.21,1.18.39.13.17,1,.07,1.25l-.07-.05a19.9,19.9,0,0,0-.36,2.31l-.21-.08c0,.67-.2,1.82-.2,2.28a6.3,6.3,0,0,0,.37,4,8,8,0,0,0-.27,1.1l.12.1s.47-.1,1.19-.31a24.31,24.31,0,0,0,2.63-1,32.91,32.91,0,0,0,4.63-2.49l.21-.08-.06-.06c.08-.12-.18-.08,0-.14v.12c0-.1.17-.08.29-.09a.24.24,0,0,1,.09-.12c-.08,0-.08,0-.13.06s-.32,0-.22-.1.35-.09.36-.18a4.17,4.17,0,0,1,.56-1.06.33.33,0,0,1,.11.07c0-.13,0-.19,0-.31a1.28,1.28,0,0,1,.26.2C208,177.11,208.41,176.78,208.47,176.86Z"/></g></svg>