<svg xmlns="http://www.w3.org/2000/svg" viewBox="0 0 385.51 385.51"><defs><style>.cls-1{fill:#2c2c2c;}.cls-2{fill:#fff;}</style></defs><g id="mort"><path class="cls-1" d="M138.24,253.2s-.83,8.08,8.46,11.6c2.61,1,22.64,9.13,28.83,11.95,7.1,3.23,15.46,7.13,22.51,10.44,8.65,4.06,49,24.66,49,24.66L261.08,308l9.4-.07L277,316.4l-.52,5.35-7.12,7.13a15.25,15.25,0,0,1,1.19,7.95c-.39,2.48-7.06.39-7.06.39l-10,1.86s-4.27,2.92-5.67-1a26.38,26.38,0,0,0-3.27-7.28c-1.63-2.26-36.87-20.07-38.73-20.72-1.22-.42-10.68-4.85-21.62-10-16.31-7.67-51.32-22.77-51.32-22.77l-9.91,3.27L111,278.26,108.56,267l7.87-7.67-.68-9.52,3.78-12.5,13,7.27Z"/><path class="cls-1" d="M134.63,256.92a13.76,13.76,0,0,0,1.71,3,21.47,21.47,0,0,0,2.79,3c-.71-.79-1.44-1.61-2.19-2.58A26.2,26.2,0,0,1,134.63,256.92Z"/><path class="cls-1" d="M139.17,263l0,0-.08-.07Z"/><path class="cls-1" d="M142.07,248.73l-1-1.48C141.4,247.75,141.74,248.26,142.07,248.73Z"/><path class="cls-1" d="M235,309.33l.48-.21c4.59,2.31,1.13,1.08,5.42,3.13a20.88,20.88,0,0,1,4.43,2l2.38,1.24,1.19.62a.35.35,0,0,0,.3,0l.31-.06.6-.11,2.13-.44.45-.1.32-.08.34-.12c0,.06,2.27-.38,2.16-.18.64-.44,2.34-.54,3.77-.9.51-.19-.4,0-.81,0l3.1-.72.05,0,.06.08c.12,0,.2,0,.21.08s0,.05-.17.07,0,0-.08.05h5.85l.16,0,0,.1h0l0,.05.39.52c.26.34.53.69.79,1l1.66,2.18.21.29.1.12h0v0l0,0v.06h0l0,.29-.06.57h0v0l-.05,0-1.4,1.39-4.2,4.18c-.2,1.14-.41,2.27-.6,3.38s-.39,2.29-.58,3.4a14.57,14.57,0,0,1,.52,1.7c0,.19.08.38.1.57s0,.1,0,.14h0l0,0h0l-.38.13-.6.19-1.24.34-1,.23h0l-.18,0-1.16-.27-3.66-.82a23.38,23.38,0,0,0,2.57.77c.49.14,1,.27,1.41.41l.59.22c.17.07.39.16.33.19s-.2,0-.32,0l-.42-.07-.76-.16c-.47-.1-.87-.2-1.24-.3a9.16,9.16,0,0,0-1.84-.35,6.08,6.08,0,0,0-2-.77l-4.75,1,.09-.07,0,0,0,0c1,1.47-2.34-3.29,2.36,3.29h0v0l-.25-.34-.38-.59c-.11-.16-.26-.43-.32-.52s-.09-.17-.13-.26l-.06-.12c0-.13,0-.09,0-.07s0,.08,0-.13a4,4,0,0,1,.37-1,3.59,3.59,0,0,1,.41-.7l0-.14c-.07.1-.2.09-.31.13l0-.06,1.42,2.31-.21-1.11a34.36,34.36,0,0,0-2.83-6.1c-.59-1-.73-1.14-1-1.5,0,0,0,0,0-.08v0s0,.08,0-.22a12.69,12.69,0,0,0-.33-1.76,9.76,9.76,0,0,0-.37-1c-.09-.21-.19-.42-.3-.62a7,7,0,0,0-.45-.71,6.86,6.86,0,0,0-1.21-1.34,7.69,7.69,0,0,0-1.41-.94l-3.5-1.58L239,318.09a43.77,43.77,0,0,1-4.33-2.08c.41.22,1.44.94.1.36-.1-.36-3.58-1.58-4.1-2.14-1.3-.61-5.44-2.73-4.2-1.7-.62-.51-4.31-2.44-2-1.48-1.25-.64-2.44-1.29-3.38-1.67l1.56.9c-4.25-2.08-6.43-3.49-9.34-4.57l1.5.91c-2.55-1.24-4.68-2.28-5.51-3.1l2.65,1.2c-4.21-2.09-6.75-3.33-10.35-4.9l1.25.63c-2.34-.93-9.31-4.3-16.52-7.43s-14.22-6-16.41-6.77l1.82,1.12L168,286c.42.19,2.12-.06,2.44.18l-19.56-8.52-6.77-2.93-3.43-1.48-2.16-.93-1.44-.62-.73-.31-.35-.15c-.12-.06-.24-.13-.37,0l-13.06,5-5.21-1-1.26-.25-.58-.13-.47-.12c-.23-.09-.3-.16-.28-.22a.19.19,0,0,1,.1-.1c.15-.07.35-.12.37-.14H115c-.21-.45-.27,0-.41-.77-.07-.45,0-.41.09-.21l.08.18.05.05.07.07,0-.1-.09-.39c-.06-.32-.13-.62-.18-.88a2.42,2.42,0,0,0-.27-.9c.28,1.77-.22,1.11-.28,1.9l-.81-3.85.23,0c0-.17-.34-.37-.63-1a3.56,3.56,0,0,1,.82-.91l2.72-2.6,4-3.92c-.24-3.38-.49-6.83-.73-10.18.54-1,1-1.9,1.56-2.83a2.81,2.81,0,0,1-.34,1c-.11.26-.25.55-.39.87-.08.16-.16.32-.23.48l-.06.14,0,.08.64-1.16c.28-.51.57-1,.81-1.37-1,1.37,1.27-2.65.55-1.54a4.48,4.48,0,0,0,.32-.87c.07-.19.14-.39.23-.59.17-.4.38-.81.59-1.2l1.71,1,1.58.84c.68.35,1.33.67,2,.95.13-.07,1.24-.18,2.67-.38a5.14,5.14,0,0,1,2.6.07c1.06.21,2.18.45,3.2.68a20.44,20.44,0,0,0,3.95.73c.76,1.18,1.52,2.35,1.72,2.74a27.3,27.3,0,0,0-2.42-3.9l-.4,0c-1-1.38-1.05-1.57-1.1-1.76a1.87,1.87,0,0,0-.19-.43c-.06-.12-.15-.27-.29-.49l-.58-.88c.13,0,.55.45,1.19,1.34s1.43,2,2.18,3.15l-1.82-2.9c-.27-.43-.53-.82-.77-1.14-.12-.16-.23-.31-.34-.43l-.23-.29-.25-.29c-1.52-2.42-.85-1.62-1-2a15.34,15.34,0,0,0-2.25-1.42l-.44-.23-.34-.17-.72-.35-1.53-.74-.77-.4-.89-.48c-1-.55-2-1.11-2.94-1.69h.08c-2.76-1.63-5.18-3-7.36-4.16-1.4,2.69-2.66,5.14-4,7.67-.58,1.11-1.18,2.24-1.81,3.43-.36.68-.76,1.37-1.22,2.12l.18-.51c-.28.42-.6,1-1,1.62-.59,1.11-1.26,2.35-2,3.67.08,1.19.17,2.44.26,3.69,0,.68.07,1.36.08,2,0-.9.12-1.69.28.2,0,.52,0,1,.06,1.48q0,.36,0,.69l0,.34v0a.38.38,0,0,0,0,.1.09.09,0,0,1-.07,0h-.07l-.16.14-.33.28-1.64,1.95-5.83,5.67c.94,4.25,2.28,10.37,3.93,17.88l17.1,3.24,12-4.69c.05,0,.1,0,.15,0l.07,0,.49.21,3.1,1.33,6.06,2.59,18.32,7.93-.47-.16c4.41,1.92,10,4.38,16.1,7.15,3.07,1.39,6.2,2.84,9.42,4.4l9.87,4.82c13.28,6.55,26.63,13.18,35.66,17.49,1.34.8,2.94,1.66,4.67,2.52.22.11.36.19.79.39l.55.24.28.12h0c.38-1.07-.82,2.39.84-2.4v-.06l0-.09.07-.18a2.79,2.79,0,0,1,.18-.34,1,1,0,0,1,.09-.18l.11-.13,0,0,0,0-.13.07a1.66,1.66,0,0,1-.33.16l-.16.06-.34.13a6.13,6.13,0,0,1-.7.2,1.49,1.49,0,0,0-.21.05l-.41.11-.82.19-.36.08h0v.08l.09.61.08.46a5.78,5.78,0,0,0,.12.57,9.34,9.34,0,0,0,.31,1.1,8.43,8.43,0,0,1-.36-1.67c0-.28,0-.33,0-.27s.25,1.07.71,2.23a10.15,10.15,0,0,0,1.19,2.18,14.93,14.93,0,0,1,1.13,2,2.7,2.7,0,0,0,.29.51c.1.17.3.2,1.4,3.33l.44,1.25.7.6a13.56,13.56,0,0,0,1.64,1.34,9.62,9.62,0,0,0,4,1.57,8.83,8.83,0,0,0,2.88-.13,9.91,9.91,0,0,0,1.46-.47c.25-.11.49-.22.74-.36s.26-.15.39-.23l.22-.14.33-.24-3.82.84,5,1.13,1.38.32,1,.25,1.25.27a1.28,1.28,0,0,0,.64,0l.64-.12,1.3-.27c.61-.14,1.11-.26,1.69-.42s1.12-.3,1.71-.49l.89-.29.6-.22.66-.26a10.87,10.87,0,0,0,4.6-3.12c1.2-1.49,1.37-3.45,1.38-5.44,0-.49,0-1-.08-1.49l-.07-.75-.09-.59c-.06-.35-.15-.77-.2-1l-.06-.25a3.68,3.68,0,0,0-.15-.47.08.08,0,0,1,0-.05l0-.05.1-.09.18-.17,6-6,.9-8.8-8.94-11.81H266l-3.16,0-.87.06h-.54l-.8,0-4.3.95-4,.81-1.5.3c-.15,0-.31.13-.44,0l-.2-.09-.1,0-.41-.19-1.68-.78.52.16c-5.19-2.46-34.13-17.41-40.16-20.3l.78.45a41.48,41.48,0,0,1-4.7-2.39,35.59,35.59,0,0,0-3.81-2.13c.38.62-4.25-1.27-6-2.05l.11,0c-2.64-1.14-8.68-3.56-13-5.5l.26-.13-13.22-5.53-10.82-4.7c-2-.87-4.11-1.74-6.26-2.58l-.81-.31-.65-.28a10.58,10.58,0,0,1-1.28-.57,11.62,11.62,0,0,1-1.22-.62c-.4-.21-.77-.45-1.14-.69a13.16,13.16,0,0,1-2.66-3.36l-.39-.43-1.5-.11c-.89,0-2.06-.18-3.16-.15a3.73,3.73,0,0,0-1.61.19,1.7,1.7,0,0,0-1.2,1.18c-.49,1.25-.36,3.58,1.78,6.54h-.32l1,1,1.06.94c2.54,2.26,4.09,2.64,3.76,2.75a25.66,25.66,0,0,1-3.73-2.66c2.62,2.16.69.81-.4.05.53.49,1.09.92,1.6,1.35l1.49,1.1c.61.28-.37-.33-.77-.68a45.28,45.28,0,0,0,5.75,2.83c2.63,1.07.05.4,3,1.63,7.89,3.27,15.73,6.59,23.38,10L196.84,290c.32.25-.11.05-.58-.12,2.41,1,4.59,2.17,6.75,3.22l6.4,3.14a10,10,0,0,1,1.71,1.22c-.31-.25,5.57,2.65,11.58,5.65L231,307.3C233.35,308.47,234.92,309.27,235,309.33Z"/><path class="cls-1" d="M248.61,254.31s.54,8.11-8.87,11.3c-2.64.89-23,8.32-29.23,10.91-7.22,3-15.71,6.58-22.87,9.63-8.79,3.76-49.82,22.91-49.82,22.91l-13.92-4.32-9.4-.41-6.77,8.21.33,5.37,6.87,7.37a15.22,15.22,0,0,0-1.47,7.91c.3,2.48,7,.64,7,.64l9.93,2.21s4.17,3.07,5.7-.83a26.33,26.33,0,0,1,3.53-7.15c1.72-2.21,37.57-18.75,39.44-19.33,1.24-.38,10.85-4.47,22-9.23,16.57-7.08,52.1-20.93,52.1-20.93l9.78,3.62,12-1.87,2.85-11.14-7.59-7.94,1-9.49-3.33-12.63-13.28,6.8Z"/><path class="cls-1" d="M243.76,253.27a27.61,27.61,0,0,1-2.9,2.81A7.54,7.54,0,0,0,243.76,253.27Z"/><path class="cls-1" d="M240.83,256.1v0l0,0Z"/><path class="cls-1" d="M254.16,256.29l1-1.47C254.83,255.3,254.48,255.8,254.16,256.29Z"/><path class="cls-1" d="M145.05,296.36l-.13.5c-4.7,2.17-1.56.21-5.87,2.3a20.28,20.28,0,0,1-4.34,2.24l-.13.05h-.14s-.05,0-.07,0h-.11l-.36,0s-2.23-.59-2-.73c-.77.13-2.36-.48-3.81-.74-.54,0,.36.17.73.36l-3.49-.72-.65-.18c-.46,0-.82-.09-1.07-.13s-.21-.06-.22-.09.05-.05.18-.06.61,0,1.14,0l.29.06-.29-.06-12.78-.64c-3,3.55-6.38,7.66-10.11,12.13.18,3.17.37,6.44.57,9.76l4.22,4.57,1.4,1.52.16.18h0v.05l0,0a15.37,15.37,0,0,0-.5,2.45,19.69,19.69,0,0,0-.07,4.72,10.93,10.93,0,0,0,.32,1.34,6,6,0,0,0,.51,1.27,8.8,8.8,0,0,0,1.66,2.11,15.43,15.43,0,0,0,4.62,2.78l.95.37.75.27c.48.17,1,.32,1.42.46,1,.3,1.5.46,3.28.89l1.1.24a1.14,1.14,0,0,0,.55,0l.54-.09,1-.2.84-.17,1.89-.38,2.93-.61a24.09,24.09,0,0,0-2.65.35c-.51.08-1,.16-1.46.21-.23,0-.44,0-.63,0s-.3,0-.64,0l1-.25.75-.17c.47-.1.88-.17,1.25-.23a9.11,9.11,0,0,0,1.83-.44,5.93,5.93,0,0,0,2.1-.11l-4.71-1.21.35.27.23.17.4.26a6.52,6.52,0,0,0,.77.43,10.26,10.26,0,0,0,1.65.64,9.57,9.57,0,0,0,3.6.29,13.72,13.72,0,0,0,5.08-1.72,9.18,9.18,0,0,0,.81-1l.33-.23.34-.25,1.15-2,.47-.81a25.54,25.54,0,0,1,1.74-4.15,3.59,3.59,0,0,1,.43-.64,10.44,10.44,0,0,0,1.39-2.23,10.65,10.65,0,0,0,.48-1.25,12.7,12.7,0,0,0,.38-1.5c0-.15.07-.31.1-.49a.37.37,0,0,0,0-.07c-.38-.08-.93-.21-1.4-.34l-.73-.22-.18-.06h-.08l-.16-.05a5,5,0,0,1-.65-.22L143,325l-.15-.06a2,2,0,0,1-.32-.17c-.05,0-.08,0-.12-.08s0,0,0,0a.85.85,0,0,1,.11.16c.06.08,0,.09.12.23a2.37,2.37,0,0,1,.2.54l0,.07c-.21-.67,1.82,5.89,1,3.11h.05l.12,0,.22-.09.86-.35.93-.44,1.61-.78,2.65-1.36a45.64,45.64,0,0,1,4.35-2.07c-.43.19-1.64.54-.34-.14.34.14,3.48-1.8,4.24-1.85,1.3-.63,5.55-2.54,4-2.22.8-.16,4.6-1.82,2.42-.64,1.28-.58,2.54-1.09,3.42-1.59l-1.68.66c4.28-2,6.75-2.83,9.41-4.41l-1.65.59c2.57-1.2,4.71-2.2,5.87-2.33l-2.6,1.31c4.27-2,6.83-3.15,10.31-4.94l-1.28.57c2.19-1.17,9.19-4.6,16.11-7.7s14-6.16,16.06-7.23l-2.06.53,3.57-1.69c-.44.17-1.42,1.56-1.82,1.62l19.73-7.95,6.84-2.72,3.47-1.37,1.27-.51a5.17,5.17,0,0,1,.51-.18l12,5.1,7.63-1.17,5.87-.86a18.52,18.52,0,0,1,2.62-.24c.09-.19.11-.11.09.1-.33.16-1.47.42-1.49.45l1.64-.29c1-4.45.23-2,1.52-7,.14-.42.18-.36.18-.14a1.27,1.27,0,0,0,0,.2l-.07.4c-.05.28-.1.57-.14.78l.38-1.51c.08-.32.16-.61.23-.87a2.46,2.46,0,0,0,.16-.92c-.54,1.71-.69.89-1.1,1.56l1.13-4.32.14.35c.27-1,.36-2.44.87-5.05-1.06-1-2.36-2.29-3.88-3.94l-4-4.25c.32-2.93.64-5.92.95-8.83l-2.43-4.91a2.86,2.86,0,0,1,.6.83l.49.83.26.46.41.76-.87-1.75c-.25-.52-.5-1-.65-1.45.55,1.62-1.45-2.56-.95-1.33-.21-.3-.7-1.19-1.11-1.94l-1.25-2.33c-.84-1.58-1.67-3.22-2.49-4.87l-7.34,3.75-1.61.84-1,.55c-.66.37-1.3.73-1.88,1.09-.06.18-.22,1-2,2.87a18.19,18.19,0,0,0,.33,3.2c.19,1.06.36,2.19.52,3.24a20.76,20.76,0,0,0,.74,3.94c-.82,1.14-1.64,2.27-1.93,2.59a27.78,27.78,0,0,0,2.76-3.67l-.1-.38c.93-1.41,1.08-1.54,1.24-1.66a1.9,1.9,0,0,0,.33-.33c.09-.1.2-.25.35-.45s.31-.42.53-.73c.24-.11-.16.58-.73,1.46s-1.39,2.08-2.15,3.17l2.05-2.74c.3-.41.57-.79.78-1.13a5.23,5.23,0,0,0,.28-.47c.06-.1,0-.09,0-.11l0,0c.11,0,.16.09.23.16a.5.5,0,0,1,.1.11l2.7-1.58.77-.43.65-.35s0,0,.06,0v.05c0,.06,0,.07.06,0s.1-.1.17-.07l.05,0,0,0,.21.42c.34.68.69,1.41,1,2.21l-.31-.44c.19.47.46,1.05.79,1.71.08.17.16.34.25.51l.06.11h0l0,0v0h0l0,.23c-.08.67-.17,1.35-.27,2,.14-.88.41-1.64.24.25-.08.51-.14,1-.21,1.46s-.14,1.13-.2,1.66c-.19,1.71-.36,3.29-.53,4.8l2.33,2.48,1.13,1.23.28.3.13.17.28.32,1.94,1.67,1.29,1.36c-.12.5-.27,1.1-.44,1.79s-.41,1.64-.64,2.53c0,.07,0,.15,0,.23l-.17,0-.13,0-1.48.23-3.17.51-1.67.27-.15,0-12.38-5.16-.74-.31a3.8,3.8,0,0,0-.76.26l-1.51.59-2.59,1-3.15,1.26-6.13,2.45-18.57,7.5.45-.22-16.41,6.76c-3.11,1.3-6.44,2.72-9.78,4.21L182,299.42c-13.5,6.18-27,12.48-36,16.76-1.45.52-3.16,1.25-4.8,1.95l-.46.2-.08,0h0l.05.17,1.06,3.46.13.43.06.22c-.59-1.93,1.43,4.63-1.32-4.27h0l-.07,0-.14.05-.27.1-.55.23c-.2.11-.42.23-.62.36a6.09,6.09,0,0,0-1.2,1,6.68,6.68,0,0,0-.93,1.22,6,6,0,0,0-.3.56c-.1.21-.18.39-.23.53a14,14,0,0,0-.55,2.1,1,1,0,0,1,0,.18s0,0,0,0,0,.05,0,.08.08-.1.12-.1.08-.1.1-.05,0,.1,0,.12a.27.27,0,0,1,0,.17.93.93,0,0,1-.14.22,19.1,19.1,0,0,0-2.08,3.48,3,3,0,0,0-.3.77c0,.23-.23.54-1.54,4.2l1.21-1.82c-.08.06-.25.23-.36.3s-.06,0-.08.06l0,0a1.42,1.42,0,0,0,.08.29c0,.06,0,.16,0,.2a.51.51,0,0,1,0,.13.48.48,0,1,0,0,.1s0-.05,0,0l0,.1-.14.24s-.17.29-.31.5l-.39.54-.29.38,0,0,0,0v0l1.8-2.34,0,0,.08.06-3.79-1-4,.81-2.24.45-.56.11a.44.44,0,0,1-.3,0l-.64-.17-1.09-.32-1.08-.36-.78-.3a2.48,2.48,0,0,1-.6-.32.65.65,0,0,1-.22-.25,1,1,0,0,1-.05-.34,2.47,2.47,0,0,1,.05-.61,10.3,10.3,0,0,1,.7-2.38c-.09-1.15-.15-2.19-.17-3v-.33l-.09-.38-.17-.76-.35-1.52-3.76-4.07-1.33-1.45-.32-.36c0-.66-.05-1.29-.08-1.91l.23-.25.49-.59c.62-.72,1.21-1.43,1.78-2.11l.84-1,.41-.49.1-.11.34-.37.51.05h.12l.49,0,1,.06,3.16.18h1.43l.17,0,.24,0,1,.2,2,.43,4,.92,2.47.57,1.72.41.43.1c.14,0,.29.09.42,0l.79-.37,2.79-1.32,1.64-.82-.45.3c5.14-2.51,34.7-15.73,40.68-18.63l-.83.33a40.56,40.56,0,0,1,4.78-2.18c1-.39,1.93-.66,4.07-1.48-.71-.14,3.78-2.28,5.51-3l0,.1c2.61-1.17,8.44-4,12.78-5.89l-.09.28c3.46-1.78,10.39-4.24,13-5.27l11.08-3.84,6.29-2.22.78-.28.92-.35c.61-.22,1.21-.49,1.8-.77a18.14,18.14,0,0,0,1.74-.92,15.62,15.62,0,0,0,1.64-1,22.07,22.07,0,0,0,5.59-4.11c.21-.29.42-.57.61-.88a8.81,8.81,0,0,0-.12-2,6.38,6.38,0,0,0-1.48-3.24,3.74,3.74,0,0,0-1.42-.8,7.46,7.46,0,0,0-1.56-.12c-1.09.09-2.25.74-4,2l-.06-.25-.59.59-.64.55c-1.68,1.17-2.52,1.78-2.48,1.53a16,16,0,0,0,2.42-1.53c-1.71,1.18-.59.22-.07-.34-.33.26-.69.48-1,.7s-.68.39-1,.54.31-.07.6-.21a11.33,11.33,0,0,1-3.68,2c-2.6.91-.28-.28-3.38.81-8.17,2.87-16.12,5.68-24.19,8.72-1,.38-2.07.8-3.06,1.2l-3,1.22-5.93,2.46-11.95,5c-.4.06,0-.12.48-.35-2.41,1-4.64,2.14-6.84,3.15l-6.49,3.07a9.4,9.4,0,0,1-2,.58c.4-.09-5.59,2.72-11.72,5.56l-8.54,3.94C146.78,295.59,145.16,296.32,145.05,296.36Z"/><path class="cls-1" d="M283.15,131.56l-10-43.23L238.3,53.68s-23-9.16-36.07-9.68-36.72,6.82-36.72,6.82L128,82.61l-13.34,42.32,4.14,29.7a234.61,234.61,0,0,0,15.71,19L121.2,188.34,131.49,199l27.75,1-5,33.26,80.85,3.19-2.32-33.55L260.55,204l11.09-9.78-12.11-15.74a235.13,235.13,0,0,0,17.15-17.67Z"/><path class="cls-1" d="M287.33,128.2c-.22-2-1-5.34-1.66-8.52A85,85,0,0,0,287.33,128.2Z"/><path class="cls-1" d="M285.67,119.61l0,0,0,.11Z"/><path class="cls-1" d="M277.1,132.69c-.17.8-.37,1.7-.56,2.62C276.74,134.44,276.93,133.55,277.1,132.69Z"/><path class="cls-1" d="M162.56,45.68l-.52,1-2.26,1.89c-.47.38-.82.66-1.1.86a6.77,6.77,0,0,1-1,.66c-.44.24-.81.44-3.5,2.78-1.76,2.24-9.07,7.62-10.76,9.44,0-.07-2.66,2.17-2.61,1.9-.62.92-2.69,2.37-4.32,3.86-.55.58.51-.31,1-.63l-3.78,3.35c-1.57,1.2-2,1.37-.44,0L123,79.31c-3.73,11.68-9.33,29.19-14.42,45.11,1.11,8,2.16,15.6,3,22,.45,3.15.85,6,1.19,8.42.08.58.17,1.14.25,1.68l.06.41c0,.13.15.22.22.34s.31.43.47.64l.91,1.25c.2.26.4.51.58.76l1.59,2c-.24-.4-.6-.93-1-1.51-.59-.81-1.23-1.7-1.87-2.6-.22-.3-.43-.6-.64-.91a7.71,7.71,0,0,1-.18-1.07c-.08-.7-.16-1.37-.23-2a11.21,11.21,0,0,1,0-1.69c.19,1,.27,1.41.51,3.09.05.33.1.66.14,1s.05.32.07.47.17.25.24.38l1,1.37.73,1,.44.59a12.79,12.79,0,0,0,.88,1c.46,1.53,5.14,6.7,6.62,9.25l1,.64,1.11,1.57.81.9c.07.07.16.18.12.12h0l.07,0,.13.06c0,.1,0,.12-.07.13l0,0h0a3.25,3.25,0,0,1-.26.27l-4,4.38-8.87,10.07,6.58,6.57c.7.7,1.37,1.39,2,2.07.5.51,1,1,1.46,1.55-.48-.5-1.65-2-.06-.45a10.13,10.13,0,0,0,1.67,1.81l.69.67,1.13,1.13c.84.84,1.61,1.63,2.21,2.27a13.74,13.74,0,0,1,1.5.14l3.7.11,2.77.07c1.72,0,2.87,0,1.7-.25,1.17.23,7.38.53,3.68.56,2.09.09,4.12.21,5.63.19l-2.68-.2,4.12.15,1.81.09.85,0h.15a1.94,1.94,0,0,0,.76,0,.76.76,0,0,0,.09.18l.17-.39-.07,0h.11a5.63,5.63,0,0,1-.15.9c0-.21-.37,1.66-.64,2.27l.25-2.09,0-.23c-.38,2.7-.69,4.86-1,6.9-.37,2.65-.68,5.15-1,8.06l.32-2.07c-.12,1.15-.34,3.06-.65,5.47-.08.61-.16,1.24-.24,1.91-.17,1.2-.34,2.46-.52,3.76-.36,2.58-.75,5.35-1.15,8.24l16.92.48,11.68.27c7.4.17,13.59.27,16,.21l-3.15-.41H196c-.69,0-2.88.81-3.46.7l47.14,1.75c-.85-12.05-1.71-24.33-2.35-33.56l9.37.46c4.71.36.83.49.78.53,5.74.14,2.48-.2,7.36,0,1.33.11-.29.21-1,.22,1.07,0,2.1.09,2.88.13a8.92,8.92,0,0,0,1.54,0l-.59,0-.38,0-.54-.09a1.22,1.22,0,0,1-.52-.2,1.29,1.29,0,0,0-.75-.42l6.55.3,1.7-1.5-.24.51c.45-.39.94-.88,1.54-1.47l1.29-1.4c.51-.55,1.14-1.18,1.93-1.94l1.31-1.21,2.38-2.07,4.93-4.32-12.17-15.85,1.1-1,2.44-2.38a6.22,6.22,0,0,1-1,1.2c-.3.31-.63.67-1,1.06l-.33.4,1-1c.63-.61,1.26-1.21,1.76-1.64-2,1.65,3-3.28,1.55-1.92,1.27-1.48,2.66-3,4.1-4.63l2.19-2.41,2.35-2.64.85-1a2.33,2.33,0,0,0,.38-.51l.15-.63c.16-.73.32-1.46.49-2.18.22-1,.44-2,.65-3,.42-1.95.79-3.8,1.07-5.48-.35-.68-5.06-15.94-5.62-16.07.46-2.05.92-4.08,1.11-4.7a62.68,62.68,0,0,0-1.61,6.68l.23.43c-1,4.95-.44,1.12-1.48,5.93-.31.2.62-4.24,1.46-8.14-.81,3.5-1.76,7-1.81,8.45-.83,3.28-.22-.43-1.2,3.52-.55,2.84-1.13,6.61-2,9.83l0-.06-.18.72-.08.31h0s0,0,0,0l-.8.92-3,3.43a81.57,81.57,0,0,1-6.51,6.79l.49-.61-1.14,1.06-1.86,1.79-6.72,6.38c1.68,2.19,3.4,4.45,5.06,6.68-1.6-2.16-2.77-4,.62.38l2.74,3.67,2,2.64.94,1.22.45.6.19.26h0a.08.08,0,0,1,0,.1l.23.06a.16.16,0,0,1,.06.08l-1.26,1.11-4.11,3.63-31.67-1.24c.57,7.89,1.14,15.86,1.7,23.56.21,2.84.41,5.63.61,8.34,0,.41.06.82.1,1.22l0,.19c0,.14,0,.27,0,.4l-31.76-1.13h.74l-38-1.39c1.6-10.91,3.28-22.36,4.86-33.19l-20.29-.69-6.8-.21-3.25-.1-.73,0h-.4l-.24-.23-1-1-2.34-2.37L129,189.36l-.42-.43-.09-.09-.39-.35a1.71,1.71,0,0,0-.14-.27c.18-.14.33-.28.48-.41l.21-.2.06-.07.31-.33.6-.66,4.64-5.05c-1.87,1.92-1.39,1.12,0-.42,3.52-3.9,5.66-6.27,6.75-7.49a34.4,34.4,0,0,0-3-3.13c-.31-.3-.89-.92-2.28-2.42l-2.11-2.33c-.62-.72-1.4-1.6-2.36-2.7-1.26-1.45-2.9-3.4-4.79-5.75q-1.43-1.77-3-3.83l-.34-.45a.45.45,0,0,1-.11-.32c-.11-.75-.22-1.53-.33-2.32-1-7.43-2.24-16.15-3.46-25l12.82-40,5.77-4.78c6-5.55,13.92-11.92,19.87-17.26l-.56.59c1.61-1.42,5.15-4.42,9.67-8.24l.69-.58a.89.89,0,0,1,.22-.16l1.46-.42c1.52-.43,3.11-.87,4.74-1.29,3.26-.85,6.7-1.67,10.15-2.38,6.86-1.41,13.92-2.48,19.1-2a57.92,57.92,0,0,1,7.36,1.15c2.14.44,3.87.9,5,1.18-.42-.14-.83-.25-1.24-.37a57.33,57.33,0,0,1,7.35,2.08c1.51.56,2.79,1.09,5.94,2.22-.35-.33,1.22,0,3.21.62,1,.29,2.09.64,3.09,1l1.9.66-.08.06a.37.37,0,0,1,.2.13l.11.08,0,0,.19.18L238,59.35,241.91,63c2.81,2.64,5.85,5.52,8.38,8l-.35,0c4.36,4,12.16,11.87,15.18,14.84l2.49,2.53L269,89.74l.35.37.23.25.1.56c.12.56.25,1.13.37,1.71.25,1.16.51,2.34.77,3.55.53,2.41,1.08,4.91,1.63,7.43,1.13,5,2.33,10.19,3.56,15l1.27,8.3.33,1.18s10.47,11.44,8.21-5.62l.27.22-.78-3.29c-.81-4-1.48-5.76-1.21-5.54l1.23,5.43c-.86-4-.1-1.24.37.25-.36-1.67-.71-3.29-.95-4.62-.26-.77.05.59.14,1.22-.57-2.12-1.46-5-2-7.68-.92-4.08.29-.34-.78-5.1q-2-9-4-17.81L256,63.31l-10.6-10.6-3.13-3.12-.66-.64a.71.71,0,0,0-.38-.23l-.43-.17-1.68-.66-1.82-.68c-2.43-.9-4.87-1.77-7.35-2.59-.54-.28.14,0,.88.16-3.82-1.24-7.45-2.35-11.07-3.33a100.55,100.55,0,0,0-11-2.42,30.31,30.31,0,0,1-3.36-.79,8.34,8.34,0,0,1-1.57-.06,46.36,46.36,0,0,0-5,0A103,103,0,0,0,184.4,40.1c-5.14,1-10.19,2.28-14,3.3-1.92.51-3.53,1-4.69,1.3l-2.07.61C163,45.51,162.59,45.58,162.56,45.68Z"/><path class="cls-2" d="M178,142a33.15,33.15,0,0,1-.51,3.6l-6.56,10-11.57,3.65L150,156.12l-6.21-7.27-1.67-8.31,1.68-6.93,4.07-5.55,4.24-2.92,8.65-1.83,5.7,1.16,5.5,3.34,4.31,5.72S178.1,138.94,178,142Z"/><path class="cls-2" d="M173.14,142c-.25.17-.33.64-.45,1.12A1.72,1.72,0,0,0,173.14,142Z"/><polygon class="cls-2" points="172.69 143.08 172.69 143.09 172.69 143.07 172.69 143.08"/><path class="cls-2" d="M183.64,141.46c0-.25,0-.49,0-.73C183.61,141,183.62,141.19,183.64,141.46Z"/><path class="cls-2" d="M159.33,153l-.1.39s0,0-.07,0a1.27,1.27,0,0,1-.22-.13.42.42,0,0,1-.15-.2c0-.12-.09-.23-.69-.38-.63.39-1.93-.69-2.43-.54,0,0-.55-.24-.45-.4-.28.23-.62-.13-1-.17-.15,0,.07.12.14.24l-.86-.17c-.15-.1-.23-.2-.18-.25l0-.08a.43.43,0,0,1,.19,0c-.28-.1-.15-.07-.2-.09l0,0v-.06c0-.05.1.08-.24-.33l-1.53-1.89-1.64-2-.4-.5-.19-.22h0v0h0c-.07-.36-.14-.69-.2-1-.15-.72-.28-1.3-.38-1.67-.17.35.14,1.07-.16,1.42-.33-.59-.12-.95-.39-1.19.48-.35-.15-1.43.29-2l-.34-.12.12-.35c-.07-.21-.15-.48-.18-.54h0l-.07,0s0,0,0,0l.09,0c.29-1.37.05-2.2.39-2.94,0,.12-.29.39-.28,0,.28,0,.05-1,.36-1.15.14-.7.14-.56-.21-.7a.43.43,0,0,0,.2,0,.25.25,0,0,1,.22.09s.1,0,0-.09l-.12,0c-.09.08.4-.48.63-.77a2.41,2.41,0,0,0,.58-1.05l-.39.28c.42-.6.76-1.11,1.22-1.13l-.35.67c.35-.49.63-.89.88-1.28l.18-.29c.05-.09.15-.24.12-.22a.83.83,0,0,1,0-.15l0,0s0-.08,0-.14a1,1,0,0,1,.06-.19l1-.82,1.1-.91c.25-.21.22-.21.26-.26l.11-.16.26-.17.95-.33a6.83,6.83,0,0,0,1.27-.54l-.6-.16.95-.45c-.12,0-.29,1-.41.94l2.05-.47,1.51-.35.6-.14.26-.06.2,0,.36.06,1.46.29,2.1.41,1.68,1c.64.41,1.13.73,1.4.93.62.56-.11.46-.14.49.46.21.59.21.69.2s.11-.05.21,0-.14.18-.19.2.09.12.18,0,.24-.38.33-.59l.14.1.1.15-.18.14s.16,0,.32-.05.25.1.38.21a2.46,2.46,0,0,1,.43.53c.5.75,1.06,1.5,1.63,2.25.25.34.51.67.76,1a.9.9,0,0,1,.21.44c-.13,0-.22-.06-.36-.12a.22.22,0,0,1,0,.27c.18-.23.23.18.29,0,.87,1,.8,2.68,1.35,3.6a38.61,38.61,0,0,1,4.58.46c1.09.17,2.17.41,3,.62a14.32,14.32,0,0,0,1.6.41,5.71,5.71,0,0,1-.05,1.35,2,2,0,0,0,.15-.81,4.27,4.27,0,0,0-.08-1.06l-.31-.06c-.24-1.13.16-.32,0-1.39.24-.09.46.85.54,1.89,0-.94,0-1.73-.29-2,0-.75.33,0,.28-.86a7.59,7.59,0,0,1-.6-2h0a5.26,5.26,0,0,0-.57-1.91c-.12-.27-.25-.53-.36-.81L182,133c0-.12-.07-.25-.11-.37-.08-.28-.15-.57-.22-.87l.16.22a3.28,3.28,0,0,0-.73-1.69l-.71-1-.14-.18-.08-.13-.15-.28c.1.22.07.49-.25.12-.43-.85-.95-1.26-1.2-1.93l-.6-.38-2.22-2.94-3.48-2.06-3.83-2.23-7.75-1.44-5.59,1.26.12-.07-1.95.46-3.32.73-5.79,4.07-2.57,3.59-2.5,3.56c-.16.71-.32,1.39-.47,2.05-.07.38-.15.74-.22,1.09-.12.67-.24,1.28-.34,1.84a5.19,5.19,0,0,0-.51,1.27c-.21.76-.41,1.51-.6,2.18.31-.83.41-.52.25.12-.05.19-.09.37-.11.45.37,1.85.41,1.86.49,1.94a1.34,1.34,0,0,1,.17.41,7.82,7.82,0,0,1,.31,1.09c.15.54.35,1.37.56,2.38l.93,4.63,2.43,2.89,1.64,2,3.59,4.42,2.31.85.48.09.31,0,.56.12c.37.09.75.21,1.13.33a14.43,14.43,0,0,0,2.19.6l-.16,0c.28.06.8.23,1.47.45l3.77,1.27,5.73-1.72c1.34-.4,2.45-.75,2.94-.94l-.24,0c1.37-.67,1.3-.23,2.46-.47a.23.23,0,0,1,0-.29,3.27,3.27,0,0,1,.66-.43,16.36,16.36,0,0,1,1.65-.72l0,.09,1.05-.43,1.19-2.21c.2-.37.4-.74.6-1.09s.23-.45.35-.65l.16.16a21.78,21.78,0,0,1,1.89-3.16l1.87-2.42.51-.7.35-.5.41-.63a5,5,0,0,0,.76-2.77l.12-.27.11-.18.22-.38c.14-.25.29-.51.43-.79l0-.27a13.66,13.66,0,0,0-3.93-1.28,11.66,11.66,0,0,0-3.11-.07,3.1,3.1,0,0,0-2.23.83l-.21-.07-.05.5c-.11.38-.07.34-.05.4s0,.05-.09,0a1.86,1.86,0,0,0,.09-.41c-.08.34-.12.27-.17.25s-.08-.23-.12-.34a3,3,0,0,1-.09.32s0,.05-.09.05.09,0,.14,0,.27.24.12.27-.33-.14-.41-.07L169.25,148l-1.56,2.19-.33.47,0,0-.06.05h-.07l-.38.13c-.12-.06,0-.09.11-.17-1.27.5-2.43.83-3.58,1.29a1,1,0,0,1-.61-.15,6.86,6.86,0,0,1-1.76.7l-1.56.52s0,0,0,0S159.33,153.06,159.33,153Z"/><path class="cls-2" d="M255.42,147.51a33.45,33.45,0,0,1-1,3.5l-7.9,9-12,2-8.82-4.34-5.13-8.07-.5-8.46,2.64-6.63,4.8-4.92,4.61-2.3,8.82-.61,5.48,2,5,4.08,3.46,6.26S256,144.55,255.42,147.51Z"/><path class="cls-2" d="M250.63,146.83c-.27.14-.42.59-.6,1A1.72,1.72,0,0,0,250.63,146.83Z"/><polygon class="cls-2" points="250.02 147.89 250.03 147.9 250.03 147.88 250.02 147.89"/><path class="cls-2" d="M261.1,147.82c0-.25,0-.48.06-.72C261.13,147.33,261.12,147.55,261.1,147.82Z"/><path class="cls-2" d="M235.41,155.89l-.16.37s0,0-.06-.06a.69.69,0,0,1-.2-.15.4.4,0,0,1-.12-.22c0-.13-.06-.24-.63-.47-.68.29-1.82-1-2.33-.88,0,0-.51-.32-.4-.46-.3.2-.59-.21-1-.31-.17,0,0,.13.1.26l-.83-.29c-.14-.12-.2-.23-.15-.27l0-.07a.35.35,0,0,1,.2,0c-.27-.14-.15-.09-.19-.13s0,0,0-.05v-.06s.08.09-.2-.36c-.39-.66-.82-1.36-1.25-2.09l-1.34-2.2-.33-.54-.15-.25h0v0c0-.36,0-.7-.05-1,0-.73-.1-1.32-.15-1.7-.21.32,0,1.07-.36,1.38-.24-.63,0-1-.21-1.23.53-.28.05-1.44.56-2l-.31-.17.17-.33a4.65,4.65,0,0,0-.11-.55l0,0-.06,0s0,0,0,0a.19.19,0,0,0,.09,0c.48-1.32.36-2.17.8-2.85-.05.11-.34.34-.27,0,.27,0,.19-1,.51-1.09.24-.68.22-.53-.1-.72a1.5,1.5,0,0,0,.2,0,.23.23,0,0,1,.2.11s.1,0,.06-.08l-.12,0c-.1.06.46-.43.74-.68a2.48,2.48,0,0,0,.71-.95l-.42.22c.5-.54.91-1,1.37-.95l-.45.61c.42-.43.76-.79,1.06-1.14l.22-.27c.06-.08.17-.21.14-.2s0-.1,0-.15l0,0a.35.35,0,0,1,0-.15.67.67,0,0,1,.08-.18l1.07-.68,1.22-.75a.86.86,0,0,0,.3-.22l.13-.14.27-.13,1-.19A7.6,7.6,0,0,0,236,131l-.56-.24,1-.31c-.12,0-.43.95-.54.87l2.1-.18,1.54-.13.62-.06.26,0,.2.07.34.11,1.41.48,2,.7,1.52,1.26c.58.49,1,.88,1.26,1.12.53.63-.17.44-.21.47a1.31,1.31,0,0,0,.66.29c.12,0,.11,0,.2,0s-.17.15-.21.17.06.13.17,0,.29-.35.41-.55l.12.12.07.17-.19.11s.16,0,.33,0,.22.13.34.26a1.86,1.86,0,0,1,.35.58c.4.81.85,1.64,1.3,2.46l.61,1.1a.85.85,0,0,1,.16.46c-.14,0-.22-.09-.35-.17a.24.24,0,0,1,0,.27c.2-.2.19.21.27.08.73,1.1.42,2.77.83,3.75a40.25,40.25,0,0,1,4.48,1.1c1,.32,2.09.71,2.91,1a16.17,16.17,0,0,0,1.53.63,7.22,7.22,0,0,1-.23,1.33,2,2,0,0,0,.25-.79,4.45,4.45,0,0,0,.08-1.05l-.31-.11c-.08-1.15.21-.29.19-1.37.25-.06.33.9.27,1.95.11-.94.27-1.72,0-2,.1-.74.32.07.4-.81a7.25,7.25,0,0,1-.32-2h0a5.22,5.22,0,0,0-.29-2,8.24,8.24,0,0,1-.24-.85l-.05-.23-.06-.39c0-.28-.07-.57-.09-.89l.13.25a3.29,3.29,0,0,0-.49-1.78c-.18-.33-.38-.68-.57-1l-.11-.2-.06-.14c0-.1-.08-.19-.11-.29.06.23,0,.49-.26.08-.32-.9-.77-1.38-.93-2.08l-.53-.46-1.8-3.23-3.15-2.51-3.48-2.75-7.47-2.51-5.72.46.13,0-2,.17-3.38.27-6.31,3.21-3,3.2-3,3.17c-.26.68-.5,1.34-.74,2l-.38,1c-.21.65-.41,1.24-.59,1.78a5.24,5.24,0,0,0-.69,1.19l-.89,2.07c.42-.78.48-.45.23.15-.08.18-.15.35-.18.43.11,1.89.15,1.9.22,2a.92.92,0,0,1,.11.42,7.7,7.7,0,0,1,.16,1.13c.07.55.15,1.4.22,2.43.08,1.38.17,3,.27,4.71l2,3.21,1.35,2.22c1.13,1.88,2.16,3.61,2.93,4.88l2.17,1.16.47.16.29.09c.18.06.36.12.54.2.36.14.72.31,1.07.48a14.8,14.8,0,0,0,2.09.9l-.17,0c.27.1.76.33,1.4.65l3.55,1.78,5.91-.9c1.38-.21,2.53-.39,3.05-.52h-.24c1.45-.47,1.31-.05,2.5-.12,0-.09,0-.19.08-.29a3.14,3.14,0,0,1,.72-.32,14.32,14.32,0,0,1,1.73-.48v.08l1.11-.27c.42-.59.95-1.3,1.48-2l.74-1c.15-.21.3-.42.45-.6l.13.18a23,23,0,0,1,2.31-2.86l2.2-2.13.6-.63.41-.45.49-.56c.79-.66.88-1.75,1.15-2.63l.16-.25.13-.17.27-.34c.18-.23.36-.47.53-.73v-.26a13.63,13.63,0,0,0-3.71-1.83,12.13,12.13,0,0,0-3.06-.5,3.15,3.15,0,0,0-2.33.51l-.2-.1-.12.49c-.16.36-.12.33-.11.39s0,.05-.08,0a2.67,2.67,0,0,0,.14-.39c-.13.32-.15.24-.2.22s0-.24-.08-.36a2,2,0,0,1-.13.3s-.06.05-.09,0,.09,0,.14,0,.23.28.08.29-.31-.19-.4-.13l-3.69,3.85-1.85,1.95-.39.42,0,0-.06,0h-.07l-.39.07c-.12-.07,0-.09.12-.15-1.32.32-2.51.48-3.72.78a1.07,1.07,0,0,1-.58-.23,8.12,8.12,0,0,1-1.84.45l-1.61.29-.06,0S235.4,155.9,235.41,155.89Z"/><polygon class="cls-2" points="197.66 159.99 185.96 178.53 207.86 179.39 197.66 159.99"/><path class="cls-2" d="M193.45,157.61c-.31,0-.52.33-.73.59A1.1,1.1,0,0,0,193.45,157.61Z"/><polygon class="cls-2" points="192.71 158.2 192.71 158.21 192.72 158.2 192.71 158.2"/><path class="cls-2" d="M192.76,162.84l.14.24A1,1,0,0,0,192.76,162.84Z"/><path class="cls-2" d="M180.6,176.09l.49,0c-.79,1.26-.87.51-1.49,1.68.53.22-1.35,2-1.15,2.28-.07,0-.46.61-.72.69.38,0-.27.56-.37.88,0,.06.21-.17.42-.34l-.34.75c-.37.4-.73.63-.56.3l-1,1.54c2,.14,5.43.36,8.67.53s6.3.31,7.55.3c-.27-.24-1.22-.13-1.37-.5.83-.17,1.05.12,1.46-.08.08.54,1.55.19,2,.76l.27-.3.35.2c1.8-.09,1.54-.14,1.68-.12l.18.05.25,0,.19,0,.32,0c1.72,0,2.42-.38,3.36-.18-.14,0-.54-.22-.14-.28.15.28,1-.15,1.35.13.4,0,1.75.07,1.12-.32.3.2,1.53.32.91.46a4.43,4.43,0,0,0,1.08,0l-.58-.12c1.3,0,2.28.32,2.88,0l-.62-.17a3.77,3.77,0,0,1,2.07.39l-.73.09a14.08,14.08,0,0,0,3-.11l-.41,0a47,47,0,0,1,4.88-.4,39.28,39.28,0,0,0-2.67-3.94l-.19.26-.81-1c0,.09,1.6,1.08,1.52,1.11l-3.86-7.09c-.79-1.5-1.59-3-2.24-4.23a16.46,16.46,0,0,1-1-2.05c-.09-.5.36-.29.4-.3-.37-.47-.38-.09-.59-.54,0-.14.21-.08.28,0-.13-.18-.14-.4-.27-.36,0,.29-.32.36-.47.56l-.27-.58.21-.08c-.07-.12-.71,0-.9-.65-.41-1-1-2-1.46-2.93.12,0,.3.11.47.27-.06-.13-.19-.3-.17-.46-.09.33-.35-.33-.34-.1-.84-.44-.88-1.57-1.52-2-.46.17-8.11,2.59-8.62,2.86a1.42,1.42,0,0,1-.17-.47c-.09.12,0,.52.22.68l.29-.11c.34.4-.1.19.15.63-.21.14-.48-.24-.69-.59.15.33.15.74.47.75.06.35-.3.11-.2.53.21.22.61.45.63.82l0,0c.15.85.93.94,1.05,1.73l-.11,0c0,.31.41.68.5,1.18,0-.15.09-.34.25-.09.11.56.43.82.44,1.27l.4.23c.22.43.62,1.16,1.12,2.05l.38.69.21.36.1.19h0l.13.11a4.36,4.36,0,0,1,.53.58l-.06,0a2.81,2.81,0,0,1,.27.36,3,3,0,0,0-1.12.33c-.18-.25,0-.19-.7-.28.26.11.16.28,0,.26-.82,0-.56,0-.63.06s0,.14-.2.18a2.5,2.5,0,0,1-1.11,0c-.43-.06-.74-.17-.78-.27a1.2,1.2,0,0,1,.17-.16c-.52.14.06-.26-.19-.3l.12,0c-.05-.05.22-.39.46-.67s.45-.53.45-.66h-.06c0-.08,0-.1,0-.16a.75.75,0,0,1,.23-.21,1.8,1.8,0,0,0,.59-.41c-.39-.14-.18-.9-.05-1.17l.07.06a19.33,19.33,0,0,1,.74-2.07l.18.14a7.5,7.5,0,0,1,1-1.92,12.47,12.47,0,0,0,2.2-3.15l1-.38,0-.14s-5.72-5.24-8-4.63l-.17-.14-.16.31c-.32.29-.2.59-.37.45l.32-.47c-.28.32-.22,0-.24-.19a1.6,1.6,0,0,1-.35.34c0,.12.1,0,.18,0,0,.23,0,.61-.28.78-.24.35-.31-.16-.6.24-1.55,2.13-3.12,4.15-4.49,6.42-.11,0-.07-.06-.07-.14a5.12,5.12,0,0,1-.27.52c-.1.18-.14.26-.37.64-.37.61-.73,1.22-1.06,1.83a1.7,1.7,0,0,1-.65.42C185,169.11,180.74,176,180.6,176.09Z"/></g></svg>