<svg xmlns="http://www.w3.org/2000/svg" viewBox="0 0 385.51 385.51"><defs><style>.cls-1{fill:#2c2c2c;}.cls-2{fill:#fff;}</style></defs><g id="démons"><path class="cls-1" d="M244.19,158.69s4.78,22.17-7,31.3c0,0,5.65,12.17,18.69,10.43s15.22-10.86,23-11.3,18.89-1.39,23.94,10.11l-7.77-3.55,1.68,8-7.95-5.87v6.81s-2.37-8.95-11.17-5.24c0,0-11.68,9.38-21.25,9.41s-25.27-6.25-25.27-6.25,2.18,17.95,15,19.52a202.75,202.75,0,0,0,33.26,1.86c12.14-.28,20.42,18.56,20.56,21.56,0,0-6.14-9.14-8.42-9.28,0,0,1.14,8.71-.29,12.56,0,0-.14-13-3.42-13,0,0,.42,8.57-3.57,11.85,0,0,1.57-18.56-5.71-18s-40.63,21.19-68.07-29c0,0-23.5-5.39-14.14,21.08s38.78,69.82,38.56,81.68S192.28,336,192.28,344.22c0,7.42,20.51,4.12,39.69-1,2-.54-2.06,11.09.19,12a149.94,149.94,0,0,1-33.26,2.9c-18.49-.45-26.4.92-18.45-14.6s25.29-37.19,33.73-42.44c0,0-42-40.84-43.35-50.2,0,0-10.27,28.75-16.66,46.09A51.92,51.92,0,0,1,132.5,312c-14.15,5.25-32.63,26.24-32.63,30.12,0,0,10,5.48,20.31,5.48,0,0,33.54,6.16-19.17,4.56s-20.76-.91-17.34-6.62,23-36.5,29.66-40.38,16.43-9.36,22.82-17.11,5.93-52.25,9.13-60.7c0,0-16.43-42.78,31.48-74.84,0,0-19.85-16.54-34.22-21.33l3.65-5.25-10-6.84,5.7-2.51-15.06-12.1,10-2.73L130.51,94,107.57,81.5h12.2L97.32,52l97.85,77.59L172,100.78l-8.3-8.54,7.08-.73-8.3-9,1.95-7.57-9.27-7.81h8l-9-6.83,6.59-1.22-22-34.65s41.48,51,58.32,60.76,5.12,41,10.25,45.63,22-21,24.89-22.45S239.33,93,239.33,93h25.38l12.57-31.11L280.82,93l33.73-27.16-20.31,36.68s7.56,12.93,1.95,23.67c0,0,12.44,5.36,16.59,18.78,0,0-17.57-9-17.57-3.41s4.48,15.11,10.64,20.11c0,0-5.86,3-18-7.18l-4.63,10-14.4-5.12-4.64,3.9-8.05-4.14Z"/><path class="cls-1" d="M239.35,167.22c0,1.45-.08,3.1-.12,4.94,0,.92,0,1.88,0,2.89,0,.49,0,1,0,1.51l0,.26L239,177l-.82,1.37-1.73,2.91c-1.78,3-3.61,6.1-5.47,9.23l6.9,8.1-1.08-1.33-1.5-1.81-4.16-5,8.19-13.66Q239.35,172.43,239.35,167.22Z"/><path class="cls-1" d="M238,198.82l.12.14-.26-.32Z"/><path class="cls-1" d="M252.78,164.65l1.93.06,6,3.06-6-3.07h-.35Z"/><path class="cls-1" d="M199.32,325.76l-1.07,1.58c-2.6,2.56-4.6,4.69-6.18,6.52-.47.58-.91,1.12-1.33,1.62-.55.73-1,1.44-1.46,2.08-.22.33-.46.64-.64.95l-.45.91q-.23.43-.42.84a2.8,2.8,0,0,0-.32.78l-.39,1.39a8.21,8.21,0,0,0-.2,1.19,5.8,5.8,0,0,0,0,1.86,7.66,7.66,0,0,0,.78,2.46,7.75,7.75,0,0,0,1.4,1.92,10.39,10.39,0,0,0,3.55,2.29c.23.1.47.21.73.31l.85.27c.58.2,1.24.34,2,.51s1.5.27,2.34.43l.83.11.82.09a74.86,74.86,0,0,0,8.39.36l5.76-.33,1.53-.11a1.44,1.44,0,0,0,.74-.24l.71-.35c.65-.31,1.31-.64,2-1l3.31-1.63,15-7.26-7.14-8-9.09,14.12,16.57,4.17-2.6-9.44-4.2,4.31c0-.07-.75.72-2,2l-4.88,4.84,6.58,6.5L232,363c.18.17.35.34.49.49l.24.25c.23.25.33.38.23.32.38.31.81.69,1.29,1.13l4.8-9.72c-4.46-.48-12.27-1.79-19.22-2.74a10.33,10.33,0,0,0-1.08-.11l1.31.23c1.16.2,2.94.48,4,.68l-5.7-.79-13.42.06-4.06-.09-1.26,0h-.23l0,0,0,0s0,0,0-.06h0s-.06,0,.12,0l1,0,3.31,0h-4.43l-8.57-1.36-5.57-.88-.39-.07c0-.08.05-.17.07-.26.27-1.18.56-2.47.89-4,5.43-7.39,11.62-15.84,18.42-25.11l18-19.94L208.36,287c-3.41-3.32-6.65-7-10-10.58s-6.73-7.3-10.15-11l-1.07-1.16-1.1-1.39-2.3-2.95-1.13-1.48-1.46-2c-.74-1.05-1.5-2-2.22-3.13l-1.08-1.64-.54-.82-.58-.7c-3.19-.36-4.81-.56-5.74-.7l-.26,0h-.06l-.2,0-.4,0-1.6-.12-3.2-.26c-5.38,14.84-10.77,29.74-16,44.19-4.86,3.37-9.67,6.7-14.38,10l-3.9,2.7-1,.67-.48.34-.26.17c-.16.12-.32.22-.47.35L126.86,309l-7.18,5.92c-4.71,3.94-9.25,7.81-13.58,11.72-1.08,1-2.15,2-3.21,3l-1.58,1.51-.67.65-.72.74-1.42,1.47c-.48.48-.88,1-1.32,1.49l-.65.74c-.2.25-.36.5-.54.75l-.53.75a3.61,3.61,0,0,0-.46.75c-.21.49-.47,1-.64,1.46q-.52,2.79-1,5.52c1.9,1,3.71,2,5.71,3s4.12,1.76,6.24,2.51l1.15.37.89.28c.6.17,1.19.35,1.79.5s1.19.3,1.79.44,1,.21,2.26.46l.83.07c0-.13,0,0,0-.06h.81c.56,0,1.1-.13,1.65-.18a4.38,4.38,0,0,0,.75-.14l.51-.13.93-.25c1.18-.34,2.26-.67,3.31-1,2.1-.67,4.06-1.34,6-2l5.4-1.81,2.44-.78c.34-.1.78-.24,1-.3l.38-.09h0l-.09,0h0s0,.07-.07-.16-.14-.64-.2-1a17.06,17.06,0,0,1-.23-3.91l-2.8-6.11c-2.49,1.34-4.67,2.59-6.73,3.82-1,.62-2,1.22-3,1.86-.48.32-1,.64-1.45,1a20.18,20.18,0,0,0-1.61,1.28,26.94,26.94,0,0,1,2.91-2.09c1-.62,2-1.23,3-1.86,2.15-1.26,4.46-2.55,6.9-3.85l2.71,5.95a17.85,17.85,0,0,0,.15,3.43q.06.42.15.84l.09.42c0,.05,0,.18,0,.17h0l.14,0-.31.08c-.18,0-.53.14-.83.22-.6.16-1.3.39-1.94.58l-3.9,1.25c-2.49.79-4.7,1.48-6.29,1.9l8-2.78c1.17-.39,2.25-.74,3.23-1,.51-.17.93-.27,1.37-.41l.48-.11.09,0-.17,0a16.68,16.68,0,0,1-.35-4.52L134,335.62a93.82,93.82,0,0,0-10,5.95c-.33.18-.73.41-1.22.74-.25.16-.52.35-.83.58a11.22,11.22,0,0,0-1.16,1,8,8,0,0,0-1,1.29l-.21.36a4.43,4.43,0,0,0-.23.45c-.08.2-.16.41-.23.62a7.49,7.49,0,0,0-.22,1c0,.19,0,.32,0,.55a6.36,6.36,0,0,0,.16,1.58,5.71,5.71,0,0,0,.28.86,5.92,5.92,0,0,0,.92,1.5,7.53,7.53,0,0,0,.56.57,5.14,5.14,0,0,0,.54.42,6.19,6.19,0,0,0,.9.52,5.92,5.92,0,0,0,.66.25l.3.09.18.05.08,0,.31.08.6.14,2.37.49c3.27.65,7.16,1.33,11.25,2l-.07-11.16-9.24,1.59-8.79,1.5L125,356c1.82,2.64,3.53,5.15,5,7.32l6.11-9.08c-1.36-.35-2.59-.69-3.66-1l-3.9-.59L121.9,351l-20.1-4.53-1.69-.09L99,346.29l-2-.18c-1.27-.14-2.36-.28-3.28-.43l-1.27-.22-1-.19-.2,0a.37.37,0,0,1-.19-.09.1.1,0,0,1,0-.11.9.9,0,0,1,.14-.19l4.42-6.1c2.18-2.93,4.87-6.57,8.23-11.11l13.42-18.1,0,0,.85-.52,1.8-1.12c1.18-.74,2.31-1.47,3.41-2.2,2.2-1.46,4.26-2.91,6.22-4.36s3.82-2.94,5.61-4.48c.89-.81,1.77-1.55,2.62-2.44.43-.43.86-.83,1.28-1.3s.9-1,1.34-1.52c.24-.34.5-.68.72-1s.42-.74.6-1.1l.41-.95.31-.82c.36-1,.66-2,.9-3,.49-1.89.88-3.71,1.24-5.54-.24,1.31-.8,3.73-1.14,4.82s-.22.68.6-3.46a100.44,100.44,0,0,0,2-11.84c.36-2.85.68-5.77,1-8.24s.5-4.4.67-5.37c.82-7.79,3.62-33,2.32-24.52l.15-1.1c.07-.57.16-1.24.25-2-.24-3.69-.62-9.52-.84-12.92s-.22-4.2.31,1.61c-.4-5.09-.78-10.07-1.11-14.33l0-.13.41-1c.32-.75.61-1.47.9-2.15l-1,2.22-.4.89-.07.13V202l.07,1,.17,2.48c-.11-1.29-.21-2.54-.3-3.67l10.81-25c.28-.67.57-1.33.85-2l1.31-1.41c1.3-1.38,2.6-2.72,3.9-4,2.61-2.63,5.23-5.2,8-7.69-2.33,1.94-4.62,4-6.86,6.15,2.25-2.22,4.48-4.3,6.63-6.17L174,161l.68-.58c.25-.21.51-.42.79-.62l3.16-2.42,6.33-4.45a6.57,6.57,0,0,0-.85-.76l-.92-.77-1.81-1.5c-1.2-1-2.32-1.94-3.49-2.86s-2.27-1.82-3.38-2.67l-2.16-1.66-5.62-4.29c2.26,1.52,4.46,3.1,6.64,4.7l2.61,2,2.94,2.3,5.71,4.66c-2.86-2.36-5.61-4.65-8.44-6.84L174,143.55l-1.23-.92L170.56,141c-3-2.15-5.86-4.1-8.7-5.91a84.7,84.7,0,0,0-17.64-8.92l2.69,8.1,6.68-9.65-14.51-9.79-.83,9.07,3.49-1.57-3.51,1.54.83-9,3.13,2.14-3.15-2.1-.83,8.93,5.69-2.56,7.63-3.44-6.5-5.16-15.14-12-1.79,8.64,17.25-4.76L133.67,90.15,109.83,77.34l-2.26,8.89,21.64,0L100.92,49.24l-6.41,6.28c24.95,19.6,46.78,36.71,54.56,42.66l-8.86-7.39,17,13.2c-2-1.59-8.72-5.74-10.34-7.14L192.49,133l30.24,23.94-24.21-30L175.2,97.94l-8.44-8.68-2.63,7.23,7.08-.74,8.46-.88-5.76-6.25-6.73-7.32,2-7.92-11.33-9.53-2.74,7.51h20.7l-10.08-7.62-9-6.83L155,64.44l6.58-1.22,4.72-.88-1.45-4.57c-2.36-7.44-4.71-14.87-7-22.2l-7.51,3.67c6.61,9.41,13.38,18.29,20.44,26.62,3.5,4.16,7.12,8.15,10.87,11.9A72.36,72.36,0,0,0,193.77,88l1.54,1a9.73,9.73,0,0,1,1.1.76,9.31,9.31,0,0,1,1,.87,9,9,0,0,1,.88,1,15.58,15.58,0,0,1,2.57,4.76,37.11,37.11,0,0,1,1.56,11.53c0,3.94-.28,7.78-.51,11.56,0,.48,0,1-.08,1.42s-.05,1.12-.08,1.68c0,.78,0,1.53,0,2.28V126l.09,1.07c0,.36,0,.73.1,1.06l.19,1a11.63,11.63,0,0,0,.51,1.81,4.72,4.72,0,0,0,.35.79,7.37,7.37,0,0,0,.39.74c.32.44.63.88,1,1.33a9.61,9.61,0,0,0,.82.69c.33.15.63.41.95.58a6.34,6.34,0,0,0,2.07.51,9,9,0,0,0,3.93-.7,24.61,24.61,0,0,0,7-5.05c1.36-1.34,2.4-2.45,3.39-3.55s1.84-2.07,2.59-2.95c2.86-3.34,4.34-5.15,5.08-6s.67-.66.27-.09c-.8,1.14-3,4-3.07,4.09,3.34-4.12,5.28-6.62,6.5-8,.15-.16.28-.32.41-.47s.24-.26.32-.34a1.49,1.49,0,0,1,.17-.18v0s0,0,0,0l-.19-.26-.39-.52a3.35,3.35,0,0,0-.3-.35c-.1-.1-.18-.21-.27-.31a6.87,6.87,0,0,1-.45-.65,7.73,7.73,0,0,1-.37-.69l-.07-.18c3.21,6.43.89,1.78,1.62,3.21h0l0,0,0,0,.17-.1c.23-.13.44-.27.64-.41a7.25,7.25,0,0,0,.8-.69l.52-.55.38-.48A14.65,14.65,0,0,0,238,108.5c.35-.6.7-1.27,1.11-2.15s.9-2,1.46-3.36c.28-.7.58-1.48.91-2.36l.83-2.34c.21-.56.23-.44.19-.15,0,.07,0,.16,0,.25l0,.13s0,0,0,0l-.05.15-.1.32c-.28.85-.58,1.72-.82,2.4l.66-1.84.42-1.18c.07-.23.15-.46.22-.67.22,0,.46,0,.65,0h1.68c1.5,0,2.47,0,2.67-.07l-2.72,0-1,0h-.47a1.91,1.91,0,0,1-.53-.15,2.86,2.86,0,0,0-.72-.32,1.59,1.59,0,0,0-.19.29l.12-.39,18.88,0-.43,0-.27.06-.51.11,3.19,0,4.42-.07,2.7-7.06,2-5.24c.56-1.63,1.47-4,2.61-6.73l.4-1c.14,1.36.29,2.73.44,4.12q1,9.38,2.15,19.06L301.7,81.09,291.6,99.27c0-.11.18-.39.4-.81l.66-1.28,1.78-3.36c.36-.68.75-1.41,1.17-2.18.18-.35.37-.7.57-1.07.06-.13.13-.26.2-.39l.82-1.61-1.83,3.31-4.92,8.75c3.15-5.48,1.59-2.66-.83,1.87.47.85,1,1.77,1.47,2.71.24.48.49.94.7,1.45.11.26.22.52.34.78.41,1,.77,2,1,2.83s.39,1.34.42,1.46a4.94,4.94,0,0,0-.26-1.09,24.26,24.26,0,0,1,1.09,5.85c0,.49.05,1,0,1.48l-.09,1.46-.24,1.44a2.38,2.38,0,0,1-.08.41l-.25.7-.49,1.41.22,1.08.1.84c.07.55.14,1.12.21,1.69a34.13,34.13,0,0,1,1.88,3.1c.94.47,1.64,1,2.44,1.45l.83.58a13.2,13.2,0,0,1,1.08.9,11.07,11.07,0,0,1,1.85,2.18,10.66,10.66,0,0,1,1.25,2.56l.06.17,0,.09s0,0-.06,0l-.32-.16-.65-.3c-.43-.2-.87-.39-1.31-.57s-1.16-.46-1.75-.64a7.43,7.43,0,0,0-.9-.23l-.45-.08a4.66,4.66,0,0,0-.56,0l-.42,0-.54.07a8.07,8.07,0,0,0-1.29.35,5.49,5.49,0,0,0-2.83,2.47,5.8,5.8,0,0,0-.54,1.75,7,7,0,0,0-.07.79c0,.19,0,.27,0,.41a14.09,14.09,0,0,0,.11,1.5,25.11,25.11,0,0,0,1.24,5.27,38.17,38.17,0,0,0,4.42,8.8,31.72,31.72,0,0,0,6.29,7l.63-6,.1-.05.06,0h0c1.21,2.86.33.79.6,1.43h0v0l0,0,0-.09c-.1-.23-.2-.47-.29-.71l-.13-.35-.06-.18c0-.08,0,0,0,0h0l-.1,0a2.15,2.15,0,0,1-.35.07,5.44,5.44,0,0,1-.92,0,8,8,0,0,1-3.66-.14,21.9,21.9,0,0,1-4.45-1.47l-.33-.17-.46-.23c-.31-.15-.63-.34-.95-.51-.64-.34-1.26-.78-1.9-1.17-1.3-.78-2.54-1.63-3.81-2.46-.15-.05-.2.35-.29.59s-.16.53-.24.81c-.16.52-.31,1.06-.48,1.61-.29,1-.61,2.11-.94,3.25l-.8,3c-.33,1.12-.69,2.32-1.12,3.7-1.22-.17-2.62-.4-4.19-.69l-1.21-.23-.62-.13-.51-.08-2-.32-3.85-.61a6.17,6.17,0,0,0-1.65.11l-.24.41-.1.18-.05.09,0,.05s0,0,0,0l.1-.07c.83-.64.25-.08.16.07l-.52.62-1.62,1.55-.87.9c-.57.6-1.1,1.16-1.58,1.65l-4.13-1.58a7.24,7.24,0,0,0-1.57-.51l-4.37-2.27-6.18-.23L244,164c.55.06,2.11.14,4.25.24l6.49.27L265,169.8l5.83-4.94-.93.68c-.07,0,0,0,0-.08a1.55,1.55,0,0,1,0-.21l.08-.07.33.11,1.12.39,2.73,1,1.64.6,1.2.46c1.82.69,2.17.88,9.09,3.37l4.11-8.82c0,.08,0,0,.13-.11l.17-.3c.07-.15,0,0-.05.14a3.35,3.35,0,0,1-.15.35l-.36.86-1.44,3.16c-.67,1.46-1.43,3.14-2.28,5L270,165.73l-.08.06h0l.47-.4.49-.41-.14.12-.58.49L265,170l-4.31-2.21L265,170l5.23-4.39.58-.48.15-.12-.55.46-.44.37h0l.07,0,.1.05.05,0h0l.22.08.48.17,3.75,1.36,11.62,4.14c1.49-3.25,2.83-6.18,4-8.75l.38-.85c.11-.24,0,0-.05.07l-.15.3-.29.55c0,.09-.09.17-.13.25s0,0,0,0,.09-.15.13-.14a.41.41,0,0,1,.12.33l0,.14s0,0,0,.06l0,0h0l.09.06c.28.18.57.38.91.57.69.37,1.39.82,2.3,1.24a26.22,26.22,0,0,0,5.86,2.06l.85.18.92.12a17.09,17.09,0,0,0,2,.13,15.64,15.64,0,0,0,2.2-.15c.37,0,.83-.16,1.25-.25l.72-.21.45-.16.23-.1.47-.21,8.22-4.19-7.19-5.66a25.51,25.51,0,0,1-6.47-8.46,23.15,23.15,0,0,1-1.84-5.05,10.75,10.75,0,0,1-.18-1.12,3,3,0,0,1-.05-.49v-.38h-3.19a2,2,0,0,1-.73-.08.94.94,0,0,1-.36-.11l0,0a.82.82,0,0,1,.19.25,1.89,1.89,0,0,1,.28.59c0,.08.11.28.15.43a4.21,4.21,0,0,1,.12.48c0,.27.15.76.19,1.18,0,.22,0,.43,0,.64v.2c0-.08.05.78,0,.42h.06l.17,0h-.23l0-.45v0h0c0-.09.05.86,0,.46l.14,0,.28,0,.55.08L300,146c.91.28,1.83.59,2.79.95,1.93.74,3.93,1.6,6.13,2.67L323.35,157l-1.59-4.55c-.13-.37-.26-.74-.38-1.11-.27-.75-.54-1.49-.8-2.23-.64-1.75-1.26-3.48-1.88-5.18-.29-.78-.57-1.55-.85-2.32s-.66-1.55-1-2.32a35.83,35.83,0,0,0-6.23-9.44l-2.28-2.31-2.56-2.17c-.43-.34-.89-.69-1.38-1l-.56-.4-.21-.14,0,0-.22-.13-.12,0s0-.07,0-.11l.27-1.51a22.9,22.9,0,0,0,.37-3.27,32.21,32.21,0,0,0,0-3.26c-.11-1-.17-2.15-.38-3.19A36.75,36.75,0,0,0,302,106c-.34-1-.74-2.05-1.18-3.07l-.11-.28a.86.86,0,0,1,.07-.1l0-.06.34-.6.68-1.2-.67,1.29-.3.58v0l0,0,.42-.75c.29-.5.59-1,.9-1.59l2-3.57c2.58-4.66,5.47-9.87,8.54-15.43l21.56-38.91-9,7.21c7.53-6,13.28-10.4-2.46,2.32L293.14,75.65l-7.53,6.06-.24.17a1.85,1.85,0,0,1,0-.24v-.17l-.13-1.24-3.52-28.71c-.39-3.42-.8-7.08-1.4-12.33-4.72,11.68-11.3,28-19.44,48.16H235.16c-.55,1.8-1.08,3.66-1.66,5.48-.28.84-.56,1.68-.85,2.53-.15.45-.31.89-.47,1.34-.65,1.78-1.36,3.59-2.12,5.18a15.27,15.27,0,0,1-1.07,1.92s-.06.09-.07.09l0,0s-.05,0,0,0l.34.28a13.59,13.59,0,0,1,2,2.23,2.77,2.77,0,0,1,.26.48c.41.81-3.45-6.89-1.84-3.62l0,0-.09,0-.17.1-.34.21c-.2.13-.47.31-.61.42l-.31.26a13.35,13.35,0,0,0-1,.92c-1,1-1.72,1.89-2.47,2.79l-2.15,2.63c-2.81,3.46-5.61,7-8.57,10.13L212.9,122l-.63.63a1.54,1.54,0,0,1-.19.17c-.12.09-.34.23-.45,0a1.24,1.24,0,0,1-.06-.51l.13-2.56c.07-1.19.14-2.38.22-3.58a86.07,86.07,0,0,0-.15-15.44,36.94,36.94,0,0,0-1.94-8.31,23.94,23.94,0,0,0-4.82-8,22.58,22.58,0,0,0-3.67-3.17l-3.1-2c-.43-.29-.86-.53-1.29-.86l-1.29-1c-.85-.69-1.72-1.33-2.55-2.12a173.35,173.35,0,0,1-18.74-20.17c-5.79-7.09-11.24-14.36-16.16-21.36l-20.39-29,10.72,33.71c2.8,8.8,5,15.64,7.06,22.2l4.18-7L153.19,55,141.14,57.2l9.77,7.38,9,6.82,3.25-9.69h-8l-14.76,0,11.29,9.48,6.7,5.62c-.85,3.3-1.34,5.23-1.83,7.12l10.28,11.16,3.39-8.93-7.08.73-11,1.15L159.86,96l8.13,8.35,23,28.58,7.42-7.47L166.14,99.81l2.14,1.65-67.7-53.6L67.85,22l25.29,33.2,16.08,21.12h-1.65l-20.45.08,18,9.73,22,11.94.68.83-2.36.65-9.82,2.7,7.93,6.37,15.07,12.08,1.16-8.79-5.71,2.52-8.55,3.77,7.72,5.25L139,127.3l-.66,1-3.9,5.64,6.5,2.21a58,58,0,0,1,8.61,3.9c2.86,1.53,5.66,3.27,8.41,5.06s5.44,3.69,8.08,5.64l1.85,1.37.29.22.14.12.07,0s.05,0,0,.06l-.46.34-.23.18-.71.61c-2.08,1.78-4.06,3.6-6,5.43s-3.76,3.69-5.56,5.56c-.9.94-1.79,1.88-2.67,2.83l-1.06,1.15a3.89,3.89,0,0,0-.85,1.49l-.88,2q-6.14,14.37-11.93,27.91c.81,10.22,1.5,18.86,2.17,27.24-1.28,11.92-2.45,22.75-3.52,32.74-.55,5-1.17,9.77-1.91,14.28-.37,2.25-.77,4.44-1.24,6.49-.23,1-.49,2-.76,2.86-.14.42-.28.83-.4,1.1a1.24,1.24,0,0,1-.1.22.83.83,0,0,1-.08.12c-.2.23-.39.45-.59.66a9.2,9.2,0,0,1-.68.73c-.48.47-.91.93-1.41,1.36-.93.87-1.88,1.65-2.76,2.39-1.81,1.45-3.48,2.68-5.14,3.86s-3.34,2.23-5.15,3.36l-2.78,1.69c-1,.62-1.5.91-3.74,2.19l-7.42,9.76-6.91,9.2c-4.58,6.14-9,12.14-13,17.65,2.92-4,3.94-5.25,3.64-4.76-.14.24-.62.93-1.33,1.95l-3,4.3c-1,1.44-1.84,2.84-2.66,4.18-.2.65-.4,1.3-.6,1.93,0,.15-.11.31-.14.47l0,.45a5.75,5.75,0,0,0,0,.93,6.58,6.58,0,0,0,1.36,3.43,9.69,9.69,0,0,0,2.6,2.3,16,16,0,0,0,3.21,1.46,29,29,0,0,0,3.18.9l.59.14.48.1.91.17c.59.11,1.15.21,1.69.28,2.12.33,3.8.49,5.14.61l1.78.14.72,0h.19l1.75.38,1,.19c.43.08.64.11,1.78.35,2.26.47,8.2,1.79,27,6.1l1.87.42,11.69,2.66-6.91-9.76c-1.46-2.06-3.21-4.52-5.11-7.22l-2.94,7.11,9.23-1.65L165.4,351l-25.8-4.33-6.58-1.1c-2.25-.39-4.66-.8-6.91-1.26l-.36-.08-.09,0h0c.19-.79-1.63,6.86-.86,3.63v0l0,.09a.67.67,0,0,1-.07.18c-.06.19-.19.25-.14.23s.74.19,1.43.74a13.41,13.41,0,0,1,1.17,1l.64.62.16.17h0a10.35,10.35,0,0,1,1-.74c.88-.63,1.93-1.28,3-1.93,2.13-1.29,4.45-2.6,6.77-3.86l17.62-9.53-19.74,1.05c-.31,0-.62.05-.92.09l-.46.07-.28.06-.89.22-1.51.44-2.83.9-5.6,1.89-5.66,1.87c-.94.29-1.87.58-2.78.84-1.11.27-1.06.31-1.38.26.06,0-.66-.12-1.1-.23s-1-.23-1.46-.37-1-.27-1.47-.41l-1.21-.38a13.61,13.61,0,0,1-1.59-.65l-.24-.12c-.08,0,0-.16,0-.23a4.25,4.25,0,0,1,.31-.43c.23-.28.48-.53.74-.79l.74-.73,1.54-1.45,3.17-2.9c4.31-3.87,8.84-7.73,13.47-11.58l7-5.76.88-.72.2-.15.48-.33,1.89-1.31,3.8-2.64,16.5-11.45c4.5-12.42,9.05-24.95,13.51-37.27l.3-.81.15-.41,0-.1,0-.05s0,0,0,.05a.48.48,0,0,0,.07.2,8.82,8.82,0,0,0,.79,1.3l.54.75,2.17,2.87,2.42,3.11.62.77c.23.28.33.43.77.94l1.36,1.47L191,283.83c3.38,3.64,6.62,7.27,10.05,10.62l6.75,6.8-11.73,13-20,27.29-3.89,17.27,20.5,3.25,5.88.86,19.08-.09,19.93,2.87,14.08,2-10.19-9.91-2.68-2.61,3.78-3.79,5.78-5.78-7.91-2-2.79-.7,1.37-2.18L247.63,327l-14.52,7.14-12.72,6.26,2.6-1.35-5.45,2.66-3.47,1.69-.48.24a.39.39,0,0,1-.24.06l-1.64.07a82,82,0,0,1-9.58-.16l-1.25-.12-1-.12c-.22,0-.45-.08-.68-.14a2.36,2.36,0,0,1-.65-.29.55.55,0,0,1-.24-.64,4.15,4.15,0,0,1,.56-1l.12-.16.27-.32c1.26-1.53,2.71-3.11,4.27-4.68,3.11-3.15,6.59-6.35,10.25-9.57s7.54-6.48,11.55-9.75l6.11-4.92,3.35-2.64,5.66-4.37-9.62-25-13.15-24.72q-3.21-6.06-6.37-12l-1.56-2.94c-.18-.34-.12-.23-.29-.57l-.35-.74-.7-1.47-2.73-5.87c-1.75-3.85-3.5-7.73-4.8-11.24a19.3,19.3,0,0,1-1.07-9.44l.21-1.11.27-1.08c.12-.35.21-.71.34-1l.19-.49a1.1,1.1,0,0,1,.07-.17,3.35,3.35,0,0,1,.28-.53c0-.11.17-.06.26-.09l.29,0,4.52-.55,1.27-.16a4.57,4.57,0,0,1,.52-.05l.24.41.51.83c.78,1.23,1.55,2.41,2.3,3.52,1.5,2.22,2.93,4.23,4.26,6.06l2.14,2.9a4.1,4.1,0,0,0,.94.92l.69.57,1.07.9c1.4,1.16,2.64,2.18,3.71,3.08l-3.71-3.17L235.09,234l8,1.39,5.48,1,5.47,1,7.82,1.41,5.09-1.37,4.93-1.28c-.57.08-.23-.08.78-.4s2.69-.82,4.67-1.3c.49-.12,1-.24,1.4-.31l.18,0s0,0,0,0l0-.5v-.13c0,.24-.05-.71.05.5h0v-.14a1.69,1.69,0,0,1,0-.23l0-.37a.72.72,0,0,1,.05-.2s0,0,0,0a.85.85,0,0,1-.12.23s-.16.25-.27.37l-.18.18c-.07.08,0,0,0,.06s.17.13.41.62a15,15,0,0,1,.89,3.83l.12,1.1c0,.37.05.79.08,1.18.06.76,0,1.69.05,2.57,0,.41,0,1-.06,1.47l-.07,1.54-.19,3.33q-.22,3.61-.45,7.18a11.43,11.43,0,0,1,2.63-1.6,1.26,1.26,0,0,1,1-.08,29.62,29.62,0,0,0,2.45-2.53,18.13,18.13,0,0,0,1.22-1.6l-.16.38a12.54,12.54,0,0,0,1.05-1.82c.23-.55.44-1.15.2-1.38h0c-.08-1.7-.16-3.42-.24-5.14l-.12-2.58,0-.32c.34-1.34-.76,2.9.76-3h0v.05a.28.28,0,0,1-.05.11s-.08.16-.12.22a5.62,5.62,0,0,1-.47.53l-.15.13-.2.19a4.46,4.46,0,0,1-.43.33c-.14.08-.33.22-.52.35l-.24.16h0s0,.05,0,.07.09.18.15.34a14.88,14.88,0,0,1,.62,2.55,50,50,0,0,1,.63,6.79l.68,22.69,7.43-21.28a16.22,16.22,0,0,0,.8-4,30.45,30.45,0,0,0,.12-3.55,60.08,60.08,0,0,0-.51-7l-4.11,1.43a2,2,0,0,1-.23,1.06,1.64,1.64,0,0,1-.14.22l-.16.42a7.61,7.61,0,0,1-.4.81l-.23.38c-.05.09,0,0,0,.05h0l.13.11a2.16,2.16,0,0,1,.35.29,5,5,0,0,1,.42.4,25.84,25.84,0,0,1,1.84,2.06c1.24,1.5,2.5,3.2,3.63,4.83l8.44,12.17L304,245.3a9.83,9.83,0,0,0-.3-1.74c-.12-.45-.24-.81-.36-1.18-.25-.73-.51-1.4-.79-2.06-.55-1.31-1.16-2.56-1.82-3.78a46,46,0,0,0-4.54-6.94,31.2,31.2,0,0,0-6-5.89,22.91,22.91,0,0,0-3.8-2.19,17.76,17.76,0,0,0-4.32-1.27c.45,0,.9,0,1.35,0a18.73,18.73,0,0,0-2.45-.37c-.42,0-.86,0-1.29,0H267l-1.15-.09-18.32-1.56-8.81-6-1.21-3.42,4.87,1.62,2.6.43,11.65,2,12.79-3.56L278,204l9.15,4.34,5.79,2.75,0-6.45q0-3.36,0-6.8l-6.56,3.31,7.93,5.89,8.73,6.49-2.2-10.68c-.55-2.65-1.11-5.32-1.66-8l-5.82,4.65,7.76,3.56,10,4.6-4.44-10.1a17.93,17.93,0,0,0-5.65-6.89,29.52,29.52,0,0,0-7-3.87c-1.21-.48-2.42-.89-3.66-1.25-.62-.18-1.24-.34-1.88-.49l-.61-.13-.72-.14a9.86,9.86,0,0,0-1.43,0l-7.91.2-6.52,3.53c-1.88,1-3.7,2.09-5.66,2.92l-10.15,4.68-2.33-.55-4.3-1.14-2.15-.58-.27-.07-.09,0-.15-.05-.3-.1-.21-.28-.1-.14-.34-.42-1.55-1.88-.38-.47-.09-.13-.19-.25-.35-.49.44-.63.11-.15,0-.08,0,0,.09-.16.78-1.27,3.13-5.07,1.52-2.65,0-4s-1.66-10.8-3.6-15.86c-1-2.53-2-3.63-3-1.23A30,30,0,0,0,241,164.9c-.2,1.6-.38,3.49-.55,5.69-.08,1.11-.16,2.29-.25,3.55,0,.63-.07,1.28-.11,2l0,.47,0,.16,0,.31-.23.28,0,.07,0,0-.08.13-.34.52-1.38,2.15-1.46,2.3c-.24.4-.5.8-.75,1.21-.41.66-.81,1.33-1.23,2l.7-1.62-3.75,6.4,7.8,9.1c.64.74,1.26,1.47,1.77,2.08l15.47,3.78,6.34-2.92c1-.44,1.35-.58,1.1-.4l-7.44,3.38-15.49-3.81-1.35-1.58,1.35,1.59,6.89,1.73c.93.25,1.06.3.7.24s-1.25-.26-2.36-.51l-1.82-.41-3.55-.83c-.91-1-1.81-2.07-2.63-3l2.6,3,15.7,3.93,3.61-1.62c1.75-.86.72-.42-3.62,1.53l-4-1,4,.95,13-6.06c2.05-.89,4-2,6-3.11l3-1.6,1.47-.79.42-.21h.16l4-.07h1.41a1.18,1.18,0,0,1,.25,0l.08,0,.12.05.31.1c.18.07.27.12.38.17s.51.21,1.64.6c.57.2,1.35.47,2.38.91a22.82,22.82,0,0,1,3.71,2,9.4,9.4,0,0,1,3.3,3.6l7.09-7-7.76-3.56-9.59-4.41,2.15,10.36c.56,2.68,1.11,5.37,1.66,8l8.42-5.41-7.94-5.88-8.53-6.32,0,10.63c0,2.28,0,4.56,0,6.81l7.67-4.87-13.82-6.52-11.73,7.34-9.45,2.64-11.45-2-22.48-7.49,8.66,24.51,13.39,9.21L262,229.07l4.09.36c1.38.07,2.79,0,4.19.06l8.4,0h1l.52,0,.53.06.54.12a8.91,8.91,0,0,1,2.27,1,18.51,18.51,0,0,1,4.62,4.11,34.76,34.76,0,0,1,3.9,5.82c.57,1,1.09,2.11,1.54,3.17.21.51.43,1.05.58,1.51l.1.33a1.5,1.5,0,0,1,.08.27l0,.11v0l.22,0,.57-.09c.42-.05.73-.13,1.05-.19a11.61,11.61,0,0,1,2-.17l6.53-3.25c-1.32-1.93-2.59-3.67-4.07-5.5a36.57,36.57,0,0,0-2.45-2.8l-.35-.36-.42-.38a11.09,11.09,0,0,0-.95-.82l-.56-.43-.39-.25-.46-.27-.47-.25-.23-.12-.45-.17a8.89,8.89,0,0,0-2-.43l-6.82-.69L286,237a52.16,52.16,0,0,1,.37,5.62c0,.91,0,1.81-.09,2.59a8.31,8.31,0,0,1-.27,1.64l11,1.91a62.36,62.36,0,0,0-.61-7.79,27.82,27.82,0,0,0-1-4.36,12.67,12.67,0,0,0-1.36-2.92,8.25,8.25,0,0,0-.72-1,5.07,5.07,0,0,0-.52-.55,6.78,6.78,0,0,0-2.5-1.59,9,9,0,0,0-2.24-.43h0a1.23,1.23,0,0,1-.09.5l-.08.1c0,.06,0-.06,0-.08v-.26a1.88,1.88,0,0,0-.05-.33l0-.08,0-.08a5.18,5.18,0,0,0-.29-.56,12.48,12.48,0,0,0-.8-1.27,10.33,10.33,0,0,0-2.62-2.56A9.41,9.41,0,0,0,280,224a8.92,8.92,0,0,0-1-.05,9.13,9.13,0,0,0-.95,0c-.46.06-1,.13-1.29.19-.71.12-1.28.25-1.88.38-1.15.26-2.27.53-3.37.8-2.2.56-4.36,1.13-6.53,1.72s.38-.21,3.05-.95l-6.7,1.84-21.74-3.63L225.4,212.55a.07.07,0,0,1,0-.05l-.71-.94-1.41-1.95q-1.41-2-2.76-3.91c-.9-1.3-1.78-2.61-2.61-3.91l-.67-1.06c-.42-.66-.82-1.35-1.22-2l-2.37-4.17-10.85,1.36-2.79.31-2.08.23c-.65.09-1.22.26-1.79.37l-.82.19-.4.09c-.14,0-.18.19-.27.27l-.89,1.2-.78,1.13-.64,1.09c-.4.69-.69,1.38-1,2s-.41,1-.57,1.32c-.29.71-.5,1.35-.72,2,.11-.36,0,.17-.33,1.47a29.49,29.49,0,0,0-.63,6.2,30.38,30.38,0,0,0,1.77,9.85c1.22,3.37,2.68,6.64,4.33,10.3l2.6,5.63,1.39,2.94.72,1.51.44.91.43.8,6.64,12.42c4.52,8.48,9.31,17.44,14,26.21,2.29,5.91,4.53,11.73,6.62,17.15L224.79,304l-6,4.86c-3.82,3.12-7.2,6-10,8.44C203.06,322.16,199.62,325.47,199.32,325.76Z"/><path class="cls-2" d="M284.66,130.91a2.79,2.79,0,0,0,.15-1A2.46,2.46,0,0,0,284.66,130.91Z"/><polygon class="cls-2" points="284.82 129.91 284.81 129.91 284.81 129.92 284.82 129.91"/><path class="cls-2" d="M280,129.4l-.21.22Z"/><path class="cls-2" d="M273.7,114.48l-.15.14a5.07,5.07,0,0,1-.44-.28c-.89,0-.14-.2-1.52,0a2.39,2.39,0,0,1-1,.21,2,2,0,0,0-.79.1s-.39,0-.38-.08c-.1.16-.4.07-.65.14-.08,0,.07,0,.15.08l-.57.11c-.23,0-.29-.11-.05-.15l-2.9.22-2.1.18-4.16.4c-.34,1.4-.66,2.69-.92,3.76l-.21.9c0,.21-.08.39-.11.52.16-.17.2-.67.42-.82,0,.44-.18.61-.12.82-.3.09-.28.89-.62,1.15l.12.15-.14.19a8,8,0,0,1-.45,2c-.21,1-.11,1.44-.31,2,0-.08.16-.27.14,0-.14,0-.06.67-.22.75s-.11.53-.17.82-.08.6.07.37c-.15.22-.5,1.51-.4.75a10.36,10.36,0,0,0-.27,1.18l.19-.57c-.06.23-.11.44-.15.64a14.92,14.92,0,0,0,1.83,1.92l-.31-.45c.7.76.86.91.88,1.19l-.38-.32a13.55,13.55,0,0,0,1.4,1.36l-.16-.18c.71.5,3.83,3.67,4.52,4.09l-.14-.36.55.42c-.06-.06-.56.07-.57,0l4.26,4.57,4.33-1c.92-.2,1.65-.34,2-.39.55,0,.15.2.14.22a2.23,2.23,0,0,0,.33-.12l.21-.09a1.8,1.8,0,0,1,.64-.18c.27,0,0,.11-.16.16.42-.1.84-.14.84-.21-.55.06-.4-.15-.66-.21l.52-.1.46-.47,0,.13a6.71,6.71,0,0,1,.87-1.24c.86-.82,1.73-1.77,2.58-2.61,0,.06-.12.27-.26.48a1.79,1.79,0,0,1,.41-.37c-.29.12.29-.42.1-.29.41-.81,1.37-1.45,1.78-2.13-.13-.22-1.86-4.1-2.06-4.31.17-.16.34-.33.4-.37a1.72,1.72,0,0,0-.59.52l.09.14c-.37.45-.16,0-.55.44-.11-.06.23-.45.54-.79-.3.28-.65.51-.66.73-.31.24-.09-.14-.45.15a3.57,3.57,0,0,1-.73.89v0c-.74.57-.85,1.15-1.53,1.66l0-.09c-.26.16-.59.65-1,1,.12-.09.28-.12.07.12-.49.39-.73.75-1.11,1l-.22.4-.46.47-.14.14,0,0h-.06l-.08,0-.37.08-1.63.38-1.74.41-.16.07-.11-.1-.76-.79-1.17-1.25.07.05-3.16-3.37-1.86-2-.47-.5-.23-.24a.36.36,0,0,0-.07-.07l-.15-.13v-.22s0,0,0-.07l0-.21c.12-.57.22-1.09.31-1.55a10.79,10.79,0,0,0,.55-1.72c-.12.29-.18.17-.12-.07.4-1.62-.06-.12.29-1.78.07-.39.2-1,.37-1.74.05-.19.1-.41.15-.63l.09-.32.51,0,1.9-.16,2.75-.19c.91-.27,2.07-.25,3-.46l-.09,0,.38,0,.2,0,.79.5,1.58,1c1,.65,1.94,1.21,2.33,1.42l-.12-.1c.9.42.69.51,1.32,1,0-.22.8.12,1.09.27l0,0,.43.21.27.12.14.06h.05a2,2,0,0,1,.47.15l-.11.06.09,0a1.12,1.12,0,0,1,.05.39v.67a29.43,29.43,0,0,0-.09,4.29l-.32.95,0,.14s3.82,1.54,4.63-.41l.11,0v-.39c.05-.46-.08-.68,0-.64v.63c0-.47.09-.14.15,0,0-.2,0-.39.06-.54s0,.07-.07.14a2.9,2.9,0,0,1-.09-.9c0-.48.18,0,.19-.59,0-.83.05-1.65.08-2.48l0-1.65,0-2.39-2.94-1.82-1.63-1c0-.07,0,0,.12,0-.79-.42-1.46-.85-2.18-1.23a.77.77,0,0,1-.21-.32,17.42,17.42,0,0,1-1.93-1.08l-1.36-.82Z"/><path class="cls-2" d="M267.06,123.33c-.13,0-.15,0-.18.07C267,123.4,267.05,123.39,267.06,123.33Z"/><polygon class="cls-2" points="266.87 123.4 266.87 123.4 266.88 123.4 266.87 123.4"/><path class="cls-2" d="M270.42,129.41h0Z"/><path class="cls-2" d="M266,125.19l.19,0c0,.1-.23,0-.2.08.27.09-.06.14.08.2,0,0,0,0-.12,0,.14,0,0,.06.06.09s0,0,.09,0l0,.08c-.05,0-.14,0-.15,0a2.93,2.93,0,0,0-.31,1.14c.12,0,0-.08.23-.08s-.05.07.06.11c-.27,0-.08.1-.36.1l.15,0-.09,0c.13.24.07.06,0,.25s.23.19.14.25a.14.14,0,0,1,.14,0c-.14,0,.09.08-.05.09,0,0,0,.12.18.1-.09,0-.14.09-.21,0s0,0,0,.07l0,0c0,.1-.12.15.05.22l.07,0c0,.06,0,.11-.16.13l-.05-.07a.26.26,0,0,0,.11.25v0c.17.1.35.68.6.75l.13-.05.13.07s-.46,0-.42,0c0,.16.3,1.2.33,1.45s-.21.09-.23.09.15,0,.17.09-.1,0-.13,0,0,.08.06.06.2-.11.3-.17l0,.11-.11,0s.3-.06.3.08a3.43,3.43,0,0,0,.28.58.25.25,0,0,1-.17,0s.05,0,0,.1c.07-.11.12,0,.14,0,.3,0,.26.3.5.29.09-.08.91-.73,1.67-1.46l.55-.55.32-.33v0l0,0,0,0h0l0,0,0,.05s0,0,0-.05l0,0,.05,0h0a1.17,1.17,0,0,0,.15-.1h0l.16-.11h0L271,129l.05,0a.62.62,0,0,0,.14-.06l.13-.06.08,0s0,0-.07,0-.12-.14-.13-.21h0c-.08-.14-.08-.54-.22-.81.13,0,.1-.08.14-.11s-.14,0-.13,0-.09,0-.13-.14.12-.71.25-.83c-.16-.11,0-.17-.1-.26h0c-.06-.09.21-.49.17-.59h0c-.08-.1.1,0,.18-.09a.42.42,0,0,1-.3-.17h0s-.17-.18-.17-.25l.1,0c-.1-.09,0-.17,0-.22s.3-.15.19-.3l.32,0h0l-1.89-.69a12.72,12.72,0,0,0-2.52-.75l-.1,0v0c-.07,0,0,.1-.06.06l0-.07s-.09,0-.15,0a.07.07,0,0,1-.07,0s.05,0,.07,0,.12.11.06.13-.17-.06-.2,0a2.54,2.54,0,0,0-.45.86.16.16,0,0,1-.06,0c0,.11,0,.18,0,.28a.85.85,0,0,1-.16,0C266.16,124.7,266.05,125.19,266,125.19Z"/></g></svg>