<svg xmlns="http://www.w3.org/2000/svg" viewBox="0 0 385.51 385.51"><defs><style>.cls-1{fill:#2c2c2c;}.cls-2{fill:#fff;stroke:#fff;stroke-miterlimit:10;stroke-width:0.5px;}</style></defs><g id="Calque_16" data-name="Calque 16"><polygon class="cls-1" points="234.94 115.82 136.63 133.94 124.09 131.79 117.11 122.06 112.72 98.26 116.37 85.98 126.73 80.21 225.03 62.1 237.29 64.07 244.56 73.97 248.95 97.77 246.66 108.28 234.94 115.82"/><path class="cls-1" d="M232.82,111.3a29.69,29.69,0,0,0-4.65.55A25,25,0,0,0,232.82,111.3Z"/><path class="cls-1" d="M228.14,111.85h0Z"/><path class="cls-1" d="M239.09,119.88l1.2-.79C239.88,119.34,239.47,119.61,239.09,119.88Z"/><path class="cls-1" d="M144.58,126.54l-.19.44c-4.08.76-1.27-.23-5,.57a5.9,5.9,0,0,1-1.55.52l-1.05.21h-.16l0,0h0l-.12,0-1.08-.21a8.19,8.19,0,0,0-1.58-.19s-1.81-.37-1.66-.52c-.62.2-1.92-.26-3.11-.38-.43,0,.3.14.6.29l-1.35-.18-.67-.09c-.15,0-.15,0-.16,0h0a.22.22,0,0,1,.07-.31l-.08,0,0-.12c-.45-.64-1-1.36-1.5-2.13s-1.21-1.73-1.88-2.67c-.33-.48-.68-1-1-1.46l-.26-.38c-.07-.09,0,0,0-.06h0l0,0c-1.18-6.66-2.62-14.78-3.74-21.15.54-1.83,1-3.49,1.45-4.88.26-.9.49-1.71.7-2.42s.44-1.53.36-1.29c0-.34-.37.78-.62,1.49a7.51,7.51,0,0,1-.85,1.92,17.49,17.49,0,0,1,.6-2.28c.1-.28.18-.54.24-.77s.06-.24.08-.35a1.15,1.15,0,0,0,0-.16l0,0c.24,0,.3,0,.35,0a.26.26,0,0,1,.15,0s0,0,.08,0l.42-.17a4.65,4.65,0,0,1,.76-.21l.35-.55,1-.33,4.3-2.6.47-.26s0,0,.07,0h.09l.2,0,2.1-.36c4.48-.88,6.53-1.69,9.06-2-.37.06-1.4.06-.25-.23.25.23,3.06-.76,3.68-.6,1.13-.24,4.83-.89,3.51-1,.66.06,4-.47,2,0,1.11-.19,2.19-.34,3-.57l-1.45.17c3.75-.75,5.84-.84,8.22-1.62l-1.41.11c2.24-.44,4.11-.81,5.06-.61l-2.29.53c3.72-.69,6-1.13,9-1.89l-1.1.19c3.88-1.08,24.48-5.19,28-6.31l-1.73,0,3.09-.81c-.38.07-1.35,1.18-1.67,1.15l29.19-5.51L234.9,68l2.32,3.26c1.38,2.14-.09.63-.15.64,1.92,2.42,1,.89,2.57,3,.39.6-.26,0-.54-.29.18.23.35.45.5.66l.32.45c.05.07.09.11.16.09s0-.22.07-.39.16-.25.07-.56l.53.75.1.6-.24-.11A22.78,22.78,0,0,1,242,81.16c.46,2.76,1,5.64,1.52,8.52.49,2.67,1,5.35,1.44,7.93-.07,0-.14-.12-.21-.26a1.88,1.88,0,0,1-.09-.27c0-.12-.06-.25-.1-.39s-.14-.56-.22-.84c.07.37.16.84.24,1.3l0,.23v.1a.9.9,0,0,1,0,.18c.06-.15.12-.09.17,0a3.39,3.39,0,0,1,0,.35s0,.2,0,.21,0,0,.07-.16a38.47,38.47,0,0,1-.74,4.65c-.24,1.1-.48,2.21-.71,3.25-.2.13-.39.27-.57.41l-.13.11-.08.06-.17.13-.65.5c0,.58-2,11.26-1.72,11.75-1,.6-1.91,1.2-2.23,1.35a17.62,17.62,0,0,0,3.18-1.9V118c2.23-1.56.64-.19,2.86-1.64.25.14-1.77,1.5-3.57,2.69,1.65-1,3.37-1.91,3.88-2.57,1.59-.9,0,.37,1.9-.73l1.86-1.36c1.27-.87,2.57-1.76,3.88-2.58.12-.55.25-1.08.39-1.61l0,.08c.23-1,.45-1.91.67-2.79.11-.53.22-1,.32-1.5.17-.83.29-1.6.41-2.36s.24-1.49.37-2.26c.08-.39.15-.78.23-1.18.18-.76.35-1.55.54-2.37-.06-.43-.14-.89-.21-1.38l.24.83c-.06-.35-.11-.73-.17-1.15s-.11-.65-.17-1-.2-1-.31-1.62c-.23-1.16-.48-2.47-.63-3.73.08.72,0,1.37-.29-.12-.37-2.91-.89-4.84-1.09-7l-.61-2-1.68-9.06L240.41,59,225,56.55,196.6,62l.38-.11c-15.28,2.94-46.71,8.71-62.47,12-1.25.1-2.71.32-4.18.57l-4.83.83a12.88,12.88,0,0,1,1.33-.16c.14,0,.19,0,.15.06a7.17,7.17,0,0,1-1.72.41l-.19,0-2.67,1.48-1,.6c-.45.27-.5.32-.55.39s-.22.27-3.67,2.25c-.45.28-2.54,1.46-4.59,2.62-1.14,3.88-2.72,9.21-4.45,15.1,1.5,8.42,3.23,18.13,4.62,25.91,3.83,5.47,6.94,9.91,8.61,12.28l.36.07,2.66.35,2.13.31c1,.14,2.09.31,3.15.49l3.17.53,3.86.62,1.46-.29.57-.13.39-.09-.41.16c4.52-1,30.31-5.38,35.57-6.48l-.72.08c4.56-1.07,4-.57,7.66-1.11-.55-.32,3.36-1.27,4.86-1.58l0,.1c2.26-.48,7.34-1.78,11.08-2.52L197,127c3.08-.81,9-1.79,11.22-2.23,5.16-.86,13.15-1.94,20-3.49l4.55-.2.64-.18s5.77-8.82-3.6-8.75l.1-.24-1.79.35c-2.17.29-3.12.73-3,.49l3-.52c-2.17.33-.68-.06.12-.33-.91.14-1.79.28-2.52.34-.41.16.33,0,.67,0a31.7,31.7,0,0,1-4.16,1c-2.22.39-.21-.32-2.8.13-13.66,2.34-26.91,4.53-40.68,7.11-.33,0,0-.09.44-.21l-11.59,2.3a5.9,5.9,0,0,1-1.71,0c.33,0-4.88,1-10.21,2l-7.42,1.38C146.08,126.29,144.67,126.54,144.58,126.54Z"/><polygon class="cls-1" points="270.23 174.51 247.47 154.87 233.88 147.14 231.26 132.91 188.71 140.75 146.17 148.6 148.79 162.82 138.85 174.89 124.58 201.35 120.8 230.56 136.72 316.94 141.06 323.57 150.86 327.04 220.67 314.17 290.48 301.31 298.41 294.57 300.09 286.84 284.17 200.45 270.23 174.51"/><path class="cls-1" d="M271.68,169.38c-1.3-1.43-3.79-3.61-6.13-5.68A80.15,80.15,0,0,0,271.68,169.38Z"/><path class="cls-1" d="M265.51,163.65l0,0,.08.08Z"/><path class="cls-1" d="M266.33,179.23l1.24,2.26C267.17,180.73,266.75,180,266.33,179.23Z"/><path class="cls-1" d="M142.54,161.23a2.91,2.91,0,0,1,.35.2l-.71.84-.89,1a6.61,6.61,0,0,1-.84.79c-.38.29-.71.55-2.85,3.23a14,14,0,0,1-1.19,1.77l-.87,1.11-1.32,1.6c-.49.9-1,1.82-1.51,2.73l-1.22,2.17a35.31,35.31,0,0,0-1.66,3.24c0-.07-1.62,2.88-1.67,2.61-.22,1.05-1.58,3.07-2.52,5-.29.71.35-.46.7-.92l-2.2,4.33c-1,1.62-1.37,2-.42.11l-4.67,8.54c-1.06,7.93-2.58,19.27-4.18,31.15,1.85,10.17,3.77,20.74,5.39,29.72,1.6,8.7,2.92,15.85,3.64,19.53-.09-1.77-1-5.9-.94-7.54.86,3.52.89,5.25,1.39,6.77-.28,1.47,1.32,7.84,1.27,10.63l.49,1,.14,1.8c3.2,15.57.81,3.54,3.3,17.41l.87,4.39c.36,1.72.69,3.27,1,4.68.42.62.83,1.21,1.22,1.8l.66.93,1.14,1.64c.39.57.77,1.13,1.14,1.69l1.93,3,.93.35-.93-.36c-.7-1.17-1.37-2.42.16-.19l.28.09a10.5,10.5,0,0,0,1.81.73l1.58.54,1,.33a20.91,20.91,0,0,1,3.36,1.23l4.72,1.64,3-.58,1.19-.28c.61-.17.75-.27,0-.25,1.15,0,7-1,3.57-.24,2-.35,3.92-.65,5.33-1l-2.56.37c6.69-1.29,10.39-1.68,14.69-2.81l-2.5.31c4-.76,7.35-1.4,9-1.33l-4.09.86c6.64-1.23,10.64-2,16.14-3.2l-2,.35c7-1.66,43.84-8.75,50.26-10.4l-3.05.27,5.55-1.26c-.66.12-2.53,1.4-3.1,1.41l50.49-9.43,9.87-8.4c.75-3.48,1.48-6.83,2.16-9.95-.82-4.51-1.55-8.54-2.16-11.84L301,268.13c-.67-4.49.3-.88.35-.84-1.11-5.41-.73-2.29-1.56-6.91-.18-1.27.27.22.44.92a36.61,36.61,0,0,0-.81-4c.36,2.55-.18,1.54-.21,2.65L298.16,254l.26.22a74.62,74.62,0,0,1-2.17-9.11c-1.72-9.86-3.77-20.54-5.54-30.45a31.15,31.15,0,0,1,1.08,4.27c-.24-1.33-.64-3.35-.78-4.59.21,2.44-.91-4.12-.67-2.24-.48-1.86-.93-3.88-1.35-6-.2-1-.4-2.1-.61-3.16-.23-1.24-.46-2.5-.68-3.74l-3-5.57c-.88-1.61-1.74-3.11-2.55-4.44-.7-.27-14-8.31-14.49-8-.94-1.78-1.89-3.56-2.14-4.13a57.18,57.18,0,0,0,3,5.88l.45.17c2.39,4.23.37,1.09,2.64,5.26-.11.34-2.22-3.48-4.06-6.85,1.61,3.06,3.08,6.18,4,7.29,1.45,2.92-.45-.17,1.31,3.33,1.39,2.42,3.34,5.53,4.73,8.43l-.07,0,.72,1.43.18.34.07.15h0l0,.15c.07.35.13.69.2,1,.13.67.27,1.32.4,2,.27,1.27.53,2.48.8,3.69.52,2.43,1,4.88,1.48,7.9l-.23-.74c.32,2.51,1.41,7.34,2.08,11.83-.19-1.28-.21-2.42.31.26.79,5.16,1.59,8.63,2.09,12.42l.91,3.55,7.89,42.26v.07l-.15.69c-.13.63-.27,1.27-.41,1.92l-.42,2,0,.18-5.37,4.63-43.56,8.19.69-.17-45.5,8.51-48.43,9.12-.24-.07-1.31-.45-2.53-.88-2.32-.8-.31-.1-.09,0-.2-.06-.2-.28-.84-1.26-1.55-2.32-.2-.34,0-.07-.05-.14v-.22l-.07-.42-.27-1.68c-.2-1.14-.4-2.3-.6-3.47-.41-2.32-.82-4.63-1.17-6.65.37,2.55,0,1.71-.32-.27-2.53-13.9-.34-.9-3-14.94-1-4.8-2.62-13.67-4.54-24.12-1.86-10.23-4-22-6-32.86,1.5-11,2.87-21.06,3.76-27.61l2.44-4.4c1.62-3.36,3.57-7,5.54-10.72,1-1.83,2-3.67,2.94-5.46.47-.9.94-1.78,1.4-2.65.23-.43.45-.87.67-1.29l.33-.64c.07-.14.07-.12.08-.15l0-.08.09-.14.36-.45-.21.32-.11.16s0,0,0,.06c.36-.44.84-1,1.42-1.76l2.19-2.67,7.32-8.87c-.51-2.84-1.06-5.85-1.63-9-.16-.92-.33-1.86-.49-2.82l1.24-.21,4.92-.88,10-1.81c6.17-1.13,11.17-2.05,13.64-2.54l-1.27.18c8.18-1.73,7.13-1.14,13.64-2.21-.93-.24,6.08-1.77,8.77-2.29l-.09.1c4-.81,13.16-2.85,19.85-4.14l-.22.27,2.15-.47,2.1-.44c.58-.13,1.23-.26,1.86-.38.47,2.51.92,4.94,1.16,6.25.32,1.85.67,3.84,1,5.94l14.74,8.63,5.91,5.14c2.1,1.79,4.19,3.55,6.23,5.24l5.7,5.74.93.73s14.82,2.7,3.4-9.3h.34l-2.48-2.11c-2.89-2.64-4.43-3.63-4.09-3.62l4,3.52c-2.93-2.61-.78-.91.44,0-1.23-1.08-2.42-2.14-3.36-3.05-.64-.44.37.44.8.88-1.65-1.32-4-3.09-5.89-4.85-3-2.64,0-.44-3.5-3.52-1-.87-2-1.73-3-2.59l-7.24-4.18-3.38-2-.84-.49-.12-.06,0,0,0,0-.14-.1,0-.17v-.08l-.14-.82L238,139l-2.27-12.58L210.55,131l-19.92,3.65c-.57,0,.09-.11.8-.28l-20.73,4a18.82,18.82,0,0,1-3,.22c.33,0-2.62.58-7,1.41l-21.3,4c1,5.21,1.87,10.18,2.64,14.32.2,1.09.38,2.06.53,2.89v.07S142.55,161.23,142.54,161.23Z"/><path class="cls-2" d="M247.28,225.61l-8-1.73-23.52,4.34-4.07-22.06-5.29-7.38-7.2-1.22c-2.9.53-6.88,4.47-6.88,4.47l-1.72,8,4.06,22.06-23.53,4.33-5.92,3.28s-3.31,5.77-2.68,9.21h0l4.94,7.18,7.55,1.43,23.53-4.34,4.61,25,3.27,5.92s5.78,3.32,9.22,2.68l7.18-4.93,1.42-7.56-4.61-25L243.15,245l7.39-5.29,1.21-7.2h0C251.22,229.59,247.28,225.61,247.28,225.61Z"/></g></svg>