<svg xmlns="http://www.w3.org/2000/svg" viewBox="0 0 385.51 385.51"><defs><style>.cls-1{fill:#2c2c2c;}</style></defs><g id="Calque_18" data-name="Calque 18"><path class="cls-1" d="M135.7,236.34h0c-4.92-3.94-9.33-6.6-9.86-6L56.23,317.12l-1.09,19.6s18.63-5,18.89-5.31l69.61-86.73C144.17,244,140.61,240.29,135.7,236.34Z"/><path class="cls-1" d="M137.86,231.9a17.9,17.9,0,0,0-3.1-2.69A24.85,24.85,0,0,0,137.86,231.9Z"/><path class="cls-1" d="M134.74,229.19h0l0,0Z"/><path class="cls-1" d="M132.92,241.39l.86.69C133.5,241.84,133.22,241.6,132.92,241.39Z"/><path class="cls-1" d="M81.94,275.78l.17.42c-2.13,2.67-1,.49-2.87,3-.34,1.32-3.33,4.05-3.78,5.09,0,0-1,1.15-1.08,1,0,.56-.94,1.29-1.48,2.1-.16.32.23-.15.47-.3l-1.32,1.81c-.62.62-.89.68-.33-.09l-8.56,10.41-5.95,7.29-6.81,8.41c-.14,2.57-.27,4.89-.38,6.85-.06,1.42-.12,2.57-.15,3.37.28-.79.23-2.74.63-3.45.11,1.67-.21,2.43,0,3.18-.59.8-.29,2.89-1,6.48l.26.86-.29,1.69c-.23,7.11-.22,7.78-.26,8.43,0,.31,0,.58-.13,1.57,0,.13,0,.26,0,.41s0,0,.07,0l.11,0,.23-.06,1.16-.3,3.59-.93c7-1.91,11.19-3.51,12.46-3.69-.3.07-1.15.11-.23-.22.23.22,2.45-.88,3-.74.91-.29,3.93-1.12,2.81-1.18a3.59,3.59,0,0,0,.73-.09l.49-.09.24,0,.39-.1c1-.25,1.52-.36.08.18l1.24-.37a5.92,5.92,0,0,0,1-.61l.47-.32.11-.08h0l.12.17h0l0,0,0,0,.2-.19c.26-.24.49-.48.7-.7l-.83.7-.2.17h0l-.12-.16h0l0,0-.06,0-.11.07-.46.28.52-.36.13-.08h0l.11.15h0v0l0,0,.06-.06.22-.2.85-.78c.34-.42.67-.83,1-1.21.18-.22.35-.43.52-.62l.9-1.07a14.4,14.4,0,0,0,1.47-2.1l-.84.81c1.16-1.47,2.11-2.71,2.86-3L83,328.92c1.94-2.43,3.09-3.91,4.56-6.05l-.58.71c1.78-2.8,12.34-16.44,13.89-19.1l-1.1.92,1.45-2.19c-.2.24-.07,1.56-.31,1.7,3.49-4.38,21.55-27.24,24.94-31.15,1.42-1.53.58,0,.6,0,1.51-2.05.45-1.05,1.82-2.72.41-.42.1.24-.08.52.57-.76,1.2-1.38,1.14-1.52-.82.86-.78.25-1.27.5l1.76-2.15.09.24a15.8,15.8,0,0,1,2.31-3.66c3-3.53,6-7.48,9-11.06a6.8,6.8,0,0,1-1,1.76,17.23,17.23,0,0,1,1.39-1.63c-.88.73,1.09-1.61.47-1a23.39,23.39,0,0,1,1.42-2.15l.52-.68.67-.86,1.37-1.71.58-1a3.59,3.59,0,0,0,.48-.93,3.09,3.09,0,0,0,.31-1.88,7.18,7.18,0,0,0-1.86-3.27,21.56,21.56,0,0,0-2.46-.47,10.12,10.12,0,0,0-2-.06,17.78,17.78,0,0,0-1.94.29,24.25,24.25,0,0,0-5.21,1.42c-.66-.57-1.33-1.12-1.5-1.32a12.5,12.5,0,0,0,2.1,1.91l.32-.13c1.61,1.28.26.46,1.72,1.78-.08.27-1.44-.95-2.72-2,.56.49,1.07,1,1.52,1.44.22.21.43.4.62.55s.41.3.41.2c0,.13-.22.22-.3.3s.42,0,.21,0h-.14c.55-.66-1,1.9-2.68,3.64l.15-.33c-.84.81-2.11,2.71-3.54,4.24.42-.43.88-.72.12.28-1.62,1.77-2.52,3.15-3.78,4.39l-.86,1.47c-5.26,6.48-25.64,32.44-30.86,39l.17-.28L71.09,327a.32.32,0,0,1-.22.17l-.14.06-.8.24-3.28,1-3.06.91-1.42.42-.29.09-.06,0-.13,0a2.27,2.27,0,0,0-1,0c.07.09-.13.32-.3.36,0-.59,0-.6-.07-.58s-.14.08-.15-.69c0,.28.06-2.05.16-4.12.09-1.76.2-3.82.33-6.06,3.27-4,7.05-8.66,10.33-12.69,3.58-4.37,6.65-8.07,8.13-9.8,2-3,5-6.38,7-9.28l-.16.34c2.27-3.05,16-19.6,18.64-23.12l-.41.43c2.24-3.14,2.22-2.48,4.21-4.77-.57.06,1.32-2.66,2.08-3.66l0,.09c1.13-1.52,3.55-5.09,5.46-7.56l.1.23c1.45-2.18,4.6-5.95,5.76-7.43l2.66-3.12,1.52-1.78.57-.6.38-.43c.09-.23.36-.06.51,0l1,.49c.05.06,0,.08.12.18l.31.3.61.63,1.21,1.28.45.26s.57-.17,1.36-.49c.39-.16.84-.37,1.3-.61q.35-.18.69-.39l.35-.22.17-.12.08-.06,0,0h0l.41-.51c.47-.69.94-1.4,1.38-2,.18-1.06-.18-2.36-1.57-3.88l.24-.1-1.33-.91-.54-.41-.27-.19-.39-.26c-.5-.32-.91-.56-1.23-.75-.64-.37-.92-.51-.79-.56,1.22.71,2.71,1.73,3.21,2.1-.39-.29-.61-.46-.72-.56s-.15-.16,0-.09.68.32,1,.49l-1.05-.77-1.51-1.06c-.6-.27.38.34.79.67a23.82,23.82,0,0,0-5.58-2.48c-1.43-.25-1.48-.22-1.6-.34a.61.61,0,0,0-.41-.09,3.14,3.14,0,0,0-.6.06,6.08,6.08,0,0,0-.88.35,8.14,8.14,0,0,0-2.36,1.74q-2,2.36-3.87,4.71l-2.56,3.08c-1.7,2.06-3.4,4.1-5.1,6.15-3.38,4.11-6.76,8.25-10.16,12.51-.23.15,0-.09.14-.38-2.09,2.77-4,5.15-6,7.67a4.64,4.64,0,0,1-1.11.87c.23-.15-2.46,3.28-5.23,6.77l-3.87,4.84C82.73,274.82,82,275.73,81.94,275.78Z"/><path class="cls-1" d="M277.81,60.13h0a4.62,4.62,0,0,0-6.51.71l-211,263,.71,6.52s5.71.28,6.52-.72l211-262.95A4.63,4.63,0,0,0,277.81,60.13Z"/><path class="cls-1" d="M276.1,54.36a9,9,0,0,0-3.86.16,9.44,9.44,0,0,0-4.16,2.36c-.16.14-.3.3-.45.46l-.35.41-.41.49-.84,1-1.69,2.06c.94-1,1.89-2,2.89-3.21l.51-.58a7.86,7.86,0,0,1,.87-.86,9.21,9.21,0,0,1,2.12-1.41A9.62,9.62,0,0,1,276.1,54.36Z"/><path class="cls-1" d="M264.29,61.36l0,0,.08-.1Z"/><path class="cls-1" d="M274.9,63.74s0,0,0,0S274.85,63.75,274.9,63.74Z"/><path class="cls-1" d="M156.34,194.76l0,.67c-5.26,6.56-1.89,1.63-6.68,7.75-1.46,2.72-8.12,10-9.57,12.31,0-.07-2.39,2.88-2.38,2.58-.49,1.1-2.39,3.1-3.83,5-.48.73.47-.44,1-.89l-3.36,4.36c-1.42,1.61-1.89,1.91-.46.07-9.07,11.13-52.48,64.74-62,76.91,1.43-1.41,4.3-5.23,5.72-6.42-2.4,3.32-3.83,4.66-4.79,6.2-1.4.88-5.73,6.93-8.1,9l-.49,1.11-1.42,1.47-2.48,3.2c-1.31,1.67-2.33,3-3.1,3.95.51,4.25.66,5.46.76,6.3,0,.52.07.82.23,2.58l.43,4.85,5,.27c.79,0,1.64.07,3,.06.35,0,.62,0,1.13,0s1.27-.08,2-.19a8.11,8.11,0,0,0,4.2-1.64l1.11-1L74.51,330l1.65-2.15,2.77-3.67c1.67-2.22,3.07-4.06,4.68-6-.48.6-1.9,2.07-.46.15.46-.15,3.83-5.09,4.77-5.82,1.44-1.85,6.22-7.75,4.33-6,1-.89,5.24-6.12,2.84-2.88,1.44-1.77,2.87-3.46,3.84-4.8L97,301.16c4.79-6.05,7.64-9.15,10.53-13.28l-1.9,2.13c2.87-3.61,5.26-6.64,6.68-7.82L109.44,286c4.78-6,7.65-9.58,11.49-14.68L119.5,273c4.8-6.56,31.16-39.89,35.49-46l-2.38,2.51,3.84-5.17c-.48.6-1.23,3-1.7,3.44,8.61-10.77,53.34-66.85,61.47-76.67,3.33-3.91.92-.44.92-.36,3.83-4.95,1.46-2.3,4.8-6.43.95-1.1,0,.37-.49,1,1.43-1.84,2.86-3.47,2.87-3.69-1.9,2.21-1.41,1-2.36,1.85l4.31-5.32,0,.38a91,91,0,0,1,6.25-8.56c7.17-8.78,14.81-18.43,22-27.29a41.12,41.12,0,0,1-2.89,4.06c1-1.19,2.4-3,3.35-4.07-1.9,2,2.87-3.83,1.45-2.21,4.8-6.85,12-15,16.28-20.94,0-.41.84-4.79,1.62-9.12.39-2.17.76-4.32,1-6,.14-.5-.08-.55-.21-.67a.94.94,0,0,0-.17-.1h0c-.07,0-.05,0,0,0s0,0-.07.09l.08-.09s0,0,0,0,0,0,.05,0h0l-.06,0,0,0h0l-.57-.46h0l0,0-.07.09,0,.52c-3.35,4.35-.95.89-4.29,5.08-.19,0,.48-.92,1.53-2.31l1.81-2.34c.17-.21.34-.42.5-.64l.26-.32.13-.16.06-.08.72.56.1.06-.08,0,0,0h0c.16.12-1.38-1.11-.73-.58h0v0l0,0-.23.28-.46.55-1.71,2.06a27.14,27.14,0,0,0-2.29,3.09c-2.38,2.8,0-.52-2.84,2.87-1.92,2.51-4.32,5.9-6.71,8.64v-.08c-5.72,6.72-8.14,10.77-13.39,16.89l.48-.73c-1.9,2.13-5.26,6.63-8.6,10.54,1-1.11,1.9-2,0,.44-3.82,4.5-6.22,7.75-9.08,11l-2.4,3.39L150.4,217.85l.48-.66c-19.61,24.63-60.09,75-80.19,100.63-1,1.12-2.06,2.38-3.17,3.71L64.66,325c-.1.18-.32.19-.49.2l-1,0c-.49,0-1,0-1.45,0,2.55.12,1.69.31-.32.26h-.19l4.59,4.33c-.19-1.71-.33-3-.44-4.08,0-.2,0-.34-.07-.44.22-.3.12-.25.15-.37l0-.06,0,0,.13-.18.85-1.12c.78-1,2-2.53,3.9-5,11.49-14.67,56.32-70.12,66.84-82.89,5.28-7.15,12.43-15.63,17.7-22.56l-.48.74c5.74-7.38,39.13-48.44,45.83-57l-1,1.1c5.76-7.53,5.26-6.27,10-12-.93.52,4-6,5.88-8.39v.14c2.87-3.68,9.21-12.15,14-18.2l0,.38c3.84-5.17,11.48-14.53,14.36-18.15,6.69-8.19,17.19-20.66,25.81-31.86l3.1-3.37L274,64.76l.78-.84.1-.1,0-.06a0,0,0,0,1,0,0h0l0-.05s0,0,0,0a1.53,1.53,0,0,1,0-1.17,2.71,2.71,0,0,1,.9-1.1,4.08,4.08,0,0,1,.73-.45,3.75,3.75,0,0,1,.41-.19l.21-.1.11,0,.05,0h0l.41-.51c.32-.81.61-1.53.94-2.35a5.56,5.56,0,0,0-4.41-2.37,7.69,7.69,0,0,0-4.34,1,8.93,8.93,0,0,0-2.18,1.73c-.37.37-.76.76-1.17,1.19l0-.37-2.29,2.89c-2.86,3.39-3.94,5.14-3.92,4.77l3.81-4.71c-2.83,3.43-1,.93,0-.47-1.18,1.43-2.33,2.82-3.31,3.93-.48.74.48-.44.95-1-1.44,1.91-3.36,4.64-5.27,6.85-2.87,3.54-.46,0-3.8,4.13-17.69,21.76-34.89,42.78-52.58,64.91-.48.45,0-.15.48-.81L185.9,158.21a25,25,0,0,1-2.37,2.43c.47-.44-6.21,8-13.07,16.54Z"/><polygon class="cls-1" points="196.49 38.81 199.92 68.18 209.18 69.53 202.48 76.07 204.06 85.3 195.77 80.94 187.48 85.3 189.07 76.07 182.36 69.53 191.63 68.18 196.49 38.81"/><path class="cls-1" d="M191.76,39.86a4.44,4.44,0,0,0-.1,1.83A3.92,3.92,0,0,0,191.76,39.86Z"/><polygon class="cls-1" points="191.66 41.7 191.66 41.71 191.66 41.69 191.66 41.7"/><path class="cls-1" d="M190.82,38.38l-.07.56A2.68,2.68,0,0,0,190.82,38.38Z"/><path class="cls-1" d="M204.58,74.75l.15-.38c1.6.23.4.52,1.89.64.37-.27,1.1-.11,1.76,0l-3.1-9.53c-.4.33-.78.64-.85.88,0,0-.56.46-.65.3.06.38-.48.57-.76,1-.06.18.16,0,.31,0l-.68.81c-.36.22-.56.16-.26-.18l-1.56,1.43L196.24,74c.62,3.89,1.37,8.59,2,12.26L206.83,80c-1.64-.87-3-1.56-3.69-1.89.23.38,1.11.67,1.25,1.15-.79-.18-1-.6-1.39-.57,0-.31-.37-.54-.77-.78a6.55,6.55,0,0,1-.58-.4,1.25,1.25,0,0,1-.23-.23l-.09-.13-.15-.18-.53.07-.6-.53c-4.58-2.14-3-1.36-4.28-2.09-.4.19-1.11.54-2.43,1.21-.77.42-1.42.8-2,1.16l-.8.5-.18.11-.09.07-.17.13a4.59,4.59,0,0,1-1.29.77c.13-.06.56-.08.19.2-.19-.2-1,.74-1.31.6-.38.24-1.68.89-1.07,1-.31,0-1.49.48-.88,0-.27.14-.54.25-.76.37l7.8,5.66a1.87,1.87,0,0,0,0-.33l-.12.32L185,80.63l.22-.07-.2.12,7.58,5.5a9.56,9.56,0,0,0,.41-3l-.23.51c.12-.87.22-1.6.64-1.88l0,.91c.11-.72.21-1.3.27-1.85.07-.79.15-1.55.23-2.45l-.14.8c0-.84.24-2.67.52-4.86l-3.31-3-.85-.76-.53-.45-.95-.8a21.85,21.85,0,0,0-2.78-2.09l.28.66-1.05-.69c.1.1,1.07-.24,1.09-.09l-.8-.77L183,73.82l4-.64,8.29-1.25c.48-2.93.95-5.78,1.33-8.12.25-1.45.46-2.59.59-3.13.32-1,.48-.1.52-.08.09-1.2-.21-.56,0-1.56.09-.27.21.09.22.25,0-.44.2-.83.08-.89-.19.53-.5.24-.76.44l.24-1.29.21.1a3.77,3.77,0,0,1-.15-2.08c.45-2.12.76-4.46,1.16-6.6.13.06.13.52.13,1a4,4,0,0,1,.24-1c-.32.48,0-.93-.17-.54-.28-1.66.55-3.62.42-5.07-.47-.2-7.77-4.34-8.35-4.44a6.23,6.23,0,0,1,.24-1,2.75,2.75,0,0,0-.36,1.39l.29.13c-.06,1.06-.22.21-.36,1.23-.26,0-.16-.93-.05-1.75-.15.73-.46,1.44-.23,1.78-.22.68-.3-.12-.54.69a6.61,6.61,0,0,1-.17,2.1l-.05,0c-.53,1.62,0,2.6-.55,4.08l-.05-.18c-.24.52-.22,1.61-.53,2.55.09-.27.32-.48.25.11-.34,1.09-.31,1.88-.64,2.66l.11.82c-.2,1.15-.54,3.33-.92,5.85L186.9,63c0,.14,0,.27,0,.4l-.27.09-.19.05-1.24.2-3.62.58L171.09,66l7.58,7.31.11.1-.13-.07-7.9-4.54,10.85-4.53h0L170.92,66l7.73,7.32,3.07,2.9,1.48,1.42.27.22c.17-.82-.61,3.94-1,6.56L181,94.7l8.86-4.91c1.95-1.08,3.71-2.08,5.1-2.91l.35-.1.08,0a.33.33,0,0,0,.14,0,1.58,1.58,0,0,1,.23-.06c-.07-.07-.07-.27,0-.3h0c.49.28,0-.19.66,0,1.1.49,3.16,1.55,5.54,2.81l8,4.24-1.44-9c-.24-1.49-.5-3.11-.76-4.7l-.18-1.18,0-.26v-.21c0-.17,0-.33,0-.49.21-.16.38-.29.53-.39l1.28-1.12a29.63,29.63,0,0,1,3.11-3.36l6.47-7-9-.86-.91-.06.18-.06c-.53,0-1.8-.22-3.36-.46l-.6-.1-.15,0-.3-.06-.57-.13c0-.27,0-.53,0-.74s0-.19,0-.27c0-.32-.08-.58-.11-.76l0,.28c-.43-1.77,0-1.57,0-3-.38.24-.79-1.28-.89-1.86h.09c-.17-.88-.76-2.85-1-4.31l.23,0a33.25,33.25,0,0,1-.68-4.38,51.1,51.1,0,0,0-.72-7.81l.42-1.81-.09-.24s-7.9-1.91-9.11,1.82l-.22,0,.11.7c0,.85.29,1.21.06,1.18l-.1-1.16c0,.86-.16.28-.32,0a5.44,5.44,0,0,1,0,1c.11.16.08-.13.11-.27a4.87,4.87,0,0,1,.37,1.62c.08.87-.34.1-.25,1.11.45,5.34.8,10.53,1.47,15.91-.07.13-.09,0-.15-.16.14.8.25,1.56.35,2.31.16,1.11.31,2.2.47,3.31a4.62,4.62,0,0,1-.17,1.38c0-.22.39,2.31.78,5.4l7.12,1,2.26.33Z"/><polygon class="cls-1" points="333.89 85.3 322.24 71.75 313.55 75.23 316.07 66.22 310.07 59.02 319.43 58.64 324.41 50.71 327.67 59.49 336.75 61.78 329.41 67.59 333.89 85.3"/><path class="cls-1" d="M337.29,81.84a3.24,3.24,0,0,0-.75-1.33A2.73,2.73,0,0,0,337.29,81.84Z"/><path class="cls-1" d="M336.54,80.5h0v0Z"/><path class="cls-1" d="M339.28,83.5l-.13-.44A2.23,2.23,0,0,0,339.28,83.5Z"/><path class="cls-1" d="M319.66,75.05l-.37-.19c.36-1.28.55-.25.78-1.46-.41-.61.61-2,.44-2.44,0,0,0,0,.05-.08a1.48,1.48,0,0,0,.11-.24c.1-.26.23-.51.3-.46-.2-.41.26-1.17.38-1.9,0-.26-.15.19-.3.37l.34-1.59c.27-.63.51-.81.35-.12.15-.48.36-1.17.63-2.08l-7.75-9.63L310.32,65c2.29-.07,4.27-.15,5.15-.24-.32-.22-1.07,0-1.37-.38.64-.23.95,0,1.23-.19.14.26.49.28.88.3l.84,0a3.07,3.07,0,0,1,1,.22l.31-.32.67.16c3.75-.37,2.92-.33,3.67-.31.16-.21.52-.72,1.38-2s1.22-2.21,1.61-3c0-.1.09-.2.14-.29l.06-.15c0-.1.08-.19.13-.29a2,2,0,0,1,.34-.49c-.07.1-.4.27-.27-.09.27.09.38-1,.71-1,.16-.33.83-1.33.3-1.18.27-.07.9-.94.7-.32a3.27,3.27,0,0,0,.5-.83l-.33.34c.35-.61.69-1,.95-1.4l-9.43-1a2.44,2.44,0,0,0,.49.87l0-.48c.28.68.52,1.24.28,1.64l-.37-.66a14.85,14.85,0,0,0,1.24,2.68l-.12-.34a14.79,14.79,0,0,1,1,1.89c.68,1.56,1.48,3.42,2.24,5.18,1.54.31,3,.59,4.14.79l.81.14.37,0,.17,0h.09a2.84,2.84,0,0,0,.59,0l-.45-.4h1c-.12,0-.7.78-.78.66l5.51,1.3-1.6-7.48-4.19,3.38-3,2.39L324.6,66c.08.36.14.64.19.85.17,1.32-.43.14-.49.1.55,1.74.51.8.85,2.22,0,.39-.25-.09-.35-.32.19.64.24,1.24.39,1.28-.1-.79.35-.45.51-.76l.41,1.76-.24,0a4.67,4.67,0,0,0,.5.82,3.13,3.13,0,0,1,.53,1.25c.35,1.76.9,3.63,1.29,5.39-.14,0-.3-.34-.47-.69a2.6,2.6,0,0,1,.13.82c.13-.48.34.7.35.34.85,1.15.79,2.93,1.44,4,.49,0,8.73.36,9.29.22a3.83,3.83,0,0,1,.14.83,2,2,0,0,0-.17-1.18h-.32c-.32-.81.13-.24-.1-1.06.23-.1.48.64.67,1.3-.12-.61-.09-1.25-.43-1.43,0-.59.32,0,.26-.72a4.36,4.36,0,0,1-.6-1.63h.05c-.09-1.42-.9-2-1-3.28l.12.12c0-.48-.38-1.29-.43-2.12,0,.24-.12.48-.27,0-.07-1-.38-1.53-.36-2.24l-.4-.57-.21-.85c0-.12-.07-.25-.1-.39l0,0-.09-.21.09-.13.05-.08,0,0,.22-.18.47-.4L340.08,66l8.34-7-10.36-2.44-4.73-1.11h.14l-1-.22-.47-.11H332l-.32,0-.12-.26,0-.07v0l-.1-.25c-.14-.37-.28-.74-.43-1.11l-1.73-4.43-3.85-9.85L320.09,48l-1.77,3c-.26.46-.51.91-.75,1.32l-.35.62-.16.29-.08.14s0,0,0,0c-.28,0-.31.15-.42.2.09,0,.19.2.15.26l0,0c-.42,0,.11.17-.43.3l-.12,0-.22,0-.34,0-1.61.1c-1.2.06-2.6.11-4.06.15l-9,.26,5.71,7.15L310,66.11l.38.48.15.2,0,0,.11.21a2.07,2.07,0,0,1,.15.3l-.07.12c.15.11.12.31.08.48s-.16.63-.25.93a8.84,8.84,0,0,0-.2,1.08l0-.16c-.11.6-.61,2.28-1.18,4.19l-2.66,8.85,8.8-3.34,4-1.52.92-.35a1.44,1.44,0,0,0,.23-.13l-.05,0c.33-.36.29.05.43.14v0c.08-.52.39-.52.51-.42l0,.08c.08,0,.24.07.45.16a1.33,1.33,0,0,1,.34.17,9.38,9.38,0,0,1,.71.69l-.2.1a24,24,0,0,1,2.51,2.67,34.58,34.58,0,0,0,4.09,5l.46,1.51.18.12s7.31-3.21,6.61-6.51l.2-.11-.4-.43c-.37-.6-.78-.68-.58-.78l.6.74c-.41-.57,0-.28.27-.16a4.16,4.16,0,0,1-.44-.69c-.15,0,0,.14,0,.25a3.5,3.5,0,0,1-1-.91c-.45-.56.24-.27-.29-.92-1.36-1.73-2.7-3.43-4.05-5.13l-1-1.27-1.65-2L323.9,65l-.21.08c-.15,0,0-.1.25-.23l0,0,0,0c-2.46,1.08-4.62,1.91-6.8,2.89a3,3,0,0,1-1.09.09,40.38,40.38,0,0,1-4.66,2l7.75,7C319.42,75.82,319.63,75.08,319.66,75.05Z"/><polygon class="cls-1" points="290.84 180.24 284.89 144.47 268.76 142.83 280.43 134.87 277.68 123.63 292.1 128.94 306.52 123.63 303.77 134.87 315.44 142.83 299.31 144.47 290.84 180.24"/><path class="cls-1" d="M295.49,178.78a8.45,8.45,0,0,0-.11-2.55A7.53,7.53,0,0,0,295.49,178.78Z"/><path class="cls-1" d="M295.38,176.21h0v0Z"/><path class="cls-1" d="M296.52,180.86c.05-.23.1-.49.16-.76A5.14,5.14,0,0,0,296.52,180.86Z"/><path class="cls-1" d="M272.73,137.37l-.18.39c-2.24-.22-.61-.52-2.68-.64a1.38,1.38,0,0,1-.54.14l2.59,10.2c.78-.78,2.62-1.55,3-2.1,0,0,.86-.51.9-.33.09-.43.83-.65,1.31-1.07.15-.2-.19,0-.39,0l1.16-.92c.53-.24.75-.17.25.21l2.29-1.49,6.59-4.41-1.25-5.28c-.21-.87-.42-1.76-.63-2.65l.19.7c.26,1,.53,2,.77,2.89.08.06.07,0,.09,0-.06-.27-.05-.09-.25-.56,0-.21.15.13.15-.1a1.12,1.12,0,0,0,.13.41s.07.1,0,.36c0,0,.06-.09.13-.11l.2-.09.45.36,1.06.31,1.41.46,1.46.48a12.42,12.42,0,0,1,1.2.47c.5-.16,1.54-.51,3.8-1.32l.55-.22.39-.16.69-.32.32-.15c.09-.05,0,0,0-.06l0-.08c0-.11.1-.21.15-.15a.33.33,0,0,1,0-.29c0,.3.26-.3.22,0a1,1,0,0,0,.48-.57c-.06.22.08.25-.19.52,0,0,0,0,.19-.09s0-.08,0-.11.18,0,.23,0a1.74,1.74,0,0,1,.36-.84l.14,0c.11-.36.2-.57-.19-.51l-.25.52c.1-.37.18-.68.28-1s.11-.27.17-.4l.1-.18s0-.08.05-.08c0,.19-.07.38-.11.57l.14-.55s0,0,0,.06.06-.1.06,0c0,.22-.09.46-.14.72-.1.53-.22,1.14-.35,1.83-.28,1.35-.63,3-1,4.77l5,3.22,1.26.8.74.45,1.38.83a39.78,39.78,0,0,0,3.94,2.18l-.6-.75,1.55.77c-.17-.12-1.2.29-1.29.12l2.7,1.81,2-7.87-7.63.84-11.47,1.21c-.62,2.61-1.19,5-1.65,6.92-.15.59-.29,1.12-.4,1.56s-.21.77-.28,1c-.47,1.3-.49.13-.53.11-.29,1.65.12.77-.23,2.14-.14.37-.2-.13-.19-.35-.11.62-.33,1.16-.22,1.23.28-.73.55-.33.85-.6l-.45,1.77-.2-.13a7.06,7.06,0,0,1-.18,2.87c-.79,2.92-1.47,6.14-2.22,9.09-.12-.07-.05-.71,0-1.36a7.37,7.37,0,0,1-.39,1.36c.4-.66-.14,1.28.09.74,0,2.3-1.14,5-1.23,7,.43.28,7.18,6,7.74,6.17a10.62,10.62,0,0,1-.39,1.35,5.33,5.33,0,0,0,.58-1.92l-.28-.17c.24-1.46.26-.3.57-1.7.27,0,0,1.28-.23,2.42.27-1,.69-2,.52-2.46.33-.93.28.18.65-.95a12.66,12.66,0,0,1,.51-2.88l0,0c.8-2.23.45-3.6,1.2-5.63l0,.24c.32-.7.47-2.21.94-3.51-.14.37-.39.66-.23-.15.52-1.5.61-2.58,1.07-3.66V160c.28-1.22.76-3.26,1.34-5.76.28-1.25.59-2.61.92-4l.06-.27v-.15l0-.21.18-.05.1,0,.06,0,.5-.06,4.51-.52,6.86-.79,14.28-1.64-11.84-8-1.58-1.06.2.08-4.67-3.11-2.28-1.53-.4-.24.07-.37,0-.1v0l.11-.45.79-3.28c1-4.35,2.08-8.67,3.08-12.82-7,2.64-13.3,5-18,6.85-2.83.78-3.69,1.16-3.66,1.07a.16.16,0,0,1,0,.29h0c-.33-.12-.35-.08-.38,0s.11.19-2.24-.62c-3.37-1.15-10.39-3.72-18.21-6.63l3,12.48c.24,1,.47,2,.71,3l.06.33c0,.2.06.4.09.58l-.69.37-.13.07-.53.34-.87.54c-1.76,1.63-4.36,3.08-6.15,4.58l.14-.21c-.16.13-.39.29-.72.52l-10.06,7.28,12.18,1c1.55.13,4.47.46,7.55.81l4.14.48c.32,0,.61.09.85.11a2.75,2.75,0,0,0,.12.51l0-.12a.47.47,0,0,1,.07.53s0,.3-.05.58a10.83,10.83,0,0,0,.06,1.14c.36-.32.94,1.78,1.11,2.59h-.1c.28,1.21,1.09,3.94,1.48,6l-.23-.05c.51,1.66.95,4.86,1.17,6.08a100.73,100.73,0,0,0,1.62,10.83l-.22,2.51.12.34s8.17,2.63,9-2.56l.23,0-.19-1c-.09-1.18-.43-1.68-.2-1.64l.24,1.61c-.13-1.19.12-.39.32,0a12.12,12.12,0,0,1-.12-1.37c-.12-.22-.06.18-.07.37a9.18,9.18,0,0,1-.57-2.24c-.17-1.21.35-.14.14-1.54-1.07-7.42-2-14.62-3.3-22.08.06-.19.1,0,.17.23-.11-.56-.21-1.1-.32-1.63-.18-1-.35-2-.52-3-.35-1.93-.68-3.81-1-5.71l-.5,0a5.13,5.13,0,0,1-1.53-.48,29,29,0,0,1-3.32-.23l-5.69-.53-4.06-.4C273.54,137.48,272.78,137.39,272.73,137.37Z"/></g></svg>