<svg xmlns="http://www.w3.org/2000/svg" viewBox="0 0 385.51 385.51"><defs><style>.cls-1{fill:#2c2c2c;}.cls-2{fill:#fff;}</style></defs><g id="Calque_16" data-name="Calque 16"><polygon class="cls-1" points="271.91 100.68 264.52 92.07 253.21 88.38 214.81 81.31 176.42 74.25 164.53 73.67 154.56 79.08 151.09 88.59 211.43 99.7 271.76 110.8 271.91 100.68"/><path class="cls-1" d="M274.94,96.8a18.13,18.13,0,0,0-2.12-2.94A15.3,15.3,0,0,0,274.94,96.8Z"/><path class="cls-1" d="M272.81,93.84h0l0,0Z"/><path class="cls-1" d="M266.23,101.6v1.11A10.27,10.27,0,0,0,266.23,101.6Z"/><path class="cls-1" d="M208.29,74.19l-.27.35c-3.15-.57-.84-.62-3.77-1.05-1.24.34-4.82-.95-5.88-.84,0,0-1.4-.32-1.27-.48-.5.22-1.48-.2-2.4-.29-.34,0,.23.14.45.27l-2.08-.27c-.78-.24-.95-.46-.07-.33l-15.91-3.13-13.93-.76-6.7,3.62-4.22,2.34a13.63,13.63,0,0,0,1.34-.6l.95-.45a4.69,4.69,0,0,1,1.54-.53,10.62,10.62,0,0,1-1.57.93c-.22.11-.36.18-.58.31a5.92,5.92,0,0,0-.85.55A12.12,12.12,0,0,0,150,75.14c-.36.91-.74,1.92-1.12,2.85-.19.45-.4.94-.57,1.27a3.41,3.41,0,0,1-.37.5l0,.13v.69l-.7,1.39-2.49,7.37c-.21.58-.25.56-1.43,3.69l3.15.61c3.43.61,6,1,8.13,1.26l2.72.39a11.53,11.53,0,0,1,1.42.29c-.28-.06-1-.38-.1-.29.1.29,2.42.24,2.81.59.88.13,3.72.69,2.82.15.45.27,3,.81,1.43.69a20.78,20.78,0,0,0,2.31.41l-1.08-.31c2.9.48,4.42,1.05,6.37,1.07l-1.05-.34c1.74.3,3.19.53,3.8,1l-1.79-.22c2.86.52,4.6.81,7,1.06l-.85-.16c3.11.2,19.09,2.83,22,2.9l-1.24-.52,2.46.21c-.29,0-1.33.69-1.55.56,5.17.92,32.09,5.65,36.83,6.72,1.9.51.26.51.23.55,2.37.32,1.07-.11,3.06.28.53.15-.16.2-.47.18.88.13,1.67.37,1.76.25-1.07-.3-.54-.56-1-.87l2.56.5-.15.2a13.71,13.71,0,0,1,4,.25c4.23.88,8.86,1.65,13.12,2.49a6,6,0,0,1-1.91-.06,14.76,14.76,0,0,1,2,.43c-1-.42,1.82.18,1-.07.33,0,.6,0,1,0l1.58.21c1.07.15,2.15.34,3.24.53l6.4,1.18c0-1.24,0-2.43-.09-3.52-.12-.2-.69-1.36-1.49-2.69A17.58,17.58,0,0,0,271,105.3a7.88,7.88,0,0,0-1.54-1.15,5.17,5.17,0,0,0-.72-.34c-.23-.12-.45-.1-.65-.28a7.46,7.46,0,0,0-1.56-.92c0-.88,0-1.74.09-2a10.64,10.64,0,0,0-.16,2.85l.31.16c.1.34-.19,0-.17.3a.58.58,0,0,1-.25-.19.25.25,0,0,1-.05-.08v-.93l0,.56a1.77,1.77,0,0,1,0,.36s0,0,0,0,0,0,.14.13c-.11,0-.31-.14-.42-.19a.71.71,0,0,1,.22.26s0,0-.08-.06l0,0c-.12-.16,0,0-.08,0l0,.06,0,0s0,0,0,0l-.24,0a17,17,0,0,1-2.06-.44l.34,0c-1-.34-3.18-.53-5.08-1,.54.15,1,.42-.18.23-2.18-.56-3.72-.68-5.3-1.17l-1.6,0c-7.7-1.47-38.22-6.73-46-8.11H206L182,89l-13.26-2.33-5.95-1-2.67-.44-1.2-.19h-.23a1.57,1.57,0,0,0-.77-.39l.06-.11c-.19.23-.41.32-.33.15.21-.55.17-.56.11-.57s-.06,0-.06-.1a1,1,0,0,1,0-.21s0-.11,0-.17l0-.11,0-.09.09-.27c0-.08.05-.17.08-.26l.05-.14v0l0-.15c0-.11.06-.23.1-.35l.56-.33,2.39-1.31,4.4-2.38,10.31.59,8.34,1.65,5.71,1.18c3.39.25,7.5,1.29,10.8,1.66l-.34,0c3.52.51,23.29,4.48,27.39,5.11l-.54-.15c3.59.43,3,.73,5.81,1.36-.29-.46,2.79-.13,3.95,0l-.06.08c1.77.26,5.79.64,8.69,1.12l-.15.2c.93.08,2.15.26,3.41.47l3.34.61,1.39.45,8.47,3.06.26.32.77.87c.6.68,1.22,1.35,1.83,2l1.78,3,.38.35s9.44-.72,6-7.18l.24-.06-.93-1c-1-1.35-1.72-1.78-1.48-1.84l1.48,1.77c-1.05-1.32-.19-.5.32-.09-.44-.55-.87-1.09-1.18-1.56-.29-.2.09.24.22.47a18.55,18.55,0,0,1-2.28-2.37l-.41-.51a4.83,4.83,0,0,1-.3-.41.66.66,0,0,1-.14-.35c0-.15-.05-.32-1.13-1.61l-.26-.09L254.57,83l-10.16-2c-3.27-.63-6.57-1.26-9.92-1.86-.23-.13.06-.07.37-.06-3.21-.49-6.05-1-9-1.49a4.2,4.2,0,0,1-1.21-.55c.22.13-3.81-.56-7.93-1.3l-5.72-1C209.44,74.42,208.36,74.21,208.29,74.19Z"/><polyline class="cls-1" points="251.92 124.47 261.41 167.96 233.2 321.25 226.61 331.88 212.77 337.22 169.19 329.2 159.36 327.39 125.62 321.18 114.58 311.26 112.21 298.98 140.42 145.69 164.77 108.43 251.92 124.47"/><path class="cls-1" d="M247.69,127.74c.19,2,.88,5.27,1.52,8.39A78.07,78.07,0,0,0,247.69,127.74Z"/><path class="cls-1" d="M249.22,136.2l0,0,0-.11Z"/><path class="cls-1" d="M250.62,118.48,248,118C248.9,118.18,249.78,118.34,250.62,118.48Z"/><path class="cls-1" d="M233.78,285.91l.3.55c-1.36,7.45-.85,2.09-2,9,.06,2.8-2.16,11.43-2.3,13.86,0-.06-.67,3.31-.81,3.07.11,1.08-.57,3.48-.88,5.62-.06.78.19-.55.39-1.11-.16,1-.45,2.71-.36,2.39l0,.07s0,0,0,0l-.19.33c-1.11,1.59-1.51,1.9-.43.1l-4.68,7.4-10.54,4-34.65-6.51c-11.63-2.16-21.59-4-26.21-4.79,1.72.55,6,1.17,7.53,1.83-3.67-.47-5.33-1.06-7-1.14-1.29-.79-7.94-1.59-10.59-2.64l-1.1.11-1.76-.51-9.05-1.48c-.45-.07-.63-.11-1-.18l-.13,0h0l0,0,0,0v0h0l-.13-.12-.26-.24L125,312.78c-1.34-1.19-2.55-2.24-3.64-3.17l-1.45-1.22-.13,0,0-.06,0,0v0s0-.15,0-.22c-.16-.69-.31-1.35-.45-2-.28-1.29-.52-2.53-.72-3.83.12.68.29,2.52-.2.42a6,6,0,0,0-.25-1.71l-.32-1.43-.08-.37,0-.05,0-.09a.25.25,0,0,1,0-.09l0-.19a4.73,4.73,0,0,1,.23-.79c.35-2.09,1.62-8.81.84-6.6.39-1.1,1.57-7.09,1.07-3.49.38-2,.8-4,1-5.45l-.57,2.58c1.2-6.84,2.17-10.52,2.66-15l-.61,2.5c.73-4.09,1.33-7.51,2-9l-.67,4.21c1.24-6.78,2-10.87,2.82-16.55l-.38,2c1-7.26,7.6-45,8.37-51.69l-.84,3,.81-5.74c-.12.67.4,2.92.21,3.46,1.32-7.28,6-33.09,9.95-54.76l10.38-15.88c3.08-4.69,5.47-8.31,6.74-10.19,2.67-3.79.83-.45.84-.38,3-4.78,1.08-2.2,3.72-6.2.19-.26.3-.39.31-.37s0,.07,0,.23a12.33,12.33,0,0,1-.59,1.13l.81-1.25.16-.22c.08-.13.14-.22.11-.3-.38.4-.51,0-.88.09l.71-1,.73.14a2.25,2.25,0,0,0,0,.22.9.9,0,0,0,.35,0c.08,0,.14,0,.28,0l1,.08a55.78,55.78,0,0,1,6.45,1c10,1.94,20.95,3.87,31,5.78a31.46,31.46,0,0,1-4.46-.52c1.35.25,3.42.6,4.65.92-2.39-.68,4.27.63,2.38.18,7.5.83,17,3.08,23.58,3.92.66-.37,15.5-5.66,15.61-6.23,2,.38,4,.76,4.65.92a59.84,59.84,0,0,0-6.61-1.34l-.42.24c-4.89-.79-1.11-.39-5.87-1.25-.21-.29,4.18.46,8,1.14-3.46-.66-6.89-1.48-8.35-1.47-3.25-.7.42-.24-3.49-1.07-2.82-.44-6.54-.87-9.73-1.61l.07,0c-7.77-1.7-12-1.83-19.13-3.4l.79.06c-2.5-.61-7.51-1.33-12-2.32,1.29.29,2.38.68-.36.2-5.21-1.12-8.81-1.62-12.6-2.52l-3.72-.43-17.37-3.19-26.87,41.39c-4.05,22.47-7.83,43.41-9.42,52.21l.09-.72c-2.26,12.47-5.58,30.8-9,49.72L107.15,299c1.06,5.29,1.84,9.16,2.55,12.66.11.69.23,1.4.36,2.16l3.75,3.51,2.73,2.5,6,5.49-1.11-1.05-.4-.39a1.16,1.16,0,0,1-.18-.2c-.17-.19-.2-.26-.13-.23l.19.12.15.11.31.26c.46.39,1.06.92,1.75,1.54l.25.23,7.55,1.37a5.4,5.4,0,0,0,1.22.15c.27,0,.6,0,7.74,1.24,5.92,1,17.8,3.17,31.26,5.67L213.22,342l16.58-6.29,5.06-8c.36-.65.74-1.31,1.12-2l.6-1,1.07-1.79c.35-2,.71-4.07,1.07-6.15.33-1.79.66-3.59,1-5.37.66-3.57,1.29-7.06,1.78-10.22l-.06.79c1.39-8.31,10.35-55.14,12-64.8l-.29,1.29c1.33-8.44,1.51-7.22,2.84-13.82-.55.8.54-6.44,1-9.19l.07.12c.69-4.15,2.07-13.58,3.27-20.43l.17.31c.82-5.74,2.89-16.44,3.62-20.54.41-2.12.88-4.48,1.38-7.06-.95-4.64-2-9.9-3.15-15.32-1.08-5.13-2.24-10.4-3.44-15.34l-1.14-8.17-.31-1.16s-10.28-11.32-8.29,5.46l-.27-.22.74,3.25c.74,3.92,1.39,5.66,1.11,5.45l-1.14-5.35c.8,3.93.08,1.22-.36-.25.33,1.64.65,3.24.87,4.55.25.76,0-.58-.12-1.2.54,2.09,1.38,5,1.84,7.56.85,4-.3.33.7,5q1.68,8,3.34,15.88l-5.21,27.24-5.33,28.64c-.19.55-.07-.13,0-.86-1.34,7.57-2.53,14.3-3.74,21.2a19.23,19.23,0,0,1-.88,2.95c.2-.56-1.5,9-3.27,18.7-.89,4.87-1.8,9.79-2.48,13.53Z"/><polygon class="cls-1" points="167.85 91.68 162.78 119.22 206.36 127.24 249.94 135.26 255 107.72 167.85 91.68"/><path class="cls-1" d="M163,91.64a14.2,14.2,0,0,0-.87,3A10.94,10.94,0,0,0,163,91.64Z"/><path class="cls-1" d="M162.08,94.69v0Z"/><path class="cls-1" d="M167.69,97.4l.95.17C168.32,97.5,168,97.44,167.69,97.4Z"/><path class="cls-1" d="M194.2,130.93l.24-.36c2.75.5.72.6,3.28,1,1.09-.37,4.2.83,5.14.7,0,0,1.21.29,1.1.45.43-.24,1.29.16,2.09.23.3,0-.19-.13-.39-.26l1.82.22c.68.23.82.44.05.33,4.68,1,27.16,5.41,32.24,6.19-.6-.35-2.19-.48-2.72-1,1.37.05,1.95.43,2.58.33.21.32.94.48,1.73.66.39.09.81.18,1.17.3l.59.21a8.29,8.29,0,0,1,.86.32l.77-.17,1.31.43,6.46,1c.64.11.54.12,2,.42.14-.72.4-2,.84-4.29.53-3,.82-5.22,1.06-7.06,0-.27,0-.34.05-.46s0-.23,0-.34,0-.44.07-.65a10.47,10.47,0,0,1,.25-1.24c0,.25-.35.88-.28.09.28-.09.19-2.12.53-2.45.1-.77.59-3.24.08-2.47.25-.39.74-2.59.65-1.24a13.32,13.32,0,0,0,.35-2l-.27.94c.41-2.53.94-3.85.92-5.56l-.32.91c.06-.38.13-.74.19-1.08s.18-.9.26-1.3a11.35,11.35,0,0,1,.76-2.48l-.42,2.93c.8-4.42,1.3-7.24,1.77-10.66l-.79-.1.74.14-.13.64c0-.17.05-.35.08-.61-1.61-.21-4.31-.62-7.46-1.11l-2.44-.39-1.2-.19-.72-.1-3-.42c-4-.55-7.87-1.08-9.09-1.08l1.07.48-2.14-.15c.24,0,1.18-.72,1.37-.59-4.51-.8-28-4.9-32.12-5.85-1.65-.46-.22-.5-.19-.54-2.06-.27-.94.13-2.67-.21-.46-.14.14-.2.41-.19-.76-.11-1.45-.33-1.53-.21.93.27.46.54.82.84l-2.23-.44.14-.2a10.69,10.69,0,0,1-3.54-.16c-3.69-.77-7.73-1.44-11.44-2.17a4.54,4.54,0,0,1,1.67,0,11.38,11.38,0,0,1-1.7-.38c.85.39-1.59-.14-.91.09-2.82,0-6.26-1.11-8.74-1.19-.3.44-6.67,7.29-6.78,7.86-.74-.15-1.48-.29-1.7-.38a8.3,8.3,0,0,0,2.42.57l.19-.28c1.82.22.39.26,2.14.56.05.27-1.57,0-3-.21,1.28.26,2.52.68,3.09.5,1.18.32-.19.28,1.24.65a19,19,0,0,1,3.6.49l0,0c2.84.79,4.48.43,7.07,1.17l-.3,0c.9.32,2.77.46,4.42.93-.47-.14-.85-.4.17-.24,1.9.51,3.24.59,4.62,1h1.4c6.71,1.29,33.33,5.83,40.09,7h-.28l9.16,1.61,5.29.94.79.11c0,.32-.08.64-.13.95-.34,2-.68,4-1,5.83s-.62,3.67-.9,5.34l-.71,4.5c-.29.24-.3.58-.4.78.11,0,.24.18.21.32h0c-.49-.1-.48-.06-.48,0s0,.14-.61.08h-.07l-.3-.05-.72-.11-1.69-.29-4.23-.75-10.4-2c-7.24-1.4-14.4-2.83-17.08-3.43-3-.18-6.54-1.12-9.43-1.42l.3,0c-3.08-.42-20.31-3.94-23.88-4.46l.47.14c-3.14-.35-2.64-.66-5.06-1.23.27.46-2.5.18-3.41,0l0-.09c-.32,0-1.18.08-2.11,0a4.58,4.58,0,0,1,0-.53l.24-.09a3.84,3.84,0,0,1,.08-1.3c.24-1.34.48-2.61.61-3.32.72-3.43,2.08-8.69,2.64-13.36l1.17-2.87,0-.45s-6.62-6.18-9.34-.38l-.2-.14-.19,1.21c-.38,1.43-.25,2.15-.45,2l.4-2c-.34,1.44-.26.41-.28-.17-.14.6-.27,1.19-.43,1.66,0,.3.13-.2.22-.41a14.32,14.32,0,0,1-.34,2.85c-.29,1.49-.37,0-.71,1.77-1.32,6.55-2,9.26-4.61,23.17l15.15,2.83c.19.13-.06.08-.33.07,2.81.42,5.28.91,7.84,1.28a3.11,3.11,0,0,1,1,.53c-.19-.13,3.33.47,6.92,1.11l5,.9Z"/><line class="cls-1" x1="169.66" y1="116.75" x2="245.63" y2="130.73"/><path class="cls-2" d="M169.5,119.17a3,3,0,0,0,1,.34A2.46,2.46,0,0,0,169.5,119.17Z"/><path class="cls-2" d="M170.5,119.51h0Z"/><path class="cls-2" d="M245.86,127.89l-.32,0Z"/><path class="cls-2" d="M189,123.27l.09-.19c.91.17.22.28,1.07.38.38-.21,1.4.29,1.71.2,0,0,.4.1.36.18.16-.12.43,0,.7.06.1,0-.06-.06-.12-.12l.6.06c.22.09.26.19,0,.16,1.54.34,9,1.85,10.67,2.09-.2-.16-.73-.17-.89-.39.46,0,.65.16.86.09.12.29,1,.24,1.25.57l.15-.13.2.14a8.57,8.57,0,0,1,2.18.35,19.93,19.93,0,0,1,2.06.22c-.08,0-.28-.15,0-.14,0,.14.71,0,.81.19.26,0,1.07.2.83,0,.12.11.85.28.4.28a3.88,3.88,0,0,0,.66.12l-.3-.11a7.69,7.69,0,0,0,1.84.28l-.3-.12c.5.08.92.14,1.09.36l-.52,0a16.37,16.37,0,0,0,2,.26l-.24-.06c.91,0,5.53.69,6.39.61l-.35-.21H223c-.09,0-.42.39-.48.34,1.49.26,9.27,1.58,10.63,1.93.55.17.06.23.05.26.69.07.32-.1.9,0,.15.05-.06.1-.15.11.26,0,.48.12.51.06-.3-.11-.14-.26-.25-.4l.74.15-.06.11a2.45,2.45,0,0,1,1.19,0c1.22.27,2.56.48,3.79.73,0,.06-.3,0-.57,0a3.39,3.39,0,0,1,.57.14c-.28-.17.53,0,.31-.07,1-.1,2.07.36,2.9.32.12-.22,2.47-3.8,2.52-4.09a3.1,3.1,0,0,1,.56.14,1.8,1.8,0,0,0-.79-.21l-.08.15c-.6-.06-.12-.12-.7-.22,0-.13.53,0,1,0-.42-.09-.82-.26-1-.16-.39-.12.07-.14-.4-.28a4.22,4.22,0,0,1-1.2-.14v0c-.93-.3-1.49-.08-2.34-.36l.1,0c-.29-.13-.92-.14-1.46-.32.15,0,.27.17-.06.12-.63-.19-1.08-.2-1.53-.38l-.47,0c-2.22-.43-11-1.88-13.29-2.27h.1c-3.42-.57-10.42-1.86-14-2.34a13.77,13.77,0,0,0-1.84-.47c.31.11.18.17-.06.12a19,19,0,0,0-1.9-.21c-2-.26-9.72-1.8-11.5-2.24-1,0-2.16-.35-3.13-.41l.11,0c-1-.12-6.72-1.33-7.91-1.49l.15.06c-1-.08-.87-.25-1.66-.46.06.22-.83.17-1.17.12l0,0c-.51-.06-1.69-.09-2.53-.22l0-.1a21.29,21.29,0,0,1-2.51-.38,33.81,33.81,0,0,0-4.42-.91l-.94-.49h-.15s-2.28,3.46-.4,4.63l-.06.1.4.06c.47.14.72.06.67.16l-.66-.13c.48.12.13.11-.06.14a4.43,4.43,0,0,1,.54.16c.1,0-.06-.06-.13-.09a2.85,2.85,0,0,1,1,.08c.49.1,0,.18.57.3,3,.64,5.94,1.31,9,1.85.06,0,0,0-.12,0,.94.12,1.76.29,2.6.4a.75.75,0,0,1,.34.23C184.15,122.36,188.94,123.23,189,123.27Z"/><line class="cls-1" x1="148.21" y1="150.92" x2="253.64" y2="170.33"/><path class="cls-2" d="M148.16,153.37a5.67,5.67,0,0,0,1.39.41A4.77,4.77,0,0,0,148.16,153.37Z"/><path class="cls-2" d="M149.56,153.78h0Z"/><path class="cls-2" d="M253.76,167.47l-.44-.07Z"/><path class="cls-2" d="M175.27,158.87l.11-.19c1.27.23.33.3,1.5.46.51-.19,1.94.39,2.37.32,0,0,.55.13.5.21.21-.12.6.07,1,.1.14,0-.08-.06-.17-.13l.83.1c.32.11.38.21,0,.17,2.14.45,12.48,2.5,14.81,2.85-.27-.17-1-.22-1.25-.45.64,0,.9.2,1.19.14.19.31,1.34.32,1.76.67l.2-.12.29.15a16.86,16.86,0,0,1,3,.51c1.39.24,2.09.15,2.84.37-.11,0-.4-.17,0-.15,0,.15,1,.08,1.12.25.36.05,1.49.28,1.14,0,.18.13,1.19.35.57.32a5.4,5.4,0,0,0,.92.16l-.43-.13a15.12,15.12,0,0,0,2.55.42l-.41-.15a3.3,3.3,0,0,1,1.51.44l-.72-.08a26.09,26.09,0,0,0,2.82.4l-.34-.06c1.25,0,7.66,1.07,8.83,1.05l-.49-.23,1,.06c-.11,0-.55.36-.63.3,2.07.37,12.86,2.24,14.76,2.69.76.22.1.24.08.27.95.12.44-.08,1.23.08.22.07-.06.1-.19.1.35.05.67.15.71.09-.43-.13-.21-.26-.38-.41l1,.2-.07.1a4.56,4.56,0,0,1,1.63.06c1.7.36,3.55.66,5.26,1a2,2,0,0,1-.77,0,5.94,5.94,0,0,1,.78.18c-.39-.19.74.06.42,0,1.3,0,2.88.51,4,.53.14-.22,3.13-3.68,3.18-4,.34.07.68.14.79.18a3.7,3.7,0,0,0-1.12-.27l-.09.15c-.83-.1-.17-.13-1-.27,0-.13.73,0,1.38.09a3.8,3.8,0,0,0-1.42-.23c-.54-.16.09-.14-.56-.32a7.58,7.58,0,0,1-1.66-.22v0c-1.3-.37-2.06-.18-3.25-.53l.14,0c-.41-.15-1.27-.21-2-.43.21.07.39.19-.08.12-.87-.24-1.49-.27-2.12-.49h-.65c-3.08-.59-15.32-2.66-18.42-3.22h.12c-4.74-.81-14.44-2.61-19.36-3.34a25.82,25.82,0,0,0-2.56-.6c.43.13.26.19-.08.12-2.4-.46-.18,0-2.62-.34-2.82-.4-13.5-2.5-16-3.06-1.36-.07-3-.51-4.33-.64l.14,0c-1.42-.19-9.33-1.82-11-2.05l.22.06a10.16,10.16,0,0,1-2.33-.57c.11.22-1.13.11-1.59,0l0,0c-.71-.1-2.33-.21-3.49-.4l.07-.1c-1-.06-2.8-.44-3.49-.56a62.23,62.23,0,0,0-6.14-1.22l-1.32-.57h-.2s-2.9,3.34-.25,4.66l-.06.1.56.09c.65.17,1,.1.92.2l-.91-.18c.66.16.18.13-.08.14.27.06.54.13.76.2s-.09-.06-.19-.1a5.57,5.57,0,0,1,1.31.14c.69.14,0,.19.81.35,4.2.86,8.25,1.73,12.51,2.49.09.06,0,0-.15,0,1.29.19,2.42.41,3.6.58a1.23,1.23,0,0,1,.48.26C168.52,157.61,175.16,158.82,175.27,158.87Z"/><line class="cls-1" x1="121.36" y1="296.84" x2="226.79" y2="316.25"/><path class="cls-2" d="M121.3,299.29a6,6,0,0,0,1.39.41A4.59,4.59,0,0,0,121.3,299.29Z"/><path class="cls-2" d="M122.7,299.7h0Z"/><path class="cls-2" d="M226.91,313.39l-.44-.07A3.11,3.11,0,0,0,226.91,313.39Z"/><path class="cls-2" d="M148.41,304.79l.12-.18c1.26.23.32.29,1.5.45.51-.19,1.93.39,2.36.32,0,0,.56.13.51.21.2-.12.59.07,1,.1.14,0-.09-.06-.18-.12l.84.09c.31.11.38.22,0,.17,2.15.45,12.48,2.5,14.82,2.85-.28-.17-1-.22-1.25-.45.63,0,.9.2,1.19.14.18.31,1.34.32,1.75.67l.21-.12.28.15a15.66,15.66,0,0,1,3,.52c1.4.23,2.09.14,2.85.36-.11,0-.4-.17,0-.15,0,.15,1,.09,1.13.25.35.05,1.49.28,1.14,0,.17.13,1.18.35.56.32a5.5,5.5,0,0,0,.93.16l-.43-.13a15,15,0,0,0,2.55.42l-.42-.15a3.35,3.35,0,0,1,1.52.44l-.72-.08a25.75,25.75,0,0,0,2.82.4l-.34-.06c1.25,0,7.66,1.07,8.82,1.05l-.49-.23,1,.06c-.11,0-.55.36-.64.3,2.08.37,12.87,2.24,14.76,2.69.76.22.1.25.09.27,1,.12.43-.08,1.23.08.21.07-.07.1-.19.1.35.05.66.16.7.1-.43-.14-.21-.27-.37-.42l1,.2-.06.1a4.54,4.54,0,0,1,1.63.06c1.69.36,3.55.66,5.26,1a2.19,2.19,0,0,1-.78,0,4.8,4.8,0,0,1,.79.17c-.39-.19.73.06.42-.05,1.3,0,2.88.51,4,.53.14-.22,3.12-3.68,3.18-4,.34.07.68.14.78.18a3.7,3.7,0,0,0-1.11-.27l-.09.15c-.84-.1-.18-.13-1-.27,0-.13.73,0,1.39.09a4.08,4.08,0,0,0-1.42-.23c-.55-.16.09-.14-.57-.32a7.66,7.66,0,0,1-1.66-.22l0,0c-1.3-.37-2.07-.18-3.25-.53l.14,0c-.42-.15-1.28-.21-2-.43.22.07.39.19-.07.12-.88-.24-1.5-.27-2.13-.49h-.64c-3.09-.59-15.32-2.66-18.43-3.22h.13c-4.74-.81-14.45-2.61-19.37-3.34a25.82,25.82,0,0,0-2.56-.6c.43.13.26.19-.08.12-2.4-.46-.17,0-2.61-.34-2.82-.4-13.51-2.5-16-3.06-1.37-.07-3-.51-4.34-.64l.14,0c-1.41-.19-9.33-1.82-11-2.05l.21.06a10.2,10.2,0,0,1-2.32-.57c.11.22-1.13.11-1.6,0l0,0c-.71-.09-2.33-.21-3.49-.4l.06-.1c-1-.06-2.79-.44-3.49-.56a62.23,62.23,0,0,0-6.14-1.22l-1.31-.57h-.21s-2.9,3.34-.24,4.66l-.07.1.56.09c.66.17,1,.1.92.2l-.91-.18c.67.16.19.13-.08.14.28.07.55.13.76.2s-.08-.06-.18-.1a5.22,5.22,0,0,1,1.31.15c.68.13,0,.18.81.34,4.19.86,8.25,1.73,12.51,2.49.09.07,0,0-.16,0,1.29.19,2.43.42,3.61.58a1.32,1.32,0,0,1,.48.26C141.67,303.53,148.31,304.74,148.41,304.79Z"/><path class="cls-1" d="M250.38,155.3a2.1,2.1,0,0,0,1.16-.41A1.85,1.85,0,0,0,250.38,155.3Z"/><polygon class="cls-1" points="251.55 154.89 251.56 154.88 251.54 154.89 251.55 154.89"/><path class="cls-1" d="M262.65,173.48l.3-.22A1.54,1.54,0,0,0,262.65,173.48Z"/><path class="cls-1" d="M269.94,143.32l-.17-.37c.88-.6.51.21,1.27-.42,0-.52.84-.77,1.21-1,0,0,0,0,0-.08s.07,0,.17.18c-.09-.29.07-.12.22-.25s-.07-.07-.15-.14c.11-.08.2-.16.33-.24s.31.19.13.28c.33-.08,1.18-.28,2.38-.47.6-.1,1.28-.19,2-.28l.53-.06H278l0,0s0,0,0,0l1,.44c.66.29,1.17.51,1.47.62-.08-.3-.62-.37-.65-.79.5,0,.57.34.83.23-.07.56.78.54.72,1.14l.24-.22,0,.23.19.05h.1s0,0,0,0l.13-.16a2.59,2.59,0,0,0,.2-.28q.33-.48.6-.81a11.78,11.78,0,0,1,.82-.91l.23-.23.11-.13a3.18,3.18,0,0,1,.77-.72l.24-.15,0,0h0l-4.82-.05h0V139c0,.15,0,.34,0,.59.16,1.16.64,1.67.55,2.33,0-.09.15-.37.26-.07-.26.07.27.78,0,.95.07.29.12,1.25.46.89-.17.18-.16,1-.37.55a2.23,2.23,0,0,0,.09.77l.07-.38c0,.12,0,.24,0,.35s0,0,0,.08l0,.07s0,.06.17.14l.15,0c.06.1,0,.19-.36.1a.36.36,0,0,0-.08-.09.17.17,0,0,0,0,.12.19.19,0,0,0,0,.09l-.16.48.15-.22a14.83,14.83,0,0,1-1.34,3c-.65,1.21-1.25,2-1.16,2.19.1,0,.18.12.31.12-.07.16,0,.22-.15.42.13-.08-.41-.86-.32-.8l-.09.09-.46.32-1.21.85-3.13,2.19c-2.21,1.53-4.42,3-5.14,3.4s-.35-.31-.37-.35c-.59.53-.11.44-.68.8-.18.06-.09-.21,0-.3-.23.19-.51.27-.45.39.36-.12.43.26.68.36l-.73.46-.09-.21c-.17.1-.07.78-.84,1.15-1.24.73-2.49,1.66-3.71,2.43-.06-.13.15-.36.36-.6a1.62,1.62,0,0,1-.59.32c.42,0-.42.47-.14.4-.57,1-2,1.39-2.55,2.22.21.45,3,8.06,3.36,8.54a2.61,2.61,0,0,1-.59.31c.14.07.64-.19.85-.42l-.13-.29c.52-.48.24.06.79-.34.17.19-.32.59-.76.92.43-.26.94-.38.95-.72.45-.17.13.28.66.06.29-.28.58-.78,1.05-.92l0,0c1.07-.41,1.2-1.28,2.19-1.63l-.05.13c.39-.08.86-.64,1.49-.88-.18.07-.42,0-.11-.24.71-.29,1-.7,1.6-.85l.3-.49c2.18-1.42,10.51-7.46,12.65-9l-.06.09.33-.24.62-.48a4.94,4.94,0,0,0,.57-.49l.52-.5a19.71,19.71,0,0,0,1.71-2,39.94,39.94,0,0,0,2.79-4.26l.47-.82.51-.93.48-.94.24-.46c.07-.15.19-.3.14-.48-.07-.69-.11-1.37-.19-2.05s-.13-1.1-.2-1.64c-.18-1.4-.37-2.67-.55-3.68a9,9,0,0,0,0-2.2c-.06.38-.25.27-.27,0h0l-.81-2.25-.05-.07-.11-.14-.21-.26c-.13-.17-.27-.32-.4-.46a3,3,0,0,0-.28-.27l-.21-.17a3.72,3.72,0,0,0-.54-.41c-.2-.12-.24-.12-.28-.11s-.26-.06-1.43-.67c-.63-.3-1.54-.72-2.61-1.2l-1.7-.73-1.32-.54-1.54-.6-2,.19-1.55.18c-.81.11-1.59.21-2.32.33-1.46.23-2.73.51-3.45.68a14.54,14.54,0,0,1-1.53.76l-.94.45c-.34.19-.67.39-1,.59a6.2,6.2,0,0,0-.84.69l.05-.14c-.91.78-6.64,4.24-7.71,5.12l.18-.06c-.87.86-.95.44-1.8.86.33.27-.4,1-.71,1.28l0-.08c-.45.38-1.37,1.42-2.14,2l-.1-.2a13.94,13.94,0,0,1-2.33,1.77,22.21,22.21,0,0,0-4.4,2.75l-1.32.12-.1.15s2.73,7.36,5.59,7.39l.09.21.38-.29c.52-.22.59-.58.68-.38l-.65.41c.51-.26.25.06.14.28a2.86,2.86,0,0,1,.6-.27c.05-.13-.12,0-.22,0,.21-.23.44-.64.81-.76.49-.31.23.27.8-.08,3-1.84,6-3.55,9-5.6.12,0,0,.08,0,.18.84-.69,1.66-1.2,2.42-1.83a.88.88,0,0,1,.54,0,12.43,12.43,0,0,1,2.11-1.62l1.6-1.09A7.61,7.61,0,0,1,269.94,143.32Z"/><path class="cls-1" d="M206,76.76a1.26,1.26,0,0,0,.47-.8A1.07,1.07,0,0,0,206,76.76Z"/><polygon class="cls-1" points="206.44 75.95 206.44 75.95 206.44 75.96 206.44 75.95"/><path class="cls-1" d="M236.19,82.62c0-.08,0-.17,0-.27A.84.84,0,0,0,236.19,82.62Z"/><path class="cls-1" d="M209.49,64.08l-.28-.29s.32.33.27.24.08-.37.28-.44.46-.13.47-.31c0,0,.27-.08.34.08-.07-.31.22-.21.35-.37s-.09-.05-.18-.11l.33-.3c.12.05.16.23.17.26l.09,0s0,0,.08,0h.79l2.21,0c1.45,0,2.68-.05,3.17-.11-.15-.23-.55-.07-.7-.43.33-.21.5.07.64-.15.12.54.73.13.89.69l.09-.3.13.19c.54-.12.39-.16.42-.15h0c0-.08,0-.18,0-.29s.11-.6.22-1.15l.05-.22,0-.11v0h0l-1.52,1.48h0l.05,0,.12.07.39.2c.81.29,1.35.06,1.72.39-.06,0-.16-.28.07-.26-.07.26.62,0,.61.34.22.06.85.37.78-.07,0,.22.58.54.18.54.19.09.35.22.52.2l-.2-.2c.67.24.92.65,1.48.53l-.19-.24c.41.15.75.26.76.66l-.45-.07a5,5,0,0,0,1.68.47l-.19-.09a4.76,4.76,0,0,1,1.08.18l.35.08.1,0,.24,0a2.12,2.12,0,0,1,.47.11,3.27,3.27,0,0,0,.79.48l.06-.39.5.27c0-.06-.89.35-.84.26l.42.54.39.51a1,1,0,0,1,.24.88l0,.18-.09.5c-.07.37-.14.73-.21,1a11.55,11.55,0,0,1-.34,1.37c-.24.43-.45,0-.5,0,0,.59.25.3.13.78-.07.13-.21-.07-.24-.15,0,.22-.14.4,0,.44.15-.25.47-.07.72-.14l-.15.62-.21-.07c0,.14.52.47.29,1.06-.3,1-.44,2.14-.69,3.17-.13,0-.16-.27-.2-.51,0,.14,0,.36-.16.47.28-.21.07.47.21.29.38.86-.3,1.75-.06,2.49.46.15,7.94,3,8.51,3.14a1.37,1.37,0,0,1-.16.47c.14,0,.28-.43.25-.66l-.3-.09c0-.53.21-.09.28-.58.26,0,.22.48.17.88.1-.35.35-.67.1-.86.17-.32.3.09.49-.29,0-.3-.19-.73,0-1l0,0c.41-.76-.14-1.31.26-2l.07.1c.19-.24.1-.78.34-1.22-.07.12-.28.2-.25-.08.26-.51.17-.91.44-1.26l-.17-.43c.12-.52.29-1.5.48-2.64l.29-1.81.14-.94c.09-.54.18-1.08.27-1.6a9.68,9.68,0,0,0,.06-1.51,5.14,5.14,0,0,0-.17-1.43,10.26,10.26,0,0,0-1-2.43c-.19-.36-.39-.68-.58-1l-.28-.44c-.09-.12-.17-.23-.24-.34l-.61-.83.09,0c-.28-.35-.59-.74-.93-1.14l-.73-.85c-.29-.35-.61-.69-.93-1-.16-.17-.32-.35-.49-.52l-.68-.3c-.44-.2-.91-.39-1.38-.59l-1.7-.68c-2.08-.84-4.18-1.65-5.63-2.08a5.05,5.05,0,0,0-1.37-.87c.21.2.06.33-.13.23h0l-1-.3H221l-.11,0-.21,0-.34,0a1.3,1.3,0,0,0-.37,0c-.14,0-.16,0-.18.05s-.05.06-.19.08-.42,0-.87,0c-.89.06-2.64.08-4.43.13l-2.68.07H211l-.76,0-1.76.08-1.71.73c-.13.11-.34.26-.44.35a3.55,3.55,0,0,1-.31.23,7.39,7.39,0,0,1-.66.42,6,6,0,0,0-1.28.9l0-.12c-.15.14-1.23.81-2.31,1.76a8.21,8.21,0,0,0-1.52,1.72,8.12,8.12,0,0,0-.54,1.06c-.12.38-.24.75-.35,1.12-.16.73-.3,1.41-.42,2a7,7,0,0,0-.14.9l.07-.13c.06.91-.31.71-.56,1.37.41,0,.5.77.47,1.06l-.08,0c0,.44.14,1.47.06,2.18l-.22-.07a7.67,7.67,0,0,1-.25,2.14,12.17,12.17,0,0,0-.9,3.69l-.78.71,0,.13s7.24,2.8,9.16,1.41l.21.07,0-.34c.19-.39,0-.62.18-.55l-.13.55c.14-.4.2-.09.29.09a1.44,1.44,0,0,1,.21-.45c-.07-.09-.1,0-.16.1,0-.24-.18-.58,0-.82.1-.42.36,0,.47-.44.67-2.52,1.4-4.94,1.85-7.53.1,0,.08,0,.11.11.06-.79.23-1.48.27-2.2a.69.69,0,0,1,.38-.25s0-.1,0-.28l0,0C209.41,64.1,209.47,64.05,209.49,64.08Z"/><path class="cls-1" d="M160.13,131.69a2.13,2.13,0,0,0-.44-1.16A1.85,1.85,0,0,0,160.13,131.69Z"/><polygon class="cls-1" points="159.69 130.52 159.69 130.52 159.69 130.53 159.69 130.52"/><path class="cls-1" d="M143.56,143.34l-.22-.3A1.66,1.66,0,0,0,143.56,143.34Z"/><path class="cls-1" d="M147.77,112.37l-.37.18c-.61-.87.2-.52-.45-1.27-.53,0-.75-.76-1.07-1.25a1.74,1.74,0,0,0-.51-.51s-.11-.19-.22-.39-.22-.34-.14-.39c-.39,0-.65-.58-1-.8-.18,0,0,.15,0,.3-.27-.2-.55-.41-.82-.58s-.17-.49.16-.27A27.58,27.58,0,0,0,140.3,105c-.67-.46-1.41-.93-2.17-1.38l-.57-.34-.91-.51-2.08-1.08c-1,0-2,0-2.95,0h-.85l-.71,0c-.9,0-1.65.11-2.11.18.32.2,1,0,1.27.34-.56.24-.86,0-1.11.23-.27-.53-1.35,0-2-.46l-.15.33-.41-.12-.56.17-.51.16-.41.15-.39.16-.74.32a8.59,8.59,0,0,0-1,.47l-.24.14,0,0h0L119.9,106h0l0,0-.1.16c-.07.14-.17.3-.29.52-.48,1.07-.34,1.76-.77,2.27,0-.09.33-.23.26.07-.26-.07-.18.81-.49.82-.1.28-.56,1.13-.09,1-.23.06-.68.8-.6.27a2.09,2.09,0,0,0-.33.7l.26-.28-.15.31c-.09.17-.17.33-.26.48-.17.32-.34.62-.49.89a4.8,4.8,0,0,0-.59,1.63l.42-.57c-.1.24-.21.47-.31.69a.47.47,0,0,0,0,.33c0,.11,0,.21,0,.31a1.42,1.42,0,0,1-.19.93l-.25-1.13c.12.91.21,1.64.35,2.32.07.34.14.68.23,1s.14.4.23.63l-.05-.32c.28.53.75,2.22,1.43,4a20.27,20.27,0,0,0,1.16,2.54,6.93,6.93,0,0,0,1.23,1.73,5.44,5.44,0,0,1-.11-.75,10,10,0,0,0,.86.94s-1.1,0-1.09-.16l.38.58.33.45c.25.34.54.75.88,1.2l2.24,3.08c1.58,2.18,3.12,4.36,3.51,5.07.24.63-.31.36-.35.38.55.58.45.1.81.67.07.18-.2.1-.29,0,.19.23.27.51.39.45-.13-.36.25-.44.35-.7l.47.73-.2.1c.1.16.78.05,1.17.81.74,1.23,1.7,2.46,2.49,3.67-.12,0-.36-.15-.6-.35a1.53,1.53,0,0,1,.33.58c0-.42.48.41.4.13,1.05.55,1.43,2,2.27,2.5.45-.21,8-3.19,8.47-3.52a2.32,2.32,0,0,1,.33.58c.07-.14-.21-.64-.44-.84l-.29.14c-.49-.51.06-.24-.35-.79.19-.17.59.31.93.74-.26-.42-.39-.93-.74-.93-.18-.45.29-.14.05-.66-.29-.29-.79-.57-.94-1l0,0c-.43-1.07-1.3-1.18-1.68-2.16l.14,0c-.09-.38-.66-.84-.91-1.47.07.18,0,.42-.24.12-.3-.7-.72-1-.88-1.59l-.5-.28c-1.46-2.16-7.66-10.36-9.2-12.48l.09.06-.11-.15-.06-.08,0,0h0c.49-.35-.68.47-.56.38h0l.08-.07c.64-.46.41-.3.43-.34s0,0-.06-.09l-.09-.16a10.25,10.25,0,0,1-.47-1.22,30.15,30.15,0,0,1-.92-3.67l0-.12V117l0-.08a1,1,0,0,1,0-.17l0-.15,0-.08v0l0-.12.11-.24c.58-1.29,1.1-2.46,1.48-3.42a9.39,9.39,0,0,0,1.2-1.84c-.26.28-.36.09-.22-.16h0l-3.73-1.27.07.08.12.16.2.32a3,3,0,0,1,.27.62c0,.17.2.46.29.7s.19.46.26.67.14.41.19.59.05.18.08.26,0,0,0,0,0,0,0,0a.07.07,0,0,0,0-.08c0-.06-.13-.13.58-.3a11.44,11.44,0,0,1,2.05-.28c.48,0,1,0,1.57-.06.38,0,.31,0,.42,0h.24l.24.16.62.37c.58.36,1.14.71,1.62,1a14.11,14.11,0,0,1,1.93,1.55,1.89,1.89,0,0,1,.76.39l.21.19a.52.52,0,0,0,.1.11,6.14,6.14,0,0,0,.67.78l-.14-.05c.8.89,4.37,6.56,5.27,7.61l-.06-.18c.87.85.45.94.9,1.79.26-.34,1,.37,1.29.67l-.09,0c.4.44,1.46,1.34,2.06,2.1l-.2.1a14.47,14.47,0,0,1,1.82,2.3,22.48,22.48,0,0,0,2.83,4.35l.15,1.3.15.11s7.31-2.88,7.28-5.74l.2-.1-.29-.36c-.23-.52-.59-.59-.39-.68l.42.64c-.27-.5.05-.24.28-.14a2.66,2.66,0,0,1-.28-.6c-.14,0,0,.12,0,.22-.24-.2-.65-.43-.78-.79-.31-.48.27-.23-.09-.8-1.9-3-3.67-6-5.78-8.86,0-.12.09,0,.18,0-.7-.83-1.23-1.64-1.87-2.38a.82.82,0,0,1,0-.54,12.19,12.19,0,0,1-1.67-2.09l-1.12-1.57C148,112.7,147.77,112.4,147.77,112.37Z"/></g></svg>