<svg xmlns="http://www.w3.org/2000/svg" viewBox="0 0 385.51 385.51"><defs><style>.cls-1{fill:#2c2c2c;}.cls-2{fill:#fff;}</style></defs><g id="vetements"><path class="cls-1" d="M338.57,192.76c0,20.13-11.46,56.75-11.46,56.75l-60.05,68.73-74.3,20.33-67.82-16.7L65.4,263.81,47,192.76l12.59-59.38,52.87-62.32L192.76,47l69.5,17.6,60.47,62.06S338.57,168.94,338.57,192.76Z"/><path class="cls-1" d="M333.64,195.8c-.18,1.29-.42,3.09-.65,5.1s-.58,4.26-1,6.44l.55-2.56c.14-.87.29-1.78.45-2.72s.28-1.94.37-3S333.61,196.94,333.64,195.8Z"/><path class="cls-1" d="M332,207.43v.07l0-.16Z"/><path class="cls-1" d="M344.09,189.08c0-1.26-.19-2.62-.33-4C343.88,186.4,344.05,187.74,344.09,189.08Z"/><path class="cls-1" d="M183.87,330.37l-.77.22c-10.53-2.58-3-1.19-12.72-3.5-3.94-.38-16.15-4-19.59-4.57a6.72,6.72,0,0,0-.69-.2l-1.57-.43a7.79,7.79,0,0,1-2.07-.68c-1.53-.06-4.92-1.14-7.94-1.8-1.11-.19.77.28,1.57.57l-6.91-1.59c-2.67-.76-3.29-1.09-.36-.41l-5-1.26-57.08-56c-2-7.52-3.75-14.47-5.25-20.28-1.65-6.26-3-11.29-3.81-14.49.42,2.54,2.12,8.47,2.36,10.82-1.53-5-1.89-7.54-2.68-9.73,0-2.1-2.79-11.26-3.26-15.27l-.68-1.39-.48-2.58c-2.38-8.66-3.13-11.39-3.48-12.64-.16-.63-.23-.89-.34-1.34,0-.23-.12-.51-.21-.9l-.06-.23v-.06l0-.05.39-1.76c.31-1.41.7-3.21,1.19-5.48,2.43-11.66,3.19-17.29,4.72-23.74-.21,1-.94,3.49-.38.46.38-.46,1.52-8.07,2.1-9.49.59-3,2.66-12.53,1.61-9.37.52-1.59,2.41-10.11,1.49-5,.14-.64.27-1.27.41-1.89l.08-.35v-.05l0-.09c-.26.31,1.12-1.32,1.76-2.14L65,135.08l-.32.36-.16.17,0,0-.1.08,3.69-4.33,3.61-4.19c2.22-2.58,4.14-4.86,6.11-7.44l-2.49,2.71a121.91,121.91,0,0,1,8.81-9.91l-3.86,4.73c6.37-7.53,10.21-12.08,15.38-18.48L93.75,101c1.53-1.93,4.65-5.74,8.61-10.53l12.72-15.37,22.07-6.93C144,66,149.48,64.28,151.9,63.43l-4.34,1,7.88-2.62c-.94.28-3.57,2-4.39,2.19l41.8-12.64,67.21,17,6.25,6.5c4.52,4.86.51,1.17.43,1.15,5.71,5.7,2.64,2.28,7.41,7.21,1.27,1.38-.43-.12-1.19-.85,2.12,2.13,4,4.2,4.25,4.27-2.55-2.76-1.19-1.87-2.13-3.17l6.13,6.34-.43-.12c1.37,1.41,3.92,3.15,9.88,9.44l15.72,16.2,8,8.18,3.94,4,.86.88c.09.13.27.22.29.39.25.68.48,1.36.72,2a2.74,2.74,0,0,1-.3-.59c-.13-.29-.3-.69-.5-1.16,0-.08-.09-.17-.13-.27l-.26-.23-1.49-1.44,1.14,1.17.36.37c.06.07.16.12.18.21.11.33.22.65.33,1,.18.54.33,1,.46,1.46-.94-3.39,2.16,5.71,1.35,3.09,2,5,3.88,10.78,5.55,16.5s3.12,11.32,4.37,15.84c.17.17,1,1.35,2.24,3.06.61.86,1.3,1.85,2,2.9l2.2,3.34c1.52,2.26,2.85,4.62,4,6.39a15.6,15.6,0,0,0,1.9,3c.07.78.15,1.56.22,2.3s.05,1.49.07,2.15c0,1.31.06,2.35,0,2.84.06-.42.05-2.19,0-4.29s-.39-4.38-.58-6l-.39-.51a32.27,32.27,0,0,1-.61-4.49,25.28,25.28,0,0,0-.67-4.32c.09-.21.45,1.3.92,3.57s.95,5.37,1.2,8.36a71.82,71.82,0,0,0-2-12.52c-.86-4.82.45.46-.68-5.31-1-4.09-2.56-9.31-3.69-13.94l.07.07c-2.92-11.22-5.42-16.81-8.69-26.87l.47,1-.49-1.49c-.17-.46-.34-.93-.51-1.42-.1-.28-.21-.57-.32-.86a1.63,1.63,0,0,0-.18-.43l-.34-.34-3.69-3.79c-2.17-2.21-4.6-4.68-6.85-7.11,1.28,1.39,2.29,2.69-.51-.14-5.2-5.57-8.95-9.18-12.69-13.31L299.78,95,265.15,59.54,192.63,41.39l-38.1,11.52,1-.34L109.42,66.5,54.85,131.08c-3,14.45-5.7,27.58-7.89,38.13-.79,3.15-1.64,6.92-2.47,10.73-.87,4-1.74,8-2.5,11.46.1-.41.19-.79.26-1.13l.14-.52.2-.72c.1-.35.15-.44.16-.33a6.66,6.66,0,0,1-.13.9c0,.24-.1.53-.16.85-.11.54-.24,1.15-.37,1.8l-.14.62c1.43,5.46,2.17,8.27,2.56,9.77A10.63,10.63,0,0,0,45,204.3c.15.36.34.81,3,10.82,1.2,4.57,3.08,11.68,5.36,20.32,2.33,9,5.08,19.59,8,30.72,25.21,24.64,48.69,47.72,61.17,60.07l3.89,1c11.21,2.39,25,6.08,36,8.54l-1.12-.19,11.57,2.82,20,4.94L230,333.23c11.23-3.05,20.61-5.61,24.83-6.8l-1.83.44c4.76-1.39,7.34-2.09,9.36-2.58l2.81-.66,1.51-.35,3.07-.78,3.87-4.29c-1.13.68,5.58-7.35,8.19-10.38l0,.17c3.91-4.58,12.62-15.09,19.12-22.61l-.09.44c5.28-6.41,15.62-18.09,19.52-22.59l7.62-8.55,2.61-2.95a1.26,1.26,0,0,0,.21-.26l.1-.33.21-.65.37-1.21c.17-.53.33-1.06.5-1.6.66-2.14,1.31-4.35,1.95-6.59a261.84,261.84,0,0,0,6.47-27.78c1-3.89,1.74-7.85,2.43-11.88l.09-1.81a25.81,25.81,0,0,0-1-2.78,12.55,12.55,0,0,0-2.66-4.09c-1.07-.88-2.15-1-3.13.6a13.36,13.36,0,0,0-1.41,3.6c-.26.84-.51,1.81-.75,2.92s-.55,2.39-.82,3.81l-.18-.4c-.15,1.52-.41,3.05-.64,4.57-1,5.47-1.34,8.06-1.47,7.64.27-1.25.5-2.51.73-3.76s.49-2.5.67-3.75c-.46,2.74-.64,3.16-.57,2.61s.25-2,.34-3.1c-.35,2.29-.85,4.52-1.23,6.33-.14,1.11.24-.78.44-1.62-.46,3-1.14,7.15-2.06,10.73-1.37,5.63-.4.29-2.05,6.84-1.11,4.31-2.3,8.61-3.55,12.85l-1,3.18-.24.79-.05.17c0,.06-.06.09-.1.14l-4.34,4.91-17.72,20.07c-11.8,13.39-23.62,26.84-35.63,40.62-.61.56,0-.18.71-1l-1.3,1.51a.59.59,0,0,0-.07.1l-24.3,6.78a41.16,41.16,0,0,1-4.3.84c.6-.1-6.4,1.86-15.55,4.4l-27,7.42Z"/><path class="cls-2" d="M112.14,295.55c1.51-3.53,3.74-9.74,5.87-15.61C116.19,284.4,114.38,289.18,112.14,295.55Z"/><path class="cls-2" d="M118.06,279.83l0-.09-.08.2Z"/><path class="cls-2" d="M113.18,300l4.13-3.07C115.92,297.91,114.51,299,113.18,300Z"/><path class="cls-2" d="M209.65,127.57l.7.75c5.09,13.92,1.05,4.21,5.84,17.05,2.37,4.84,7.75,21.4,9.66,25.75,0,0,.11.35.31.93s.46,1.34.73,2.11a15.36,15.36,0,0,1,.86,2.84c1,1.83,2.43,6.46,4,10.41.6,1.41-.3-1.09-.61-2.2l3.43,9.07c1.2,3.59,1.35,4.53-.09.68,4.4,12.17,19.13,52.87,31.58,87.25l-.12-.1,0,0,0,0h0l-.38-.27-14.37-10.29-20.18-14.37c2.72,2.23,9.67,7,12.06,9.16-6-4-8.6-6.23-11.31-7.91-1.94-2.05-12.82-9.33-16.95-13l-1.86-1L210,242.22c-26-18.2-6-4.09-28.83-20.52-13.27-9.43-19.81-13.58-27.08-19,1.09.79,3.9,3,.42.64-.42-.64-9.24-6.37-10.75-7.79-3.38-2.37-14.25-10.19-10.78-7.25-1.74-1.47-11.41-8.48-5.53-4.47-3.27-2.36-6.42-4.67-8.82-6.29l4.14,3.09c-11.09-7.87-17-12.41-24.36-17.29l4,3c-3.32-2.36-6.36-4.52-8.88-6.36l-1.78-1.32-.74-.56-.1-.11c-.12-.15-.17-.27-.14-.36l.22.13.11.06.05,0,0,0,.09.06,3.43,2.38-3.66-2.61-.51-.34c-.33-.22-.67-.44-1.11-.71l.94-.14h-.58a6.59,6.59,0,0,1,1-.13l.42,0,.24,0h.91l6.55-.06L130.4,156c22.17-.18,44.2-.37,50.8-.6l-6.08-.28,11.35-.24c-1.35,0-5.48.92-6.61.83l111.66-.13-29,21.39c-7.38,5.26-1.58.61-1.53.51-8.8,6.65-3.64,3.07-11.19,8.63-2.09,1.48.29-.49,1.43-1.38-3.29,2.47-6.41,4.66-6.58,5,4.19-3,2.65-1.4,4.53-2.51l-9.71,7.16.3-.5c-2.16,1.59-5.12,4.55-14.71,11.5l-49.71,36.72c.18-.29,3.52-2.87,6.87-5.45-2.17,1.6-5.45,4.07-7.5,5.47,4-2.7-6.68,5.15-3.57,3-11.51,9.2-27.11,20.13-37.34,28.16-.31.53-4.65,6.36-8.88,12.1s-8.32,11.42-8.15,11.66c-3.25,2.39-6.48,4.77-7.5,5.46.92-.5,7.33-5.17,10.67-7.74l.4-.69c7.73-5.85,1.93-1.2,9.53-6.85.56-.1-6.41,5.13-12.56,9.72,5.56-4.09,11.2-8,13.3-9.93,5.28-3.78-.4.68,5.95-3.89,4.43-3.37,10.16-7.93,15.4-11.61l-.07.1c12.66-9,18.9-14.47,30.47-22.72l-1.18,1c4.13-2.87,12-8.92,19.34-14.18-2.11,1.49-4,2.68.33-.58,8.47-6.08,14.09-10.43,20.33-14.81l5.73-4.55L321,145.89l-132.21.22,1.43,0-133.43.15,61.86,44.1,40.56,28.77c7.07,5.36,17.07,12.43,24.56,17.87-4.13-3.07-2.6-2.19.67.16,22.93,16.43,1.64,1,24.92,17.48l27,19.23,51,36.52c-9.14-25.16-18.61-51.22-26.64-73.35l-14.6-40.47c-5.71-14.6-12.16-33.06-17.64-47.4l.61,1.42c-2.08-5.57-7.54-20.55-14-38.25-7.87-21.67-17-46.65-24.26-66.75L176.45,86.28l.91-2.41c-5.39,15.81-5,13.54-9.52,25.9,1-1.5-3.62,12.07-5.42,17.23v-.23c-2.69,7.78-8.61,25.47-13.11,38.3l0-.58c-3.57,10.77-10.81,30.82-13.51,38.51-6.33,17.53-16.32,44.48-24.39,68.06l-6,15-.73,2.24s-1.5,27,11.06-3.48l0,.57,2.15-6.14c2.72-7.32,3.69-10.81,3.72-10.24L118,279c2.69-7.37,1-2.17.08.7,1.12-3.08,2.21-6.07,3.14-8.5.44-1.49-.46,1-.92,2.17,1.34-4,3.11-9.61,4.93-14.42,2.71-7.56.51-.36,3.67-9.18,16.72-46.52,33-91.57,49.68-138.67.47-1,0,.24-.43,1.61l7.15-20.36c1.15-3.27,2.29-6.5,3.43-9.72l1.69-4.84.21-.6.09-.25v-.09l0-.15c.14-.1.2.14.24.31a.51.51,0,0,1,0-.28s0,0,.07.08l.05.1,0,.06.2.56.48,1.29c2.54,6.94,5.34,14.59,8,21.72C205,114.86,209.48,127.09,209.65,127.57Z"/></g></svg>