<svg xmlns="http://www.w3.org/2000/svg" viewBox="0 0 385.51 385.51"><defs><style>.cls-1{fill:#2c2c2c;}</style></defs><g id="Calque_18" data-name="Calque 18"><path class="cls-1" d="M249,338.28a20,20,0,0,0-.66-3.75A16,16,0,0,0,249,338.28Z"/><path class="cls-1" d="M248.34,334.5v0Z"/><path class="cls-1" d="M112.75,94.24c.14.33.3.7.45,1.08C113.06,95,112.92,94.59,112.75,94.24Z"/><path class="cls-1" d="M227,268l-.45,0c-1.53-3,0-1.08-1.53-3.83-1.05-.84-2.28-4.66-3-5.49.05,0-.62-1.37-.42-1.36-.49-.28-.77-1.38-1.28-2.2-.23-.28,0,.27.07.54l-1.09-1.92c-.3-.82-.23-1.09.22-.27l-5.17-10.57c-3.18-4.28-6.93-9.3-10.2-13.69-3.19-4.24-5.93-7.86-7.24-9.5.3.78,1.59,2.21,1.74,3-1.16-1.19-1.41-2-2-2.43,0-.83-2.08-2.95-2.39-4.28l-.53-.19-.35-.76c-4.62-5.58-1.12-1.23-4.93-6.38-2.28-2.93-3.69-4.08-4.81-5.82.18.25.53,1-.12.29.12-.29-1.7-1.92-1.76-2.46-.6-.73-2.41-3.18-2.08-2.13-.17-.53-1.75-2.74-.65-1.55a19.82,19.82,0,0,0-1.5-1.95l.63,1c-.69-.88-1.23-1.63-1.71-2.31l-.69-1-.33-.44c-.07-.1-.07-.1-.08-.1l0,0,0,0-.23-.35c-.15-.23-.32-.45-.5-.68l.43,1.07c-.92-1.61-1.7-2.95-1.73-3.76l1,1.61c-1.5-2.69-2.42-4.3-3.84-6.44l.44.8c-1.9-2.68-10.46-17.46-12.31-19.87l.42,1.35-1.46-2.15c.14.27,1.41.64,1.45.91-2.71-4.83-16.9-29.94-19.22-34.51-.86-1.88.22-.54.27-.54-1.32-2.15-.79-.8-1.81-2.68-.24-.54.25,0,.45.26-.48-.8-.82-1.61-1-1.61.48,1.08-.07.81,0,1.36l-1.31-2.42h.26a14.94,14.94,0,0,1-2.49-3.49c-.41-.76-.83-1.53-1.26-2.34l-4.06-10.17a6.57,6.57,0,0,1,1,1.74,16.48,16.48,0,0,1-.72-2c.19,1.12-.87-1.72-.63-.88-1.76-2.91-2.92-7.13-4.37-9.74-.55-.06-10.14-2.76-10.67-2.54-.34-.86-.67-1.71-.73-2a12.17,12.17,0,0,0,1,2.84l.35,0c.92,2,0,.55.84,2.55-.19.2-1-1.62-1.66-3.24.56,1.48,1,3,1.48,3.49.45,1.41-.35,0,.21,1.66a27.52,27.52,0,0,1,1.8,4h0c1.08,3.38,2.38,4.88,3.35,8l-.21-.3c.29,1.12,1.32,3.14,1.94,5.11-.17-.56-.19-1.1.3,0s.72,2,1,2.82l.47,1.21c.17.51.35,1,.53,1.53l.14.3.23.34.13.17.25.33.52.67c4,7.26,20.13,35.65,24.2,42.89l-.2-.26c4.14,7.34,11.14,19.79,17.22,30.59l5.9,7.63,4.77,6.05c1,1.76,2.75,3.95,4,5.67-.63-1-.25-.78.29,0,3.87,5.15.4.25,4.41,5.37,1.69,2.09,5,6.4,8.67,11.3l5.7,7.6c1.8,2.44,3.57,4.82,5.15,7l2.42,5,1.72,3.63c1.93,3,3.69,7.13,5.47,10.15l-.24-.27c.83,1.5,3.21,6.32,5.75,11.45l3.74,7.58,2.69,5.36.31,1.09-.1-.58c1.17,3.63.66,3.22,1.3,6.16.29-.48,1.33,2.62,1.68,3.81l-.1,0c.54,1.8,1.94,5.83,2.78,8.81l-.25-.06c.88,2.44,2,7.17,2.5,9,1,4.14,2.25,10.58,4,16l.31,3.71.2.51s8.87,3.8,8.56-3.87l.24.06-.4-1.43c-.34-1.75-.8-2.48-.55-2.42l.58,2.37c-.38-1.75,0-.57.34.06-.17-.73-.33-1.44-.41-2-.17-.32,0,.27,0,.56a20.59,20.59,0,0,1-1.05-3.32c-.44-1.78.32-.2-.2-2.28-2.66-11-5.16-21.58-8.07-32.59,0-.28.1,0,.22.33-.34-1.23-.67-2.4-1-3.55l-1.07-4-.84-1.62-.57-1.07a4,4,0,0,1-.32-1.36c0,.27-1.95-3.56-4-7.49-1-2-2-4-2.77-5.48S227,268.06,227,268Z"/><polygon class="cls-1" points="118.01 99.7 106.58 79.45 101.68 53.38 112.07 36.09 131.05 41.52 129.31 76.81 118.01 99.7"/><path class="cls-1" d="M122,96.86a5.94,5.94,0,0,0-.73-1.92A4.74,4.74,0,0,0,122,96.86Z"/><polygon class="cls-1" points="121.21 94.93 121.2 94.92 121.22 94.94 121.21 94.93"/><path class="cls-1" d="M123.34,101.71l.26-.57A3.68,3.68,0,0,0,123.34,101.71Z"/><path class="cls-1" d="M109.33,62.51l-.41,0c-.34-1.77.35-.6-.06-2.22-.67-.53-.45-2.73-.85-3.24,0,0-.09-.8.09-.78-.35-.19-.22-.81-.4-1.3-.11-.17-.06.15-.13.3l-.16-.57c0-.07,0,0-.07-.08a.39.39,0,0,1,.31,0l0-.09.1-.06,1.3-2.08,3.07-4.92,2.64-4.31s0,0,0-.07c-.13-.23-.06-.06-.31-.33-.09-.26.1,0,0-.28a.9.9,0,0,0,.19.28c0,.08.1.06.17.43,0-.11,0-.22,0-.33l0,.21a.3.3,0,0,1,.07-.15s0,0,0,0l.15,0a19.2,19.2,0,0,0,1.88.65c1.92.5,2.94.35,4,.8-.16,0-.53-.35,0-.28,0,.28,1.36.19,1.53.52.49.1,2,.58,1.62.08a4.17,4.17,0,0,0,.77.44c.14.08.21.13.18.15s0,0,0,0h-.22l.18.05,0,0,0,0s0,0,.08,0a.76.76,0,0,0,0-.11c.27,0,.12.27.55,0a1,1,0,0,0,0-.14c.08,0,.17,0,.2.06a.9.9,0,0,1-.33.34.17.17,0,0,0-.1,0h0c0,.16,0,.21.21.37l0-.07c.22-.73.22,2.58.27,5.17a51.32,51.32,0,0,0,.29,6.2l.32-.73.17,1.39c0-.16-.89-.71-.79-.84-.05,1.3-.19,5-.35,9-.08,2-.17,4-.25,5.9,0,.92-.09,1.8-.13,2.59,0,.32,0,.63,0,.92,0,.1,0,.2,0,.28l-.13.22-.06.08-.12.21c-.63.92-.49,0-.53,0-.5,1.25,0,.65-.51,1.66-.18.26-.17-.15-.13-.33-.19.46-.48.84-.38.93.37-.52.56-.12.89-.26l-.68,1.3-.17-.15a4.62,4.62,0,0,1-.57,2.25c-1.16,2.13-2.26,4.54-3.39,6.71-.1-.1.06-.59.21-1.09a4.46,4.46,0,0,1-.56,1c.48-.42-.31,1,0,.62-.3,1.85-1.77,3.71-2.14,5.29.37.34,6,6.74,6.53,7a8.16,8.16,0,0,1-.56,1,3.55,3.55,0,0,0,.82-1.39l-.24-.21c.42-1.11.29-.17.78-1.21.25.06-.17,1-.56,1.88.4-.74.94-1.41.84-1.84.44-.66.24.22.76-.59a7.86,7.86,0,0,1,.88-2.18l0,0c1.08-1.58.94-2.76,1.94-4.2v.21c.4-.48.76-1.65,1.39-2.57-.19.26-.48.42-.21-.18.71-1.07.94-1.92,1.53-2.66l.17-.91,1.27-2.56c.68-1.42,1.56-3.22,2.64-5.45.21-6.18.55-16.35.67-19.66l0,.17c.08-2,.18-4.76.29-7.73.18-4.26.38-8.9.56-13.32L131,36.21l-4.16-1.13c-1.74-.45-3.33-.85-4.66-1.16a25.28,25.28,0,0,0-3.48-1.27c.57.27.32.38-.15.24-.64-.19-1.73-.5-2.08-.58s-.47-.09-.53-.08-.24.07-3.18-.71l-2.8-.75-4.19,7-3,4.9-6.14,9.77c.13.8.21,1.32.28,1.74s.25.85.36,1.29.19.78.28,1.18.23,1,.33,1.55a28.16,28.16,0,0,0,.68,3l-.12-.17c.5,1.95,2.27,13.16,2.83,15.43v-.32A5.33,5.33,0,0,1,101.6,78c0,.2,0,.39,0,.62s0,.25,0,.4a1.93,1.93,0,0,0,0,.24v.14c0,.08,0,.17,0,.26.17-.24.47.48.75,1.34.48.65,1.08,1.59,1.17,1.72l-.09,0c.55.83,2,2.64,2.83,4l-.22,0a41.73,41.73,0,0,1,2.58,4.25,63.12,63.12,0,0,0,4.16,7.75l.41,2,.2.22s8.19-1,7.64-5.29l.22,0-.41-.68c-.37-.88-.81-1.13-.59-1.19L120.9,95c-.41-.86,0-.34.3-.08a9.24,9.24,0,0,1-.44-1c-.16-.12,0,.17,0,.32a6.24,6.24,0,0,1-1.07-1.52c-.46-.87.28-.24-.26-1.24-1.3-2.5-2.6-5-3.89-7.42-.65-1.23-1.31-2.46-2-3.69-.52-1-1-1.91-1.59-2.88v0h0l0-.13c0-.08.06-.08.08,0a.36.36,0,0,1,0,.09l0,.06h0s0-.05,0-.11l0-.16L112,76.8c0-.22-.09-.43-.14-.65-.09-.42-.18-.84-.26-1.25-.18-.83-.34-1.64-.55-2.45a1.69,1.69,0,0,1,.19-.77,36.79,36.79,0,0,1-1-4.41l-.61-3.22C109.43,63.16,109.32,62.55,109.33,62.51Z"/><path class="cls-1" d="M154.25,169.91l6.57-33.8,12.51-30L196,94.94l11.09,16.67-29.92,41.51S161.49,165.84,154.25,169.91Z"/><path class="cls-1" d="M159.12,170.15a9.16,9.16,0,0,0,.79-2.48A7.62,7.62,0,0,0,159.12,170.15Z"/><path class="cls-1" d="M159.92,167.65h0v0Z"/><path class="cls-1" d="M157.73,174.43l.77-.48C158.24,174.1,158,174.26,157.73,174.43Z"/><path class="cls-1" d="M172.26,123.82l-.31-.29c.88-2.12.68-.44,1.4-2.44-.2-1,1.41-3.23,1.42-4,0,0,.45-.92.59-.79-.16-.41.34-1,.52-1.65,0-.25-.15.13-.3.26l.48-1.43c.31-.51.53-.57.32,0l.91-2,.3-.69c0-.11.11-.23.16-.35v0l.06-.05h.09l0,0,.16-.08.34-.16,2.77-1.31,5.66-2.72,5-2.42,1.91-1,.13-.07h0v0c0-.11,0-.12-.09-.15h0l-.14,0a1.86,1.86,0,0,1-.31.1,1.25,1.25,0,0,1-.53,0c1.17-.8.85-.33.92-.61.1.25.13.27.17.29s.08,0,0,.38c0-.13.05-.26.08-.39l0,.2v0c.09-.14.16-.12.15-.11l0,.06v.07s-.05,0,.15.26c1.44,2.07,2.46,2.84,3.1,4.09-.11-.17-.26-.74.17-.24-.17.24,1.12,1.34,1.07,1.76.38.51,1.5,2.26,1.42,1.47a6.38,6.38,0,0,0,.42,1l.06.12a0,0,0,0,0,0,0l0,0a.05.05,0,0,1,0,0s0,0-.13-.08l.06.09v.09a.12.12,0,0,0,.09.06.5.5,0,0,0,0-.13c.15.16.08.29.18.37s0,.08.09.15l.23-.08a.4.4,0,0,1-.56.24.61.61,0,0,0,0-.15l-.08.12,0,.06s0,0,0,0l-.09.13-.16.25c-.44.66-.84,1.3-1.27,2.06l.37-.5c-1,2-7.54,11.61-8.37,13.54l.78-.6-.83,1.56c.12-.16-.25-1.22-.08-1.31-2.18,3.07-13.46,19.1-15.65,21.81-.95,1-.51-.06-.54-.1a3.31,3.31,0,0,0-.54,1.07c0,.06.05.13-.08.25s-.13-.18-.14-.23-.12.09-.17.13l-.15.13s-.07.1-.06.13c.18-.11.3-.15.33-.11a.65.65,0,0,1,.15.1,1.12,1.12,0,0,0,.33.24l-1.23.94-.07-.22a7.26,7.26,0,0,1-1.94,2.16c-2.48,1.82-5.07,3.92-7.56,5.72,0-.13.43-.58.9-1a8.17,8.17,0,0,1-1.18.8c.74-.26-.94.89-.41.63-1.49,1.78-4.13,3.07-5.53,4.48.07.25.4,2.56.66,4.92s.43,4.73.56,5a12.71,12.71,0,0,1-1.43.77,6.68,6.68,0,0,0,2-1.07l-.07-.33c1.3-1,.44,0,1.73-.92.22.17-1,1-2.06,1.71,1-.59,2.09-1.06,2.31-1.55.94-.51.07.32,1.19-.3a14.54,14.54,0,0,1,2.46-1.92v0c2.18-1.23,2.85-2.53,4.79-3.67l-.14.22c.73-.36,1.85-1.46,3.08-2.2-.35.21-.75.27-.09-.27,1.4-.87,2.18-1.68,3.25-2.26l.75-.91,2.24-1.76,1.47-1.2,1.36-1.1a7.47,7.47,0,0,0,.62-.83l.49-.69,5.71-8.11,9.63-13.7-.1.2c3.79-5.33,10.2-14.38,15.76-22.21l-3.35-5-2.16-3.14-3-4.25a16.34,16.34,0,0,0-1.13-2c-.67-1-1.34-2.11-1.93-3,.75,1.3.33,1-.28,0-4-6-1.07-1.36-3.86-5.36l-1.52.79-3,1.52-3.92,2-5.77,2.83-13.72,6.57c-.69,1.59-1.3,3-1.83,4.21l-.81,1.77c-.6,2.38-2,5.07-2.72,7.36v-.26c-.43,1.21-2.11,5.11-3.81,9.07l-2.42,5.63c-.35.84-.66,1.59-.93,2.22l-.73,1.83.32-.64-.33.91c-.07.42-.13.79-.19,1.11a4.53,4.53,0,0,1-.11.49,6.16,6.16,0,0,1-.23.72,10.36,10.36,0,0,0-.6,1.73c.45-.19.25,2,.12,2.87l-.08,0c-.18,1.27-.38,4.17-.73,6.25l-.2-.12c-.1,1.77-.83,5-1.05,6.23A105,105,0,0,0,151,165l-1.09,2.33v.37s6.72,5.4,9.29.71l.2.12.17-1c.34-1.16.19-1.76.39-1.64l-.34,1.62c.29-1.18.25-.32.28.16a12.86,12.86,0,0,1,.38-1.36c0-.25-.12.15-.2.33a9,9,0,0,1,.27-2.35c.25-1.22.36,0,.66-1.43,1.63-7.49,3.3-14.72,4.73-22.33.12-.16.08.05.08.28.17-1.06.33-2,.49-3,0,0,0,0,0,0s0,0,0-.12l.27-.68.51-1.35a2.1,2.1,0,0,1,.65-.73,56.58,56.58,0,0,1,2.07-5.38l1.59-3.85C171.92,124.58,172.23,123.86,172.26,123.82Z"/><path class="cls-1" d="M133.64,130,120,122.42,95.77,114l-20.71,6.16,8.06,19.73,25.77,1.36S125.58,136,133.64,130Z"/><path class="cls-1" d="M135.56,125.58a4.83,4.83,0,0,0-1.47-1.16A4.12,4.12,0,0,0,135.56,125.58Z"/><polygon class="cls-1" points="134.08 124.41 134.07 124.41 134.09 124.42 134.08 124.41"/><path class="cls-1" d="M129.94,125.72l-.38.28A2.47,2.47,0,0,0,129.94,125.72Z"/><path class="cls-1" d="M102.77,110.23l-.23.34c-1.55-.53-.3-.58-1.76-1a1.11,1.11,0,0,1-.7,0,3.84,3.84,0,0,1-.41-.13l-.62-.24a13.11,13.11,0,0,0-2.72-.93,1.9,1.9,0,0,0-.43-.2c-.38.08-.89.18-.84,0-.41.44-1.42.5-2.29.84-.29.17.26,0,.51,0l-.94.34-.5.2c-.43,0-.59-.12-.16-.28-1.33.34-5.11,1.37-9,2.44l-2.86.81L74.71,114c-3.3,1-6,1.8-7.59,2.3.12.27.18.41.23.55a1.69,1.69,0,0,0-.08-.48,14.14,14.14,0,0,1,3-.54c-1,.5-2,.58-2.42.81l.19.3c-.49.23,1.09,3,.88,4l.53.5.08.68c1.49,3.24,1.67,3.56,1.77,3.84l.24.69c.14.38.38,1,.84,2.23.73,1.66,1.45,2.29,1.68,3.28-.05-.14,0-.58.22-.18-.22.18.65,1.08.48,1.4.21.41.74,1.8.89,1.19-.08.3.35,1.56-.09.89a4.77,4.77,0,0,0,.47,1.1l-.13-.56a17.59,17.59,0,0,1,.65,1.73c.1.27.16.41.31.74a10.32,10.32,0,0,0,.64,1.18l-.25-1a10.38,10.38,0,0,1,1.14,3.63l-.75-1.55c.72,1.76,1.26,3.06,1.85,4.31l2.23,0-.82-.05c.79,0,2.34-.06,4.21,0h1.47l.91,0,1.82,0a43.93,43.93,0,0,0,5.66-.3l-.66-.32,1.27-.17c-.15,0-.65.88-.77.78l9.67.41,3.07.14,1.22.06.61,0a2.94,2.94,0,0,0,.58-.16l1.85-.6c1.67-.55,3-1,3.59-1.17,1-.21.33.36.33.4,1.15-.52.41-.47,1.42-.81.29-.06,0,.23-.12.32.43-.19.87-.25.86-.39-.59.11-.48-.31-.79-.43l1.29-.46,0,.23c.28-.11.5-.84,1.8-1.23,2.15-.75,4.4-1.81,6.52-2.75,0,.13-.38.42-.79.69a4.75,4.75,0,0,1,1-.4c-.61,0,.81-.56.37-.46,1.3-1.2,3.5-1.81,4.66-2.89-.06-.24-.39-2.5-.89-4.66a25.46,25.46,0,0,0-1.34-4.52,3.42,3.42,0,0,1,.75-.42c-.17-.06-.8.29-1.07.58l.11.3c-.69.6-.27,0-1,.46-.19-.19.54-.67,1.07-1.09-.52.34-1.19.52-1.28.9-.58.23-.1-.3-.79,0a4.89,4.89,0,0,1-1.58,1.09v0c-1.51.5-2,1.46-3.43,1.86l.11-.15c-.52.1-1.39.7-2.32.94.27-.06.56,0,0,.27-1.07.29-1.71.73-2.53.86l-.62.52-4.37,1.71-3.08,1.15-1.48.54a.3.3,0,0,1-.15.05l-11.8-.42.16,0L90.55,135l-3.38-.15h-.51l-.22-.41c-.39-.9-.77-1.78-1.13-2.63-.83-1.9-1.6-3.62-2.25-5a9.22,9.22,0,0,0-.45-1.62c-.11-.28-.21-.56-.31-.83a.28.28,0,0,1,0-.16c-.07.11-.24.15-.26.06-.21-.57-.18,0-.57-.67a3.4,3.4,0,0,1-.32-.57c.29-.11.7-.23,1.12-.34l3.87-1.08c3.47-1,6.65-1.81,8-2.12.22-.12.45-.22.69-.33l.37-.14.11,0,0,0a2.13,2.13,0,0,1,.35-.14l.28.08h.14l.21,0,.28.06-.19,0c1.77.47,11.43,4.21,13.48,4.78l-.26-.14c1.83.4,1.46.69,2.79,1.29,0-.45,1.53-.14,2.11,0l0,.08,3.94.88.05,0-.11.19a.48.48,0,0,1,.23,0l.54.25c.37.18.76.39,1.14.59l1.86,1a54.53,54.53,0,0,0,6.91,4.06l1.26,1.42.25.07s6.23-5.26,3.83-8.46l.16-.16-.64-.33c-.7-.52-1.18-.49-1-.65l1,.6c-.73-.48-.14-.29.21-.24a6.2,6.2,0,0,1-.82-.59c-.19,0,.07.15.16.25a5,5,0,0,1-1.56-.66c-.77-.45.12-.34-.77-.87L126.89,120l-2.09-1.25-1-.63-1.47-.85-3.53-1.3-3.12-1.1c-.09-.12,0-.07.22-.06-1.61-.46-3-1-4.47-1.39a1.29,1.29,0,0,1-.51-.53,28.07,28.07,0,0,1-3.95-1.2l-2.82-1C103.33,110.45,102.8,110.25,102.77,110.23Z"/><path class="cls-1" d="M241,303.82l15.06-4.28,23.1-11.13,10.28-19-19.65-8.25-19.18,17.26S242.53,293.91,241,303.82Z"/><path class="cls-1" d="M242.83,308.33a4.76,4.76,0,0,0,1.86-.21A4,4,0,0,0,242.83,308.33Z"/><polygon class="cls-1" points="244.71 308.12 244.72 308.11 244.69 308.12 244.71 308.12"/><path class="cls-1" d="M246.71,304.26c0-.15,0-.3.07-.47A3.81,3.81,0,0,0,246.71,304.26Z"/><path class="cls-1" d="M276.87,296l-.08-.4c1.48-.72.63.2,2-.55a1.07,1.07,0,0,1,.48-.49,3.55,3.55,0,0,1,.39-.2l.6-.26a13.7,13.7,0,0,0,2.59-1.27,4,4,0,0,0,.44-.16c.22-.33.5-.76.56-.64,0-.6.65-1.35,1-2.21.08-.33-.2.17-.39.33l.43-.9.2-.5c.29-.32.5-.33.31.09.7-1.18,2.65-4.58,4.61-8.06l1.45-2.59c.91-1.65,1.78-3.24,2.58-4.71,1.65-3,3-5.54,3.75-7l-.56-.22a1.94,1.94,0,0,0,.4.27,13.66,13.66,0,0,1-1.73,2.49c.39-1.09,1-1.79,1.14-2.28l-.34-.08c.18-.51-2.9-1.36-3.42-2.17l-.73,0-.54-.43c-3.34-1.24-3.69-1.34-4-1.47l-.66-.32-2.17-1c-1.69-.66-2.64-.6-3.51-1.13.14.06.43.39,0,.28,0-.28-1.22-.3-1.32-.64-.44-.15-1.79-.76-1.47-.22-.17-.27-1.36-.85-.57-.69a4.38,4.38,0,0,0-1.11-.45l.49.31A18.07,18.07,0,0,1,276,258a7,7,0,0,0-.74-.3,10.69,10.69,0,0,0-1.29-.38l.9.54a10.36,10.36,0,0,1-3.37-1.76l1.63.56c-1.76-.73-3.06-1.26-4.35-1.73-.51.5-1,1-1.57,1.59l.62-.54c-.52.6-1.61,1.69-2.95,3l-1,1-.63.65L261.94,262a43.83,43.83,0,0,0-3.79,4.21l.69-.24-.77,1c.11-.1-.17-1.09,0-1.11l-7.13,6.56-2.26,2.07-.92.82-.45.41a2.7,2.7,0,0,0-.3.52l-.88,1.74c-.79,1.57-1.39,2.8-1.71,3.36-.58.87-.48,0-.52-.05-.44,1.19,0,.62-.42,1.58-.17.25-.18-.15-.15-.31-.16.44-.43.79-.33.88.34-.49.55-.12.87-.25l-.6,1.24-.17-.15a4.37,4.37,0,0,1-.41,2.15c-1,2.05-1.83,4.39-2.67,6.55-.11-.07,0-.56.08-1.05a5.19,5.19,0,0,1-.43,1c.41-.45-.18,1,.06.59-.07,1.77-1.19,3.76-1.25,5.34.21.13,2.05,1.49,3.92,2.67a24.87,24.87,0,0,0,4.15,2.24,3.76,3.76,0,0,1-.23.83,2,2,0,0,0,.34-1.17l-.29-.13c.07-.91.22-.17.41-1.06.26,0,.09.86,0,1.53.13-.6.47-1.21.27-1.53.25-.59.28.14.56-.57a5,5,0,0,1,.35-1.88l0,0c.71-1.42.37-2.43,1.11-3.74l0,.18c.3-.44.49-1.47,1-2.3-.15.23-.4.38-.23-.16.55-1,.69-1.72,1.18-2.39l.07-.81,1.88-4.3,1.36-3c.23-.47.45-.95.68-1.43a.27.27,0,0,1,.07-.14l8.63-8.05-.09.14,4.33-4,2.49-2.29.35-.37.45.14,2.66,1.05c1.93.76,3.7,1.44,5.14,1.95a7.76,7.76,0,0,0,1.46.83l.8.36a.31.31,0,0,1,.13.1c0-.13.07-.27.15-.23.54.26.11-.14.87.07a3.73,3.73,0,0,1,.63.19c-.13.27-.33.64-.55,1l-2,3.5c-1.77,3.13-3.42,6-4.15,7.13-.07.24-.16.48-.26.73l-.15.36a.3.3,0,0,0,0,.11l0,0a1.54,1.54,0,0,1-.15.35,2,2,0,0,0-.25.14l-.11.09-.19.12-.24.15.12-.15c-1.59.91-11.05,5.1-12.91,6.14l.28-.08c-1.57,1-1.52.54-2.89,1.07.35.28-1,1.17-1.51,1.46l0-.09-3.41,2.17-.05,0,0-.22a.39.39,0,0,1-.2.14l-.55.2c-.39.14-.81.27-1.23.39l-2,.59a52.24,52.24,0,0,0-7.76,2l-1.89-.12-.23.13s-.68,8.13,3.28,8.7V308l.69-.22c.86-.13,1.17-.49,1.18-.26l-1.15.3c.85-.18.3.1,0,.31a5.63,5.63,0,0,1,1-.16c.15-.13-.14-.06-.29-.06a4.77,4.77,0,0,1,1.58-.64c.86-.23.15.33,1.16.06l4.75-1.17,2.36-.59,1.18-.3,1.64-.43,3.41-1.58,3-1.43c.16,0,0,.09-.11.2,1.46-.81,2.82-1.43,4.14-2.18a1.38,1.38,0,0,1,.74,0,30,30,0,0,1,3.64-1.93l2.68-1.31C276.32,296.24,276.83,296,276.87,296Z"/><path class="cls-1" d="M204.12,238.44l.57-28.42,13.17-29,17.65-10.55L251,184.83,239.16,208.6l-17.7,19.85S209.73,237,204.12,238.44Z"/><path class="cls-1" d="M209,237.9a7.82,7.82,0,0,0,.35-2.35A6.33,6.33,0,0,0,209,237.9Z"/><path class="cls-1" d="M209.31,235.53h0v0Z"/><path class="cls-1" d="M206.44,243.64a9,9,0,0,0,1-.34Z"/><path class="cls-1" d="M217.2,196.55l-.31-.29c.87-1.91.67-.36,1.38-2.17-.2-.93,1.39-2.91,1.39-3.65,0,0,.44-.82.58-.69-.16-.4.34-.92.51-1.5,0-.23-.14.11-.3.21l.47-1.29c.31-.45.53-.49.32.05l.75-1.54.25-.52,0-.11h0l.05,0h.06l.06,0,.59-.34,2.49-1.43,5.19-3,3.95-2.32a.15.15,0,0,0,0-.07c0-.27,0-.08-.11-.45.06-.27.11,0,.16-.26v.25c0,.27.13.14-.06.57l.15-.27a.89.89,0,0,1-.08.17l.05,0s0,0,0,0l.22.17.61.48a3.74,3.74,0,0,1,.44.37,22.29,22.29,0,0,0,1.63,1.65c1.72,1.54,2.81,2,3.65,3-.14-.14-.38-.62.11-.27-.11.27,1.29.94,1.32,1.34.23.18.68.6,1.05.89l.26.18c.08.05.06,0,.09,0a.32.32,0,0,0,.14-.16c-.07.18,0,.37-.21.38,0,0,0,.11.14.1a.38.38,0,0,0,0-.1c.14.08.13.18.18.24s0,.1.09.18l.21-.11c-.05.17-.12.36-.5.3a.58.58,0,0,0-.05-.14.61.61,0,0,0-.05.12v.09l-.1.24c-.3.66-.56,1.3-.83,2.05l.27-.5c-.58,2-5.05,11.6-5.48,13.48l.64-.65-.51,1.55c.09-.17-.47-1.11-.32-1.21l-2.31,4.76-6.86,7.8c-2.36,2.67-4.38,4.91-5.19,5.71-1,.85-.49-.13-.51-.17-1,1.24-.22.71-1.13,1.68-.27.24-.11-.2,0-.38-.36.45-.79.79-.72.91.56-.47.62,0,1-.09L221,222.89l-.11-.21a6.17,6.17,0,0,1-1.4,2.3c-.17.19-.35.37-.53.56a1,1,0,0,1-.16.12l-.27.18-1.76,1.22c-1.19.82-2.39,1.63-3.56,2.35,0-.14.41-.52.85-.9a5.35,5.35,0,0,1-1.11.63c.69-.16-.89.76-.39.56-1.42,1.55-3.91,2.44-5.24,3.55a45.48,45.48,0,0,1,.2,4.85c0,2.34-.37,4.73-.26,5a14.18,14.18,0,0,1-1.78.5,6.53,6.53,0,0,0,2.44-.71v-.33c1.51-.75.44,0,1.87-.65.18.19-1.05.86-2.38,1.38,1.2-.42,2.3-.74,2.6-1.19,1-.37.05.34,1.21-.13a16.85,16.85,0,0,1,2.57-1.59v.05c2.19-1,2.88-2.17,4.79-3.08l-.14.2c.7-.28,1.82-1.24,3-1.86-.35.17-.72.2-.08-.27a17.76,17.76,0,0,0,1.7-1.06l.72-.48.94-.56a5.44,5.44,0,0,0,.72-.72l.58-.83c1.53-1.7,4.72-5.35,8.12-9.26l9.45-10.92c1.37-2.8,1.94-3.95,2.33-4.76l-.05.2,11.42-23.36-6.85-6.22c-1.26-1.1-2.41-2.11-3.41-3a32.25,32.25,0,0,0-3-3.11c.47.57.17.52-.24.13-1.46-1.37-1.54-1.38-1.63-1.39a.24.24,0,0,1-.1,0l-.09,0-.23-.19c-.39-.32-1.09-.92-2.41-2.11l-3.26-2.94-6.87,4.13-4.76,2.81-10.29,5.94-1.52,3.2-.64,1.29c-.59,2.17-2,4.58-2.67,6.65v-.23c-.84,2.18-6.6,14.07-7.6,16.6l.19-.31a7,7,0,0,1-.84,1.86c-.06.1-.1.14-.2.29l-.3.5c-.22.36-.46.78-.77,1.38l-.05.65c.21-.19.35.67.44,1.62a11.33,11.33,0,0,1,.16,1.66l-.08,0c0,1.17.34,3.82.35,5.74l-.22-.08a53.9,53.9,0,0,1,.05,5.78,86.27,86.27,0,0,0-.39,10.23l-.68,2.27.05.33s7.56,3.83,9.28-.8l.22.08v-.92c.13-1.1-.12-1.62.1-1.54l-.05,1.51c.08-1.11.18-.33.3.1a10.65,10.65,0,0,1,.14-1.28c-.08-.22-.09.16-.14.33a7.94,7.94,0,0,1-.14-2.16c0-1.14.36-.07.41-1.39.16-3.5.32-6.94.48-10.4.07-1.72.13-3.45.2-5.19,0-.87,0-1.74.07-2.62l0-1.31v-.19h.08l0,0h0s0,0,0,0-.05.06.09-.25.38-.88.57-1.31c.37-.86.74-1.71,1.08-2.57a1.81,1.81,0,0,1,.64-.63,45.29,45.29,0,0,1,2-4.86l1.56-3.48C216.87,197.24,217.17,196.59,217.2,196.55Z"/><path class="cls-1" d="M179.23,206.26l-18.7-8.12-25.31-7.08-15.36.26-10.4,15.57,10,17.13,19.21,1.43,22.66-7.22S176.39,209.82,179.23,206.26Z"/><path class="cls-1" d="M180.6,201.59a7,7,0,0,0-1.92-1.16A6,6,0,0,0,180.6,201.59Z"/><polygon class="cls-1" points="178.67 200.42 178.66 200.41 178.68 200.43 178.67 200.42"/><path class="cls-1" d="M174.68,202.84l0,.07-.16.15.16-.14Z"/><path class="cls-1" d="M140.11,186.37l-.23.35c-1.91-.53-.43-.59-2.22-1a5.35,5.35,0,0,1-1.72-.23c-.47,0-1,0-1.5,0h-.5l-.39,0a3,3,0,0,0-1.18.09c0-.05-.88-.05-.83-.23-.27.32-.92.09-1.48.18-.21.09.15.09.3.18l-1.29.13c-.51-.09-.63-.27-.09-.31l-3.6,0h-2.82l-5.86.05c-2.16,3.16-4.45,6.53-6.41,9.41-1.42,2.11-2.59,3.87-3.14,4.77.46-.26.95-1.28,1.49-1.43-.36.91-.85,1.13-.9,1.61a.7.7,0,0,0-.49.27,2.26,2.26,0,0,0-.25.28l-.13.16-.22.31a12,12,0,0,1-2,2.41v.54l-.72.74c-.54.87-1,1.55-1.28,2.09,2.44,3.82.22.26,3.41,5.86.12.2.24.4.36.58l.2.31.39.55.69.91a6.73,6.73,0,0,1,1,1.55c-.09-.15-.17-.66.18-.22-.18.22.92,1.2.83,1.57.3.46,1.17,2,1.19,1.32,0,.35.73,1.76.11,1a7.79,7.79,0,0,0,.75,1.23l-.26-.64c.48.77.78,1.4,1.08,1.95a7.08,7.08,0,0,0,.45.77c.18.26.29.36.69.88-.07-.18-.19-.42-.23-.54l-.1-.32c.19.33.38.64.56.94s.43.75.61,1.09a6.12,6.12,0,0,1,.68,1.76l-1.15-1.74c.84,1.43,1.52,2.58,2.17,3.63,1.36.07,2.64.11,4.1.12l-1-.08,8.24.08a64.61,64.61,0,0,0,6.81-.09l-.79-.34,1.53-.13c-.18,0-.8.86-.94.76l5,.33,11.19-3.66c3.51-1.13,6.56-2.08,7.68-2.36s.34.36.34.4c1.38-.54.52-.47,1.72-.83.34-.06,0,.23-.17.33.51-.2,1-.26,1-.4-.68.11-.51-.31-.86-.44l1.55-.46v.23a.74.74,0,0,0,.27-.18,1.45,1.45,0,0,1,.25-.17l.38-.23a7.84,7.84,0,0,0,.93-.64,8,8,0,0,1,1-.6c2.4-1.26,4.89-2.83,7.25-4.24,0,.14-.42.51-.87.88a6.81,6.81,0,0,1,1.12-.61c-.69.15.89-.74.4-.55,1.41-1.53,3.87-2.56,5.16-3.94-.09-.25-.49-2.52-1.11-4.73a15.51,15.51,0,0,0-1.77-4.4c.19-.14.17-.17.24-.21L175,203s0,0,0,0l.47.34-.51-.37h-.07a.21.21,0,0,0-.13,0,.34.34,0,0,0-.06.06l-.14.12a1.7,1.7,0,0,0-.23.24l.16.28c-.68.72-.29,0-1.08.67-.23-.16.6-.85,1-1.29-.43.36-1.2.72-1.26,1.12-.66.37-.11-.3-.92.16a6.78,6.78,0,0,1-1.81,1.49v0c-1.77.86-2.31,2-4,2.73l.12-.18c-.63.22-1.61,1.06-2.71,1.53.32-.13.66-.12.07.27-1.24.56-2,1.17-2.92,1.5l-.7.69-1.26.72-2.29.75-7,2.32-7.21,2.42-3.1,1-1.31.44-.14.07h-.14l-.81-.05-1-.07.2,0-7.44-.47-4.43-.3-1.14-.07-.34,0h-.4l-.16-.23-.08-.11,0,0-.12-.2-.24-.41L120,215c-1.23-2-2.36-3.83-3.31-5.3a11.39,11.39,0,0,0-.85-1.83l-.12-.24a.15.15,0,0,1,0-.05l0-.08c0-.05,0-.09,0-.14-.05.12-.23.15-.27.06s-.18-.29-.24-.32-.24.06,0-.43c0-.07.07-.16.13-.27l0-.09.21-.33.46-.72,2.27-3.42,2.67-3.94.69-1,.29-.41.09-.12c.11-.15.22-.3.34-.44l.63,0s.53,0,.91,0H125c1.47,0,2.66,0,3.39.06a20.37,20.37,0,0,1,3.39-.26l1.73-.05.83,0a.79.79,0,0,0,.23-.07l-.06.09.08,0,.14,0,.56.15,1.95.55,4.89,1.43c3.43,1,6.84,2,8.05,2.29l-.32-.14c2.21.38,1.81.68,3.47,1.27-.12-.45,1.79-.16,2.5,0l-.05.08c.38.08.93.18,1.57.28l1,.17.53.09.13,0h.14l.18,0,.41.15.78.29-.15.18a48.83,48.83,0,0,1,5.06,2,78.27,78.27,0,0,0,8.78,4L176,210l.31.07s6.21-5.62,2.83-8.86l.15-.18-.81-.32c-.91-.51-1.45-.47-1.3-.64l1.3.59c-.94-.47-.22-.29.2-.25a9.54,9.54,0,0,1-1.07-.58c-.22,0,.11.14.24.25a7.11,7.11,0,0,1-1.94-.64c-1-.45.08-.36-1.06-.88l-6-2.82-3-1.4-3.37-1.54-3.42-1-3.08-.86c-.13-.13,0-.08.24-.07-2-.45-3.67-1-5.45-1.36A1.69,1.69,0,0,1,150,189a41.05,41.05,0,0,1-4.82-1.18l-3.47-.95C140.8,186.59,140.14,186.39,140.11,186.37Z"/><path class="cls-1" d="M224.44,279.46,195.2,268l-26.65-2.65-21.47,14.29,8.06,21.85,28.9-.71S213.71,290.08,224.44,279.46Z"/><path class="cls-1" d="M225.6,274.73a8.23,8.23,0,0,0-2.18-1.18A7.18,7.18,0,0,0,225.6,274.73Z"/><path class="cls-1" d="M223.41,273.53h0l0,0Z"/><path class="cls-1" d="M220,275.81l-.46.42A4.58,4.58,0,0,0,220,275.81Z"/><path class="cls-1" d="M179.64,260.54l-.18.39c-2.17-.21-.58-.52-2.6-.62-.84.48-3.33-.39-4.05-.16,0,0-1-.16-.88-.33-.17.14-.4.13-.73.09-.56-.07-1.21-.17-1.81-.19-.43,0,.33.12.65.25l-2.69-.16-.18,0c-.77.39-1,.34-.08-.3h0l-12.38,8-6.49,4.23-4.6,3.07-3.43,2.33c1.11-.46,3-1.89,4.06-2.18-1.48,1.24-2.56,1.62-3.06,2.21a3.5,3.5,0,0,0-.81.29c.21,1.2,1.38,3.8,1.35,5l.53.54.17,1c.22.53.41,1,.59,1.43.08.22.16.41.24.6s.09.19.12.28l.34.73a5.19,5.19,0,0,1,.24.56,23.86,23.86,0,0,0,.73,2.29c.87,2.23,1.66,3.15,2,4.45-.07-.18-.07-.74.21-.19-.21.19.76,1.48.61,1.86.24.56.89,2.42,1,1.67-.06.37.48,2,0,1.12l.38,1.11a11.66,11.66,0,0,0,.52,1.28l-.4-1.39c1.18,3.08,1.71,5.15,2.58,7l.83-.11-.72-.07-.15-.61.2.54a12.64,12.64,0,0,1,4.19.22l-2.36.17c1.88-.05,3.4-.1,4.83-.16l1.06-.06.34,0,.28,0,1.18-.15h-.6c2.1-.42,13.11-1,15-1.5l-.9-.26,1.66-.28c-.19,0-.78.94-.95.85l5-.17,1.8-.06,1,0a13.09,13.09,0,0,0,1.66-.1l2.53-1,2-.76c5.22-2.06,10.31-4.33,11.88-4.94,1.31-.41.41.31.41.36,1.47-.79.53-.57,1.82-1.14.37-.12,0,.23-.16.36.55-.29,1.11-.45,1.1-.59-.75.24-.6-.22-1-.29l1.65-.74,0,.24a7,7,0,0,1,2.31-1.67c2.74-1.24,5.6-2.87,8.28-4.36,0,.15-.49.54-1,.92a10.9,10.9,0,0,1,1.27-.65c-.76.19,1-.8.48-.59,1.65-1.6,4.39-2.79,5.82-4.31-.07-.26-.44-2.61-1-4.84a21,21,0,0,0-1.58-4.6,5.89,5.89,0,0,1,.9-.7,3.28,3.28,0,0,0-1.29,1l.14.29c-.84.88-.29.06-1.25.82-.1-.08.06-.3.35-.58s.6-.63.94-.95l-.93.73c-.3.22-.55.43-.6.65-.74.42-.12-.3-1,.22l-.86.87a4.48,4.48,0,0,1-1.11.74v0c-1.84,1-2.53,2.06-4.32,2.87l.13-.19c-.66.23-1.79,1.07-3,1.55.34-.13.7-.12,0,.28-1.36.55-2.19,1.14-3.23,1.47-.27.24-.54.46-.82.69-2.3,1.14-8.07,4-14,6.49-1.48.63-3,1.26-4.42,1.84l-2.1.84-.26.1s0,0,0,0l-.05,0s-.08,0-.11,0l-6.38.24.21-.05-9.93.34-5.89.19-1.49.05h-.34l-.43,0-.21-.43-.05-.11,0,0-.06-.16-.14-.36-.55-1.41c-.72-1.83-1.38-3.48-2-4.88a38.11,38.11,0,0,0-1.3-4.28c.16.74-.09.56-.29,0-.7-1.95-.76-2-.85-2.05s-.12-.14-.16-.16a1.57,1.57,0,0,1-.24-.39,6.12,6.12,0,0,1-.29-.61l.58-.41,1.67-1.11,6.2-4,5.72-3.67,2.24-1.41.44-.27.09,0,.15-.06a1.18,1.18,0,0,1,.11-.19,1,1,0,0,1,.35-.06h.1l.38,0,.85.08a32.1,32.1,0,0,0,3.26.21l-.23.07c2.42.1,16.05,1.79,18.87,1.95l-.38-.09h.6l.39,0a.29.29,0,0,1,.17,0,.44.44,0,0,1,.08.11l0,.06s0,0,.1.09a8.44,8.44,0,0,0,1.18.65c-.09-.47,1.95.09,2.71.35l-.06.07c1.15.38,3.83,1.06,5.71,1.74l-.15.18a58.15,58.15,0,0,1,5.64,2.05,94.68,94.68,0,0,0,9.83,4.07l2,1.45.34.07s6.34-5.71,2.44-9l.15-.18-.9-.32c-1-.53-1.62-.48-1.47-.66l1.46.6c-1-.48-.26-.29.2-.25a10.35,10.35,0,0,1-1.2-.59c-.25,0,.12.14.27.25a8.2,8.2,0,0,1-2.15-.65c-1.1-.45.06-.36-1.22-.88-6.7-2.83-13.16-5.65-20-8.29-.12-.15.06-.07.27,0l-1-.37-1.73-.66-2.83-.25c-.66-.05-1.32-.1-2-.13a2,2,0,0,1-.84-.42,48.37,48.37,0,0,1-5.46-.38l-3.94-.38C180.43,260.64,179.68,260.56,179.64,260.54Z"/></g></svg>