<svg xmlns="http://www.w3.org/2000/svg" viewBox="0 0 809.85 1160.85"><defs><style>.cls-1{fill:#2c2c2c;}.cls-2{fill:#fff;}</style></defs><title>potion</title><g id="Calque_2" data-name="Calque 2"><g id="Calque_1-2" data-name="Calque 1"><path class="cls-1" d="M794.44,771.55l-1.5,5.35c-.53,1.82-1.15,3.66-1.75,5.57l-1.85,5.88-1,3.07c-.34,1-.72,2.07-1.09,3.13.95-2.36,1.86-5.22,2.9-8.39l1.61-5c.55-1.73,1.17-3.51,1.66-5.38l3.24-11.64c1-4,2-8.12,2.94-12.16l-2.39,9.5C796.43,764.75,795.4,768.06,794.44,771.55Z"/><path class="cls-1" d="M799.71,751.68l.06-.25-.14.57Z"/><path class="cls-1" d="M800.78,745.34l-.93,4.4C800.18,748.27,800.48,746.81,800.78,745.34Z"/><path class="cls-1" d="M177.9,998.48l.11.09Z"/><path class="cls-1" d="M44,527.3l-.84,1.33Z"/><path class="cls-1" d="M809.78,655.17l-.4-12.3c-.55-8.18-1-16.36-2.06-24.47l-.69-6.09c-.21-2-.6-4-.89-6.06l-.94-6.05-.47-3c-.14-1-.32-2-.53-3l-2.39-12c-.36-2-.9-4-1.37-6l-1.45-5.94c-.5-2-.94-4-1.48-5.93l-1.7-5.87-1.7-5.87-.86-2.93-1-2.89L788,535.2c-1.43-3.81-2.94-7.59-4.41-11.38s-3.13-7.51-4.77-11.23-3.22-7.48-5.12-11.08l-5.46-10.92-6-10.66c-1.92-3.59-4.14-7-6.29-10.47l-3.23-5.18c-.55-.86-1.06-1.74-1.63-2.58l-1.74-2.51-7-10.06c-2.39-3.3-4.93-6.5-7.39-9.75l-3.73-4.86-3.94-4.68c-2.65-3.1-5.22-6.29-7.94-9.33-5.59-6-11-12.11-17-17.73l-4.39-4.3-2.2-2.15c-.74-.71-1.52-1.37-2.28-2.06l-9.19-8.2-2.3-2.05-2.39-2-4.79-3.89-4.79-3.89-2.4-1.95c-.81-.64-1.65-1.23-2.48-1.85-6.65-4.87-13.19-9.92-20.15-14.39l-5.16-3.46-.81-.54-.07,0a.27.27,0,0,1,0-.08l1.43-10c.52-2.94,0,.58-.49,4.34l12.45-87.53h.22l3.19.13,8.55.35c10,.54,12.71.79,15.66,1-.73-.05,1.74,0,6.63.23l25.59,1.07,28.58-83L644,145.18l-2.49-.44c-36.8-12.7-10.56-4.13-44.62-15.79-13.49-4.06-56.5-19.57-68.36-23.35.07,0-.92-.34-2.42-.87l-5.52-1.95c-4-1.41-7.87-2.8-7.32-2.71-5.2-1.47-17.16-5.85-27.69-9.41-3.84-1.23,2.76,1.05,5.58,2.12L467,84.59l-8.46-3c-2.64-.94-4.29-1.55-4.77-1.75s.22,0,2.29.7l9.53,3.24-12-4.16-28.35,81.82,29.92,33.4-29.49,83.76c0,.06-.09,0-.05,0l-5.83-.2c-2.07-.06-4.14-.16-6.21-.19l-6.21.07-6.2.07-3.09,0-3.09.18-12.3.71a360.65,360.65,0,0,0-47.49,7.28L324,289.33c-1.86.42-3.67,1-5.49,1.53l-5.41,1.59L307.75,294l-5.2,1.78c-3.43,1.2-6.86,2.29-10.16,3.55-6.57,2.6-13,5-19,7.77l-4.48,2c-1.48.66-3,1.28-4.36,2l-8.32,4.1a378.82,378.82,0,0,0-47.86,28.73l3.37-2.28,2-1.35,2.18-1.39,9.62-6.17c3.33-2.07,6.73-4,9.7-5.74l4.15-2.38c1.28-.68,2.43-1.25,3.39-1.72-16.62,9.66-24.25,14.58-31.15,19.48-1.58.95-4.54,2.93-8.28,5.49-1.89,1.25-3.87,2.78-6,4.37l-6.66,5c-1.16.84-2.29,1.74-3.41,2.66l-3.38,2.71-6.59,5.26c-4.14,3.49-7.89,6.65-10.73,8.91-1.34,1.26-2.6,2.6-3.88,3.91L155.55,387c-2,1.77-3.7,3.54-5.38,5.19l-4.74,4.66c-3,2.89-5.5,5.57-7.73,7.88l-5.81,6.05c-1.65,1.75-3,3.27-4.16,4.54l-7.28,8-6,6.79c-1.87,2.16-4.5,5.06-8,9.35l-6.1,7.37c-2.31,2.81-4.81,6.08-7.71,9.72-3.37,4.21-6.33,8.28-9.17,12.07l-4.1,5.52-3.74,5.27c-2.4,3.42-4.7,6.6-6.8,9.67L63,497.9,60.19,502l-2.59,4-5,7.66c-3,4.55-5.73,9.05-8.64,13.63,2.19-3.41,5.52-8.43.4-.14-.3.37-1.46,2.12-3,4.64L35.92,541c-1,1.7-2,3.38-3,5.07l-2.73,4.86L29,553l-1,1.89c-.61,1.15-1.12,2.07-1.46,2.66C25.2,560,23.38,564,21.35,568.26l-2.88,6.69c-.94,2.25-1.76,4.5-2.57,6.56-2.77,7.5-4.42,12.87-3.17,9.65-.56,1.6-1.29,3.92-2.12,6.46-.58,1.69-1,3.52-1.56,5.28s-1,3.49-1.4,5c-1.54,6.2-2.35,9.35-.22,0a221.19,221.19,0,0,0-5.37,28.56c.34-2.29.62-4.58,1-6.86l1.21-6.83c-1.62,9-2.6,17-3.3,24.34-.24,3.67-.6,7.16-.7,10.52l-.22,4.94L0,667.4A255.73,255.73,0,0,0,2,702.52l-.6-6.69-.43-6.7c1.44,21.71,5.15,39.51,6.61,47.9-1.6-7.25-3.08-14.54-4.19-21.89.64,4.46,1.45,8.66,2.17,12.7S7.09,735.7,8,739.38c1.65,7.38,3.52,14.15,5.39,20.72A400.75,400.75,0,0,0,27.18,799.2c-1.28-3.32-2.65-6.6-3.86-9.95a464.11,464.11,0,0,0,22.17,48.82c5.71,10.86,12.43,22.59,20,34.52s15.92,24,24.76,35.77a507.84,507.84,0,0,0,55,61.76c8.75,8.31,16.9,15.38,23.77,21,1.7,1.42,3.34,2.72,4.89,3.93l2.24,1.77.47.37.15.11.33.24,1.2.87c.07.07.23.13.23.2l-.23.19-.41.35.57-.4.14-.1.07-.05s0,0,0-.05l-.24-.21-1-.86-1.86-1.56-3.1-2.58,3,2.33,1.48,1.16.55.41,1.17.87.6.44c.1,0,0,.07-.05.11l-.14.11-.28.23-1.12.92-1.85,1.5-5.81,4.66c1.39-1.09,4.07-3.5,6.7-5.86.47-.51.74-.86,1-1.16.12-.14.23-.27.33-.37l.08-.07-.11.09-.36.28-.77.61-5.58,4.41L155,1016.82l-49,38.74,305.11,105.28-8.7-63.19-.27-2.09-.11-.93-.08-.82c0-.44-.17-.85.21-.68s.41.12.23.16c-.35-.11-.11.44,0,.76s.15.59.16.61l-.16-1c0-.06-.07-.19,0-.19h1.24l1.8,0,5.71.11c1.31,0,2.48,0,4.89-.06l12.29-.18c3.4-.14,3.05-.09,1.37.07s-4.7.19-6.62.26c5.48,0,10.74-.4,14.75-.64s6.75-.42,7.16-.53c-13.67.78-7.91,0-13.7.19l8-.49c2.67-.18,5.34-.27,8-.62l8-.88c2.66-.3,5.32-.54,8-1l-1.37.44c1.77-.28,3.77-.64,6.25-1.09l4.13-.76c1.52-.3,3.21-.52,5.05-1l13.57-3,8.85-2.32c3.22-.85,6.74-1.69,10.48-2.9l9.57-2.94c1.61-.46,3.17-1.09,4.76-1.64l4.76-1.71c6.41-2.16,12.66-4.9,19-7.47a361.87,361.87,0,0,0,37-18.55l4.51-2.58c.75-.44,1.51-.85,2.25-1.3l2.2-1.38,8.79-5.52,2.19-1.39,2.14-1.46,4.27-2.92,4.26-2.92,2.13-1.46,2.07-1.54c5.49-4.11,11-8.1,16.25-12.44,2.62-2.14,5.3-4.2,7.85-6.4l7.57-6.59c-.27.32-2.5,2.34-5.71,5.2l-2.58,2.29c-.93.79-1.93,1.59-2.94,2.43L634,1014c2.78-2.25,6.31-5.06,9.73-7.89s6.66-5.77,9.17-7.9c-2.47,2.07-2.65,2.18-1.66,1.28l2.23-2c1-.83,2-1.8,3.11-2.84,4.32-4.08,8.9-8.4,5.2-5a506.08,506.08,0,0,0,42.83-47,458.81,458.81,0,0,0,34.44-49.28c.28-.71,2.34-5.29,5.24-11.72,1.42-3.23,2.91-7,4.56-11,.68-1.66,1.39-3.36,2.08-5.09a512.68,512.68,0,0,0,27.28-60.12c.27,1.71,1.33,1.41,3.6-2.69a125.4,125.4,0,0,0,5.78-12.64c1.14-3,2.42-6.55,3.85-10.6.75-2,1.39-4.21,2.09-6.54l2.21-7.42-.15,1.4,1.13-4.17,1-4.21,2-8.42Q803,735,804,727.85c.73-4.76,1-6.78,1-6.07l-1.12,7c-.38,2.34-.71,4.69-1.21,7-.65,3.17-1.25,6.36-1.89,9.53,1.3-6.2,1.45-7,1.18-5.35l-.9,5-.6,3.29-.69,3.14.75-3.17.63-3.15,1.23-6.13,1.16-5.8.9-5.39c.55-4.08-.55,3-1.14,6.17,1.77-11.08,4-26.56,4.92-40.2.21-2.66.42-4.68.51-6.22l.19-3.37a18.64,18.64,0,0,1,.22-2.19c.06-.39.13-.89.25-2.86s.41-5.38.38-11.62l0-6.17C809.84,659.27,809.89,657.22,809.78,655.17Z"/><path class="cls-1" d="M178,998.59s0,0,0,.06l.06,0Z"/><path class="cls-1" d="M178,998.57l0,0h0Z"/><path class="cls-1" d="M668.44,56.21a81.24,81.24,0,0,0,7.93-3C674.48,53.72,671.38,55,668.44,56.21Z"/><path class="cls-1" d="M668.38,56.22l0,0,.1,0Z"/><path class="cls-1" d="M727.42,74.53l2.95-4.93c-.78-.28-1.49-.54-2.07-.77,3.61,1.5-7-2.25-4-1.12q-2.3-.69-4.62-1.43l-3.37-1.08c-2-.64-4-1.33-5.94-2-4-1.38-7.79-2.74-11-3.64-.3.12-3.31.74-6.66,1.45l-12.07-4.17c0-2.14-2-3.52-9.49-1.18l.16-.31-3,1.32c-3.7,1.45-5.29,2.4-5.13,2.09l5-2.1c-3.7,1.5-1.18.3.17-.41-1.54.63-3,1.24-4.29,1.69-.69.38.57-.14,1.16-.34-1.95.91-4.62,2.27-7.07,3.19-3.77,1.57-.38-.23-4.78,1.61L638.1,68.72l-3.79,1.57-.47.2-.2.08h0l-.09,0-.16.05-.56.17.23-.74,1.87-8.42,5.39-24.79-3-1c-1-.44.28,0,1.69.45l-14.58-5L614.52,28a19.94,19.94,0,0,1-2.77-1.3c.51.27-8.6-2.82-17.92-6l-12.95-4.46-6.18-2.16-.59.22c-7.13-2.46-1.93-1.15-8.55-3.33-2.76-.36-10.93-3.84-13.3-4.34.07,0-3.15-1.16-2.89-1.25A9.76,9.76,0,0,1,547,4.75l-2.82-1c-1-.36-2-.71-3-1-1.41-.4,1.07.47,2.12.93L534.51.71l-.87-.33c-.44,2.63-.63,3-.23-.38l.3.1L533.4,0l-6.73,50.47c-2.46,18.59-4.91,37.28-5.72,44.16.46-1.74.85-6,1.42-7.58-.27,3.67-.76,5.35-.76,7-.72,1.33-1.16,8-2.06,10.67l.17,1.08-.42,1.78-1,9.43-1.34,9.75,6.25,2.18,4.14,1.4,2.44.78,4.13,1.27c2.43.74,4.44,1.37,6.54,2.17-.71-.27-2-.91-.12-.32.26.37,5.46,1.68,6.36,2.28,2,.65,8.42,2.91,6.36,1.81,1,.55,6.75,2.61,3.28,1.58,1.93.68,3.79,1.38,5.21,1.78l-2.45-1c6.56,2.21,10,3.71,14.4,4.87l-2.37-1c3.92,1.33,7.2,2.43,8.62,3.31l-4.05-1.28c6.49,2.23,10.41,3.56,15.88,5.24l-1.93-.68c7,2,43.13,14.19,49.63,16l-2.83-1.28,5.54,1.66c-.64-.23-2.93,0-3.44-.31l28.14,9.65,20.58-34.7c5.93-10,10.87-18.24,12.87-21.47,2.49-3.88.81-.48.82-.41,2.78-4.87,1-2.23,3.44-6.32.71-1.09.05.35-.29,1a39.67,39.67,0,0,0,2.08-3.63c-1.43,2.19-1.16,1.06-1.92,1.9l3.16-5.26.05.35a74.42,74.42,0,0,1,4.44-8.41l7.79-13,10.21-17.14-1.66-.58a13.62,13.62,0,0,1,1.87.5C729.53,70.81,728.48,72.66,727.42,74.53Z"/><path class="cls-2" d="M735.12,779.76a49.92,49.92,0,0,1,.3,8.66A46.76,46.76,0,0,0,735.12,779.76Z"/><path class="cls-2" d="M735.12,779.76c-.09-.77-.19-1.54-.31-2.3C734.93,778.23,735,779,735.12,779.76Z"/><path class="cls-2" d="M734.81,777.46l-.06-.33C734.77,777.25,734.79,777.35,734.81,777.46Z"/><path class="cls-2" d="M729.73,761c-.45-1-.86-1.9-1.33-2.7-.91-1.61-1.63-3-2.29-3.9-1.34-2.22-2-3.28-2.24-3.79s-.22-.45-.18-.46,0-.08-.41-.78l-1.07-1.61c-.52-.73-1.14-1.76-2.12-3-1.41-1.7-2.86-3.61-4.58-5.38l-2.56-2.78c-.89-.92-1.83-1.8-2.76-2.72s-1.85-1.85-2.83-2.72l-2.93-2.61c-1.91-1.78-3.93-3.36-5.83-5l.16.08A181.8,181.8,0,0,0,674,706.83l-5.81-3.17-2.94-1.6-3-1.53-6.34-3.23-7-3.33,2.14.91c-6.54-3.4-19.68-8.73-32.08-13.47,2.87,1.11,4.28,1.77-2.41-.62l-5.33-2-2.52-.92-.49-.18a4,4,0,0,0-.54-.14l-.7-.16-1.27-.29-9.48-2.16c-3-.75-5.92-1.14-8.79-1.66s-5.68-1.05-8.58-1.47l-11.21-.93c-3.48-.23-7.63-.34-12.33-.54-2.36,0-4.86.12-7.49.18l-4,.12c-1.38.1-2.79.27-4.23.4l-4.41.44-2.27.23-2.3.39-4.71.81c-1.59.29-3.23.51-4.85,1L516,675.08l-2.53.62c-.85.2-1.67.51-2.52.76-3.36,1.1-6.87,2.05-10.29,3.47l-5.23,2-5.21,2.31c-3.54,1.5-6.95,3.35-10.49,5.1-6.93,3.7-13.94,7.73-20.83,12S445.08,710,438,714.19a221.18,221.18,0,0,1-21.64,11.5L413.62,727c-.92.43-1.87.77-2.81,1.15l-5.63,2.25-5.72,1.89c-1,.3-1.89.67-2.86.91l-2.9.75c-1.93.48-3.84,1-5.79,1.45l-5.83,1.07c-1,.17-1.93.39-2.91.51l-2.92.32-5.81.64c-1.94.13-3.88.16-5.8.24l-2.88.11c-1,0-1.91.1-2.87,0l-5.69-.2-2.82-.09-1.4,0-1.39-.14c-3.71-.41-7.37-.71-11-1.17l-10.52-1.76c-.86-.12-1.71-.32-2.55-.52l-2.51-.58-4.94-1.13c-1.62-.38-3.24-.71-4.8-1.12l-4.61-1.32-8.8-2.52c-2.81-1-5.5-2-8.09-2.9l-7.44-2.69-6.69-2.64c-4.21-1.66-7.93-3.1-11-4.47l2,.8a479.4,479.4,0,0,1-44.23-21.11,409,409,0,0,1-49.72-31.63c-8.35-6.14-16.54-12.82-24.52-19.87s-15.7-14.51-23-22.33a288.75,288.75,0,0,1-20.43-24.45c-3.13-4.22-6.13-8.49-8.9-12.84-.35-.54-.7-1.08-1-1.63l-1.51-2.44c-1.27-2.07-2.45-4.33-3.67-6.5-.61-1-1.2-2.35-1.79-3.55l-1.78-3.7-3.58-7.51-.26.67a6.35,6.35,0,0,0-.23.63L81.52,561l-.92,2.92-1.83,5.8-3.63,11.47-1.79,5.67-.11.35-.06.18,0,.11-.11.43-.23.87-.45,1.73-1.78,6.84-1.75,6.72c-.5,2.24-.94,4.47-1.4,6.68l-1.36,6.55c-.44,2.16-.93,4.29-1.22,6.44l-1.94,12.52c-.14,1-.34,2-.44,3l-.31,3-.61,5.9c-1,7.75-1.13,15.1-1.53,21.9l-.19,2.57-.06,2.68L59.68,681l-.07,5.89,0,3,.12,3,.49,12c0,2,.28,3.88.43,5.75l.48,5.44c-.62-7.79-.2-5.14.35.93.26,2.66.43,5,.68,7.06l.76,5.34,1,6.61c.43,2.92.51,3.29.59,3.67s.2.77.79,3.73l1.32,6.66,1.05,5.36c.41,2.05,1,4.35,1.66,7l2.62,10.59,3.91,13.22c.66,2.43,1.59,4.87,2.46,7.44L81,801.65c.89,2.75,2.08,5.48,3.19,8.31l3.49,8.69a359.1,359.1,0,0,0,42.42,73.47,355.71,355.71,0,0,0,58.17,60.36l7.18,5.58,3.45,2.68c1.13.89,2.24,1.75,3.4,2.53L215,972.2c8.09,5.05,14.6,9.38,19.5,12l8,4.37,2.07,1.13,2.14,1,4.34,2.11,8.82,4.33,9.12,4,4.56,2c1.52.66,3,1.33,4.58,1.87l9.14,3.41c6,2.37,12,4,17.5,5.78l-2.26-.63,5.71,1.79,1.8.56,2,.51,4.32,1.13,10.1,2.65c3.69.84,7.69,1.63,11.89,2.53,2.11.43,4.26.93,6.49,1.32l6.84,1.08c4.66.71,9.46,1.61,14.46,2l7.55.81,3.83.41c1.28.15,2.58.17,3.87.26l7.81.45,3.93.22c1.31.08,2.62.15,3.94.14,5.26,0,10.53.1,15.75.09l15.45-.65c5.06-.37,10-.89,14.78-1.3,1.2-.12,2.39-.19,3.56-.36l3.47-.49,6.74-.95c2.19-.32,4.34-.58,6.41-.94l6-1.15c3.87-.76,7.49-1.39,10.76-2.11l15.26-3.73-3.8.87c1.53-.4,3-.72,4.28-1.1l3.66-1.1,5.91-1.74c3.4-1,5.89-1.63,8.15-2.43l7.14-2.32c2.73-.91,6.12-1.92,10.73-3.82-1.29.3,3.08-1.62,8.72-4l2.17-.91,2.19-1,4.38-2.07,7.36-3.43-.25.21c1.43-.62,3-1.51,4.78-2.43l5.81-3.06,3.23-1.7c1.1-.59,2.25-1.16,3.37-1.85l7-4.15,3.64-2.15c1.22-.73,2.47-1.43,3.66-2.24l7.22-4.73,3.57-2.34L600,969.1l1.69-1.22,6.51-4.69-.52.65,5.71-4.17,6.32-5,6.78-5.39,6.68-5.81c2.2-1.94,4.41-3.81,6.48-5.68l5.77-5.53,5-4.81c.77-.71,1.44-1.43,2.07-2.1l1.74-1.84,7.75-8.14c.7-.7,1.36-1.46,2-2.23l2-2.33,4.15-4.8c1.4-1.64,2.88-3.27,4.28-5l4.18-5.35c2.8-3.63,5.8-7.26,8.47-11.23l4.15-5.9c1.37-2,2.84-3.94,4.1-6L703.13,860l7.14-12.81c.57-1.07,1.21-2.1,1.72-3.19l1.58-3.24,3.12-6.41,2.83-5.4,2.56-5.52c1.69-3.69,3.46-7.36,5.09-11.08l1.19-3.37s.42-2.47.73-5.44a34.76,34.76,0,0,0,.16-8.43,4.37,4.37,0,0,0-.36-1.09c.92-3.52,3.45-17.37-7-35.81.94,1.07,1.87,2.17,2.77,3.33a63.78,63.78,0,0,1,7.63,12.58c.46.93.8,1.81,1.12,2.6s.63,1.47.81,2.06a8,8,0,0,0,.75,1.83,48,48,0,0,1,0,9.58c-.07.71-.15,1.38-.26,2s-.2,1.22-.32,1.76-.24,1-.35,1.46c-.05.2-.13.44-.18.63l-.09.28-.12.36.13-.34.11-.31c.08-.23.16-.51.24-.8.17-.6.33-1.31.5-2.15a42.39,42.39,0,0,0,.65-6A51.29,51.29,0,0,0,734,774.21l-.58-1.09c-.44-1.94-1-3.38-1.32-4.54s-.69-2-.91-2.59c-.46-1.24-.6-1.67-.73-2.08a16.85,16.85,0,0,0-.79-2l-1.08-2.42c-.52-1-1.23-2.33-2.13-4,0-.21.35.4,1,1.61.34.6.78,1.35,1.25,2.23l1.45,3.06a62.22,62.22,0,0,1,4.55,14.73,60.09,60.09,0,0,0-3.66-13C730.69,763,730.16,762,729.73,761Z"/><path class="cls-2" d="M618.93,681.4l-1.44-.55Z"/><path class="cls-2" d="M95.43,543.12l-2.22-2.81Z"/><path class="cls-2" d="M95.41,542.7c-1.74-2.21-3.4-4.42-3.93-5.22a77.52,77.52,0,0,0,5.57,7.37l.56.2c4.33,5.12.83,1.35,5,6.36,0,.43-3.9-4.12-7.22-8.29,3,3.78,5.86,7.54,7.33,8.84,2.82,3.49-.57-.17,2.87,4,2.56,2.87,6.12,6.46,9,9.82l-.09,0c7.09,8.06,11.51,11.69,18.3,18.74l-.81-.68c2.35,2.55,7.39,7.14,11.88,11.49-1.27-1.25-2.28-2.44.49.09,2.58,2.5,4.85,4.5,6.9,6.37s4,3.51,5.91,5.31c1.31,1.05,2.67,2,4,3.07,4.74,4.07,13.18,10.92,23.78,18.74a428.5,428.5,0,0,0,36.87,24.31,377,377,0,0,0,39.45,20l8.72,3.66,7.9,2.94,3.5,1.3,3.23,1,5.34,1.68-1-.26,3.57,1.12,3.85,1c2.64.66,5.39,1.45,8.3,2.09l9.1,1.87c3.16.54,6.44,1,9.78,1.52,1.67.3,3.39.38,5.11.58l5.22.52c.88.1,1.76.16,2.65.19l2.68.13,5.41.27c1.82,0,3.65,0,5.48,0s3.68,0,5.53,0l5.56-.27,2.79-.14c.93-.07,1.85-.17,2.78-.26a197.31,197.31,0,0,0,42.62-8.46l4.83-1.56,4.65-1.69,2.28-.83,2.21-.89,4.31-1.74c5.58-2.42,10.67-4.8,15.09-7.15a165.86,165.86,0,0,0,18.47-10.39c-3.09,1.85-2.13,1.06.22-.47,2.06-1.35,3.61-2.39,4.77-3.22s2-1.38,2.51-1.8a11.63,11.63,0,0,0,1.35-1.07,15.34,15.34,0,0,1,1.36-1.13l1.18-.93c.7-.55,1.54-1.2,2.47-2s2-1.69,3.26-2.74l4-3.62,1.34-1.23.35-.33.18-.17.09-.08s.07-.06,0-.07l-.87-.49L479.73,638c-.68-.37-1.34-.76-2.08-1.16l-2.38-1.2-4.91-2.47-13.92-7-16.66-8c-2.91-1.44-5.92-2.79-8.94-4.19l-9.11-4.2c-24.37-11.15-48.94-21.1-58.23-24.74l-16.35-5.91c-2.82-1-5.61-2.09-8.35-3s-5.4-1.83-7.9-2.64l1,.27c-2.69-.86-8.42-3-15.83-5.33L304,564.41l-13.4-4.13c-18.22-5.47-36.87-10.3-43.27-11.73l1.7.47c-5.58-1.26-8-1.88-10.07-2.43s-3.89-1.1-8.27-2.15c.53.34-1.6,0-4.33-.47s-6.07-1.08-7.9-1.44l.16-.06c-1.39-.26-3.21-.63-5.31-1l-7-1.17c-5-.88-10.46-1.66-15-2.42l.4-.16L177,535.64c-5.28-.69-10.27-1.44-13.05-1.71-3.17-.38-6.76-.9-10.66-1.31l-6-.67-6.36-.6c-8.64-.77-17.85-1.31-26.44-1.33q-5.54-.45-11.12-.68l-1.64.09s-4.47,2-6,4.26a1.91,1.91,0,0,0,.78,3.06,7.75,7.75,0,0,0,1.59.65l1.25,1.6H99l.35,0c1.79,2.28,4.24,5.31,7.32,9l-2-.94C100.17,544.84,95.64,542.53,95.41,542.7Z"/><path class="cls-2" d="M644.91,511.16l.37,2.47A20.68,20.68,0,0,0,644.91,511.16Z"/><path class="cls-2" d="M645.28,513.65h0v0Z"/><path class="cls-2" d="M679.53,597.37l.84-.16Z"/><path class="cls-2" d="M647,545.74l1.38-1.29c.1,1-1.58,1.85-1.2,2.41,2.11-1.57-.21,1.67.95.92a4.41,4.41,0,0,1-.92,1.18c1.22-.93.3.17.63.13.35-.2.37-.38.73-.76l.48.19c-.4.55-1.15,1.22-1.29,1.1-.11.45-.26,1.27-.39,2.17s-.3,1.9-.47,2.8a9.72,9.72,0,0,0-.14,1.24,10,10,0,0,0,0,1,1.78,1.78,0,0,0,.15.7c.07.18.14.32.27.38,1.21-.71.36-.6,2.25-1.68,1.16-.28-.32.58.88.14-2.9,1.48-.56.91-3.5,2.41l1.71-.67-1,.56c2.1.24.91-.11.84.89.23.19,1,.13,1.62.11s1,0,.65.3a3.94,3.94,0,0,1,1.53-.51c-1.53.5,1.29.05-.23.59.27.08.34.59,2.36-.14-1,.37-1.19.9-2.25.89,0,.15-.23.37.29.35l.5-.33c.54.43-.91,1,1.2.94l.72-.36c.32.27.65.52-1.35,1l-.85-.17a3,3,0,0,0,2.1,1l0-.16a11.16,11.16,0,0,1,4.35,1.86c.79.49,1.62,1,2.43,1.45a9.48,9.48,0,0,0,2.2,1l1.32-.38,1.51.66c0-.09-4.9-.26-4.46-.32.2.33.67,1,1.33,1.92s1.27,2.09,2.06,3.31,1.39,2.55,2,3.66l.74,1.48a4.3,4.3,0,0,1,.3,1c-.16.61-1.47-.17-1.65-.2.88.93,1.24.57,1.57,1.29-.05.17-.75-.19-1-.33.3.35.17.59.61.7.07-.35,1.32.06,2,0,.11.31.26.64.38,1l-.71-.19c.13.22,2.11,1,2.22,1.88.28.81.62,1.71,1,2.64s.9,1.9,1.28,2.83a3.67,3.67,0,0,1-.94-1c.12.25.36.65.32.84.17-.34.72.9.69.58a6.73,6.73,0,0,1,1.49,2.45,17.13,17.13,0,0,0,1.16,2.32c.11.06.7.43,1.33.88a10.53,10.53,0,0,1,1.68,1.43c.85.92.33,1.34.37,1.35l-1.46.3c.14,0,1.47-.26,2.06-.43a.39.39,0,0,0,0-.06c1.33-.41.42-.05,1.75-.45a7.13,7.13,0,0,1-2.22.66,14.17,14.17,0,0,0,2.48-.63c1-.25.08.1,1.34-.19.84-.23,1.59-.66,2.65-.92l0,0a12.59,12.59,0,0,0,1.57-.49,9.94,9.94,0,0,0,1-.53,9.22,9.22,0,0,1,2.26-1.12,1,1,0,0,1,0,.14c.89-.23,1.69-1,3.13-1.49-.43.14-1.09.18-.52-.2,1.64-.6,2-1.23,3.39-1.65a4.5,4.5,0,0,0,.11-.72,35,35,0,0,0,9-9.81l1.06-1.73.85-1.79c.58-1.18,1-2.35,1.43-3.42a24.79,24.79,0,0,0,.95-3c.26-.88.43-1.62.57-2.16l.15.17.6-2.8c.18-1,.32-2.19.47-3.39s.26-2.47.32-3.78,0-2.67-.09-4c0-.68-.09-1.35-.14-2s-.2-1.34-.3-2c-.24-1.32-.51-2.6-.84-3.81a25.93,25.93,0,0,0-2.64-6.14c1.05-1.56.17-2.94.14-4.21-.34.85-1.39,1-1.52.5-.58-1.71-.84-1.67-1.19-1.59s-.79.17-1.85-1.3a28,28,0,0,1-2.76-4.06c-1.12-1.75-2.33-3.85-3.72-5.79-2.64-4-5.75-7.4-6.73-8.82-3,0-3.83-2.15-6.24-2.33l.47-.2c-1.11-.24-3.69-2.07-6.61-3.37a22.22,22.22,0,0,0-7.26-2.26l.17.22c-2.46.31-1.24-.85-2.57-1.36-.68,1.17-2.8,1.6-3.46,1.6l.19-.23c-1.1.09-3.84.82-5.41.87l.39-.5a10.54,10.54,0,0,1-2.69.38c-.9.06-1.73.09-2.2.14A18.54,18.54,0,0,0,648,509a7.4,7.4,0,0,0-1.85.62l-.3.18a6.54,6.54,0,0,1-.51.42,1,1,0,0,1-.6.26c-.1,0-.08-.09,0,.08a2.7,2.7,0,0,1,.2.65c.07.35.14.84.23,1.44h0l.17.87c.18,1.09.34,1.37.26,1.46l-.26-1.41c.19,1.06,0,.43-.08.06.07.48.14.91.17,1.31.06.15,0-.21,0-.41a16.91,16.91,0,0,1,.41,1.87c.17,1-.15.38,0,1.63l.13,1.25.14,1.18q.12,1.19.2,2.37c.16,1.5.23,3,.3,4.48.16,2.87.21,5.57.42,7.86-.19.37-.19.23-.29.21a11.54,11.54,0,0,1,.27,1.78,7,7,0,0,0,.31,1.55,8.58,8.58,0,0,1-.85,1.54c.24-.39.42,1.08.52,2.49l.09,2A3.88,3.88,0,0,1,647,545.74Z"/><path class="cls-1" d="M417.4,933.58c1,.52,2.66,1.31,4.28,2C420.43,934.94,419.11,934.41,417.4,933.58Z"/><path class="cls-1" d="M421.71,935.62h0l-.06,0Z"/><path class="cls-1" d="M643.28,755.94l-1.08,1Z"/><path class="cls-1" d="M505.46,945.13l-.37-1.87c4.08-.82,1.94,1.88,5.6.7.52-2.85,6.39-1.17,7.15-2.91.06.22,1.94-.16,2.17.72,0-1.63,1.77-.82,2.77-1.52.24-.53-.5-.36-1-.73.81-.41,1.61-.86,2.4-1.32,1.23.16,1.88,1,.83,1.48,1.78-.41,5.23-1.25,9.5-2.48,2.12-.66,4.44-1.43,6.85-2.28,1.21-.42,2.44-.86,3.68-1.32s2.49-.94,3.72-1.49c9.95-4,19.38-9.56,22.46-12.09-1.6-.54-3.19,1.49-5.18.14,1.12-2.07,2.87-1.21,2.9-2.81,2.49,2.22,4.23-1.91,7.44-.15l-.57-1.84,1.52.32c1.63-1.7,2.49-2.69,3-3.27s.65-.78.83-.88c.34-.2.78-.06,4.12-2.46a17.06,17.06,0,0,0,3.46-4.63,6.34,6.34,0,0,1,2.72-3c-.3.25-1.79.1-1.2-1.09,1.2,1.08,1.62-3.07,3.11-2.25.73-1,3.67-3.47,1.25-4.2,1.21.37,4-1.69,3.15.43.88-.76,1.91-1.31,2.18-2.25l-1.48.59a39,39,0,0,1,3.55-3.25,4.93,4.93,0,0,0,1.9-3.46l-1.57.46c1.47-1.83,2.64-3.38,4.77-2.59L606,886.13c2.54-3,4-4.78,5.14-8.14l-.74.87a29.46,29.46,0,0,1,2.39-5.6l2-3.89c.71-1.37,1.48-2.77,2.12-4.25,1.36-2.91,2.6-5.86,3.56-8.31s1.59-4.45,1.53-5.61c-.66.21-1.35.39-2,.57.25-1.11.39-2.28.57-3.42-.2.3,3.12,4.1,2.59,4.11.77-1.52,2.38-4.62,4.26-8.53.93-2,2.07-4.06,3-6.38s1.92-4.72,2.85-7.13,1.91-4.78,2.72-7.09l2.08-6.57c1.27-4,2.22-7.14,2.8-8.53,1-2.19,1.51.23,1.66.34.24-3.15-.69-1.73-.11-4.22.29-.62.64.45.69.9.11-1.16.59-2.06.21-2.32-.55,1.25-1.51.18-2.31.45.27-1,.51-2.1.76-3.15l.61.43c.14-.72-1.34-2.56-.36-5.52.33-1.28.65-2.6.91-3.95s.39-2.76.56-4.15l.92-8.22a6.66,6.66,0,0,1,.33,2.53,12.73,12.73,0,0,1,.32-2.44c-.51,1.15-.11-2.35-.35-1.4a47.79,47.79,0,0,1,0-6.53,54.28,54.28,0,0,0-.08-6.11,13.78,13.78,0,0,1-1.12-1.62,11.17,11.17,0,0,1-1.27-2.88,5.29,5.29,0,0,1-.09-2.45c.13-.62.35-1,.31-1l1.92-1.89c-.22.21-1.91,1.81-2.71,2.68l0,.18c-1.78,2-.53.44-2.3,2.38-.28,0,1.41-1.71,3-3.27a35.51,35.51,0,0,0-3.27,3.37c-1.31,1.29,0-.2-1.67,1.34-1.08,1.11-2.19,2.66-3.52,3.89l0,0c-3.2,3-3.79,4.89-6.77,7.48l.12-.35c-1.18.87-2.6,2.89-4.48,4.49.57-.45,1.33-.73.47.34-2.19,1.83-2.87,3.39-4.75,4.57-.22.53-.43,1.07-.64,1.61-1.6,1.66-4.27,4.55-7.22,8.08l-1.13,1.35-1.24,1.35-2.55,2.81c-1.68,1.94-3.44,3.91-5.07,5.94-3.54,3.88-6.92,7.74-9.71,11-3,3.16-5.35,5.77-6.7,7.29l.05-.35c-4.14,4.61-10.82,11.17-17.42,17.66-.79.85-1.67,1.6-2.52,2.39l-2.5,2.35c-.82.78-1.61,1.58-2.4,2.35s-1.53,1.57-2.33,2.27c-1.57,1.43-3,2.86-4.35,4.22s-2.49,2.69-3.59,3.81c-2.47,0-4.33,1.94-6.15,2.86,1.25-.21,1.59.85.86,1.35s-1.06.83-1.4,1.13a6.07,6.07,0,0,0-.72.64c-.29.33-.24.48-.18.65.12.35.29.78-2.07,2.89a34.5,34.5,0,0,1-2.67,2.46c-.57.47-1.17,1-1.85,1.49l-2.19,1.54-5,3.4c-1.75,1.17-3.67,2.24-5.53,3.38-3.69,2.34-7.6,4.29-10.82,6.08-1.59.92-3.14,1.57-4.42,2.17s-2.33,1.08-3.1,1.39a9.32,9.32,0,0,1-2,2.3,27.41,27.41,0,0,1-2.52,1.65,20.45,20.45,0,0,0-4.83,3.4l.15-.58a32.11,32.11,0,0,1-4.91,2.85l-3.83,2c-1.39.65-2.85,1.34-4.3,2.07-2.91,1.47-5.89,2.86-8.38,4.1s-4.5,2.3-5.51,2.92l.6-.08c-3.41,2.62-3.26,1-6.2,2,.7,1.23-2.29,3.5-3.5,4.15v-.31a81,81,0,0,1-8.87,5.49l0-.65c-2.48,1.74-7.46,3.54-9.36,4.38-2.19.83-5,1.71-8,2.92s-6.22,2.57-9.26,3.94a39,39,0,0,0-4,1.45l-.58.3a7.15,7.15,0,0,1-.88.58,3.35,3.35,0,0,1-1.34.46c-.3,0-.34-.06.22.06a38.35,38.35,0,0,1,3.81,1.72l-.13,0,1.68.67c2,.84,3,1,2.84,1.09-.93-.34-1.86-.69-2.79-1,2,.8.62.36-.16.09.85.37,1.68.7,2.37,1,.4.1-.3-.19-.62-.34,1.1.39,2.63.76,4,1.3,2.13.72.16.43,2.65,1.28,3.3,1.16,6.6,2.1,9.93,3.06s6.68,1.72,10,2.36a123.18,123.18,0,0,0,20.59,2.51c.39.34,0,.31-.37.42,4.14-.17,7.93,0,11.68-.51a4.56,4.56,0,0,1,2,1.23c-.21-.17,1-.37,2.95-.58l3.39-.32c1.26-.1,2.58-.32,3.94-.48,2.71-.32,5.46-.66,7.54-1A36.14,36.14,0,0,1,505.46,945.13Z"/></g></g></svg>