<svg xmlns="http://www.w3.org/2000/svg" viewBox="0 0 385.51 385.51"><defs><style>.cls-1{fill:#2c2c2c;}.cls-2{fill:#fff;}</style></defs><g id="potion"><polygon class="cls-1" points="208.75 348.48 194.37 347.98 80.94 296.4 72.86 287.29 72.84 277.35 129.5 109.27 143.07 98.74 162.1 94.51 182.65 103.86 207.37 88.92 200.94 78.2 203.5 65.72 216.75 58.88 247.75 72.99 279.73 87.53 284.57 102.59 277.5 113.02 267.13 116.1 271.8 144.4 293.8 154.41 301.17 167.61 302.46 188.75 216.89 335.33 208.75 348.48"/><path class="cls-1" d="M205.84,343.54c-1.29-.16-3.06-.29-5-.4l-5.25-.25h0a.69.69,0,0,0,.22.09l1.26.11,2.66.19C201.54,343.39,203.55,343.48,205.84,343.54Z"/><polygon class="cls-1" points="195.54 342.87 195.53 342.87 195.55 342.88 195.54 342.87"/><path class="cls-1" d="M215.25,348.74l1.85-3C216.47,346.72,215.83,347.75,215.25,348.74Z"/><path class="cls-1" d="M97.89,221.28l-.17-.75c3.25-9.64,1.38-2.66,4.29-11.6.64-3.66,5-14.78,5.8-18,0,.09,1.51-4.27,1.58-3.94.16-1.43,1.45-4.51,2.3-7.28.26-1-.33.7-.67,1.41l2-6.33c.93-2.44,1.3-3,.43-.3,3-8.82,12.33-36.13,21.06-61.68l11.13-8.6,15.79-3.5,12.72,5.74c-2.1-1.21-7.43-3.46-9.27-4.7,4.59,1.86,6.6,3.08,8.68,3.79a14.34,14.34,0,0,0,2.55,1.46l1,.47,1.67.77,4.28,2,3.33-2,1.64-1,1-.56a31.1,31.1,0,0,1,2.84-1.42l1.05-1,2.21-1.11,7.94-5,3.3-2.05,9-5.32-6.19-10.4-1.7-2.78-.2-.32-.09-.15h0l0,0-.05,0c-.12.11,1.81-10.12,1.31-7.8l.16-.08.08,0,.85-.41-.79.37c-.11,0-.06,0-.09,0h0l-.06,0a.07.07,0,0,1-.06-.07.15.15,0,0,1,0-.06l0,0,.39-.22a28.67,28.67,0,0,0,3.77-1.9l2.6-1.4c.74-.39,1.58-.79,1.42-.64l.26-.15.33.12,2.39,1c1.35.55,2,.77,1,.12,1.34.82,8.77,4.28,4.26,2.4,2.51,1.16,4.93,2.32,6.77,3.06l-3.19-1.56c8.52,3.82,13,6.18,18.71,8.4L244,76.77c5.09,2.28,9.35,4.19,11.19,5.43L250,79.93c8.43,3.82,13.52,6.11,20.62,9.13l-2.5-1.15,3.85,1.63,2.66,1.15.66.29.14,0,.29.11c0,.09.07.18.11.28l.07.15c.09.28.19.57.29.87.39,1.17.81,2.4,1.23,3.66s.86,2.57,1.31,3.89l.33,1,.11.32,0,.11.17.42-.17.28-.08.14-.05.07-.12.19-1.74,2.63-1.75,2.64-.44.66-.2.31-.19.32-.3.1-.16.06-.61.19-2.62.81-8.84,2.7,1.85,10.61c.39,2.1.74,4.06,1.07,5.82.65,3.51,1.17,6.23,1.5,7.73l-.4-4.16,1.5,7.65c-.15-.91-1.52-3.56-1.55-4.34.41,2.51,1,6.29,1.85,11.14l22.85,10.33L297,168.84c.39,6.23.79,12.64,1.18,18.89L283.43,213l-9.6,16.3c-3.27,5.29-.95.74-1,.65-3.72,6.59-1.38,3-4.65,8.52-.93,1.49,0-.43.46-1.3-1.39,2.45-2.8,4.65-2.79,4.91,1.86-3,1.41-1.53,2.36-2.7l-4.19,7.13v-.43c-.94,1.59-1.84,4.35-6,11.31l-21.43,36.57a59.73,59.73,0,0,1,2.78-5.34c-.94,1.6-2.33,4-3.27,5.47,1.88-2.76-2.78,5.08-1.38,2.88-4.63,9-11.64,20-15.82,27.92,0,.46-.6,5.66-1.15,10.78s-1.27,10.08-1,10.23c-1.47,2.36-2.94,4.71-3.43,5.4.5-.53,3.43-5.15,4.89-7.66V343c3.4-5.75,1-1.21,4.34-6.81.19-.09-.41,1.18-1.49,3s-2.55,4.23-3.93,6.49c2.53-4,5.21-8,5.91-9.79,2.33-3.8,0,.59,2.81-4,1.87-3.34,4.18-7.81,6.53-11.52v.09c5.61-9.09,7.9-14.31,13-22.6l-.45.95c1.86-2.91,5.12-8.87,8.39-14.16-.94,1.5-1.88,2.74,0-.5,3.75-6.1,6.07-10.4,8.87-14.81l2.32-4.46c7.54-13,28.24-48.62,43.49-74.86-.64-10-1.12-17.47-1.53-24l-8.86-15.78-21.05-9.52-.06-.34.06.1c-1-5.84-2.17-12.89-3.48-20.7l7.71-2.31,9.54-14.09L284,83.75,216.61,53.33l-17.45,9.11c-.67,3.38-1.12,5.6-1.54,7.75-.26,1-.52,2.18-.8,3.35q-.24,1.06-.48,2.16c-.24,1.12-.48,2.26-.72,3.41l4.25,7.19c.17.3.34.6.49.88l-.16.09.21-.08c0-.17.1-.14.28.07a1.07,1.07,0,0,1-.24.17l-4.37,2.66a10.58,10.58,0,0,0-1.41.93c-.27.23-.56.5-8.91,5.6l-3.41,2.11-19.76-8.94-21.48,4.77-15.47,12c-4.48,13.14-8.93,26.19-12.67,37.18-3.65,10.59-6.61,19.19-8.23,23.91-3.09,10.3-7.64,22.93-10.78,33l.25-1c-1.5,4.66-6.25,18.63-11.47,34-5.3,15.63-11.09,32.67-14.6,43,0,3.91,0,6.93,0,8.93l0-2c0,2.14.05,4,.07,5.49.94,1,1.77,2,2.52,2.82l1.2,1.38c.69.79,1.24,1.45,1.75,2.08l1.55,1.9c.28.34.57.71.9,1.1s.46.56.72.85l1,1.22,3.65,1.73c-.92-.86,8.12,3,11.55,4.52l-.17,0c5.17,2.27,17,7.25,25.48,11.06l-.42.05c7.18,3,20.45,9.15,25.55,11.45,11.61,5.38,29.4,13.89,45.09,20.7l1.92,1,1,.54,1.67.83,1.44.1.68.05.42,0,1.67.15,3.35.31h1.61s18-7-4.47-9.41l.37-.21-1.94-.06-1,0-.1-.05-.09-.05-.13-.06-.22-.1-.81-.38-1.46-.67-2.2-1c-1.15-.5-1.63-.71-1.42-.73l6.32,2.9-.09,0-.38-.19-.63-.3-.79-.39c-.33-.18-.3-.19,0-.1s.71.26,1.23.46l.74.29h.13l-.11-.06-.69-.33-1.46-.69-2.64-1.28c-1-.36.67.41,1.41.8-2.67-1.13-6.42-2.61-9.59-4.16-5-2.3-.17-.47-6-3.16-30.8-14.2-60.62-28-91.85-42.18-.09-.06-.14-.09-.12-.09v0s0,0,.06,0l1.14.47-1.17-.52h0l-5.86-6.52v-.35c0-.83,0-1.66,0-2.49s0-1.65,0-2.47v-1.55h0s0,0,0-.08l.33-1,.66-2a37.41,37.41,0,0,1,1.62-3.78c-.33.71,3.77-11.61,8-24.21S97.76,221.68,97.89,221.28Z"/><polygon class="cls-1" points="282.05 71.29 254.82 116.76 251.97 119.8 246.99 119.55 217.9 106.32 215.18 103.03 215.99 97.45 231.82 50.63 282.05 71.29"/><path class="cls-2" d="M277.52,69.46a10.64,10.64,0,0,0-1.69,2.24A8.9,8.9,0,0,0,277.52,69.46Z"/><path class="cls-2" d="M275.81,71.72h0l0,0Z"/><path class="cls-2" d="M283.49,65.76l-.81-.32C283,65.56,283.22,65.67,283.49,65.76Z"/><path class="cls-2" d="M249.64,113.76c.06.13.18.2.26.3-.14.17-.29-.26-.32-.19h0c.08.29,0,.27-.09.22l-1.07-.12s0,0-.08.08h0s-.05-.1,0-.25c0,.09-.13.07-.27,0a3.37,3.37,0,0,1-.42-.17,8.69,8.69,0,0,0-1-.46c-.27,0,.13.17.27.33l-1.53-.57c-.54-.36-.6-.59,0-.33l-11.75-5.57-7.54-3.51-3.26-1.5-1.3-.59h-.05l-.09-.11a.78.78,0,0,0,.05.14s0,0,0,0a.08.08,0,0,0,0,0,.15.15,0,0,0,0,.08,1.92,1.92,0,0,1-.08.24.15.15,0,0,1-.13,0c0-.06,0-.13-.13-.07.13,0-.08-.37,0-.33l0-.09s0-.08.09-.13l.22-.06-.31,0a.63.63,0,0,1,.19,0l0,0h0a1.22,1.22,0,0,1,0-.23c0-.36,0-.65.07-.88,0-.46.05-.68.06-.83a2.61,2.61,0,0,1,.06-.32c0-.19.05-.16.07-.17h0s0,0,.06-.15.24-.65.4-1.1c.83-2.6.84-4,1.48-5.36-.08.22-.45.73-.3,0,.3,0,.42-1.85.79-2.08.19-.67.94-2.79.35-2.19.3-.3,1-2.17.78-1a11.52,11.52,0,0,0,.57-1.73l-.38.79c.68-2.18,1.35-3.27,1.51-4.78l-.41.75a6.61,6.61,0,0,1,1.27-2.78l-.34,1.36A49.67,49.67,0,0,0,229,75.27l-.22.63c.42-2.39,4.16-14.4,4.44-16.64l-.59.87.38-1.88c-.07.21.58,1.17.43,1.31.13-.39.34-1,.61-1.88.12-.38.26-.84.41-1.34l1.66.63,5.71,2.32c3.69,1.51,6.77,2.8,7.94,3.35,1.35.72.08.52.05.55,1.75.61.85,0,2.3.65.37.21-.17.17-.41.12.65.23,1.21.56,1.31.46-.76-.42-.29-.61-.54-1l1.86.8-.17.17a8.47,8.47,0,0,1,3.08.74c3.07,1.37,6.47,2.68,9.57,4a3.75,3.75,0,0,1-1.47-.29,10.11,10.11,0,0,1,1.41.65c-.66-.52,1.37.4.82.06,2.49.44,5.26,2.11,7.41,2.6.37-.37,7.51-6,7.73-6.5a12.46,12.46,0,0,1,1.41.65,6.41,6.41,0,0,0-2-.95l-.23.24c-1.54-.52-.28-.32-1.76-.9,0-.27,1.39.24,2.59.7-1.06-.46-2.05-1.08-2.6-1-1-.51.23-.24-.94-.84a14.73,14.73,0,0,1-3.06-1.07l0,0c-2.32-1.24-3.84-1.16-5.95-2.31l.27,0c-.72-.46-2.33-.91-3.68-1.63.38.21.66.52-.2.21C265,58,263.84,57.67,262.74,57l-1.23-.24c-2.31-1-7.45-3-12.9-5.2l-8.09-3.21-11.93-4.8c-2.21,6.62-3.2,9.57-3.84,11.51,0,0,.06-.26.09-.39-1.48,4.47-3.72,11.28-6,18.12S214.39,86.42,213,91a19.91,19.91,0,0,0-1,2.33l-1,2.83c.58-1.42.59-.94.24.12,0,0,0,.08,0,.14-.11.74-.19,1.31-.25,1.74s-.07.57-.09.73c0,.33,0,.37,0,.42s.05.05,0,.48c0,.6-.18,1.69-.45,3.77,0,.24-.06.5-.1.78l4.73,5.61,7.4,3.37,7.16,3.33c4.68,2.21,8.87,4.21,10.64,5.11a23.75,23.75,0,0,1,2.37.87l1.21.53,2,.91,2.58.11,2.46,0-.45.06c.7,0,1.86.07,3.38.14l4.65-4.94c1.55-2.54,3.4-5.55,5-8.16s2.79-4.6,3.31-5.55l-.27.35c1.25-2.52,1.39-2,2.63-3.83-.49,0,.54-2.13,1-2.94l.06.08c.65-1.22,1.95-4.09,3.08-6.07l.14.19c.78-1.76,2.7-4.77,3.38-6a120.17,120.17,0,0,0,6.4-10.31l1.93-2,.15-.37s-4.32-7.65-8.55-3.75l-.14-.19-.54,1c-.77,1.07-.86,1.72-1,1.53L276,72c-.73,1.09-.36.25-.21-.25a12.77,12.77,0,0,1-.88,1.25c-.06.26.18-.12.33-.27A11.76,11.76,0,0,1,274.09,75c-.71,1.14-.35-.11-1.18,1.22-4.41,7-8.76,13.8-13,21-.18.12-.06-.07,0-.3-1.22,2.21-2.4,4.12-3.5,6.15a2.78,2.78,0,0,1-.79.69,38.28,38.28,0,0,1-2.14,3.85l-3.34,5.62a0,0,0,0,1,0,0l-.22.23C249.75,113.65,249.66,113.75,249.64,113.76Z"/><path class="cls-2" d="M258.58,260.37a7.28,7.28,0,0,0-1.05-2.09A6.4,6.4,0,0,0,258.58,260.37Z"/><polygon class="cls-2" points="257.53 258.26 257.52 258.25 257.53 258.28 257.53 258.26"/><path class="cls-2" d="M105.64,190.66l.6.39A4.74,4.74,0,0,0,105.64,190.66Z"/><path class="cls-2" d="M225,228.94l-.32.27c-1.77-1-.28-.69-2-1.58a1.76,1.76,0,0,1-1-.3,5.7,5.7,0,0,1-.57-.34l-1.09-.69-.83-.31-.57-.19a1.78,1.78,0,0,0-.6-.11s-.86-.34-.75-.49c-.36.21-.93-.23-1.51-.33-.23,0,.12.13.24.27l-1.31-.31c-.47-.26-.54-.47,0-.33l-3.2-1.12-5.6-1.93-9.72-1c-2.81-.29-5.17-.5-6.32-.57.46.28,1.64.23,2,.64-1,.11-1.45-.21-1.91,0-.33-.57-2.17-.33-2.87-1l-.31.28-.48-.24c-4.39-.17-1,0-4.87-.47-2.24-.22-3.35.08-4.57-.22.18,0,.65.27.07.28-.07-.28-1.57,0-1.82-.3-.57,0-2.4-.28-1.82.16-.3-.22-1.93-.49-.93-.53l-.8-.12a2.47,2.47,0,0,0-.36,0s0,0-.05,0,0,0,.07.06l.35.09c-.56-.05-.4,0-.48-.06a.1.1,0,0,1,0,0l-.15-.07-.71-.29a5.26,5.26,0,0,0-1.38-.34l.6.38c-1.06-.37-2-.67-2.25-1.17l1.13.3a34.72,34.72,0,0,0-4.36-1.38l.52.2c-.91-.16-3.48-1-6.18-1.78L154.4,213l-1.68-.48-.7-.19a.5.5,0,0,0-.24,0c-.11,0-.11,0-.28,0,.13.15.08.21.14.33l.05.09h-.09l-.14,0a.51.51,0,0,1-.21-.07l-.64-.26c.08.05.36,0,.63-.14a1.49,1.49,0,0,1,.52-.13l-14-8.19L135,201.14c-.87-.89-1.53-1.59-1.88-2-.77-1,.16-.48.2-.5-1.15-1-.68-.26-1.57-1.2-.22-.29.21-.1.38,0-.43-.38-.73-.83-.86-.77.43.58,0,.62,0,1l-1.15-1.21.21-.11a5.84,5.84,0,0,1-2.17-1.5l-.48-.51-.76-.79-6.24-4.25c.11-.08.64.18,1.17.44a6.14,6.14,0,0,1-1-.77c.43.57-1.06-.53-.67-.15-2-.69-3.92-2.58-5.62-3.28-.4.31-7.88,4.78-8.21,5.26a10.19,10.19,0,0,1-1-.77,4.49,4.49,0,0,0,1.45,1.12l.26-.2c1.18.66.16.33,1.26,1-.09.25-1.12-.38-2-1,.78.56,1.47,1.25,2,1.24.69.59-.26.2.58.89a10.26,10.26,0,0,1,2.32,1.36l0,0c1.65,1.42,3,1.52,4.45,2.84l-.23,0c.5.51,1.75,1.12,2.71,1.95-.27-.24-.43-.57.21-.17a15.73,15.73,0,0,0,1.53,1.12l.66.48.31.24c.06.07,0,.05,0,.08l0,0,.07-.06,0,0s.1.06.15.09c.86.85,2.31,2.31,4.09,4.1l6.59,6.53,14.16,8.15-.19-.07,2,1.18,21,7.62,2.94.31,2.18.21,3.81.32a33.82,33.82,0,0,0,4.18.75c-.7-.19-.44-.33.12-.26,3.9.48.28-.1,4.24.2,1.5.06,4.38.31,7.71.64l5.22.53,2.64.28,1.3.14.6.07.14,0,4,1.41,3,1.08a18.92,18.92,0,0,1,2.77.68l1.4.45.7.22.2,0a.66.66,0,0,0,.15.05l.55.26-.23,0c2,1,13,7.92,15.38,9.16l-.28-.22a7.24,7.24,0,0,1,1.71,1l.46.42c.12.1,0,.09.09.13l0,.1a.19.19,0,0,0,0,.09.4.4,0,0,1,.21-.18s.11,0,.23.07l.34.21a10.83,10.83,0,0,1,1.3,1l-.08,0c.87.75,3,2.31,4.36,3.58l-.21.11a55.08,55.08,0,0,1,4.17,3.84l.76.82.42.44.14.19s.41.72.72,1.23l1,1.64c.72,1.1,1.48,2.19,2.28,3.18l.73,2.2.24.24s8.33-1.32,7.11-6l.22-.07-.53-.73c-.52-.95-1-1.22-.79-1.29l.81,1.25c-.56-.94,0-.38.31-.1a8.4,8.4,0,0,1-.61-1.11c-.2-.13,0,.18.06.35a8.09,8.09,0,0,1-1.34-1.65c-.61-.93.26-.26-.45-1.35l-2.51-3.88c-4.77-4.86-7.33-7.58-12.35-12.41-.16-.29.1,0,.41.21l-.48-.45-3.07-1.73c-.79-.45-1.56-.88-2.36-1.3a1.76,1.76,0,0,1-.54-.7,45.59,45.59,0,0,1-4.53-2.49l-3.22-1.89C225.64,229.34,225,229,225,228.94Z"/><polygon class="cls-1" points="237.17 37.64 243.64 37.92 282.48 55.58 287.04 59.06 285.38 65.47 279.21 74.87 230.58 52.75 233.17 42.7 237.17 37.64"/><path class="cls-1" d="M237.48,42.49a5.2,5.2,0,0,0,1.91.38A4.36,4.36,0,0,0,237.48,42.49Z"/><polygon class="cls-1" points="239.41 42.88 239.42 42.88 239.39 42.87 239.41 42.88"/><path class="cls-1" d="M232.4,34.55,232,35A3.91,3.91,0,0,0,232.4,34.55Z"/><path class="cls-1" d="M269.39,56l.26-.32c1.56.71.27.63,1.75,1.19.8-.26,2.37,1.14,3,1.1,0,0,.67.37.55.51.34-.18.76.26,1.23.4.2,0-.08-.14-.16-.28l1.06.36c.36.28.38.48-.06.32l1.23.61.86.41.24.12.15.08,0,0a0,0,0,0,0,0,0L280,61c.52.41.32.27.37.32a.25.25,0,0,1,0,.08l-.07.07c.05-.23-.16.58-.29,1l-.1.38,0,.16h0l0,0-.18.27-.66,1c-.4.62-.72,1.13-.93,1.49.42-.21.82-1.11,1.33-1.22-.29.81-.73,1-.76,1.41-.31,0-.59.35-.89.74a5.4,5.4,0,0,1-.47.58c-.06.06-.06,0-.08,0l0,0-.14-.1.24.2-.15-.11c.14.35.07.19,0,.17h0s-.11.46-.19.26c0,0,0,.22-.05.27,0-.14,0-.1-.07-.08a.09.09,0,0,1-.08,0s-.21-.11-.21-.19c-.45-.17-1.84-.84-1.52-.29-.16-.27-1.39-.91-.57-.72a5.42,5.42,0,0,0-1.15-.5l.5.34c-1.45-.6-2.11-1.22-3.18-1.34l.47.38c-.87-.37-1.59-.67-1.78-1.15l.93.29a25.15,25.15,0,0,0-3.55-1.36l.41.2c-1.65-.35-9.65-3.66-11.23-3.88l.52.55L255,60c.14.06,1-.58,1-.44-2.57-1.14-16-7-18.24-8.24-.89-.57,0-.48,0-.52a3.4,3.4,0,0,0-.62-.18l-.16,0,0,0s-.09.07-.2,0,.13-.19.18-.21c-.11,0-.13-.13-.22,0,.06.14-.2.41-.26.63l-.4-.21.19-.16c-.06,0-.72.34-1.1,0l-.17-.1c.13-.4.23-.78.33-1.16.19-.7.37-1.4.55-2.08.12.07.08.56,0,1.06a4.45,4.45,0,0,1,.34-1c-.37.49.09-1-.12-.58a6.21,6.21,0,0,1,.15-1.59l.12-.54.08-.31a4.11,4.11,0,0,0,.27-.35l.24-.38a4.92,4.92,0,0,0,.24-.45c-.3-.4-4.58-7.71-5-8.07a5.39,5.39,0,0,1,.72-.8c-.19,0-.8.69-1.05,1.12l.2.26c-.61.94-.31.09-1,1-.24-.11.34-.94.87-1.65-.52.61-1.15,1.12-1.14,1.55-.54.52-.19-.26-.83.38-.17.27-.34.62-.54.95-.06.1-.07.13-.18.29l-.34.45c-.24.3-.48.59-.74.86l0,0-.5.56c-.22.74-.39,1.43-.53,2.07,0,.14-.07.37-.08.43l0,.24-.05.47a6.25,6.25,0,0,1-.46,1.94l0-.19a5.24,5.24,0,0,0-.35,1.16c-.09.38-.19.78-.3,1.19s-.28,1-.45,1.51c.2-.57.51-1,.23.15-.75,2.29-1,3.81-1.63,5.56l-.12,1.39.11,0,8.88,4,6.78,3,11.44,5-.16,0,11.91,5.26L269.49,76l7.58,3.22a41.33,41.33,0,0,0,4,2.06l1.16-1.7c-.65.81-.51.28-.05-.4,3.24-4.89.15-.53,3.27-5.49.22-.34.47-.77.78-1.26l.81-1.29,2.51-3.84c.85-3.19,1.8-6.72,2.69-10L288,53.93l-3.05-2.42-1.28-.61-.69-.34-1-.53c-1.8-.42-3.74-1.61-5.45-2.13h.2c-1.79-.66-11.46-5.43-13.53-6.23l.25.18c-1.85-.6-1.45-.85-2.78-1.59,0,.45-1.59,0-2.18-.26l.06-.07c-.89-.33-3-.9-4.45-1.5l.15-.18a35.83,35.83,0,0,1-4.36-1.8l-2.05-1.09-1.17-.62-.91-.45-1.07-.52-1.42-.07-1.07,0q-.84,0-1.65,0L238.67,33l-.27.05s-3.33,7.5.4,9.28l-.07.22h.75c.9.14,1.33-.09,1.26.12l-1.24-.08c.91.11.27.2-.08.31a6,6,0,0,1,1,.16c.18-.08-.13-.1-.27-.15a5.38,5.38,0,0,1,1.77-.11l.27,0c.07,0,0,0,.05,0a.45.45,0,0,1,0,.12c0,.09,0,.18.06.2h0l.1.08.84.42,1.86.92,3.72,1.84c2.49,1.21,5,2.4,7.57,3.55.09.14-.05.07-.22,0,1.62.63,3,1.3,4.49,1.87a1.62,1.62,0,0,1,.5.58,34.09,34.09,0,0,1,4,1.63L268,55.4Z"/></g></svg>