<svg xmlns="http://www.w3.org/2000/svg" viewBox="0 0 385.51 385.51"><defs><style>.cls-1{fill:#2c2c2c;}.cls-2{fill:#fff;}</style></defs><g id="marin"><polygon class="cls-1" points="222.04 123.3 216.54 130.5 205.78 131.93 198.1 125.59 197.16 115.67 201.42 109.36 213.42 107.04 219.34 110.85 222.04 123.3"/><path class="cls-1" d="M180,128l-.84,14.17,4,13.2s6.23,8.37,12,11.35"/><line class="cls-1" x1="205.78" y1="131.93" x2="195.44" y2="165.64"/><path class="cls-1" d="M230.17,140.81l-6.31,11L213,161.29s-10.26,3.9-17.06,3.1"/><path class="cls-1" d="M103.83,150.75s-8.69,17.47-6,34l90.66,27.41,89.3,29.11c11.71-12,14.57-31.31,14.57-31.31"/><path class="cls-1" d="M99,149.6A15.42,15.42,0,0,0,97.31,153,20.58,20.58,0,0,0,99,149.6Z"/><path class="cls-1" d="M97.29,153v0l0-.05Z"/><path class="cls-1" d="M286.68,209.89c-.05.29-.11.61-.17,1C286.58,210.52,286.64,210.2,286.68,209.89Z"/><path class="cls-1" d="M127.43,199.79l.31-.33c3,.89.73.7,3.5,1.44,1.24-.22,4.53,1.43,5.57,1.43,0,0,1.3.45,1.16.6.5-.17,1.4.35,2.27.53.33,0-.2-.16-.4-.32l2,.49c.73.32.86.55,0,.33,5,1.64,29.25,9.26,34.75,10.77-.63-.44-2.36-.8-2.89-1.34,1.5.24,2.1.71,2.8.7.39.68,3.13,1.08,4.05,1.94l.51-.17.66.39c6.43,1.63,1.51.25,7.08,2.1,3.25,1,4.91,1.11,6.66,1.84-.26-.09-.92-.5-.06-.3.06.3,2.29.54,2.62.93.83.24,3.47,1.14,2.68.49.4.33,2.75,1.17,1.29.86a17.94,17.94,0,0,0,2.15.69l-1-.43c2.71.82,4.1,1.58,6,1.83l-1-.46a9.88,9.88,0,0,1,3.5,1.47l-1.69-.43c2.68.86,4.3,1.36,6.59,1.91l-.79-.27c2.95.58,17.92,5.14,20.68,5.56l-1.12-.66,2.32.5c-.26-.09-1.36.52-1.56.36,4.84,1.55,30,9.53,34.42,11.17,1.75.73.18.53.15.57a6.67,6.67,0,0,0,1.58.32,1.25,1.25,0,0,1,.39,0c.29.07.79.23,1.59.5s-.21.16-.74,0a19.72,19.72,0,0,0,2.93.88c-1.81-.69-1-.81-1.73-1.28,1.33.46,2.66.87,4,1.29l-.12.2.36.08c.12,0,.29.12.37-.11s.45-.68.75-1.12a27.18,27.18,0,0,1,2.8-3.44c.28-.32.52-.65.79-1l.55-.7c.35-.46.74-.9,1.05-1.39.64-1,1.34-1.93,1.92-2.94,1.2-2,2.3-4.07,3.24-6.08a5.39,5.39,0,0,1-.58,1.88c.3-.53.64-1.38.95-1.84-.66.88.64-1.77.2-1,.83-3.18,2.68-6.94,3.11-9.8-.19-.18-1.79-2.23-3.49-4.09a23.67,23.67,0,0,0-3.81-3.62c.16-.73.31-1.51.37-1.6a8.51,8.51,0,0,0-.58,2.32l.28.21c-.32,1.85-.27.38-.69,2.17-.27,0,.1-1.62.37-3a12.33,12.33,0,0,0-.67,3.12c-.42,1.18-.26-.22-.76,1.21a15.81,15.81,0,0,1-.93,3.6l0,0a28.85,28.85,0,0,0-1.24,3.54c-.17.53-.33,1.05-.53,1.59a14.19,14.19,0,0,1-.82,1.67l0-.3c-.26.41-.54,1-.9,1.76a14.24,14.24,0,0,1-1.25,2.2c.29-.39.66-.66.17.23a35.16,35.16,0,0,1-2.66,3.81l-.61,1.19-.17.21-.08.1c0,.07-.09,0-.14,0l-.09,0h0l-.69-.22-12.76-4-21.54-6.81.3.06c-11.08-3.48-33.73-10.89-45.24-14.28-1.69-.81-4.14-1.55-6-2.21,1,.43.6.48-.2.22-5.64-1.73-.44,0-6.18-1.58-6.64-1.77-31.72-9.62-37.5-11.59-3.24-.6-7.07-2-10.21-2.75h.33c-3.33-.87-21.91-6.83-25.78-7.87l.5.21c-3.41-.8-2.84-1-5.44-2,.12.24-.56.21-1.4.07l-.65-.12a3.81,3.81,0,0,0-.5-.09,1.49,1.49,0,0,1-.33,0l.06-.07-.52-.06-.35,0-.12-.29a5.77,5.77,0,0,1-.22-.73c0-.12-.12-1-.17-1.63l.23.09a33.06,33.06,0,0,1,.33-7.85,61.51,61.51,0,0,1,1.5-6.45c.67-2.4,1.5-4.92,2.21-7.28.55-.92,1.14-1.83,1.74-2.7l.12-.45a16.5,16.5,0,0,0-2.94-3.24,3.74,3.74,0,0,0-6.16,1l-.16-.19-.51,1.36c-.72,1.58-.74,2.43-.91,2.24.29-.74.55-1.48.85-2.22-.67,1.61-.37.43-.23-.24-.3.67-.55,1.33-.82,1.86,0,.35.18-.21.31-.45a24.87,24.87,0,0,1-.93,3.26c-.54,1.71-.37,0-1,2a76.18,76.18,0,0,0-2,8c-.29,1.35-.44,2.75-.67,4.12s-.31,2.79-.35,4.21-.11,2.84,0,4.29l.07,1.51c0,.6.13,1.21.19,1.83l.44,3.69.11.93.06.46c0,.15,0,.35.19.36l1.76.57c1.17.39,2.36.76,3.57,1.12l4.64,1.4c.2.15-.07.07-.37,0,3,.82,5.7,1.66,8.47,2.39a3.78,3.78,0,0,1,1.1.68c-.2-.16,3.59.94,7.47,2.09l5.38,1.61C126.36,199.44,127.38,199.76,127.43,199.79Z"/><polyline class="cls-1" points="225.1 79.94 270.88 117.45 299.13 137.19 312.37 159.44 313.87 187.45 293.48 212.23 100.16 151.51 90.3 117.43 98.01 92.31 121.59 81.63 166.1 84.53 225.11 79.93"/><path class="cls-1" d="M223.65,85c1.22,1.31,3.57,3.27,5.78,5.13A65.75,65.75,0,0,0,223.65,85Z"/><path class="cls-1" d="M229.47,90.16l0,0-.08-.07Z"/><path class="cls-1" d="M222.53,74.45l-2.37.2C221,74.6,221.76,74.54,222.53,74.45Z"/><path class="cls-1" d="M307.77,185.69l0,.59c-4.36,5.31-1.62,1.25-5.58,6.22-1.14,2.28-6.75,8.11-7.91,10,0-.06-2,2.33-2,2.06a3.86,3.86,0,0,1-.48.81c-.16.22-.11.16-.13.19l0,0c-.05,0-.1,0-.13.13h0a.08.08,0,0,0,0,.08l.1,0-.05.1h-.33a.34.34,0,0,1-.06-.06l-.39-.17a1.56,1.56,0,0,1-.41-.23s0,0,.24,0l.39.09.25.07h0l-37.82-12.11c-16.33-5.2-32.78-10.4-38.84-12.22,1.49.7,5.26,1.72,6.56,2.52-3.25-.81-4.67-1.55-6.14-1.78-1.06-.9-7-2.33-9.22-3.61h-1l-1.53-.67c-14.13-4.1-3.25-.86-15.67-4.84-7.21-2.21-10.76-2.88-14.72-4.29.6.19,2.13.87.24.36-.24-.36-5-1.37-5.85-1.92-1.84-.54-7.74-2.43-5.85-1.45-.95-.49-6.21-2.22-3-1.39-1.77-.57-3.48-1.16-4.79-1.48l2.26.81c-6-1.84-9.23-3.14-13.24-4.05l2.17.84c-3.6-1.11-6.61-2-7.92-2.82l3.73,1c-6-1.86-9.57-3-14.6-4.34l1.77.56c-1.79-.45-5.66-1.57-10.43-3l-7.7-2.27-4.08-1.2-1-.3-.24-.06-.5-.12-.14-.37-.07-.18,0-.1-.06-.18-1-3.08c-.62-2-1.21-3.88-1.74-5.58-1.08-3.39-1.93-6-2.41-7.29l.51,2.79-1.69-5c.17.6,1.59,2.18,1.65,2.71-.74-2.51-2.24-7.67-4.14-14.15l6.71-22.08,20.87-9.47,6.28.43,4.76.36c4.18.43.72.5.67.54,5.11.23,2.22-.16,6.56.15,1.18.13-.26.21-.93.2a31.16,31.16,0,0,0,3.81.18c-2.37-.25-1.34-.54-2.33-.83l5.57.39-.26.21a61.94,61.94,0,0,1,8.67.08l11,.76L184.28,87a27.78,27.78,0,0,1-4,.6c1.25-.09,3.14-.27,4.29-.27-2.26-.06,3.89-.46,2.13-.42,6.76-1.07,15.6-1.26,21.57-2.1.49-.52,12.21-9.35,12.16-9.93,1.87-.13,3.72-.26,4.3-.26a49.15,49.15,0,0,0-6.11.35l-.31.34c-4.47.45-1.06-.11-5.43.26-.26-.24,3.76-.61,7.31-.91-3.2.22-6.39.28-7.67.66-3,.13.31-.33-3.31-.16-2.57.28-5.93.79-8.9.87l.05,0c-7.2.3-11,1.24-17.55,1.49l.7-.14c-2.33,0-6.88.59-11.08.76,1.19,0,2.25.06-.27.29-1.24,0-2.38.12-3.45.19l-2.61.19-2.2-.16c-.85-.07-1.69-.15-2.54-.26l-3.39,0L120.57,76l-27,12.38-8.77,29c2.27,7.82,3.13,10.76,3.76,12.94l-.22-.63c2.06,7.06,4.68,16,7.59,26l43.83,13.65c13.75,4.26,26.67,8.24,36.15,11.08,3.85,1.47,9.28,3.11,13.35,4.46-2.25-.81-1.42-.73.36-.16,12.47,3.94.89.1,13.54,4,14.59,4.34,70.11,22.05,82.94,26.3l1.46.39.79.22,1.33.39,5.43,1.64,7.57-9.25c1.86-2.26,3.65-4.47,5.24-6.53l-.39.61,3.76-4.63,7.28-8.81c-.48-9.54-1.07-21.27-1.56-31-2.1-3.54-4-6.75-5.58-9.4l-3.25-5.41.56,1.05c-1.84-2.9-2.69-4.38-3.33-5.58l-.91-1.76-.51-1-1.2-2.13-2.29-1.67c.42.79-5.15-2.82-7.24-4.24l.13,0c-3.17-2.13-10.45-6.8-15.65-10.36l.33,0L275.76,116l-2.5-1.69-5.59-4.55-4.38-3.59c-6.63-5.54-16.68-14.28-25.8-21.37l-5.38-5.22-.88-.64s-14.13-1.72-3.36,9.21l-.33,0L229.89,90c2.73,2.38,4.19,3.24,3.86,3.26l-3.82-3.16c2.77,2.35.73.83-.42,0,1.16,1,2.28,1.93,3.18,2.75.6.39-.35-.4-.76-.8,1.56,1.18,3.8,2.74,5.58,4.33,2.86,2.38,0,.43,3.3,3.2l26.7,22.23,13.86,9.8,13.46,9.43s0,.06-.05.07h0l-.17-.11.16.11h0l8.71,14.35a16.23,16.23,0,0,1,1.13,2.55c-.05-.13.2.25.68,1,.23.39.53.86.87,1.42l.26.43.12.2h0l0,0s0,0,0,.08c0,.53.06,1.09.1,1.66.06,1.15.13,2.37.21,3.64.14,2.54.29,5.25.44,7.91.24,4.4.47,8.6.6,11l-.05,0h0Z"/><path class="cls-1" d="M278.94,235l4.34,8.09,4.4,17-21.15,19.41-41.14,12.24s-37-2.37-60.33-9.85h0c-23.38-7.17-53.23-25.81-53.23-25.81L83.17,221.89l-6.25-28,13.33-11.44,8.19-4.17"/><path class="cls-1" d="M275.23,238.25a26.41,26.41,0,0,0,1.76,3.93A20.64,20.64,0,0,0,275.23,238.25Z"/><path class="cls-1" d="M277,242.21v0l0,0Z"/><path class="cls-1" d="M94.81,173.76l-1.17.61C94,174.18,94.44,174,94.81,173.76Z"/><path class="cls-1" d="M238,281.86l-.12.46c-3.66,1.09-1.2-.12-4.55,1-1.16.93-5.64,1.62-6.72,2.25,0-.05-1.65.43-1.6.23a1,1,0,0,1-.19.15c-.09.05,0,.05-.05.07s0,0,0,0l-.05,0h-.4c-.2,0-.13.05,0,.09l.27.06c.14,0,.06,0,.09.06h-.44l-.61,0-1.23-.05c-.95-.17-1.17-.38-.13-.32-3.19-.31-12.5-1.25-21.78-2.6s-18.48-3.14-21.81-3.84c.8.43,2.9.71,3.62,1.21-1.82-.14-2.6-.6-3.42-.57-.55-.68-3.85-1-5-1.89l-.57.17-.81-.4c-3.82-.86-4.22-1-4.55-1.1l-3.84-1.35c-1.9-.57-3.33-1-4.54-1.37a18.14,18.14,0,0,1-3.24-1.18c.31.13,1.07.64.07.32-.06-.32-2.67-.88-3-1.34-1-.38-4-1.77-3.14-1-.45-.38-3.15-1.72-1.46-1.11-.92-.44-1.78-.9-2.48-1.14l1.14.65c-3.14-1.38-4.69-2.49-6.85-3.17l1.07.69a13.71,13.71,0,0,1-4-2.34l1.94.86c-3.06-1.53-4.89-2.47-7.51-3.63l.9.48c-1.69-.69-6.77-3.22-11.74-5.91l-6.5-3.54c-.09,0-.13-.09-.19-.13l-.11-.1-.27-.29-1-1c-.6-.63-1.07-1.11-1.39-1.4l.79,1.39-2.06-2.09c.22.27,1.61.49,1.73.77l-11.68-13.78-7.78-9.22c-2.22-2.64-4.24-5.06-5.77-6.89-.32-1.59-.56-2.73-.7-3.4-.35-2.31.35-.51.4-.49-.72-2.75-.56-1.13-1.06-3.5-.1-.65.24.09.37.44a11.29,11.29,0,0,0-.53-2c.18,1.31-.28.84-.38,1.44l-.65-3,.25.08a18.89,18.89,0,0,1-1.53-4.58c-.39-1.92-.82-3.9-1.26-5.88-.27-1.24-.55-2.48-.82-3.7l1.16-1s0,.13-.11.22,0,.1-.08.16a3,3,0,0,1-.27.39l.29-.24c.12-.1.14-.09.5-.34-1.1.63,1.55-1.54.74-1a45.1,45.1,0,0,1,4.52-4.23l2.35-2c.38-.33.73-.65,1.07-1l.49-.47.22-.22.07-.11s0-.07,0-.21c-.49-.39.24-3.09.76-5.59a33,33,0,0,0,.93-5.17c.93-.46,1.86-.92,2.16-1a15.21,15.21,0,0,0-3.08,1.42l0,.37c-2.18,1.23-.61.1-2.77,1.22-.23-.17,1.74-1.23,3.5-2.15-1.6.78-3.27,1.42-3.79,2-.77.33-.76.24-.79.17s0-.07-.18,0a1.51,1.51,0,0,0-.3.09l-.24.1-.15.06-.3.14-1,.54-.76.7-.34.32-.19.19-.8.78a15.28,15.28,0,0,1-1.71,1.45v-.05a36.38,36.38,0,0,0-3.77,3.32c-.53.52-1.06,1-1.64,1.56-.28.26-.59.52-.91.79l-1.17.93.26-.29L76,187l-.14.1-.26.2-.6.5-1.37,1.16-3.22,2.78c.34,1.5.67,3.07,1,4.6-.24-1.31-.28-2.37.34.29.2,1,.39,2,.56,2.83l.34,1.6a29.15,29.15,0,0,1,.54,2.92l.65,1.79c.71,3.14,2.1,9.24,4.23,18.69,8.3,9.74,21.14,24.81,25.42,29.85l-.26-.26,3.89,4.58c.31.37.63.74.94,1.12a4,4,0,0,0,1.26.95l1.82,1.1,3.2,1.89c4.39,2.54,9.23,5.24,14.17,7.82a215.4,215.4,0,0,0,27.37,12.33,34.67,34.67,0,0,0,3.7,1.56l3.9,1.36c-.64-.27-.83-.4-.74-.43a.77.77,0,0,1,.33,0l.3.07.29.1c3.63,1.09,3.77,1.09,3.91,1.07s.32,0,4,.87c4.25,1,14.45,3.2,24.57,4.66s20.13,2.6,23.91,3c1,0,2.12,0,3.24.09l2.43.14a1.64,1.64,0,0,0,.72-.13l.72-.22,1.09-.32c2.16-.65,4.32-1.28,6.18-2l-.36.2c4-1.35,27.17-7.88,31.87-9.42l-.65.14.81-.28.89-.29,1.88-.56c.52-.46.95-.83,1.36-1.16.19-.15.44-.37.56-.45l.36-.26c.49-.35,1.06-.77,2-1.55-.61,0,2-2.66,3-3.63l0,.1c1.52-1.49,4.82-5,7.37-7.4l.05.25c.85-.92,2.1-2.12,3.36-3.3l5.2-4.77c-.18-.69-.33-1.28-.46-1.76-.2-.85-.42-1.76-.66-2.71-.17-.75-.35-1.53-.54-2.33-.29-1.26-.6-2.6-.91-4s-.68-2.83-1-4.27l-.55-2.16-.72-2.63c-.69-1.27-.92-1.64-1.31-2.3l-1.4-4-.35-.51s-9.88-2.28-7.3,6h-.26l.81,1.46c.86,1.83,1.52,2.53,1.26,2.51l-1.27-2.44c.89,1.81.12.62-.35,0,.38.76.74,1.49,1,2.11.26.32-.06-.3-.16-.6l.5.78.14.2c.06.1,0,.05.06.07l.08.07.05.07a.67.67,0,0,1,0,.07l.07.24c.08.32.16.64.22.95.49,2-.32.22.26,2.56.52,2.14,1,4.25,1.55,6.37l.69,2.85,0,.27-.23.15c.13-.13-.46.4-.8.71l-1.15,1c-1.54,1.37-3.07,2.75-4.61,4.14-3.08,2.77-6.15,5.57-9.25,8.44-.28.13,0-.11.22-.39l-1.56,1.5c-.74.68-.45.43-.53.52h-.06l-.09,0-.2.07-1.58.48-3.13,1a5.3,5.3,0,0,1-1.56.12c.3,0-4.36,1.45-9.13,2.89l-6.65,2C239.38,281.49,238.12,281.85,238,281.86Z"/><path class="cls-2" d="M220.5,121a1.78,1.78,0,0,0-.89.66A1.48,1.48,0,0,0,220.5,121Z"/><polygon class="cls-2" points="219.6 121.61 219.6 121.62 219.61 121.61 219.6 121.61"/><path class="cls-2" d="M230,122.16c0-.1,0-.21-.08-.32A1.16,1.16,0,0,0,230,122.16Z"/><path class="cls-2" d="M210,126.15l-.17.37c-.07,0,.2-.43.12-.36-.08.67-.73-.68-1.12-.62,0,0-.29-.31-.15-.43-.3.15-.39-.23-.65-.34s0,.11,0,.23l-.54-.31c-.13-.23-.06-.41.16-.27l-1.29-1.18-.18-.16V123a.43.43,0,0,1,0,0l.05-.07s0,0,0-.05,0-.34,0-.5c0-.32-.05-.64-.07-.94-.1-1.21-.2-2.21-.3-2.71-.21.25,0,.77-.34,1-.25-.44,0-.69-.23-.87.26-.11.27-.37.28-.65a2,2,0,0,1,0-.42s0-.16.08-.16l.17,0-.31,0,.19,0c-.27-.06-.21-.06-.14-.06h.06l-.18-.16,0,0a.67.67,0,0,1,.08-.18,1,1,0,0,1,.26-.35c-.06.07-.34.16-.25-.11.25.11.24-.71.54-.66.12-.24.63-.93.16-.9.23,0,.73-.61.6-.14.21-.29.19-.16.15-.26l-.1,0c0-.15.25,0,.07-.3l-.12-.07s0-.11.09-.09a1.23,1.23,0,0,1,.22.25v.12h0c.07,0,.09-.06.13-.25h0a.27.27,0,0,1,0-.14l0,0v0l.09,0,.4-.15,1.93-.64a14.75,14.75,0,0,0,3.09-1.2l-.44-.2.67-.38c-.08,0-.17,1-.26.9l1.53-.33.74-.2.54.31,1.6,1,.42.28.19.13a.89.89,0,0,1,.22.22h0c-.11.25-.4.29-.44.32.13.09.29-.1.3.06s-.21.09-.25.09,0,.13.09.08a4.19,4.19,0,0,1,.62-.37l0,.26-.21.06s.15,0,.3,0,.13,0,.2.13a1,1,0,0,1,.13.47c.18,1.27.55,2.62.78,3.89-.14,0-.27-.24-.41-.49a1.36,1.36,0,0,1,.06.6c.17-.36.27.49.32.23.73.81.5,2.11,1,2.85.49,0,8.56,0,9.13-.16a2.2,2.2,0,0,1,.06.6c.12-.1.07-.61-.06-.85l-.32,0c-.23-.59.15-.19,0-.77.25-.09.42.44.55.92-.07-.44,0-.91-.29-1,0-.43.31,0,.31-.53-.15-.33-.49-.74-.43-1.17h0c.05-1-.7-1.41-.64-2.35l.11.07c.07-.34-.25-.92-.22-1.52,0,.17-.17.35-.27,0,0-.69-.24-1.1-.15-1.62l-.34-.41-.37-1.67c-.23-1.05-.53-2.34-.87-3.87-4.32-2.71-5.76-3.52-9.81-6l-5.48,1.14.08,0-3.94.85-6.81,1.41-1.64,2.51-.78,1.19c-.15.24-.29.48-.44.71l-.71,1.18-.31.55-.15.25c-.08.15-.17.28-.25.42a22.87,22.87,0,0,0-2.19,2.79v0c.34-.35.41-.22.26.06v.15c.29,3.25.2.27.61,3.5,0,.19.07.42.11.68s.07.49.1.77c.06.57.13,1.23.2,2,.17,2,.35,4.36.52,6.48l3.31,2.87c.53.49,1,.89,1.2,1.14,1,.37,1.78,1.36,2.72,1.84a.41.41,0,0,0-.15,0c.48.33,1.95,1.57,3.62,3l5.27-.61c1-.11,1.88-.22,2.26-.31l-.17,0c1-.37.94,0,1.79.05-.16-.38.72-.73,1.07-.81v.09c.85-.18,2.69-.76,4-1l.08-.11.09.25a13.86,13.86,0,0,1,1.3-2l1.17-1.52a18.14,18.14,0,0,0,3-3.58l1.13-.43,0-.16s-5.05-6-7.62-5.27l-.16-.16-.23.35c-.39.33-.33.67-.48.51l.44-.53c-.36.36-.24,0-.22-.22a2,2,0,0,1-.45.39c0,.13.12,0,.21,0-.11.26-.17.69-.45.89-.33.39-.31-.2-.69.27l-1.85,2.14-.22.25h0l-.06,0-.11,0a.38.38,0,0,0-.13,0h0l-.12,0-.24,0-1,.13c-.08-.08,0-.09.09-.14-.95.22-1.8.3-2.66.51a.72.72,0,0,1-.42-.27,4.56,4.56,0,0,1-1.41.33.12.12,0,0,1-.08,0S210,126.16,210,126.15Z"/><path class="cls-2" d="M177.62,128.25a.73.73,0,0,0-.34.59A.64.64,0,0,0,177.62,128.25Z"/><polygon class="cls-2" points="177.27 128.84 177.27 128.84 177.28 128.84 177.27 128.84"/><path class="cls-2" d="M200.09,162,200,162A.14.14,0,0,0,200.09,162Z"/><path class="cls-2" d="M175.94,139.68l.39.06c0,.53-.46.12-.39.62.27.11.25.32.19.52a1.32,1.32,0,0,0-.08.3.5.5,0,0,0,.06.38c-.05,0-.09.46-.27.43.3.14,0,.49.11.78.08.1.09-.09.19-.17l.07.58,0,.07c0,.26-.19.35-.31.08l.53,2.12c.13.54.28,1.19.44,1.83a22.51,22.51,0,0,0,.89,3c.18-.19,0-.43.26-.65.27.19,0,.39.28.43-.49.26,0,.59-.42.94l.31,0-.14.18c.64,1,.22.2.45,1.19.21.55.7.69.65,1.05,0-.05.13-.23.25-.1-.25.1.3.33.06.48.08.13.18.6.49.34-.15.13-.1.56-.33.36,0,.15,0,.3.13.37l0-.2c.2.45,0,.79.41,1l.09-.22c.11.27.21.5-.11.72l-.19-.26c0,.11.07.22.1.32l.19.51a4.89,4.89,0,0,0,.49.93l-.08-.26a4.35,4.35,0,0,0,.82,1.06l.7.71.37.36c.12.12.18.16.27.24a5.51,5.51,0,0,0,1.7,1.12l.07-.36.46.18c0-.05-.83.43-.79.34.31.35,1.3,1.4,2.31,2.43s2.06,2,2.32,2.42-.26.37-.3.4c.39.22.34-.09.6.18,0,.11-.17.15-.24.14.15.09.2.26.29.18-.08-.22.22-.42.31-.64l.34.34-.17.15c.08.08.61-.27.88.13a18.9,18.9,0,0,0,1.9,1.63c-.09.1-.28.06-.47,0,.09.07.24.15.27.29,0-.31.37.09.31-.09.78-.07,1.2.78,1.85.78.15-.19,1.53-1.81,2.79-3.51s2.42-3.48,2.56-3.73c.08.05.15.11.16.17a.22.22,0,0,0-.21-.27l-.17.27c-.26,0,0-.19-.16-.29.12-.22.32-.17.49-.1-.13-.11-.17-.34-.37-.14-.08-.16.17-.25.08-.43-.16,0-.45.08-.51-.13l0,0c-.18-.42-.74,0-.91-.49l.09,0c0-.21-.37-.2-.47-.5,0,.09,0,.27-.18.19-.14-.32-.4-.33-.45-.63l-.33.06c-.4-.4-1.49-1.25-2.56-2.25s-2.14-2-2.55-2.49h.06c-.32-.33-.71-.76-1.13-1.25l-.32-.37c-.07-.08-.06-.05-.09-.08a.38.38,0,0,1-.1-.12l-.05-.07-.17-.47c-.13-.35-.25-.7-.37-1-.26-.67-.5-1.26-.74-1.73.15-.38,0-.79-.07-1.12,0,.2-.23.19-.26.05-.27-1-.18,0-.58-1a20.25,20.25,0,0,1-1-3.27c-.17-.68-.33-1.37-.45-1.95l-.09-.41,0-.1v-.06a.73.73,0,0,1,.05-.12l-.14,0c-.16-.15,0-.08-.15-.74l.08.06c-.1-.6.44-3.94.35-4.63l-.06.09c-.19-.62.2-.51.35-1-.41,0-.6-.49-.62-.69l.08,0a10,10,0,0,1-.38-1.49l.22,0a3.64,3.64,0,0,1-.08-1.48,5.77,5.77,0,0,0,.34-2.59l.66-.54,0-.09s-7.57-1.38-9.26-.29l-.22,0,0,.24c-.13.27.12.42-.1.39l.05-.39c-.08.28-.19.08-.31,0a.7.7,0,0,1-.13.32c.08.06.09,0,.14-.07.07.15.27.38.16.55s-.36,0-.41.34a44.16,44.16,0,0,0-.69,5.27c-.09,0-.09,0-.12-.07.06.55,0,1,.07,1.53a.66.66,0,0,1-.34.19A10.79,10.79,0,0,1,175.94,139.68Z"/><path class="cls-2" d="M203.6,131c-.26,0-.34.21-.43.37C203.43,131.29,203.57,131.18,203.6,131Z"/><polygon class="cls-2" points="203.16 131.35 203.16 131.35 203.17 131.35 203.16 131.35"/><path class="cls-2" d="M203.36,167.52l0-.14A.22.22,0,0,0,203.36,167.52Z"/><path class="cls-2" d="M200,139.39l.37.14c-.11.4-.47,0-.49.38.5.32-.24.61,0,.82,0,0-.11.17-.28.1.28.15,0,.21.05.35s.1,0,.2,0l0,.3c-.13.07-.31,0-.3-.08a30.54,30.54,0,0,0-1.7,4.67c.25,0,.17-.3.55-.28.13.26-.16.27,0,.42-.54-.09-.26.39-.83.38l.28.15-.21,0c0,1,.09.24-.22,1-.09.45.26.79,0,1,0,0,.22-.08.26.06-.26-.06.1.36-.18.34,0,.12-.15.47.24.46-.19,0-.37.31-.46.07,0,.11-.13.2-.07.3l.14-.11c-.06.38-.4.5-.15.84l.18-.09c0,.23-.08.42-.45.4l0-.26a1.59,1.59,0,0,0-.06,1l0-.11c.23.5-.1,2.63.22,3.12l.32-.08.14.38s-.84-.42-.74-.42a38,38,0,0,1-1.39,4.73c-.23.2-.45-.09-.49-.1,0,.33.25.21.15.46-.07.06-.21-.08-.24-.13,0,.12-.13.2,0,.25.14-.11.46.05.69.06l-.13.32-.2-.08c0,.07.52.36.31.65-.26.51-.37,1.13-.59,1.66-.12-.05-.16-.19-.2-.32,0,.07,0,.19-.14.23.26-.06.08.27.2.2.4.56-.24.93,0,1.39.45.18,7.77,3.22,8.33,3.39,0,.11-.09.21-.15.23a.27.27,0,0,0,.23-.32l-.29-.11c0-.3.2,0,.25-.27.25.06.23.31.19.53.09-.18.32-.32.08-.47.15-.15.29.11.46-.08,0-.17-.2-.44,0-.57l.05,0c.38-.35-.17-.77.19-1.08l.07.07c.18-.09.08-.42.3-.62-.07,0-.26.06-.25-.1.24-.23.15-.47.4-.62l-.17-.27c.35-1,1.21-5,1.47-6l0,.05c.34-1.54,1.31-4.64,1.46-6.31.31-.17.36-.52.5-.75-.14.11-.29,0-.25-.09.27-.76-.14-.1,0-.91a21.53,21.53,0,0,1,1.79-5c-.21-.54.21-1,.12-1.47l.07.06c0-.49,1.11-2.93,1.15-3.49l-.08.06c-.07-.52.29-.34.52-.67a.65.65,0,0,1-.49-.68l.08,0a8.39,8.39,0,0,1-.11-1.24l.21.08c-.14-.38.14-.93.18-1.16.24-.48.85-1.15.78-1.92l.74-.25,0-.08s-7.08-2.95-8.91-2.53l-.21-.08,0,.19c-.17.18,0,.35-.16.27l.11-.28c-.13.2-.19,0-.29-.11a.49.49,0,0,1-.18.22c.07.06.09,0,.15,0,0,.14.19.36.05.47s-.35-.09-.45.16a25.93,25.93,0,0,0-1.59,3.9c-.1,0-.08,0-.11-.08,0,.43-.18.79-.2,1.19a.87.87,0,0,1-.36.07C200.66,137.24,200,139.37,200,139.39Z"/><path class="cls-2" d="M228.37,138.9c-.28,0-.42.2-.56.37A.61.61,0,0,0,228.37,138.9Z"/><polygon class="cls-2" points="227.8 139.27 227.8 139.28 227.81 139.27 227.8 139.27"/><path class="cls-2" d="M198,170.38h.25A.69.69,0,0,0,198,170.38Z"/><path class="cls-2" d="M221.79,148.39l.33.22s-.39-.23-.32-.16.2.17.19.17-.17-.11,0,0a.69.69,0,0,1-.18-.17c.1.12.12.13.1.13s-.15.07-.18.15.09,0,.18.08l-.19.31c-.17,0-.31-.1-.22-.22a50.19,50.19,0,0,0-4.9,3.93c.25.09.37-.23.7,0-.06.33-.34.2-.28.44-.43-.35-.52.27-1,0l.15.28-.22-.06c-.66,1-.1.29-.91.9-.41.42-.34.93-.69,1,0,0,.26,0,.2.19-.2-.19-.18.41-.42.25-.09.13-.47.42-.11.59-.18-.09-.55.14-.47-.15-.11.09-.25.14-.28.27l.21-.05a2.63,2.63,0,0,1-.49.36c-.1.06-.07,0-.07.06a.86.86,0,0,0,.07.14l.11.1c0,.05,0,.11-.25-.19l0-.12s0,.07,0,.27h0a.37.37,0,0,1,0,.29c-.21.16-.57.37-.89.57a5.51,5.51,0,0,0-1.46,1.06l.28.22-.3.34s-.08-.94,0-.86c-.39.12-1.59.54-2.8.86a13.21,13.21,0,0,1-2.78.52c-.31-.11-.13-.44-.13-.48-.33.16-.1.32-.4.34-.09,0,0-.22,0-.27-.12,0-.26,0-.25.11.18.08.17.43.27.65l-.39,0v-.23c-.09,0-.14.64-.53.57-.65,0-1.32.14-1.94.11,0-.14.13-.22.25-.31-.08,0-.2,0-.28,0,.16.23-.25.17-.13.26-.44.58-1,.06-1.39.44,0,.24-.28,2.32-.69,4.4s-.91,4.17-.94,4.46a1.17,1.17,0,0,1-.43-.11c0,.14.41.24.62.17l.06-.3c.47-.08.09.19.55.2,0,.26-.42.28-.8.28.34.05.66.26.82,0,.31.13-.06.31.32.45.28-.06.61-.32.91-.17v.05c.73.26,1.1-.39,1.72-.17l-.06.09c.23.13.65-.09,1.06,0-.12,0-.23-.22,0-.27.46.12.74-.08,1.08.08l.28-.28a29.61,29.61,0,0,0,4.31-.88c1.73-.47,3.39-1,4.06-1.24l0,0,1.87-.64,1.11-.39,1.73-.65.5-.2.24-.1.2-.18.79-.7.67-.62.39-.38c.5-.5.94-1,1.28-1.38.4,0,.69-.36,1-.52-.21,0-.27-.13-.16-.22.79-.64-.06-.17.65-.92a34.32,34.32,0,0,1,5.26-4.26,1.18,1.18,0,0,1,.21-.4,2.69,2.69,0,0,1,.39-.4,8.58,8.58,0,0,0,1.1-1.06l.05-.14,0,.14a14.57,14.57,0,0,1,.74-1.37l.4-.64.4-.62a17.41,17.41,0,0,0,1.2-2l-.09.06c.1-.64.41-.37.75-.72-.39-.15-.33-.71-.26-.89l.08,0a9.22,9.22,0,0,1,.31-1.51l.18.13a3.58,3.58,0,0,1,.59-1.35,5.82,5.82,0,0,0,1.45-2.17l.84-.19,0-.11s-6.16-4.6-8.16-4.37l-.18-.13-.09.22c-.23.19-.08.43-.26.3l.22-.32c-.2.21-.2,0-.26-.17a.77.77,0,0,1-.26.22c.05.09.1,0,.16,0,0,.17.07.46-.11.57s-.32-.16-.51.12a43.51,43.51,0,0,0-3,4.41c-.1,0-.07,0-.08-.11-.19.51-.46.91-.62,1.39a.68.68,0,0,1-.39,0A11.05,11.05,0,0,1,221.79,148.39Z"/><path class="cls-2" d="M97.14,189.58a8.76,8.76,0,0,0,2.34,1A7.49,7.49,0,0,0,97.14,189.58Z"/><path class="cls-2" d="M99.5,190.62h0Z"/><path class="cls-2" d="M278.93,235.68l-.75-.23A7.16,7.16,0,0,0,278.93,235.68Z"/><path class="cls-2" d="M143.4,204.61l.26-.34c2.16.65.49.63,2.52,1.14.95-.3,3.3,1.06,4.08,1,0,0,.94.35.83.5.39-.2,1,.24,1.66.35.25,0-.13-.14-.27-.28l1.44.33c.53.26.61.47,0,.32,3.66,1.22,21.3,6.86,25.32,7.92-.44-.38-1.71-.6-2.07-1.09,1.11.12,1.53.54,2.05.47.25.64,2.28.83,2.91,1.59l.39-.2.47.34c4.71,1.1,1.11.14,5.17,1.5,2.37.73,3.62.69,4.88,1.26-.19-.06-.65-.41,0-.29,0,.29,1.68.35,1.9.7.61.17,2.54.83,2,.27.27.28,2,.91.9.73a9.68,9.68,0,0,0,1.58.5l-.72-.34c2,.59,3,1.21,4.35,1.31l-.68-.38a5.31,5.31,0,0,1,2.53,1.16l-1.24-.29a40.05,40.05,0,0,0,4.82,1.33l-.57-.2c2.18.33,13.12,3.58,15.17,3.77l-.79-.56,1.71.31c-.19-.06-1.07.62-1.21.48,3.53,1.12,21.92,6.88,25.11,8.13,1.26.57.1.5.07.54,1.63.42.78-.06,2.13.4.36.17-.14.19-.36.16.6.16,1.12.44,1.21.33-.71-.35-.29-.58-.54-.9l1.74.6-.14.19a6.9,6.9,0,0,1,2.85.42c2.86,1,6,2,8.93,3-.09.11-.73,0-1.36-.14a7.67,7.67,0,0,1,1.32.5c-.63-.45,1.27.25.75,0,2.3.18,4.91,1.55,6.9,1.81.32-.41,6.62-6.65,6.8-7.2a9.7,9.7,0,0,1,1.33.51,5.34,5.34,0,0,0-1.87-.74l-.21.26c-1.44-.36-.27-.29-1.65-.71,0-.27,1.29.09,2.41.43-1-.35-1.93-.86-2.43-.72-.91-.41.2-.27-.9-.74a12.63,12.63,0,0,1-2.85-.74l0,0c-2.17-1-3.57-.76-5.54-1.68h.24c-.68-.37-2.17-.65-3.44-1.23.36.17.63.45-.17.22-1.46-.64-2.54-.83-3.59-1.37L258.4,229c-5.25-1.76-26.13-8.2-31.42-9.88l.22,0c-8.09-2.51-24.6-7.91-33-10.3a38.78,38.78,0,0,0-4.33-1.67c.72.33.41.41-.17.22-4.11-1.27-.33.08-4.53-1.08-4.86-1.23-23.13-7-27.33-8.51-2.39-.35-5.16-1.47-7.47-1.93h.25c-2.44-.6-16-5-18.8-5.76l.36.17c-2.5-.53-2-.8-3.94-1.5.14.46-2,.05-2.82-.16l0-.08c-1.22-.29-4-.78-6-1.33l.14-.19a61.26,61.26,0,0,1-6-1.64,101.66,101.66,0,0,0-10.5-3.37l-2.17-1.31-.36,0s-6,6.16-1.66,9.16l-.14.19,1,.26c1.1.45,1.7.36,1.56.55l-1.55-.49c1.13.4.29.27-.18.26a12.87,12.87,0,0,1,1.29.51c.25,0-.14-.14-.3-.24a9.23,9.23,0,0,1,2.27.5c1.16.37,0,.36,1.33.8,7.16,2.34,14.06,4.7,21.36,6.85.14.14-.06.08-.28.05,2.22.57,4.16,1.2,6.19,1.71a2.08,2.08,0,0,1,.77.57,54.5,54.5,0,0,1,5.47,1.48l3.92,1.18Z"/></g></svg>