<svg xmlns="http://www.w3.org/2000/svg" viewBox="0 0 385.51 385.51"><defs><style>.cls-1{fill:#2c2c2c;}</style></defs><g id="orage"><polygon class="cls-1" points="175.56 31.59 113.35 179.01 167.68 183.02 170.62 267.12 211.56 132.98 155.44 152.24 175.56 31.59"/><path class="cls-1" d="M170.24,31.79c-1,1.67-2.28,4.71-3.53,7.58A80.87,80.87,0,0,0,170.24,31.79Z"/><path class="cls-1" d="M166.68,39.42l0,0,.05-.1Z"/><path class="cls-1" d="M169.59,33c-.12.77-.26,1.65-.41,2.54C169.33,34.64,169.48,33.78,169.59,33Z"/><path class="cls-1" d="M109.42,184.56l1.33-.3c7,.52,8,.71,8.93.88l.74.12,1.06.14c.59.07,1.54.15,3.26.25,2.72-.36,11.37.9,13.76.78-.05,0,3.3.3,3.07.47,1.05-.23,3.46.18,5.58.26.77,0-.56-.14-1.12-.27l4.85.25c1.89.24,2.34.45.28.33l6.43.53,4.3.34.21,0v.19c0,1.25.07,2.55.11,3.87.1,3.25.2,6.65.31,10.12.21,6.93.44,14.13.66,20.94.36,10.69.7,20.76,1,29.17.39,10.62.7,19.15.89,24.3,0-2.19-.05-5.18-.12-8.19s-.12-6,0-8c.22,3.18.29,5.72.34,7.83s.1,3.74.25,4.85c-.19,2.32-.08,6.32,0,10.65s.24,9,.12,13.25a2.38,2.38,0,0,0,.31.32l0,4.63v.19l5.52-18.71c.38-1.24.62-1.82,4.66-14.93,2.35-7.76,4-13.67,5.41-18.53s2.5-8.72,3.83-12.82c-.39,1.26-1.52,4.34-.43.49a11,11,0,0,0,.65-1.83l.5-1.71.31-1.12a21.1,21.1,0,0,1,1.08-3.41c.58-2,2.57-8.4,1.55-6.33.51-1,2.33-6.74,1.44-3.29.6-1.92,1.23-3.78,1.57-5.19l-.85,2.45c1.94-6.54,3.29-10,4.27-14.36l-.88,2.37c1.17-3.9,2.14-7.17,3-8.6l-1.12,4c2-6.47,3.14-10.38,4.59-15.82l-.59,1.92c.87-3.49,4-14.23,7.05-24.91,1.53-5.35,3-10.67,4.31-15.06l2.47-8.64c.77-2.7,1.35-4.77,1.67-6l-1.82,5,2.34-8.52a9.18,9.18,0,0,0-.16,2.06,7.72,7.72,0,0,1-.28,2.23l2.17-7.16L160.76,146c.46-2.7.87-5.15,1.21-7.14.68-3.93,1.21-7,1.51-8.72.91-4.45.58-.73.62-.67.8-5.47.09-2.4.89-7,.26-1.26.18.3.1,1a41,41,0,0,0,.61-4.08c-.52,2.53-.69,1.39-1.1,2.43l1-6,.17.3a73.68,73.68,0,0,1,1.06-9.31c1.74-9.86,3.46-20.61,5.17-30.54a32.66,32.66,0,0,1-.44,4.38c.23-1.33.53-3.36.83-4.58-.63,2.37.54-4.19.13-2.33.68-7.37,2.74-16.7,3.45-23.19-.39-.64-6-15.13-6.54-15.23.34-2,.68-4,.83-4.58a57.92,57.92,0,0,0-1.21,6.5l.25.41c-.69,4.81-.37,1.1-1.13,5.78-.29.21.37-4.11,1-7.91-.6,3.41-1.35,6.78-1.3,8.22-.64,3.19-.25-.41-1,3.44-.39,2.77-.75,6.42-1.42,9.56l0-.06c-1.54,7.65-1.58,11.83-3,18.81l.05-.77c-.56,2.46-1.18,7.38-2.09,11.84.27-1.27.63-2.35.21.35-1,5.12-1.44,8.66-2.26,12.39l-.36,3.66c-1.59,9.66-5.31,32.25-9.48,57.52l41.41-14.36,12.43-4.33,1.16-.43-.14.09.1,0c-.11.38-.23.82-.36,1.29-1.23,4.07-2.56,8.46-4,13.07l-8.93,29.49-8.92,29.61c-1.4,4.66-2.73,9.12-4,13.27-.31,1-.61,2-.9,3-.06.22-.12.44-.17.65-.1.37-.18.73-.27,1.07a2.51,2.51,0,0,0-.45.8c-.12.33-.24.71-.33.9a2.34,2.34,0,0,1-.07,1.14,10,10,0,0,0-.46,1.74,13.4,13.4,0,0,1-.39,1.85c0-.1,0-.31-.06-.6-.06-.53-.13-1.71-.19-3.27-.09-2.46-.18-5.36-.29-8.39-.52-17-1.1-35.48-1.5-48.42l-12.09-.95-5.46-.47c-7.86-.22-17.61-1.21-25.3-1.55l.78,0-6.27-.43-3.84-.3,2.91-6.78c1.88-4.4,3.78-8.87,5.56-13,3.55-8.35,6.59-15.51,7.84-18.6l-.55,1.17c3.05-7.8,3-6.59,5.65-12.63-.71.65,1.87-6,2.9-8.59l0,.13c1.54-3.83,4.85-12.57,7.45-18.87l.1.33c2-5.33,6.24-15.14,7.81-18.91,3.71-8.57,9.67-21.69,14.25-33.32l3.72-7.18.41-1.12s-2-14.94-9.89-.37l-.11-.33-1.24,3c-1.62,3.56-2.09,5.33-2.19,5l2.11-4.93c-1.59,3.6-.63,1-.16-.41-.66,1.5-1.3,3-1.87,4.14-.22.75.3-.49.59-1-.75,2-1.71,4.77-2.8,7.1-1.59,3.7-.43.1-2.28,4.42-9.79,22.76-19.36,44.78-29.05,67.87-.31.49,0-.13.2-.81-2.88,7-5.44,13.16-8.06,19.52a18.47,18.47,0,0,1-1.47,2.63c.27-.42-2.39,6-5.52,13.48-4.33,10.29-9.3,22.06-11.55,27.42Z"/><polygon class="cls-1" points="85.15 203.31 68.86 258.88 82.62 273.35 97.83 314.82 101.44 257.7 85.15 250.62 85.15 203.31"/><path class="cls-1" d="M80.27,202.8a14.26,14.26,0,0,0-1.22,3.07A12.25,12.25,0,0,0,80.27,202.8Z"/><path class="cls-1" d="M79,205.9h0l0,0Z"/><path class="cls-1" d="M79.48,204.22c0,.31,0,.66,0,1A8.64,8.64,0,0,0,79.48,204.22Z"/><path class="cls-1" d="M68.78,267.26l.42-.14c2,2.11.25.93,2.19,2.82,1.14.38,3,3.3,3.91,3.77,0,0,.86,1,.67,1.05.5.08,1,.93,1.62,1.49.27.16-.08-.23-.17-.46l.33.31.08.08h0l.11,0h0a.3.3,0,0,1-.28.17v0s0,0,0,.13c.15.43.32.92.5,1.46.38,1.08.84,2.37,1.34,3.81,1.17,3.31,2.58,7.27,4,11.24,4.91,13.6,10,27.57,11.82,32.32-.5-2-1.61-4.63-2-6.81.93,1.93,1.39,4,1.77,4.41a29.84,29.84,0,0,0,1.32,4.58,49.4,49.4,0,0,1,1.67,5.55l.16-.46.56,2.06c1.54,3.83,2,5.09,2.28,5.67s.2.58.68,2c.06-.77.17-2.12.35-4.59.19-3.27.25-6.06.3-8.34s.09-4.08.26-5.52c0,.51-.26,1.19-.23-.63.12.32.15-.89.18-2.14a8.83,8.83,0,0,1,.2-2.52c.07-1.63.41-6.48,0-5.72.21-.34.55-4.59.52-1.61.11-1.47.25-2.83.24-4.06l-.21,1.71c.14-2.56.31-4.38.44-6.08a46.24,46.24,0,0,0,.16-5l-.25,1.66c.16-3,.29-5.39.71-6.33l-.09,3.19c.15-2.53.26-4.55.37-6.48,0-.95.07-1.88.11-2.84,0-.19,0-.38,0-.58v-.38c0-.27,0-.54,0-.81l-.06.79c-.19-2.85.45-17.63.15-20.25l-.35,1.18-.1-2.26c0,.27.85,1.14.74,1.36.11-1.87.35-6,.65-11.17l-16.55-7.11c0-.88,0-1.68,0-2.33,0-1.42,0-2.52.06-3.17.16-1.79.45-.32.5-.3-.11-2.18-.3-.94-.28-2.79,0-.51.22.1.26.39,0-.81.07-1.56-.07-1.63-.1,1-.45.59-.68,1l0-2.38.22.1a11.73,11.73,0,0,1-.48-3.68c.09-4,0-8.23.07-12.2a5.25,5.25,0,0,1,.29,1.73,11,11,0,0,1,.07-1.83c-.24,1-.16-1.67-.26-.92-.54-2.9,0-6.66-.42-9.23-.48-.22-8.37-5.49-9-5.49a17.28,17.28,0,0,1,.07-1.83,8.84,8.84,0,0,0-.12,2.6l.31.15c.1,1.91-.19.44-.17,2.31-.25.1-.31-1.62-.33-3.13,0,1.36-.22,2.72.06,3.27-.1,1.29-.31-.14-.42,1.41a20.31,20.31,0,0,1,.18,3.8l0,0c-.26,3.07.39,4.7.13,7.5l-.09-.3c-.14,1,0,2.94-.1,4.73.05-.51.23-.95.26.12-.16,2.06,0,3.46-.2,5l.25,1.45c0,1.63,0,4.35,0,7.61,0,4.35.07,9.42.1,14.46l12.46,5.3,2.06.87c.61.26,1.52.65,1.34.56l.4.13c0,.21,0,.37,0,.48-.06,1-.1,1.66-.13,2.2l0-.29C95.43,269,95,277.3,94.48,285.7l0,.37v1.81c0,.7,0,1.47,0,2.33-.21-.62-.18-.06-.25-.09a9.78,9.78,0,0,1,.19,1.29v0c-.17-.51-.15-.33-.13-.09s.06.54-.15.13a33.62,33.62,0,0,1-1.56-4.12c-.07-.23-.14-.45-.22-.68l-.05-.16-.15-.43c-.15-.44-.31-.88-.47-1.32-.61-1.74-1.2-3.41-1.73-4.94-1.07-3.06-1.92-5.55-2.37-6.92-.28-.6-.6-1.38-.89-2.1l-2.24-2.23c-.51-.53-1-1.08-1.55-1.61-1-1.08-2-2.14-3-3l.27.17c-.55-.54-1.66-1.7-3.08-3.2l-2.32-2.47-.31-.33-.14-.17-.29-.33.16-.47.08-.24c.09-.29.17-.58.26-.86.41-1.35.8-2.66,1.16-3.85.72-2.39,1.28-4.33,1.53-5.3l-.19.47c.71-3.23,1-2.68,1.81-5.14-.48.21.09-2.56.37-3.61l.07.07c.39-1.58,1.09-5.21,1.79-7.8l.18.16c.41-2.21,1.68-6.22,2.11-7.77,1.13-3.51,3.09-8.84,4.2-13.65l1.5-2.87.07-.46s-5.89-7.06-9.27-1.28l-.19-.16-.33,1.24c-.54,1.44-.49,2.2-.68,2l.62-2c-.49,1.47-.3.4-.26-.21-.2.62-.4,1.21-.61,1.69,0,.32.15-.19.26-.41a15.52,15.52,0,0,1-.67,2.94c-.46,1.51-.37,0-.91,1.76-2.91,9.32-5.82,18.32-8.54,27.79-.15.19-.07-.06,0-.35-.75,2.88-1.52,5.41-2.19,8a3.32,3.32,0,0,1-.65,1,18.54,18.54,0,0,1-.68,2.77c-.26.9-.55,2-.86,3-.59,2-1.21,4.19-1.81,6.25l5.17,5.43C68.26,266.69,68.75,267.21,68.78,267.26Z"/><polygon class="cls-1" points="269.07 353.92 244.58 198.34 285.23 208.71 263.23 126.73 316.65 226.32 271.81 233.9 269.07 353.92"/><path class="cls-1" d="M273.52,351.15c0-1.75-.48-4.72-.88-7.53A65.4,65.4,0,0,0,273.52,351.15Z"/><path class="cls-1" d="M272.64,343.56v0Z"/><path class="cls-1" d="M274.78,352c0-.71,0-1.52,0-2.34C274.79,350.39,274.77,351.19,274.78,352Z"/><path class="cls-1" d="M251.93,207.55l-.46-.37-.09-.59,0-.11v-.1a.2.2,0,0,1,0-.1.16.16,0,0,1,.15,0c.1,0,.21.07.13-.08a1.45,1.45,0,0,1-.24-.31c0-.1.25,0,.39.09a1,1,0,0,0,.18.09l.92.21q.5.11.84.15c-.06,0,2.89.8,2.66.92,1-.06,3.06.71,4.94,1.11.7.09-.47-.22-1-.43l4.3,1c1.65.52,2,.8.19.37l7.43,2,21.06,5.44c-3.33-12.55-7.39-27.9-11-41.44,0-.12,0-.09-.13-.38a2.73,2.73,0,0,0-.32-.54,7.54,7.54,0,0,1-.45-.65c-.23-.45-.24-.54-.23-.57s0,0-.22-.53a5.74,5.74,0,0,0,.64,1.08,9,9,0,0,1,.78,1.59l-.78-1.73.47,1-.47-1.17c-.09-.23-.12-.32-.14-.38s0,.07.21.45l.1.24c-.17-.53-.29-.92-.4-1.25s-.17-.65.07,0c0,0-.48-1.29-.52-1.52.26.77.24.61.24.52s0-.14.25.54c.05,0,.45.85,0-.78.13.43.31.9.42,1.24a1.41,1.41,0,0,1,.13.67c.11.22.21.52.25.43l-.17-.54a7.62,7.62,0,0,1,.46,1c.12.28.2.4.44.49,0-.15-.06-.31-.1-.49a4.17,4.17,0,0,1,.39.75l0,.09v0l0,.1.11.22c.13.29.25.56.37.81a8.61,8.61,0,0,1,.47,1.32l-1-1.65-.23-.41-.12-.21,0,0-.06-.06c1.26,2.33,2.28,4.19,3.25,6,1.13,2,2.22,4,3.51,6.16l-.85-1.61c1.7,2.78,6.64,11.64,11.56,20.44l7,12.39,1.45,2.54.08.15,0,.05.05.08.11.15.2.31c.27.39.52.73.71,1a5.41,5.41,0,0,0-.11-.8l1.28,1.87a5.68,5.68,0,0,0-.93-.79c-.41-.29-.75-.49-.73-.54.1.17.22.4.43.78l-2.25.4-10.94,1.89-29.12,5c-.18,8.14-.36,15.83-.5,22.11-.13,5.29-.25,9.38-.34,11.48-.25,4.12-.46.73-.51.68,0,5,.26,2.17.13,6.44-.07,1.16-.21-.25-.24-.91a34.23,34.23,0,0,0,0,3.75c.16-2.34.49-1.34.74-2.32l-.16,5.48-.21-.25a61.08,61.08,0,0,1,.29,8.5c-.3,9.08-.45,19-.71,28.09a26.58,26.58,0,0,1-.2-4c0,1.22,0,3.09-.16,4.21.28-2.2.07,3.84.21,2.12.39,6.7-.31,15.35-.07,21.26.47.53,8.08,12.84,8.66,12.86-.05,1.83-.1,3.65-.16,4.21a49.86,49.86,0,0,0,.26-6l-.31-.34c0-4.41.21-1,.29-5.33.26-.22.22,3.74.17,7.23.1-3.14.35-6.26.1-7.55.18-2.95.31.34.5-3.22,0-2.53-.19-5.86,0-8.76l.05.05c.42-7.07-.14-10.83.27-17.28l.06.7c.2-2.28.11-6.78.36-10.9-.08,1.17-.29,2.19-.26-.29.27-4.73.18-8,.46-11.42l-.17-3.33c.09-4.5.26-12.63.47-22.26.09-4.82.19-10,.29-15.32,0-2.66.1-5.34.15-8l0-2,0-1v-.47l46-8-1.15.24,2.81-.48c-6.91-12.82-17.25-32-27.6-51.16L277.06,141.8l-19.71-36.33c-3.3-6.57-7.11-13.67-10.48-20,.38,1.44.74,2.83,1.08,4.13-.8-3.39.14-.54,1,2.55,3,11.12,3.19,11.78,3.47,12.57s.61,1.77,3.71,13.11c2.77,10,8,29.33,13.79,51.1,2,7.5,4.09,15.41,6.13,23.07.74,2.84,1.48,5.63,2.18,8.31.16.67.31,1.31.46,1.92l-2.16-.64-6.58-1.76c-3.5-.7-7.38-1.67-11.25-2.65l-7-1.77c-3.3-.82-6.48-1.61-9.39-2.29l1.12.19L239,192.19c.68,4.3,1.74,11.08,3,19,.78,5.09,1.68,10.92,2.56,16.65,1.76,11.48,3.46,22.57,4.15,26.54l-.13-1.17c1.4,7.47.85,6.51,1.66,12.44.28-.84,1.52,5.55,1.93,8l-.1-.08c.65,3.69,2.32,12,3.33,18.11l-.26-.21c1,5.06,2.45,14.65,3.05,18.31,1.23,8.38,2.88,21.35,4.93,32.49l.51,7.33.23,1.05s9.37,10.46,8.65-4.57l.26.2-.49-2.92c-.45-3.52-.95-5.11-.7-4.9l.73,4.81c-.49-3.54,0-1.1.35.23-.21-1.48-.41-2.91-.53-4.09-.19-.68,0,.53,0,1.08-.38-1.88-1-4.49-1.26-6.81-.55-3.61.32-.29-.32-4.5-3.33-22.23-6.46-43.78-10-66.21,0-.53.1.08.25.72-1.13-6.75-2.12-12.75-3.14-18.9a16.32,16.32,0,0,1-.1-2.73c0,.52-1.4-8-2.79-16.66-.69-4.35-1.38-8.75-1.91-12.09S252,207.69,251.93,207.55Z"/></g></svg>