<svg xmlns="http://www.w3.org/2000/svg" viewBox="0 0 385.51 385.51"><defs><style>.cls-1{fill:#2c2c2c;}.cls-2{fill:#2c2c2d;}</style></defs><g id="coulé"><polygon class="cls-1" points="124.34 299.75 115.58 258.45 95.14 239.56 88.71 269.65 93.38 310.95 124.34 299.75"/><path class="cls-1" d="M128.93,298.13a7.76,7.76,0,0,0-.2-2.38A6.55,6.55,0,0,0,128.93,298.13Z"/><path class="cls-1" d="M128.74,295.74v0Z"/><path class="cls-1" d="M121.79,294.65l-.68.26A6,6,0,0,0,121.79,294.65Z"/><path class="cls-1" d="M116.86,251.7l-.37.2c-1.55-1.42-.14-.75-1.63-2-1-.1-2.33-2.23-3-2.46,0,0-.64-.68-.48-.77-.42,0-.76-.61-1.26-1-.21-.09.06.17.11.35l-1.08-.85c-.32-.44-.3-.66.15-.29l-1.59-1.55c-1.12-1.05-2.45-2.32-3.93-3.72L91.53,228.18l-2.7,12.4c-.39,1.83-.73,3.47-1,4.87s-.5,2.48-.67,3.29l.06-.09.08-.22.15-.49c.1-.37.2-.76.3-1.15a6.35,6.35,0,0,1,.68-1.87c-.22,2-.67,2.78-.64,3.68a.61.61,0,0,0-.12.15.32.32,0,0,0-.1.1,1.57,1.57,0,0,0-.16.29,7.68,7.68,0,0,0-.25.8,3.42,3.42,0,0,1-.68,1.55l.24.35-.29.45c-.63,4.47-.06,1-1,4.92-.43,2.27-.24,3.43-.66,4.65,0-.19.33-.65.28-.05-.28.05-.14,1.6-.47,1.83-.09.58-.52,2.42,0,1.87-.25.28-.68,1.92-.62.9l-.2.8c0,.13-.06.25-.08.37s-.07.43-.09.62l.19-.64.13-.34q-.12.52-.21,1c-.09.42-.18.81-.27,1.18.08.88.15,1.64.21,2.35a5.73,5.73,0,0,0,.32,1.33l.07-.73a4.71,4.71,0,0,1,0,2.59l-.24-1.16a35.78,35.78,0,0,0,.75,4.59l-.06-.56c.59,2,2.08,12.48,2.75,14.29l.18-.89.42,1.57c0-.19-1-.67-.93-.84.16,1.27.56,4.52,1,8.26.64,5.52,1.37,11.76,1.92,16.55,3.66-1.32,6.53-2.34,7.85-2.76,2.08-.59.38.34.33.4,2.63-1.06,1.11-.72,3.31-1.49.61-.16-.06.26-.41.43.48-.19,1-.36,1.31-.47s.34-.13.34-.2a1,1,0,0,1-.4,0,.57.57,0,0,1-.27-.09c-.13-.09-.18-.23-.45-.25l1.82-.62v.23a6.23,6.23,0,0,1,2.32-1.36c2.7-.87,5.56-2,8.25-2.91,0,.14-.53.42-1.06.69A6.5,6.5,0,0,1,114,308c-.73,0,1.07-.55.53-.46,1.77-1.22,4.48-1.67,6.08-2.65,0-.51.86-9.21.66-9.76a11.15,11.15,0,0,1,1.26-.38,4.61,4.61,0,0,0-1.8.52v.33c-1.25.57-.36-.07-1.62.41-.15-.22,1-.69,2-1.08-.93.31-1.91.46-2.19.86-.9.21,0-.33-1.08,0a11,11,0,0,1-2.51,1.09v-.05c-2.16.5-3,1.51-5,1.95l.17-.15c-.71.1-2,.76-3.22,1.05.36-.07.72,0,0,.28-1.44.35-2.33.85-3.41,1l-.89.58-4.34,1.59-.53.27c0-.12-.07-.25-.11-.37l0-.12v-.1l0-.33c-.11-.87-.22-1.74-.33-2.57-.42-3.34-.78-6.23-1-7.76l.07.19c-.34-2.77-.81-6.58-1.32-10.7-.25-2.05-.51-4.19-.76-6.3-.13-1.06-.26-2.12-.39-3.16-.07-.52-.13-1-.2-1.54l0-.39,0-.16v0l0-.12v-.14l.05-.26c.08-.41.15-.8.23-1.19.15-.78.29-1.53.43-2.25.26-1.45.5-2.77.71-3.93A37.29,37.29,0,0,0,96.45,258c-.26.69-.37.41-.25-.15.87-3.9-.11-.3.64-4.27.09-.57.23-1.33.41-2.25.07-.33.14-.73.22-1.16.12-.58.28-1.25.44-1.84.52.52,1,1,1.37,1.44l.26.29.1.12,0,0,.12.12.25.25,1.53,1.52c1.88,1.24,3.72,3.32,5.48,4.63l-.22-.09c.4.33,1.17,1,2.16,2l1.62,1.53.44.41.1.1.21.21.06.38.27,1.4c.21,1.05.42,2.08.61,3,.38,1.89.71,3.43.9,4.16l0-.37c.71,2.27.25,2,.52,3.89.35-.33,1,1.61,1.18,2.36h-.09c.31,1.12,1.2,3.63,1.65,5.51l-.23,0a53,53,0,0,1,1.36,5.62,87,87,0,0,0,1.94,10.05l-.14,2.36.13.31s8.23,2,8.85-2.88l.23,0-.22-.89c-.12-1.11-.48-1.55-.25-1.53l.29,1.49c-.17-1.1.11-.36.32,0a9,9,0,0,1-.15-1.28c-.13-.19-.06.18-.07.36a8.23,8.23,0,0,1-.63-2.07c-.21-1.12.34-.15.09-1.45-1.29-6.88-2.45-13.57-4-20.48,0-.18.09,0,.17.2-.53-2.06-.89-3.93-1.39-5.8a2,2,0,0,1,.14-.9,12.94,12.94,0,0,1-.6-2.25c-.16-.7-.34-1.51-.53-2.33-.31-1.43-.63-2.91-.92-4.28l-3.22-3C117.18,252,116.87,251.73,116.86,251.7Z"/><polygon class="cls-1" points="213.05 273.96 200.25 202.49 165.18 161.97 154.87 207.46 153.22 252.96 157.34 290.76 213.05 273.96"/><path class="cls-1" d="M217.6,272a25,25,0,0,0-.45-4.22A20.51,20.51,0,0,0,217.6,272Z"/><path class="cls-1" d="M217.15,267.73v0Z"/><path class="cls-1" d="M210.28,268.88l-1.24.39C209.46,269.15,209.89,269,210.28,268.88Z"/><path class="cls-1" d="M198.32,191.34l-.46.08c-2.47-2.84-.37-1.13-2.73-3.69-1.31-.66-3.74-4.42-4.75-5.13.05,0-1-1.31-.85-1.34-.57-.2-1.2-1.28-2-2-.32-.24.12.27.24.55l-1.7-1.79c-.55-.79-.57-1.09.14-.32l-6.62-7.83L162,149.27c-1.8,7.83-3.52,15.38-5,21.7-.41,1.83-.78,3.48-1.1,4.88-.26,1.23-.48,2.24-.64,3,.43-.82.75-2.94,1.28-3.65-.2,1.83-.66,2.62-.63,3.45-.69.57-1,3.9-1.86,5.13l.18.58-.38.85c-1.48,7.94-.26,1.83-1.91,8.79-.87,4-.89,6.05-1.55,8.26.08-.33.46-1.18.3-.11-.3.11-.44,2.82-.82,3.27-.07.33-.18.82-.3,1.39s0,1,0,1.56c0,.36,0,.7,0,1,0,.54.11.79.27.35-.21.57-.39,3.6-.49,1.78,0,1-.13,2-.08,2.75l.15-1.3c-.07,3.45-.42,5.32-.17,7.59l.19-1.28a14.67,14.67,0,0,1-.48,4.6l0-2.13c-.11,3.43-.16,5.49-.07,8.36l0-1c.1,1.57.08,6,.06,10.78,0,2.4,0,4.89,0,7.16s0,4.55,0,6.16c0,.22.06.42.09.62s.05.27.07.39.07.42.11.61c.07.37.13.68.19.9l.11-1.56.55,2.84c0-.34-1.06-1.28-1-1.58.27,2.34,1,8.43,1.76,15.37,1,8.65,2,18.37,2.84,25.56l7.89-2.35,2.93-.86,1.64-.47c2.25-.51.53.31.52.36,2.65-.91,1.07-.63,3.36-1.3.64-.14-.07.25-.41.4a10.56,10.56,0,0,0,2-.67c-1.28.28-.85-.22-1.45-.28l2.94-.85-.06.25a18.88,18.88,0,0,1,4.4-1.84c4.89-1.37,10.15-3,15.05-4.46a8.47,8.47,0,0,1-2.05.92,19,19,0,0,1,2.28-.62c-1.25.13,2-.77,1.06-.59,3.42-1.59,8.2-2.52,11.25-3.82.14-.55,4.35-10.06,4.19-10.62,1-.28,2-.57,2.27-.61a14.24,14.24,0,0,0-3.24.85l-.09.35c-2.32.81-.6,0-2.9.7-.19-.21,1.91-.9,3.77-1.48-1.69.48-3.42.8-4,1.28-1.61.37.08-.35-1.85.12a35,35,0,0,1-4.64,1.58v-.06c-3.86.89-5.67,2.12-9.21,2.91l.35-.19c-1.26.23-3.61,1.14-5.86,1.66.64-.14,1.24-.13-.08.3-2.58.61-4.26,1.28-6.17,1.65l-1.71.78-7.76,2.35-5.47,1.68-.5.19c0-.11,0-.22-.08-.34l0-.19c-.09-.79-.18-1.58-.28-2.37-.38-3.27-.77-6.56-1.13-9.66-.72-6.19-1.35-11.59-1.68-14.42l.08.35c-.14-1.15-.28-2.41-.48-4.12.19-6,.43-13.91.69-21.93.12-4.08.25-8.2.37-12.14.09-3.77.18-7.37.27-10.59.59-2.84,1-5,1.45-7,.73-2.14,1.36-5.19,1.95-7.47-.39,1.25-.46.78-.22-.22,1.61-7-.06-.51,1.44-7.6.4-2,1.13-5.35,2-9.39.22-1,.45-2,.7-3.06l.41-1.68,1.2,1.46.53.67,1.81,2.16c2.79,3.29,5,6,6.25,7.46,2.88,2.77,5.92,6.71,8.65,9.5l-.33-.24c.74.8,2.31,2.61,4.29,4.91l5.9,6.92c.5,2.91,1,5.81,1.41,8.22.49,2.79.89,5,1.13,6.17l-.06-.65c1,4.13.47,3.64.94,6.95.32-.5,1.19,3,1.47,4.4l-.1,0c.44,2,1.62,6.65,2.28,10l-.24-.09c.74,2.79,1.6,8.14,2,10.17.75,4.68,1.65,11.94,3.06,18.12l.1,4.14.16.58s8.68,5.14,8.8-3.38l.25.09-.32-1.62c-.25-2-.66-2.83-.42-2.74l.45,2.68c-.29-2,.08-.62.33.11-.12-.83-.24-1.63-.29-2.29-.15-.37,0,.3,0,.61a25.49,25.49,0,0,1-.86-3.78c-.34-2,.33-.19-.07-2.54-2-12.39-3.94-24.42-6.22-36.9,0-.3.09,0,.2.39-.77-3.75-1.33-7.1-2-10.51a5.08,5.08,0,0,1,0-1.55,21.16,21.16,0,0,1-.62-2.86l-1.56-8.39-5.36-6.18C199.16,192.34,198.36,191.41,198.32,191.34Z"/><path class="cls-2" d="M376.58,121.18l-17.29-2.51-18.44-7.62L323.79,96.52,315,86.11l-12.75-4.65,1.92,15.06-15.06,14.53-18.44,7.62-14.73,2.51h-1.28l-16-2.51-18.44-7.62L203.11,96.52l-8.83-10.41-12.75-4.65,1.92,15.06-15.06,14.53L150,118.67l-14.74,2.51h-1.27l-16-2.51-18.45-7.62-17-14.53L73.6,86.11,60.85,81.46l1.92,15.06L47.71,111.05l-18.45,7.62a150.37,150.37,0,0,1-16,2.51v32.69H30.94a150.25,150.25,0,0,0,16-2.51l18.45-7.62,15.06-14.53-1.92-15.06,12.75,4.65,8.82,10.41,17.06,14.53,18.45,7.62,16,2.51h1.27l14.74-2.51,18.44-7.62,15.06-14.53-1.92-15.06L212,118.8l8.83,10.41,17,14.53,18.45,7.62,16,2.51h1.27l14.74-2.51,18.44-7.62,15.06-14.53-1.92-15.06,12.75,4.65,8.83,10.41,17.06,14.53L377,151.36"/><path class="cls-2" d="M373.74,115.89c-1.49-.33-3.53-.7-5.81-1.07l-7.17-1.12.27.06.35.07.71.14,1.46.28,3.07.55C368.75,115.16,371.08,115.52,373.74,115.89Z"/><path class="cls-2" d="M360.74,113.69h0Z"/><path class="cls-2" d="M375.75,144.72,372,143.17C373.23,143.7,374.51,144.24,375.75,144.72Z"/><path class="cls-2" d="M177.29,94.27a1.38,1.38,0,0,1,.4,0c0,.08,0,.16,0,.2a.92.92,0,0,1-.2.14l0,0-.3.27-.49.43c-.57.49-.83.67-1.12.89a52,52,0,0,0-4.89,4.55,36,36,0,0,1-2.5,2.7l-1.73,1.71-.94.91-.17.17,0,0-6.13,2.45c-2.18.88-4,1.65-5,2.15a6.25,6.25,0,0,0-.73.27l-1.65.64a8.91,8.91,0,0,1-2.24.74,7.11,7.11,0,0,1-.76.43l-.39.19s0,0,0,0h0s0,0-.08,0l-.79.14-1.7.27c-1.17.19-2.41.39-3.57.61s.89-.06,1.81-.12l-7.58,1.4a6.94,6.94,0,0,1-1.69.17.09.09,0,0,1,0-.15l0,0h0l.17,0,1-.18-1.19.19h-.35l-14.89-2.41L102.55,106l-16-13.68L77.08,81.11,53.74,72.56c.95,7.51,1.88,14.83,2.76,21.75L44.39,106l-11.54,4.81c2.67-.85,8.8-3.55,11.29-4.18-5.22,2.38-7.83,3.16-10.09,4.32a17.43,17.43,0,0,0-2.83.89l-3.64,1.42-2.21.4c-.82.15-1.64.29-2.42.4a34.27,34.27,0,0,1-4,.42l-.76.27-.37.13-.19.07-.36.09-2.8.24-2.91.16-4.15.35c.13,15.36.15,16.93.16,18.45,0,1.08-.07,2.13-.11,12.92q0,6.95.07,12.47L19,159.5l5.15-.11,4.49-.07h2.17a12.66,12.66,0,0,0,1.3-.06l1.25-.09c-.32,0-.66.06-1.16.07s-.95,0-1.18,0c-.4-.08-.43-.06,1.69-.29a28.81,28.81,0,0,0,5.14-.61c2.42-.42,4.92-.93,5.77-.95l3.52-.7.74-.15a3.71,3.71,0,0,0,1-.28l1.29-.54,1.92-.82c2.4-1,4-1.79,2.26-1.27,1.74-.52,10.54-4.08,5.38-1.77l4.16-1.69,1.89-.79,2.61-1.11.33-.33-.33.32-2.74,1.08-1.81.69,4.49-1.86L76.84,140c1.14-1.08,2.21-2.13,3.27-3.18l4.36-4.4-2.7,2.5-1.49,1.33,5.42-5.24c-.24-1.89-.46-3.69-.67-5.38-.06-.47-.11-.93-.16-1.37,0-.22,0-.43-.07-.64l0-.3c0-.13,0-.07,0-.11,0-.26.07-.43.2-.47l.11.39v.07h0l0,.1.11.83.27,1.89c-.15-1.17-.29-2.24-.42-3.23,0-.22-.07-.43-.1-.63.21.06.41.12.65.17l.19,0,.09,0,.06,0h0l.17.06,1.65.57.2.06h.09l.12,0h0l-1.62-.61,1.3.44.17,0h.07l.13,0,.15.14s0,0,.07.07l.24.27.48.55,2.12,2.42,5.31,6.11,18.07,15.08,19.7,7.91,16.89,2.41,2,0,3.07-.6,2-.41-2.4.26-1.2.14-.61.06-.91.12h0l9.16-1.8c-1,.18-4.14,1.64-5,1.7l11.49-2,19.64-8.16,17.16-16.6c-.44-3.36-.88-6.81-1.33-10.27l5.16,1.87,8.33,9.81,17.83,15.18,19.5,8.14,1.37.22c7.09,1.27,1.21.64,1.12.67,8.68,1.26,3.78.29,11.14,1.47,2,.37-.45.16-1.59,0l4.77.75H274c.39-.08.77-.14.94-.19a.87.87,0,0,0,.25-.08l-1.2.17c-.49,0-1,0-1.13,0l-.9,0-.72-.18a1.39,1.39,0,0,1-.3-.12,1,1,0,0,1-.29-.19,2.16,2.16,0,0,0-.92-.44l2.27.37h1.94l6.57-1.1-.38.29c.8-.14,1.75-.39,3.12-.72l2.43-.58,1.53-.33.85-.17,1.33-.25,2.83-1.21,2.9-1.19L308.9,147l17-16.37c-.44-3.48-.87-6.91-1.3-10.27a15,15,0,0,1,.62,2.52,15.61,15.61,0,0,1-.21-2.17c-.06.36-.14,0-.23-.48.54.17,1.42.49.83.21.48.1,1.05.24,1.67.43l.47.14.4.14.65.22,1.68.58,1.59,1.85,2.22,2.62c1.55,1.82,3.08,3.64,4.58,5.41l5.4,4.57c1.66,1.38,3.25,2.68,4.73,3.86.43.09,4.37,1.48,9.49,3.59,5.94-.13,13.62,0,13.76-.31,3,1.24,5.91,2.47,6.79,2.89-.71-.45-6.51-2.91-9.64-4.12l-.65.07a37.42,37.42,0,0,1-4.34-1.85c-.19-.1-.35-.21-.87-.45l-1.08-.47-1.1-.47,0,0a.1.1,0,0,1,.09-.06,23.33,23.33,0,0,1,3.64,1.33l6.92,2.79-6.35-2.71-2.72-1.13-1.17-.46-.13-.05h-.06s0,0-.13,0c-3.86-3.43.63.13-4-4-3.4-2.8-8-6.42-11.74-9.78t.06,0c-.06-.06,0,0,0,0s0,0,0,0l-.31-.38-.61-.74-1.2-1.43-2.25-2.66-5.18-6-10.16-3.58c-4.06-1.45-8.23-3-12.89-4.7.18,1.47.36,3.06.56,4.71l-.4-2.48c.31,2.92.84,7,1.45,11.79.25,2,.53,4.1.81,6.3,0,.36.1.72.14,1.09a.09.09,0,0,1,0,0l-.06,0L314,128.48a15.34,15.34,0,0,1,1.61-1.36c.21-.12-.24.38-1.78,1.89-2.25,2.09-4.21,4-6,5.7l-2.6,2.5c-.77.74-2,1.92-1.69,1.6l-.07,0-1.08.42-2.18.84-5.27,2.45-8.19,3.38-13.64,2.34h-.36L257.82,146l-17-7-16.1-13.62-9.5-11.14L192.74,106c.82,6.36,1.5,11.62,2.09,16.24.21,1.6.4,3.1.59,4.52l.06.43-12.36,12-17,7-3.46.6,1.12-.23-11.37,2H152l-15-2.33-17.11-7-16.13-13.7-9.46-11.11-22-8c.92,7.1,1.82,14,2.7,20.91L62.57,139.41l-10.75,4.48-5.55,2.33-.68.28-.14.05-1,.22-2.76.54c-1.82.35-3.61.66-5.33.94s-3.46.5-4.91.64c-.55.08-1.52.05-2.33.07H26.63l-4.71,0a35.39,35.39,0,0,1-3.62-.17l0-.64v-.31c0-.66,0-1.31,0-2,0-2.62,0-5.17,0-7.48-.1,4.09-.27,2.69-.26-.51,0-4.76,0-7.57,0-9.26,0-.84,0-1.41,0-1.8a2.73,2.73,0,0,0,0-.35s0,0,0,0-.12,0-.13-1.14l.65-.09,2.8-.45c1.56-.26,3.36-.59,5.37-1l3.43-.69a6.1,6.1,0,0,0,1.38-.49l.8-.33,1.65-.69,16.22-6.73,17.3-16.69c-.4-3.22-.82-6.56-1.25-9.93L70.91,90l8.26,9.79L97,115.06l19.61,8.2,15.15,2.47,1.77.24,2.06,0,7.6-1.4,8-1.4,9.93-4.11,9.77-4.11,2.46-2.43-.83.92,15.71-15.19c-.37-3-.79-6.34-1.23-9.86L191.55,90l8.25,9.78,17.89,15.28,17.43,7.18-1.87-.83,4.12,1.64,3.31.51,2.2.36c1.32.22,2.36.41,3.38.61l3.19.62,2,.38,2.83.49,2.07,0,1-.15c-.72-.08,1.72-.66,4.87-1.31l5-1,4.62-.85-.25.13.37-.06,19.46-8.41,9.08-9-.15.46,3.07-3.08,5-4.89c-.47-3.54-1-7.41-1.39-10.64l2.58.94,3.13,1.19,8.27,10,8.58,7.42,9.16,7.84,8,3.26,7.23,2.9,1.91.91,1,.45,1.45.66,1.58.28,1.06.21,2.1.41,4.2.83,1.87.2s21.49-4.58-4.17-10l.45-.16L360.6,114h0c.1,0-.87-.38-1.42-.61l-1.69-.7-2.55-1c-1.32-.52-1.88-.74-1.64-.76l7.31,3-2-.9c-.42-.19-.45-.23-.24-.17s.66.22,1.2.41l.86.31.18.06h.12L358,112.53l-2.91-1.28c-1.17-.39.8.43,1.68.84-3.13-1.21-7.53-2.8-11.26-4.45l-1.88-.8a.38.38,0,0,1-.13-.12c0-.1,0-.15,0-.23s-.09-.12-.22-.25l-.54-.5c-.46-.42-1.14-1-2.15-1.89l-13-11.15-9.43-11.22-22.6-8.32,1.81,14.45.73,5.85.09.79v.2l-12.32,11.78L269,113.17l-13.63,2.33h-.35c0-.06,0-.08,0-.09h.1c.33,0,.19,0,.23,0h-.33l-14.9-2.27L226,107.34c-1-.45-1.74-.8-2.31-1.08l-.39-.2c-.09,0,0,0,0,0s0,0,0-.06a.43.43,0,0,1,0-.07s0,0,0,0l-.88-.71-3.54-3-11.62-9.83-9.53-11.2-23.16-8.45C176.12,85.05,177.23,93.79,177.29,94.27Z"/><polygon class="cls-1" points="276.66 241.62 264.33 204.1 240.4 192.6 237.5 217.11 244.39 260.12 276.66 241.62"/><path class="cls-1" d="M281.05,239.52a7.26,7.26,0,0,0-.43-2.29A6.45,6.45,0,0,0,281.05,239.52Z"/><path class="cls-1" d="M280.62,237.21h0v0Z"/><path class="cls-1" d="M273.29,237l-.61.37A4.72,4.72,0,0,0,273.29,237Z"/><path class="cls-1" d="M262,196.52l-.29.3c-1.85-.88-.34-.67-2.09-1.4-.92.19-2.82-1.42-3.54-1.43,0,0-.8-.46-.67-.59-.39.15-.89-.35-1.45-.53-.23,0,.1.15.2.3l-1.26-.48c-.43-.32-.47-.54.06-.32l-1.58-.81-3.72-1.86-12.14-5.95c-.64,5.25-1.31,10.6-1.87,15.13-.16,1.41-.31,2.68-.44,3.75-.1.88-.17,1.6-.21,2.09.29-.45.27-1.63.69-2,.08,1-.25,1.45-.09,1.92-.58.31-.38,2.16-1,2.85l.27.32-.24.47c-.2,4.4,0,1-.49,4.88A17,17,0,0,0,232,215v.58c0,.11,0,.23,0,.34,0,.45-.05.87-.07,1.27a14,14,0,0,1,.32,2c0-.18.08-.71.25-.14-.25.14.44,1.5.21,1.83.13.56.39,2.39.65,1.72-.13.34.06,2-.26,1a7.49,7.49,0,0,0,.26,1.48v-.72c.35,1.85.23,2.91.75,4.07l0-.71a4.41,4.41,0,0,1,.09,2.53l-.29-1.13a35,35,0,0,0,.94,4.46l-.07-.55c.67,1.9,2.61,12.1,3.35,13.84l.14-.88.49,1.51c0-.18-1-.6-1-.77.16,1,.52,3.07,1,5.66.72,4.35,1.57,9.52,2.37,14.39l9-5.15,3.36-1.9,1-.53L255,259c1.17-.49.42.28.43.32,1.27-.85.42-.58,1.56-1.21.33-.13.05.23-.11.36.48-.31,1-.48,1-.62-.67.26-.58-.19-1-.24l1.47-.8,0,.23c.33-.18.52-1,2-1.71,2.45-1.3,5-2.86,7.46-4.2,0,.14-.44.5-.9.85a6.12,6.12,0,0,1,1.14-.58c-.7.13.94-.71.44-.54,1.49-1.48,4-2.36,5.41-3.58-.11-.5-.82-9.18-1.11-9.69A9.49,9.49,0,0,1,274,237a4.38,4.38,0,0,0-1.65.8l.07.32c-1.11.76-.37,0-1.49.66-.19-.18.83-.83,1.74-1.38-.85.45-1.76.76-2,1.2-.84.35-.07-.32-1.07.12a10.06,10.06,0,0,1-2.23,1.48v0c-2,.84-2.66,2-4.5,2.72l.14-.17c-.68.21-1.77,1.07-2.93,1.55.33-.13.7-.12.06.28-1.34.58-2.11,1.21-3.12,1.56l-.76.72c-1.24.69-3.5,2-6.15,3.57l-1,.59-.07.05-.16.14-.4.31c-.07-.2-.15-.45-.22-.68l0-.09c-.05-.25-.09-.5-.13-.74-.09-.49-.17-1-.24-1.37-.15-.85-.27-1.56-.36-2.1l.07.19c-.63-3.71-1.58-9.33-2.54-15-.49-2.83-1-5.69-1.44-8.32-.24-1.32-.47-2.58-.68-3.76-.12-.59-.22-1.16-.33-1.7,0-.26-.09-.5-.14-.75l-.05-.13a.57.57,0,0,1,0-.12s0,0,0-.07l.06-.23.12-.51c.07-.34.13-.71.19-1.07.1-.73.21-1.47.31-2.1-.19.69-.33.43-.26-.12.49-3.88-.13-.28.23-4.22.08-1.3.34-3.65.67-6.43,0-.33.08-.68.13-1,0-.18,0-.36.08-.55l.18-1.05c.52.28,1,.55,1.34.77l.24.16a4.15,4.15,0,0,0,.45.25l1.52.81c2.12.61,4.44,2,6.45,2.75l-.23,0c.56.23,1.75.8,3.25,1.53l2.45,1.21.44.22.15.08.3.17.08.3,0,.15,0,.07.06.19c.26.84.52,1.63.75,2.36.46,1.45.85,2.61,1.08,3.2l-.07-.36c.94,2.13.47,2,.92,3.73.31-.36,1.15,1.46,1.41,2.16h-.09c.42,1.06,1.56,3.4,2.2,5.17h-.23a56.49,56.49,0,0,1,1.92,5.32,80.3,80.3,0,0,0,2.95,9.57l.09,2.32.16.29s8.38,1,8.5-3.81h.23l-.31-.85c-.23-1.06-.63-1.45-.4-1.45l.44,1.41c-.28-1.05.07-.37.32,0a8.6,8.6,0,0,1-.29-1.23c-.14-.18,0,.18,0,.35a7.82,7.82,0,0,1-.83-1.94c-.33-1.07.32-.18-.07-1.42-2-6.56-3.8-12.94-6-19.5,0-.18.1,0,.2.17-.74-1.95-1.29-3.72-2-5.49a2.06,2.06,0,0,1,.05-.89,6.7,6.7,0,0,1-.58-1.44c-.22-.63-.47-1.36-.75-2.15-.39-1.18-.82-2.45-1.24-3.73l-5.53-2.64C262.66,196.85,262,196.55,262,196.52Z"/><polygon class="cls-1" points="294.07 281.87 285.67 320.37 158.28 355.37 127.49 339.97 119.79 326.67 102.99 321.77 154.08 322.47 294.07 281.87"/><path class="cls-1" d="M289,282.39a47.14,47.14,0,0,0-1.55,5.67A38.69,38.69,0,0,0,289,282.39Z"/><path class="cls-1" d="M287.46,288.1v0l0-.07Z"/><path class="cls-1" d="M290.93,276.89l-1.73.52C289.78,277.25,290.37,277.07,290.93,276.89Z"/><path class="cls-1" d="M212.22,334.5,212,335c-5,1.39-1.58,0-6.21,1.33-1.67,1.05-7.74,2.07-9.26,2.8,0-.05-2.26.55-2.16.34-.62.49-2.33.72-3.74,1.19-.5.22.4,0,.82,0l-3.26,1c-1.32.26-1.68.17-.29-.24l-29,7.72-13.57-6.85c-4.6-2.31-8.33-4.16-10.39-5.15,1,.76,3.72,2,4.57,2.78-2.37-1-3.32-1.74-4.41-2.05a7.28,7.28,0,0,0-2-1.35l-1.47-.78a.11.11,0,0,1,0-.1.39.39,0,0,1,.18-.19s0,.06-.09,0l-.15-.12-.32-.24-.47-1.18c-2.84-4.61-3.26-5.25-3.51-5.68-.11-.22-.2-.38-.51-1l-.68-1.25c-.61-1.05-1.39-2.43-2.41-4.22l-1.37-.41-3.5-1-1.72-.44-2.91-.7c-1.75-.42-3.18-.77-4.69-1.29.45.14,1.61.67.17.33-.17-.33-3.85-.92-4.47-1.38l-.68-.19-1.55,10.35c1.85,0,5.24,0,3.86-.3.8.19,5,.33,2.49.45,1.42,0,2.79.11,3.81,0l-1.82-.13c4.79,0,7.4.33,10.52,0L120,327c2.86,0,5.26,0,6.38.4l-2.94.08c4.74.05,7.61.07,11.56-.07l-1.41,0c1.39-.08,4.37-.14,8.07-.18l13-.11,3.14-1,2.39-.76,4.34-1.4c2.63-.86,4.68-1.55,5.66-1.94l-2.13.32,3.77-1.34c-.46.13-1.6,1.42-2,1.44,8.21-2.41,50.9-15,58.54-17,3.11-.74.68.27.66.32,3.7-1.18,1.52-.75,4.7-1.65.88-.2-.12.27-.59.45a19.3,19.3,0,0,0,2.76-.88c-1.77.41-1.13-.14-1.93-.15l4.09-1.15-.12.27a34.65,34.65,0,0,1,6.17-2.3c6.78-1.87,14.1-4.07,20.91-6a15.19,15.19,0,0,1-2.88,1.13c.91-.25,2.29-.69,3.15-.84-1.7.25,2.81-1,1.5-.7,4.83-2,11.4-3.35,15.69-5,.25-.58,7.07-10.77,6.91-11.33,1.37-.39,2.73-.77,3.16-.84a28,28,0,0,0-4.49,1.17l-.16.37c-3.25,1.06-.82,0-4,1-.24-.19,2.69-1.1,5.28-1.87-2.35.65-4.72,1.14-5.6,1.69-2.22.53.16-.37-2.51.29a65,65,0,0,1-6.47,2.05l0-.05c-5.33,1.27-7.94,2.7-12.82,3.85l.5-.23c-1.74.35-5,1.51-8.13,2.24.88-.2,1.69-.24-.14.32-3.57.87-5.92,1.72-8.55,2.27l-2.4,1c-12.28,3.51-60.61,17.89-72.92,21.5l.48-.18-17.3,5.1L127.92,317l-24.86-.18-37.56-.27,36.09,10.05,9.57,2.67c1,.39,2.21.78,3.45,1.18l.93.29.47.14.11,0,.28.1.12.23,0,.1.36.63c-.2-.38-.37-.74-.31-.69s0-.07.06-.07,0,0,.12.07.29.45.47.75c2.47,4.31,2.59,4.43,2.74,4.56a3.29,3.29,0,0,1,.52.72c.19.29.45.72.83,1.34l1.7,2.84,1.17,2,6.85,3.37,7.47,3.72,19.27,9.69,19.29-5.17L188.81,352c5.22-1.81,11.93-3.37,17.08-5l-.5.22c5.55-1.66,37.3-10,43.77-11.95l-.89.19c5.61-1.77,4.95-1.18,9.44-2.29-.69-.23,4.11-1.78,6-2.32l0,.1c2.77-.83,9-2.91,13.6-4.23l-.12.26c1.24-.41,2.84-.9,4.53-1.39l7.36-2c.59-2.71,1.11-5.06,1.44-6.57,1.48-6.38,4-16.18,5.6-24.81l1.83-5.4.11-.83s-5.51-10.54-9.57.43l-.17-.23-.46,2.25c-.7,2.66-.72,3.95-.89,3.72l.83-3.67c-.66,2.69-.36.78-.26-.28-.26,1.12-.53,2.21-.79,3.09,0,.55.18-.37.31-.78a49,49,0,0,1-1,5.28c-.62,2.76-.39.1-1.11,3.32q-1.17,5.07-2.32,10.11c-.39,1.68-.77,3.35-1.16,5l-.29,1.25c-.06.29-.05.23-.06.26l0,.05-.07.19-.15,0h-.13l-.23.06-3.74,1-7.49,2-15.12,4.12c-.4,0,.06-.1.53-.28l-14.25,4.08a10.32,10.32,0,0,1-2.12.25c.41,0-6,1.79-12.56,3.62l-9.13,2.52C214.06,334,212.33,334.49,212.22,334.5Z"/><path class="cls-1" d="M178.63,164.86a5.06,5.06,0,0,0,.23,1.91A4.27,4.27,0,0,0,178.63,164.86Z"/><path class="cls-1" d="M178.86,166.79h0v0Z"/><path class="cls-1" d="M227.28,296.86c-.06-.17-.12-.37-.18-.56A3.65,3.65,0,0,0,227.28,296.86Z"/><path class="cls-1" d="M187.69,200.19h.41c.47,1.62-.3.59.22,2.07.71.43.66,2.52,1.1,3,0,0,.15.74,0,.75.36.14.29.73.5,1.18.13.14.05-.15.1-.3l.41,1c0,.45-.12.6-.28.15.69,2.81,4.22,16.25,5.23,19.2.11-.45-.31-1.33-.06-1.78.43.73.27,1.18.57,1.47-.43.46.38,1.78,0,2.53l.36.14-.07.45c1.31,3.39.38.75,1.19,3.86.56,1.77,1.21,2.5,1.34,3.54,0-.15,0-.59.24-.15-.24.15.54,1.18.34,1.48.16.44.55,1.92.76,1.32-.1.3.2,1.63-.18.9a5.71,5.71,0,0,0,.36,1.18l-.06-.6c.47,1.48.43,2.37,1,3.26l0-.6c.28.89.52,1.63.27,2.08l-.37-.89a23.2,23.2,0,0,0,1.25,3.55l-.11-.44c.79,1.47,3.44,9.61,4.29,10.93l.08-.74.59,1.18c0-.15-1.06-.35-1-.5.79,2.66,5,16.48,5.49,19,.14,1-.38.3-.42.31.44,1.18.43.44.7,1.47,0,.3-.23,0-.31-.14.16.44.19.88.32.88-.06-.59.35-.45.5-.75l.35,1.33h-.23c.08.3.79.59,1,1.92.54,2.22,1.29,4.58,1.87,6.8-.13,0-.34-.44-.55-.88a4.32,4.32,0,0,1,.23,1c.07-.6.41.88.39.44,1,1.46,1.1,3.69,1.86,5,.51,0,8.93.76,9.49.6a6.26,6.26,0,0,1,.22,1,3.17,3.17,0,0,0-.29-1.49h-.33c-.4-1,.11-.3-.21-1.33.23-.13.56.81.82,1.65-.19-.77-.22-1.57-.58-1.81-.1-.74.32,0,.18-.89a7.1,7.1,0,0,1-.77-2.07h0c-.24-1.78-1.12-2.51-1.32-4.14l.13.15c0-.59-.51-1.63-.65-2.66,0,.29-.07.59-.27,0-.18-1.19-.55-1.92-.6-2.81l-.47-.74c-1.09-4-5.93-19.62-7.11-23.61l.08.15c-1.86-6.06-5.42-18.58-7.55-24.78a22.68,22.68,0,0,0-.7-3.41c.06.59-.16.45-.28,0-.86-3.1-.22-.16-1.22-3.26-1.25-3.54-4.94-17.42-5.66-20.67-.84-1.62-1.19-3.85-1.89-5.47l.13.15c-.65-1.77-3.25-12.11-4-14.17l0,.29c-.74-1.77-.29-1.63-.58-3.11-.34.3-1-1.2-1.21-1.79H193c-.32-.88-1.24-2.83-1.72-4.31h.23A35.7,35.7,0,0,1,190,172.9a57,57,0,0,0-2.09-8L188,163l-.13-.24s-8.15-.75-8.68,3.31H179l.23.71c.14.88.5,1.21.27,1.21l-.31-1.18c.19.88-.1.31-.31,0a7.22,7.22,0,0,1,.17,1c.13.15.05-.15.06-.29a5.24,5.24,0,0,1,.65,1.62c.24.89-.32.15-.05,1.19,1.38,5.47,2.64,10.8,4.26,16.27-.06.15-.1,0-.18-.15.56,1.63.95,3.11,1.48,4.58a1.51,1.51,0,0,1-.13.75C185.23,191.49,187.7,200,187.69,200.19Z"/><path class="cls-1" d="M255.78,177.64a3.38,3.38,0,0,0,0,1.57A3,3,0,0,0,255.78,177.64Z"/><path class="cls-1" d="M255.73,179.22h0v0Z"/><path class="cls-1" d="M284.89,287.77l-.09-.47A1.86,1.86,0,0,0,284.89,287.77Z"/><path class="cls-1" d="M259.67,206.88l.41,0c.23,1.35-.39.47-.08,1.7.64.39.29,2.08.66,2.46-.05,0,0,.61-.14.6.33.14.17.62.31,1,.11.13.08-.12.15-.24l.26.87c0,.36-.21.47-.3.1.28,2.33,1.84,13.45,2.41,15.91.17-.36-.11-1.1.2-1.45.31.62.09,1,.35,1.23-.49.34.12,1.47-.34,2.05l.33.14-.13.36a9.31,9.31,0,0,1,.63,3.2c.29,1.48.83,2.11.81,3,0-.12.12-.48.26-.11-.26.11.36,1,.12,1.23.1.37.27,1.59.56,1.12-.14.23,0,1.33-.3.71a3.81,3.81,0,0,0,.18,1l0-.49c.26,1.23.1,2,.56,2.7l.07-.48c.14.73.28,1.35,0,1.7l-.24-.74a15.17,15.17,0,0,0,.72,3l-.05-.36c.58,1.24,2,8,2.67,9.14l.19-.6.41,1c0-.12-1-.35-.92-.47.4,2.21,2.55,13.69,2.7,15.77,0,.85-.42.22-.46.22.27,1,.36.38.48,1.24,0,.24-.22,0-.29-.14.1.37.06.74.2.74,0-.48.4-.34.59-.58l.16,1.1h-.23c0,.25.7.52.76,1.62.21,1.84.62,3.8.88,5.64-.14,0-.28-.38-.42-.75a2.72,2.72,0,0,1,.07.85c.16-.48.29.75.33.38.76,1.25.56,3.07,1.12,4.19.5,0,8.68,1.15,9.26,1.05a4,4,0,0,1,.07.86,2,2,0,0,0-.08-1.22l-.32,0c-.25-.86.15-.23,0-1.09.25-.09.43.7.58,1.39-.08-.63,0-1.29-.32-1.5,0-.61.32,0,.3-.72a4.81,4.81,0,0,1-.46-1.72h.05c0-1.46-.75-2.1-.71-3.44l.11.13c.07-.49-.28-1.35-.26-2.2,0,.24-.16.48-.27,0,0-1-.27-1.59-.19-2.32l-.36-.62c-.51-3.31-3-16.3-3.64-19.61l.06.13c-1-5-2.69-15.42-3.9-20.58A15.64,15.64,0,0,0,275,232c0,.49-.22.35-.28,0-.4-2.58-.19-.15-.73-2.73-.73-2.95-2.39-14.44-2.63-17.13-.59-1.36-.62-3.19-1.08-4.55l.1.13c-.38-1.48-1.48-10-1.9-11.75v.24c-.47-1.48-.05-1.34-.13-2.56-.37.23-.82-1-.93-1.53h.09c-.19-.74-.82-2.37-1.09-3.6h.23a22.28,22.28,0,0,1-.78-3.69,37.49,37.49,0,0,0-.92-6.61l.37-1.57-.09-.21s-7.93-1.09-9,2.17H256l.12.59c0,.73.32,1,.1,1l-.14-1c.06.73-.14.25-.31,0a4,4,0,0,1,0,.84c.11.13.08-.12.11-.24a3.67,3.67,0,0,1,.41,1.36c.1.73-.35.11-.23,1,.59,4.53,1.07,8.93,1.88,13.47-.07.12-.09,0-.15-.13.32,1.36.49,2.58.8,3.81a1.12,1.12,0,0,1-.23.6C258.49,199.66,259.7,206.76,259.67,206.88Z"/><path class="cls-1" d="M98.2,239.1a2,2,0,0,0,0,1.2A1.72,1.72,0,0,0,98.2,239.1Z"/><path class="cls-1" d="M98.24,240.31h0v0Z"/><path class="cls-1" d="M133.08,318.6c0-.1-.08-.22-.12-.34A1,1,0,0,0,133.08,318.6Z"/><path class="cls-1" d="M103.69,260.84l.4-.06c.31,1-.35.43,0,1.32.65.19.41,1.54.79,1.77-.05,0,.07.47-.1.49.33.05.2.44.36.7.12.08.07-.1.13-.2l.3.62c0,.28-.17.39-.28.13.4,1.73,2.58,10,3.28,11.77.15-.3-.17-.82.11-1.14.34.42.15.73.42.88-.46.35.2,1.11-.22,1.63l.34.05-.11.3c1,2,.29.44.79,2.35.38,1.08.94,1.47,1,2.13,0-.09.09-.39.25-.13-.25.13.41.7.19.92.12.26.35,1.17.62.76-.13.21,0,1-.26.6a2.18,2.18,0,0,0,.23.72v-.37c.32.89.2,1.47.7,2l0-.38c.18.54.35,1,.06,1.31l-.27-.53a8.39,8.39,0,0,0,.88,2.14l-.07-.27c.64.86,2.44,5.8,3.14,6.56l.15-.49.46.69c0-.09-1-.1-.93-.2.52,1.62,3.29,10.05,3.56,11.62,0,.65-.4.24-.45.24.33.71.39.24.55.87,0,.19-.22,0-.29-.05.12.26.1.55.23.53,0-.38.38-.33.55-.54l.22.82-.23,0c0,.19.72.29.85,1.12.31,1.37.82,2.8,1.18,4.17-.13,0-.29-.25-.45-.51a1.82,1.82,0,0,1,.12.65c.13-.4.32.52.34.23.81.84.72,2.26,1.34,3,.49-.06,8.58-.54,9.14-.71a2.49,2.49,0,0,1,.12.65c.11-.11,0-.67-.15-.93l-.31,0c-.3-.62.13-.2-.08-.83.23-.11.46.46.64,1-.11-.47-.08-1-.4-1.1,0-.46.31,0,.26-.59-.19-.36-.57-.78-.56-1.25h.05c-.06-1.12-.85-1.49-.89-2.52l.11.08c0-.38-.35-1-.38-1.64,0,.19-.13.39-.27,0,0-.74-.35-1.18-.32-1.74l-.38-.42c-.69-2.45-3.92-12-4.7-14.41l.07.08c-1.24-3.69-3.53-11.35-5-15.1a8.56,8.56,0,0,0-.36-2.12c0,.38-.2.31-.27,0-.54-1.9-.2-.08-.88-2-.88-2.14-3.17-10.66-3.56-12.67-.67-.95-.8-2.34-1.33-3.31l.11.08c-.46-1.07-2-7.43-2.53-8.68v.19c-.55-1.06-.13-1-.28-1.94-.35.23-.86-.66-1-1h.09c-.23-.53-1-1.69-1.27-2.58l.22,0a13.49,13.49,0,0,1-1-2.69,21.21,21.21,0,0,0-1.29-4.91l.28-1.27-.1-.14s-7.83.46-8.73,3.14l-.22,0,.16.43c0,.55.37.72.15.75l-.19-.73c.1.55-.13.21-.31,0a2.54,2.54,0,0,1,.08.64c.11.08.06-.1.08-.2a2.18,2.18,0,0,1,.49,1c.14.55-.34.14-.17.78.83,3.37,1.56,6.66,2.61,10-.06.1-.09,0-.15-.08.39,1,.63,1.9,1,2.79a.88.88,0,0,1-.19.49A41.12,41.12,0,0,1,103.69,260.84Z"/></g></svg>