<svg xmlns="http://www.w3.org/2000/svg" xmlns:xlink="http://www.w3.org/1999/xlink" viewBox="0 0 385.51 385.51"><defs><style>.cls-1{fill:none;}.cls-2{fill:#2c2c2d;}.cls-3{fill:#fff;}.cls-4{clip-path:url(#clip-path);}</style><clipPath id="clip-path"><circle class="cls-1" cx="193.43" cy="191.16" r="193.43"/></clipPath></defs><g id="vagues"><polygon class="cls-2" points="306.94 66.92 275.27 39.89 234.74 30.18 234.74 30.43 255.39 48.05 278.63 119.49 255.39 190.93 234.74 208.55 234.74 208.79 275.27 199.08 306.94 172.05 324.05 119.49 306.94 66.92"/><path class="cls-2" d="M308.75,62.11A58.31,58.31,0,0,0,304,57.67,46.41,46.41,0,0,0,308.75,62.11Z"/><path class="cls-2" d="M304,57.63l0,0,.07.06Z"/><path class="cls-2" d="M302.12,70.39l.63,1.9C302.55,71.65,302.34,71,302.12,70.39Z"/><path class="cls-2" d="M254.62,64.55l.5.22c1.79,5.49.08,1.74,1.83,6.79,1.18,1.81,2.69,8.45,3.54,10.11-.05,0,.74,2.46.52,2.36.54.67.9,2.54,1.48,4.08.27.54,0-.45-.09-.9l1.27,3.56c.36,1.43.3,1.83-.23.32l9,28.4c-2.15,6.49-4.33,13.12-6.18,18.72-2,6.15-3.63,11.18-4.46,13.84.65-1.23,1.51-4.4,2.25-5.47-.68,2.74-1.35,3.91-1.53,5.16-.85.85-2,5.83-3.22,7.68l.05.86-.61,1.27c-3.52,11.86-.73,2.74-4.19,13.13-1.92,6-2.44,9-3.68,12.35.16-.5.77-1.77.34-.18a2.28,2.28,0,0,0-.36.82.85.85,0,0,0,0,.23.7.7,0,0,1-.13.16l-.41.42a2.66,2.66,0,0,1-.38.32c-1.29,1.48-5.57,6.16-3.87,4.74-.84.69-4.69,4.86-2.55,2.31-1.29,1.42-2.58,2.79-3.44,3.82l1.73-1.79c-4.27,4.74-6.88,7.42-9.4,10.43l1.72-1.78-3.46,3.78c-.2.27-.69.55-.38.78l.41.16a1.28,1.28,0,0,1,.51.34l-1-.29c-.08-.05-.17,0-.25-.12s-.12-.13-.09-.19l.16-.18.64-.72q-.41.43-.78.87c-.11.07,0,.14,0,.21a.18.18,0,0,0,.13.12l.27.09,1,.34,1.89.6a33.12,33.12,0,0,0,3.92,1l-.94-.3c.37.05.86.14,1.46.25,0,.08.57-.08,1-.19l1.38-.35,3-.77,14.59-3.7,19.69-5.13c.62-.54,1.23-1.07,1.81-1.59l1-.9,1.71-1.57c1-.94,1.81-1.7,2.29-2.18l-2,1.32,3.21-3c-.4.34-1,2.09-1.42,2.3l26.69-22.92c2.38-7.35,4.76-14.68,6.72-20.72,1.86-5.71,3.34-10.2,4.07-12.26,1.24-3.31.62-.47.65-.42,1.23-4.11.29-1.85,1.44-5.32.36-.93.15.27,0,.81a21.82,21.82,0,0,0,.93-3.07c-.72,1.87-.79,1-1.27,1.69l1.48-4.45.15.26a44.2,44.2,0,0,1,1.79-7.06l1.49-4.47c-2.2-6.81-4.54-14-6.73-20.79a19.14,19.14,0,0,1,1.34,3.16c-.32-1-.85-2.51-1.06-3.46.36,1.87-1.16-3.08-.8-1.64-2.29-5.28-4.11-12.49-6-17.19-.6-.27-11.32-7.72-11.87-7.54-.48-1.5-.95-3-1.05-3.46a34.44,34.44,0,0,0,1.47,4.93l.38.17c1.28,3.56.1.9,1.26,4.4-.18.26-1.28-2.95-2.23-5.78.81,2.57,1.46,5.17,2.06,6.13.68,2.44-.38-.17.46,2.76.74,2,1.86,4.67,2.49,7.08l-.06,0c1.63,5.84,3.24,8.69,4.7,14l-.26-.54c.46,1.9,1.84,5.5,2.78,8.91-.26-1-.36-1.86.33.14s1.08,3.58,1.56,5.08c.24.75.46,1.46.69,2.17s.5,1.69.36,1.42l.12,0a.35.35,0,0,1,.12.1c-1.37,4.23-4,12.45-7,21.8l-8.79,27.54-22,18.91.4-.39-7.9,6.8-14.89,3.62-2.88.75-.69.18c-.1,0-.25.09-.33.06s.18-.16.27-.25l1.09-1,1.11-1,.55-.51.27-.26,2.36-2,1.7-5.36c.37-1.19.7-2.24,1-3.25,1.3-3.21,2.72-7.76,3.9-11.17-.71,1.87-.67,1.17-.17-.32,3.42-10.44.06-.76,3.4-11.36,1.07-3.5,3.1-9.79,5.52-17.24,2.59-7.89,5.58-17,8.41-25.6l-5.86-18.39c-1.54-4.93-2.78-8.9-3.51-11.22-2.23-5.69-4.32-13-6.39-18.63l.27.54c-.56-1.59-1.73-5.18-3.19-9.72l-5.37-16.7-2.68-2.31-.7-.62-1.26-1.11c-.78-.67-1.42-1.21-1.86-1.55l0,.09a10.39,10.39,0,0,1-1-.75l-.1-.09,0-.05.1,0,.42.16c.58.23,1.22.52,1.84.73-.63-.36-.82-.57-.68-.65a1.85,1.85,0,0,1,.85,0l.12.12c.38.06,1,.09,1.81.19.42,0,.9.11,1.41.19l4.15.9-.26.17c1.69.31,3.93.8,6.22,1.33l5.6,1.33,1.45,1.23c5.46,4.79,13.72,12.35,21.29,18.43l4.36,4.55.74.55s12.64.75,3.94-8.81l.3,0-1.95-1.62c-2.24-2.06-3.47-2.78-3.17-2.81l3.15,2.73c-2.28-2-.59-.74.38-.08-.95-.84-1.88-1.67-2.61-2.38-.51-.32.28.36.61.7a57.8,57.8,0,0,1-4.63-3.71c-2.37-2,.08-.4-2.68-2.79L277.84,34.84,258,30l-17.28-4.18-2.17-.52L237.48,25l-.54-.13-.26-.06-.09,0-1.43.46-2.86.93c-.39,0-.06-.1.23-.25-.87.33-1.73.63-2.58.93l-.63.22-.32.11a2.63,2.63,0,0,0,0,.3l.22.24,1.72,1.92,6.8,7.48a19.57,19.57,0,0,1,1.68,2.2c-.15-.21,1.35,1.42,3.67,4l7.28,8c1,3,2,6.06,2.74,8.38C254,62.54,254.6,64.43,254.62,64.55Z"/><path class="cls-3" d="M378.2,198.79a50.66,50.66,0,0,0-5.78-1A35.26,35.26,0,0,0,378.2,198.79Z"/><path class="cls-3" d="M372.38,197.77h0Z"/><path class="cls-3" d="M18.53,209.16l1.83-.18C19.74,209,19.12,209.08,18.53,209.16Z"/><path class="cls-3" d="M282.92,197.65l-.32.41a20,20,0,0,1-2.93,0,2.67,2.67,0,0,1-.45-.08l-.18,0-.44,0-.85.05,2,.11c-.4-.11-1-.26-2-.46-2,.12-7.9-1.9-9.61-2,0,0-2.28-.6-2.1-.74a3.57,3.57,0,0,1-1.26-.13l-.75-.18,0,0s0,0-.06,0c-.27-.12-.15,0,0,.08a.23.23,0,0,1,0,.12s0,0-.12,0l-.76-.43-1.5-.86c-1.1-.79-1.29-1.12,0-.38l-6.27-3.93,0,0h0s0,0,0-.08l-.27-.42-1.11-1.78-2.76-4.4-10.31-16.31q-1.34,3.12-2.69,6.25l-1.35,3.12-.66,1.5c-.11.25-.22.52-.33.74l-.37.6c-.48.78-1,1.63-1.45,2.36l-1.41,1.85-.17.23-.11.13-.19.24-.39.46c-.25.31-.52.61-.79.92-1.06,1.22-2.18,2.4-3.28,3.51l-.83.82-.17.16,0,0-.05,0-1.09.48c-5.76,2.55-10.5,4.67-12.92,5.79,1.24-.3,3.93-1.66,5.12-1.8-2.27,1.24-3.5,1.48-4.45,2.14a2.77,2.77,0,0,0-.95.18l-.31.1-.17.06h-.09l0,0h-.09l-.35,0-1.42.1a11.37,11.37,0,0,1-2.39,0l-.7.38-1.3-.06c-11.24,1.45-2.56.41-12.56,1.35l-1.07.12-.5.06-.23,0h-.25l-.16,0-1.23-.13c-.8-.09-1.53-.19-2.23-.3a25.19,25.19,0,0,1-3.9-.87c.44.12,1.57.6.17.32-.17-.3-3.75-.81-4.35-1.29l-1.45-.42-.88-.27-.14,0h-.08l-.14-.07a5.27,5.27,0,0,0-.48-.24c-.23-.09-.26,0,0,.27-.58-.59-4.13-3-1.91-1.72-1.21-.79-2.35-1.58-3.27-2.07l1.5,1.08c-1.31-.82-2.42-1.55-3.41-2.21l-1.68-1.13-.06-.08s0,0-.22-.29-.63-.92-1-1.37l.81,1.6c-.77-1.23-1.48-2.36-2-3.32-.13-.25-.26-.48-.38-.7s-.26-.49-.37-.72a19.69,19.69,0,0,1-.89-1.85l1.38,2.15.83,1.25-5.32-8.59c-.9-1.44-1.79-2.84-2.7-4.28l-1.37-2.14-.7-1.09-.36-.56c-.12-.18-.21-.27-.32-.42.1.15.19.26.3.44l.35.57.7,1.15-.91-1.38a5.37,5.37,0,0,0-.52-.69l-.55-.69c-.47,1.1-1,2.32-1.53,3.64s-1.2,2.76-1.85,4.28c-.17.37-.33.78-.5,1.12l-.51,1L148.38,180c-.38.65-.81,1.18-1.23,1.79s-.94,1.32-1.09,1.49c-1,1.23-2,2.39-3.14,3.61s-2.34,2.39-3.56,3.53l-.91.84a4.27,4.27,0,0,0-.44.41c-.07.09-.19.1-.28.15l-1.08.4-4.31,1.58c-2.61,1-4.65,1.75-5.62,2.18l2.15-.42L125.1,197c.46-.15,1.57-1.5,2-1.54l-9.24,3.14-14,.78-.79.1,1.57.1-17.74-4.48-9.6-6.89-1.34-2.46-.48-1c-.18-.37-.3-.62-.37-.79-.13-.35-.07-.34.09-.16s.4.5.61.8a2.36,2.36,0,0,0,.32.42l-1-1.72-.71-1.16c-.37-.59-.56-.86-.74-1.1a36.51,36.51,0,0,1-2-3.43c-.77-1.46.27,0,.75.78-1.31-2.24-2.48-4.51-2.62-4.49,1.58,3,.76,2.26,1.31,3.7l-3.54-6.31.18-.13c-.1-.16-.19-.32-.3-.48s-.23-.39-.33-.41-.46-.26-.75-.41a77.56,77.56,0,0,1-4.13,9.45l-.58,1.12a6.67,6.67,0,0,1-.64,1l-1.33,1.83-.36.44-.28.33-.42.48c-.27.33-.57.64-.85,1-1.17,1.28-2.4,2.55-3.69,3.78-.64.61-1.3,1.21-2,1.8l-1,.84a1.25,1.25,0,0,1-.41.28l-4.77,1.86a16.48,16.48,0,0,1,2.8-1.42c-.9.35-2.25.92-3.11,1.16,1.7-.42-2.74,1.25-1.44.85-1.31.67-2.75,1.32-4.24,1.94l-2.27.92-1.78.7-3.23.3c-1.19.13-2.32.27-3.34.44-.36.52-9.14,9.24-9.09,9.82-1.44.12-2.86.23-3.31.23a30,30,0,0,0,4.7-.3l.23-.34c3.44-.42.83.11,4.19-.21.2.23-2.89.57-5.61.84,2.46-.19,4.92-.23,5.89-.6,2.32-.1-.23.34,2.57.19,2-.25,4.55-.73,6.84-.79l0,.05.91-.05,1.54-.12,2.32-.91,1.4-.59L44.38,205a58.6,58.6,0,0,1,5.55-2.23l-.48.28c.86-.26,2.1-.76,3.5-1.33l1.09-.44,1.1-.44a2.79,2.79,0,0,0,1-.57l2.59-2.15c-.78.63-1.54,1.06,0-.35A95.35,95.35,0,0,0,65.71,191l.42-.6c.11-.16.37-.5.24-.39a.54.54,0,0,1,0-.15,1.23,1.23,0,0,0,.22-.34s0-.1,0-.06l.06.09.12.2.16.25L69.77,195l12.9,9.11L102.19,209l1,.26,1-.13.46-.06,15-.85,7.47-2.53-.47.2,7.39-2.52,4.2-1.42,2.2-.74,1.78-.61.53-.19a3.68,3.68,0,0,0,.44-.34l.88-.72,1.17-1,1-.87c.64-.59,1.3-1.18,1.94-1.81,1.29-1.23,2.58-2.53,3.84-3.92.64-.7,1.23-1.4,1.83-2.11l.17-.21.05-.07.11-.14a3.63,3.63,0,0,0,.36-.64l.06-.14.08.12.16.25.34.51,4.35,7,7.16,4.53,2.94,1.86,1.49.94.65.4a2.26,2.26,0,0,0,.67.35l1.3.42a110,110,0,0,0,11.91,3c.74.21,1.58.39,2.46.57l.68.12.35.06.42.06,1.08.14.55.07.28,0,.13,0h0a.92.92,0,0,1,.6-.19l.39,0,.77-.06,1.53-.15,2.89-.25c-1.84.08-1.23-.15.2-.29,10-1,.66-.23,10.78-1.36l5.52-.61,16-7.14,1.56-.69a4.83,4.83,0,0,0,1.68-1.27l1.1-1.06.93-.94c1.23-1.27,2.46-2.58,3.64-4,.3-.34.59-.7.88-1l.6-.74.49-.63a7.14,7.14,0,0,0,.62-1l.06-.14,0-.06s0,0,0,0l.16.28.32.52c.2.34.39.66.57,1l4.81,7.71,4.25,2.67L254.4,201c.8.43,1.63.89,2.48,1.37l1.27.74,1.93,1.16L267,205.8c2,.47,4,.91,5.81,1.25l-.56,0c1,.21,2.82.63,5.2,1.18l.79.19.81-.1.47-.06,14.43-.65,15.46-5.23,5.95-2,3.07-1.07a10.76,10.76,0,0,0,1.3-1.06l.53-.48.3-.28-1,.85.67-.62.4-.38.69-.67c.42-.4.79-.75,1.1-1.06.65-.6,1.12-1,1.57-1.42a35.45,35.45,0,0,0,3.44-3.3c-.19.06-.11-.16.13-.56l.46-.71.29-.44c.08-.1.06-.09.07-.11a.14.14,0,0,1,0-.06,10.68,10.68,0,0,1,.58-1.13l0,.13a10,10,0,0,0,.44-1l.07-.22,0-.11,0-.06,0,0,.22.26q.24.31.51.63l.55.75.28.39.13.2.22.34-.29-.05c.47.69,1,1.52,1.59,2.43.29.45.58.92.88,1.4q.69,1.11,1.38,2.25l7.74,5,5.39,3.59,7.27,1.15c4.46.7,9.22,1.37,13.67,1.81l5.67,1.35.85,0a11.73,11.73,0,0,0,3.63-3.65,3,3,0,0,0,0-3.13c-.66-1-2.14-2-5-2.71l.21-.2-2.28-.26c-2.74-.46-4-.38-3.83-.57l3.76.52c-2.75-.42-.8-.29.26-.28-1.15-.17-2.26-.34-3.17-.53-.55,0,.39.15.81.25a51.77,51.77,0,0,1-5.39-.53c-2.83-.41-.13-.38-3.43-.86l-6.17-.92-3.07-.47-.31-.05h0l-.07,0-.06,0,0,0h0l-.15-.1L342,188.35l0-.07v0l-.1-.18-.28-.46-1.09-1.84-3.27-5.48-4.3-7.18-2.16-3.6-1.08-1.8-.94-1.47c-.88,2-1.76,4-2.64,6.06l-1.34,3.06-1.3,2.79a5.52,5.52,0,0,1-.71,1.21l-.74,1.09a24.86,24.86,0,0,1-1.56,2.14c-.49.61-1,1.21-1.55,1.82-.31.22,0-.11.25-.49a61.75,61.75,0,0,1-4.91,5.14l-1,.9-.08.07-3.3,1.18a10.49,10.49,0,0,1-2.12.39c.25,0-2,.78-5.26,1.93l-10.58,3.69-6,.29Z"/><g class="cls-4"><path class="cls-3" d="M100.78,192.65,88.23,190l-14.47-8.19-13.38-15.6L53.46,155l-10-5,3.08,16.17-13.38,15.6L18.69,190s-8,2.3-12.56,2.7V367.51h378.6V192.65c-4.58-.4-12.55-2.7-12.55-2.7l-14.47-8.19-13.38-15.6L337.41,155l-10-5,3.07,16.17-13.37,15.6L302.64,190l-11.56,2.7h-1L277.53,190l-14.47-8.19-13.38-15.6L242.76,155l-10-5,3.07,16.17-13.37,15.6L208,190l-11.56,2.7h-1L182.88,190l-14.47-8.19L155,166.16,148.11,155l-10-5,3.07,16.17-13.37,15.6L113.34,190l-11.56,2.7Z"/><path class="cls-3" d="M97.22,186.94c-1-.28-2.21-.59-3.55-.91l-2.1-.5-1.12-.26-.27-.07h0l-.09,0-.07,0-.22-.12-1-.57-2-1.15-4.07-2.34,3.77,2.33,2,1.2,1,.62.27.16.07,0,.1.07.18.05.93.21L93,186Z"/><path class="cls-3" d="M82.61,180.86l-.09,0,.2.11Z"/><path class="cls-3" d="M106.8,197.29l5.22-1.24Z"/><path class="cls-3" d="M28.36,373.34l1-.4c15.46,0,4.5.46,18.8.36,5.59-.56,23.75.06,28.69-.24,0,0,.39,0,1,0l2.32,0a15.45,15.45,0,0,1,3.1.17c2.15-.31,7.2-.07,11.62-.15,1.6-.09-1.18-.09-2.37-.19l10.11-.1c4,.09,4.93.27.63.31,26.43.11,153.34.4,181.81.25-3.66-.23-12.45-.08-15.79-.44,7.53-.21,11.09.07,14.4-.14,2.89.54,16.55.13,22.25.67l2.16-.3,3.74.19c33.11-.32,7.56-.16,36.91-.09,8.5,0,14.76-.14,20.08-.23l7.44-.11h4.44l6.7,0c-1.35,0-3.84-.05-4.92-.11s-.77-.12,3.32-.16c.39.06,2,.09,4.22.08,0-3.17-.06-7.72-.09-11.84,0-2.27,0-4.3.08-5.11,0-4.3,0-18.27-.37-13.54.18-2.37.26-14.83.42-7.41,0-4.21.06-8.28,0-11.3L390,329c0-14.19.23-21.93-.1-31.17l-.15,5.24c0-8.48,0-15.58.31-18.91l.12,8.71c0-14.07,0-22.56-.23-34.29v4.19c-.11-4.63-.22-15.34-.33-28.32-.11-14.19-.24-30.86-.36-45.86-2.57-.27-5.34-.51-7.62-1l-1.35-.27-1-.21-1.94-.44-1.91-.47-1.48-.38a1.28,1.28,0,0,1-.28-.13l-.85-.47-1.66-.92L365,181l-2.74-1.5-1.27-.7-.39-.2-.18-.09L356,173.6l3.87,4.94-7.85-8.78c.91,1.07,4.42,3.74,5.11,4.69l-9.33-10.86-7.41-11.92-11.1-5.53-7.78-3.88,1.63,8.53,2.72,14.15-11.54,13.48L301.08,186l-10.48,2.46h-.07L279.05,186l-13.27-7.5L253.1,163.66l-7.37-11.93-11-5.58L227,142.28l1.56,8.51c.06.33.12.65.17.94,1.61,9.32-.12,1.76-.19,1.66,1.09,5.44,1.41,6.76,1.66,7.76.12.49.23.91.4,1.73.08.4.2,1,.41,2l-.14.16c-.37.37-.22,0-.1-.22,0-.1-.07-.19-.09-.26l.05.25-1.77,2a16.34,16.34,0,0,0-1.49,1.85,15.63,15.63,0,0,1,2.72-2.72l.91-.46-7.84,9.09.2-.57c-.48.55-1,1.21-1.63,2-.31.42-.67.88-1.06,1.39l-.62.81c-.14.19-.16.24-.25.37l-.15.12-.08.06-.15.09-1.08.67-2.51,1.5c-1.84,1.08-4,2.33-6.62,3.77l-2.71,1.52L196,188.81h-.15l-11.58-2.5-13.37-7.56-11.58-13.54c.31.16,3.23,3.45,6.17,6.75-1.83-2.14-4.64-5.37-6.26-7.39.73.92.8,1.07.52.78l-.66-.72-.77-.87-1.64-2.58c-.43-.67-.55-.85,0,.07l-2.64-4c-.95-1.47-1.55-2.39-3.28-5.13l-11-5.42-6.66-3.29,1.39,7.27c.93,4.93,1.87,9.85,2.74,14.43l-2.66,3.16-3.45,4.19c-.06.18-.4,1-1.11,2.36-.35.7-.79,1.55-1.34,2.55l-.89,1.62-.5.9c-.13.25-.26.5-.39.77s-.29.45-.47.71l-.75.88L124,184.12l-3.48,3.93c-1.14,1.29-2.2,2.51-3.07,3.55-.43.52-.8,1-1.12,1.41a1.6,1.6,0,0,1-.26.33l-.39.38-.65.67-1.48.48-.66.27c-.4.17-.69.31-.91.42-.43.22-.56.33-.55.38L102.4,198h-1.62l.44,0,1.19,0,2.86-.61,3-.67,3.27-.75,3.8-.91,1.46-.84.5-.64c8.75-5.08,2.16-1,10.74-5.89.26,0-1.16.87-3.42,2.2l-3.93,2.29-5.29,3-3.39.8,3.4-.77,8.32-4.63c2.23-1.26,4-2.32,5.1-3.06l2.6-1.42,1.08-1.19.29-.3.09-.08c.09,0,.07,0,.12,0s.54-.42,2.88-3.08l4.61-5.57,2.5-3,4.38-5.15c-.31-1.64-.62-3.26-.92-4.87-.17-.94-.33-1.87-.49-2.78l.06.11c-.73-4.26-1.43-8-2.11-11.39l-8.47,6.41,5.14,2.5,2.48,1.18.61.3.3.14h.07l.05,0,.78,1.21,1.71,2.7c1.22,2,2.48,4,3.82,6.17l2.69,3.21-1.1-1.16c1.27,1.57,3.06,3.67,5.13,6.08l7.48,8.7,3.77,2.16,2.85,1.66c-2.32-1.37-4.27-2.69.7.08l4.23,2.46,4.64,2.66,14,3.06h2.28l2.13-.47,1.49-.31,7.37-2,2-.46,16-9.07,15.77-18.41c-1-5.14-2.27-11.83-3.61-18.82l-8,6,8.6,4.28,6.34,10.18,14.32,16.63,16,9,13.95,3h2.2l12.92-3L320.57,186c7.48-8.74,11.79-13.79,15.63-18.29-1.89-9.9-2.79-14.56-3.58-18.69L325,154.73l8.67,4.32,6.36,10.24,3.76,4.38-1-1.11,11.48,13.35,13,7.33c.53.31,1.07.61,1.61.91l.73.42a3.14,3.14,0,0,0,.79.36l1.41.39c1.26.34,2.53.67,3.83,1l2,.46,1.3.28a3.44,3.44,0,0,0,.51.07c0,26.32.08,56.78.12,86.2,0,15.49.06,30.71.09,45,0,7.14,0,14,.05,20.59,0,3.29,0,6.49,0,9.6,0,1.12,0,2.22,0,3.31,0,.27,0,.53,0,.79l-.82,0h-3l-7,0c-9.26-.24-22-.19-31.69-.26,5.37.11,3.53.28-.67.27-29.43,0-2,.17-31.75.27-34.28.23-165.47,0-195.9-.24-16.34.37-36.75.09-52.76.32l1.61-.08-19.68,0-27.45,0c0-15,0-31.07.08-44.78,0-15.12,0-27.58,0-33.43l-.05,2.69c-.23-17.43.17-15.05.29-28.79-.4,1.81-.63-13.13-.66-18.83l.08.22c-.06-8.59-.42-28.05-.47-42.23l.22.55c0-.19,0-.39,0-.59v-.22l0-.47c0-.16,0-.33,0-.5v-.4s0-.1,0-.09c.36,0,.75-.12,1.15-.21l1.05-.23,1.9-.44c1.26-.3,2.54-.63,3.81-1l1-.27.75-.21c.12,0,.26-.07.38-.12l.35-.2,2-1.1,13.15-7.45L41,178.67c3-3.44,6.3-7.26,9.85-11.37-1-5.66-2.15-11.75-3.32-18.08l-5.88,4.45,8.91,4.52L57,168.65l7,8.11L71.11,185l1.44.8,6.71,4.14L82.59,192l1.66,1,.84.51,1.45.87,1.82.43,2.42.46s6.46-.41,9.49-1.81c1.51-.7,2.16-1.65.72-2.93a14.68,14.68,0,0,0-3.88-2.15c-1-.41-2.1-.83-3.42-1.28l-2.12-.69-1.17-.36-.31-.09a.53.53,0,0,1-.13-.06l-.16-.08-.17-.16,0,0-.09-.06-.19-.12L89,185.2l-1.66-1.06.58.08L82,180.9,78.71,179l-1.38-.77-.35-.2-.12-.06-.26-.28-.68-.78-1-1.15c-.51-.58-.68-.82-.51-.73l2.48,2.9,4.91,2.8c-7.09-4.09-2.06-1.37.72.06L79.29,179l-1.53-.88-.37-.22-.16-.09,0,0-.09-.06-.05-.07,0,0,0,0-.09-.11-.69-.84c-.54-.57-.39-.36,0,.11l.69.85.07.08,0,0,0,.07h0l-.1-.09,0,0-.15-.17-.3-.33-1.23-1.37c-.84-.95-1.73-1.94-2.64-2.95-1.81-2-3.68-4.18-5.36-6.22-1.55-1.82-2.22-2.65-2.54-3.09l-.19-.26c0-.07,0,0,0-.07l0-.08a.19.19,0,0,0,0-.08c0-.11-.21-.41-.4-.74-.4-.7-1.07-1.81-2.17-3.6l-4.8-7.8-11.34-5.71-9.66-4.87,2,10.68q1.27,6.84,2.53,13.62L29.6,177.44l-11.94,6.7-1.12.63-.94.25c-1.13.3-2.27.58-3.4.85l-1.69.38c-.35.08-1.62.33-2.7.52-2.33.37-4.89.56-7.27.84,0,24.26-.06,48.6-.09,73.4-.09,1.18-.09-.23-.13-1.73.06,15.7.11,29.66.16,44-.1,4-.24,5.06-.33,6.23.06-.78.1,7.66.13,19.33,0,13.42,0,30.56,0,44.52Z"/><path class="cls-2" d="M103.78,206.65,91.23,204l-14.47-8.19-13.38-15.6L56.46,169l-10-5,3.08,16.17-13.38,15.6L21.69,204s-8,2.3-12.56,2.7l-21.52,19,54.11,85.52L102.87,335l99.23-1.9,91.46-1.74,56.07-26.07L397.31,251l-9.58-44.3c-4.58-.4-12.55-2.7-12.55-2.7l-14.47-8.19-13.38-15.6L340.41,169l-10-5,3.07,16.17-13.37,15.6L305.64,204l-11.56,2.7h-1L280.53,204l-14.47-8.19-13.38-15.6L245.76,169l-10-5,3.07,16.17-13.37,15.6L211,204l-11.56,2.7h-1L185.88,204l-14.47-8.19L158,180.16,151.11,169l-10-5,3.07,16.17-13.37,15.6L116.34,204l-11.56,2.7Z"/><path class="cls-2" d="M100.79,201.07c-1-.3-2.32-.63-3.76-1l-4-.94-.11-.06-.58-.35-1.4-.8-2.84-1.63L90.79,198l1.4.86.67.4.13.1c.08,0,.06,0,.23.07l1,.23,2.06.47Z"/><path class="cls-2" d="M88,196.24l-.08,0,.17.1Z"/><path class="cls-2" d="M109.21,211.43l4.56-1.08C112.24,210.7,110.69,211.06,109.21,211.43Z"/><path class="cls-2" d="M62.57,325.55l1-.06c12.6,4.9,3.5,1.86,15.18,6.3,2.17.57,6.39,2.2,10.73,3.93l6.34,2.54,2.78,1.1,3.32,1.26,1.48-.05,1-.05s.34,0,.89,0h2a12.69,12.69,0,0,1,2.71.12c1.87-.34,6.29-.19,10.15-.34,1.39-.12-1-.08-2.08-.15l8.84-.28c3.46,0,4.31.2.56.31,23.1-.34,134-2.16,158.89-2.79-3.2-.17-10.88.13-13.8-.17,6.57-.33,9.68-.12,12.58-.39a21.69,21.69,0,0,0,3.29.19h2.46l4-.05,3.85-1.76,2.71-1.2c1.76-.77,3.36-1.43,4.58-1.84l1.58-1.07,3.05-1.21c26.11-12.49,5.93-2.93,29.22-13.68l6.65-3.15,6.59-3.18,6.5-7.66c1.74-2,3.39-3.93,5.17-5.88-.81.92-3.11,3.26-.64.32.64-.32,6.61-7.83,8.05-9.05,2.46-2.86,10.54-12,7.54-9.15,1.5-1.43,8.74-9.57,4.59-4.59,2.43-2.75,4.81-5.39,6.5-7.43l-3.19,3.47L403,252.43c-.44-1.94-.87-3.85-1.31-5.78-.26-1.06-.53-2.12-.8-3.21l.42,2.25.2,1.13.39,2c-.46-2.1-.9-4.12-1.31-6-.35-1.64-.67-3.16-1-4.55-.56-2.79-1-5-1.09-6.5l1.72,7.42c-2.61-12-4.2-19.27-6.56-29.25l.76,3.58c-.2-.86-.47-2-.79-3.32-.53-2.33-1.15-5.05-1.84-8.11-1.71-.17-3.58-.35-5.44-.59l-1.37-.23-.85-.16-1.5-.3c-1-.22-2.11-.47-3.21-.74s-2.68-.67-2.5-.65l-13.23-7.31L351,177.47c-2.63-4.14-5.16-8.16-7.51-11.87l-11.18-5.44-7.84-3.81,1.73,8.43c1,4.9,1.8,8.68,2.28,10.74l-.76-5.5,1.08,5.06.54,2.54.11.47.06.26.13.53a1.56,1.56,0,0,0-.24-.53l-.2-.31-.33-.84a16.73,16.73,0,0,1-.92-2.81c.19,1,.45,2.33.87,4.53l-11.51,13.46c-4.06,2.31-8.52,4.85-13.26,7.53l-10.47,2.47h0l-11.48-2.45-13.27-7.49L256.1,177.66l-7.39-11.91-11.06-5.54L230,156.4l1.58,8.37c1,5.41,1.93,10.22,2.67,14.18l-5.53,6.37c-5.5,6.17-1.31.83-1.28.73-2.42,2.89-3.4,4.1-4,4.83s-.92,1.22-1,1.33l-.14.09-.56.32-2.26,1.29c-2.06,1.1.31-.43,1.43-1.12-3.24,1.88-6.32,3.5-6.5,3.76,4.13-2.22,2.57-.93,4.41-1.71l-9.3,5.23,0-.28-.22.15-.22.1-.91.27L206,201c-.9.26-1.94.56-3.16.88l-3.79,1h-.16l-2.82-.62-8.77-1.92c-4.37-2.48-8.83-5-13.36-7.58-4.25-5-8.55-10-12.75-14.87q-2.49-4-4.9-7.94c.26.17,2.36,3.4,4.46,6.64-1.29-2.09-3.29-5.26-4.41-7.23.65,1.18.52,1,.07.37l-.85-1.31-1.58-2.52-2.51-1.22c-.16-.08-.18-.09-.13,0l.82.44-4.72-2.2-4.61-2.21L136,157.41l1.42,7.27c.52,2.66,1,5.37,1.57,8.08.41,2.13.81,4.26,1.2,6.34l-4.38,5.14c-1.76,2.08-3.41,4.07-4.89,5.9a5.3,5.3,0,0,1-.44.92c-.16.29-.37.66-.67,1.14l-.5.8c-.13.23-.19.37-.31.6a2.44,2.44,0,0,1-.14.44c0,.09-.07.18-.11.27l-.28.37-1.33,1.7-3.27,4c-1.14,1.41-2.28,2.82-3.25,4.08-.48.63-.92,1.22-1.3,1.75q-.13.21-.27.39l-.13.19-.22.24-.83.89-1,.34-.44.16-.25.11-.89.41c-.52.26-.93.47-1.24.64-.61.35-.83.54-.82.59L105.4,212h-1.62l.43,0,1.2,0,2.79-.6,2.86-.63c2-.46,4.13-1,5.72-1.37l1.13-.58.32-.08,2.86-1.64,1.3-.73c.64-.34.86-.44,1.09-.54a43.72,43.72,0,0,0,4.64-2.49c.21,0-.8.65-2.48,1.66l-3,1.74-4.26,2.45-4.64,1.11,4.66-1.06,6.52-3.63c1.69-.95,3-1.77,3.87-2.36,2.45-1.33,2.5-1.28,2.54-1.22s0,.07.33-.06c.15-.06.37-.17.7-.34l.74-.39,1.53-.84,1.37-1.56,5.42-6.58,2.94-3.51,1.49-1.72,2.08-2.37-.09.18,2.65-3q-.72-3.84-1.36-7.3c-.28-1.43-.54-2.8-.8-4.12-.54-2.63-1.05-5.09-1.55-7.53l-8.3,6.27,4.91,2.36,2.52,1.23,1.11.56.07,0,0,.06v0s0,0,.05.1l.32.52,1.32,2.21-.81-1.15c.57,1,1.31,2.21,2.16,3.59l3.07,4.94,4.24,4.94c1.35,1.58,2.71,3.2,4,4.79-1.5-1.82-2.69-3.49.57.26l2.57,3.07,3,3.57,7.77,4.41c2.16,1.24,4.23,2.44,6.33,3.71l2,1.06,2.18.42,1.31.23,2.61.46,8,1.72h2.24l13-3,16-9.09,15.73-18.4c-1.09-5.66-2.35-12.23-3.61-18.8l-7.9,6,8.61,4.28,6.35,10.19L262.57,200l16,9,13.92,3h2.19l12.9-3,15.92-9.05,13.89-16.22-1.56,1.89,3.33-3.9c-1.09-5.68-2.29-11.93-3.58-18.68l-7.55,5.71,8.67,4.32,6.36,10.24,14.26,16.58,13.44,7.59,2,1.1a5.73,5.73,0,0,0,1.59.57l1,.28c1.24.33,2.48.65,3.75,1l1.9.43,1.86.39.54.08c2.8,12.8,5.65,25.82,8.37,38.27l-43,49.38-1.4,1.51c-.2.23-.42.46-.63.69l-.14.13-.12,0-.06,0h0l-.14.07-1.32.59-2.69,1.22-5.52,2.52-10.52,4.84c4.3-1.89,2.91-1-.41.49-23.35,10.82-1.51.88-25.06,12l-8.21,3.87-37.1.74-47.88.86-75.24,1.17c-4.52.2-9.39.34-14.39.46l-14.2.29-7.13-2.75L89,324.76l1.34.44-17.94-7L44.8,307.42c-7-11.2-14.43-22.92-20.67-32.81L9.75,251.91l1.21,2c-8.33-12.75-6.89-11.21-13.2-21.42.18.57-.67-.55-2-2.39-.31-.47-.66-1-1-1.51l-.56-.83-.13-.18,0-.06-.09-.11c-.23-.3-.49-.64-.73-1l.57-.56.56-.53c0,.07-.07.14,0,.16l16.56-15.06.67-.11.84-.15.89-.17c1.19-.23,2.34-.49,3.47-.77s2.22-.55,3.29-.83L21.6,208l1-.28a6,6,0,0,0,.6-.19l.55-.31a4.15,4.15,0,0,1-.62.57c.41-.17.85-.47,1.22-.67l.77-.46,1.62-.95,3.54-2.05,8.4-4.81,15-17.51,0,0-3.3-18.05-5.78,4.37,8.91,4.56L60,182.65l6.92,8.08L74.09,199l4.62,2.56,5.12,3.2,2.56,1.6,1.28.8,1.9,1.14,2,.48,1.27.33,2.11.39s5.94-.59,8.57-2.14c1.31-.77,1.79-1.78.29-3.06a14.67,14.67,0,0,0-3.88-2.15c-.94-.39-2-.81-3.32-1.24l-2.06-.66-1.13-.35-.3-.08-.09-.05-.15-.07-.14-.14s0,0,0,0l-.18-.11-.37-.24.52,0-5.18-2.9c-2.29-1.34-4.15-2.38-5.54-3.15l-1.75-1-.23-.12-.08-.06c0-.06,0-.1,0-.12l0,0,7.42,4.23c-6.19-3.58-1.79-1.22.65,0-2.59-1.49-5.1-2.94-7.13-4.17-1.27-.62.85.59,1.8,1.18L81,192.34l-.85-.45-.16-.06-.08-.07,0,0,0,0-.1-.11-.83-.93-1.68-1.89c-1.13-1.29-2.25-2.59-3.29-3.85-4.75-5.58,0-.59-5.58-7.09l-.7-.83-7.46-12.14-11.34-5.73-9.73-4.91,2,10.77c.84,4.54,1.68,9.08,2.52,13.59L32.57,191.4l-12,6.72-1.07.6-1,.26c-1.14.3-2.28.59-3.41.85s-2.27.51-3.37.72c-.55.11-1.09.2-1.62.28l-1.61.2-1.78.19-26.53,23.36,9.72,15.36c.48.92-.18-.12-.92-1.21C-3.6,250.3,3,260.58,9.69,271.12c1.78,3,2.17,3.86,2.64,4.78-.29-.56,3.06,4.66,7.86,12.2l17.64,27.78Z"/><path class="cls-3" d="M103.78,336.65,91.23,334l-14.47-8.19-13.38-15.6L56.46,299l-10-5,3.08,16.17-13.38,15.6L21.69,334s-8,2.3-12.56,2.7v54.86h378.6V336.65c-4.58-.4-12.55-2.7-12.55-2.7l-14.47-8.19-13.38-15.6L340.41,299l-10-5,3.07,16.17-13.37,15.6L305.64,334l-11.56,2.7h-1L280.53,334l-14.47-8.19-13.38-15.6L245.76,299l-10-5,3.07,16.17-13.37,15.6L211,334l-11.56,2.7h-1L185.88,334l-14.47-8.19L158,310.16,151.11,299l-10-5,3.07,16.17-13.37,15.6L116.34,334l-11.56,2.7Z"/><path class="cls-3" d="M101.07,331.13c-1.06-.32-2.38-.66-3.88-1l-4.13-1-.08-.05-.34-.2-1.11-.64L89.29,327l2.11,1.34c.66.41,1.74,1.06,1.6,1l.08,0,0,0,.11,0,1,.24,2.12.48Z"/><path class="cls-3" d="M89.2,326.89l-.07,0,.16.09Z"/><path class="cls-3" d="M108.93,341.49l4.25-1C111.75,340.81,110.3,341.15,108.93,341.49Z"/><path class="cls-3" d="M88.58,397.34l.81-.4c12.59,0,3.66.46,15.3.36,4.56-.56,19.34.06,23.36-.24,0,0,.32,0,.83,0l1.9,0a10.28,10.28,0,0,1,2.52.17c1.75-.31,5.86-.07,9.46-.15,1.3-.09-1-.09-1.93-.19l8.23-.1c3.22.09,4,.27.52.31,21.52.11,124.84.4,148,.25-3-.23-10.14-.08-12.86-.44,6.13-.21,9,.07,11.73-.14,2.35.54,13.46.13,18.11.67l1.75-.3,3.05.19c27-.32,6.16-.16,30.06-.09,13.83-.05,20.4-.47,28.09-.31-1.14,0-4.19-.2-.61-.27a34.9,34.9,0,0,0,4.68,0l6.37,0c2,0,3.79,0,5,0,0-.36,0-.65,0-.86,0-1.65,0-4.23,0-7.06,0-2,0-4.2,0-6.08,0-2.8-.13-4.68-.31-2.76.18-1.93.26-12.07.42-6,0-3.42.06-6.73,0-9.2l-.1,4.4c0-11.56.23-17.86-.1-25.38l-.15,4.27c0-2.28,0-4.43,0-6.39,0-3.57,0-6.79.05-9.54A71.79,71.79,0,0,1,385.6,331c2.37.38,5,.57,7.47.84.05,2,0,4.05.07,6.09,0-2.24,0-4.42,0-6.13-2.31-.27-4.69-.46-6.79-.79-.56-.07-1-.17-1.49-.26l-1.19-.23-1.47-.33-2.85-.68-1.38-.36-.6-.16-.11,0-9.93-5.42,3,1.69L364,321.83,351.2,307.32l-7.53-11.91-11.23-5.5-8.31-4.06,1.81,9c.57,2.86,1.14,5.68,1.68,8.38.27,1.36.54,2.68.8,4,.07.32.13.63.19.95l.06.25a4.7,4.7,0,0,1,.12.51c-.18.24-.37.47-.55.7l-1.8,2.16-3.18,3.84c-1.92,2.32-3.41,4.15-4.32,5.29l3.58-3.73L320,320.3l-1.28,1.57-.62.77-.25.33-.79.49.25-.16.15-.1s0-.05.07-.07a2.43,2.43,0,0,0,.22-.29l.06-.24,0-.12a.51.51,0,0,1,.07-.17c.21-.35.41-.7.6-1a7.47,7.47,0,0,1,1-1.43l-2.15,2.5-13.25,7.53-10.46,2.47h0l-11.47-2.45-13.26-7.48c-4.21-4.88-8.49-9.87-12.7-14.77l-7.39-11.91-11.08-5.53-7.61-3.8,1.59,8.36c1,5.1,1.87,9.9,2.69,14.18L222.7,322.41l-1.36.74c-6.77,3.66-1.42.29-1.37.21-8.1,4.71-3.37,2.25-10.31,6.15l-.15.08,0,0-.06,0h-.06s0-.06.05-.11a3.78,3.78,0,0,1,.67-.47l.91-.58-1.74,1L207,330a7.23,7.23,0,0,0-1.3.38,11,11,0,0,1,3.1-.43,1,1,0,0,1,.38.12.53.53,0,0,0,.3.12h0l-9.36,2.15.4-.32-.94.25-.49.14-.17.09h0c.11,0-.37,0-.23,0h0l.11,0a15.24,15.24,0,0,1-1.67-.23l-2.7-.45c-1-.19-2.15-.41-3.42-.67l-2-.42c-.65-.14-1.69-.37-1.76-.4h0l-13.35-7.61-12.75-14.87L153.81,296,151,294.62a.6.6,0,0,1,.2.05l.2.08.36.15,2.16,1c.89,1.38,2.22,3.42,3.56,5.47L154,295.79l-2-1-.76-.4-.49-.26c3.59,2-6.47-3.07-3.64-1.54-1.39-.62-2.84-1.29-4.31-2l-7-3.31,1.6,7.43c.55,2.57,1.09,5.25,1.63,8,.4,2.14.82,4.3,1.23,6.43L135,315.18c-2,2.39-3.91,4.65-5.57,6.73a1.46,1.46,0,0,1-.19.36l-.33.5a4,4,0,0,1-.23.42,2,2,0,0,1-.2.74c-.34.43-.73.95-1.18,1.53l-3.2,4.05c-1.16,1.47-2.35,3-3.38,4.38-.52.69-1,1.35-1.4,1.95l-.3.43-.14.21a1,1,0,0,1-.18.24l-.9,1a17.92,17.92,0,0,0-2.75,1.17c-.59.29-1,.54-1.4.75-.7.41-1,.64-.94.71L105.4,342h-1.62l.42,0,1.21,0,2.64-.56,2.65-.59c1.87-.42,3.83-.89,5.26-1.26l.53-.44,1.74-.42,2.34-1.33,1-.55a7.9,7.9,0,0,1,.89-.42,43.94,43.94,0,0,0,4.27-2.3c.19,0-.63.55-2,1.4l-2.5,1.49-3.76,2.17-5.23,1.24c1.78-.39,3.55-.79,5.25-1.18l5.66-3.15c1.43-.82,2.58-1.52,3.3-2,4.85-2.63-.38.57,5.45-2.61l1.83-1.05,1.8-2.16,1.17-1.43,2.46-3c1.67-2,3.41-4.08,5.11-5.95l0,.1,2-2.3,3.34-3.86c-.48-2.51-.94-4.89-1.38-7.18-.28-1.39-.56-2.73-.83-4-.54-2.61-1.07-5.12-1.61-7.72l-8.18,6.18,4.48,2.2,2.38,1.21,1.24.65.32.16c.11.06,0,0,.06,0l0,0,0,0h0a1.58,1.58,0,0,1-.26-.1c.38.2.2.12.25.15v.06h0l.17.29.39.63,1.69,2.71,4,6.48,2,2.35,1.68,2c-1.39-1.7-2.5-3.27.54.22,1.86,2.26,3.55,4.25,5.12,6.1l5.09,5.95,3.74,2.15,2.81,1.68,5.53,2.84,4.08,2.32,14,3h2.24l13-3,16-9.1,15.72-18.39c-1.17-6.09-2.41-12.5-3.61-18.78l-7.86,5.94,8.63,4.28,6.36,10.2L262.59,330l16,9,13.91,3h2.18l12.88-3,12.07-6.85-1,.63,4.91-2.79,15.6-18.25c-1.12-5.87-2.32-12.15-3.57-18.66l-7.5,5.67,8.68,4.32,6.37,10.25,14.25,16.58L371,337.51l2.1,1.18a16.13,16.13,0,0,0,1.55.46l.92.25c1.23.33,2.45.64,3.7.93s2.91.65,2.8.62l.52.07c.07,16.54.13,32.26.18,45.51l-1.37,0-5.65,0-9.78.06c-7.54-.24-17.94-.19-25.81-.26,4.38.11,2.88.28-.54.27-24,0-1.61.17-25.85.27-27.91.23-134.73,0-159.5-.24-13.31.37-29.92.09-43,.32l1.31-.08c-6.4.06-26.42,0-47.76,0l-51-.08c0-.64,0-1.07,0-1.39,0,.28,0,.37-.05.57,0-.11,0-.2,0-.3s0,0,0-.56c0-.77,0-1.48,0-2.14,0-1.33,0-2.46,0-3.46,0-2,0-3.42.08-4.77.09-2.69.22-5,.28-10.59-.4,1.47-.63-10.69-.66-15.33l.08.18c0-1.46,0-3.29-.07-5.41q0-.8,0-1.65v-.67a6.22,6.22,0,0,1,0-1.14c.25,0,.51-.09.79-.15l1.33-.32q2.82-.66,5.61-1.46l1.66-.47a5.22,5.22,0,0,0,.56-.18l.5-.29.8-.46,2.4-1.39,4.58-2.64-.28.41,3.18-1.88,4.26-2.47,15-17.58-1.52-7.93c-.55-3.07-1.17-6.47-1.84-10.11l-5.71,4.32,8.92,4.57c2.06,3.39,4.22,6.92,6.41,10.51l6.89,8.07L74.07,329l6.13,3.39,4.39,2.75,2.19,1.38,1.1.69.72.45,1,.59,1.43.34.86.23,1.61.42,2,.36s5.69-.7,8.13-2.31c1.22-.81,1.62-1.84.1-3.14a15.33,15.33,0,0,0-3.88-2.13c-.94-.39-2-.8-3.29-1.22l-2-.65-1.11-.34-.29-.08-.08,0-.14-.07-.11-.11a.93.93,0,0,0,.18-.16l-4.3-2.4c-5.72-3.36-8.52-4.65-8-4.62l7.89,4.5c-5.77-3.34-1.66-1.15.62,0-2.42-1.39-4.75-2.75-6.65-3.9-1.18-.57.8.56,1.68,1.11l-2.35-1.24c-.41-.23-.84-.45-1.28-.68l-.32-.18-.09,0h0l-.13-.05-.11-.11-.54-.6-1.22-1.39c-.82-.93-1.61-1.87-2.36-2.79-4.43-5.19,0-.56-5.18-6.62L67.7,307q-3.77-6.11-7.47-12.15l-11.34-5.73-9.77-4.93,2,10.81q1.26,6.81,2.51,13.58L32.55,321.37l-11.92,6.69-1.12.63-.91.25c-1.13.3-2.27.58-3.4.85l-1.69.38-1.07.22c-.55.1-1,.21-1.63.3-2.36.38-4.94.58-7.34.86,0,11.45,0,23,0,34.59-.09,1-.09-.18-.13-1.41,0,11.51.07,22.07.1,32.49l14.73-.05c3.23.1,4.12.23,5.07.32-1-.09,15.12-.14,31.57-.16Z"/></g></g></svg>