<svg xmlns="http://www.w3.org/2000/svg" viewBox="0 0 385.51 385.51"><defs><style>.cls-1{fill:#2c2c2c;}.cls-2{fill:#fff;}</style></defs><g id="sorcière"><path class="cls-1" d="M322.1,258.25c-.23-1.3-.63-3.05-1.11-5s-1.06-4.19-1.6-6.33c.18.87.36,1.74.55,2.64s.39,1.73.6,2.64C321,254,321.48,256,322.1,258.25Z"/><path class="cls-1" d="M319.35,246.77s0-.09,0-.12l.07.27Z"/><path class="cls-1" d="M313.42,258.12l-3.36,1.13C311.19,258.88,312.34,258.5,313.42,258.12Z"/><path class="cls-1" d="M294.08,140.75c.22-.08.43-.16.62-.25,8.89,2.32,10.85,2.94,12.34,3.44s2.49.84,9.59,2.68L314.9,145c-3.52-3-8.76-8.2-14-13.4S290.44,121.14,288,119c0,0-.33-.36-.9-.93l-2.09-2.1-.73-.75-.47-.5c-.26-.3-.4-.49-.32-.47-1.23-.77-3.45-3.27-5.59-5.26-.82-.68.49.61,1,1.23l-4.85-4.6c-1.8-1.9-2.14-2.48-.08-.51-3.58-3.54-10.54-10.4-19.24-19l-75.6,30-10.78,21.2c1.31-2,3.81-7.29,5.14-9.09-2.08,4.52-3.39,6.49-4.2,8.54-1.35,1.46-5.09,9.68-7.29,12.79l-.37,1.41-1.3,2.11c-9.66,19.64-2.13,4.53-11,21.77-2.53,5-4.31,8.75-5.83,11.93-.76,1.58-1.46,3-2.14,4.42-.35.7-.69,1.38-1,2.06l-.53,1-.27.51,0,.07h0l0,0,0,0h0l.06-.1.12-.21c.16-.27.32-.53.43-.69.22-.31.22-.16-.39,1.12-.13,0-.17.14-.25.4a2.58,2.58,0,0,1-.4,0l-.79,0a4.7,4.7,0,0,1-.85-.1c-2.85-.05-12.07-.37-9,.1-1.56-.24-9.79-.56-4.88-.57-2.78-.1-5.47-.24-7.47-.22l3.56.22-4.68-.15-4.26-.16-6.39.35c-1.92.13-3.76.28-5.71.51l3.47-.06c-5.6.36-10.28.66-12.5.43l5.74-.45-11.7.74-12.48.92-.5.52.51-.5,4.33-.26-4.3.33-6.81,7L53.16,215.36l10.28,8.1,6.28,4.91,12.68,9.9,11.37,4.44c3,1.17,5.36,2,6.72,2.53l-3.78-1.85,7.34,2.74c-.86-.35-3.85-.58-4.53-1l28.23,11.48,48.63,12.44,24.43,3.72,14.93,2.33,1.87.34.7,0,.36,0,.46.06c.2,0,.21.08.1.11a5.66,5.66,0,0,1-.59.08l-.4,0-.67,0-.68-.07a.9.9,0,0,0-.18,0l.86.12,2.35,0h1.32c.69,0,1,0,1.37,0,.66,0,1.27,0,4.39.07,1.77.11-.37.21-1.36.21,2.83.07,5.45.26,5.67.13-3.53-.22-2-.52-3.51-.8l8.31.32-.38.21c1.85.07,4.72-.45,12.88,0l2.74.11,31.9-1.54-3.49-10.49c-.24-.73-.48-1.45-.71-2.16l-.16-.52a1.62,1.62,0,0,1,.3.38l.15.24.06.11,0,0s0-.06.06.15l.3.87-.42-1.27c0-.12-.05-.23,0-.26-.18.2-.44-.83-.49-.66a9,9,0,0,1-.52-1c1.22.66,3,1.82,4.48,2.84l4.43,2.91c1.88,1.21,3.68,2.35,5.33,3.34a8.67,8.67,0,0,1,1.39.28,39.66,39.66,0,0,1,4.58,1.71,40.74,40.74,0,0,0,3.89-3.53c1.18-1.21,2.48-2.48,3.68-3.65,2.39-2.34,4.4-4.29,4.34-4.49,2.64-.86,5.27-1.72,6.09-1.95-.72.1-5.93,1.76-8.67,2.75l-.38.45a26.29,26.29,0,0,1-3.91,1.24,8.2,8.2,0,0,0-.89.21l-1.08.33-1.72.57a.28.28,0,0,1,0-.09c.12-.07.33-.16.61-.28.55-.22,1.38-.53,2.38-.89,2-.71,4.67-1.62,7.18-2.46l-6.47,2.05c-1,.31-1.84.61-2.58.88l-1,.38-.19.08v.08c-.2,0-.09-.16-.11-.26s0-.12,0-.15l-5.24-3.25-2.92-1.87-1.43-.95-1.61-1.1.15,0c-5.75-3.89-10.73-7.16-15.24-10.07l-12.78-8.21c2.06,6,4.1,12.1,6.39,19.26l-.86-2.3c.5,1.53,1.09,3.36,1.75,5.43.61,1.83,1.29,3.87,2,6,0,0,.07.11.05.14a.24.24,0,0,1-.1-.05c0,.05.37.22.19.26l-.16,0c-.11,0,.24,0-.87,0l-4.39.2c-2.77.14-5.31.25-7.94.28l-5,.5-.39,0-32.76-1.1-40.21-6-47.54-12.07-21.93-8.93.93.34-22.42-9.1L68.2,214.55l7.51-7.5,35.19-2.2,34.73.93,7.13-14.15c3-5.34,6.79-12.88,9.75-18.54-1.7,3.12-1.3,2,0-.51,8.87-17.31.44-1.24,9.29-18.82,1.55-3.06,3.76-7.45,6.43-12.74l8.48-16.65,34.9-13.87,30.74-12.12L264,110c4,3.65,8.34,7.88,12.66,12.1l2.2,2.13c.51.48,1,1,1.65,1.48l-.4-.27c.31.28.78.73,1.38,1.31l-22.7-6-28,25.78c.7,5.59,1.21,9.74,1.53,12.31l-.17-1.76c1.61,11.4,1,9.89,2,18.92.26-1.23,1.67,8.54,2.16,12.27l-.11-.13c.75,5.63,2.65,18.35,3.83,27.65l-.26-.33c0,.38.11.78.17,1.2.09.65.18,1.32.28,2,.19,1.48.4,3,.61,4.71l14.68,4.23,9.69,2.83L287,237l11.53,5.91,6,3,3,1.46,1.47.72.64.32.23.1.41.32.05.72v.08l.05.26.12.57.24,1.15.95,4.6.48,1.55s12,15.3,7.7-7l.31.29-1.32-4.81-.93-3.58-4.13-2.09-1.66-.81c-.82-.4-1.15-.57-1-.59l6.78,3.47.88,3.35c-.4-1.59-.7-2.73-.86-3.37-2.11-1.12-1.43-.82.12-.1l1.24,4.13c-.38-1.45-.76-2.89-1.11-4.24-2.24-1.16-4.91-2.54-5.49-2.88s-.33-.1,0,.12l1.65.9-4.85-2.29c-1.65-.78-3.35-1.62-4.91-2.46-4.93-2.53-.15-.48-5.9-3.43l-8.21-4.22-41-12.25,0-.2v0l-.05-.42-.16-1.44-.68-5.77q-.69-5.78-1.37-11.58-1.41-11.61-2.82-23.37c0-.79.1.13.26,1.12-.6-4.75-1.17-9.24-1.72-13.63-.28-2.2-.55-4.36-.82-6.52-.13-1.08-.27-2.15-.41-3.23l0-.18h0v-.06l0-.09.07-.1h0l.07,0,.57-.47.88-.69c.48-.37.79-.58,1.11-.81-.33.24,2-2,5.75-5.46l11.46-10.66Z"/><polygon class="cls-1" points="318.23 262.49 313.82 245.97 288.57 233.15 244.4 220.24 244.4 220.24 235.69 148.28 260.02 125.81 296.94 135.47 253.42 92.88 183.44 120.82 142.65 200.73 110.83 199.75 73.45 201.99 60.38 214.97 84.67 234.4 129.1 252.57 177.23 264.95 218.01 271.14 251.33 272.3 278 270.98 271.29 250.78 298.83 268.92 318.23 262.49"/><path class="cls-2" d="M133.94,215.88c0,.31.22.52.42.75A.94.94,0,0,0,133.94,215.88Z"/><polygon class="cls-2" points="134.36 216.63 134.37 216.63 134.36 216.63 134.36 216.63"/><path class="cls-2" d="M191,227.82l-.24,0A.63.63,0,0,0,191,227.82Z"/><path class="cls-2" d="M146.4,226.5l.23-.34c.63.32,0,.5.59.72.49-.39.94.55,1.28.39,0,0,.25.2.15.34.23-.22.32.09.54.12s0-.11,0-.22l.46.12c.12.17.07.35-.12.29,1,.65,6,3.59,7.24,4.05,0-.28-.47-.32-.43-.72.4,0,.41.3.64.18-.13.54.61.46.59,1.07l.23-.23.06.25c1.49.41.38,0,1.54.7.73.33,1.18.08,1.59.47a.18.18,0,0,1-.11-.17c0-.06,0-.13.17-.1-.05.28,1,.29,1,.62l.53.24c.43,0,.85,0,.66-.23.14.21,1.18.45.52.51l.51.11c.17,0,.19,0,.28,0a1,1,0,0,0-.27-.15c.74.07,1,.39,1.47.13l-.22-.18c.39,0,.71.07.8.45l-.41.05a4.21,4.21,0,0,0,1.58,0l-.18,0c.73-.25,4.3,0,5-.33l-.24-.32.57-.15c-.06,0-.4.86-.44.76,1.14.16,7.12.91,8.15,1.27.4.22,0,.45,0,.5.53,0,.27-.26.71-.17.11.07-.06.22-.14.25.2,0,.36.12.4,0-.23-.14-.07-.47-.13-.71l.56.12-.06.22c.12,0,.41-.55.95-.34.93.24,2,.33,2.89.53,0,.13-.24.18-.45.22.12,0,.32,0,.42.14-.19-.27.42-.09.26-.22.78-.42,1.59.21,2.26-.05.13-.47,2.65-8.06,2.74-8.63a1,1,0,0,1,.42.14c0-.14-.38-.27-.59-.22l-.09.3c-.47,0-.08-.2-.52-.25,0-.26.43-.24.8-.21-.32-.08-.62-.32-.79-.06-.29-.16.08-.3-.27-.47-.27,0-.66.22-.93,0v0c-.69-.38-1.18.2-1.81-.16l.09-.08c-.21-.18-.71-.06-1.11-.28.11.07.19.27-.07.25-.47-.23-.83-.13-1.15-.38l-.39.19c-1.69-.33-8.48-1.07-10.2-1.3l.08,0c-1.11-.13-2.7-.36-4.36-.59l-2.51-.33-1.19-.14-.15,0H166l-.1,0h-.15s-.16-.06-.26-.09l-.31-.13c-.26-.41-.81-.63-1.17-.89.17.2,0,.32-.15.22-1.17-.64-.15.11-1.41-.42a60.46,60.46,0,0,1-7.81-4.35c-.83,0-1.52-.69-2.28-.83l.11,0a15,15,0,0,1-1.71-.88l-1.2-.69-.61-.34-.12-.08a5.9,5.9,0,0,0-.76-.62l.06.12c-.76-.33-.42-.57-.82-1.06-.2.36-.87.1-1.09,0l.07-.07a16.31,16.31,0,0,1-1.79-.86l.17-.16a6.17,6.17,0,0,1-1.6-1.12,9.72,9.72,0,0,0-2.52-2.34l-.18-1-.13,0s-5.84,5.06-5.68,7.32l-.16.15.26.18c.21.32.51.23.35.38l-.38-.34c.25.29,0,.21-.21.21a1.42,1.42,0,0,1,.25.37c.11,0,0-.11,0-.18.2.07.55.09.67.32.28.26-.21.29.12.6,1.69,1.64,3.28,3.29,5.13,4.78,0,.1-.06.06-.14,0,.62.39,1.07.81,1.65,1.17a1.21,1.21,0,0,1,.23.61c0-.06.22.1.59.38l1.38.65,1,.48A11.73,11.73,0,0,1,146.4,226.5Z"/></g></svg>