{
	"nodes":[{
		"name":"Tombe_02",
		"translation":[0.8432782292366028,
		-0.21568430960178376,
		-0.5071630477905273],
		"rotation":[0.0,
		-1.0,
		0.0,
		-6.123234262925839e-17],
		"scale":[1.0,
		1.0,
		1.0],
		"mesh":0
	},
	{
		"name":"Tombe_01",
		"translation":[-0.5253164768218994,
		-0.18799878656864167,
		-0.4956035912036896],
		"rotation":[0.0,
		-1.0,
		0.0,
		-6.123234262925839e-17],
		"scale":[1.0,
		1.0,
		1.0],
		"mesh":1
	},
	{
		"name":"Tombe_04",
		"translation":[-0.4575616717338562,
		-0.09166309982538223,
		0.6646912097930908],
		"rotation":[0.018646858632564546,
		-0.9961206316947937,
		-0.0016095860628411174,
		0.08598455786705017],
		"scale":[1.0,
		1.0,
		1.0],
		"mesh":2
	},
	{
		"name":"Tombe_03",
		"translation":[0.8077898621559143,
		-0.13309931755065919,
		0.7839304804801941],
		"rotation":[0.0,
		-0.9914554357528687,
		0.0,
		-0.13044574856758119],
		"scale":[1.0,
		1.0,
		1.0],
		"mesh":3
	},
	{
		"name":"A5",
		"translation":[0.0,
		0.0,
		0.0],
		"rotation":[0.0,
		-1.0,
		0.0,
		-6.123234262925839e-17],
		"scale":[1.0,
		1.0,
		1.0],
		"mesh":4
	}],
	"asset":{
		"version":"2.0",
		"generator":"Created using the official Cinema 4D glTF Exporter 1.000x284978"
	},
	"textures":[{
		"sampler":0,
		"source":0
	},
	{
		"sampler":1,
		"source":1
	},
	{
		"sampler":2,
		"source":2
	}],
	"scenes":[{
		"nodes":[0,
		1,
		2,
		3,
		4]
	}],
	"samplers":[{
		"magFilter":9729,
		"minFilter":9729,
		"wrapS":10497,
		"wrapT":10497
	},
	{
		"magFilter":9729,
		"minFilter":9729,
		"wrapS":10497,
		"wrapT":10497
	},
	{
		"magFilter":9729,
		"minFilter":9729,
		"wrapS":10497,
		"wrapT":10497
	}],
	"meshes":[{
		"name":"Tombe_02",
		"primitives":[{
			"attributes":{
				"POSITION":1,
				"TEXCOORD_0":2
			},
			"indices":0,
			"material":0
		}]
	},
	{
		"name":"Tombe_01",
		"primitives":[{
			"attributes":{
				"POSITION":8,
				"TEXCOORD_0":9
			},
			"indices":7,
			"material":1
		}]
	},
	{
		"name":"Tombe_04",
		"primitives":[{
			"attributes":{
				"POSITION":15,
				"TEXCOORD_0":16
			},
			"indices":14,
			"material":2
		}]
	},
	{
		"name":"Tombe_03",
		"primitives":[{
			"attributes":{
				"POSITION":22,
				"TEXCOORD_0":23
			},
			"indices":21,
			"material":3
		}]
	},
	{
		"name":"A5",
		"primitives":[{
			"attributes":{
				"POSITION":29,
				"TEXCOORD_0":30
			},
			"indices":28,
			"material":4
		}]
	}],
	"accessors":[{
		"bufferView":0,
		"type":"SCALAR",
		"componentType":5123,
		"count":732,
		"min":[0],
		"byteOffset":0,
		"max":[249]
	},
	{
		"bufferView":1,
		"type":"VEC3",
		"componentType":5126,
		"count":250,
		"min":[-0.5779581069946289,
		-0.02266690693795681,
		-0.09385748952627182],
		"byteOffset":0,
		"max":[0.6051182746887207,
		1.5383296012878419,
		0.7346999049186707]
	},
	{
		"bufferView":1,
		"type":"VEC2",
		"componentType":5126,
		"count":250,
		"min":[0.008736854419112206,
		0.007628469727933407],
		"byteOffset":12,
		"max":[0.9912631511688232,
		0.9923715591430664]
	},
	{
		"bufferView":2,
		"type":"SCALAR",
		"componentType":5126,
		"count":71,
		"min":[0.0],
		"byteOffset":0,
		"max":[2.799999952316284]
	},
	{
		"bufferView":2,
		"type":"VEC4",
		"componentType":5126,
		"count":71,
		"min":[-2.0423478098822154e-17,
		-1.0,
		0.0,
		-0.5],
		"byteOffset":284,
		"max":[0.5,
		0.5,
		0.5,
		9.177991699971244e-10]
	},
	{
		"bufferView":3,
		"type":"SCALAR",
		"componentType":5126,
		"count":71,
		"min":[0.0],
		"byteOffset":0,
		"max":[2.799999952316284]
	},
	{
		"bufferView":3,
		"type":"VEC3",
		"componentType":5126,
		"count":71,
		"min":[0.0,
		0.0,
		0.0],
		"byteOffset":284,
		"max":[1.0,
		1.0,
		1.0]
	},
	{
		"bufferView":4,
		"type":"SCALAR",
		"componentType":5123,
		"count":240,
		"min":[0],
		"byteOffset":0,
		"max":[85]
	},
	{
		"bufferView":5,
		"type":"VEC3",
		"componentType":5126,
		"count":86,
		"min":[-0.4838976263999939,
		-0.05361277237534523,
		-0.11094928532838822],
		"byteOffset":0,
		"max":[0.4886956512928009,
		1.6616941690444947,
		0.8716533184051514]
	},
	{
		"bufferView":5,
		"type":"VEC2",
		"componentType":5126,
		"count":86,
		"min":[0.0,
		0.0],
		"byteOffset":12,
		"max":[1.0,
		1.0]
	},
	{
		"bufferView":6,
		"type":"SCALAR",
		"componentType":5126,
		"count":71,
		"min":[0.0],
		"byteOffset":0,
		"max":[2.799999952316284]
	},
	{
		"bufferView":6,
		"type":"VEC4",
		"componentType":5126,
		"count":71,
		"min":[-1.5318676877877728e-17,
		-1.0,
		0.0,
		-0.5],
		"byteOffset":284,
		"max":[0.5,
		0.5,
		0.5,
		1.851201969493843e-9]
	},
	{
		"bufferView":7,
		"type":"SCALAR",
		"componentType":5126,
		"count":71,
		"min":[0.0],
		"byteOffset":0,
		"max":[2.799999952316284]
	},
	{
		"bufferView":7,
		"type":"VEC3",
		"componentType":5126,
		"count":71,
		"min":[0.0,
		0.0,
		0.0],
		"byteOffset":284,
		"max":[1.0,
		1.0,
		1.0]
	},
	{
		"bufferView":8,
		"type":"SCALAR",
		"componentType":5123,
		"count":360,
		"min":[0],
		"byteOffset":0,
		"max":[125]
	},
	{
		"bufferView":9,
		"type":"VEC3",
		"componentType":5126,
		"count":126,
		"min":[-0.433093786239624,
		-0.021087532863020898,
		-0.14329835772514344],
		"byteOffset":0,
		"max":[0.4986887276172638,
		1.6002460718154908,
		0.3220991790294647]
	},
	{
		"bufferView":9,
		"type":"VEC2",
		"componentType":5126,
		"count":126,
		"min":[0.009609836153686047,
		0.009617382660508156],
		"byteOffset":12,
		"max":[0.9903901815414429,
		0.9903825521469116]
	},
	{
		"bufferView":10,
		"type":"SCALAR",
		"componentType":5126,
		"count":71,
		"min":[0.0],
		"byteOffset":0,
		"max":[2.799999952316284]
	},
	{
		"bufferView":10,
		"type":"VEC4",
		"componentType":5126,
		"count":71,
		"min":[0.018646858632564546,
		-0.9961206316947937,
		-0.0016095860628411174,
		-0.5],
		"byteOffset":284,
		"max":[0.5,
		0.5,
		0.5696215033531189,
		0.087983138859272]
	},
	{
		"bufferView":11,
		"type":"SCALAR",
		"componentType":5126,
		"count":71,
		"min":[0.0],
		"byteOffset":0,
		"max":[2.799999952316284]
	},
	{
		"bufferView":11,
		"type":"VEC3",
		"componentType":5126,
		"count":71,
		"min":[0.0,
		0.0,
		0.0],
		"byteOffset":284,
		"max":[1.0,
		1.0,
		1.0]
	},
	{
		"bufferView":12,
		"type":"SCALAR",
		"componentType":5123,
		"count":684,
		"min":[0],
		"byteOffset":0,
		"max":[253]
	},
	{
		"bufferView":13,
		"type":"VEC3",
		"componentType":5126,
		"count":254,
		"min":[-0.4826674461364746,
		-0.04823002964258194,
		-0.18801820278167725],
		"byteOffset":0,
		"max":[0.550381600856781,
		1.5974401235580445,
		0.3742981553077698]
	},
	{
		"bufferView":13,
		"type":"VEC2",
		"componentType":5126,
		"count":254,
		"min":[1.956594326651088e-17,
		0.16526228189468385],
		"byteOffset":12,
		"max":[1.0,
		0.934117317199707]
	},
	{
		"bufferView":14,
		"type":"SCALAR",
		"componentType":5126,
		"count":71,
		"min":[0.0],
		"byteOffset":0,
		"max":[2.799999952316284]
	},
	{
		"bufferView":14,
		"type":"VEC4",
		"componentType":5126,
		"count":71,
		"min":[-0.06907478719949722,
		-0.9914554357528687,
		0.0,
		-0.5],
		"byteOffset":284,
		"max":[0.5,
		0.5,
		0.5250042676925659,
		-0.11065606772899628]
	},
	{
		"bufferView":15,
		"type":"SCALAR",
		"componentType":5126,
		"count":71,
		"min":[0.0],
		"byteOffset":0,
		"max":[2.799999952316284]
	},
	{
		"bufferView":15,
		"type":"VEC3",
		"componentType":5126,
		"count":71,
		"min":[0.0,
		0.0,
		0.0],
		"byteOffset":284,
		"max":[1.0,
		1.0,
		1.0]
	},
	{
		"bufferView":16,
		"type":"SCALAR",
		"componentType":5123,
		"count":6,
		"min":[0],
		"byteOffset":0,
		"max":[3]
	},
	{
		"bufferView":17,
		"type":"VEC3",
		"componentType":5126,
		"count":4,
		"min":[-1.6722406148910523,
		0.0,
		-2.3647847175598146],
		"byteOffset":0,
		"max":[1.6722406148910523,
		0.0,
		2.3647847175598146]
	},
	{
		"bufferView":17,
		"type":"VEC2",
		"componentType":5126,
		"count":4,
		"min":[0.009803920984268189,
		0.009803920984268189],
		"byteOffset":12,
		"max":[0.9901959896087647,
		0.9901959896087647]
	}],
	"bufferViews":[{
		"buffer":0,
		"byteOffset":0,
		"byteLength":1464,
		"target":34963
	},
	{
		"buffer":0,
		"byteOffset":1464,
		"byteLength":5000,
		"target":34962,
		"byteStride":20
	},
	{
		"buffer":1,
		"byteOffset":0,
		"byteLength":1420
	},
	{
		"buffer":1,
		"byteOffset":1420,
		"byteLength":1136
	},
	{
		"buffer":2,
		"byteOffset":0,
		"byteLength":480,
		"target":34963
	},
	{
		"buffer":2,
		"byteOffset":480,
		"byteLength":1720,
		"target":34962,
		"byteStride":20
	},
	{
		"buffer":3,
		"byteOffset":0,
		"byteLength":1420
	},
	{
		"buffer":3,
		"byteOffset":1420,
		"byteLength":1136
	},
	{
		"buffer":4,
		"byteOffset":0,
		"byteLength":720,
		"target":34963
	},
	{
		"buffer":4,
		"byteOffset":720,
		"byteLength":2520,
		"target":34962,
		"byteStride":20
	},
	{
		"buffer":5,
		"byteOffset":0,
		"byteLength":1420
	},
	{
		"buffer":5,
		"byteOffset":1420,
		"byteLength":1136
	},
	{
		"buffer":6,
		"byteOffset":0,
		"byteLength":1368,
		"target":34963
	},
	{
		"buffer":6,
		"byteOffset":1368,
		"byteLength":5080,
		"target":34962,
		"byteStride":20
	},
	{
		"buffer":7,
		"byteOffset":0,
		"byteLength":1420
	},
	{
		"buffer":7,
		"byteOffset":1420,
		"byteLength":1136
	},
	{
		"buffer":8,
		"byteOffset":0,
		"byteLength":12,
		"target":34963
	},
	{
		"buffer":8,
		"byteOffset":12,
		"byteLength":80,
		"target":34962,
		"byteStride":20
	}],
	"buffers":[{
		"uri":"data:application/octet-stream;base64,",
		"byteLength":6464
	},
	{
		"uri":"data:application/octet-stream;base64,",
		"byteLength":2556
	},
	{
		"uri":"data:application/octet-stream;base64,",
		"byteLength":2200
	},
	{
		"uri":"data:application/octet-stream;base64,",
		"byteLength":2556
	},
	{
		"uri":"data:application/octet-stream;base64,",
		"byteLength":3240
	},
	{
		"uri":"data:application/octet-stream;base64,",
		"byteLength":2556
	},
	{
		"uri":"data:application/octet-stream;base64,",
		"byteLength":6448
	},
	{
		"uri":"data:application/octet-stream;base64,",
		"byteLength":2556
	},
	{
		"uri":"data:application/octet-stream;base64,",
		"byteLength":92
	}],
	"images":[{
		"uri":"data:image/jpeg;base64,"
	},
	{
		"uri":"data:image/jpeg;base64,"
	},
	{
		"uri":"data:image/jpeg;base64,"
	}],
	"materials":[{
		"pbrMetallicRoughness":{
			"baseColorFactor":[0.8,
			0.8,
			0.8,
			1.0],
			"metallicFactor":0.0,
			"roughnessFactor":0.5
		},
		"emissiveFactor":[0.0,
		0.0,
		0.0],
		"alphaMode":"OPAQUE",
		"doubleSided":false,
		"name":"tombe_02"
	},
	{
		"pbrMetallicRoughness":{
			"baseColorFactor":[0.8,
			0.8,
			0.8,
			1.0],
			"metallicFactor":0.0,
			"roughnessFactor":0.5
		},
		"emissiveFactor":[0.0,
		0.0,
		0.0],
		"alphaMode":"OPAQUE",
		"doubleSided":false,
		"name":"tombe_01"
	},
	{
		"pbrMetallicRoughness":{
			"baseColorTexture":{
				"index":0
			},
			"baseColorFactor":[0.776,
			0.776,
			0.776,
			1.0],
			"metallicFactor":1.0,
			"roughnessFactor":1.0
		},
		"emissiveFactor":[0.0,
		0.0,
		0.0],
		"alphaMode":"OPAQUE",
		"doubleSided":false,
		"name":"tombe_04"
	},
	{
		"pbrMetallicRoughness":{
			"baseColorTexture":{
				"index":1
			},
			"baseColorFactor":[0.2,
			0.2,
			0.2,
			1.0],
			"metallicFactor":1.0,
			"roughnessFactor":1.0
		},
		"emissiveFactor":[0.0,
		0.0,
		0.0],
		"alphaMode":"OPAQUE",
		"doubleSided":false,
		"name":"tombe_03"
	},
	{
		"pbrMetallicRoughness":{
			"baseColorTexture":{
				"index":2
			},
			"baseColorFactor":[0.8,
			0.8,
			0.8,
			1.0],
			"metallicFactor":1.0,
			"roughnessFactor":1.0
		},
		"emissiveFactor":[0.0,
		0.0,
		0.0],
		"alphaMode":"OPAQUE",
		"doubleSided":false,
		"name":"Mat"
	}],
	"animations":[{
		"samplers":[{
			"input":3,
			"interpolation":"LINEAR",
			"output":4
		},
		{
			"input":5,
			"interpolation":"LINEAR",
			"output":6
		},
		{
			"input":10,
			"interpolation":"LINEAR",
			"output":11
		},
		{
			"input":12,
			"interpolation":"LINEAR",
			"output":13
		},
		{
			"input":17,
			"interpolation":"LINEAR",
			"output":18
		},
		{
			"input":19,
			"interpolation":"LINEAR",
			"output":20
		},
		{
			"input":24,
			"interpolation":"LINEAR",
			"output":25
		},
		{
			"input":26,
			"interpolation":"LINEAR",
			"output":27
		}],
		"channels":[{
			"sampler":0,
			"target":{
				"node":0,
				"path":"rotation"
			}
		},
		{
			"sampler":1,
			"target":{
				"node":0,
				"path":"scale"
			}
		},
		{
			"sampler":2,
			"target":{
				"node":1,
				"path":"rotation"
			}
		},
		{
			"sampler":3,
			"target":{
				"node":1,
				"path":"scale"
			}
		},
		{
			"sampler":4,
			"target":{
				"node":2,
				"path":"rotation"
			}
		},
		{
			"sampler":5,
			"target":{
				"node":2,
				"path":"scale"
			}
		},
		{
			"sampler":6,
			"target":{
				"node":3,
				"path":"rotation"
			}
		},
		{
			"sampler":7,
			"target":{
				"node":3,
				"path":"scale"
			}
		}]
	}]
}