<svg xmlns:xlink="http://www.w3.org/1999/xlink" width="435px" height="572px" viewBox="0 0 435 572">
  <defs>
    <linearGradient id="b" x1="50%" x2="50%" y1="0%" y2="100%">
      <stop offset="0%" stop-color="#FFF"/>
      <stop offset="100%" stop-color="#E0E9FF"/>
    </linearGradient>
    <linearGradient id="f" x1="24.581158%" x2="59.3238682%" y1="0%" y2="85.9925852%">
      <stop offset="0%" stop-color="#DFFDFF"/>
      <stop offset="100%" stop-color="#5D86FF"/>
    </linearGradient>
    <linearGradient id="g" x1="50%" x2="50%" y1="0%" y2="100%">
      <stop offset="0%" stop-color="#FFF"/>
      <stop offset="100%"/>
    </linearGradient>
    <linearGradient id="h" x1="50%" x2="50%" y1="0%" y2="100%">
      <stop offset="0%" stop-color="#FFF"/>
      <stop offset="100%"/>
    </linearGradient>
    <filter id="d" width="242.7%" height="242.7%" x="-71.4%" y="-71.4%" filterUnits="objectBoundingBox">
      <feOffset in="SourceAlpha" result="shadowOffsetOuter1"/>
      <feGaussianBlur in="shadowOffsetOuter1" result="shadowBlurOuter1" stdDeviation="112.5"/>
      <feColorMatrix in="shadowBlurOuter1" values="0 0 0 0 1 0 0 0 0 1 0 0 0 0 1 0 0 0 0.5 0"/>
    </filter>
    <circle id="e" cx="236.5" cy="236.5" r="236.5"/>
    <rect id="a" width="315" height="570" x="0" y="0" rx="16"/>
  </defs>
  <g fill="none" fill-rule="evenodd">
    <g transform="translate(60 1)">
      <rect width="316" height="571" x="-0.5" y="-0.5" stroke="#FFF" rx="16"/>
      <mask id="c" fill="#fff">
        <use xlink:href="#a"/>
      </mask>
      <use fill="url(#b)" xlink:href="#a"/>
      <g mask="url(#c)">
        <g transform="translate(-86 -157)">
          <use fill="#000" filter="url(#d)" xlink:href="#e"/>
          <use fill="url(#f)" xlink:href="#e"/>
        </g>
      </g>
      <g opacity="0.251158249" style="mix-blend-mode:overlay" stroke="#000" mask="url(#c)">
        <g transform="translate(-241 -227)">
          <circle cx="398.056782" cy="586" r="148.310726"/>
          <circle cx="398" cy="1132" r="397.5"/>
          <circle cx="398.056782" cy="219.056782" r="218.556782"/>
        </g>
      </g>
    </g>
    <circle cx="182" cy="240" r="182" transform="matrix(0 -1 -1 0 456.486 483)"/>
    <circle cx="217.5" cy="247.897436" r="217.5" transform="matrix(0 -1 -1 0 465.397 526.397)"/>
    <path fill="#000" d="M215.523 546.356c-1.179-1.179-2.877-1.838-5.094-1.977 2.217-.14 3.915-.8 5.094-1.978 1.178-1.178 1.837-2.876 1.977-5.093.14 2.217.799 3.915 1.977 5.093 1.179 1.179 2.877 1.838 5.094 1.978-2.217.14-3.915.798-5.094 1.977-1.178 1.178-1.837 2.876-1.977 5.094-.14-2.218-.799-3.916-1.977-5.094z" style="mix-blend-mode:overlay"/>
    <path stroke="url(#g)" d="M259.503 15.5c.131 10.864 4.54 20.7 11.622 27.899 7.202 7.321 17.167 11.917 28.21 12.096h0l.165 459.008c-10.864.131-20.7 4.54-27.899 11.622-7.321 7.202-11.917 17.167-12.096 28.21h0l-204.008.165c-.131-10.864-4.54-20.7-11.622-27.899-7.202-7.321-17.167-11.917-28.21-12.096h0L15.5 55.497c10.864-.131 20.7-4.54 27.899-11.622 7.321-7.202 11.917-17.167 12.096-28.21h0z" style="mix-blend-mode:overlay" transform="translate(60 1)"/>
    <path stroke="url(#h)" d="M129.55 25.5a28.163 28.163 0 0010.09 18.608 27.996 27.996 0 0020.61 6.275 28.069 28.069 0 0017.026-7.993 28.07 28.07 0 008.128-16.494h0L284 25.5c1.519 0 2.894.616 3.89 1.61A5.483 5.483 0 01289.5 31h0v508a5.483 5.483 0 01-1.61 3.89 5.483 5.483 0 01-3.89 1.61h0-110.582c-.834-4.294-3.242-7.862-6.504-10.209a16.075 16.075 0 00-12.104-2.81 16.17 16.17 0 00-8.69 4.449 16.172 16.172 0 00-4.475 8.228h0L31 544.5a5.483 5.483 0 01-3.89-1.61A5.483 5.483 0 0125.5 539h0V31c0-1.519.616-2.894 1.61-3.89A5.483 5.483 0 0131 25.5h0z" style="mix-blend-mode:overlay" transform="translate(60 1)"/>
    <text fill="#FFF" font-family="NewYork" font-size="26" transform="translate(60 1)">
      <tspan x="152.696" y="41">II</tspan>
    </text>
    <path fill="#FFF" d="M358 16l2 2-2 2-2-2z" opacity="0.7"/>
    <path fill="#000" style="mix-blend-mode:overlay" d="M77 552l2 2-2 2-2-2z"/>
    <path fill="#FFF" fill-opacity="0.7" d="M85.723 18.243a5.998 5.998 0 00-8.483-.003 5.998 5.998 0 00.003 8.483 5.998 5.998 0 008.482.002 5.998 5.998 0 00-.002-8.482zm-3.508 4.962a24.03 24.03 0 003.702-4.768 5.997 5.997 0 01-8.471 8.47 24.005 24.005 0 004.769-3.702z" style="mix-blend-mode:overlay"/>
    <path fill="#000" d="M349.243 553.723a5.998 5.998 0 008.482.002 5.998 5.998 0 00-.002-8.482 5.998 5.998 0 00-8.483-.003 5.998 5.998 0 00.003 8.483zm3.508-4.963a24.03 24.03 0 00-3.703 4.768 5.997 5.997 0 018.472-8.47 24.005 24.005 0 00-4.77 3.702z" style="mix-blend-mode:overlay"/>
    <text fill="#000848" font-family="iAWriterQuattroS-Italic, iA Writer Quattro S" font-size="18" font-style="italic" transform="translate(60 1)">
      <tspan x="100.8" y="510">Les Démons</tspan>
    </text>
    <g fill="#FFF" font-family="iAWriterQuattroS-Italic, iA Writer Quattro S" font-size="17" font-style="italic" letter-spacing="-0.5" opacity="0.8">
      <text transform="translate(108 91)">
        <tspan x="20.66" y="13.8578796">Tu n&apos;as pas encore </tspan> <tspan x="16.06" y="33.8578796">assez d&apos;informations </tspan> <tspan x="1.76" y="53.8578796">pour remplir cette carte</tspan>
      </text>
    </g>
  </g>
</svg>
